<?xml version="1.0" encoding="utf-8"?>
<!-- Generator: Adobe Illustrator 23.0.3, SVG Export Plug-In . SVG Version: 6.00 Build 0)  -->
<svg version="1.1" id="Layer_1" xmlns="http://www.w3.org/2000/svg" xmlns:xlink="http://www.w3.org/1999/xlink" x="0px" y="0px"
	 viewBox="0 0 150 108" style="enable-background:new 0 0 150 108;" xml:space="preserve">
<style type="text/css">
	.st0{fill:#FFFFFF;}
	.st1{opacity:0.75;}
</style>
<g>
	<g>
		<g>
			<polygon class="st0" points="92.7,11.6 91.9,14.3 93.6,16.5 90.8,16.6 89.2,18.9 88.3,16.2 85.5,15.5 87.8,13.8 87.7,10.9 
				90,12.6 			"/>
		</g>
		<g>
			<polygon class="st0" points="100.1,21.8 99.2,24.6 101,26.8 98.1,26.9 96.6,29.2 95.6,26.5 92.9,25.7 95.2,24 95.1,21.2 
				97.4,22.8 			"/>
		</g>
		<g>
			<polygon class="st0" points="110.8,28.7 109.9,31.5 111.7,33.7 108.8,33.7 107.3,36.1 106.3,33.4 103.6,32.6 105.9,30.9 
				105.8,28.1 108.1,29.7 			"/>
		</g>
	</g>
	<g>
		<path d="M52.5,98.5l0-3.5l0.5-0.1c0,0,4.7-1.3,9.4-4.7c5.4-3.9,8.6-8.7,9.7-14.5c-3.4,4.9-9.8,10.4-17.3,10.4
			c-6.5,0-11.9-2-15.5-5.7c-3.1-3.2-4.8-7.5-4.8-12.2c0-15.4,9.7-24.1,19.9-33.3c7.1-6.4,14.5-13.1,19.8-22.7l0.6-1l0.6,1
			c5.5,10,12.9,16.8,20.1,23.3c10.4,9.4,19.4,17.5,19.3,32.8c0,8.9-6.3,17.9-20.4,17.9c-7.6,0-13.9-5.6-17.3-10.5
			C79.6,90.3,95.7,95,95.9,95l0.5,0.1l0,3.5L52.5,98.5z"/>
		<path class="st0" d="M74.6,12.6C88.1,37.2,114,42.9,114,68.3c0,8.2-5.9,17.2-19.7,17.2c0,0,0,0,0,0c-8.3,0-15.4-7.1-18.3-12.7
			c0.9,17.5,19.8,22.8,19.8,22.8l0,2.3l-21.3,0l-21.3,0l0-2.3c0,0,18.9-5.2,19.9-22.7c-2.9,5.6-10,12.6-18.3,12.6c0,0,0,0,0,0
			c-13.9,0-19.7-9-19.7-17.3C35.1,42.8,61.6,36.3,74.6,12.6 M74.6,9.9l-1.1,2.1C68.3,21.4,60.9,28,53.8,34.4
			c-10.3,9.3-20.1,18.1-20.1,33.8c0,4.8,1.8,9.3,5,12.6c3.8,3.9,9.3,5.9,16,5.9c4.7,0,11-2.5,15.8-8C66.3,90.5,53,94.2,52.8,94.3
			l-1,0.3l0,1l0,2.3l0,1.3l1.3,0l21.3,0l21.3,0l1.3,0l0-1.3l0-2.3l0-1l-1-0.3c0,0-4.6-1.3-9.2-4.7c-4.2-3-7-6.7-8.5-10.9
			c4.8,5.5,11.1,8,15.8,8c14.5,0,21-9.3,21-18.5c0-15.6-9.5-24.2-19.5-33.3c-7.2-6.5-14.6-13.2-20-23.1L74.6,9.9L74.6,9.9z"/>
	</g>
	<g>
		<g class="st1">
			<polygon points="24.9,71.9 29.1,55.3 24.9,38.6 124.2,38.6 119.9,55.3 124.2,71.9 			"/>
			<path class="st0" d="M123.3,39.3l-4.1,16l4.1,16H25.7l4.1-16l-4.1-16H123.3 M125,38h-1.7H25.7H24l0.4,1.6l4,15.6l-4,15.6L24,72.5
				h1.7h97.6h1.7l-0.4-1.6l-4-15.6l4-15.6L125,38L125,38z"/>
		</g>
		<g>
			<path class="st0" d="M42.2,50.4c2.5,0,3.9,1.2,3.9,3.4c0,2.2-1.4,3.5-3.9,3.5h-2.3v3h-1.7v-9.9H42.2z M39.9,55.8h2.2
				c1.5,0,2.4-0.7,2.4-2c0-1.3-0.9-1.9-2.4-1.9h-2.2V55.8z"/>
			<path class="st0" d="M63.3,55.3c0,2.8-2.3,5-5.3,5c-3,0-5.3-2.2-5.3-5c0-2.9,2.3-5,5.3-5C61,50.3,63.3,52.5,63.3,55.3z
				 M54.5,55.3c0,2,1.6,3.5,3.6,3.5c1.9,0,3.5-1.6,3.5-3.5c0-2-1.6-3.5-3.5-3.5C56.1,51.8,54.5,53.3,54.5,55.3z"/>
			<path class="st0" d="M74.2,55.9l-1.7,1.9v2.5h-1.7v-9.9h1.7v5.1l4.7-5.1h2l-3.8,4.2l4.1,5.7h-2L74.2,55.9z"/>
			<path class="st0" d="M88.6,51.9v2.7h4.9V56h-4.9v2.7h5.6v1.5h-7.3v-9.9H94v1.5H88.6z"/>
			<path class="st0" d="M106.5,57.3c-0.1,0-0.3,0-0.5,0h-2.4v3H102v-9.9h4c2.5,0,4,1.2,4,3.4c0,1.6-0.7,2.7-2.1,3.2l2.2,3.3h-1.9
				L106.5,57.3z M106,55.8c1.5,0,2.4-0.7,2.4-2c0-1.3-0.9-1.9-2.4-1.9h-2.4v3.9H106z"/>
		</g>
		<g>
			<polygon class="st0" points="25.6,43.4 25.9,44.9 122.9,44.9 123.3,43.4 			"/>
		</g>
	</g>
	<g>
		<polygon class="st0" points="123.2,66.4 122.8,65 26.1,65 25.7,66.4 		"/>
	</g>
	<g>
		<g>
			<polygon class="st0" points="56.4,11.6 57.3,14.3 55.5,16.5 58.4,16.6 60,18.9 60.9,16.2 63.6,15.5 61.3,13.8 61.4,10.9 
				59.1,12.6 			"/>
		</g>
		<g>
			<polygon class="st0" points="49.1,21.8 49.9,24.6 48.2,26.8 51,26.9 52.6,29.2 53.5,26.5 56.3,25.7 54,24 54.1,21.2 51.7,22.8 
							"/>
		</g>
		<g>
			<polygon class="st0" points="38.4,28.7 39.2,31.5 37.5,33.7 40.3,33.7 41.9,36.1 42.8,33.4 45.6,32.6 43.3,30.9 43.4,28.1 
				41,29.7 			"/>
		</g>
	</g>
</g>
</svg>
