<svg xmlns="http://www.w3.org/2000/svg" viewBox="0 0 307.41 118.12"><defs><style>.cls-1{fill:#fff;}</style></defs><title>1x2Gaming_White</title><g id="Layer_2" data-name="Layer 2"><g id="Layer_1-2" data-name="Layer 1"><path class="cls-1" d="M160.54,45.11V71.33a25.28,25.28,0,0,1-.91,7,13.85,13.85,0,0,1-2.83,5.34A12.74,12.74,0,0,1,152,87.11a18.1,18.1,0,0,1-6.91,1.2,25.32,25.32,0,0,1-7.25-1,16,16,0,0,1-6.34-3.72l4.11-5.88a16.73,16.73,0,0,0,4.28,3.06A11.65,11.65,0,0,0,145,81.83a10.55,10.55,0,0,0,4.14-.72,6.72,6.72,0,0,0,2.68-2,7.73,7.73,0,0,0,1.43-3,16.74,16.74,0,0,0,.43-3.93v-2.1h-.11a9.1,9.1,0,0,1-3.94,3.15,12.68,12.68,0,0,1-5,1A13.11,13.11,0,0,1,139,73.1a13.4,13.4,0,0,1-4.31-3.15,13.83,13.83,0,0,1-2.77-4.68,16.88,16.88,0,0,1-1-5.76,18.76,18.76,0,0,1,.91-5.94,13.86,13.86,0,0,1,2.68-4.8,12.78,12.78,0,0,1,4.26-3.21,13.2,13.2,0,0,1,5.68-1.17,12.44,12.44,0,0,1,5.43,1.2,9,9,0,0,1,4,3.84H154V45.11Zm-14.62,5.76a8.41,8.41,0,0,0-3.31.63,7.51,7.51,0,0,0-2.54,1.74,7.9,7.9,0,0,0-1.66,2.7,9.86,9.86,0,0,0-.6,3.51,8.63,8.63,0,0,0,.6,3.24,8.17,8.17,0,0,0,1.69,2.64,8,8,0,0,0,2.57,1.8,7.78,7.78,0,0,0,3.2.66,8.42,8.42,0,0,0,3.4-.66,7.81,7.81,0,0,0,2.57-1.77,7.62,7.62,0,0,0,1.63-2.67,9.7,9.7,0,0,0,.57-3.36,8.64,8.64,0,0,0-2.17-6.12A7.71,7.71,0,0,0,145.91,50.87Z"/><path class="cls-1" d="M182,69.95h-.17a9,9,0,0,1-3.77,3.57,11.35,11.35,0,0,1-5,1.11,12.74,12.74,0,0,1-3.68-.54,9.78,9.78,0,0,1-3.2-1.62,8.2,8.2,0,0,1-2.26-2.7A8,8,0,0,1,163,66a9.06,9.06,0,0,1,.8-4A8.12,8.12,0,0,1,166,59.24a10.71,10.71,0,0,1,3.11-1.77,20.57,20.57,0,0,1,3.68-1,31.36,31.36,0,0,1,3.86-.42q1.94-.09,3.66-.09H182v-.78a4.77,4.77,0,0,0-1.77-4,7.23,7.23,0,0,0-4.51-1.35,10.27,10.27,0,0,0-7.31,3L164.82,49a13.23,13.23,0,0,1,5.34-3.54,18.81,18.81,0,0,1,6.31-1.08,15.22,15.22,0,0,1,4.91.69,10.67,10.67,0,0,1,3.31,1.77,7.76,7.76,0,0,1,2,2.49,12,12,0,0,1,1,2.85,16.36,16.36,0,0,1,.37,2.79q.06,1.35.06,2.37V73.91H182Zm-.4-8.94h-1.43q-1.43,0-3.2.12a16.06,16.06,0,0,0-3.34.57A7.5,7.5,0,0,0,171,63a2.94,2.94,0,0,0-1.09,2.43,3.18,3.18,0,0,0,.43,1.71,4,4,0,0,0,1.11,1.17A4.54,4.54,0,0,0,173,69a7.13,7.13,0,0,0,1.71.21q3.54,0,5.23-1.77a6.72,6.72,0,0,0,1.69-4.83Z"/><path class="cls-1" d="M191.84,45.11h6.51v4.5h.11A9.63,9.63,0,0,1,201.41,46a8.61,8.61,0,0,1,5.46-1.59q6.46,0,8.57,5.34a10,10,0,0,1,3.71-4,10.43,10.43,0,0,1,5.31-1.29,10.13,10.13,0,0,1,4.63,1A8.2,8.2,0,0,1,232.14,48a11.12,11.12,0,0,1,1.69,3.93,21.7,21.7,0,0,1,.51,4.83V73.91h-6.86V57.59a14,14,0,0,0-.23-2.55,6.31,6.31,0,0,0-.8-2.16,4.15,4.15,0,0,0-1.54-1.47,5.15,5.15,0,0,0-2.51-.54,5.17,5.17,0,0,0-4.54,2.31,7.06,7.06,0,0,0-1,2.4,12,12,0,0,0-.31,2.73v15.6h-6.86V56.75a7.51,7.51,0,0,0-1.09-4.29,4,4,0,0,0-3.6-1.59,6.28,6.28,0,0,0-2.88.6,5.6,5.6,0,0,0-1.94,1.62A6.59,6.59,0,0,0,199,55.43a10.94,10.94,0,0,0-.34,2.76V73.91h-6.86Z"/><path class="cls-1" d="M238.51,45.11h6.86V73.91h-6.86Z"/><path class="cls-1" d="M249.82,45.11h6.51v4.62h.11a10,10,0,0,1,3-3.75,8.49,8.49,0,0,1,5.43-1.59,10.31,10.31,0,0,1,4.66,1,8.88,8.88,0,0,1,3.11,2.52,9.74,9.74,0,0,1,1.71,3.6,17.36,17.36,0,0,1,.51,4.26V73.91H268V59.33q0-1.2-.11-2.67a10,10,0,0,0-.6-2.76,5.17,5.17,0,0,0-1.51-2.16,4.2,4.2,0,0,0-2.8-.87,6.28,6.28,0,0,0-2.88.6,5.6,5.6,0,0,0-1.94,1.62A6.57,6.57,0,0,0,257,55.43a10.94,10.94,0,0,0-.34,2.76V73.91h-6.86Z"/><path class="cls-1" d="M307.41,45.11V71.33a25.28,25.28,0,0,1-.91,7,13.85,13.85,0,0,1-2.83,5.34,12.74,12.74,0,0,1-4.83,3.39,18.1,18.1,0,0,1-6.91,1.2,25.32,25.32,0,0,1-7.25-1,16,16,0,0,1-6.34-3.72l4.11-5.88a16.73,16.73,0,0,0,4.28,3.06,11.65,11.65,0,0,0,5.14,1.08,10.55,10.55,0,0,0,4.14-.72,6.72,6.72,0,0,0,2.68-2,7.73,7.73,0,0,0,1.43-3,16.74,16.74,0,0,0,.43-3.93v-2.1h-.11a9.1,9.1,0,0,1-3.94,3.15,12.68,12.68,0,0,1-5,1,13.11,13.11,0,0,1-5.6-1.17,13.4,13.4,0,0,1-4.31-3.15,13.83,13.83,0,0,1-2.77-4.68,16.88,16.88,0,0,1-1-5.76,18.76,18.76,0,0,1,.91-5.94,13.86,13.86,0,0,1,2.68-4.8,12.78,12.78,0,0,1,4.26-3.21,13.2,13.2,0,0,1,5.68-1.17,12.44,12.44,0,0,1,5.43,1.2,9,9,0,0,1,4,3.84h.11V45.11Zm-14.62,5.76a8.41,8.41,0,0,0-3.31.63,7.51,7.51,0,0,0-2.54,1.74,7.9,7.9,0,0,0-1.66,2.7,9.86,9.86,0,0,0-.6,3.51,8.63,8.63,0,0,0,.6,3.24A8.17,8.17,0,0,0,287,65.33a8,8,0,0,0,2.57,1.8,7.78,7.78,0,0,0,3.2.66,8.42,8.42,0,0,0,3.4-.66,7.81,7.81,0,0,0,2.57-1.77,7.62,7.62,0,0,0,1.63-2.67,9.7,9.7,0,0,0,.57-3.36,8.64,8.64,0,0,0-2.17-6.12A7.71,7.71,0,0,0,292.78,50.87Z"/><path class="cls-1" d="M237.54,35.34a4.25,4.25,0,0,1,1.23-3A4.12,4.12,0,0,1,241.88,31a4.41,4.41,0,0,1,3.17,1.23,4.35,4.35,0,0,1,0,6.18,4.41,4.41,0,0,1-3.17,1.23,4.11,4.11,0,0,1-3.11-1.29A4.25,4.25,0,0,1,237.54,35.34Z"/><path class="cls-1" d="M36,82.78l16.7-23.07L35.25,34.9a2.39,2.39,0,0,1,1.48-.23c3,0,6,.06,9.07,0a2.16,2.16,0,0,1,2,1.09c3.17,4.55,6.39,9.07,9.59,13.59.41.59.84,1.16,1.31,1.82,3.73-5.13,7.4-10.11,11-15.15a2.59,2.59,0,0,1,2.8-1.39,2.09,2.09,0,0,0,2.22-1.05c5.44-7.43,10.92-14.83,16.39-22.25a3.29,3.29,0,0,0,.77-1.27,4.59,4.59,0,0,0-.45-.38C90.34,9,89.26,8.16,88.08,7.53A65.17,65.17,0,0,0,66,.54c-.89-.12-1.86,0-2.66-.54H53.24c-.69.59-1.57.42-2.36.53A58.85,58.85,0,0,0,8.33,28.68a59,59,0,0,0-7.8,22.2c-.11.78.06,1.67-.53,2.36V63.95c.39.13.28.47.31.74a63.18,63.18,0,0,0,1,6.29A60.67,60.67,0,0,0,14.2,96.76a64.94,64.94,0,0,0,8.52,8.45c1.11-1,15-21.17,15.3-22.18C37.39,82.81,36.69,83.13,36,82.78ZM19.3,77.9q0-16.72,0-33.45a7.39,7.39,0,0,0-.21-2.2,3.26,3.26,0,0,0-2.74-2.38,20.21,20.21,0,0,0-4-.24,32,32,0,0,1,0-4.45,3.81,3.81,0,0,1,.63-.11c3.52,0,7,0,10.55.05a8.61,8.61,0,0,1,5,1.59,7.87,7.87,0,0,1,3,5.26,18.8,18.8,0,0,1,.29,3.25q0,16.5,0,33a3.21,3.21,0,0,1-.16,1.42H19.53C19.12,79.08,19.3,78.47,19.3,77.9Z"/><path class="cls-1" d="M96,12.87l-15.25,22c.79.39,1.51,0,2.26.39L66.32,58.37,83.74,83.2a4.11,4.11,0,0,1-.66.16c-3.47,0-6.94,0-10.41,0a1.55,1.55,0,0,1-1.4-.88c-2-2.88-4.05-5.74-6.08-8.61l-4.91-6.94c-.19.21-.34.35-.45.51C56.27,72.34,52.7,77.2,49.2,82.12c-.73,1-1.48,1.66-2.79,1.4a2.08,2.08,0,0,0-2.28,1.18c-5.2,7.71-10.47,15.38-15.71,23.07-.18.27-.48.52-.36.91,24.09,16,61.39,12.37,80.86-16.61C127.84,63.92,118.4,30.44,96,12.87ZM85.31,69.32a9.83,9.83,0,0,1,2.94-7.2,49.53,49.53,0,0,1,5.59-4.64c1.61-1.32,3.26-2.57,4.87-3.89A19.41,19.41,0,0,0,100.3,52a6.32,6.32,0,0,0,2-5.08c-.08-1,0-2.08,0-3.12a3.77,3.77,0,0,0-5.83-3.18,2.53,2.53,0,0,0-1.24,2.23c0,1.09,0,2.18,0,3.27a1.38,1.38,0,0,1-.58,1.27c-2.89,2.08-5.77,4.18-8.65,6.27a2.09,2.09,0,0,1-.56.14c0-1.34,0-2.61,0-3.88,0-1.63,0-3.27,0-4.9.21-5.2,3.08-8.09,7.74-9.11a26.06,26.06,0,0,1,12.9.37c2.45.7,4.51,2,5.38,4.63a7.08,7.08,0,0,1,.3,1.59,48.11,48.11,0,0,1,0,7.86,8.21,8.21,0,0,1-3,5.3c-2.62,2.5-5.66,4.48-8.48,6.73a17.15,17.15,0,0,0-4.11,4.45c-1.27,2.1-1.08,4.44-.93,6.86,5.49.19,10.92-.13,16.46.24v5.4H85.51a2.49,2.49,0,0,1-.17-1.46C85.33,75.07,85.42,72.19,85.31,69.32Z"/></g></g></svg>