<?xml version="1.0" encoding="utf-8"?>
<!-- Generator: Adobe Illustrator 19.1.0, SVG Export Plug-In . SVG Version: 6.00 Build 0)  -->
<svg version="1.1" id="Layer_1" xmlns="http://www.w3.org/2000/svg" xmlns:xlink="http://www.w3.org/1999/xlink" x="0px" y="0px"
	 viewBox="-265 381.4 79.6 30.6" style="enable-background:new -265 381.4 79.6 30.6;" xml:space="preserve">
<style type="text/css">
	.st0{fill:#9B9B9B;}
	.st1{fill:#009444;}
</style>
<title>1x2gaming</title>
<g>
	<path class="st0" d="M-223.4,393.1v6.8c0,0.6-0.1,1.2-0.2,1.8c-0.1,0.5-0.4,1-0.7,1.4c-0.3,0.4-0.8,0.7-1.3,0.9
		c-0.6,0.2-1.2,0.3-1.8,0.3c-0.6,0-1.3-0.1-1.9-0.3c-0.6-0.2-1.2-0.5-1.6-1l1.1-1.5c0.3,0.3,0.7,0.6,1.1,0.8
		c0.4,0.2,0.9,0.3,1.3,0.3c0.4,0,0.7,0,1.1-0.1c0.3-0.1,0.5-0.3,0.7-0.5c0.2-0.2,0.3-0.5,0.4-0.8c0.1-0.3,0.1-0.7,0.1-1v-0.5l0,0
		c-0.3,0.4-0.6,0.6-1,0.8c-0.4,0.2-0.9,0.3-1.3,0.3c-0.5,0-1-0.1-1.4-0.3c-0.4-0.2-0.8-0.5-1.1-0.8c-0.3-0.4-0.6-0.8-0.7-1.2
		c-0.2-0.5-0.3-1-0.3-1.5c0-0.5,0.1-1,0.2-1.5c0.1-0.5,0.4-0.9,0.7-1.2c0.3-0.4,0.7-0.6,1.1-0.8c0.5-0.2,1-0.3,1.5-0.3
		c0.5,0,1,0.1,1.4,0.3c0.4,0.2,0.8,0.6,1,1l0,0v-1.2H-223.4z M-227.2,394.6c-0.3,0-0.6,0-0.9,0.2c-0.2,0.1-0.5,0.3-0.7,0.5
		c-0.2,0.2-0.3,0.4-0.4,0.7c-0.1,0.3-0.2,0.6-0.2,0.9c0,0.3,0.1,0.6,0.2,0.8c0.1,0.3,0.3,0.5,0.4,0.7c0.2,0.2,0.4,0.4,0.7,0.5
		c0.3,0.1,0.5,0.2,0.8,0.2c0.3,0,0.6-0.1,0.9-0.2c0.3-0.1,0.5-0.3,0.7-0.5c0.2-0.2,0.3-0.4,0.4-0.7c0.1-0.3,0.2-0.6,0.2-0.9
		c0-0.6-0.2-1.1-0.6-1.6C-226.1,394.8-226.6,394.6-227.2,394.6z"/>
	<path class="st0" d="M-217.9,399.5L-217.9,399.5c-0.2,0.4-0.6,0.7-1,0.9c-0.4,0.2-0.9,0.3-1.3,0.3c-0.3,0-0.7,0-1-0.1
		c-0.3-0.1-0.6-0.2-0.8-0.4c-0.2-0.2-0.4-0.4-0.6-0.7c-0.2-0.3-0.2-0.7-0.2-1c0-0.3,0.1-0.7,0.2-1c0.1-0.3,0.3-0.5,0.6-0.7
		c0.2-0.2,0.5-0.4,0.8-0.5c0.3-0.1,0.7-0.2,1-0.3c0.3-0.1,0.7-0.1,1-0.1h0.9h0.4v-0.2c0-0.4-0.2-0.8-0.5-1c-0.3-0.2-0.8-0.4-1.2-0.4
		c-0.7,0-1.4,0.3-1.9,0.8l-0.9-1c0.4-0.4,0.9-0.7,1.4-0.9c0.5-0.2,1.1-0.3,1.6-0.3c0.4,0,0.9,0.1,1.3,0.2c0.3,0.1,0.6,0.3,0.9,0.5
		c0.2,0.2,0.4,0.4,0.5,0.6c0.1,0.2,0.2,0.5,0.3,0.7c0.1,0.2,0.1,0.5,0.1,0.7c0,0.2,0,0.4,0,0.6v4.3h-1.6L-217.9,399.5z M-218,397.2
		h-0.4h-0.8c-0.3,0-0.5,0.1-0.8,0.2c-0.3,0.1-0.5,0.2-0.7,0.3c-0.2,0.2-0.3,0.4-0.3,0.6c0,0.2,0,0.3,0.1,0.4
		c0.1,0.1,0.2,0.2,0.3,0.3c0.1,0.1,0.3,0.1,0.4,0.2c0.1,0,0.3,0.1,0.4,0.1c0.5,0,1-0.1,1.3-0.5c0.3-0.4,0.4-0.8,0.4-1.3V397.2z"/>
	<path class="st0" d="M-215.3,393.1h1.7v1.2l0,0c0.2-0.4,0.4-0.7,0.8-0.9c0.4-0.3,0.9-0.4,1.4-0.4c1-0.1,1.9,0.5,2.2,1.4
		c0.2-0.4,0.6-0.8,1-1c0.4-0.2,0.9-0.3,1.4-0.3c0.4,0,0.8,0.1,1.2,0.3c0.3,0.2,0.6,0.4,0.8,0.7c0.2,0.3,0.4,0.6,0.4,1
		c0.1,0.4,0.1,0.8,0.1,1.3v4.4h-1.8v-4.3c0-0.2,0-0.4-0.1-0.7c0-0.2-0.1-0.4-0.2-0.6c-0.1-0.2-0.2-0.3-0.4-0.4
		c-0.2-0.1-0.4-0.1-0.7-0.1c-0.5,0-0.9,0.2-1.2,0.6c-0.1,0.2-0.2,0.4-0.3,0.6c-0.1,0.2-0.1,0.5-0.1,0.7v4h-1.8v-4.4
		c0-0.4-0.1-0.8-0.3-1.1c-0.2-0.3-0.6-0.5-0.9-0.4c-0.3,0-0.5,0-0.8,0.2c-0.2,0.1-0.4,0.2-0.5,0.4c-0.1,0.2-0.2,0.4-0.3,0.6
		c-0.1,0.2-0.1,0.5-0.1,0.7v4.1h-1.8V393.1z"/>
	<path class="st0" d="M-203.3,393.1h1.8v7.5h-1.8V393.1z"/>
	<path class="st0" d="M-200.3,393.1h1.7v1.2l0,0c0.2-0.4,0.4-0.7,0.8-1c0.4-0.3,0.9-0.4,1.4-0.4c0.4,0,0.8,0.1,1.2,0.3
		c0.3,0.2,0.6,0.4,0.8,0.6c0.2,0.3,0.4,0.6,0.4,0.9c0.1,0.4,0.1,0.7,0.1,1.1v4.7h-1.7v-3.8c0-0.2,0-0.4,0-0.7c0-0.2-0.1-0.5-0.2-0.7
		c-0.1-0.2-0.2-0.4-0.4-0.6c-0.2-0.2-0.5-0.2-0.7-0.2c-0.3,0-0.5,0-0.8,0.2c-0.2,0.1-0.4,0.2-0.5,0.4c-0.1,0.2-0.2,0.4-0.3,0.6
		c-0.1,0.2-0.1,0.5-0.1,0.7v4.1h-1.8V393.1z"/>
	<path class="st0" d="M-185.4,393.1v6.8c0,0.6-0.1,1.2-0.2,1.8c-0.1,0.5-0.4,1-0.7,1.4c-0.3,0.4-0.8,0.7-1.3,0.9
		c-0.6,0.2-1.2,0.3-1.8,0.3c-0.6,0-1.3-0.1-1.9-0.3c-0.6-0.2-1.2-0.5-1.6-1l1.1-1.5c0.3,0.3,0.7,0.6,1.1,0.8
		c0.4,0.2,0.9,0.3,1.3,0.3c0.4,0,0.7,0,1.1-0.1c0.3-0.1,0.5-0.3,0.7-0.5c0.2-0.2,0.3-0.5,0.4-0.8c0.1-0.3,0.1-0.7,0.1-1v-0.5l0,0
		c-0.3,0.4-0.6,0.6-1,0.8c-0.4,0.2-0.9,0.3-1.3,0.3c-0.5,0-1-0.1-1.4-0.3c-0.4-0.2-0.8-0.5-1.1-0.8c-0.3-0.4-0.6-0.8-0.7-1.2
		c-0.2-0.5-0.3-1-0.3-1.5c0-0.5,0.1-1,0.2-1.5c0.1-0.5,0.4-0.9,0.7-1.2c0.3-0.4,0.7-0.7,1.1-0.9c0.5-0.2,1-0.3,1.5-0.3
		c0.5,0,1,0.1,1.4,0.3c0.4,0.2,0.8,0.6,1,1l0,0v-1.1H-185.4z M-189.2,394.6c-0.3,0-0.6,0-0.9,0.2c-0.2,0.1-0.5,0.3-0.7,0.5
		c-0.2,0.2-0.3,0.4-0.4,0.7c-0.1,0.3-0.2,0.6-0.2,0.9c0,0.3,0.1,0.6,0.2,0.8c0.1,0.3,0.3,0.5,0.4,0.7c0.2,0.2,0.4,0.4,0.7,0.5
		c0.3,0.1,0.5,0.2,0.8,0.2c0.3,0,0.6-0.1,0.9-0.2c0.3-0.1,0.5-0.3,0.7-0.5c0.2-0.2,0.3-0.4,0.4-0.7c0.1-0.3,0.2-0.6,0.1-0.9
		c0-0.6-0.2-1.1-0.6-1.6C-188.1,394.8-188.6,394.6-189.2,394.6z"/>
	<path class="st0" d="M-203.5,390.6c0-0.3,0.1-0.6,0.3-0.8c0.2-0.2,0.5-0.4,0.8-0.4c0.3,0,0.6,0.1,0.8,0.3c0.4,0.4,0.4,1.2,0,1.6
		c0,0,0,0,0,0c-0.2,0.2-0.5,0.3-0.8,0.3c-0.3,0-0.6-0.1-0.8-0.3C-203.4,391.1-203.5,390.9-203.5,390.6z"/>
	<path class="st1" d="M-255.7,402.9l4.3-6l-4.5-6.4c0.1,0,0.3,0,0.4,0c0.8,0,1.6,0,2.4,0c0.2,0,0.4,0.1,0.5,0.3
		c0.8,1.2,1.6,2.4,2.5,3.5l0.3,0.5c1-1.3,1.9-2.6,2.8-3.9c0.1-0.3,0.4-0.4,0.7-0.4c0.2,0,0.5-0.1,0.6-0.3c1.4-1.9,2.8-3.8,4.2-5.8
		c0.1-0.1,0.2-0.2,0.2-0.3l-0.1-0.1c-0.3-0.2-0.6-0.4-0.9-0.6c-1.8-0.9-3.7-1.6-5.7-1.8c-0.2,0-0.5,0-0.7-0.1h-2.6
		c-0.2,0.1-0.4,0.1-0.6,0.1c-4.6,0.6-8.6,3.3-11,7.3c-1,1.8-1.7,3.7-2,5.8c0,0.2,0,0.4-0.1,0.6v2.8c0.1,0,0.1,0.1,0.1,0.2
		c0.1,0.5,0.2,1.1,0.3,1.6c0.6,2.4,1.7,4.7,3.3,6.6c0.7,0.8,1.4,1.5,2.2,2.2c0.3-0.3,3.9-5.5,4-5.7
		C-255.3,402.9-255.5,402.9-255.7,402.9z M-260,401.6c0-2.9,0-5.8,0-8.7c0-0.2,0-0.4,0-0.6c-0.1-0.3-0.4-0.6-0.7-0.6
		c-0.3-0.1-0.7-0.1-1-0.1c0-0.4,0-0.8,0-1.1h0.2c0.9,0,1.8,0,2.7,0c0.5,0,0.9,0.1,1.3,0.4c0.4,0.3,0.7,0.8,0.8,1.4
		c0,0.3,0.1,0.6,0.1,0.8c0,2.8,0,5.7,0,8.5c0,0.1,0,0.2,0,0.4h-3.2C-260,401.9-260,401.7-260,401.6z"/>
	<path class="st0" d="M-240.1,384.8l-3.9,5.7c0.2,0.1,0.4,0,0.6,0.1l-4.3,6l4.5,6.4h-0.2h-2.7c-0.2,0-0.3-0.1-0.4-0.2l-1.6-2.2
		l-1.3-1.8l-0.1,0.1c-0.9,1.3-1.8,2.5-2.8,3.8c-0.1,0.3-0.4,0.4-0.7,0.4c-0.2,0-0.5,0.1-0.6,0.3c-1.4,2-2.7,4-4.1,6
		c0,0.1-0.1,0.1-0.1,0.2c7.1,4.5,16.5,2.4,21-4.8C-232.6,398.2-234.1,389.6-240.1,384.8z M-242.9,399.4c0-0.7,0.3-1.4,0.8-1.9
		c0.5-0.4,0.9-0.8,1.5-1.2l1.3-1c0.1-0.1,0.3-0.3,0.4-0.4c0.4-0.3,0.5-0.8,0.5-1.3c0-0.3,0-0.5,0-0.8c0-0.6-0.5-1-1-1
		c-0.1,0-0.3,0-0.4,0.1c-0.2,0.1-0.3,0.3-0.3,0.6c0,0.3,0,0.6,0,0.9c0,0.1,0,0.3-0.1,0.3l-2.3,1.6c0,0-0.1,0-0.2,0c0-0.4,0-0.7,0-1
		s0-0.9,0-1.3c0-1.2,0.8-2.2,2-2.4c1.1-0.3,2.3-0.2,3.3,0.1c0.6,0.1,1.2,0.6,1.4,1.2c0,0.1,0.1,0.3,0.1,0.4c0.1,0.7,0.1,1.3,0,2
		c-0.1,0.5-0.3,1-0.8,1.4c-0.7,0.6-1.5,1.2-2.2,1.7c-0.4,0.3-0.8,0.7-1.1,1.2c-0.3,0.6-0.3,1.2-0.2,1.8c1.4,0,2.8,0,4.3,0.1v1.4
		h-6.8c0-0.1,0-0.3,0-0.4C-242.9,400.9-242.9,400.1-242.9,399.4z"/>
</g>
</svg>
