<svg xmlns="http://www.w3.org/2000/svg" viewBox="0 0 79.58 30.58"><defs><style>.cls-1{fill:#9b9b9b;}</style></defs><title>1x2-g</title><g id="Layer_2" data-name="Layer 2"><g id="Layer_1-2" data-name="Layer 1"><path class="cls-1" d="M41.56,11.68v6.79a6.54,6.54,0,0,1-.24,1.82,3.58,3.58,0,0,1-.73,1.38,3.3,3.3,0,0,1-1.25.88,4.69,4.69,0,0,1-1.79.31,6.55,6.55,0,0,1-1.88-.26,4.15,4.15,0,0,1-1.64-1l1.06-1.52a4.33,4.33,0,0,0,1.11.79,3,3,0,0,0,1.33.28A2.73,2.73,0,0,0,38.61,21a1.74,1.74,0,0,0,.7-.51,2,2,0,0,0,.37-.78,4.33,4.33,0,0,0,.11-1v-.54h0a2.36,2.36,0,0,1-1,.82,3.28,3.28,0,0,1-1.3.27,3.39,3.39,0,0,1-1.45-.3,3.47,3.47,0,0,1-1.12-.82,3.58,3.58,0,0,1-.72-1.21,4.37,4.37,0,0,1-.25-1.49,4.86,4.86,0,0,1,.24-1.54,3.59,3.59,0,0,1,.7-1.24,3.31,3.31,0,0,1,1.1-.83,3.42,3.42,0,0,1,1.47-.3,3.22,3.22,0,0,1,1.4.31,2.33,2.33,0,0,1,1,1h0V11.68Zm-3.79,1.49a2.18,2.18,0,0,0-.86.16,1.94,1.94,0,0,0-.66.45,2,2,0,0,0-.43.7,2.55,2.55,0,0,0-.16.91,2.23,2.23,0,0,0,.16.84,2.12,2.12,0,0,0,.44.68,2.06,2.06,0,0,0,.67.47,2,2,0,0,0,.83.17,2.18,2.18,0,0,0,.88-.17,2,2,0,0,0,.67-.46,2,2,0,0,0,.42-.69,2.51,2.51,0,0,0,.15-.87,2.24,2.24,0,0,0-.56-1.58A2,2,0,0,0,37.77,13.17Z"/><path class="cls-1" d="M47.12,18.11h0a2.33,2.33,0,0,1-1,.92,2.94,2.94,0,0,1-1.3.29,3.3,3.3,0,0,1-1-.14,2.53,2.53,0,0,1-.83-.42,2.12,2.12,0,0,1-.58-.7,2.06,2.06,0,0,1-.22-1,2.35,2.35,0,0,1,.21-1,2.1,2.1,0,0,1,.55-.71,2.77,2.77,0,0,1,.81-.46,5.33,5.33,0,0,1,1-.26,8.12,8.12,0,0,1,1-.11l.95,0h.44v-.2a1.23,1.23,0,0,0-.46-1,1.87,1.87,0,0,0-1.17-.35,2.66,2.66,0,0,0-1.89.78l-.93-1a3.42,3.42,0,0,1,1.38-.92,4.87,4.87,0,0,1,1.63-.28,3.94,3.94,0,0,1,1.27.18,2.76,2.76,0,0,1,.86.46,2,2,0,0,1,.52.64,3.12,3.12,0,0,1,.27.74,4.24,4.24,0,0,1,.1.72q0,.35,0,.61v4.29h-1.6ZM47,15.79h-.37l-.83,0A4.16,4.16,0,0,0,45,16a1.94,1.94,0,0,0-.69.34.76.76,0,0,0-.28.63.82.82,0,0,0,.11.44,1,1,0,0,0,.29.3,1.17,1.17,0,0,0,.4.18,1.85,1.85,0,0,0,.44.05,1.79,1.79,0,0,0,1.35-.46A1.74,1.74,0,0,0,47,16.21Z"/><path class="cls-1" d="M49.66,11.68h1.69v1.16h0a2.49,2.49,0,0,1,.76-.94,2.23,2.23,0,0,1,1.41-.41,2.15,2.15,0,0,1,2.22,1.38,2.58,2.58,0,0,1,1-1,2.7,2.7,0,0,1,1.38-.33,2.62,2.62,0,0,1,1.2.25,2.12,2.12,0,0,1,.79.68,2.88,2.88,0,0,1,.44,1,5.62,5.62,0,0,1,.13,1.25v4.44H58.89V14.91a3.62,3.62,0,0,0-.06-.66,1.63,1.63,0,0,0-.21-.56,1.07,1.07,0,0,0-.4-.38,1.33,1.33,0,0,0-.65-.14,1.34,1.34,0,0,0-1.18.6,1.83,1.83,0,0,0-.27.62,3.1,3.1,0,0,0-.08.71v4H54.28V14.69A1.94,1.94,0,0,0,54,13.58a1,1,0,0,0-.93-.41,1.63,1.63,0,0,0-.75.16,1.45,1.45,0,0,0-.5.42,1.71,1.71,0,0,0-.29.61,2.83,2.83,0,0,0-.09.71v4.07H49.66Z"/><path class="cls-1" d="M61.75,11.68h1.77v7.45H61.75Z"/><path class="cls-1" d="M64.67,11.68h1.69v1.2h0a2.59,2.59,0,0,1,.77-1,2.2,2.2,0,0,1,1.4-.41,2.67,2.67,0,0,1,1.21.25,2.3,2.3,0,0,1,.81.65,2.52,2.52,0,0,1,.44.93,4.5,4.5,0,0,1,.13,1.1v4.71H69.38V15.36q0-.31,0-.69a2.6,2.6,0,0,0-.16-.71,1.34,1.34,0,0,0-.39-.56,1.09,1.09,0,0,0-.72-.23,1.63,1.63,0,0,0-.75.16,1.45,1.45,0,0,0-.5.42,1.7,1.7,0,0,0-.29.61,2.83,2.83,0,0,0-.09.71v4.07H64.67Z"/><path class="cls-1" d="M79.58,11.68v6.79a6.54,6.54,0,0,1-.24,1.82,3.58,3.58,0,0,1-.73,1.38,3.3,3.3,0,0,1-1.25.88,4.69,4.69,0,0,1-1.79.31,6.55,6.55,0,0,1-1.88-.26,4.15,4.15,0,0,1-1.64-1l1.06-1.52a4.33,4.33,0,0,0,1.11.79,3,3,0,0,0,1.33.28A2.73,2.73,0,0,0,76.63,21a1.74,1.74,0,0,0,.7-.51,2,2,0,0,0,.37-.78,4.33,4.33,0,0,0,.11-1v-.54h0a2.36,2.36,0,0,1-1,.82,3.28,3.28,0,0,1-1.3.27,3.39,3.39,0,0,1-1.45-.3,3.47,3.47,0,0,1-1.12-.82,3.58,3.58,0,0,1-.72-1.21,4.37,4.37,0,0,1-.25-1.49,4.86,4.86,0,0,1,.24-1.54,3.59,3.59,0,0,1,.7-1.24A3.31,3.31,0,0,1,74,11.8a3.42,3.42,0,0,1,1.47-.3,3.22,3.22,0,0,1,1.4.31,2.33,2.33,0,0,1,1,1h0V11.68Zm-3.79,1.49a2.18,2.18,0,0,0-.86.16,1.94,1.94,0,0,0-.66.45,2,2,0,0,0-.43.7,2.55,2.55,0,0,0-.16.91,2.23,2.23,0,0,0,.16.84,2.12,2.12,0,0,0,.44.68,2.06,2.06,0,0,0,.67.47,2,2,0,0,0,.83.17,2.18,2.18,0,0,0,.88-.17,2,2,0,0,0,.67-.46,2,2,0,0,0,.42-.69,2.51,2.51,0,0,0,.15-.87,2.24,2.24,0,0,0-.56-1.58A2,2,0,0,0,75.79,13.17Z"/><path class="cls-1" d="M61.49,9.15a1.1,1.1,0,0,1,.32-.78A1.07,1.07,0,0,1,62.62,8a1.14,1.14,0,0,1,.82.32,1.13,1.13,0,0,1,0,1.6,1.14,1.14,0,0,1-.82.32,1.06,1.06,0,0,1-.81-.33A1.1,1.1,0,0,1,61.49,9.15Z"/><path class="cls-1" d="M9.31,21.43l4.32-6L9.13,9A.62.62,0,0,1,9.51,9c.78,0,1.57,0,2.35,0a.56.56,0,0,1,.53.28c.82,1.18,1.65,2.35,2.48,3.52l.34.47c1-1.33,1.92-2.62,2.85-3.92A.67.67,0,0,1,18.78,9a.54.54,0,0,0,.58-.27c1.41-1.92,2.83-3.84,4.24-5.76a.85.85,0,0,0,.2-.33l-.12-.1c-.29-.19-.57-.39-.88-.56A16.87,16.87,0,0,0,17.09.14,1.37,1.37,0,0,1,16.4,0H13.78c-.18.15-.41.11-.61.14a15.23,15.23,0,0,0-11,7.29,15.28,15.28,0,0,0-2,5.75c0,.2,0,.43-.14.61v2.77c.1,0,.07.12.08.19a16.36,16.36,0,0,0,.27,1.63A15.71,15.71,0,0,0,3.68,25a16.81,16.81,0,0,0,2.2,2.19c.29-.27,3.88-5.48,4-5.74C9.68,21.44,9.5,21.52,9.31,21.43ZM5,20.17q0-4.33,0-8.66a1.91,1.91,0,0,0-.05-.57.84.84,0,0,0-.71-.62,5.23,5.23,0,0,0-1-.06,8.27,8.27,0,0,1,0-1.15l.16,0c.91,0,1.82,0,2.73,0a2.23,2.23,0,0,1,1.3.41,2,2,0,0,1,.78,1.36,4.87,4.87,0,0,1,.07.84q0,4.27,0,8.54a.83.83,0,0,1,0,.37H5.06C4.95,20.47,5,20.31,5,20.17Z"/><path class="cls-1" d="M24.86,3.33,20.91,9c.2.1.39,0,.58.1l-4.32,6,4.51,6.43-.17,0H18.81a.4.4,0,0,1-.36-.23l-1.58-2.23-1.27-1.8-.12.13c-.92,1.26-1.84,2.52-2.75,3.8a.67.67,0,0,1-.72.36.54.54,0,0,0-.59.31c-1.35,2-2.71,4-4.07,6,0,.07-.13.13-.09.24A15.22,15.22,0,0,0,24.86,3.33ZM22.08,17.95a2.55,2.55,0,0,1,.76-1.86,12.82,12.82,0,0,1,1.45-1.2l1.26-1a5,5,0,0,0,.41-.4,1.64,1.64,0,0,0,.51-1.31c0-.27,0-.54,0-.81A1,1,0,0,0,25,10.53a.65.65,0,0,0-.32.58c0,.28,0,.56,0,.85a.36.36,0,0,1-.15.33L22.24,13.9a.54.54,0,0,1-.15,0c0-.35,0-.68,0-1s0-.85,0-1.27a2.32,2.32,0,0,1,2-2.36,6.75,6.75,0,0,1,3.34.09,1.87,1.87,0,0,1,1.39,1.2,1.83,1.83,0,0,1,.08.41,12.45,12.45,0,0,1,0,2,2.13,2.13,0,0,1-.77,1.37c-.68.65-1.47,1.16-2.2,1.74a4.44,4.44,0,0,0-1.06,1.15,2.93,2.93,0,0,0-.24,1.78c1.42,0,2.83,0,4.26.06v1.4H22.14a.64.64,0,0,1,0-.38C22.09,19.43,22.11,18.69,22.08,17.95Z"/></g></g></svg>