<?xml version="1.0" encoding="utf-8"?>
<!-- Generator: Adobe Illustrator 24.1.2, SVG Export Plug-In . SVG Version: 6.00 Build 0)  -->
<svg version="1.1" id="Layer_1" xmlns="http://www.w3.org/2000/svg" xmlns:xlink="http://www.w3.org/1999/xlink" x="0px" y="0px"
	 viewBox="0 0 162.3 48.8" style="enable-background:new 0 0 162.3 48.8;" xml:space="preserve">
<style type="text/css">
	.st0{fill-rule:evenodd;clip-rule:evenodd;fill:#0E57AF;}
	.st1{fill:#0E57AF;}
</style>
<g>
	<g>
		<g>
			<g>
				<path class="st0" d="M19.3,21L14.4,7.3L9.5,21H19.3z M1,33.8v-0.9c1.1-0.1,1.9-0.6,2.4-1.5c0.6-0.8,1.5-3.1,2.8-6.7l8.8-24.5
					h0.8l10.6,28.3c0.7,1.9,1.3,3.1,1.7,3.5c0.4,0.4,1.1,0.7,2.1,0.9v0.9H19.5v-0.9c1.2-0.1,2-0.3,2.4-0.5c0.4-0.2,0.5-0.7,0.5-1.4
					c0-0.2-0.1-0.7-0.2-1.3c-0.1-0.6-0.3-1.3-0.6-1.9L19.9,23H8.8c-1.1,3.3-1.8,5.3-2,6c-0.2,0.7-0.3,1.3-0.3,1.7
					c0,0.8,0.3,1.4,0.9,1.8c0.4,0.2,1,0.3,2,0.4v0.9H1z"/>
				<path class="st0" d="M36.5,33.1c1.4-0.2,2.2-0.5,2.6-1.1c0.4-0.6,0.6-1.9,0.6-3.9V12.5c0-1.4-0.2-2.3-0.6-2.7
					c-0.4-0.4-1.2-0.7-2.5-0.8V8.3h6.5l7.6,19.4l7.2-19.4h6.5v0.7c-1.2,0.1-2,0.4-2.3,0.8c-0.4,0.4-0.5,1.3-0.5,2.7v17.1
					c0,1.4,0.2,2.3,0.5,2.7c0.4,0.4,1.1,0.6,2.3,0.8v0.7h-9.2v-0.7c1.3-0.1,2.1-0.4,2.5-0.8c0.3-0.4,0.5-1.5,0.5-3.1V11.9l-8.4,21.9
					h-0.4l-8.2-21v15.4c0,2.1,0.3,3.5,0.8,4.1c0.3,0.4,1.1,0.7,2.3,0.8v0.7h-7.7V33.1z"/>
				<path class="st0" d="M86.1,23.9l-3.8-10.6l-3.7,10.6H86.1z M72,33.8v-0.7c0.8-0.1,1.5-0.5,1.9-1.1c0.4-0.6,1.2-2.4,2.2-5.2
					l6.8-18.9h0.6l8.1,21.8c0.5,1.5,1,2.4,1.3,2.7c0.3,0.3,0.9,0.6,1.6,0.7v0.7h-8.3v-0.7c1-0.1,1.6-0.2,1.9-0.4
					c0.3-0.1,0.4-0.5,0.4-1.1c0-0.2-0.1-0.5-0.2-1c-0.1-0.5-0.3-1-0.4-1.5l-1.4-3.7H78c-0.9,2.5-1.4,4.1-1.5,4.6
					c-0.2,0.6-0.2,1-0.2,1.3c0,0.7,0.2,1.1,0.7,1.4c0.3,0.2,0.8,0.3,1.6,0.3v0.7H72z"/>
				<path class="st0" d="M98.4,8.3h18.5l0.2,6.5h-0.8c-0.4-2.1-0.9-3.4-1.5-4c-0.6-0.6-1.8-0.9-3.7-0.9h-1.8v19.7
					c0,1.5,0.2,2.4,0.6,2.8c0.4,0.4,1.3,0.6,2.6,0.7v0.7h-9.5v-0.7c1.4-0.1,2.2-0.4,2.6-0.8c0.3-0.4,0.5-1.5,0.5-3.1V9.9h-1.8
					c-1.8,0-3,0.3-3.7,0.9c-0.7,0.6-1.1,2-1.5,4h-0.8L98.4,8.3z"/>
				<path class="st0" d="M124.5,33.1c1.3-0.1,2.2-0.3,2.6-0.7c0.4-0.4,0.6-1.3,0.6-2.8V12.5c0-1.4-0.2-2.3-0.6-2.7
					c-0.4-0.4-1.3-0.7-2.6-0.7V8.3h9.7v0.7c-1.3,0.1-2.2,0.3-2.6,0.7c-0.4,0.4-0.6,1.3-0.6,2.7v17.1c0,1.5,0.2,2.4,0.6,2.8
					c0.4,0.4,1.3,0.6,2.6,0.7v0.7h-9.7V33.1z"/>
				<path class="st0" d="M156.9,8.5c1.2,0.4,1.9,0.6,2.1,0.6c0.3,0,0.6-0.1,0.9-0.3c0.3-0.2,0.5-0.5,0.6-0.9h0.7l0.3,8.6h-0.8
					c-0.4-1.7-1-3.1-1.7-4.2c-1.3-2-3.1-3-5.4-3c-2.3,0-4.2,1.1-5.6,3.2c-1.4,2.1-2.2,5.1-2.2,8.8c0,3.4,0.8,6.2,2.3,8.2
					c1.5,2,3.5,3.1,5.8,3.1c1.7,0,3.3-0.5,4.7-1.4c0.8-0.5,1.7-1.4,2.7-2.4l0.6,0.7c-0.7,1.1-1.6,2-2.7,2.8c-1.8,1.4-3.8,2.1-6,2.1
					c-3.5,0-6.3-1.3-8.4-4c-1.9-2.4-2.9-5.5-2.9-9.2c0-3.7,1-6.9,3-9.4c2.1-2.7,4.9-4,8.3-4C154.5,7.9,155.7,8.1,156.9,8.5z"/>
			</g>
		</g>
		<g>
			<polygon class="st1" points="161.8,37.2 0.1,37.2 0.1,36.6 161.8,36.6 161.8,37.2 			"/>
		</g>
		<g>
			<rect x="0.2" y="40.8" class="st0" width="1.2" height="7.8"/>
			<path class="st0" d="M16,48.6h1.2v-2.3c0-0.7-0.1-2.1-0.2-2.7h0c0.4,1.7,1,3.4,1.4,5h1.1v-7.8h-1.2v2.3c0,0.7,0.1,2.1,0.2,2.7h0
				c-0.4-1.7-1-3.4-1.4-5H16V48.6z"/>
			<path class="st0" d="M34.3,48.6h2.4c0.7,0,1.2-0.4,1.2-0.8v-6.2c0-0.4-0.5-0.8-1.2-0.8h-2.4V48.6z M35.5,41.6h1.2v6.2h-1.2V41.6z
				"/>
			<path class="st0" d="M56.1,40.8h-1.2v7h-1.2v-7h-1.2v6.7c0,0.7,0.8,1.2,1.8,1.2c1,0,1.8-0.5,1.8-1.2V40.8z"/>
			<path class="st0" d="M70.7,47.5c0,0.7,0.8,1.2,1.8,1.2c1,0,1.8-0.5,1.8-1.2v-2.4c0-0.4-0.5-0.8-1.2-0.8h-1.2v-2.7h1.2v1.2h1.2V42
				c0-0.7-0.8-1.2-1.8-1.2c-1,0-1.8,0.5-1.8,1.2v2.4c0,0.4,0.5,0.8,1.2,0.8h1.2v2.7h-1.2v-1.2h-1.2V47.5z"/>
			<polygon class="st0" points="89.7,48.6 90.9,48.6 90.9,41.6 92.2,41.6 92.2,40.8 88.5,40.8 88.5,41.6 89.7,41.6 			"/>
			<path class="st0" d="M106.3,48.6h1.2v-3.5h1.2v2.9c0,0.2,0.1,0.4,0.3,0.6h1.2c-0.2-0.2-0.3-0.4-0.3-0.6v-2.6
				c0-0.5-0.2-0.6-0.5-0.7c0.3-0.1,0.5-0.3,0.5-0.6v-2.5c0-0.4-0.5-0.8-1.2-0.8h-2.4V48.6z M107.5,41.6h1.2v2.7h-1.2V41.6z"/>
			<rect x="124.5" y="40.8" class="st0" width="1.2" height="7.8"/>
			<path class="st0" d="M144,40.8h-2.4c-0.7,0-1.2,0.4-1.2,0.8v6.2c0,0.4,0.5,0.8,1.2,0.8h2.4v-0.8h-2.4v-2.7h1.8v-0.8h-1.8v-2.7
				h2.4V40.8z"/>
			<path class="st0" d="M158.3,47.5c0,0.7,0.8,1.2,1.8,1.2c1,0,1.8-0.5,1.8-1.2v-2.4c0-0.4-0.5-0.8-1.2-0.8h-1.2v-2.7h1.2v1.2h1.2
				V42c0-0.7-0.8-1.2-1.8-1.2c-1,0-1.8,0.5-1.8,1.2v2.4c0,0.4,0.5,0.8,1.2,0.8h1.2v2.7h-1.2v-1.2h-1.2V47.5z"/>
		</g>
	</g>
</g>
</svg>
