<svg xmlns="http://www.w3.org/2000/svg" viewBox="0 0 229.46 107.92"><defs><style>.cls-1{fill:#ffc818;}</style></defs><title>banktransfer</title><g id="Layer_2" data-name="Layer 2"><g id="Layer_1-2" data-name="Layer 1"><path class="cls-1" d="M5.87,37.17a2.7,2.7,0,0,0,2.7,2.7H106a2.7,2.7,0,0,0,2.7-2.7v-.69H5.87Z"/><path class="cls-1" d="M20.82,82.37a1.41,1.41,0,0,0-1.41,1.41v2.52H15.74a1.41,1.41,0,0,0-1.41,1.41v4.35a1.41,1.41,0,0,0,1.41,1.41h22.6a1.41,1.41,0,0,0,1.41-1.41V87.7a1.41,1.41,0,0,0-1.41-1.41H34.66V83.77a1.41,1.41,0,0,0-1.41-1.41H32.12V54.65h1.14a1.41,1.41,0,0,0,1.41-1.41V50.72h3.68a1.41,1.41,0,0,0,1.41-1.41V45a1.41,1.41,0,0,0-1.41-1.41H15.74A1.41,1.41,0,0,0,14.34,45v4.35a1.41,1.41,0,0,0,1.41,1.41h3.68v2.52a1.41,1.41,0,0,0,1.41,1.41H22V82.37Z"/><path class="cls-1" d="M52.51,82.37a1.41,1.41,0,0,0-1.41,1.41v2.52H47.43A1.41,1.41,0,0,0,46,87.7v4.35a1.41,1.41,0,0,0,1.41,1.41H70a1.41,1.41,0,0,0,1.41-1.41V87.7A1.41,1.41,0,0,0,70,86.29H66.35V83.77a1.41,1.41,0,0,0-1.41-1.41H63.81V54.65h1.14a1.41,1.41,0,0,0,1.41-1.41V50.72H70a1.41,1.41,0,0,0,1.41-1.41V45A1.41,1.41,0,0,0,70,43.56H47.43A1.41,1.41,0,0,0,46,45v4.35a1.41,1.41,0,0,0,1.41,1.41H51.1v2.52a1.41,1.41,0,0,0,1.41,1.41h1.14V82.37Z"/><path class="cls-1" d="M84.19,82.37a1.41,1.41,0,0,0-1.41,1.41v2.52H79.11a1.41,1.41,0,0,0-1.41,1.41v4.35a1.41,1.41,0,0,0,1.41,1.41h22.6a1.41,1.41,0,0,0,1.41-1.41V87.7a1.41,1.41,0,0,0-1.41-1.41H98V83.77a1.41,1.41,0,0,0-1.41-1.41H95.49V54.65h1.14A1.41,1.41,0,0,0,98,53.24V50.72h3.68a1.41,1.41,0,0,0,1.41-1.41V45a1.41,1.41,0,0,0-1.41-1.41H79.11A1.41,1.41,0,0,0,77.71,45v4.35a1.41,1.41,0,0,0,1.41,1.41h3.68v2.52a1.41,1.41,0,0,0,1.41,1.41h1.14V82.37Z"/><path class="cls-1" d="M107.66,97.15H6.94A1.85,1.85,0,0,0,5.1,99v1.85H109.51V99A1.85,1.85,0,0,0,107.66,97.15Z"/><path class="cls-1" d="M2,107.92H112.57a2,2,0,0,0,2-1.85v-1.85H0v1.85A2,2,0,0,0,2,107.92Z"/><path class="cls-1" d="M55.52,34.32"/><path class="cls-1" d="M108.74,32.12,60.06.81a5.1,5.1,0,0,0-5.52,0L5.87,32.12v2.2H108.74Z"/><path class="cls-1" d="M122.9,44.78h6.23q4.26,0,6.18,1.21a4.22,4.22,0,0,1,1.92,3.86,4.86,4.86,0,0,1-.84,2.95,3.37,3.37,0,0,1-2.24,1.38v.14a4.41,4.41,0,0,1,2.75,1.59,5.17,5.17,0,0,1,.84,3.1,5.1,5.1,0,0,1-2,4.27,8.56,8.56,0,0,1-5.38,1.53H122.9Zm4.25,7.93h2.47a4.51,4.51,0,0,0,2.5-.53,2,2,0,0,0,.77-1.77,1.77,1.77,0,0,0-.84-1.65,5.41,5.41,0,0,0-2.66-.5h-2.23Zm0,3.37V61.3h2.77a4.1,4.1,0,0,0,2.59-.67,2.48,2.48,0,0,0,.84-2.05q0-2.49-3.56-2.49Z"/><path class="cls-1" d="M150,64.81l-.81-2.08h-.11a6.17,6.17,0,0,1-2.17,1.84,7,7,0,0,1-2.91.51,4.71,4.71,0,0,1-3.47-1.26,4.84,4.84,0,0,1-1.27-3.59,4,4,0,0,1,1.71-3.6,9.88,9.88,0,0,1,5.14-1.28l2.66-.08V54.6a2.08,2.08,0,0,0-2.38-2.33,10.86,10.86,0,0,0-4.31,1.11l-1.38-2.82a12.45,12.45,0,0,1,5.86-1.38,7.3,7.3,0,0,1,4.73,1.34,5,5,0,0,1,1.64,4.08V64.81Zm-1.23-7.1-1.62.05a5.18,5.18,0,0,0-2.71.66,2.07,2.07,0,0,0-.89,1.84q0,1.77,2,1.77a3.21,3.21,0,0,0,2.32-.84,2.94,2.94,0,0,0,.87-2.22Z"/><path class="cls-1" d="M170.25,64.81h-4.18V55.86a4.3,4.3,0,0,0-.59-2.49,2.14,2.14,0,0,0-1.88-.83,2.82,2.82,0,0,0-2.53,1.17,7.26,7.26,0,0,0-.78,3.88v7.21h-4.18V49.49h3.19l.56,2h.23A4.42,4.42,0,0,1,162,49.77a6.55,6.55,0,0,1,2.79-.57,5.36,5.36,0,0,1,4.05,1.45,5.8,5.8,0,0,1,1.38,4.17Z"/><path class="cls-1" d="M177.45,56.48l1.82-2.33,4.29-4.66h4.71l-6.08,6.64,6.45,8.67h-4.82L179.4,58.6,177.61,60v4.77h-4.18V43.49h4.18V53l-.22,3.48Z"/><path class="cls-1" d="M130.62,93.8h-4.25V77.3h-5.44V73.77h15.12V77.3h-5.44Z"/><path class="cls-1" d="M145.55,78.19a6.74,6.74,0,0,1,1.41.12l-.32,3.92a4.79,4.79,0,0,0-1.23-.14,4.43,4.43,0,0,0-3.12,1A3.71,3.71,0,0,0,141.18,86V93.8H137V78.48h3.16l.62,2.58H141A5.76,5.76,0,0,1,142.92,79,4.75,4.75,0,0,1,145.55,78.19Z"/><path class="cls-1" d="M158.08,93.8l-.81-2.08h-.11A6.17,6.17,0,0,1,155,93.56a7,7,0,0,1-2.91.51,4.71,4.71,0,0,1-3.47-1.26,4.84,4.84,0,0,1-1.27-3.59,4,4,0,0,1,1.71-3.6,9.88,9.88,0,0,1,5.14-1.28l2.66-.08v-.67a2.08,2.08,0,0,0-2.38-2.33,10.86,10.86,0,0,0-4.31,1.11l-1.38-2.82a12.45,12.45,0,0,1,5.86-1.38,7.3,7.3,0,0,1,4.73,1.34A5,5,0,0,1,161,83.59V93.8Zm-1.23-7.1-1.62.05a5.18,5.18,0,0,0-2.71.66,2.07,2.07,0,0,0-.89,1.84q0,1.77,2,1.77a3.21,3.21,0,0,0,2.32-.84,2.94,2.94,0,0,0,.87-2.22Z"/><path class="cls-1" d="M178.31,93.8h-4.18V84.85a4.3,4.3,0,0,0-.59-2.49,2.14,2.14,0,0,0-1.88-.83,2.82,2.82,0,0,0-2.53,1.17,7.26,7.26,0,0,0-.78,3.88V93.8h-4.18V78.48h3.19l.56,2h.23a4.42,4.42,0,0,1,1.92-1.68,6.55,6.55,0,0,1,2.79-.57,5.36,5.36,0,0,1,4.05,1.45,5.8,5.8,0,0,1,1.38,4.17Z"/><path class="cls-1" d="M192.17,89.25a4.22,4.22,0,0,1-1.64,3.59,8.09,8.09,0,0,1-4.9,1.23,15.38,15.38,0,0,1-2.85-.23,10.78,10.78,0,0,1-2.21-.66V89.73a14.56,14.56,0,0,0,2.62.92,10.62,10.62,0,0,0,2.57.37q2.27,0,2.27-1.32a1.1,1.1,0,0,0-.3-.8,4.37,4.37,0,0,0-1-.7q-.74-.39-2-.91a12.39,12.39,0,0,1-2.6-1.37,3.86,3.86,0,0,1-1.21-1.45,4.77,4.77,0,0,1-.38-2,3.64,3.64,0,0,1,1.58-3.16,7.71,7.71,0,0,1,4.49-1.12A12.73,12.73,0,0,1,192,79.4l-1.26,3q-1.15-.49-2.15-.81a6.75,6.75,0,0,0-2-.32q-1.85,0-1.85,1a1.18,1.18,0,0,0,.6,1,16.2,16.2,0,0,0,2.61,1.22,12.12,12.12,0,0,1,2.63,1.36,4,4,0,0,1,1.23,1.45A4.46,4.46,0,0,1,192.17,89.25Z"/><path class="cls-1" d="M202.78,81.62h-3.62V93.8H195V81.62h-2.3v-2l2.3-1.12V77.36a5,5,0,0,1,1.29-3.82,5.9,5.9,0,0,1,4.12-1.21,10.73,10.73,0,0,1,3.85.64L203.17,76a7.79,7.79,0,0,0-2.33-.4,1.51,1.51,0,0,0-1.29.53,2.18,2.18,0,0,0-.4,1.35v1h3.62Z"/><path class="cls-1" d="M211,94.07a7.9,7.9,0,0,1-5.78-2,7.73,7.73,0,0,1-2.08-5.78,8.5,8.5,0,0,1,1.92-6,6.85,6.85,0,0,1,5.32-2.1A6.75,6.75,0,0,1,215.42,80a7,7,0,0,1,1.81,5.11v2h-9.88A4,4,0,0,0,208.41,90a3.71,3.71,0,0,0,2.77,1,11.49,11.49,0,0,0,2.62-.29,13.09,13.09,0,0,0,2.58-.92V93a9.81,9.81,0,0,1-2.34.82A14.77,14.77,0,0,1,211,94.07Zm-.59-12.9a2.65,2.65,0,0,0-2.08.84,3.9,3.9,0,0,0-.86,2.39h5.86A3.48,3.48,0,0,0,212.5,82,2.74,2.74,0,0,0,210.39,81.17Z"/><path class="cls-1" d="M228.05,78.19a6.74,6.74,0,0,1,1.41.12l-.32,3.92a4.79,4.79,0,0,0-1.23-.14,4.43,4.43,0,0,0-3.12,1A3.71,3.71,0,0,0,223.68,86V93.8H219.5V78.48h3.16l.62,2.58h.21A5.76,5.76,0,0,1,225.41,79,4.75,4.75,0,0,1,228.05,78.19Z"/></g></g></svg>