<?xml version="1.0" encoding="utf-8"?>
<!-- Generator: Adobe Illustrator 22.1.0, SVG Export Plug-In . SVG Version: 6.00 Build 0)  -->
<svg version="1.1" id="Layer_1" xmlns="http://www.w3.org/2000/svg" xmlns:xlink="http://www.w3.org/1999/xlink" x="0px" y="0px"
	 viewBox="0 0 640 93" style="enable-background:new 0 0 640 93;" xml:space="preserve">
<style type="text/css">
	.st0{fill:#A61F67;}
</style>
<g>
	<g>
		<g>
			<g>
				<g>
					<g>
						<g>
							<g>
								<g>
									<g>
										<g>
											<g>
												<path class="st0" d="M11,74.8V17.5h21.4c4,0,7.4,0.4,10.3,1.1c2.8,0.7,5.1,1.8,6.9,3.1c1.8,1.3,3.1,3,3.9,4.9
													c0.8,1.9,1.2,4,1.2,6.4c0,1.3-0.2,2.5-0.6,3.7c-0.4,1.2-1,2.3-1.8,3.4s-1.8,2-3.1,2.9c-1.3,0.9-2.8,1.6-4.5,2.2
													c3.8,0.9,6.7,2.4,8.5,4.5c1.8,2.1,2.8,4.7,2.8,7.9c0,2.4-0.5,4.7-1.4,6.8c-1,2.1-2.4,3.9-4.2,5.5
													c-1.9,1.6-4.1,2.8-6.8,3.7c-2.7,0.9-5.8,1.3-9.3,1.3H11z M24.5,41.6h7c1.5,0,2.8-0.1,4-0.3c1.2-0.2,2.2-0.6,3.1-1.1
													c0.8-0.5,1.5-1.2,1.9-2.2c0.4-0.9,0.7-2.1,0.7-3.5c0-1.4-0.2-2.5-0.5-3.4c-0.3-0.9-0.9-1.6-1.6-2.2
													c-0.7-0.6-1.6-0.9-2.7-1.2c-1.1-0.2-2.4-0.4-3.9-0.4h-7.9V41.6z M24.5,50.5v14.3H34c1.8,0,3.2-0.2,4.4-0.7
													c1.1-0.4,2-1,2.7-1.7c0.6-0.7,1.1-1.5,1.3-2.4c0.2-0.9,0.4-1.8,0.4-2.7c0-1-0.1-2-0.4-2.8c-0.3-0.8-0.8-1.5-1.4-2.1
													c-0.7-0.6-1.6-1-2.7-1.3c-1.1-0.3-2.5-0.5-4.2-0.5H24.5z"/>
											</g>
										</g>
									</g>
								</g>
							</g>
						</g>
					</g>
				</g>
			</g>
		</g>
	</g>
	<g>
		<g>
			<g>
				<g>
					<g>
						<g>
							<g>
								<g>
									<g>
										<g>
											<g>
												<path class="st0" d="M101.9,17.5v10.2H78v13.4h18.3v9.8H78v13.6h23.9v10.2H64.5V17.5H101.9z"/>
											</g>
										</g>
									</g>
								</g>
							</g>
						</g>
					</g>
				</g>
			</g>
		</g>
	</g>
	<g>
		<g>
			<g>
				<g>
					<g>
						<g>
							<g>
								<g>
									<g>
										<g>
											<g>
												<path class="st0" d="M152,17.5v10.5h-16.4v46.7h-13.5V28.1h-16.4V17.5H152z"/>
											</g>
										</g>
									</g>
								</g>
							</g>
						</g>
					</g>
				</g>
			</g>
		</g>
	</g>
	<g>
		<g>
			<g>
				<g>
					<g>
						<g>
							<g>
								<g>
									<g>
										<g>
											<g>
												<path class="st0" d="M200.7,63.2c0.4,0,0.8,0.2,1.1,0.5l3.1,3.3c-2.3,2.7-5.2,4.8-8.5,6.3c-3.3,1.5-7.4,2.2-12.1,2.2
													c-4.1,0-7.8-0.7-11.2-2.1c-3.4-1.4-6.2-3.4-8.6-5.9c-2.4-2.5-4.2-5.6-5.5-9.1c-1.3-3.5-2-7.4-2-11.7
													c0-4.2,0.7-8.1,2-11.7c1.4-3.5,3.3-6.6,5.7-9.1c2.5-2.5,5.4-4.5,8.8-5.9c3.4-1.4,7.2-2.1,11.4-2.1
													c4.1,0,7.7,0.6,10.8,1.9c3.1,1.3,5.9,3,8.2,5.2l-2.6,3.5c-0.2,0.3-0.4,0.5-0.6,0.6c-0.3,0.2-0.6,0.3-1,0.3
													c-0.5,0-1.1-0.3-1.8-0.8c-0.7-0.5-1.6-1.1-2.7-1.7c-1.1-0.6-2.5-1.2-4.2-1.7c-1.7-0.5-3.7-0.8-6.2-0.8
													c-3,0-5.7,0.5-8.1,1.5c-2.4,1-4.6,2.5-6.3,4.4c-1.8,1.9-3.1,4.2-4.1,7c-1,2.8-1.5,5.9-1.5,9.3c0,3.5,0.5,6.6,1.5,9.4
													c1,2.8,2.4,5.1,4.2,7c1.8,1.9,3.9,3.3,6.3,4.3c2.4,1,5,1.5,7.8,1.5c1.7,0,3.2-0.1,4.6-0.3c1.4-0.2,2.6-0.5,3.8-0.9
													c1.2-0.4,2.2-0.9,3.2-1.6c1-0.6,2-1.4,3-2.3C199.8,63.4,200.3,63.2,200.7,63.2z"/>
											</g>
										</g>
									</g>
								</g>
							</g>
						</g>
					</g>
				</g>
			</g>
		</g>
	</g>
	<g>
		<g>
			<g>
				<g>
					<g>
						<g>
							<g>
								<g>
									<g>
										<g>
											<g>
												<path class="st0" d="M265.7,46.7c0,4.2-0.7,8.1-2,11.6c-1.4,3.5-3.3,6.6-5.8,9.1c-2.5,2.5-5.5,4.5-8.9,5.9
													c-3.5,1.4-7.3,2.1-11.5,2.1c-4.2,0-8-0.7-11.5-2.1c-3.5-1.4-6.4-3.4-8.9-5.9c-2.5-2.5-4.4-5.6-5.8-9.1s-2-7.4-2-11.6
													c0-4.2,0.7-8.1,2-11.6c1.4-3.5,3.3-6.6,5.8-9.1c2.5-2.6,5.4-4.5,8.9-6c3.5-1.4,7.3-2.1,11.5-2.1c4.2,0,8,0.7,11.5,2.1
													c3.5,1.4,6.4,3.4,8.9,6c2.5,2.6,4.4,5.6,5.8,9.1C265,38.6,265.7,42.4,265.7,46.7z M257.7,46.7c0-3.5-0.5-6.6-1.4-9.3
													c-1-2.8-2.3-5.1-4.1-7c-1.8-1.9-3.9-3.4-6.4-4.4c-2.5-1-5.3-1.5-8.4-1.5c-3.1,0-5.8,0.5-8.3,1.5c-2.5,1-4.6,2.5-6.4,4.4
													c-1.8,1.9-3.1,4.2-4.1,7c-1,2.8-1.4,5.9-1.4,9.3c0,3.5,0.5,6.6,1.4,9.3c1,2.7,2.3,5.1,4.1,7c1.8,1.9,3.9,3.4,6.4,4.4
													c2.5,1,5.3,1.5,8.3,1.5c3.1,0,5.9-0.5,8.4-1.5c2.5-1,4.6-2.5,6.4-4.4c1.8-1.9,3.1-4.2,4.1-7
													C257.2,53.2,257.7,50.1,257.7,46.7z"/>
											</g>
										</g>
									</g>
								</g>
							</g>
						</g>
					</g>
				</g>
			</g>
		</g>
	</g>
	<g>
		<g>
			<g>
				<g>
					<g>
						<g>
							<g>
								<g>
									<g>
										<g>
											<g>
												<path class="st0" d="M281.6,18.5c0.2,0,0.5,0.1,0.6,0.2c0.2,0.1,0.4,0.2,0.6,0.4c0.2,0.2,0.4,0.4,0.6,0.6l33.1,42.4
													c-0.1-0.7-0.1-1.3-0.1-2c0-0.6-0.1-1.3-0.1-1.8V18.5h6.8v56.3h-3.9c-0.6,0-1.1-0.1-1.5-0.3c-0.4-0.2-0.8-0.6-1.2-1.1
													L283.3,31c0.1,0.7,0.1,1.3,0.1,1.9c0,0.6,0,1.2,0,1.7v40.1h-6.8V18.5h4C281.1,18.5,281.3,18.5,281.6,18.5z"/>
											</g>
										</g>
									</g>
								</g>
							</g>
						</g>
					</g>
				</g>
			</g>
		</g>
	</g>
	<g>
		<g>
			<g>
				<g>
					<g>
						<g>
							<g>
								<g>
									<g>
										<g>
											<g>
												<path class="st0" d="M367,27.3c-0.2,0.4-0.5,0.7-0.8,0.9c-0.3,0.2-0.6,0.3-1,0.3c-0.5,0-1-0.2-1.6-0.7
													c-0.6-0.4-1.4-0.9-2.3-1.5c-0.9-0.5-2-1-3.3-1.5c-1.3-0.4-2.9-0.7-4.7-0.7c-1.7,0-3.3,0.2-4.6,0.7
													c-1.3,0.5-2.4,1.1-3.3,1.9c-0.9,0.8-1.6,1.7-2,2.8c-0.5,1.1-0.7,2.2-0.7,3.4c0,1.6,0.4,2.9,1.2,3.9
													c0.8,1,1.8,1.9,3.1,2.7c1.3,0.7,2.8,1.4,4.4,1.9c1.6,0.5,3.3,1.1,5,1.7c1.7,0.6,3.4,1.2,5,1.9c1.6,0.7,3.1,1.6,4.4,2.7
													c1.3,1.1,2.3,2.5,3.1,4c0.8,1.6,1.2,3.6,1.2,5.9c0,2.5-0.4,4.8-1.3,6.9c-0.9,2.2-2.1,4-3.7,5.6c-1.6,1.6-3.6,2.9-6,3.8
													c-2.4,0.9-5.1,1.4-8.1,1.4c-3.7,0-7.1-0.7-10.1-2c-3-1.3-5.6-3.1-7.8-5.4l2.2-3.6c0.2-0.3,0.5-0.5,0.8-0.7
													c0.3-0.2,0.6-0.3,1-0.3c0.3,0,0.7,0.1,1.2,0.4c0.4,0.3,0.9,0.6,1.5,1c0.6,0.4,1.2,0.9,1.9,1.4c0.7,0.5,1.5,1,2.5,1.4
													c0.9,0.4,2,0.8,3.1,1c1.2,0.3,2.5,0.4,4,0.4c1.8,0,3.5-0.2,4.9-0.7c1.4-0.5,2.7-1.2,3.7-2.1c1-0.9,1.8-2,2.3-3.2
													c0.5-1.3,0.8-2.7,0.8-4.2c0-1.7-0.4-3.1-1.2-4.2c-0.8-1.1-1.8-2-3.1-2.7c-1.3-0.7-2.7-1.4-4.4-1.9c-1.7-0.5-3.3-1-5-1.6
													c-1.7-0.5-3.4-1.2-5-1.9c-1.7-0.7-3.1-1.6-4.4-2.8c-1.3-1.1-2.3-2.5-3.1-4.2c-0.8-1.7-1.2-3.8-1.2-6.3
													c0-2,0.4-3.9,1.2-5.8c0.8-1.9,1.9-3.5,3.4-5c1.5-1.4,3.4-2.6,5.6-3.5c2.2-0.9,4.7-1.3,7.6-1.3c3.2,0,6.1,0.5,8.7,1.5
													c2.6,1,4.9,2.4,6.9,4.3L367,27.3z"/>
											</g>
										</g>
									</g>
								</g>
							</g>
						</g>
					</g>
				</g>
			</g>
		</g>
	</g>
	<g>
		<g>
			<g>
				<g>
					<g>
						<g>
							<g>
								<g>
									<g>
										<g>
											<g>
												<path class="st0" d="M419.7,18.5v6.4h-18.5v49.9h-7.7V24.9h-18.6v-6.4H419.7z"/>
											</g>
										</g>
									</g>
								</g>
							</g>
						</g>
					</g>
				</g>
			</g>
		</g>
	</g>
	<g>
		<g>
			<g>
				<g>
					<g>
						<g>
							<g>
								<g>
									<g>
										<g>
											<g>
												<path class="st0" d="M435.9,51.3v23.5h-7.7V18.5h16.2c3.6,0,6.7,0.4,9.4,1.1c2.6,0.7,4.8,1.8,6.5,3.1
													c1.7,1.4,3,3,3.8,4.9c0.8,1.9,1.2,4.1,1.2,6.5c0,2-0.3,3.9-1,5.6c-0.6,1.7-1.6,3.3-2.8,4.7c-1.2,1.4-2.7,2.6-4.4,3.5
													c-1.7,1-3.7,1.7-5.9,2.2c1,0.6,1.9,1.4,2.6,2.4l16.7,22.4h-6.9c-1.4,0-2.4-0.5-3.1-1.6l-14.9-20.1
													c-0.5-0.6-0.9-1.1-1.5-1.4c-0.5-0.3-1.3-0.4-2.4-0.4H435.9z M435.9,45.8h8.1c2.2,0,4.2-0.3,5.9-0.8
													c1.7-0.5,3.2-1.3,4.3-2.3c1.2-1,2-2.2,2.6-3.5c0.6-1.4,0.9-2.9,0.9-4.5c0-3.4-1.1-5.9-3.4-7.6
													c-2.2-1.7-5.6-2.6-10.1-2.6h-8.5V45.8z"/>
											</g>
										</g>
									</g>
								</g>
							</g>
						</g>
					</g>
				</g>
			</g>
		</g>
	</g>
	<g>
		<g>
			<g>
				<g>
					<g>
						<g>
							<g>
								<g>
									<g>
										<g>
											<g>
												<path class="st0" d="M500.3,68.8c2.4,0,4.5-0.4,6.3-1.2c1.9-0.8,3.4-1.9,4.7-3.3c1.3-1.4,2.3-3.1,3-5.1
													c0.7-2,1-4.1,1-6.5V18.5h7.7v34.2c0,3.3-0.5,6.3-1.6,9c-1.1,2.8-2.6,5.2-4.5,7.2c-2,2-4.3,3.6-7.2,4.8
													c-2.8,1.2-6,1.7-9.5,1.7c-3.5,0-6.7-0.6-9.5-1.7c-2.8-1.2-5.2-2.7-7.2-4.8c-2-2-3.5-4.4-4.5-7.2c-1.1-2.8-1.6-5.8-1.6-9
													V18.5h7.7v34.2c0,2.4,0.3,4.5,1,6.5c0.7,2,1.7,3.7,3,5.1c1.3,1.4,2.9,2.5,4.8,3.3C495.8,68.4,497.9,68.8,500.3,68.8z"/>
											</g>
										</g>
									</g>
								</g>
							</g>
						</g>
					</g>
				</g>
			</g>
		</g>
	</g>
	<g>
		<g>
			<g>
				<g>
					<g>
						<g>
							<g>
								<g>
									<g>
										<g>
											<g>
												<path class="st0" d="M577.1,63.2c0.4,0,0.8,0.2,1.1,0.5l3.1,3.3c-2.3,2.7-5.2,4.8-8.5,6.3c-3.3,1.5-7.4,2.2-12.1,2.2
													c-4.1,0-7.8-0.7-11.2-2.1c-3.4-1.4-6.2-3.4-8.6-5.9c-2.4-2.5-4.2-5.6-5.5-9.1c-1.3-3.5-2-7.4-2-11.7
													c0-4.2,0.7-8.1,2-11.7c1.4-3.5,3.3-6.6,5.7-9.1c2.5-2.5,5.4-4.5,8.8-5.9c3.4-1.4,7.2-2.1,11.4-2.1
													c4.1,0,7.7,0.6,10.8,1.9c3.1,1.3,5.9,3,8.2,5.2l-2.6,3.5c-0.2,0.3-0.4,0.5-0.6,0.6c-0.3,0.2-0.6,0.3-1,0.3
													c-0.5,0-1.1-0.3-1.8-0.8c-0.7-0.5-1.6-1.1-2.7-1.7c-1.1-0.6-2.5-1.2-4.2-1.7c-1.7-0.5-3.7-0.8-6.2-0.8
													c-3,0-5.7,0.5-8.1,1.5c-2.4,1-4.6,2.5-6.3,4.4c-1.8,1.9-3.1,4.2-4.1,7c-1,2.8-1.5,5.9-1.5,9.3c0,3.5,0.5,6.6,1.5,9.4
													c1,2.8,2.4,5.1,4.2,7c1.8,1.9,3.9,3.3,6.3,4.3c2.4,1,5,1.5,7.8,1.5c1.7,0,3.2-0.1,4.6-0.3c1.4-0.2,2.6-0.5,3.8-0.9
													c1.2-0.4,2.2-0.9,3.2-1.6c1-0.6,2-1.4,3-2.3C576.2,63.4,576.7,63.2,577.1,63.2z"/>
											</g>
										</g>
									</g>
								</g>
							</g>
						</g>
					</g>
				</g>
			</g>
		</g>
	</g>
	<g>
		<g>
			<g>
				<g>
					<g>
						<g>
							<g>
								<g>
									<g>
										<g>
											<g>
												<path class="st0" d="M629,18.5v6.4h-18.5v49.9h-7.7V24.9h-18.6v-6.4H629z"/>
											</g>
										</g>
									</g>
								</g>
							</g>
						</g>
					</g>
				</g>
			</g>
		</g>
	</g>
</g>
</svg>
