<?xml version="1.0" encoding="utf-8"?>
<!-- Generator: Adobe Illustrator 22.1.0, SVG Export Plug-In . SVG Version: 6.00 Build 0)  -->
<svg version="1.1" id="Layer_1" xmlns="http://www.w3.org/2000/svg" xmlns:xlink="http://www.w3.org/1999/xlink" x="0px" y="0px"
	 viewBox="0 0 640 93" style="enable-background:new 0 0 640 93;" xml:space="preserve">
<style type="text/css">
	.st0{fill:#CCC9C8;}
</style>
<g>
	<g>
		<g>
			<g>
				<g>
					<g>
						<g>
							<g>
								<g>
									<g>
										<g>
											<g>
												<path class="st0" d="M27,73.8V18.6h20.3c3.8,0,7.1,0.4,9.7,1.1c2.7,0.7,4.9,1.7,6.6,3s2.9,2.9,3.7,4.7
													c0.8,1.8,1.2,3.9,1.2,6.2c0,1.2-0.2,2.4-0.5,3.6c-0.4,1.1-0.9,2.2-1.7,3.2s-1.7,1.9-2.9,2.7c-1.2,0.8-2.6,1.5-4.3,2.1
													c3.6,0.9,6.3,2.3,8.1,4.3c1.7,2,2.6,4.5,2.6,7.6c0,2.3-0.5,4.5-1.4,6.6c-0.9,2-2.2,3.8-4,5.3c-1.8,1.5-3.9,2.7-6.5,3.5
													s-5.5,1.3-8.8,1.3H27z M39.8,41.8h6.7c1.4,0,2.7-0.1,3.8-0.3s2.1-0.6,2.9-1.1c0.8-0.5,1.4-1.2,1.8-2.1
													c0.4-0.9,0.6-2,0.6-3.3s-0.2-2.4-0.5-3.3c-0.3-0.9-0.8-1.6-1.5-2.1s-1.5-0.9-2.6-1.1c-1-0.2-2.3-0.3-3.7-0.3h-7.5V41.8z
													 M39.8,50.4v13.7h9c1.7,0,3.1-0.2,4.1-0.6c1.1-0.4,1.9-1,2.5-1.7s1-1.5,1.2-2.3c0.2-0.9,0.3-1.7,0.3-2.6
													c0-1-0.1-1.9-0.4-2.7c-0.3-0.8-0.7-1.5-1.4-2c-0.6-0.6-1.5-1-2.6-1.3s-2.4-0.5-4-0.5H39.8z"/>
											</g>
										</g>
									</g>
								</g>
							</g>
						</g>
					</g>
				</g>
			</g>
		</g>
	</g>
	<g>
		<g>
			<g>
				<g>
					<g>
						<g>
							<g>
								<g>
									<g>
										<g>
											<g>
												<path class="st0" d="M113.2,18.6v9.8H90.6v12.9h17.3v9.5H90.6v13.1h22.6v9.8H77.7V18.6H113.2z"/>
											</g>
										</g>
									</g>
								</g>
							</g>
						</g>
					</g>
				</g>
			</g>
		</g>
	</g>
	<g>
		<g>
			<g>
				<g>
					<g>
						<g>
							<g>
								<g>
									<g>
										<g>
											<g>
												<path class="st0" d="M160.7,18.6v10.1h-15.5v45h-12.8v-45h-15.5V18.6H160.7z"/>
											</g>
										</g>
									</g>
								</g>
							</g>
						</g>
					</g>
				</g>
			</g>
		</g>
	</g>
	<g>
		<g>
			<g>
				<g>
					<g>
						<g>
							<g>
								<g>
									<g>
										<g>
											<g>
												<path class="st0" d="M206.9,62.6c0.4,0,0.8,0.2,1.1,0.5l2.9,3.1c-2.2,2.6-4.9,4.6-8.1,6c-3.2,1.4-7,2.2-11.5,2.2
													c-3.9,0-7.4-0.7-10.6-2c-3.2-1.3-5.9-3.2-8.1-5.7c-2.2-2.4-4-5.4-5.2-8.8c-1.2-3.4-1.9-7.2-1.9-11.2
													c0-4.1,0.6-7.8,1.9-11.2c1.3-3.4,3.1-6.3,5.4-8.8c2.3-2.4,5.1-4.3,8.4-5.7c3.3-1.4,6.9-2,10.8-2c3.9,0,7.3,0.6,10.2,1.9
													c3,1.2,5.6,2.9,7.8,5l-2.4,3.4c-0.2,0.3-0.3,0.5-0.6,0.6c-0.2,0.2-0.6,0.2-1,0.2c-0.5,0-1-0.2-1.7-0.7s-1.5-1-2.6-1.6
													s-2.4-1.2-4-1.6c-1.6-0.5-3.5-0.7-5.9-0.7c-2.8,0-5.4,0.5-7.7,1.5s-4.3,2.4-6,4.2s-3,4.1-3.9,6.7
													c-0.9,2.7-1.4,5.6-1.4,9s0.5,6.4,1.5,9c1,2.7,2.3,4.9,4,6.7s3.7,3.2,5.9,4.2c2.3,1,4.8,1.4,7.4,1.4
													c1.6,0,3.1-0.1,4.4-0.3c1.3-0.2,2.5-0.5,3.6-0.9s2.1-0.9,3.1-1.5c0.9-0.6,1.9-1.4,2.8-2.2
													C206,62.7,206.5,62.6,206.9,62.6z"/>
											</g>
										</g>
									</g>
								</g>
							</g>
						</g>
					</g>
				</g>
			</g>
		</g>
	</g>
	<g>
		<g>
			<g>
				<g>
					<g>
						<g>
							<g>
								<g>
									<g>
										<g>
											<g>
												<path class="st0" d="M268.5,46.7c0,4.1-0.6,7.8-1.9,11.2s-3.1,6.3-5.5,8.8c-2.3,2.4-5.2,4.3-8.5,5.7
													c-3.3,1.4-6.9,2-10.9,2s-7.6-0.7-10.9-2c-3.3-1.3-6.1-3.2-8.4-5.7c-2.3-2.4-4.2-5.4-5.5-8.8c-1.3-3.4-1.9-7.1-1.9-11.2
													s0.6-7.8,1.9-11.2c1.3-3.4,3.1-6.3,5.5-8.8c2.3-2.5,5.2-4.4,8.4-5.7c3.3-1.4,6.9-2,10.9-2s7.6,0.7,10.9,2
													c3.3,1.4,6.1,3.3,8.5,5.7c2.3,2.5,4.2,5.4,5.5,8.8C267.8,38.9,268.5,42.6,268.5,46.7z M260.9,46.7c0-3.3-0.5-6.3-1.4-9
													s-2.2-4.9-3.9-6.7c-1.7-1.8-3.7-3.2-6.1-4.2c-2.4-1-5-1.5-8-1.5c-2.9,0-5.5,0.5-7.9,1.5s-4.4,2.4-6.1,4.2
													c-1.7,1.8-3,4.1-3.9,6.7c-0.9,2.7-1.4,5.6-1.4,9c0,3.3,0.5,6.3,1.4,9c0.9,2.6,2.2,4.9,3.9,6.7c1.7,1.8,3.7,3.2,6.1,4.2
													c2.4,1,5,1.5,7.9,1.5s5.6-0.5,8-1.5s4.4-2.4,6.1-4.2s3-4.1,3.9-6.7C260.5,53,260.9,50,260.9,46.7z"/>
											</g>
										</g>
									</g>
								</g>
							</g>
						</g>
					</g>
				</g>
			</g>
		</g>
	</g>
	<g>
		<g>
			<g>
				<g>
					<g>
						<g>
							<g>
								<g>
									<g>
										<g>
											<g>
												<path class="st0" d="M283.6,19.6c0.2,0,0.4,0.1,0.6,0.2s0.4,0.2,0.5,0.4c0.2,0.2,0.4,0.4,0.6,0.6l31.4,40.9
													c-0.1-0.7-0.1-1.3-0.1-1.9c0-0.6-0.1-1.2-0.1-1.8V19.5h6.4v54.3h-3.7c-0.6,0-1.1-0.1-1.5-0.3c-0.4-0.2-0.8-0.5-1.2-1
													l-31.4-40.9c0.1,0.6,0.1,1.2,0.1,1.9c0,0.6,0,1.2,0,1.7v38.7H279V19.5h3.8C283.1,19.5,283.3,19.5,283.6,19.6z"/>
											</g>
										</g>
									</g>
								</g>
							</g>
						</g>
					</g>
				</g>
			</g>
		</g>
	</g>
	<g>
		<g>
			<g>
				<g>
					<g>
						<g>
							<g>
								<g>
									<g>
										<g>
											<g>
												<path class="st0" d="M364.5,28c-0.2,0.4-0.5,0.7-0.7,0.9c-0.3,0.2-0.6,0.3-1,0.3s-0.9-0.2-1.5-0.6s-1.3-0.9-2.2-1.4
													c-0.9-0.5-1.9-1-3.1-1.4s-2.7-0.6-4.4-0.6c-1.6,0-3.1,0.2-4.3,0.7c-1.2,0.4-2.3,1-3.1,1.8c-0.8,0.8-1.5,1.6-1.9,2.7
													c-0.4,1-0.6,2.1-0.6,3.3c0,1.5,0.4,2.8,1.1,3.8s1.7,1.8,3,2.6c1.2,0.7,2.6,1.3,4.2,1.8s3.1,1.1,4.8,1.6
													c1.6,0.6,3.2,1.2,4.8,1.9c1.6,0.7,2.9,1.6,4.2,2.6c1.2,1.1,2.2,2.4,3,3.9c0.7,1.5,1.1,3.4,1.1,5.7
													c0,2.4-0.4,4.6-1.2,6.7c-0.8,2.1-2,3.9-3.5,5.4c-1.6,1.5-3.5,2.8-5.7,3.6c-2.3,0.9-4.8,1.3-7.7,1.3
													c-3.5,0-6.7-0.6-9.6-1.9s-5.3-3-7.4-5.2l2.1-3.5c0.2-0.3,0.4-0.5,0.7-0.7c0.3-0.2,0.6-0.3,1-0.3c0.3,0,0.7,0.1,1.1,0.4
													c0.4,0.3,0.9,0.6,1.4,1s1.1,0.8,1.8,1.3c0.7,0.5,1.5,0.9,2.3,1.3c0.9,0.4,1.9,0.7,3,1s2.4,0.4,3.7,0.4
													c1.7,0,3.3-0.2,4.7-0.7c1.4-0.5,2.5-1.2,3.5-2s1.7-1.9,2.2-3.1c0.5-1.2,0.8-2.6,0.8-4.1c0-1.6-0.4-3-1.1-4
													s-1.7-1.9-2.9-2.6c-1.2-0.7-2.6-1.3-4.2-1.8s-3.2-1-4.8-1.5c-1.6-0.5-3.2-1.1-4.8-1.8c-1.6-0.7-3-1.6-4.2-2.7
													c-1.2-1.1-2.2-2.4-2.9-4.1c-0.7-1.6-1.1-3.6-1.1-6c0-1.9,0.4-3.8,1.1-5.6c0.7-1.8,1.8-3.4,3.3-4.8
													c1.4-1.4,3.2-2.5,5.3-3.3c2.1-0.8,4.5-1.2,7.2-1.2c3,0,5.8,0.5,8.3,1.4c2.5,1,4.7,2.3,6.6,4.2L364.5,28z"/>
											</g>
										</g>
									</g>
								</g>
							</g>
						</g>
					</g>
				</g>
			</g>
		</g>
	</g>
	<g>
		<g>
			<g>
				<g>
					<g>
						<g>
							<g>
								<g>
									<g>
										<g>
											<g>
												<path class="st0" d="M414.5,19.5v6.2H397v48.1h-7.3V25.7h-17.6v-6.2H414.5z"/>
											</g>
										</g>
									</g>
								</g>
							</g>
						</g>
					</g>
				</g>
			</g>
		</g>
	</g>
	<g>
		<g>
			<g>
				<g>
					<g>
						<g>
							<g>
								<g>
									<g>
										<g>
											<g>
												<path class="st0" d="M429.9,51.1v22.6h-7.3V19.5h15.3c3.4,0,6.4,0.3,8.9,1s4.6,1.7,6.2,3s2.8,2.9,3.6,4.8
													c0.8,1.9,1.2,3.9,1.2,6.2c0,1.9-0.3,3.7-0.9,5.4s-1.5,3.2-2.6,4.5s-2.5,2.5-4.2,3.4s-3.5,1.6-5.6,2.1
													c1,0.6,1.8,1.4,2.4,2.3l15.8,21.5h-6.5c-1.3,0-2.3-0.5-3-1.6l-14.1-19.4c-0.4-0.6-0.9-1-1.4-1.3s-1.3-0.4-2.3-0.4h-5.5
													V51.1z M429.9,45.8h7.7c2.1,0,4-0.3,5.6-0.8s3-1.2,4.1-2.2c1.1-0.9,1.9-2.1,2.5-3.4c0.6-1.3,0.8-2.8,0.8-4.4
													c0-3.2-1.1-5.7-3.2-7.3c-2.1-1.6-5.3-2.5-9.5-2.5h-8V45.8z"/>
											</g>
										</g>
									</g>
								</g>
							</g>
						</g>
					</g>
				</g>
			</g>
		</g>
	</g>
	<g>
		<g>
			<g>
				<g>
					<g>
						<g>
							<g>
								<g>
									<g>
										<g>
											<g>
												<path class="st0" d="M491,67.9c2.2,0,4.3-0.4,6-1.1c1.8-0.8,3.3-1.8,4.5-3.2c1.2-1.4,2.2-3,2.8-4.9c0.6-1.9,1-4,1-6.2
													v-33h7.3v33c0,3.1-0.5,6-1.5,8.7s-2.4,5-4.3,6.9c-1.9,2-4.1,3.5-6.8,4.6c-2.7,1.1-5.7,1.7-9,1.7s-6.3-0.6-9-1.7
													s-4.9-2.6-6.8-4.6s-3.3-4.3-4.3-6.9c-1-2.7-1.5-5.6-1.5-8.7v-33h7.3v32.9c0,2.3,0.3,4.4,1,6.2c0.6,1.9,1.6,3.5,2.8,4.9
													c1.2,1.4,2.7,2.4,4.5,3.2C486.7,67.5,488.7,67.9,491,67.9z"/>
											</g>
										</g>
									</g>
								</g>
							</g>
						</g>
					</g>
				</g>
			</g>
		</g>
	</g>
	<g>
		<g>
			<g>
				<g>
					<g>
						<g>
							<g>
								<g>
									<g>
										<g>
											<g>
												<path class="st0" d="M563.8,62.6c0.4,0,0.8,0.2,1.1,0.5l2.9,3.1c-2.2,2.6-4.9,4.6-8.1,6c-3.2,1.4-7,2.2-11.5,2.2
													c-3.9,0-7.4-0.7-10.6-2c-3.2-1.3-5.9-3.2-8.1-5.7c-2.2-2.4-4-5.4-5.2-8.8c-1.2-3.4-1.9-7.2-1.9-11.2
													c0-4.1,0.6-7.8,1.9-11.2c1.3-3.4,3.1-6.3,5.4-8.8c2.3-2.4,5.1-4.3,8.4-5.7c3.3-1.4,6.9-2,10.8-2c3.9,0,7.3,0.6,10.2,1.9
													c3,1.2,5.6,2.9,7.8,5l-2.4,3.4c-0.2,0.3-0.3,0.5-0.6,0.6c-0.2,0.2-0.6,0.2-1,0.2c-0.5,0-1-0.2-1.7-0.7s-1.5-1-2.6-1.6
													s-2.4-1.2-4-1.6c-1.6-0.5-3.5-0.7-5.9-0.7c-2.8,0-5.4,0.5-7.7,1.5s-4.3,2.4-6,4.2s-3,4.1-3.9,6.7
													c-0.9,2.7-1.4,5.6-1.4,9s0.5,6.4,1.5,9c1,2.7,2.3,4.9,4,6.7s3.7,3.2,5.9,4.2c2.3,1,4.8,1.4,7.4,1.4
													c1.6,0,3.1-0.1,4.4-0.3c1.3-0.2,2.5-0.5,3.6-0.9s2.1-0.9,3.1-1.5c0.9-0.6,1.9-1.4,2.8-2.2
													C563,62.7,563.4,62.6,563.8,62.6z"/>
											</g>
										</g>
									</g>
								</g>
							</g>
						</g>
					</g>
				</g>
			</g>
		</g>
	</g>
	<g>
		<g>
			<g>
				<g>
					<g>
						<g>
							<g>
								<g>
									<g>
										<g>
											<g>
												<path class="st0" d="M613,19.5v6.2h-17.6v48.1h-7.3V25.7h-17.6v-6.2H613z"/>
											</g>
										</g>
									</g>
								</g>
							</g>
						</g>
					</g>
				</g>
			</g>
		</g>
	</g>
</g>
</svg>
