<svg xmlns="http://www.w3.org/2000/svg" viewBox="0 0 313.45 118.06"><defs><style>.cls-1{fill:#fff;}.cls-2{fill:#ff0;}.cls-3{fill:#2b2a29;}</style></defs><title>Betsoft</title><g id="Layer_2" data-name="Layer 2"><g id="Layer_1-2" data-name="Layer 1"><path d="M34.48,0h279L282.62,118.06H3.65L19.32,57.45,9.4,65.31,0,72.63,2.62,62.7l7.3-27.17,2.62-10.45,5.22,7.31L24,40.75Z"/><path class="cls-1" d="M132.7,5.23H307.18L284.19,93h-174l10.46-41.8h44.93l-9.4,36.05H279.5l20.37-76.8H176.06L166.66,47H122.24Zm-47,0h44.93l-11,41.8H74.71Zm32.91,46-11,41.8H62.69l11-41.8Zm-80.46-46H83.06L72.61,47H27.16ZM71,51.2,60.59,93H15.14l11-41.8Z"/><path class="cls-2" d="M268,25.08h7.83L260.68,82H268l15.15-56.93H291l2.08-9.41H270.61Zm-13.59,0h12l2.62-9.41H249.19L232,82h7.32l7.32-27.16H256l2.62-9.4h-9.4ZM209,66.36c-2.62,10.45-.52,16.72,6.78,16.72s13.06-6.27,15.68-16.72l8.88-34.48c3.14-10.46.52-16.72-6.78-16.72S221,21.42,217.84,31.88Zm16.72-35c1-5.21,3.14-6.78,5.75-6.78,2.09,0,3.14,1.57,2.09,6.78l-9.41,35.53c-1.56,4.71-3.13,6.79-5.75,6.79-2.08,0-3.13-2.08-2.08-6.79Zm-32.91.54c-5.22,18.8,8.89,21.42,5.22,35-1.05,4.71-3.14,6.27-5.75,6.27-2.09,0-3.14-1.56-2.09-6.27l1.57-5.22h-6.79l-1.56,4.71c-2.62,10.45-.52,16.72,6.78,16.72s12.54-6.27,15.16-16.72c5.22-18.81-8.36-21.43-5.22-35,1.57-5.22,3.13-6.79,5.75-6.79,2.08,0,3.13,1.57,1.57,6.79l-.52,3.13h6.79l.51-2.61c3.14-10.46,1.05-16.72-6.27-16.72S195.39,21.42,192.77,31.88Z"/><path class="cls-1" d="M138.43,24h8.36L131.11,83.6H139L154.11,24h8.35l2.62-9.92h-24Zm6.27,1h-7.83l.51-1.57L140,13.59V12.54h26.64l-.51,1.57L163.51,24v1h-8.35L140,84.11v1H129l.52-2.08Z"/><path class="cls-3" d="M138.43,24h8.36L131.11,83.6H139L154.11,24h8.35l2.62-9.92h-24Z"/><path class="cls-1" d="M100.82,24h13.59L117,14.12H95.6L77.84,83.6h20.9l2.61-9.92H87.76L93.52,53.3H104l2.6-9.93H96.12Zm13.59,1H101.87L97.69,41.8h10.45l-.52,1.57L105,53.29v1.05H94.55l-4.7,17.75H102.9l-.51,2.09L99.77,84.1v1.05h-24l.52-2.09L94.55,13.59V12.54h24l-.52,1.57L115.44,24v1Z"/><path class="cls-3" d="M100.82,24h13.59L117,14.12H95.6L77.84,83.6h20.9l2.61-9.92H87.76L93.52,53.3H104l2.6-9.93H96.12Z"/><path class="cls-1" d="M56.42,24c2.62,0,3.13,2.09,2.08,6.79l-1,4.18c-1.56,5.22-3.65,7.32-6.78,7.32H47.53L52.24,24ZM48.58,52.25c3.66,0,4.19,2.09,2.62,8.35l-1.57,6.27c-1.05,5.22-3.13,6.79-5.75,6.79H39.7l5.22-21.42h3.66ZM59,14.11H47.55L29.26,83.58h12c7.84,0,13.06-5.75,16.19-16.72L59,61.11C60.6,53.79,60.6,48.57,57,46.48c4.19-2.61,6.79-6.78,8.89-14.1l.52-2.62C69,19.34,66.87,14.11,59,14.11Zm-1.57,12a1.13,1.13,0,0,0-1-1.05H53.29L49.63,40.75h1c1,0,2.09,0,2.62-1a9.81,9.81,0,0,0,2.62-5.22l1-3.65A24.08,24.08,0,0,0,57.47,26.13Zm-6.8,28.21a2.73,2.73,0,0,0-2.09-1.05H46l-4.7,18.8h2.61a2.88,2.88,0,0,0,2.62-1c.52-.51,1-2.08,2.08-4.7l1.57-6.27C50.67,57.47,51.2,55.39,50.67,54.34Zm-3.14-41.8H59c4.7,0,7.32,1.57,8.89,4.7s1,7.32-.52,13.05l-.52,2.62c-1.05,3.65-2.08,6.79-3.65,8.89A12.54,12.54,0,0,1,59,46.5a6.72,6.72,0,0,1,2.08,5.22c.52,2.62,0,6.27-1,9.92L58.5,67.39c-1.56,5.75-3.65,9.92-6.26,13.06a15.06,15.06,0,0,1-11,4.7H27.16l.52-2.09L46,13.59l.51-1.05Z"/><path class="cls-3" d="M56.42,24c2.62,0,3.13,2.09,2.08,6.79l-1,4.18c-1.56,5.22-3.65,7.32-6.78,7.32H47.53L52.24,24ZM48.58,52.25c3.66,0,4.19,2.09,2.62,8.35l-1.57,6.27c-1.05,5.22-3.13,6.79-5.75,6.79H39.7l5.22-21.42h3.66ZM59,14.11H47.55L29.26,83.58h12c7.84,0,13.06-5.75,16.19-16.72L59,61.11C60.6,53.79,60.6,48.57,57,46.48c4.19-2.61,6.79-6.78,8.89-14.1l.52-2.62C69,19.34,66.87,14.11,59,14.11Z"/><path class="cls-2" d="M14.11,35.53,24,49.12,6.79,62.7Zm168.74,0L166.13,49.12l9.92,13.58Z"/><path class="cls-1" d="M151,107.62l.52-1.57h4.7l-1.05,3.14a10.52,10.52,0,0,1-3.13,2.08,7.8,7.8,0,0,1-3.66.52,6.38,6.38,0,0,1-4.7-1.57,5.15,5.15,0,0,1-.51-4.18,8.07,8.07,0,0,1,3.13-4.19,8.78,8.78,0,0,1,5.22-1.56,7.47,7.47,0,0,1,3.56.8c.36.23,1.14,1.28,1.67,1.8l-1.56,1a7.55,7.55,0,0,0-1.57-1.57,7.69,7.69,0,0,0-2.62-.52,6.46,6.46,0,0,0-3.76,1.26A4.88,4.88,0,0,0,144.7,106a3.73,3.73,0,0,0,.52,3.14c1.05,1,2.08,1,3.65,1a9.42,9.42,0,0,0,2.62-.43,3.75,3.75,0,0,0,2.08-1.14l.52-1H151Zm121.18,0,.52-1.57h4.7a18.41,18.41,0,0,1-1.05,3.14c-.79,1.25-2.09,1.57-3.14,2.08a7.75,7.75,0,0,1-3.65.52,6.38,6.38,0,0,1-4.7-1.57,5.15,5.15,0,0,1-.52-4.18,8.14,8.14,0,0,1,3.14-4.19,8.78,8.78,0,0,1,5.22-1.56,7.34,7.34,0,0,1,3.13.51,11.49,11.49,0,0,1,2.09,2.09l-1.57,1a7.55,7.55,0,0,0-1.57-1.57,7.64,7.64,0,0,0-2.62-.52,6.5,6.5,0,0,0-3.76,1.26,4.88,4.88,0,0,0-2.51,2.91,3.73,3.73,0,0,0,.52,3.14c1.05,1,2.09,1,3.65,1a9.36,9.36,0,0,0,2.62-.43,3.82,3.82,0,0,0,2.09-1.14l.51-1h-3.1Zm-99.24,0h4.19l-1-4.18Zm-5.22,4.19,8.36-11h1l3.13,11h-2.08l-.72-3.14h-5.55l-2.09,3.14Zm26.13,0,3.13-11H198l3.14,6.26,5.75-6.26h1.57l-2.62,11h-2.1l2.08-7.84-5.75,5.75L197.46,104l-2.09,7.84Zm27.68,0,3.13-11h1.57l-2.62,11Zm17.77,0,3.13-11h1l4.71,7.31,2.08-7.31h1.57l-2.62,11h-1.05L242.92,104l-1.57,7.84Z"/><path class="cls-2" d="M58.5,98.74a3.35,3.35,0,0,1,3.14,4.18v.52a3.24,3.24,0,0,1,2.62,4.18A5.5,5.5,0,0,1,59,111.81c-1.57,0-3.14-1-3.14-2.62a6.24,6.24,0,0,1-4.7,2.62c-2.08,0-3.65-1.57-3.13-4.19.51-2.08,2.61-3.65,5.22-4.18v-.52A6.2,6.2,0,0,1,58.5,98.74Z"/><path class="cls-2" d="M56.42,114.41l-1.05-4.19-2.62,4.19Zm69-15.67c1.05,0,6.27,5.21,5.22,8.88a5.09,5.09,0,0,1-5.22,4.19,3.32,3.32,0,0,1-3.14-2.62,5.34,5.34,0,0,1-4.18,2.62c-2.62,0-4.19-1.57-3.14-4.19C116,103.44,123.81,98.74,125.38,98.74Z"/><path class="cls-2" d="M122.76,114.41l-.52-4.19-3.13,4.19Zm-34.48-1c-2.08,0-7.32-5.22-6.27-9.92a6.32,6.32,0,0,1,5.75-4.18c2.09,0,3.14,1,3.14,2.62,1.57-1.57,3.13-2.62,5.22-2.62a3.35,3.35,0,0,1,3.13,4.18C98.22,108.67,89.85,113.37,88.28,113.37ZM26.64,98.74a27.8,27.8,0,0,0,5.75,7.83,41.93,41.93,0,0,0-9.4,7.32,20,20,0,0,0-5.75-7.32A67.55,67.55,0,0,0,26.64,98.74Z"/></g></g></svg>