<svg xmlns="http://www.w3.org/2000/svg" viewBox="0 0 313.45 118.06"><defs><style>.cls-1{fill:#fff;}</style></defs><title>Betsoft-White</title><g id="Layer_2" data-name="Layer 2"><g id="Layer_1-2" data-name="Layer 1"><path class="cls-1" d="M34.48,0,24,40.75l-6.27-8.36-5.22-7.31L9.92,35.53,2.62,62.7,0,72.63l9.4-7.32,9.92-7.86L3.65,118.06h279L313.45,0Zm96.13,5.23-11,41.8h-13l1-3.66.52-1.57H97.69l4.18-16.72h13.57V24l2.62-9.92.52-1.57h-24v1.05L85.75,47h-11l11-41.8ZM87.19,47,95.6,14.12H117L114.41,24H100.82l-4.7,19.33h10.45l-1,3.66Zm17.33,4.17L104,53.3H93.52L87.76,73.68h13.59L98.74,83.6H77.84l8.28-32.4Zm-66.39-46H83.06L72.61,47H59.53L59,46.5a12.54,12.54,0,0,0,4.18-4.7c1.57-2.1,2.6-5.24,3.65-8.89l.52-2.62c1.57-5.73,2.09-9.92.52-13s-4.19-4.7-8.89-4.7H46.48L46,13.59,37.16,47h-10ZM59,61.11l-1.57,5.75c-3.13,11-8.35,16.72-16.19,16.72h-12L37.78,51.2H59.86C60.27,53.77,59.89,57.13,59,61.11ZM38.88,47l8.67-32.92H59c7.83,0,9.92,5.23,7.32,15.65l-.52,2.62c-2.1,7.32-4.7,11.49-8.89,14.1a5.7,5.7,0,0,1,.78.55ZM6.79,62.7l7.32-27.17L24,49.12ZM26.11,51.2h10L27.68,83.06l-.52,2.09H41.27a15.06,15.06,0,0,0,11-4.7c2.61-3.14,4.7-7.31,6.26-13.06l1.57-5.75c1-3.65,1.57-7.3,1-9.92,0-.18,0-.35,0-.52H71L60.59,93H15.14ZM23,113.89a20,20,0,0,0-5.75-7.32,67.55,67.55,0,0,0,9.4-7.83,27.8,27.8,0,0,0,5.75,7.83A41.93,41.93,0,0,0,23,113.89Zm29.76.52,2.62-4.19,1.05,4.19Zm11.51-6.79A5.5,5.5,0,0,1,59,111.81c-1.57,0-3.14-1-3.14-2.62a6.24,6.24,0,0,1-4.7,2.62c-2.08,0-3.65-1.57-3.13-4.19.51-2.08,2.61-3.65,5.22-4.18v-.52a6.2,6.2,0,0,1,5.21-4.18,3.35,3.35,0,0,1,3.14,4.18v.52A3.24,3.24,0,0,1,64.26,107.62Zm35-4.17c-1,5.22-9.4,9.92-11,9.92-2.08,0-7.32-5.22-6.27-9.92a6.32,6.32,0,0,1,5.75-4.18c2.09,0,3.14,1,3.14,2.62,1.57-1.57,3.13-2.62,5.22-2.62A3.35,3.35,0,0,1,99.25,103.45ZM62.69,93l11-41.8h11L76.26,83.06l-.52,2.09h24V84.1l2.62-9.92.51-2.09H89.85l4.7-17.75H105V53.29l.55-2.09h13l-11,41.8Zm56.42,21.41,3.13-4.19.52,4.19Zm11.49-6.79a5.09,5.09,0,0,1-5.22,4.19,3.32,3.32,0,0,1-3.14-2.62,5.34,5.34,0,0,1-4.18,2.62c-2.62,0-4.19-1.57-3.14-4.19,1.06-4.18,8.89-8.88,10.46-8.88C126.43,98.74,131.65,104,130.6,107.62Zm14.62,1.54c1.05,1,2.08,1,3.65,1a9.42,9.42,0,0,0,2.62-.43,3.75,3.75,0,0,0,2.08-1.14l.52-1H151v0h0l.51-1.54h4.7l-1.05,3.14a10.52,10.52,0,0,1-3.13,2.08,7.8,7.8,0,0,1-3.66.52,6.38,6.38,0,0,1-4.7-1.57,5.15,5.15,0,0,1-.51-4.18,8.07,8.07,0,0,1,3.13-4.19,8.78,8.78,0,0,1,5.22-1.56,7.47,7.47,0,0,1,3.56.8c.36.23,1.14,1.28,1.67,1.8l-1.56,1a7.55,7.55,0,0,0-1.57-1.57,7.69,7.69,0,0,0-2.62-.52,6.46,6.46,0,0,0-3.76,1.26A4.88,4.88,0,0,0,144.7,106,3.73,3.73,0,0,0,145.22,109.16Zm32.93,2.65-.72-3.14h-5.55l-2.09,3.14h-2.1l8.36-11h1l3.13,11Zm27.69,0h-2.1l2.08-7.84-5.75,5.75L197.46,104l-2.09,7.84h-1.55l3.13-11H198l3.14,6.26,5.75-6.26h1.57Zm17.74,0H221.5l3.13-11h1.57Zm25.61,0h-1.05L242.92,104l-1.57,7.84h-2.08l3.13-11h1l4.71,7.31,2.08-7.31h1.57Zm17.19-2.65c1.05,1,2.09,1,3.65,1a9.36,9.36,0,0,0,2.62-.43,3.82,3.82,0,0,0,2.09-1.14l.51-1h-3.09v0h0l.51-1.54h4.7a18.41,18.41,0,0,1-1.05,3.14c-.79,1.25-2.09,1.57-3.14,2.08a7.75,7.75,0,0,1-3.65.52,6.38,6.38,0,0,1-4.7-1.57,5.15,5.15,0,0,1-.52-4.18,8.14,8.14,0,0,1,3.14-4.19,8.78,8.78,0,0,1,5.22-1.56,7.34,7.34,0,0,1,3.13.51,11.49,11.49,0,0,1,2.09,2.09l-1.57,1a7.55,7.55,0,0,0-1.57-1.57,7.64,7.64,0,0,0-2.62-.52,6.5,6.5,0,0,0-3.76,1.26,4.88,4.88,0,0,0-2.51,2.91A3.73,3.73,0,0,0,266.38,109.16ZM110.22,93l10.46-41.8h17.2l-8.33,31.88L129,85.16h11v-1l8.45-32.91h17.16l-9.4,36.05H279.5l20.37-76.8H176.06L166.66,47H149.52l5.64-21.94h8.35V24l2.62-9.92.51-1.57H140v1.05l-2.62,9.92-.51,1.57h7.83L139,47H122.24L132.7,5.23H307.18L284.19,93Zm37-41.8L139,83.6h-7.84l8.53-32.4ZM140.74,47l6-23h-8.36l2.62-9.92h24L162.46,24h-8.35l-5.85,23Zm51.5,26.12c2.61,0,4.7-1.56,5.75-6.27,3.67-13.57-10.44-16.19-5.22-35,2.62-10.46,7.84-16.72,15.15-16.72s9.41,6.26,6.27,16.72l-.51,2.61h-6.79l.52-3.13c1.56-5.22.51-6.79-1.57-6.79-2.62,0-4.18,1.57-5.75,6.79-3.14,13.57,10.44,16.19,5.22,35-2.62,10.45-7.84,16.72-15.16,16.72s-9.4-6.27-6.78-16.72l1.56-4.71h6.79l-1.57,5.22C189.1,71.58,190.15,73.14,192.24,73.14ZM268,25.08l2.61-9.41h22.46L291,25.08h-7.84L268,82h-7.32l15.15-56.93Zm-1.57,0h-12l-5.2,20.37h9.4L256,54.85h-9.4L239.27,82H232l17.24-66.34h19.86Zm-26.13,6.8-8.88,34.48c-2.62,10.45-8.36,16.72-15.68,16.72s-9.4-6.27-6.78-16.72l8.88-34.48c3.14-10.46,8.37-16.72,15.68-16.72S243.44,21.42,240.3,31.88ZM176.05,62.7l-9.92-13.58,16.72-13.59Z"/><polygon class="cls-1" points="172.91 107.62 177.1 107.62 176.05 103.44 172.91 107.62"/><path class="cls-1" d="M231.43,24.56c-2.61,0-4.7,1.57-5.75,6.78l-9.4,35.53c-1.05,4.71,0,6.79,2.08,6.79,2.62,0,4.19-2.08,5.75-6.79l9.41-35.53C234.57,26.13,233.52,24.56,231.43,24.56Z"/><path class="cls-1" d="M58.5,30.83c1-4.7.54-6.79-2.08-6.79H52.24L47.53,42.33h3.14c3.13,0,5.22-2.1,6.78-7.32Zm-2.58,3.65A9.81,9.81,0,0,1,53.3,39.7c-.53,1-1.57,1-2.62,1h-1l3.66-15.67h3.13a1.13,1.13,0,0,1,1,1.05,24.08,24.08,0,0,1-.5,4.7Z"/><path class="cls-1" d="M43.88,73.66c2.62,0,4.7-1.57,5.75-6.79L51.2,60.6c1.57-6.26,1-8.35-2.62-8.35H44.92L39.7,73.66ZM46,53.29h2.61a2.73,2.73,0,0,1,2.09,1.05c.53,1,0,3.13-.52,5.73l-1.57,6.27C47.55,69,47,70.53,46.5,71a2.88,2.88,0,0,1-2.62,1H41.27Z"/></g></g></svg>