<?xml version="1.0" encoding="utf-8"?>
<!-- Generator: Adobe Illustrator 23.0.6, SVG Export Plug-In . SVG Version: 6.00 Build 0)  -->
<svg version="1.1" id="Layer_1" xmlns="http://www.w3.org/2000/svg" xmlns:xlink="http://www.w3.org/1999/xlink" x="0px" y="0px"
	 viewBox="0 0 36.9 37.2" style="enable-background:new 0 0 36.9 37.2;" xml:space="preserve">
<style type="text/css">
	.st0{fill-rule:evenodd;clip-rule:evenodd;fill:#C2C1C1;}
</style>
<path class="st0" d="M18.6,0.1c8.2,0,15.1,5.3,17.6,12.7c-4.4-1.6-8.8-2.4-13.6-2.3l0.1,2.2c5-0.1,9.6,0.8,14.2,2.5
	c0.2,1.1,0.3,2.3,0.3,3.5c0,10.3-8.3,18.6-18.6,18.6c-1.3,0-2.5-0.1-3.7-0.4c3.5-3,6.5-6.4,8.8-10.6l-2-1.1c-2.4,4.4-5.5,7.9-9.3,11
	C5.2,33.7,0,26.8,0,18.6c0-4.7,1.8-9,4.6-12.3c0.8,4.5,2.3,8.9,4.8,12.9l1.9-1.2C8.7,13.9,7.2,9.4,6.4,4.6
	C9.7,1.8,13.9,0.1,18.6,0.1"/>
</svg>
