<svg xmlns="http://www.w3.org/2000/svg" viewBox="0 0 89.07 33.55"><defs><style>.cls-1{fill:#9b9b9b;}</style></defs><title>Betsoft-Grey</title><g id="Layer_2" data-name="Layer 2"><g id="Layer_1-2" data-name="Layer 1"><path class="cls-1" d="M9.8,0l-3,11.58L5.05,9.21,3.56,7.13l-.74,3L.74,17.82,0,20.64l2.67-2.08,2.82-2.23L1,33.55H80.31L89.07,0ZM37.12,1.49,34,13.37H30.31l.27-1,.15-.44h-3L29,7.13h3.86v-.3L33.55,4l.15-.45H26.87v.3l-2.5,9.51H21.23L24.35,1.49ZM24.78,13.37,27.17,4h6.09l-.75,2.82H28.65l-1.34,5.49h3l-.28,1Zm4.92,1.18-.15.6h-3l-1.64,5.79H28.8l-.74,2.82H22.12l2.35-9.21ZM10.84,1.49H23.6l-3,11.88H16.92l-.14-.16A3.54,3.54,0,0,0,18,11.88a8.14,8.14,0,0,0,1-2.53l.15-.74c.45-1.63.59-2.82.15-3.71a2.48,2.48,0,0,0-2.53-1.34H13.21l-.15.3-2.5,9.51H7.72Zm5.94,15.87L16.33,19c-.89,3.12-2.37,4.75-4.6,4.75H8.32l2.42-9.2H17A8.08,8.08,0,0,1,16.78,17.36Zm-5.73-4L13.51,4h3.27C19,4,19.6,5.5,18.86,8.46l-.15.74c-.6,2.08-1.34,3.27-2.53,4a1.34,1.34,0,0,1,.23.16ZM1.93,17.82,4,10.1,6.83,14Zm5.49-3.27h2.83L7.87,23.6l-.15.6h4a4.26,4.26,0,0,0,3.11-1.34,9.51,9.51,0,0,0,1.79-3.71l.44-1.63a6.47,6.47,0,0,0,.3-2.82.76.76,0,0,0,0-.15h2.83l-3,11.88H4.3ZM6.53,32.37A5.53,5.53,0,0,0,4.9,30.29a19.13,19.13,0,0,0,2.67-2.23,7.93,7.93,0,0,0,1.64,2.23A11.45,11.45,0,0,0,6.53,32.37Zm8.46.14.74-1.19.3,1.19Zm3.27-1.93a1.56,1.56,0,0,1-1.48,1.19.83.83,0,0,1-.89-.74,1.79,1.79,0,0,1-1.34.74.9.9,0,0,1-.89-1.19,1.83,1.83,0,0,1,1.48-1.19v-.14a1.77,1.77,0,0,1,1.49-1.19,1,1,0,0,1,.89,1.19v.14A.92.92,0,0,1,18.26,30.58Zm10-1.18c-.3,1.48-2.68,2.82-3.12,2.82a2.77,2.77,0,0,1-1.78-2.82,1.79,1.79,0,0,1,1.63-1.19c.59,0,.89.3.89.74a2.08,2.08,0,0,1,1.48-.74A1,1,0,0,1,28.21,29.4Zm-10.4-3,3.12-11.88h3.13L21.67,23.6l-.15.6h6.83v-.3l.75-2.82.14-.59H25.53l1.34-5h3v-.3l.16-.59h3.7L30.58,26.43Zm16,6.08.89-1.19.15,1.19Zm3.26-1.93a1.43,1.43,0,0,1-1.48,1.19.94.94,0,0,1-.89-.74,1.53,1.53,0,0,1-1.19.74c-.74,0-1.19-.44-.89-1.19.3-1.19,2.52-2.52,3-2.52C35.93,28.06,37.41,29.54,37.11,30.58Zm4.16.44a1.24,1.24,0,0,0,1,.3,3,3,0,0,0,.74-.12,1.12,1.12,0,0,0,.59-.33l.15-.3h-.88l.14-.43h1.34l-.3.89a3.19,3.19,0,0,1-.89.59,2.2,2.2,0,0,1-1,.15,1.82,1.82,0,0,1-1.34-.45,1.46,1.46,0,0,1-.14-1.19,2.28,2.28,0,0,1,.89-1.19,2.54,2.54,0,0,1,1.48-.44,2.06,2.06,0,0,1,1,.23,6.4,6.4,0,0,1,.48.51l-.45.3a2.22,2.22,0,0,0-.44-.45,2.14,2.14,0,0,0-.75-.15,1.86,1.86,0,0,0-1.07.36,1.42,1.42,0,0,0-.71.83A1.06,1.06,0,0,0,41.27,31Zm9.36.75-.21-.89H48.84l-.59.89h-.6L50,28.66h.3l.89,3.11Zm7.86,0H57.9l.59-2.22-1.63,1.63-.75-1.63-.59,2.22h-.44L56,28.66h.3l.89,1.78,1.63-1.78h.45Zm5,0h-.6l.89-3.11h.45Zm7.27,0h-.29L69,29.55l-.44,2.22H68l.9-3.11h.29l1.34,2.07.59-2.07h.45ZM75.7,31a1.24,1.24,0,0,0,1,.3,2.85,2.85,0,0,0,.74-.12,1.08,1.08,0,0,0,.59-.33l.15-.3h-.88l.15-.43h1.33a4.8,4.8,0,0,1-.3.89c-.22.36-.59.44-.89.59a2.18,2.18,0,0,1-1,.15,1.8,1.8,0,0,1-1.33-.45,1.46,1.46,0,0,1-.15-1.19A2.39,2.39,0,0,1,76,28.94a2.57,2.57,0,0,1,1.49-.44,2.09,2.09,0,0,1,.89.15,3.3,3.3,0,0,1,.59.59l-.45.3a2.22,2.22,0,0,0-.44-.45,2.14,2.14,0,0,0-.75-.15,1.81,1.81,0,0,0-1.06.36,1.4,1.4,0,0,0-.72.83A1.06,1.06,0,0,0,75.7,31ZM31.32,26.43l3-11.88h4.89l-2.37,9.06-.14.59h3.11v-.3l2.41-9.35h4.87L44.39,24.79h35L85.22,3H50L47.36,13.36H42.49l1.6-6.23h2.38v-.3L47.21,4l.15-.45H39.78v.3L39,6.68l-.15.45h2.23l-1.63,6.23H34.74l3-11.87H87.29L80.76,26.43ZM41.83,14.55l-2.34,9.21H37.26l2.42-9.21ZM40,13.36l1.71-6.53H39.34L40.08,4h6.83l-.74,2.82H43.79l-1.66,6.53Zm14.63,7.43c.74,0,1.34-.45,1.63-1.79,1.05-3.85-3-4.6-1.48-9.94.74-3,2.23-4.75,4.31-4.75s2.67,1.78,1.78,4.75l-.15.74H58.79l.15-.89c.45-1.48.15-1.93-.45-1.93s-1.18.45-1.63,1.93c-.89,3.86,3,4.6,1.48,10-.74,3-2.22,4.75-4.3,4.75s-2.68-1.78-1.93-4.75l.44-1.34h1.93L54,19C53.74,20.34,54,20.79,54.63,20.79ZM76.16,7.13l.74-2.68h6.38l-.59,2.68H80.46l-4.3,16.18H74.08L78.39,7.13Zm-.45,0H72.3l-1.48,5.79h2.67l-.74,2.67H70.07L68,23.31H65.91l4.9-18.86h5.65ZM68.29,9.06l-2.53,9.8c-.74,3-2.37,4.75-4.45,4.75s-2.67-1.78-1.93-4.75l2.53-9.8c.89-3,2.37-4.75,4.45-4.75S69.18,6.09,68.29,9.06ZM50,17.82,47.21,14,52,10.1Z"/><polygon class="cls-1" points="49.14 30.58 50.33 30.58 50.03 29.39 49.14 30.58"/><path class="cls-1" d="M65.77,7c-.75,0-1.34.44-1.64,1.93L61.46,19c-.3,1.34,0,1.93.59,1.93.75,0,1.19-.59,1.64-1.93L66.36,8.91C66.66,7.42,66.36,7,65.77,7Z"/><path class="cls-1" d="M16.63,8.76c.29-1.34.15-1.93-.6-1.93H14.84L13.51,12h.89c.89,0,1.48-.6,1.93-2.08Zm-.74,1a2.76,2.76,0,0,1-.74,1.48c-.15.3-.45.3-.75.3h-.3l1-4.45H16a.32.32,0,0,1,.3.29,6.91,6.91,0,0,1-.14,1.34Z"/><path class="cls-1" d="M12.47,20.93c.74,0,1.34-.44,1.63-1.93l.45-1.78c.45-1.78.29-2.37-.74-2.37H12.76l-1.48,6.09Zm.59-5.79h.75a.77.77,0,0,1,.59.3,3.35,3.35,0,0,1-.15,1.63l-.44,1.78a6,6,0,0,1-.6,1.34.8.8,0,0,1-.74.3h-.74Z"/></g></g></svg>