<svg xmlns="http://www.w3.org/2000/svg" viewBox="0 0 227.52 115.99"><defs><style>.cls-1,.cls-2{fill:#ea1e30;}.cls-2{fill-rule:evenodd;}</style></defs><title>cepbank</title><g id="Layer_2" data-name="Layer 2"><g id="Layer_1-2" data-name="Layer 1"><path class="cls-1" d="M136.64,30.53a5.8,5.8,0,0,0-4.94,2.34A10.73,10.73,0,0,0,130,39.4q0,8.71,6.68,8.71a21.52,21.52,0,0,0,6.79-1.37v4.63a19.24,19.24,0,0,1-7.32,1.34q-5.81,0-8.89-3.45t-3.08-9.9a15.86,15.86,0,0,1,1.51-7.12A10.79,10.79,0,0,1,130,27.56a13.08,13.08,0,0,1,6.64-1.63,18.24,18.24,0,0,1,7.8,1.83l-1.82,4.49a30.7,30.7,0,0,0-3-1.21A9.18,9.18,0,0,0,136.64,30.53Z"/><path class="cls-1" d="M164.43,52.35H149.1v-26h15.34v4.53h-9.69v5.72h9v4.53h-9v6.72h9.69Z"/><path class="cls-1" d="M188.39,34.43a7.87,7.87,0,0,1-2.69,6.43q-2.69,2.23-7.64,2.23h-2.42v9.27H170v-26h8.51q4.85,0,7.37,2A7.36,7.36,0,0,1,188.39,34.43Zm-12.75,4.13h1.86a6.28,6.28,0,0,0,3.9-1,3.49,3.49,0,0,0,1.29-2.93,3.57,3.57,0,0,0-1.08-2.87,5.16,5.16,0,0,0-3.4-.93h-2.57Z"/><path class="cls-1" d="M125.33,64h8.29q5.66,0,8.22,1.58a5.45,5.45,0,0,1,2.56,5,6.22,6.22,0,0,1-1.12,3.83,4.49,4.49,0,0,1-3,1.8v.18A5.88,5.88,0,0,1,144,78.48a7.41,7.41,0,0,1-1.51,9.59,11.57,11.57,0,0,1-7.15,2h-10ZM131,74.33h3.28a6.1,6.1,0,0,0,3.32-.7,2.57,2.57,0,0,0,1-2.3,2.29,2.29,0,0,0-1.12-2.15,7.33,7.33,0,0,0-3.54-.65h-3Zm0,4.38V85.5h3.68a5.55,5.55,0,0,0,3.44-.87A3.19,3.19,0,0,0,139.21,82q0-3.24-4.73-3.24Z"/><path class="cls-1" d="M166.33,90.06l-1.93-6.2h-9.71l-1.93,6.2h-6.08l9.4-26.16H163l9.44,26.16Zm-3.28-10.83q-2.68-8.43-3-9.53t-.48-1.75q-.6,2.28-3.44,11.28Z"/><path class="cls-1" d="M199.39,90.06h-7.17L180.63,70.35h-.16q.34,5.22.34,7.45V90.06h-5V64h7.12l11.57,19.51h.13q-.28-5.08-.27-7.18V64h5.08Z"/><path class="cls-1" d="M227.52,90.06H221.1l-7-11-2.39,1.68v9.3h-5.65V64h5.65V75.93L214,72.86,221.18,64h6.26l-9.29,11.53Z"/><path class="cls-2" d="M64.54,104.61H76.42v5.81H64.54v-5.81ZM44.19,91.71v6.84a1.3,1.3,0,0,0,1.28,1.29h50a1.3,1.3,0,0,0,1.29-1.29V15.24A1.29,1.29,0,0,0,95.48,14H73.06L58.87,5H96.13a9.65,9.65,0,0,1,9.64,9.64v91.75A9.65,9.65,0,0,1,96.13,116H44.84a9.69,9.69,0,0,1-9.64-9.64V91.71ZM6.15,45H20.74V78.07H6.15V45Zm20.18,0H40.92V78.07H26.33V45Zm20.18,0H61.1V78.07H46.52V45ZM66.7,45H81.28V78.07H66.7V45ZM0,38.11,43.72,10.39,87.43,38.11V27.72L43.72,0,0,27.72V38.11Zm6.15.66L43.72,15,81.28,38.77V41H6.15V38.77Zm-3.74,43H85v6H2.41v-6Z"/></g></g></svg>