<?xml version="1.0" encoding="utf-8"?>
<!-- Generator: Adobe Illustrator 22.1.0, SVG Export Plug-In . SVG Version: 6.00 Build 0)  -->
<svg version="1.1" id="katman_1" xmlns="http://www.w3.org/2000/svg" xmlns:xlink="http://www.w3.org/1999/xlink" x="0px" y="0px"
	 viewBox="0 0 310.3 68.7" style="enable-background:new 0 0 310.3 68.7;" xml:space="preserve">
<style type="text/css">
	.st0{fill-rule:evenodd;clip-rule:evenodd;fill:#CCC9C8;}
	.st1{fill:#CCC9C8;}
	.st2{fill-rule:evenodd;clip-rule:evenodd;fill:#17B9A3;}
	.st3{fill:#FFFFFF;}
</style>
<g>
	<g>
		<path class="st0" d="M38.2,249c5.1,0,9.7,2.3,12.6,5.9l0.3,0.3c-3-4.8-8.4-8-14.5-8c-9.4,0-17,7.6-17,16.9s7.6,16.9,17,16.9
			c6.5,0,12.1-3.6,15-8.9l-0.5,0.7c-2.9,3.8-7.6,6.3-12.9,6.3c-8.7,0-15.8-6.8-15.8-15.1S29.5,249,38.2,249z M57.7,277.5l-0.9,1.3
			c-1.6,2.2-3.6,4.2-5.8,6c-1,0.7-2.2,1.4-3.4,1.9l0,0c0,0-14.5,5-25.8-4.6c-10.3-8.9-7.1-21.5-7.1-21.5s-0.6,14.7,9.6,20.9
			c3.9,2.4,8.1,3.4,11.8,3.4c8.1,0.1,12-3.8,12-3.8c-4.2,2-8.1,2.7-11.8,2.5c-11.2-0.7-18.7-7.6-19.6-20
			c-1.2-15.7,16.3-19.9,16.3-19.9c-15.8,0.9-20.3,14.5-20.6,16.8c-0.2,1.5-2.9,16,11.2,24.6c2.1,1.3,4.1,2.1,6.2,2.7
			c-11.5-2.6-21.1-12.7-20.9-24.2c0.3-13.9,11.5-25.4,25.5-25.1c6.3,0.2,12.9,0.4,19.4,7.7l1.3,1.4c-2.7-4.9-9.8-11.1-22.7-10.6
			c-7.7,0.3-14.5,3.3-19.4,8.2c5.1-5.6,12.7-9,21.6-8.8c9.4,0.1,15.6,3.3,21.8,11.2l1.1,1.5c-2.2-5.6-10.3-15.1-25.1-15.1
			c-16.5,0-29.5,12.3-29.8,30.1c-0.3,16.6,13.4,29,29.8,29c10.8,0,19.5-5.5,24.7-14.1c0,0,0-0.1,0.1-0.1l0,0.1
			C57.2,278.4,57.4,277.9,57.7,277.5z M34.4,290.9c-11.7,0.2-20.9-5.6-25.5-14c5.1,7.7,14.6,13,23.9,13.2c3.1,0.1,5.6,0.1,7.9,0
			C38.6,290.5,36.6,290.8,34.4,290.9z"/>
	</g>
</g>
<g>
	<path class="st1" d="M86.9,265.2H65.7v15h-1.4v-31h1.4V264h21.3v-14.8h1.4v31h-1.4V265.2z"/>
	<path class="st1" d="M112.8,269.5h-14l-4.1,10.7h-1.6l11.9-31h1.6l11.9,31h-1.6L112.8,269.5z M99.3,268.2h13.1l-6.5-17.2
		L99.3,268.2z"/>
	<path class="st1" d="M124.3,249.2h7.6c5.5,0,9.3,3.2,9.3,8.4c0,4.6-3.1,7.2-7.2,8.1c3.5,1.5,7.6,6.5,9.1,14.6h-1.4
		c-1.7-8.7-6.9-14.4-11.2-14.4h-4.8v14.4h-1.4V249.2z M131.9,250.4h-6.2v14.2h6.2c4.4,0,7.8-2.5,7.8-7
		C139.7,253.1,136.3,250.4,131.9,250.4z"/>
	<path class="st1" d="M149.6,249.2h1.4v31h-1.4V249.2z"/>
	<path class="st1" d="M173.7,252.7c-1.8-1.6-4-2.6-6.8-2.6c-4.1,0-7,2.3-7,5.9c0,2.2,1,3.8,3.4,5.3l6.6,4.3c3.7,2.4,4.9,4.4,4.9,7.4
		c0,4-3.2,7.6-9.1,7.6c-3.3,0-5.8-1.2-7.4-2.2v-2c1.6,1.4,3.9,2.8,7.4,2.8c5.1,0,7.7-3.1,7.7-6.3c0-2.3-1.4-4.3-4.2-6.1l-6.5-4.2
		c-3.1-2-4.3-4-4.3-6.7c0-3.6,2.6-7.3,8.6-7.3c3.1,0,5.2,1,6.7,2V252.7z"/>
	<path class="st1" d="M195.8,280.2L183,252.3v27.9h-1.4v-31h1.4l13.5,29.3l13.5-29.3h1.3v31H210v-27.8l-12.8,27.8H195.8z"/>
	<path class="st1" d="M236.8,269.5h-14l-4.1,10.7h-1.6l11.9-31h1.6l11.9,31h-1.6L236.8,269.5z M223.3,268.2h13.1l-6.5-17.2
		L223.3,268.2z"/>
	<path class="st1" d="M252.4,250.4h-9v-1.2h19.4v1.2h-8.9v29.8h-1.4V250.4z"/>
	<path class="st1" d="M268.1,249.2h1.4v31h-1.4V249.2z"/>
	<path class="st1" d="M301.7,277.9c-2.6,1.7-5.8,2.8-9.2,2.8c-9.1,0-16-6.9-16-16s6.9-16,16-16c3.5,0,6.7,1,9.2,2.8v1.7
		c-2.5-2-5.7-3.2-9.2-3.2c-8.3,0-14.5,6.4-14.5,14.6s6.2,14.7,14.5,14.7c3.5,0,6.8-1.2,9.2-3.2V277.9z"/>
</g>
<g>
	<g>
		<path class="st2" d="M38.2,20.6c5.1,0,9.7,2.3,12.6,5.9l0.3,0.3c-3-4.8-8.4-8-14.5-8c-9.4,0-17,7.6-17,16.9
			c0,9.3,7.6,16.9,17,16.9c6.5,0,12.1-3.6,15-8.9l-0.5,0.7c-2.9,3.8-7.6,6.3-12.9,6.3c-8.7,0-15.8-6.8-15.8-15.1
			C22.4,27.3,29.5,20.6,38.2,20.6z M57.7,49l-0.9,1.3c-1.6,2.2-3.6,4.2-5.8,6c-1,0.7-2.2,1.4-3.4,1.9l0,0c0,0-14.5,5-25.8-4.6
			C11.5,44.7,14.7,32,14.7,32S14,46.8,24.2,52.9c3.9,2.4,8.1,3.4,11.8,3.4c8.1,0.1,12-3.8,12-3.8c-4.2,2-8.1,2.7-11.8,2.5
			C25,54.3,17.5,47.4,16.6,35c-1.2-15.7,16.3-19.9,16.3-19.9C17,16,12.5,29.6,12.3,31.9c-0.2,1.5-2.9,16,11.2,24.6
			c2.1,1.3,4.1,2.1,6.2,2.7C18.1,56.6,8.5,46.5,8.8,35C9.1,21.1,20.3,9.6,34.2,10c6.3,0.2,12.9,0.4,19.4,7.7l1.3,1.4
			c-2.7-4.9-9.8-11.1-22.7-10.6c-7.7,0.3-14.5,3.3-19.4,8.2c5.1-5.6,12.7-9,21.6-8.8c9.4,0.1,15.6,3.3,21.8,11.2l1.1,1.5
			C55.1,14.9,46.9,5.4,32.2,5.4C15.7,5.4,2.7,17.7,2.3,35.5c-0.3,16.6,13.4,29,29.8,29c10.8,0,19.5-5.5,24.7-14.1c0,0,0-0.1,0.1-0.1
			l0,0.1C57.2,49.9,57.4,49.5,57.7,49z M34.4,62.4c-11.7,0.2-20.9-5.6-25.5-14c5.1,7.7,14.6,13,23.9,13.2c3.1,0.1,5.6,0.1,7.9,0
			C38.6,62.1,36.6,62.4,34.4,62.4z"/>
	</g>
</g>
<g>
	<path class="st3" d="M86.9,36.8H65.7v15h-1.4v-31h1.4v14.8h21.3V20.7h1.4v31h-1.4V36.8z"/>
	<path class="st3" d="M112.8,41h-14l-4.1,10.7h-1.6l11.9-31h1.6l11.9,31h-1.6L112.8,41z M99.3,39.7h13.1l-6.5-17.2L99.3,39.7z"/>
	<path class="st3" d="M124.3,20.7h7.6c5.5,0,9.3,3.2,9.3,8.4c0,4.6-3.1,7.2-7.2,8.1c3.5,1.5,7.6,6.5,9.1,14.6h-1.4
		c-1.7-8.7-6.9-14.4-11.2-14.4h-4.8v14.4h-1.4V20.7z M131.9,21.9h-6.2v14.2h6.2c4.4,0,7.8-2.5,7.8-7
		C139.7,24.6,136.3,21.9,131.9,21.9z"/>
	<path class="st3" d="M149.6,20.7h1.4v31h-1.4V20.7z"/>
	<path class="st3" d="M173.7,24.3c-1.8-1.6-4-2.6-6.8-2.6c-4.1,0-7,2.3-7,5.9c0,2.2,1,3.8,3.4,5.3l6.6,4.3c3.7,2.4,4.9,4.4,4.9,7.4
		c0,4-3.2,7.6-9.1,7.6c-3.3,0-5.8-1.2-7.4-2.2v-2c1.6,1.4,3.9,2.8,7.4,2.8c5.1,0,7.7-3.1,7.7-6.3c0-2.3-1.4-4.3-4.2-6.1l-6.5-4.2
		c-3.1-2-4.3-4-4.3-6.7c0-3.6,2.6-7.3,8.6-7.3c3.1,0,5.2,1,6.7,2V24.3z"/>
	<path class="st3" d="M195.8,51.7L183,23.9v27.9h-1.4v-31h1.4l13.5,29.3L210,20.7h1.3v31H210V23.9l-12.8,27.8H195.8z"/>
	<path class="st3" d="M236.8,41h-14l-4.1,10.7h-1.6l11.9-31h1.6l11.9,31h-1.6L236.8,41z M223.3,39.7h13.1l-6.5-17.2L223.3,39.7z"/>
	<path class="st3" d="M252.4,21.9h-9v-1.2h19.4v1.2h-8.9v29.8h-1.4V21.9z"/>
	<path class="st3" d="M268.1,20.7h1.4v31h-1.4V20.7z"/>
	<path class="st3" d="M301.7,49.4c-2.6,1.7-5.8,2.8-9.2,2.8c-9.1,0-16-6.9-16-16s6.9-16,16-16c3.5,0,6.7,1,9.2,2.8v1.7
		c-2.5-2-5.7-3.2-9.2-3.2c-8.3,0-14.5,6.4-14.5,14.6s6.2,14.7,14.5,14.7c3.5,0,6.8-1.2,9.2-3.2V49.4z"/>
</g>
</svg>
