<svg xmlns="http://www.w3.org/2000/svg" viewBox="0 0 221.47 95.09"><defs><style>.cls-1{fill:#c1c1c1;}</style></defs><title>eco_w</title><g id="Layer_2" data-name="Layer 2"><g id="Layer_1-2" data-name="Layer 1"><path class="cls-1" d="M8.73,55.19C9.11,26.84,48,4.38,95.51,5c25.93.33,49,7.48,64.69,18.51C144.71,9.72,118.2.43,88,0,39.77-.62.36,21.64,0,49.74-.14,61.11,6.1,71.68,16.77,80.27,11.52,72.35,8.64,63.77,8.73,55.19Z"/><path class="cls-1" d="M91.87,57.76c0,3.22-.81,5.45-2.46,6.69s-4.19,1.86-7.64,1.86H44.25c0,3.7,1.85,6.54,5.58,8.52a23.76,23.76,0,0,0,11,2.35q5.06,0,12.17-3.09C77.8,72,80.83,71,82.16,71a8.44,8.44,0,0,1,6.12,2.46,8,8,0,0,1,2.54,5.94q0,7.93-12.79,12.36A60.38,60.38,0,0,1,58.2,95.09q-16.22,0-26.25-10T21.89,59.87A33.51,33.51,0,0,1,32.35,35.1Q42.78,24.74,58.2,24.76q14.4,0,24,9.75A31.94,31.94,0,0,1,91.87,57.76ZM71,52.94c-.09-2.93-1.56-5.6-4.36-8a13.19,13.19,0,0,0-18.13,0q-4.24,3.61-4.24,8Z"/><path class="cls-1" d="M153.34,81.62q0,6.56-9.17,10.4a39.42,39.42,0,0,1-15.44,3.08q-15.72,0-25.54-10.5-9.45-10-9.45-24.73T103.39,35Q113,24.77,128.73,24.76a44,44,0,0,1,15.57,2.47q9.06,3.33,9,10.38A9.25,9.25,0,0,1,151,43.92a7.81,7.81,0,0,1-6.1,2.72,26.12,26.12,0,0,1-7.3-1.56A26.4,26.4,0,0,0,130,43.55q-7.43,0-11.54,4.9a16.81,16.81,0,0,0-3.85,11.42A18,18,0,0,0,118.07,71a12.52,12.52,0,0,0,10.74,5.28,29.39,29.39,0,0,0,8.34-1.67,29.81,29.81,0,0,1,7.7-1.67,7.9,7.9,0,0,1,6,2.72A8.59,8.59,0,0,1,153.34,81.62Z"/><path class="cls-1" d="M221.47,59.87q0,14.71-9.46,24.73-9.85,10.51-25.56,10.5T160.93,84.6q-9.45-10-9.44-24.73t9.44-24.72q10-10.4,25.53-10.38T212,35.14Q221.44,45.16,221.47,59.87Zm-20.89,0a18,18,0,0,0-3.43-11.17,13.64,13.64,0,0,0-21.35,0,18,18,0,0,0-3.43,11.17,18.49,18.49,0,0,0,3.43,11.28,13.62,13.62,0,0,0,21.35,0A18.57,18.57,0,0,0,200.57,59.87Z"/></g></g></svg>