<svg xmlns="http://www.w3.org/2000/svg" viewBox="0 0 26.42 33.7"><defs><style>.cls-1{fill:#9b9b9b;}</style></defs><title>Endorphina-Grey</title><g id="Layer_2" data-name="Layer 2"><g id="Layer_1-2" data-name="Layer 1"><path class="cls-1" d="M13.72,2.22c.44,0,.89,0,1.36,0A18.58,18.58,0,0,1,26.37,6.54l0-.08.09.08A14.41,14.41,0,0,0,16.79.36,18.23,18.23,0,0,0,13.06,0,17.34,17.34,0,0,0,1.44,4.53,4.13,4.13,0,0,0,.05,6.66,2,2,0,0,0,.11,7a1.91,1.91,0,0,1-.06-.33c-.38,1.87,1.39,3.48,2.86,4.87,2,1.84,2.82,3.68,2.81,5.32s-.86,3.49-2.81,5.34c-1.46,1.38-3.24,3-2.86,4.87h0a4,4,0,0,0,1.38,2.12,17.47,17.47,0,0,0,15.3,4.17,14.41,14.41,0,0,0,9.64-6.19,18.52,18.52,0,0,1-11.29,4.28c-3.87.26-6.41-.68-7.44-2.18s-1.11-3,.1-5.14S13,19.38,13,19.38a7.68,7.68,0,0,0,.8-.51A4.61,4.61,0,0,0,15,17.7a1.37,1.37,0,0,0,.26-.84,2.24,2.24,0,0,0-.55-1.15,1.05,1.05,0,0,0-.2-.25h0a4.06,4.06,0,0,0-.89-.68l-.26-.19c-.39-.28-.8-.58-1.12-.78a25.14,25.14,0,0,1-3.58-3.09,9.28,9.28,0,0,1-1-1.49c-.06-.12-.14-.24-.19-.36l0-.07A4.08,4.08,0,0,1,7.7,4.45C8.6,3.14,10.65,2.26,13.72,2.22ZM.12,7a2.28,2.28,0,0,0,.38.72A2.28,2.28,0,0,1,.12,7Z"/></g></g></svg>