<svg xmlns="http://www.w3.org/2000/svg" viewBox="0 0 393.89 180.4"><defs><style>.cls-1{fill:#fff;}</style></defs><title>Endorphina-White</title><g id="Layer_2" data-name="Layer 2"><g id="Layer_1-2" data-name="Layer 1"><path class="cls-1" d="M84.59,168c-1.3.12-2.6.23-3.89.31C60,169.7,46.43,164.64,40.91,156.63s-6-16.28.53-27.5,27.9-25.41,27.9-25.41A42.23,42.23,0,0,0,73.61,101c.93-.66,1.86-1.36,2.74-2.1a20.15,20.15,0,0,0,3.89-4.2,7,7,0,0,0,1.37-4.47,7.75,7.75,0,0,0-.69-3.2,10.44,10.44,0,0,0-1.09-1.88c-.21-.29-.44-.58-.68-.86a19.39,19.39,0,0,0-1.54-1.6,37.48,37.48,0,0,0-4.91-3.87c-.58-.39-1.18-.76-1.79-1.12s-1-.59-1.57-.92h-.07l-.45-.31.52.24c-1-.65-21.53-14.51-27.84-25.4-6.49-11.16-6-19.5-.52-27.51A18.93,18.93,0,0,1,43.38,21c6.58-6.3,19.23-10,37.25-8.87,20.68,1.31,43.39,7.61,60.46,22.91l-.14-.25c.06.07.14.12.2.18S126.58,9.13,89.62,1.91,24.11,9.26,7.7,24.23c-.56.51-1.08,1-1.56,1.52C2.76,29.21.91,32.48.28,35.65A14.32,14.32,0,0,0,0,38.46c0,8.83,8.43,16.59,15.57,23.31,10.43,9.84,15.09,19.67,15,28.46s-4.61,18.62-15,28.52C8.49,125.49,0,133.19,0,142.06a14.34,14.34,0,0,0,.28,2.82v0c.73,3.61,3,7.41,7.35,11.34a93.71,93.71,0,0,0,25.75,16.61,91.42,91.42,0,0,0,18.31,5.77c.94.19,1.89.37,2.86.53a96.9,96.9,0,0,0,35-.59c19.67-3.83,33-12.93,41.18-20.62,1-.9,1.85-1.79,2.67-2.64,1.23-1.28,2.31-2.5,3.23-3.6a46.63,46.63,0,0,0,4.51-6.22q-1.59,1.44-3.26,2.77C122.36,160.64,102.88,166.31,84.59,168Z"/><path class="cls-1" d="M187.43,66.89a5.71,5.71,0,0,0-1.77-.26,11.35,11.35,0,0,1-2-.13,5.06,5.06,0,0,1-1.84-.72l-.13,12q-1.68-1.19-5.52-1.18a18.85,18.85,0,0,0-3.8.39,14,14,0,0,0-3.61,1.38,11.76,11.76,0,0,0-3.16,2.5c-2.69,3.08-3.08,7.55-2.82,11.49.26,3.08,1,6.43,3.28,8.73s5.91,3.34,11,3.34a31.81,31.81,0,0,0,4.4-.26,20.71,20.71,0,0,0,3.09-.52,10.26,10.26,0,0,0,2.1-.79A8.27,8.27,0,0,0,188,102c.26-.27.52-.53.79-.86a3.44,3.44,0,0,1,.46-.59V71.23a7.42,7.42,0,0,0-.46-3A2.36,2.36,0,0,0,187.43,66.89Zm-7.74,30.73c-2.89,1.18-7.35-1-8.54-3.68a9.66,9.66,0,0,1-.13-6.76c1-3,10.77-6.17,10.77-3.61v7.09C181.79,94.2,182.84,96.37,179.69,97.62Z"/><path class="cls-1" d="M220.32,79.37a9.05,9.05,0,0,0-2.43-1.51,14,14,0,0,0-3.28-1,20.75,20.75,0,0,0-9.85.4,13.58,13.58,0,0,0-3.93,1.9c-3.09,2.43-4.66,6.76-4.73,11.16s1.31,8.47,4.27,11a9.36,9.36,0,0,0,2.62,1.57,18.67,18.67,0,0,0,3.61.92,22.75,22.75,0,0,0,9.65-.26,11.88,11.88,0,0,0,3.42-1.44A8.93,8.93,0,0,0,222,100C226.17,94.53,225.71,83.83,220.32,79.37Zm-3.15,12a6.65,6.65,0,0,1-.06,1.12,6.27,6.27,0,0,1-1.38,3.15,4.49,4.49,0,0,1-1.84,1.24,9.62,9.62,0,0,1-6.63.14,3.77,3.77,0,0,1-2.17-1.45,7.27,7.27,0,0,1-1-2c-.13-.66-.26-1.58-.4-2.76a1,1,0,0,0-.06-.33V88.82A9.1,9.1,0,0,1,204,87a4.8,4.8,0,0,1,1-1.9,4.88,4.88,0,0,1,2-1.25c5-2.1,10.11.72,10.11,6.24Z"/><path class="cls-1" d="M113.45,93.61a24,24,0,0,0,3.81-.13,14.28,14.28,0,0,0,3.28-.66,4.15,4.15,0,0,0,2.23-1.77c1.25-1.9,1-4.66.59-6.76a8.55,8.55,0,0,0-2.62-5.12,10.87,10.87,0,0,0-6.11-2.43,23.69,23.69,0,0,0-8.6.4,12.22,12.22,0,0,0-4.39,2,8.73,8.73,0,0,0-3,4.2A22.37,22.37,0,0,0,98,94a11.7,11.7,0,0,0,3.48,7.28c2.62,2.24,6.17,3,9.52,3.15a27.65,27.65,0,0,0,6.23-.19,7.36,7.36,0,0,0,3.68-1.51c1.25-1.18,1.84-3.22,1.71-6.11-.2,0-.92.13-2.3.33s-2.76.39-4.27.53-3.08.19-4.66.19a8.52,8.52,0,0,1-3.94-.79,2.36,2.36,0,0,1-1.57-2.29,13,13,0,0,1,3.61-.79A21.39,21.39,0,0,1,113.45,93.61Zm-7.88-4.26c-.52-3.22.53-5.26,3-6.17a7.28,7.28,0,0,1,5.51.19c1.38.59,2,1.31,2,2.17a2.24,2.24,0,0,1-1.25,2.1,6.13,6.13,0,0,1-3,.72,32.49,32.49,0,0,0-3.55.2A5.94,5.94,0,0,0,105.57,89.35Z"/><path class="cls-1" d="M141,76.41c-7,.13-10.43,1.32-10.43,3.48v24.23a15.24,15.24,0,0,0,2.95,0,7.25,7.25,0,0,0,2.36-.59,3.9,3.9,0,0,0,2.17-4V85.87a9,9,0,0,0-.13-2,24.68,24.68,0,0,1,3.61-.59c4-.46,6.23.46,6.76,2.88V99.52c-.07,1.64.39,3.35,2.1,4a8.26,8.26,0,0,0,2.36.59,24.12,24.12,0,0,0,3,0V86C155.73,79.37,150.8,76.15,141,76.41Z"/><path class="cls-1" d="M347.08,76.41c-6.95.13-10.43,1.32-10.43,3.48v24.23a15.24,15.24,0,0,0,3,0,7.25,7.25,0,0,0,2.36-.59,3,3,0,0,0,1.65-1.45,4.38,4.38,0,0,0,.52-2.56V85.87a9,9,0,0,0-.13-2,24.68,24.68,0,0,1,3.61-.59c4-.46,6.24.46,6.76,2.88V99.52a5,5,0,0,0,.46,2.56,3,3,0,0,0,1.64,1.45,8.26,8.26,0,0,0,2.36.59,24.12,24.12,0,0,0,3,0V86C361.72,79.37,356.8,76.15,347.08,76.41Z"/><path class="cls-1" d="M322.73,68.08a4,4,0,1,0,5.65,5.64,4,4,0,0,0-5.65-5.64Z"/><path class="cls-1" d="M393.5,84.36a10.58,10.58,0,0,0-1.12-3,8.74,8.74,0,0,0-1.71-2.1c-3.41-3.21-9.65-3.08-14-2.76a9.21,9.21,0,0,0-3.68.92,5.63,5.63,0,0,0-2.23,5.65.77.77,0,0,1,.07.39,20.38,20.38,0,0,1,5.45-1,26.53,26.53,0,0,1,6.89.26c1.05.2,2.56.59,3.08,1.64s-.45,2-1.44,2.43a16,16,0,0,1-4.27.53,29.23,29.23,0,0,0-5.9.39,8,8,0,0,0-3.16,1.38A6.11,6.11,0,0,0,369.4,92a11.52,11.52,0,0,0-.26,7.42c2.17,5.77,9.65,4.72,14.38,4.72,6.3,0,10.37-4,10.37-10.37V88.3A18.33,18.33,0,0,0,393.5,84.36Zm-6.9,9.45c0,.92,0,2.43-.59,3.15a3.62,3.62,0,0,1-.85.66,2.78,2.78,0,0,1-1.38.39c-1.25,0-2.49,0-3.74-.06a6.23,6.23,0,0,1-2.69-.6,2.19,2.19,0,0,1-1.12-2.1,2,2,0,0,1,1.51-1.57,10.72,10.72,0,0,1,3.94-.59,6.46,6.46,0,0,0,2.69-.59,6.73,6.73,0,0,0,1.64-.92l.59-.59Z"/><path class="cls-1" d="M325.42,76.81a6.29,6.29,0,0,1-3.61-.86v28.1a12.25,12.25,0,0,0,5.58-.72c1.31-.59,1.9-1.91,1.84-3.94V81.47a6.15,6.15,0,0,0-.79-3.55C327.59,76.81,326.67,76.87,325.42,76.81Z"/><path class="cls-1" d="M279,79.76q-3.35-3.35-11-3.35a31.9,31.9,0,0,0-4.4.27,19.11,19.11,0,0,0-3.08.52,8.49,8.49,0,0,0-2.1.85c-.66.4-1,.66-1.32.86a2.27,2.27,0,0,0-.78.79,5.12,5.12,0,0,1-.46.59v29.34a6.24,6.24,0,0,0,.78,3.55c1,1.37,2.7,1,4.27,1.18a4.21,4.21,0,0,1,2.37.78h.19V103.66a17.44,17.44,0,0,0,4.6.65,18.23,18.23,0,0,0,5.64-.65,14.73,14.73,0,0,0,4.27-2.17,9.58,9.58,0,0,0,3.22-4.2c1.37-3.15,1.37-6.89.92-10.31A12.26,12.26,0,0,0,279,79.76Zm-5.12,14.38a5.59,5.59,0,0,1-1.77,2.36,8.23,8.23,0,0,1-2.3,1.18,6.34,6.34,0,0,1-2.56.33,16.59,16.59,0,0,1-2.3-.26,12.09,12.09,0,0,1-1.7-.4V90.26c-.07-4.39-.07-6.56,0-6.63h.06a7.49,7.49,0,0,0,.92-.19c.2-.07.72-.07,1.64-.2a13.41,13.41,0,0,1,2.23-.06,12.84,12.84,0,0,1,2.23.45,5,5,0,0,1,2.17,1.12A7,7,0,0,1,274,86.92,10.2,10.2,0,0,1,273.89,94.14Z"/><path class="cls-1" d="M249.73,76.54h-8.66a11.77,11.77,0,0,0-3.55.53A7.74,7.74,0,0,0,235,78.32a8.37,8.37,0,0,0-1.7,1.77A12,12,0,0,0,232.2,82a8.64,8.64,0,0,0-.52,1.84,7.52,7.52,0,0,0-.2,1.45V99.39a4.39,4.39,0,0,0,.79,2.82,3.17,3.17,0,0,0,1.84,1.18c.85.2,1.64.4,2.49.59a5.62,5.62,0,0,1,2.37,1V89c0-1.58,0-3.68,1.51-4.66a3.85,3.85,0,0,1,2-.79c.92-.07,1.84-.13,2.76-.13a4.93,4.93,0,0,0,2.89-.59,2.86,2.86,0,0,0,1.18-1.58,9.64,9.64,0,0,0,.39-1.84,8,8,0,0,0,0-1.83A5.17,5.17,0,0,1,249.73,76.54Z"/><path class="cls-1" d="M313.87,82.39a9.92,9.92,0,0,0-1.38-2.76,8.13,8.13,0,0,0-2.89-2.17c-2.3-1.11-4.86-1-7.35-.92a16.22,16.22,0,0,0-5.58.92V70.83a6.09,6.09,0,0,0-.79-3.54c-1-1.38-2.69-1.05-4.27-1.18a4.25,4.25,0,0,1-2.36-.79v38.8a11.31,11.31,0,0,0,5.51-.66c1.51-.72,2-2.36,1.91-3.94V84.16a13.87,13.87,0,0,1,4.86-.92c2.62.07,4.13.66,4.66,1.71s.79,4.13.72,9.06v5.51c0,3.81,2.49,5.32,7.48,4.66V86.06a4.05,4.05,0,0,0,0-1.31A9.08,9.08,0,0,0,313.87,82.39Z"/></g></g></svg>