<svg xmlns="http://www.w3.org/2000/svg" xmlns:xlink="http://www.w3.org/1999/xlink" viewBox="0 0 394.39 181.4"><defs><style>.cls-1,.cls-7{fill:none;}.cls-2,.cls-3,.cls-4,.cls-5,.cls-7{stroke-miterlimit:10;}.cls-2{fill:url(#linear-gradient);stroke:url(#linear-gradient-2);}.cls-3{fill:url(#linear-gradient-3);stroke:url(#linear-gradient-4);}.cls-4{stroke:#00a14b;fill:url(#linear-gradient-5);}.cls-5{fill:url(#linear-gradient-6);stroke:url(#linear-gradient-7);}.cls-6{fill:url(#linear-gradient-8);}.cls-7{stroke:url(#linear-gradient-9);}.cls-8{fill:url(#linear-gradient-10);}.cls-9{fill:#fff;}</style><linearGradient id="linear-gradient" x1="-3312.82" y1="-1944.11" x2="-3312.82" y2="-1944.77" gradientTransform="translate(710683.59 227084.01) scale(214.5 116.79)" gradientUnits="userSpaceOnUse"><stop offset="0.14" stop-color="#2b3990"/><stop offset="0.16" stop-color="#184898"/><stop offset="0.21" stop-color="#005ea8"/><stop offset="0.26" stop-color="#0071b6"/><stop offset="0.32" stop-color="#0081c4"/><stop offset="0.38" stop-color="#008ed1"/><stop offset="0.45" stop-color="#0099db"/><stop offset="0.53" stop-color="#00a2e3"/><stop offset="0.62" stop-color="#00a8e9"/><stop offset="0.74" stop-color="#00aced"/><stop offset="0.99" stop-color="#00aeef"/></linearGradient><linearGradient id="linear-gradient-2" x1="-3313.28" y1="-1942.7" x2="-3312.06" y2="-1942.7" gradientTransform="translate(710683.59 227084.01) scale(214.5 116.79)" gradientUnits="userSpaceOnUse"><stop offset="0" stop-color="#034ea2"/><stop offset="0.06" stop-color="#0055a7"/><stop offset="0.18" stop-color="#0067b4"/><stop offset="0.35" stop-color="#0083ca"/><stop offset="0.55" stop-color="#00aaec"/><stop offset="0.56" stop-color="#00aeef"/><stop offset="0.69" stop-color="#00aced"/><stop offset="0.75" stop-color="#00a8e9"/><stop offset="0.8" stop-color="#00a2e3"/><stop offset="0.84" stop-color="#0099db"/><stop offset="0.87" stop-color="#008ed0"/><stop offset="0.91" stop-color="#0080c3"/><stop offset="0.94" stop-color="#0070b5"/><stop offset="0.97" stop-color="#005da7"/><stop offset="0.99" stop-color="#1b4697"/><stop offset="1" stop-color="#2b3990"/></linearGradient><linearGradient id="linear-gradient-3" x1="-3312.82" y1="-1944.11" x2="-3312.82" y2="-1944.77" gradientTransform="translate(710683.59 227084.01) scale(214.5 116.79)" gradientUnits="userSpaceOnUse"><stop offset="0.14" stop-color="#181c62"/><stop offset="0.2" stop-color="#0d2c6c" stop-opacity="0.93"/><stop offset="0.36" stop-color="#00508b" stop-opacity="0.74"/><stop offset="0.52" stop-color="#006ea9" stop-opacity="0.55"/><stop offset="0.67" stop-color="#0087c4" stop-opacity="0.38"/><stop offset="0.8" stop-color="#009ad9" stop-opacity="0.22"/><stop offset="0.91" stop-color="#00a7e7" stop-opacity="0.09"/><stop offset="0.99" stop-color="#00aeef" stop-opacity="0"/></linearGradient><linearGradient id="linear-gradient-4" x1="-3313.39" y1="-1942.7" x2="-3311.69" y2="-1942.7" gradientTransform="translate(710683.59 227084.01) scale(214.5 116.79)" gradientUnits="userSpaceOnUse"><stop offset="0" stop-color="#01397e"/><stop offset="0.07" stop-color="#003f83"/><stop offset="0.21" stop-color="#00508f"/><stop offset="0.4" stop-color="#006aa4"/><stop offset="0.56" stop-color="#0083bb"/><stop offset="0.69" stop-color="#0083bb"/><stop offset="0.75" stop-color="#0080b8"/><stop offset="0.8" stop-color="#007bb3"/><stop offset="0.85" stop-color="#0074ad"/><stop offset="0.88" stop-color="#006aa4"/><stop offset="0.92" stop-color="#005f9b"/><stop offset="0.95" stop-color="#005290"/><stop offset="0.98" stop-color="#054185"/><stop offset="1" stop-color="#232d7b"/></linearGradient><linearGradient id="linear-gradient-5" x1="-3312.82" y1="-1944.58" x2="-3312.82" y2="-1943.92" gradientTransform="translate(710683.61 227247.15) scale(214.5 116.79)" gradientUnits="userSpaceOnUse"><stop offset="0.06" stop-color="#905501"/><stop offset="0.11" stop-color="#9e6007"/><stop offset="0.22" stop-color="#b97411"/><stop offset="0.33" stop-color="#d08516"/><stop offset="0.45" stop-color="#e19218"/><stop offset="0.58" stop-color="#ed9b19"/><stop offset="0.73" stop-color="#f6a11a"/><stop offset="0.97" stop-color="#faa41a"/></linearGradient><linearGradient id="linear-gradient-6" x1="-3312.82" y1="-1944.58" x2="-3312.82" y2="-1943.92" gradientTransform="translate(710683.61 227247.15) scale(214.5 116.79)" gradientUnits="userSpaceOnUse"><stop offset="0.06" stop-color="#400000"/><stop offset="0.23" stop-color="#702a00" stop-opacity="0.81"/><stop offset="0.42" stop-color="#9c5009" stop-opacity="0.6"/><stop offset="0.6" stop-color="#c37115" stop-opacity="0.41"/><stop offset="0.76" stop-color="#df8b19" stop-opacity="0.23"/><stop offset="0.89" stop-color="#f19c1a" stop-opacity="0.09"/><stop offset="0.97" stop-color="#faa41a" stop-opacity="0"/></linearGradient><linearGradient id="linear-gradient-7" x1="-3313.28" y1="-1946.01" x2="-3312.05" y2="-1946.01" gradientTransform="translate(710683.61 227247.15) scale(214.5 116.79)" gradientUnits="userSpaceOnUse"><stop offset="0" stop-color="#8f5e00"/><stop offset="0.09" stop-color="#9d6506"/><stop offset="0.29" stop-color="#c57615"/><stop offset="0.48" stop-color="#f6851f"/><stop offset="0.56" stop-color="#dc731c"/><stop offset="0.73" stop-color="#a24a0d"/><stop offset="0.98" stop-color="#4c0600"/><stop offset="1" stop-color="#400000"/></linearGradient><linearGradient id="linear-gradient-8" x1="-3301.88" y1="-1950.44" x2="-3301.22" y2="-1950.44" gradientTransform="translate(410409.98 324322.21) scale(124.3 166.24)" gradientUnits="userSpaceOnUse"><stop offset="0" stop-color="#560003"/><stop offset="0.03" stop-color="#64010a"/><stop offset="0.11" stop-color="#7f0c14"/><stop offset="0.2" stop-color="#9a131a"/><stop offset="0.29" stop-color="#b1171e"/><stop offset="0.39" stop-color="#c41920"/><stop offset="0.52" stop-color="#d11a21"/><stop offset="0.68" stop-color="#da1a22"/><stop offset="1" stop-color="#dd1a22"/></linearGradient><linearGradient id="linear-gradient-9" x1="-3302.07" y1="-1950.39" x2="-3301.04" y2="-1950.39" gradientTransform="translate(410409.98 324322.21) scale(124.3 166.24)" gradientUnits="userSpaceOnUse"><stop offset="0" stop-color="#ed1c24"/><stop offset="0.31" stop-color="#e91c24"/><stop offset="0.47" stop-color="#df1c24"/><stop offset="0.59" stop-color="#d11b23"/><stop offset="0.69" stop-color="#bf1921"/><stop offset="0.78" stop-color="#a8161e"/><stop offset="0.86" stop-color="#8d1118"/><stop offset="0.94" stop-color="#710710"/><stop offset="1" stop-color="#560003"/></linearGradient><linearGradient id="linear-gradient-10" x1="-3212.35" y1="-1905.46" x2="-3211.89" y2="-1905.92" gradientTransform="translate(91211.15 77019.67) scale(28.37 40.37)" gradientUnits="userSpaceOnUse"><stop offset="0.05" stop-color="#dd1a22" stop-opacity="0.7"/><stop offset="0.07" stop-color="#dd2023" stop-opacity="0.7"/><stop offset="0.15" stop-color="#df3027" stop-opacity="0.7"/><stop offset="0.23" stop-color="#e14531" stop-opacity="0.7"/><stop offset="0.31" stop-color="#e45d42" stop-opacity="0.7"/><stop offset="0.39" stop-color="#e8785b" stop-opacity="0.7"/><stop offset="0.48" stop-color="#ee967b" stop-opacity="0.7"/><stop offset="0.56" stop-color="#f4bea9" stop-opacity="0.7"/><stop offset="0.65" stop-color="#fdeee7" stop-opacity="0.7"/><stop offset="0.75" stop-color="#fff" stop-opacity="0.7"/></linearGradient></defs><title>Endorphina</title><g id="Layer_2" data-name="Layer 2"><g id="Layer_1-2" data-name="Layer 1"><path class="cls-1" d="M41.41,157.13c-5.51-8-6-16.28.53-27.5s27.9-25.41,27.9-25.41a42.23,42.23,0,0,0,4.27-2.69,25.33,25.33,0,0,0,6.63-6.3,7,7,0,0,0,1.37-4.47c0-3.08-1.83-5.51-4-7.54a37.89,37.89,0,0,0-6.7-5c-.52-.33-1-.59-1.57-.92h-.07c-1-.66-21.53-14.51-27.83-25.41-6.5-11.16-6-19.49-.53-27.5S60.52,11.33,81.13,12.65s43.39,7.61,60.46,22.91c0,0-14.57-25.87-51.53-33.09S24.54,9.82,8.13,24.79C3.8,28.8,1.5,32.54.78,36.15c-2,10,7.42,18.64,15.3,26.06,10.43,9.85,15.09,19.69,15,28.49s-4.6,18.64-15,28.55c-7.82,7.42-17.33,16-15.3,26.07.72,3.61,3,7.41,7.35,11.35,16.41,15,44.9,29.54,81.93,22.32s51.6-33.08,51.6-33.08c-17.07,15.36-39.79,21.59-60.46,22.91s-34.27-3.68-39.79-11.69Z"/><path class="cls-2" d="M26.71,57.15,69.84,77.24c-1-.65-21.53-14.51-27.83-25.4-6.5-11.16-6-19.5-.53-27.51S60.58,11.27,81.2,12.58s43.39,7.62,60.46,22.91c0,0-14.58-25.86-51.54-33.08S24.61,9.76,8.2,24.73C3.8,28.8,1.5,32.54.78,36.15,1.11,47.18,26.71,57.15,26.71,57.15Z"/><path class="cls-3" d="M26.71,57.15,69.84,77.24c-1-.65-21.53-14.51-27.83-25.4-6.5-11.16-6-19.5-.53-27.51S60.58,11.27,81.2,12.58s43.39,7.62,60.46,22.91c0,0-14.58-25.86-51.54-33.08S24.61,9.76,8.2,24.73C3.8,28.8,1.5,32.54.78,36.15,1.11,47.18,26.71,57.15,26.71,57.15Z"/><path class="cls-4" d="M41.41,157.13c-5.51-8-6-16.28.53-27.5s27.9-25.41,27.9-25.41L26.71,124.31s-25.6,10-25.93,21c.72,3.61,3,7.41,7.35,11.35,16.41,15,44.9,29.54,81.93,22.32s51.6-33.08,51.6-33.08c-17.07,15.36-39.79,21.59-60.46,22.91s-34.27-3.68-39.79-11.69Z"/><path class="cls-5" d="M41.41,157.13c-5.51-8-6-16.28.53-27.5s27.9-25.41,27.9-25.41L26.71,124.31s-25.6,10-25.93,21c.72,3.61,3,7.41,7.35,11.35,16.41,15,44.9,29.54,81.93,22.32s51.6-33.08,51.6-33.08c-17.07,15.36-39.79,21.59-60.46,22.91s-34.27-3.68-39.79-11.69Z"/><path class="cls-6" d="M26.71,124.31l43.13-20.09a42.23,42.23,0,0,0,4.27-2.69,25.33,25.33,0,0,0,6.63-6.3,7,7,0,0,0,1.37-4.47c0-3.08-1.83-5.51-4-7.54a37.89,37.89,0,0,0-6.7-5c-.52-.33-1-.59-1.57-.92h-.07L26.71,57.15S1.17,47.18.78,36.21c-2,10,7.42,18.65,15.3,26.06,10.43,9.85,15.09,19.7,15,28.49s-4.6,18.65-15,28.56c-7.82,7.42-17.33,16-15.3,26.06.33-11.09,25.93-21.07,25.93-21.07Z"/><path class="cls-7" d="M26.71,124.31l43.13-20.09a42.23,42.23,0,0,0,4.27-2.69,25.33,25.33,0,0,0,6.63-6.3,7,7,0,0,0,1.37-4.47c0-3.08-1.83-5.51-4-7.54a37.89,37.89,0,0,0-6.7-5c-.52-.33-1-.59-1.57-.92h-.07L26.71,57.15S1.17,47.18.78,36.21c-2,10,7.42,18.65,15.3,26.06,10.43,9.85,15.09,19.7,15,28.49s-4.6,18.65-15,28.56c-7.82,7.42-17.33,16-15.3,26.06.33-11.09,25.93-21.07,25.93-21.07Z"/><path class="cls-8" d="M80,91.16c0,2.36-1.77,4.46-3.28,6.1a28.15,28.15,0,0,1-6.31,4.8c-1.31.72-3.15,1.83-4.72,1.18s.39-3.28.92-4.07C68.13,96.61,70,93.85,70,90.7c.07-5.06-13.06-13.79-7.09-13.79C65.24,76.91,80,85.71,80,91.16Z"/><path class="cls-9" d="M106.34,95.1a2.36,2.36,0,0,0,1.57,2.29,8.52,8.52,0,0,0,3.94.79c1.58,0,3.09-.06,4.66-.19s3-.33,4.27-.53,2.1-.33,2.3-.33c.13,2.89-.46,4.93-1.71,6.11a7.36,7.36,0,0,1-3.68,1.51,27.65,27.65,0,0,1-6.23.19c-3.35-.19-6.89-.91-9.52-3.15a11.7,11.7,0,0,1-3.48-7.28,22.49,22.49,0,0,1,.72-10.64,8.73,8.73,0,0,1,3-4.2,12.18,12.18,0,0,1,4.4-2,23.63,23.63,0,0,1,8.59-.4,10.87,10.87,0,0,1,6.11,2.43,8.62,8.62,0,0,1,2.63,5.12c.39,2.1.65,4.86-.6,6.76A4.15,4.15,0,0,1,121,93.32a14.28,14.28,0,0,1-3.28.66,24,24,0,0,1-3.81.13,21.43,21.43,0,0,0-4,.2,13,13,0,0,0-3.61.79Zm-.26-5.25a5.89,5.89,0,0,1,2.75-.79,32.49,32.49,0,0,1,3.55-.2,6.13,6.13,0,0,0,3-.72,2.24,2.24,0,0,0,1.25-2.1c0-.86-.66-1.58-2-2.17a7.28,7.28,0,0,0-5.51-.19c-2.43.91-3.48,2.95-3,6.17Zm50.15-3.35v18.12a24.12,24.12,0,0,1-3,0,8.26,8.26,0,0,1-2.36-.59c-1.71-.66-2.16-2.37-2.1-4V86.69c-.52-2.42-2.76-3.34-6.76-2.88a24.68,24.68,0,0,0-3.61.59,9,9,0,0,1,.13,2V100a3.89,3.89,0,0,1-2.17,4,7.25,7.25,0,0,1-2.36.59,15.24,15.24,0,0,1-2.95,0V80.39c0-2.16,3.48-3.35,10.43-3.48,9.79-.26,14.71,3,14.71,9.59Zm26.06-20.22a5.13,5.13,0,0,0,1.84.72,11.35,11.35,0,0,0,2,.13,5.82,5.82,0,0,1,1.78.26,2.38,2.38,0,0,1,1.31,1.32,7.42,7.42,0,0,1,.46,3v29.34a3.44,3.44,0,0,0-.46.59,11.2,11.2,0,0,1-.79.86,8.27,8.27,0,0,1-1.31.85,10.26,10.26,0,0,1-2.1.79,20.71,20.71,0,0,1-3.09.52,31.81,31.81,0,0,1-4.4.26q-7.68,0-11-3.34c-2.29-2.3-3-5.65-3.28-8.73-.26-3.94.13-8.41,2.83-11.49a11.56,11.56,0,0,1,3.15-2.5,14.08,14.08,0,0,1,3.61-1.38,18.85,18.85,0,0,1,3.8-.39q3.84,0,5.52,1.18l.13-12Zm0,24.88V84.07c0-2.56-9.72.66-10.77,3.61a9.6,9.6,0,0,0,.14,6.76c1.18,2.69,5.64,4.86,8.53,3.68C183.34,96.87,182.29,94.7,182.29,91.16Zm14.31-.33c.07-4.4,1.64-8.73,4.73-11.16a13.52,13.52,0,0,1,3.94-1.9,20.71,20.71,0,0,1,9.84-.4,14,14,0,0,1,3.28,1,9.05,9.05,0,0,1,2.43,1.51c5.39,4.46,5.85,15.16,1.64,20.61a8.93,8.93,0,0,1-2.29,2.17,11.88,11.88,0,0,1-3.42,1.44,22.75,22.75,0,0,1-9.65.26,18.67,18.67,0,0,1-3.61-.92,9.51,9.51,0,0,1-2.62-1.57C197.91,99.3,196.54,95.1,196.6,90.83Zm7.62.46q.19,1.77.39,2.76a7.27,7.27,0,0,0,1,2,3.8,3.8,0,0,0,2.17,1.45,9.62,9.62,0,0,0,6.63-.14,4.49,4.49,0,0,0,1.84-1.24A6.27,6.27,0,0,0,217.61,93a6.65,6.65,0,0,0,.06-1.12V90.57c0-5.52-5.12-8.34-10.11-6.24a4.88,4.88,0,0,0-2,1.25,4.8,4.8,0,0,0-1,1.9,9.85,9.85,0,0,0-.39,1.84V91A.83.83,0,0,1,204.22,91.29Zm46-14.25a5.17,5.17,0,0,0,0,1.06,8,8,0,0,1,0,1.83,9.64,9.64,0,0,1-.39,1.84,2.86,2.86,0,0,1-1.18,1.58,4.93,4.93,0,0,1-2.89.59c-.92,0-1.84.06-2.76.13a3.85,3.85,0,0,0-2,.79c-1.51,1-1.51,3.08-1.51,4.66v16a5.62,5.62,0,0,0-2.37-1c-.85-.19-1.64-.39-2.49-.59a3.17,3.17,0,0,1-1.84-1.18,4.39,4.39,0,0,1-.79-2.82V85.78a7.52,7.52,0,0,1,.2-1.45,8.11,8.11,0,0,1,.53-1.84,11.12,11.12,0,0,1,1-1.9,8.62,8.62,0,0,1,1.7-1.77A7.74,7.74,0,0,1,238,77.57a11.77,11.77,0,0,1,3.55-.53Zm13.53,38.6a4.18,4.18,0,0,0-2.37-.78c-1.57-.13-3.28.19-4.26-1.18a6.15,6.15,0,0,1-.79-3.55V80.79a5.12,5.12,0,0,0,.46-.59,2.22,2.22,0,0,1,.79-.79,15,15,0,0,1,1.31-.86,8.49,8.49,0,0,1,2.1-.85,19.11,19.11,0,0,1,3.08-.52,31.9,31.9,0,0,1,4.4-.27q7.68,0,11,3.35a12.26,12.26,0,0,1,3.09,7.22c.46,3.42.46,7.16-.92,10.31a9.58,9.58,0,0,1-3.22,4.2,14.73,14.73,0,0,1-4.27,2.17,18.19,18.19,0,0,1-5.64.65,17.44,17.44,0,0,1-4.6-.65v11.48Zm0-24.88v7.09a12.09,12.09,0,0,0,1.7.4,16.59,16.59,0,0,0,2.3.26,6.34,6.34,0,0,0,2.56-.33,8.23,8.23,0,0,0,2.3-1.18,5.59,5.59,0,0,0,1.77-2.36,10.15,10.15,0,0,0,.07-7.22A7,7,0,0,0,273,85.25a5,5,0,0,0-2.16-1.12,13.11,13.11,0,0,0-2.24-.45,13.43,13.43,0,0,0-2.23.06c-.92.13-1.44.13-1.64.2a7.1,7.1,0,0,1-.92.19h-.06c-.07.07-.07,2.24,0,6.63ZM297.17,78a16.22,16.22,0,0,1,5.58-.92c2.49-.13,5.05-.19,7.35.92A8.13,8.13,0,0,1,313,80.13a9.92,9.92,0,0,1,1.38,2.76,9.08,9.08,0,0,1,.52,2.36,4.05,4.05,0,0,1,0,1.31v18.12c-5,.66-7.48-.85-7.48-4.66V94.51c.07-4.93-.2-8-.72-9.06s-2-1.64-4.66-1.71a13.87,13.87,0,0,0-4.86.92V100c.07,1.58-.39,3.22-1.9,3.94a11.36,11.36,0,0,1-5.52.66V65.82a4.25,4.25,0,0,0,2.36.79c1.58.13,3.29-.2,4.27,1.18a6.09,6.09,0,0,1,.79,3.54V78Zm26.06-3.74a4.08,4.08,0,0,1,0-5.64,4,4,0,0,1,5.65,5.64A4.09,4.09,0,0,1,323.23,74.22Zm6.5,7.75a6.15,6.15,0,0,0-.79-3.55c-.85-1.11-1.77-1-3-1.11a6.29,6.29,0,0,1-3.61-.86v28.1a12.25,12.25,0,0,0,5.58-.72c1.31-.59,1.91-1.91,1.84-3.94V82Zm32.56,4.53v18.12a24,24,0,0,1-3,0A8.24,8.24,0,0,1,357,104a3,3,0,0,1-1.64-1.45,5,5,0,0,1-.46-2.56V86.69c-.52-2.42-2.76-3.34-6.76-2.88a24.68,24.68,0,0,0-3.61.59,9,9,0,0,1,.13,2V100a4.38,4.38,0,0,1-.52,2.56,3,3,0,0,1-1.65,1.45,7.18,7.18,0,0,1-2.36.59,15.24,15.24,0,0,1-3,0V80.39c0-2.16,3.48-3.35,10.44-3.48,9.71-.26,14.63,3,14.7,9.59Zm9.06-2.5a.77.77,0,0,0-.07-.39A5.62,5.62,0,0,1,373.52,78a9.12,9.12,0,0,1,3.67-.92c4.33-.32,10.57-.45,14,2.76a8.74,8.74,0,0,1,1.71,2.1,10.58,10.58,0,0,1,1.12,3,18.33,18.33,0,0,1,.39,3.94v5.51c0,6.37-4.07,10.37-10.37,10.37-4.73,0-12.21,1-14.38-4.72a11.52,11.52,0,0,1,.26-7.42A6.06,6.06,0,0,1,372,89.65a7.89,7.89,0,0,1,3.15-1.38,29.32,29.32,0,0,1,5.9-.39,16,16,0,0,0,4.27-.53c1-.39,2-1.31,1.45-2.43s-2-1.44-3.09-1.64A26.53,26.53,0,0,0,376.8,83,20.38,20.38,0,0,0,371.35,84Zm15.75,7.49-.59.59a6.53,6.53,0,0,1-1.64.92,6.46,6.46,0,0,1-2.69.59,10.72,10.72,0,0,0-3.94.59,2,2,0,0,0-1.51,1.57,2.19,2.19,0,0,0,1.12,2.1,6.27,6.27,0,0,0,2.69.6c1.25.06,2.49.06,3.74.06a2.78,2.78,0,0,0,1.38-.39,3.62,3.62,0,0,0,.85-.66c.59-.72.59-2.23.59-3.15V91.49Z"/></g></g></svg>