<svg xmlns="http://www.w3.org/2000/svg" viewBox="0 0 226.74 106.08"><defs><style>.cls-1{fill:#fff;}.cls-2{fill:#0d7abe;}</style></defs><title>Ezugi</title><g id="Layer_2" data-name="Layer 2"><g id="Layer_1-2" data-name="Layer 1"><g id="Layer_2-2" data-name="Layer 2"><g id="Layer_1-2-2" data-name="Layer 1-2"><path class="cls-1" d="M79.37,77.61a106.66,106.66,0,0,0-10.9.32,1.16,1.16,0,0,1-.62-1.07,155,155,0,0,0,10-15.55l11-19c1.66-3,.93-3.18-.93-3.18H80.73c-3.12,0-5.61.32-7.16,1.59a14.49,14.49,0,0,0-3.74,6.13,1.59,1.59,0,0,1-2.39-.43A44,44,0,0,1,70.86,34a1.31,1.31,0,0,1,1.25,0c.32,1.87,1.46,1.87,7.36,1.87H94.23a34.67,34.67,0,0,0,6.32-.36.88.88,0,0,1,.52,1.07c-2.19,3.07-4.67,7-7.68,12.06L80.82,70.21c-2.19,3.74-2,4.22,2,4.22h3.53c4.06,0,9.35,0,12.24-3.18a24.56,24.56,0,0,0,3.33-6.13,1.64,1.64,0,0,1,2.25.58l0,.05a39.25,39.25,0,0,1-3.83,12.17c-3.42-.21-6.86-.32-11.63-.32Z"/><path class="cls-1" d="M120,62.06c0,7.31,1.76,12.17,9.66,12.17A13.42,13.42,0,0,0,138.12,71a7.48,7.48,0,0,0,2.07-6.13V47.55c0-6.88-.73-7.08-3.83-8.36L135,38.67a1.46,1.46,0,0,1,.11-2.32,40.77,40.77,0,0,0,12.15-1.87c.52.11.82.32.93.75-.21,2-.32,5.29-.32,9.22V62.23c0,8.36.32,11.53,3.22,11.53a19.33,19.33,0,0,0,4-.6c.62.52.73,2.65-.11,3.07-4.06.84-10.08,1.87-13.61,3.91a1.44,1.44,0,0,1-1.25-.75V75.07c0-1-.32-1.48-.93-1.48-3.12,2-8.21,5.5-14.32,5.5-9.14,0-12.56-4.65-12.56-13.23V48.19c0-6.67,0-7.63-3.12-9L108,38.67a1.59,1.59,0,0,1,.12-2.24l.09-.07a36.11,36.11,0,0,0,11.1-1.87c.62.11.93.32,1,.75a81.07,81.07,0,0,0-.32,9.22Z"/><path class="cls-1" d="M202.1,38.24c1.14.52.93,4.13-.62,4.34H194a47,47,0,0,1,.21,5.4c0,7.31-4.26,16.82-17.44,16.82a44.21,44.21,0,0,1-4.56-.32c-1.25.75-4.56,2.75-4.56,5.81,0,2.43,2.39,4.45,7.27,4.45,3.53,0,7.78-.32,12.36-.32,5.81,0,14.52,1.07,14.52,11.65,0,11.53-12.36,20-25.85,20-12.77,0-17.23-7-17.23-12.28a6,6,0,0,1,1.14-3.91c1.76-1.87,4.67-4.65,7.07-7.08.93-1,1.76-1.87.82-2.54-4.06-1.07-7.57-4.65-7.57-8.36,0-.52.41-1,1.55-1.87a32.39,32.39,0,0,0,5.5-4.86,4.17,4.17,0,0,0,1-2,14.39,14.39,0,0,1-7.76-12.75,16.36,16.36,0,0,1,16.72-16h.2a25.5,25.5,0,0,1,10,2.11,12.22,12.22,0,0,0,6.34,1.7ZM180.42,81c-3.33,0-7.48.21-8.93,1.16a10.88,10.88,0,0,0-5,8.9c0,5.72,4.47,10.47,13.91,10.47s15.36-5.29,15.36-11.33c0-6.45-4.36-9.22-11.83-9.22Zm6.5-30.26c0-7.2-2.92-13.23-9.23-13.23-5,0-8.73,4.65-8.73,11.85,0,7.48,4.47,12.37,9.44,12.37C183.95,61.68,186.92,57.2,186.92,50.73Z"/><path class="cls-1" d="M212.49,47.23c0-4.13,0-4.65-2.8-6.56l-.93-.64a1.48,1.48,0,0,1,.11-1.87A70.69,70.69,0,0,0,219.56,33a1,1,0,0,1,1,.65c-.21,3.74-.41,8.79-.41,13.08v19c0,7.63.21,8.67,3.94,9.22l2.19.32a1.87,1.87,0,0,1-.19,2.64l0,0c-3.12-.21-6.13-.32-9.76-.32s-6.86.11-9.76.32a1.87,1.87,0,0,1-.22-2.63l0,0,2.19-.32c3.83-.52,3.94-1.59,3.94-9.22Z"/><path class="cls-2" d="M222,22.43c1.38,4.86-2.13,8.21-6.75,9.53-5.12,1.48-9.35-.69-10.37-4.32-1.27-4.45,1.87-8.43,6.84-9.85S220.94,18.69,222,22.43Z"/><path class="cls-2" d="M0,9V83.82l60.19-.71V0Zm50.08,68c-8.58,0-16.82,0-24.82.26l-7.87.19c-3.74,0-6.56.24-11.5.54a2,2,0,0,1-.17-2.37l2.75-.36c4.8-.62,5.23-2.07,5.23-12.17V28.51c0-10-.17-11.44-5.14-11.44H7.22c-.49-.24-.32-2.11.26-2.41,3.61-.3,6.49-.6,10-1.08l16.62-2.36a121,121,0,0,0,12.64-2,116.66,116.66,0,0,1,1.53,13.38c-.39.65-1.87,1-2.39.49-1.44-4.62-2.3-8.15-7.18-8.75a40,40,0,0,0-8.79.6l-6.41.84c-2.64.36-2.64.54-2.64,4.24V39.52c0,2.73.26,2.71,2.9,2.49l5.16-.45a32,32,0,0,0,7.74-1.27c1.1-.5,1.76-1.16,2.22-3.74l.75-4.21c.47-.65,2.06-.8,2.43-.15,0,2.43-.37,6.41-.37,10.24s.37,7.48.37,9.68a1.87,1.87,0,0,1-2.43.26l-.93-3.78c-.37-1.87-1-3.23-2.86-3.59a27.57,27.57,0,0,0-7,0l-5.16.41c-2.64.21-2.9.34-2.9,2.86V62c0,5.16.26,8.47,1.66,10.08,1,1.14,2.92,2.17,10.82,1.87,7.12-.21,9.83-.67,11.93-1.87C46.9,71,49.5,67.35,52,61.91a1.7,1.7,0,0,1,2.36.46l.09.14A96,96,0,0,1,50.08,77.07Z"/></g></g></g></g></svg>