<svg xmlns="http://www.w3.org/2000/svg" viewBox="0 0 17.46 24.31"><defs><style>.cls-1{fill:#9b9b9b;}</style></defs><title>ezugi_1</title><g id="Layer_2" data-name="Layer 2"><g id="Layer_1-2" data-name="Layer 1"><g id="Layer_2-2" data-name="Layer 2"><g id="Layer_1-2-2" data-name="Layer 1-2"><path class="cls-1" d="M0,2.62V24.31l17.46-.21V0ZM14.52,22.35c-2.49,0-4.88,0-7.2.08L5,22.48c-1.08,0-1.9.07-3.33.16a.59.59,0,0,1,0-.69l.8-.1C3.85,21.67,4,21.25,4,18.32V8.27c0-2.91,0-3.32-1.49-3.32H2.09c-.14-.07-.09-.61.08-.7,1-.09,1.88-.17,2.9-.31l4.82-.68a35.08,35.08,0,0,0,3.66-.57A33.83,33.83,0,0,1,14,6.56c-.11.19-.54.3-.69.14-.42-1.34-.67-2.36-2.08-2.54a11.61,11.61,0,0,0-2.55.17l-1.86.24c-.76.1-.76.16-.76,1.23v5.65c0,.79.08.79.84.72l1.5-.13a9.28,9.28,0,0,0,2.24-.37c.32-.15.51-.34.65-1.08l.22-1.22c.14-.19.6-.23.7,0,0,.7-.11,1.86-.11,3s.11,2.17.11,2.81a.54.54,0,0,1-.7.08l-.27-1.1c-.11-.54-.3-.94-.83-1a8,8,0,0,0-2,0l-1.5.12c-.76.06-.84.1-.84.83v4c0,1.5.08,2.46.48,2.92s.85.63,3.14.54c2.07-.06,2.85-.2,3.46-.54a7.76,7.76,0,0,0,2-3,.49.49,0,0,1,.69.13l0,0A27.85,27.85,0,0,1,14.52,22.35Z"/></g></g></g></g></svg>