<?xml version="1.0" encoding="UTF-8"?>
<svg width="50px" height="39px" viewBox="0 0 50 39" version="1.1" xmlns="http://www.w3.org/2000/svg" xmlns:xlink="http://www.w3.org/1999/xlink">
    <!-- Generator: Sketch 60.1 (88133) - https://sketch.com -->
    <title>Mask</title>
    <desc>Created with Sketch.</desc>
    <defs>
        <linearGradient x1="50%" y1="0%" x2="50%" y2="100%" id="linearGradient-1">
            <stop stop-color="#FFFFFF" offset="0%"></stop>
            <stop stop-color="#D7D1C6" offset="100%"></stop>
        </linearGradient>
        <path d="M37.1292369,0 L50,13.2098861 L45.5303265,17.8009564 L24.9998276,38.8888889 L0,13.2102403 L12.8609358,0 L37.1292369,0 Z M28.4971834,4.86111111 C25.2475633,4.86111111 22.8445561,7.34116405 22.8445561,13.2310942 L22.8445561,13.2310942 L22.8445561,14.9189974 L20.2380952,14.9189974 L20.2380952,15.711321 L22.8445561,15.711321 L22.8445561,27.7667041 L20.2380952,27.7667041 L20.2380952,28.5590278 L28.2262536,28.5590278 L28.2262536,27.7667041 L25.4846696,27.7667041 L25.4846696,15.711321 L28.2262536,15.711321 L28.2262536,14.9191712 L25.4846696,14.9191712 L25.4846696,11.0269118 C25.4846696,7.58244207 26.5338819,5.58477133 28.1584358,5.58477133 C28.3955421,5.58477133 28.9708835,5.61901612 28.9708835,5.7914569 C28.9708835,6.23907282 28.7002954,6.27366527 28.7002954,6.65227011 C28.7002954,7.58244207 29.1741663,8.23691738 30.0882554,8.23691738 C30.663426,8.23691738 31.3405797,7.78912763 31.3405797,7.1002337 C31.3405797,5.48134164 29.8173256,4.86111111 28.4971834,4.86111111 Z M32.6476049,14.0104751 C31.9399894,14.0104751 31.3664596,14.599896 31.3664596,15.3269342 C31.3664596,16.0541561 31.9399894,16.643577 32.6476049,16.643577 C33.3550417,16.643577 33.9285714,16.0541561 33.9285714,15.3269342 C33.9285714,14.599896 33.3550417,14.0104751 32.6476049,14.0104751 Z" id="path-2"></path>
    </defs>
    <g id="thumbs" stroke="none" stroke-width="1" fill="none" fill-rule="evenodd">
        <g id="Blackjack-Copy-7" transform="translate(-118.000000, -203.000000)">
            <g id="Bitmap" transform="translate(118.000000, 203.000000)">
                <mask id="mask-3" fill="white">
                    <use xlink:href="#path-2"></use>
                </mask>
                <use id="Mask" fill="url(#linearGradient-1)" xlink:href="#path-2"></use>
            </g>
        </g>
    </g>
</svg>