<?xml version="1.0" encoding="utf-8"?>
<!-- Generator: Adobe Illustrator 22.1.0, SVG Export Plug-In . SVG Version: 6.00 Build 0)  -->
<svg version="1.1" id="Layer_1" xmlns="http://www.w3.org/2000/svg" xmlns:xlink="http://www.w3.org/1999/xlink" x="0px" y="0px"
	 viewBox="0 0 288.9 41.9" style="enable-background:new 0 0 288.9 41.9;" xml:space="preserve">
<style type="text/css">
	.st0{fill:#C2C1C0;}
</style>
<g>
	<polygon class="st0" points="57.9,24.6 70,24.6 63.9,15.7 	"/>
	<polygon class="st0" points="284,4.2 244.4,4.2 243.4,4.2 243.4,5.2 243.4,11.2 243.4,12.2 244.4,12.2 259.8,12.2 259.8,38.3 
		259.8,39.3 260.8,39.3 267.6,39.3 268.6,39.3 268.6,38.3 268.6,12.2 284,12.2 285,12.2 285,11.2 285,5.2 285,4.2 	"/>
	<path class="st0" d="M169.7,3.7l-0.3-0.4h-0.2V3.2H4.3v36.1h148.2l4.1-6.1H180l3.9,5.7l0.3,0.4h0.5h7.4h1.9l-1.1-1.6L169.7,3.7z
		 M42.7,19.9v9.9v0.4l-0.3,0.2c-3.3,2.8-8.1,4.2-14.4,4.2c-10.9,0-17.5-5-17.5-13.3c0-4.2,1.8-7.7,5.1-10.1
		c3.1-2.2,7.3-3.3,12.3-3.3c6,0,10.3,1.2,13.5,3.8l0.6,0.5l-0.5,0.6l-2.1,2.7l-0.5,0.6l-0.6-0.5c-2.1-1.8-4.7-3-10.5-3
		c-7.7,0-11.6,2.9-11.6,8.6c0,5.8,3.8,8.7,11.6,8.7c4.1,0,7.2-0.7,9.5-2.1V24H26.2h-0.8v-0.8v-3.3v-0.8h0.8h15.7h0.8V19.9z
		 M81.3,34.1H77h-0.4l-0.2-0.3l-3-4.4H54.7l-2.9,4.4l-0.2,0.3h-0.4H47h-1.5l0.8-1.2l16.8-25l0.2-0.3h0.4H64h0.4l0.2,0.3l17.1,25
		l0.8,1.2H81.3z M122.1,8.7v24.6v0.8h-0.8h-4h-0.8v-0.8V18.8l-10.7,10.3l-0.2,0.2h-0.3H105h-0.3l-0.2-0.2L93.1,18.7v14.6v0.8h-0.8
		h-4h-0.8v-0.8V8.7V7.9h0.8h0.3h0.3l0.2,0.2l16,14.6l15.3-14.6l0.2-0.2h0.3h0.3h0.8L122.1,8.7L122.1,8.7z M160.2,9.5L158,13
		l-0.2,0.4h-0.4h-20.9v5.1H153h1.4l-0.8,1.2l-2.2,3.3l-0.2,0.4h-0.4h-14.4v5.8h9.6h1.4l-0.8,1.2l-2.3,3.5l-0.2,0.4h-0.4h-12.1h-0.8
		v-0.8V9.1V8.3h0.8h27.9h1.4L160.2,9.5z M161.8,25.4l6.4-9.5l6.5,9.5H161.8z"/>
	<path class="st0" d="M229.7,25.9c7.9-2,9.1-7.4,9.1-10.5c0-3.8-1.5-6.6-4.4-8.5c-2.8-1.8-6.9-2.7-12.5-2.7h-22.8h-1v1v33v1h1h6.7h1
		v-1V26.7h12.7l11.1,12.2l0.3,0.3h0.4h8.3h2.3l-1.5-1.7L229.7,25.9z M221.3,19.2h-14.5V12h14.5c8.6,0,8.6,1.9,8.6,3.5
		C229.9,17.1,229.9,19.2,221.3,19.2z"/>
</g>
</svg>
