<svg xmlns="http://www.w3.org/2000/svg" xmlns:xlink="http://www.w3.org/1999/xlink" viewBox="0 0 478.22 105.65"><defs><style>.cls-1{fill:#fff;}.cls-2,.cls-3,.cls-4,.cls-5,.cls-6{fill-rule:evenodd;}.cls-2{fill:url(#linear-gradient);}.cls-3{fill:url(#linear-gradient-2);}.cls-4{fill:url(#linear-gradient-3);}.cls-5{fill:url(#linear-gradient-4);}.cls-6{fill:url(#linear-gradient-5);}</style><linearGradient id="linear-gradient" x1="1.05" y1="8.28" x2="69.89" y2="8.28" gradientUnits="userSpaceOnUse"><stop offset="0" stop-color="#ed334d"/><stop offset="1" stop-color="#f79826"/></linearGradient><linearGradient id="linear-gradient-2" x1="3.55" y1="14.45" x2="71.79" y2="14.45" xlink:href="#linear-gradient"/><linearGradient id="linear-gradient-3" x1="2.01" y1="2.3" x2="70.53" y2="2.3" xlink:href="#linear-gradient"/><linearGradient id="linear-gradient-4" x1="1.64" y1="19.61" x2="69.54" y2="19.61" xlink:href="#linear-gradient"/><linearGradient id="linear-gradient-5" x1="0" y1="61.83" x2="69.7" y2="61.83" xlink:href="#linear-gradient"/></defs><title>Habanero</title><g id="Layer_2" data-name="Layer 2"><g id="Layer_1-2" data-name="Layer 1"><path class="cls-1" d="M149.9,85.49H137.44V67.25H121.28V85.49H108.81V39h12.47V56.59h16.16V39H149.9Z"/><path class="cls-1" d="M169.75,77.48l-2.23,8h-13L168.5,39h18.87l14.14,46.45H188.84l-2.44-8Zm8.36-29.18L172.4,68.5H184Z"/><path class="cls-1" d="M206.18,39h25.28c4.22,0,7.59.85,10.1,2.4s3.76,4.73,3.76,9.51a20.43,20.43,0,0,1-1.08,7c-.72,2-2.77,3.24-6.16,3.79v.35c3.15.33,5.28,1.33,6.37,3a13,13,0,0,1,1.64,7.1q0,7.8-3.1,10.55t-11.32,2.75H206.18Zm20.41,18.59a2.08,2.08,0,0,0,.55.07h.49a13.18,13.18,0,0,0,3.8-.59c1-.35,1.56-1.47,1.56-3.38a5.11,5.11,0,0,0-.87-3.44c-.58-.63-1.71-.94-3.38-.94h-10.1v8.28Zm.34,17.62a15.14,15.14,0,0,0,4.84-.52c1.28-.39,1.92-1.73,1.92-4s-.5-3.47-1.5-3.87a12.75,12.75,0,0,0-4.42-.59h-9.13v9Z"/><path class="cls-1" d="M262.66,77.48l-2.23,8h-13L261.41,39h18.87l14.14,46.45H281.75l-2.44-8ZM271,48.3l-5.71,20.2h11.56Z"/><path class="cls-1" d="M344.08,85.49H323l-13.1-35.72h-.55l.55,35.72H297.69V39h21l13.09,35.31h.49L331.75,39h12.33Z"/><path class="cls-1" d="M362.68,57.63h19.78v8.64H362.68v9h21.59V85.49H350.21V39h33.64V49.28H362.68Z"/><path class="cls-1" d="M390.12,39h23.4q8.91.06,12.74,3t3.83,12.29A26,26,0,0,1,429,62.82q-1.15,3.24-7.63,4.63v.42q4.32.28,6.37,2.61a9.67,9.67,0,0,1,2.06,6.59v8.42H417.07V79.3A8,8,0,0,0,416,74.87c-.72-1.09-2.1-1.63-4.14-1.63h-9.27V85.49H390.12Zm22.35,23.54c2.28.05,3.66-.46,4.15-1.53a11.39,11.39,0,0,0,.73-4.6,12.25,12.25,0,0,0-.77-5q-.76-1.61-4.73-1.61l-9.27-.06V62.58Z"/><path class="cls-1" d="M435,59.83c0-.95,0-1.89.07-2.82s.12-1.87.21-2.82.21-1.9.35-2.82q1.32-7.8,7.1-10.1a35.22,35.22,0,0,1,12.47-2.44h1.39q12,0,16.86,4.07t4.8,16.69q0,12.89-2.82,19.56t-18.49,6.69l-2.3,0c-.79,0-1.58-.06-2.37-.11a28.54,28.54,0,0,1-10-2.16q-4.66-2-6.33-7.8a20.83,20.83,0,0,1-.84-4.8c-.09-1.63-.14-3.25-.14-4.88V59.83Zm12.75,2.54v2.79a20.88,20.88,0,0,0,1,7.52c.7,1.72,3,2.57,6.83,2.57q6.41,0,8.11-2t1.71-8V63.55c0-.55,0-1.13.07-1.74V58.47c0-3.11-.45-5.39-1.33-6.83s-3-2.15-6.34-2.15q-7.23,0-8.6,1.95t-1.49,10.72v.21Z"/><path class="cls-2" d="M39.51,14a2.32,2.32,0,0,0,2.32-2.32V4.93a2.32,2.32,0,1,0-4.64,0v6.71A2.32,2.32,0,0,0,39.51,14Z"/><path class="cls-3" d="M30.22,20.13a2.32,2.32,0,0,0,2.32-2.33V11.09a2.32,2.32,0,1,0-4.64,0V17.8A2.32,2.32,0,0,0,30.22,20.13Z"/><path class="cls-4" d="M30.23,4.6a2.32,2.32,0,0,0,2.32-2.32v.05a2.33,2.33,0,1,0-4.65,0V2.28A2.32,2.32,0,0,0,30.23,4.6Z"/><path class="cls-5" d="M48.8,21.91a2.32,2.32,0,0,0,2.32-2.33v.06a2.32,2.32,0,1,0-4.64,0v-.06A2.32,2.32,0,0,0,48.8,21.91Z"/><path class="cls-6" d="M67.38,39.12a2.33,2.33,0,0,0-2.33,2.33v1.17a2.32,2.32,0,0,1-4.64-.15v-5.8a2.33,2.33,0,0,0-4.65,0v.13a2.32,2.32,0,0,1-4.64,0V27.09a2.32,2.32,0,1,0-4.63,0v3.7a2.41,2.41,0,0,1-2.33,2.33,2.33,2.33,0,0,1-2.33-2.33V20.34a2.32,2.32,0,0,0-4.64,0v9.09a2.32,2.32,0,0,1-4.64,0V26.17a2.33,2.33,0,1,0-4.65,0v7a2.32,2.32,0,1,1-4.64,0v-9.7a2.32,2.32,0,1,0-4.64,0V38.3a2.33,2.33,0,0,1-4.65,0V34.38a2.32,2.32,0,1,0-4.64,0V45.31a2.33,2.33,0,0,1-4.65,0V41.72a2.32,2.32,0,1,0-4.64,0L0,45.3V85.53l34.84,20.12L69.68,85.53V60.08a.43.43,0,0,0,0-.11V41.45A2.32,2.32,0,0,0,67.38,39.12ZM51.26,78.58H40.31V70.25H29.37v8.33H18.43V52.49H29.37v8.77H40.31V52.49H51.26Z"/></g></g></svg>