<svg xmlns="http://www.w3.org/2000/svg" viewBox="0 0 22.87 34.67"><defs><style>.cls-1{fill:#9b9b9b;fill-rule:evenodd;}</style></defs><title>Habanero-Grey</title><g id="Layer_2" data-name="Layer 2"><g id="Layer_1-2" data-name="Layer 1"><path class="cls-1" d="M13,4.58a.76.76,0,0,0,.76-.76V1.62A.76.76,0,0,0,13,.85a.77.77,0,0,0-.77.77v2.2A.77.77,0,0,0,13,4.58Z"/><path class="cls-1" d="M9.92,6.61a.77.77,0,0,0,.76-.77V3.64a.76.76,0,1,0-1.52,0v2.2A.77.77,0,0,0,9.92,6.61Z"/><path class="cls-1" d="M9.92,1.51a.76.76,0,0,0,.76-.76h0a.76.76,0,0,0-1.52,0h0A.76.76,0,0,0,9.92,1.51Z"/><path class="cls-1" d="M16,7.19a.76.76,0,0,0,.77-.76h0a.77.77,0,0,0-1.53,0h0A.76.76,0,0,0,16,7.19Z"/><path class="cls-1" d="M22.11,12.84a.76.76,0,0,0-.76.76V14a.77.77,0,0,1-1.53-.05V12a.76.76,0,1,0-1.52,0v.05a.76.76,0,1,1-1.52,0V8.89A.77.77,0,0,0,16,8.13a.76.76,0,0,0-.76.76V10.1a.78.78,0,0,1-.76.77.76.76,0,0,1-.76-.76V6.67a.77.77,0,0,0-1.53,0v3a.76.76,0,0,1-1.52,0V8.59a.76.76,0,1,0-1.52,0v2.29a.77.77,0,0,1-1.53,0V7.69a.76.76,0,0,0-1.52,0v4.88a.76.76,0,0,1-.76.76.77.77,0,0,1-.77-.76V11.28a.76.76,0,0,0-1.52,0v3.59a.76.76,0,1,1-1.52,0V13.69a.76.76,0,0,0-.77-.76.76.76,0,0,0-.76.76V28.07l11.43,6.6,11.44-6.6V13.6A.76.76,0,0,0,22.11,12.84Zm-5.29,13H13.23V23.05H9.64v2.74H6.05V17.23H9.64V20.1h3.59V17.23h3.59Z"/></g></g></svg>