<svg xmlns="http://www.w3.org/2000/svg" xmlns:xlink="http://www.w3.org/1999/xlink" viewBox="0 0 168.29 168.29"><defs><style>.cls-1{fill:url(#radial-gradient);}.cls-2{fill:#fff;}</style><radialGradient id="radial-gradient" cx="49.29" cy="-435.98" r="223.01" gradientTransform="matrix(1, 0, 0, -1, 0, -254.66)" gradientUnits="userSpaceOnUse"><stop offset="0.1" stop-color="#ffd77a"/><stop offset="0.15" stop-color="#fcca76"/><stop offset="0.26" stop-color="#f4a96c"/><stop offset="0.4" stop-color="#e8755e"/><stop offset="0.45" stop-color="#e25f58"/><stop offset="0.68" stop-color="#cb3593"/><stop offset="1" stop-color="#6568ae"/></radialGradient></defs><title>instagram</title><g id="Layer_2" data-name="Layer 2"><g id="Layer_1-2" data-name="Layer 1"><g id="Layer_2-2" data-name="Layer 2"><g id="Layer_1-2-2" data-name="Layer 1-2"><path class="cls-1" d="M168.29,133.73a34.57,34.57,0,0,1-34.56,34.56H34.56A34.57,34.57,0,0,1,0,133.73V34.57A34.57,34.57,0,0,1,34.56,0h99.16a34.57,34.57,0,0,1,34.56,34.57Z"/><path class="cls-2" d="M108.5,20.69H59.79A39.11,39.11,0,0,0,20.68,59.8v48.71a39.11,39.11,0,0,0,39.11,39.1H108.5a39.1,39.1,0,0,0,39.11-39.09h0V59.8A39.11,39.11,0,0,0,108.5,20.69Zm26.92,83.14a31.57,31.57,0,0,1-31.57,31.57H64.47A31.57,31.57,0,0,1,32.9,103.83V64.47A31.57,31.57,0,0,1,64.47,32.9h39.36A31.57,31.57,0,0,1,135.4,64.47h0Z"/><path class="cls-2" d="M85.85,50.94a33.43,33.43,0,1,0,33.43,33.43h0A33.42,33.42,0,0,0,85.86,50.94Zm0,53.57a20.09,20.09,0,1,1,20.09-20.09,20.09,20.09,0,0,1-20.09,20.09Z"/><circle class="cls-2" cx="116.97" cy="50.41" r="8.5"/></g></g></g></g></svg>