<svg xmlns="http://www.w3.org/2000/svg" viewBox="0 0 370.59 78.42"><defs><style>.cls-1{fill:#2e5768;}.cls-2{fill:#f5b41a;}</style></defs><title>isoftbet</title><g id="Layer_2" data-name="Layer 2"><g id="Layer_1-2" data-name="Layer 1"><path class="cls-1" d="M66.61,20.8c-.39-4.23-1.48-7.59-3.36-10s-4.69-3.68-8.36-3.68A10.34,10.34,0,0,0,47.3,9.93a9.77,9.77,0,0,0-2.81,7.19,12.3,12.3,0,0,0,3.28,8.76,66.76,66.76,0,0,0,10,8.13,81.92,81.92,0,0,1,7,4.93,36.74,36.74,0,0,1,5,4.92,22.69,22.69,0,0,1,3.83,6.57A22.33,22.33,0,0,1,75.06,59c0,6.1-1.72,10.87-5.09,14.31s-8.2,5.16-14.46,5.16c-5.94,0-10.55-2-14-5.94s-5.16-9.15-5.32-15.64h7.58C43.94,61.45,45,65,47.14,67.55s5.17,3.83,9.15,3.83a10.71,10.71,0,0,0,8.29-3.28c2-2.19,3-5.32,3-9.31a13.2,13.2,0,0,0-3.44-9.22,60.16,60.16,0,0,0-10.63-8.68q-4-2.82-6.57-4.93A45.41,45.41,0,0,1,42,31.27a18.76,18.76,0,0,1-3.68-6,19.38,19.38,0,0,1-1.41-7.5A17.22,17.22,0,0,1,42,4.85C45.35,1.64,49.8,0,55.28,0,61,.08,65.44,1.88,68.72,5.47s5.16,8.68,5.48,15.33ZM128.3,57.15a40.94,40.94,0,0,1-4.3,12.2,19,19,0,0,1-6.72,6.88,17.69,17.69,0,0,1-8.92,2.19,17.38,17.38,0,0,1-8.83-2.19,18.39,18.39,0,0,1-6.73-6.88,38.77,38.77,0,0,1-4.37-12.2,90.32,90.32,0,0,1-1.57-17.9,91.18,91.18,0,0,1,1.57-18,38.58,38.58,0,0,1,4.3-12.2,18.82,18.82,0,0,1,6.72-6.88A18.77,18.77,0,0,1,108.36,0a17.9,17.9,0,0,1,8.92,2.19A17.33,17.33,0,0,1,124,9.07a38.83,38.83,0,0,1,4.3,12.2,90.68,90.68,0,0,1,1.56,18,96,96,0,0,1-1.56,17.9Zm-7.74-33.69a33.26,33.26,0,0,0-2.81-9.86,12.19,12.19,0,0,0-4.15-5.08,10.28,10.28,0,0,0-10.63,0,12.19,12.19,0,0,0-4.15,5.08A37.65,37.65,0,0,0,96,23.46a99.2,99.2,0,0,0-1,15.79A99.2,99.2,0,0,0,96,55a33.19,33.19,0,0,0,2.81,9.85A12.06,12.06,0,0,0,103,70a10.22,10.22,0,0,0,10.63,0,12.06,12.06,0,0,0,4.15-5.08A37.45,37.45,0,0,0,120.56,55a99.2,99.2,0,0,0,1-15.79A99.2,99.2,0,0,0,120.56,23.46ZM143.47,1.09h32.68v7H151.68V34h18.37v7H151.68V77.25h-8.21V1.09Zm82.4,0v7H210.24V77.32H202V8.13H186.39v-7Z"/><path class="cls-2" d="M234.79,1.09H255c5.63,0,10,1.72,13.21,5.09s4.77,8,4.77,13.68a19.59,19.59,0,0,1-2.82,10.63,14.74,14.74,0,0,1-8.75,6.26V37a16.63,16.63,0,0,1,10,6.8,22.41,22.41,0,0,1,3.36,12.43c0,14.08-8.13,21.11-24.47,21.11H234.94V1.09ZM243,33.85h4.61c6,0,10.4-1.09,13.06-3.12s4-5.71,4-10.79q0-6.45-3-9.15c-2-1.8-5.55-2.66-10.47-2.66h-8.21V33.85Zm0,36.52h8.21c5.08,0,8.83-1.18,11.41-3.44s3.83-5.87,3.83-10.72c0-5.16-1.25-9-3.67-11.57s-6.26-3.83-11.57-3.83H243ZM322.67,1.09v7H296.08V34h19.63v7H296.08V70.29h27.84v7H287.8V1.09Zm47.92,0v7H355V77.32h-8.21V8.13H331.11v-7ZM9,32.37V78.42h7.9V32.37A13.21,13.21,0,0,1,13,33,13.74,13.74,0,0,1,9,32.37Zm4.15-26a6.88,6.88,0,1,1-6.89,6.8A6.89,6.89,0,0,1,13.14,6.41Zm0-6.25A13.1,13.1,0,1,0,26.27,13.21,13.09,13.09,0,0,0,13.14.16Z"/></g></g></svg>