<svg xmlns="http://www.w3.org/2000/svg" viewBox="0 0 285.54 81.61"><defs><style>.cls-1{fill:#f16522;}</style></defs><title>jeton</title><g id="Layer_2" data-name="Layer 2"><g id="Layer_1-2" data-name="Layer 1"><path class="cls-1" d="M142.69,3.09H125.27V18.8h-7.34V33.7h7.34V62.81c0,14.21,7.22,18.45,17.88,18.45a25.68,25.68,0,0,0,13.75-3.55v-14a17.72,17.72,0,0,1-8.6,2.18c-3.9,0-5.62-1.95-5.62-6V33.7h14.44V18.8H142.69Z"/><path class="cls-1" d="M193.05,17.65c-19.14,0-33.35,14.33-33.35,32v.23c0,17.65,14.1,31.75,33.12,31.75s33.35-14.33,33.35-32V49.4C226.17,31.75,212.08,17.65,193.05,17.65ZM209,49.86c0,9.05-6,16.73-15.93,16.73-9.63,0-16.16-7.91-16.16-17V49.4c0-9.05,6-16.73,15.93-16.73,9.63,0,16.16,7.91,16.16,17Z"/><path class="cls-1" d="M264.68,17.65c-8.83,0-14,1.89-18,7V18.8H229.26V80.23h17.42V46c0-8.25,4.24-12.49,10.89-12.49S268.12,37.71,268.12,46V80.23h17.42V40.46C285.54,26.36,277.86,17.65,264.68,17.65Z"/><path class="cls-1" d="M30.94,51.69a20.26,20.26,0,0,1-1,6.67,5.38,5.38,0,0,1-5.58,3.14,5.77,5.77,0,0,1-6-6.28H0s0,.08,0,.11,0,.09,0,.13a24.48,24.48,0,0,0,49,0c0-.08,0-.17,0-.25h0q.08-1.32.08-2.71V0H30.94Z"/><path class="cls-1" d="M85.06,17.65c-17.88,0-30.37,14.44-30.37,32v.23c0,18.8,13.64,31.75,32.09,31.75,11.12,0,19.37-4.36,25.1-11.46L98.68,64A18.9,18.9,0,0,1,87,67.62c-7.79,0-13.3-4.13-15-12h42.75c.11-1.6.23-3.21.23-4.58C115,33.58,105.58,17.65,85.06,17.65Zm-13.3,27c1.38-7.91,6.07-13.07,13.3-13.07S97,36.91,98,44.7Z"/></g></g></svg>