<svg xmlns="http://www.w3.org/2000/svg" viewBox="0 0 293.96 61.44"><defs><style>.cls-1{fill:#c1c1c1;}</style></defs><title>bitcoin-grey</title><g id="Layer_2" data-name="Layer 2"><g id="Layer_1-2" data-name="Layer 1"><g id="bitcoin"><path id="n" class="cls-1" d="M262.85,21.36q1.32-.39,2.91-.9c1.06-.33,2.25-.64,3.58-.92a44.6,44.6,0,0,1,4.42-.71,51.16,51.16,0,0,1,5.55-.27q9.1,0,12.55,5.29t1.21,14.44l-5.29,22.06H276.21l5.13-21.59c.31-1.35.55-2.65.74-3.93a9.24,9.24,0,0,0-.05-3.34,3.94,3.94,0,0,0-1.43-2.33,5.57,5.57,0,0,0-3.46-.89,23.43,23.43,0,0,0-4.58.47L265,60.35H253.45Z"/><path id="i" class="cls-1" d="M244.79,60.35H233.28L243,19.5h11.58Zm5.58-45.83A7.15,7.15,0,0,1,246,13.09a5.1,5.1,0,0,1-1.95-4.39,7.27,7.27,0,0,1,.66-3.07,8.35,8.35,0,0,1,1.75-2.49A8.63,8.63,0,0,1,249,1.47a7.68,7.68,0,0,1,3.06-.62,7.11,7.11,0,0,1,4.35,1.44,5.1,5.1,0,0,1,1.95,4.39,7.28,7.28,0,0,1-.67,3.07A8,8,0,0,1,256,12.24a8.62,8.62,0,0,1-2.52,1.66A7.57,7.57,0,0,1,250.37,14.52Z"/><path id="o" class="cls-1" d="M209.27,61.44a18.76,18.76,0,0,1-7.15-1.25,13.41,13.41,0,0,1-5-3.49,15.24,15.24,0,0,1-3-5.32,21.75,21.75,0,0,1-1-6.79,30,30,0,0,1,1.51-9.33,26.31,26.31,0,0,1,4.47-8.38,23.87,23.87,0,0,1,7.22-6.11,19.91,19.91,0,0,1,9.78-2.37,18.89,18.89,0,0,1,7.12,1.25,13.23,13.23,0,0,1,5,3.5,15,15,0,0,1,3,5.32,21.7,21.7,0,0,1,1,6.79,31.21,31.21,0,0,1-1.47,9.33A27.11,27.11,0,0,1,226.44,53a22.88,22.88,0,0,1-7.19,6.09A20.37,20.37,0,0,1,209.27,61.44ZM215,28.19a7.26,7.26,0,0,0-4.5,1.48,12.81,12.81,0,0,0-3.26,3.73,18.45,18.45,0,0,0-2,4.93,21.3,21.3,0,0,0-.66,5.09,12.39,12.39,0,0,0,1.24,6.06q1.25,2.18,4.51,2.17a7.18,7.18,0,0,0,4.5-1.48,12.64,12.64,0,0,0,3.26-3.72,18.4,18.4,0,0,0,2-4.94,21.23,21.23,0,0,0,.66-5.08,12.27,12.27,0,0,0-1.25-6.06Q218.27,28.2,215,28.19Z"/><path id="c" class="cls-1" d="M158.2,44a28.6,28.6,0,0,1,1.71-9.94,24.38,24.38,0,0,1,4.9-8.16,22.86,22.86,0,0,1,7.73-5.52,24.73,24.73,0,0,1,10.13-2,26.32,26.32,0,0,1,6.25.67,25,25,0,0,1,5,1.74l-4,9c-1-.42-2.11-.79-3.22-1.13a14.14,14.14,0,0,0-4.08-.51,11.42,11.42,0,0,0-9.13,4q-3.37,4-3.38,10.65a11,11,0,0,0,1.71,6.41q1.71,2.45,6.29,2.44a19.93,19.93,0,0,0,4.35-.46A20.5,20.5,0,0,0,186.24,50l.86,9.25a41,41,0,0,1-4.82,1.51,26.23,26.23,0,0,1-6.29.66,21.2,21.2,0,0,1-8.16-1.4,15.47,15.47,0,0,1-5.51-3.77,14.29,14.29,0,0,1-3.15-5.55A23,23,0,0,1,158.2,44Z"/><path id="t" class="cls-1" d="M136.73,9.32l12-1.86-3,12h12.9L156.38,29H143.56l-3.41,14.29a16.58,16.58,0,0,0-.55,3.34,6.19,6.19,0,0,0,.39,2.68A3.42,3.42,0,0,0,141.66,51a7.75,7.75,0,0,0,3.46.62,18.65,18.65,0,0,0,3.61-.35,25.52,25.52,0,0,0,3.53-1l.86,8.86a41.27,41.27,0,0,1-5.05,1.47,29,29,0,0,1-6.45.62q-5.35,0-8.31-1.59a9.24,9.24,0,0,1-4.2-4.35A13.91,13.91,0,0,1,128,49a41.32,41.32,0,0,1,1.09-7.53Z"/><path id="i-2" data-name="i" class="cls-1" d="M116.87,60.35h-11.5l9.71-40.85h11.57Zm5.59-45.83a7.18,7.18,0,0,1-4.35-1.43,5.1,5.1,0,0,1-2-4.39,7.42,7.42,0,0,1,.66-3.07,8.53,8.53,0,0,1,1.75-2.49,8.77,8.77,0,0,1,2.53-1.67,7.73,7.73,0,0,1,3.07-.62,7.15,7.15,0,0,1,4.35,1.44,5.12,5.12,0,0,1,1.94,4.39,7.27,7.27,0,0,1-.66,3.07,8.17,8.17,0,0,1-1.75,2.49,8.49,8.49,0,0,1-2.52,1.66A7.56,7.56,0,0,1,122.46,14.52Z"/><path id="b" class="cls-1" d="M89.93,18.64A14.61,14.61,0,0,1,96.38,20a12.91,12.91,0,0,1,4.51,3.57,15.07,15.07,0,0,1,2.64,5.28,24,24,0,0,1,.85,6.53A26.56,26.56,0,0,1,97,53.79a25.32,25.32,0,0,1-8.07,5.59,24.79,24.79,0,0,1-10.1,2.06c-.46,0-1.29,0-2.45,0a33.22,33.22,0,0,1-4-.35,48.22,48.22,0,0,1-4.78-.93,23.8,23.8,0,0,1-4.78-1.71L76.27,1.94,88.3.08l-4.81,20A18,18,0,0,1,86.6,19,13.58,13.58,0,0,1,89.93,18.64ZM79.84,51.89A10.58,10.58,0,0,0,85,50.57,13.43,13.43,0,0,0,89.12,47a17.67,17.67,0,0,0,2.76-5,17.1,17.1,0,0,0,1-5.83,11.44,11.44,0,0,0-1.24-5.82q-1.25-2.1-4.59-2.1a14.32,14.32,0,0,0-2.83.39,7.07,7.07,0,0,0-3.15,1.63L76,51.57l.81.16a5.57,5.57,0,0,0,.73.11,8.33,8.33,0,0,0,.94,0Z"/></g><path class="cls-1" d="M29,31.52l-1.75,7.4c2.26.56,9.32,2.73,10.3-1.44C38.58,33.09,31.3,32.07,29,31.52Z"/><path class="cls-1" d="M38,.91A30.59,30.59,0,1,0,60.33,38,30.62,30.62,0,0,0,38,.91Zm7.15,25.71c-.43,3-2,4.43-4.3,4.94,3.06,1.57,4.6,4,3.19,8.13-1.74,5.24-6,5.7-11.79,4.68L30.92,50l-3.36-.81,1.32-5.49c-.85-.21-1.75-.43-2.68-.68L24.88,48.5l-3.37-.81,1.32-5.57c-.76-.22-1.57-.39-2.38-.6l-4.38-1,1.61-3.87s2.52.63,2.47.59a1.25,1.25,0,0,0,1.54-.81l2-8.81c.13,0,.21,0,.34.09a1.51,1.51,0,0,0-.34-.13l1.49-6.3a1.79,1.79,0,0,0-1.58-1.92c.09,0-2.42-.59-2.42-.59l.85-3.58,4.64,1.11c.72.17,1.44.3,2.17.47l1.32-5.54,3.4.81-1.27,5.41c.89.17,1.78.38,2.68.59l1.27-5.4,3.37.81L38.33,19C42.58,20.41,45.69,22.54,45.14,26.62Z"/><path class="cls-1" d="M31.43,21.39l-1.62,6.72c1.92.47,7.79,2.3,8.69-1.49C39.43,22.66,33.31,21.86,31.43,21.39Z"/></g></g></svg>