<svg xmlns="http://www.w3.org/2000/svg" viewBox="0 0 381.47 83.35"><defs><style>.cls-1{fill:#6592d3;}.cls-2{fill:#2264c0;}.cls-3{fill:#fff;}.cls-4{fill:#6d99d6;}.cls-5{fill:#fffffc;}</style></defs><title>ethereum3</title><g id="Layer_2" data-name="Layer 2"><g id="Layer_1-2" data-name="Layer 1"><polygon class="cls-1" points="25.62 62.48 25.62 83.35 51.23 47.37 25.62 62.48"/><polygon class="cls-2" points="25.62 30.87 25.62 57.65 51.23 42.5 25.62 30.87"/><polygon class="cls-1" points="25.62 0 25.62 30.87 51.23 42.5 25.62 0"/><polygon class="cls-3" points="25.62 62.48 25.62 83.35 0 47.37 25.62 62.48"/><polygon class="cls-4" points="25.62 30.87 25.62 57.65 0 42.5 25.62 30.87"/><polygon class="cls-3" points="25.62 0 25.62 30.87 0 42.5 25.62 0"/><path class="cls-5" d="M77.83,54.33c.31,5.08,4.47,11.42,11.5,11.43a11.23,11.23,0,0,0,9.76-5.08,1.32,1.32,0,0,1,1.69-.27h0a1.23,1.23,0,0,1,.57.77,1.21,1.21,0,0,1-.18.94,13.56,13.56,0,0,1-12,6c-4.54,0-7.86-2.38-10.27-5a14.91,14.91,0,0,1-3.46-10,14.07,14.07,0,0,1,3.85-10.3c2.56-2.62,5.64-4.53,9.88-4.53a12.73,12.73,0,0,1,9.79,4.22,15.13,15.13,0,0,1,4.13,10.54,1.25,1.25,0,0,1-.34.88,1.19,1.19,0,0,1-.87.37ZM89.15,40.65a11.17,11.17,0,0,0-7.49,3.18c-2,1.77-3.39,5.13-3.72,8.23h22.4a13.11,13.11,0,0,0-3.47-7.93A9.25,9.25,0,0,0,89.15,40.65Z"/><path class="cls-5" d="M188.75,54.33c.31,5.08,4.47,11.42,11.51,11.43A11.21,11.21,0,0,0,210,60.68a1.32,1.32,0,0,1,1.69-.27h0a1.23,1.23,0,0,1,.57.77,1.25,1.25,0,0,1-.17.94,13.58,13.58,0,0,1-12,6c-4.54,0-7.86-2.38-10.27-5a14.91,14.91,0,0,1-3.46-10,14.07,14.07,0,0,1,3.85-10.3c2.56-2.62,5.64-4.53,9.88-4.53a12.73,12.73,0,0,1,9.79,4.22A15.13,15.13,0,0,1,214,53.08a1.21,1.21,0,0,1-1.21,1.25Zm11.32-13.68a11.19,11.19,0,0,0-7.49,3.18c-2,1.77-3.39,5.13-3.72,8.23h22.41a13.17,13.17,0,0,0-3.48-7.93A9.25,9.25,0,0,0,200.07,40.65Z"/><path class="cls-5" d="M257.39,54.33c.32,5.08,4.48,11.42,11.51,11.43a11.23,11.23,0,0,0,9.76-5.08,1.32,1.32,0,0,1,1.69-.27h0a1.19,1.19,0,0,1,.56.77,1.17,1.17,0,0,1-.17.94,13.56,13.56,0,0,1-12,6c-4.54,0-7.86-2.38-10.28-5a15,15,0,0,1-3.46-10,14.11,14.11,0,0,1,3.85-10.3c2.57-2.62,5.64-4.53,9.89-4.53a12.72,12.72,0,0,1,9.78,4.22,15.08,15.08,0,0,1,4.13,10.54,1.21,1.21,0,0,1-1.21,1.25Zm11.33-13.68a11.17,11.17,0,0,0-7.49,3.18c-2,1.77-3.39,5.13-3.73,8.23h22.41a13.06,13.06,0,0,0-3.48-7.93A9.23,9.23,0,0,0,268.72,40.65Z"/><path class="cls-5" d="M125.54,41.16V66.65a1.12,1.12,0,0,1-1.12,1.12h0a1.13,1.13,0,0,1-1.12-1.12V41.16h-6.4a1.09,1.09,0,0,1,0-2.17h6.4V29.55a1.14,1.14,0,0,1,1.13-1.13h0a1.08,1.08,0,0,1,1.08,1.08V39h6.61a1.09,1.09,0,0,1,0,2.17Z"/><path class="cls-5" d="M161.63,38.67c-4.45-.61-8.66.87-11.57,5.66V16.05A1.08,1.08,0,0,0,149,15h0a1.14,1.14,0,0,0-1.14,1.13V66.65a1.13,1.13,0,0,0,1.12,1.12h0a1.12,1.12,0,0,0,1.12-1.12V49.56c0-4.79,6.07-9.94,11.57-8.71,3.54.8,7.08,4.31,7.07,9.94V66.65a1.12,1.12,0,0,0,1.12,1.12h0a1.12,1.12,0,0,0,1.12-1.12V50.84C171.26,46,167.94,39.54,161.63,38.67Z"/><path class="cls-5" d="M307.26,68.25c4.45.62,8.66-.87,11.57-5.66v4.06a1.09,1.09,0,0,0,1.08,1.09h0a1.14,1.14,0,0,0,1.13-1.13V40.27A1.12,1.12,0,0,0,320,39.16h0a1.12,1.12,0,0,0-1.12,1.11l.13,14c0,7.24-5.64,13-11.56,11.78-3.55-.75-7.22-4.25-7.21-9.88V40.27a1.12,1.12,0,0,0-1.12-1.11h0A1.12,1.12,0,0,0,298,40.27V56.09C298,62,301,67.38,307.26,68.25Z"/><path class="cls-5" d="M372.14,38.67A11.15,11.15,0,0,0,360,46.13a11.17,11.17,0,0,0-8.72-7.46,11,11,0,0,0-11.61,5.54V40.14a1.08,1.08,0,0,0-1.08-1.08h0a1.14,1.14,0,0,0-1.13,1.13V66.52a1.12,1.12,0,0,0,1.12,1.12h0a1.12,1.12,0,0,0,1.12-1.12l-.14-13.95c0-7.24,5.69-12.92,11.61-11.66,3.42.73,6.94,4,7.19,9.24V66.52a.5.5,0,0,0,0,.12h0a1.29,1.29,0,0,0,1.29,1.12h0a1.12,1.12,0,0,0,1.11-1.12V62.83c0-2.51,0-5.82,0-8.36,0-7.83,3.53-14.76,11.26-13.56,3.59.55,7.22,4.25,7.21,9.88V66.65a1.12,1.12,0,0,0,1.12,1.12h0a1.13,1.13,0,0,0,1.12-1.12V50.84C381.77,46,378.44,39.54,372.14,38.67Z"/><path class="cls-5" d="M243.34,40.24a1.12,1.12,0,0,0-.41-.87,1.33,1.33,0,0,0-.94-.23c-4.61.12-9,3.88-10.09,6.75V40.05A1.09,1.09,0,0,0,230.81,39h0a1.14,1.14,0,0,0-1.13,1.13V66.43a1.12,1.12,0,0,0,1.12,1.12h0a1.12,1.12,0,0,0,1.12-1.12L232,53.25c0-6.32,4.87-11.68,10.51-12a1,1,0,0,0,.86-1Z"/></g></g></svg>