<svg xmlns="http://www.w3.org/2000/svg" viewBox="0 0 441 109"><defs><style>.cls-1{fill:#fff;}</style></defs><title>microgaming_White</title><g id="Layer_2" data-name="Layer 2"><g id="Layer_1-2" data-name="Layer 1"><path class="cls-1" d="M109,54.5a54.5,54.5,0,1,0-106.91,15s.16.75.39.65a6.93,6.93,0,0,0,1.11-1.38c.91-1.19,1.8-2.39,2.63-3.64C16.89,49.17,27.2,33,35.61,15.76c1.83-3.75,4-5.15,6.34-4.55s4.07,3.24,3.91,6.32c-.34,6.31-.74,12.62-1.29,18.91-1.05,12,.73,41.22,5.73,42.65,1.64.47,4.11-3,5.63-5,7.18-9.71,11.94-20.75,17-31.6,1-2.11,1.87-4.27,2.91-6.36s2.68-3.49,5.21-2.91,3.57,2.27,3.87,4.65c.35,2.8.58,5.64,1.12,8.4,1.67,8.51,3.48,17,8.78,24.21.38.52.83,1.42.48,2-2.13,3.77-13.8-15.06-16-21.62-1.06,1.93-8.83,18-12.5,23.92a52.19,52.19,0,0,1-9,11.26c-6.06,5.5-13.74,3.84-17.5-3.42a38,38,0,0,1-3.22-8.87c-2.07-9-2.42-30.31-2.57-32.46C26.43,55,18.73,67.83,11.05,80.68,9.54,83.21,9,84.11,9.64,85.44q1.13,1.63,2.36,3.17a67.3,67.3,0,0,0,7.4,7.58A54.27,54.27,0,0,0,54.5,109c1.8,0,3.58-.09,5.34-.26q2.89-.31,5.87-.9A54.52,54.52,0,0,0,109,54.5Z"/><path class="cls-1" d="M123.47,54.5q0-9.1,0-18.19c0-1.07,0-1.08,1.1-1.08h6.2c.94,0,.93,0,1.23.94q1.94,6.09,3.89,12.17c1.09,3.41,2.15,6.83,3.23,10.25.66,2.09,1.34,4.19,2,6.28a1.25,1.25,0,0,0,.12.3,1.36,1.36,0,0,0,.22.22c.06-.08.16-.14.19-.23q.42-1.28.82-2.56c.71-2.25,1.41-4.51,2.12-6.76s1.45-4.55,2.17-6.82q1.22-3.84,2.43-7.69l1.64-5.2c0-.16.12-.3.17-.46a.59.59,0,0,1,.68-.45c.79,0,1.58,0,2.37,0h4.24c.19,0,.38,0,.57,0a.43.43,0,0,1,.45.47c0,.19,0,.38,0,.57q0,18.28,0,36.55c0,.94,0,.94-.92.95s-2.07,0-3.1,0c-.37,0-.57-.12-.54-.51,0-.22,0-.43,0-.65q0-16.24,0-32.47c0-.22,0-.44,0-.65s0-.46-.28-.52a.56.56,0,0,0-.69.3,3.24,3.24,0,0,0-.16.46L151,48.11c-.83,2.61-1.65,5.23-2.48,7.84-1.1,3.44-2.21,6.87-3.3,10.31-.7,2.2-1.39,4.4-2.08,6.6,0,.13-.08.26-.12.39a.67.67,0,0,1-.78.53c-.57,0-1.14,0-1.71,0a.53.53,0,0,1-.58-.44c-.54-1.74-1.1-3.47-1.65-5.2l-2.14-6.75q-1.64-5.16-3.29-10.32-1.39-4.34-2.79-8.68c-.31-1-.6-1.92-.91-2.87,0-.13-.05-.3-.14-.37a.71.71,0,0,0-.5-.16.59.59,0,0,0-.32.39,3.17,3.17,0,0,0,0,.73q0,16.28,0,32.55c0,1.13.13,1.11-1.1,1.11h-2.77c-.8,0-.8,0-.8-.83q0-8.2,0-16.4Q123.47,55.52,123.47,54.5Z"/><path class="cls-1" d="M324.31,58.89q0-6.77,0-13.54c0-.14,0-.27,0-.41,0-.91,0-.91.88-.92s1.58,0,2.37,0c.64,0,.66,0,.76.69.07.43.13.86.21,1.29s.12.56.6.3L331.49,45a13.62,13.62,0,0,1,7.82-1.42,11.28,11.28,0,0,1,3.71.85,6.16,6.16,0,0,1,2.4,1.9c.35.45.34.43.84.17,1.35-.7,2.68-1.42,4.05-2.07a10.05,10.05,0,0,1,4-.9,18.93,18.93,0,0,1,4.78.34,6.67,6.67,0,0,1,5.34,4.6,13.31,13.31,0,0,1,.62,3.52c.06,1.33.08,2.66.08,4q0,8.4,0,16.8c0,.93,0,.94-.93.94H361c-.65,0-.68,0-.68-.7,0-1,0-1.9,0-2.86,0-5.28,0-10.55,0-15.83a14.19,14.19,0,0,0-.55-4.27,4.22,4.22,0,0,0-3.2-2.94,16.59,16.59,0,0,0-2.66-.35,7.73,7.73,0,0,0-3.95.8c-1,.47-2,1-3,1.53a.7.7,0,0,0-.39.86,34.83,34.83,0,0,1,.49,4.44c.06,6.17,0,12.34,0,18.52,0,.14,0,.27,0,.41s-.14.39-.4.39h-3.51a.32.32,0,0,1-.35-.35q0-.33,0-.65c0-6,0-12.07,0-18.11a17.12,17.12,0,0,0-.5-4.28,4.22,4.22,0,0,0-3.25-3.2,16.06,16.06,0,0,0-2.58-.35,8,8,0,0,0-4.11.81c-.93.43-1.83,1-2.75,1.42a.74.74,0,0,0-.47.77c0,.19,0,.38,0,.57q0,11.18,0,22.35c0,1.09.08,1-1,1H325c-.67,0-.68,0-.69-.68q0-4.28,0-8.57Q324.31,61.71,324.31,58.89Z"/><path class="cls-1" d="M441,59.18c0,4.3,0,8.59,0,12.89a23.41,23.41,0,0,1-.8,6.21,7.4,7.4,0,0,1-5.78,5.57,21.93,21.93,0,0,1-4.93.54,47.59,47.59,0,0,1-7.72-.49c-.29,0-.6-.06-.89-.07s-.51-.18-.46-.52c.1-.73.2-1.45.31-2.18a.41.41,0,0,1,.51-.38c.6.06,1.19.14,1.79.16a66.54,66.54,0,0,0,7.17,0,10.8,10.8,0,0,0,2.77-.61,4.17,4.17,0,0,0,2.62-3.11,22.73,22.73,0,0,0,.55-5.58c0-.38-.1-.43-.44-.28-1,.46-2,1-3,1.39a12.39,12.39,0,0,1-4.81,1.08,19,19,0,0,1-5.33-.52A7.48,7.48,0,0,1,417,67.59a23.59,23.59,0,0,1-.66-5.33,79.08,79.08,0,0,1,.18-9.46,13.47,13.47,0,0,1,1.17-4.64A7.46,7.46,0,0,1,423.11,44a15.61,15.61,0,0,1,12,1.87c.37.23.75.45,1.13.64s.42.14.49-.24c.1-.56.21-1.12.29-1.69a.5.5,0,0,1,.53-.5c1,0,2,0,3,0a.38.38,0,0,1,.42.4c0,.22,0,.44,0,.65q0,7,0,14Zm-4.86-.42c0-2.86,0-5.71,0-8.57a1,1,0,0,0-.59-1c-.82-.41-1.63-.85-2.46-1.26a9.35,9.35,0,0,0-4.8-1.06,14.63,14.63,0,0,0-2.66.35,4.91,4.91,0,0,0-3.48,2.93,10,10,0,0,0-.76,2.9,54.92,54.92,0,0,0,0,11.23,12.74,12.74,0,0,0,.58,2.7A4.56,4.56,0,0,0,425,70a17.67,17.67,0,0,0,2.38.5,9.07,9.07,0,0,0,4-.36,24.51,24.51,0,0,0,4-1.72,1.14,1.14,0,0,0,.73-1.2C436.11,64.41,436.12,61.58,436.12,58.75Z"/><path class="cls-1" d="M285.47,59.2c0,4.27,0,8.54,0,12.81a23.37,23.37,0,0,1-.81,6.29,7.39,7.39,0,0,1-5.8,5.55,22.29,22.29,0,0,1-4.93.54,47.72,47.72,0,0,1-7.72-.5c-.29,0-.6-.05-.89-.07a.42.42,0,0,1-.44-.54c.09-.67.19-1.35.28-2,.05-.39.24-.54.66-.52,1.93.11,3.85.23,5.78.25a16.92,16.92,0,0,0,5.33-.49A4.43,4.43,0,0,0,280,77.24a22.15,22.15,0,0,0,.56-5.66c0-.36-.1-.41-.46-.24-1,.46-2,1-3,1.39a12.38,12.38,0,0,1-4.65,1.07,19.06,19.06,0,0,1-5.5-.53,7.47,7.47,0,0,1-5.44-5.62,22.74,22.74,0,0,1-.67-5.49c-.05-2.12-.07-4.24,0-6.36a24.9,24.9,0,0,1,.66-5.74,7.74,7.74,0,0,1,4.06-5.32,10.65,10.65,0,0,1,3.35-1,18.17,18.17,0,0,1,4.39-.09,16.41,16.41,0,0,1,6.19,2.15c.4.23.79.48,1.2.7s.46.18.54-.24.19-1,.27-1.52.14-.63.65-.64c1,0,1.9,0,2.86,0,.34,0,.49.18.48.51s0,.44,0,.65q0,7,0,14Zm-4.86-.49c0-2.83,0-5.66,0-8.48a1.05,1.05,0,0,0-.63-1.1c-.75-.38-1.49-.78-2.24-1.16a10.5,10.5,0,0,0-7.53-.82,5,5,0,0,0-3.32,2.42,6.53,6.53,0,0,0-.82,2.28c-.2,1.53-.4,3.07-.47,4.62a49.16,49.16,0,0,0,.22,7.82,13.39,13.39,0,0,0,.58,2.7,4.5,4.5,0,0,0,2.68,2.89,12.57,12.57,0,0,0,2,.55,9,9,0,0,0,4.9-.34c1.3-.47,2.53-1.1,3.81-1.63a1.14,1.14,0,0,0,.77-1.26C280.59,64.37,280.61,61.54,280.61,58.71Z"/><path class="cls-1" d="M317.15,63.22q0,4.77,0,9.54c0,.22,0,.44,0,.65a.32.32,0,0,1-.36.35h-3.1c-.35,0-.44-.24-.48-.54-.07-.51-.14-1-.24-1.53s-.15-.61-.66-.3a23.12,23.12,0,0,1-4.63,2.17,14.32,14.32,0,0,1-3.66.75,31.26,31.26,0,0,1-6.59-.29,8.23,8.23,0,0,1-2-.61,4.81,4.81,0,0,1-2.76-3.24,14.54,14.54,0,0,1-.26-6.55,6.62,6.62,0,0,1,4.53-5.31,14.26,14.26,0,0,1,4.12-.9l10.42-.63.41,0a.45.45,0,0,0,.49-.51c0-.3,0-.6,0-.9-.1-1.35-.12-2.72-.34-4.06a4.62,4.62,0,0,0-4-4.21,15.09,15.09,0,0,0-6.06.08,4.49,4.49,0,0,0-3.61,3.74c-.12.64-.19,1.29-.26,1.93,0,.33-.15.49-.5.49h-3.43c-.33,0-.52-.15-.51-.49.08-3.14.9-5.92,3.8-7.64a10.82,10.82,0,0,1,3.51-1.25,26.31,26.31,0,0,1,7.8-.18,12.37,12.37,0,0,1,3.84,1,7,7,0,0,1,4,5,20.44,20.44,0,0,1,.55,4.85q0,4.28,0,8.56Zm-4.88.53c0-1.3,0-2.61,0-3.91,0-.61,0-.63-.66-.63l-.41,0c-2.76.17-5.53.32-8.29.52a9.6,9.6,0,0,0-3.46.86,3.76,3.76,0,0,0-2,2,9.13,9.13,0,0,0-.14,6.06,2.56,2.56,0,0,0,1.42,1.7,7.91,7.91,0,0,0,1.54.5,17.32,17.32,0,0,0,4.46.23,9.91,9.91,0,0,0,2.08-.36,20.64,20.64,0,0,0,4.92-2.29,1,1,0,0,0,.55-1C312.26,66.25,312.28,65,312.28,63.75Z"/><path class="cls-1" d="M255.1,59a47.15,47.15,0,0,1-.45,6.73,10.18,10.18,0,0,1-2.59,5.51,9.78,9.78,0,0,1-4.84,2.53,22.87,22.87,0,0,1-6.81.47,14.51,14.51,0,0,1-6.19-1.54,8.18,8.18,0,0,1-3.78-4.32A18.46,18.46,0,0,1,229.33,62q-.09-3.1,0-6.2a18.52,18.52,0,0,1,1.12-6.31,8.41,8.41,0,0,1,5.24-5,21,21,0,0,1,8-.91,17.24,17.24,0,0,1,4.26.65,8.67,8.67,0,0,1,6.2,5.82A17.57,17.57,0,0,1,255,54.8C255,56.18,255.05,57.57,255.1,59Zm-4.87,0h-.06c0-.84,0-1.69,0-2.53a22.58,22.58,0,0,0-.6-5.25,5.39,5.39,0,0,0-4.44-4.13,14.82,14.82,0,0,0-6,0A5.3,5.3,0,0,0,235,50.57a13.2,13.2,0,0,0-.75,4.32c-.07,2.23-.1,4.46-.07,6.69a19.71,19.71,0,0,0,.57,5,5.31,5.31,0,0,0,4.08,4.1,14.21,14.21,0,0,0,7.09-.08,4.83,4.83,0,0,0,2.94-2.18A9.75,9.75,0,0,0,250,63.9C250.16,62.28,250.17,60.64,250.22,59Z"/><path class="cls-1" d="M385.08,58.95q0-6.81,0-13.63c0-.22,0-.44,0-.65,0-.58.08-.63.69-.64.87,0,1.74,0,2.61,0,.59,0,.63.06.71.65.06.43.12.86.2,1.29.12.6.13.59.67.33,1-.51,2.09-1,3.15-1.53a13.28,13.28,0,0,1,5.28-1.21,21.55,21.55,0,0,1,4.87.34,8.91,8.91,0,0,1,3.44,1.42,6.93,6.93,0,0,1,2.63,4.27,19.57,19.57,0,0,1,.45,4.45c0,6.31,0,12.62,0,18.93,0,.78,0,.79-.75.8-1.17,0-2.34,0-3.51,0-.58,0-.6,0-.63-.59,0-.19,0-.38,0-.57,0-6.07,0-12.13,0-18.19a16.11,16.11,0,0,0-.36-3.56,4.62,4.62,0,0,0-3.71-3.68,17.29,17.29,0,0,0-2.5-.34,11.31,11.31,0,0,0-5.83,1.24c-.69.32-1.35.69-2,1a.77.77,0,0,0-.5.83c0,.19,0,.38,0,.57q0,11.14,0,22.27c0,1.07.09,1-1,1h-3c-.83,0-.84,0-.84-.87q0-3.14,0-6.28Q385.08,62.78,385.08,58.95Z"/><path class="cls-1" d="M183.81,59c.12,2,.19,4,.36,6a7.65,7.65,0,0,0,1.12,3.46,4.8,4.8,0,0,0,2.89,2.12,13.31,13.31,0,0,0,7,0,4.64,4.64,0,0,0,3.56-4c.12-.67.17-1.35.23-2,0-.36.15-.54.54-.54,1.17,0,2.34,0,3.51,0,.32,0,.53.1.51.47a11.37,11.37,0,0,1-1.33,5.56,7.8,7.8,0,0,1-4.61,3.41,19.2,19.2,0,0,1-6,.76,19.7,19.7,0,0,1-5.71-.77,8.42,8.42,0,0,1-5.46-4.66,13.64,13.64,0,0,1-1-3.76,54.77,54.77,0,0,1-.25-9.61,18.14,18.14,0,0,1,1-5.83,8.35,8.35,0,0,1,5.15-5.1,18.19,18.19,0,0,1,6.33-1,19.86,19.86,0,0,1,5.57.64,7.91,7.91,0,0,1,6.16,7.07c.08.65.12,1.3.18,1.95,0,.38-.14.55-.51.55-1.17,0-2.34,0-3.51,0-.46,0-.47-.08-.54-.62a21.32,21.32,0,0,0-.43-2.64,4.61,4.61,0,0,0-3.86-3.41,14.2,14.2,0,0,0-5.75,0,5.4,5.4,0,0,0-4.47,4.3,20.39,20.39,0,0,0-.54,4.85c0,.92,0,1.85,0,2.77Z"/><path class="cls-1" d="M209.89,58.93q0-6.85,0-13.7c0-.19,0-.38,0-.57,0-.58,0-.62.59-.63q1.35,0,2.69,0c.59,0,.6,0,.7.65s.2,1.29.3,1.93c.07.41.17.47.54.26,1-.55,1.92-1.12,2.88-1.68a11.88,11.88,0,0,1,6.88-1.56c.43,0,.87,0,1.3.05s.51.09.48.54c-.06.79-.12,1.57-.2,2.36-.05.49-.12.55-.61.56s-1.09,0-1.63,0a11.58,11.58,0,0,0-6,1.53c-.87.5-1.73,1-2.6,1.51a.78.78,0,0,0-.45.79c0,.19,0,.38,0,.57q0,10.6,0,21.2c0,.16,0,.33,0,.49,0,.51,0,.54-.57.55q-1.83,0-3.67,0c-.62,0-.63,0-.63-.65,0-2.17,0-4.35,0-6.52Q209.89,62.76,209.89,58.93Z"/><path class="cls-1" d="M172.26,59.05q0,6.89,0,13.78c0,.94,0,.94-.93.94-1.11,0-2.23,0-3.34,0-.55,0-.59-.05-.61-.62,0-.16,0-.33,0-.49q0-13.7,0-27.4c0-1.18,0-1.18,1.15-1.19h2.85c.85,0,.88,0,.88.87q0,4.32,0,8.64Q172.26,56.32,172.26,59.05Z"/><path class="cls-1" d="M377.71,59q0,6.93,0,13.86c0,.94,0,.95-.92.95-1.11,0-2.23,0-3.34,0-.57,0-.59-.05-.62-.61,0-.14,0-.27,0-.41q0-13.78,0-27.56c0-1.11,0-1.11,1.14-1.11s2.07,0,3.1,0c.54,0,.61.09.64.61,0,.19,0,.38,0,.57Q377.71,52.11,377.71,59Z"/><path class="cls-1" d="M375.21,40.25c-.62,0-1.25,0-1.87,0-.37,0-.55-.12-.54-.51,0-1.33,0-2.66,0-4,0-.38.18-.53.55-.53,1.3,0,2.6,0,3.9,0,.5,0,.6.13.61.65q0,1.87,0,3.74c0,.55-.06.6-.61.62S375.89,40.25,375.21,40.25Z"/><path class="cls-1" d="M169.81,40.25c-.62,0-1.25,0-1.87,0s-.59,0-.59-.53q0-2,0-3.91c0-.5.07-.57.57-.58q1.91,0,3.82,0c.55,0,.66.12.66.68q0,1.87,0,3.74c0,.5-.07.57-.56.59-.68,0-1.36,0-2,0Z"/></g></g></svg>