<svg xmlns="http://www.w3.org/2000/svg" viewBox="0 0 323.33 72.06"><defs><style>.cls-1{fill:#fff;}</style></defs><title>MrSlotty</title><g id="Layer_2" data-name="Layer 2"><g id="Layer_1-2" data-name="Layer 1"><path class="cls-1" d="M53.76,1.37v55.7a.9.9,0,0,1-.91.9H39.16a.9.9,0,0,1-.9-.9V29.56L27.66,48.67a.9.9,0,0,1-1.58,0L15.5,29.57V71.16a.91.91,0,0,1-.91.9H.91a.9.9,0,0,1-.91-.9V1.37A.9.9,0,0,1,.91.47H14.6a.91.91,0,0,1,.79.47L26.87,21.66,38.37.93a.91.91,0,0,1,.79-.47H52.85A.91.91,0,0,1,53.76,1.37Zm29.39,28a.88.88,0,0,0,.62.25.89.89,0,0,0,.64-.27l9.71-9.86a.91.91,0,0,0,.26-.66.9.9,0,0,0-.29-.64,13.91,13.91,0,0,0-4.5-3.15,15.63,15.63,0,0,0-5.73-1A15.12,15.12,0,0,0,74.58,17V15.45a.9.9,0,0,0-.9-.91H61.16a.9.9,0,0,0-.9.91V57.07a.9.9,0,0,0,.9.9H74a.9.9,0,0,0,.9-.9V32.35c0-3,1.66-4.89,4.34-4.89C80.69,27.46,81.57,27.9,83.15,29.4Z"/><path class="cls-1" d="M142.46,39.71c0,11.56-9,18.74-23.51,18.74a35.18,35.18,0,0,1-13-2.33c-2.83-1.17-4.39-2.33-7.62-5.25a.91.91,0,0,1,0-1.31L107,40.79a.9.9,0,0,1,.64-.26.87.87,0,0,1,.58.21,10.85,10.85,0,0,0,3.45,2.2,22.52,22.52,0,0,0,8.41,1.5c7.08,0,7.08-3.15,7.08-4.19,0-1.94-.68-3.33-4-3.8l-6.73-.94C106,34,100.67,28.4,100.67,18.74,100.67,7.18,109.09,0,122.62,0a30.8,30.8,0,0,1,11.53,2.1,22,22,0,0,1,7.14,4.78.89.89,0,0,1,.3.65.88.88,0,0,1-.26.66l-8.6,8.6a.9.9,0,0,1-1.24,0,8.78,8.78,0,0,0-3.16-2.1,14.86,14.86,0,0,0-5.78-1c-2.06,0-6.84.41-6.84,4.18,0,2.3,2.26,3.12,4.15,3.41l6.72.94C137.41,23.78,142.46,29.31,142.46,39.71Zm180.7-25.24a.9.9,0,0,0-.74-.39H309a.91.91,0,0,0-.86.64l-6,19.12L295.9,14.7a.91.91,0,0,0-.86-.62H281.58a.91.91,0,0,0-.74.39.9.9,0,0,0-.1.83l13.89,37.65-1.07,3.22c-.67,2-1.35,2.51-3.44,2.51h-2.74a.9.9,0,0,0-.9.9V71.16a.9.9,0,0,0,.9.9h4.85c6.93,0,11.13-3,13.6-9.66l17.45-47.1A.9.9,0,0,0,323.17,14.47Zm-47,1.26h-5.75V4.58a.9.9,0,0,0-.9-.9H256.66a.91.91,0,0,0-.9.9V15.72h-2.93a.91.91,0,0,0-.91.9v9.85a.91.91,0,0,0,.91.9h2.93V44.63c0,8,5.62,13.34,14,13.34h6.41a.9.9,0,0,0,.91-.9V46.27a.9.9,0,0,0-.91-.9h-4.07c-1.22,0-1.68-.45-1.68-1.68V27.39h5.75a.9.9,0,0,0,.91-.9V16.63A.9.9,0,0,0,276.14,15.72ZM162.43,0H149.6a.9.9,0,0,0-.91.9V57.07a.9.9,0,0,0,.91.9h12.83a.9.9,0,0,0,.91-.9V.92A.9.9,0,0,0,162.43,0Zm51.75,35.9a22.3,22.3,0,1,1-22.3-22.3A22.33,22.33,0,0,1,214.18,35.91Zm-13.55,0a8.76,8.76,0,1,0-8.76,8.76A8.77,8.77,0,0,0,200.63,35.91Zm44-20.19h-5.75V4.58a.9.9,0,0,0-.9-.9H225.15a.91.91,0,0,0-.9.9V15.72h-2.93a.91.91,0,0,0-.91.9v9.85a.91.91,0,0,0,.91.9h2.93V44.63c0,8,5.62,13.34,14,13.34h6.41a.9.9,0,0,0,.91-.9V46.27a.9.9,0,0,0-.91-.9h-4.06c-1.23,0-1.68-.45-1.68-1.68V27.39h5.75a.9.9,0,0,0,.91-.9V16.63A.9.9,0,0,0,244.63,15.72Z"/></g></g></svg>