<svg xmlns="http://www.w3.org/2000/svg" viewBox="0 0 234.33 40.5"><defs><style>.cls-1{fill:#c1c1c1;}</style></defs><title>neteller_w</title><g id="Layer_2" data-name="Layer 2"><g id="Layer_1-2" data-name="Layer 1"><path class="cls-1" d="M219.11,17.67a10.26,10.26,0,0,1-5.91,1.39h-2.62l2-10.87h1.93a9,9,0,0,1,4.91,1.07,4.24,4.24,0,0,1,1.89,3.79,5.29,5.29,0,0,1-2.2,4.62M62.56,31.31H42.25l1.31-7.1H56.3l1.45-8H45.14l1.22-7H66.63ZM230,3.08c-3-2-7.5-3.08-13.43-3.08H201.11l-5.77,31.31H175l1.3-7.1h12.24l1.46-8-12.24,0,1.31-7.07H191.7L193.38,0H167.76l-5.47,29.71H152.9L158.41,0H145l-5.47,29.71h-9.16L135.91,0H122.53l-5.78,31.31H96.28l1.29-7.1h12.3l1.45-7.93H99l1.3-7.09h12.75L114.76,0H35L30.41,24.82,21.36,0H7.48L0,40.5H13.26L17.79,15l8.78,25.5H74.11L79.89,9.18h7.44L81.55,40.5H206.64l3.62-19.77,5.87,19.77H229.4l-6.08-16.15,1.39-.3a11.89,11.89,0,0,0,7.11-4.18,12.92,12.92,0,0,0,2.51-8.16c0-3.83-1.4-6.65-4.29-8.62"/></g></g></svg>