<?xml version="1.0" encoding="utf-8"?>
<!-- Generator: Adobe Illustrator 23.0.3, SVG Export Plug-In . SVG Version: 6.00 Build 0)  -->
<svg version="1.1" id="Layer_1" xmlns="http://www.w3.org/2000/svg" xmlns:xlink="http://www.w3.org/1999/xlink" x="0px" y="0px"
	 viewBox="0 0 168.1 57.7" style="enable-background:new 0 0 168.1 57.7;" xml:space="preserve">
<style type="text/css">
	.st0{fill:#676767;}
	.st1{fill:#8B8B8B;}
	.st2{fill:#626262;}
	.st3{fill:#BBBBBB;}
	.st4{fill:#696969;}
	.st5{fill:#A5A5A5;}
	.st6{fill:#7C7C7C;}
	.st7{fill:#808080;}
	.st8{fill:#7D7D7D;}
	.st9{fill:#838383;}
	.st10{fill:#868686;}
	.st11{fill:#A8A8A8;}
	.st12{fill:#BCBCBC;}
	.st13{fill:#929292;}
	.st14{fill:#707070;}
	.st15{fill:#FFFFFF;}
</style>
<title>BankTransfer</title>
<path class="st0" d="M45.2,5"/>
<path class="st1" d="M12.2,27.5c-2.6-2.7-3.9-6.3-3.9-9.8c-2.5,2.5-4,5.9-4,9.7c0,3.8,1.5,7.2,4,9.7C8.3,33.6,9.6,30.1,12.2,27.5z"
	/>
<path class="st2" d="M59,27.3c0-3.8-1.5-7.2-4-9.7c0,3.5-1.3,7-4,9.7c0,0-0.1,0.1-0.1,0.1c0,0,0.1,0.1,0.1,0.1c2.6,2.6,3.9,6,4,9.4
	C57.4,34.5,59,31.1,59,27.3z"/>
<path class="st2" d="M31.5,8.2c0,0,0.1-0.1,0.1-0.1c2.7-2.7,6.2-4,9.7-4c-2.5-2.5-5.9-4-9.7-4c-3.9,0-7.4,1.6-9.9,4.3
	C25.2,4.2,28.8,5.5,31.5,8.2z"/>
<path class="st3" d="M31.5,46.8c-2.7,2.6-6.1,3.9-9.5,3.9c2.5,2.5,5.9,4,9.7,4c3.6,0,6.9-1.4,9.4-3.7c-3.4-0.1-6.8-1.4-9.4-4
	C31.6,46.9,31.5,46.8,31.5,46.8z"/>
<path class="st3" d="M21.7,4.3c-3.4,0.1-6.8,1.4-9.4,4c-2.6,2.6-3.9,6-4,9.4c2.5-2.5,5.9-4,9.7-4C18,10,19.4,6.7,21.7,4.3z"/>
<path class="st4" d="M27.6,17.7c-2.5-2.5-5.9-4-9.7-4c0,3.8,1.5,7.2,4,9.7c3.5,0,7,1.3,9.7,4C29,24.7,27.6,21.2,27.6,17.7z"/>
<path class="st4" d="M22,23.3c2.5,2.5,5.9,4,9.7,4c0-3.8-1.5-7.2-4-9.7c-3.5,0-7-1.3-9.7-4C20.6,16.3,22,19.8,22,23.3z"/>
<path class="st5" d="M31.8,27.5c0,0-0.1-0.1-0.1-0.1C31.7,27.4,31.7,27.4,31.8,27.5C31.8,27.5,31.8,27.5,31.8,27.5z"/>
<path class="st6" d="M41,50.9c3.6,0.1,7.2-1.3,9.9-4c2.7-2.7,4.1-6.3,4-9.9c-2.5,2.5-5.9,4-9.7,4C45.3,44.9,43.6,48.4,41,50.9z"/>
<path class="st7" d="M31.8,27.5c2.6,2.6,3.9,6.1,3.9,9.5c2.5,2.5,5.9,4,9.7,4c0-3.8-1.5-7.2-4-9.7C37.8,31.3,34.4,30,31.8,27.5
	C31.8,27.5,31.8,27.5,31.8,27.5z"/>
<path class="st7" d="M45.1,40.9c-2.6-2.6-3.9-6.1-3.9-9.5c-2.5-2.5-5.9-4-9.7-4c0,3.8,1.5,7.2,4,9.7C39.1,37.1,42.5,38.3,45.1,40.9
	C45.1,40.9,45.1,40.9,45.1,40.9z"/>
<path class="st3" d="M54.9,17.7c0-3.5-1.3-7-4-9.7c-2.7-2.7-6.2-4-9.7-4c2.5,2.5,4,5.9,4,9.7C49.1,13.7,52.5,15.2,54.9,17.7z"/>
<path class="st8" d="M31.9,27.3C31.9,27.3,31.9,27.3,31.9,27.3c2.6-2.4,5.8-3.6,9.1-3.7c2.6-2.5,4.3-6,4.3-9.9c-3.8,0-7.2,1.5-9.7,4
	C35.7,21.1,34.4,24.6,31.9,27.3z"/>
<path class="st8" d="M45.1,13.7C45.1,13.7,45.1,13.7,45.1,13.7c-2.6,2.4-5.8,3.6-9.1,3.7c-2.6,2.5-4.3,6-4.3,9.9
	c3.8,0,7.2-1.5,9.7-4C41.3,19.9,42.5,16.4,45.1,13.7z"/>
<path class="st5" d="M31.8,27.5C31.8,27.5,31.8,27.5,31.8,27.5c0.1,0,0.1-0.1,0.1-0.1c0,0,0,0,0,0C31.8,27.4,31.8,27.4,31.8,27.5z"
	/>
<path class="st5" d="M31.9,27.3c-0.1,0-0.2,0-0.3,0C31.7,27.3,31.8,27.3,31.9,27.3C31.9,27.3,31.9,27.3,31.9,27.3z"/>
<path class="st9" d="M35.6,17.7c-0.1-3.4-1.4-6.8-4-9.4c0,0-0.1-0.1-0.1-0.1c-2.6,2.6-3.9,6.1-3.9,9.5c2.5,2.5,4,5.9,4,9.7
	C31.6,23.6,33.1,20.1,35.6,17.7z"/>
<path class="st9" d="M27.7,17.8c0.1,3.4,1.4,6.8,4,9.4c0,0,0.1,0.1,0.1,0.1c2.6-2.6,3.9-6.1,3.9-9.5c-2.5-2.5-4-5.9-4-9.7
	C31.7,11.9,30.2,15.3,27.7,17.8z"/>
<path class="st5" d="M45.3,13.7c0-3.8-1.5-7.2-4-9.7c-3.5,0-7,1.3-9.7,4c0,0-0.1,0.1-0.1,0.1c0,0,0.1,0.1,0.1,0.1
	c2.6,2.6,3.9,6,4,9.4C38.1,15.2,41.5,13.7,45.3,13.7z"/>
<path class="st10" d="M31.6,8.3c0,0-0.1-0.1-0.1-0.1c-2.6,2.6-3.9,6.1-3.9,9.5c-2.5-2.5-5.9-4-9.7-4c0-3.6,1.4-6.9,3.7-9.4
	c3.5-0.1,7.1,1.2,9.8,3.9c0,0,0.1-0.1,0.1-0.1"/>
<path class="st6" d="M41,23.6c-2.4,2.2-5.6,3.6-9.1,3.7c0,0,0,0,0,0c3.7,0.1,7,1.6,9.4,4c3.4,0,6.9-1.3,9.5-3.9
	C48.1,24.8,44.5,23.5,41,23.6z"/>
<path class="st6" d="M41.6,31.3c2.4-2.2,5.6-3.6,9.1-3.7c0,0,0,0,0,0c-3.7-0.1-7-1.6-9.4-4c-3.4,0-6.9,1.3-9.5,3.9
	C34.5,30.1,38,31.4,41.6,31.3z"/>
<path class="st11" d="M50.8,27.5c-2.6,2.6-6.1,3.9-9.5,3.9c2.5,2.5,4,5.9,4,9.7c3.8,0,7.2-1.5,9.7-4c-0.1-3.4-1.4-6.8-4-9.4
	C50.9,27.6,50.9,27.5,50.8,27.5c0,0,0.1-0.1,0.1-0.1"/>
<path class="st12" d="M50.8,27.5c-2.7-2.6-6.3-3.9-9.8-3.9c2.6-2.5,4.3-6,4.3-9.9c3.8,0,7.2,1.5,9.7,4c0,3.5-1.3,7-4,9.7
	C50.9,27.4,50.9,27.4,50.8,27.5c0,0,0.1,0.1,0.1,0.1"/>
<path class="st2" d="M8.3,37c0,3.5,1.3,7,4,9.7s6.2,4,9.7,4c-2.5-2.5-4-5.9-4-9.7C14.2,41,10.8,39.5,8.3,37z"/>
<path class="st0" d="M31.6,27.6c-2.7,2.7-6.3,4.1-9.9,4C19.4,34.1,18,37.4,18,41c3.8,0,7.2-1.5,9.7-4C27.7,33.6,29,30.2,31.6,27.6
	C31.6,27.6,31.6,27.6,31.6,27.6z"/>
<path class="st0" d="M18,40.7c2.7-2.7,6.3-4.1,9.9-4c2.3-2.4,3.7-5.8,3.7-9.4c-3.8,0-7.2,1.5-9.7,4C21.9,34.7,20.6,38.1,18,40.7
	C18,40.7,18,40.7,18,40.7z"/>
<path class="st5" d="M31.6,27.6C31.6,27.6,31.6,27.6,31.6,27.6c0,0,0.1-0.1,0.1-0.1c0,0,0,0,0,0C31.7,27.5,31.7,27.6,31.6,27.6z"/>
<path class="st2" d="M31.6,27.3c-3.8,0-7.2-1.5-9.7-4c-3.5,0-7,1.3-9.7,4c0,0-0.1,0.1-0.1,0.1c0,0,0.1,0.1,0.1,0.1
	c2.6,2.6,6,3.9,9.4,4C24.2,29,27.7,27.3,31.6,27.3z"/>
<path class="st13" d="M12.3,27.6c0,0-0.1-0.1-0.1-0.1c0,0,0.1-0.1,0.1-0.1c2.7-2.7,6.2-4,9.7-4c-2.5-2.5-4-5.9-4-9.7
	c-3.8,0-7.2,1.5-9.7,4c-0.1,3.5,1.2,7.1,3.9,9.8"/>
<path class="st13" d="M12.3,27.3c0,0-0.1,0.1-0.1,0.1c0,0,0.1,0.1,0.1,0.1c2.6,2.6,6,3.9,9.4,4C19.4,34,18,37.4,18,41
	c-3.8,0-7.2-1.5-9.7-4c0-3.4,1.3-6.9,3.9-9.5"/>
<path class="st5" d="M31.6,27.3c0,0.1,0,0.2,0,0.3c0,0,0,0,0,0c0,0,0,0,0,0C31.6,27.5,31.6,27.4,31.6,27.3z"/>
<path class="st14" d="M31.6,27.6C31.6,27.6,31.6,27.6,31.6,27.6c-0.1,3.7-1.6,7-4,9.4c-0.1,3.5,1.2,7.1,3.9,9.8c0,0,0.1-0.1,0.1-0.1
	c2.7-2.7,4-6.2,4-9.7C33.2,34.6,31.7,31.3,31.6,27.6C31.6,27.6,31.6,27.6,31.6,27.6z"/>
<path class="st14" d="M31.6,46.6C31.6,46.6,31.6,46.6,31.6,46.6c0.1-3.7,1.6-7,4-9.4c0.1-3.5-1.2-7.1-3.9-9.8c0,0-0.1,0.1-0.1,0.1
	c-2.7,2.7-4,6.2-4,9.7C30,39.6,31.5,42.9,31.6,46.6C31.6,46.6,31.6,46.6,31.6,46.6z"/>
<path class="st9" d="M31.6,46.7c0,0-0.1,0.1-0.1,0.1c-2.6-2.7-3.9-6.3-3.9-9.8c-2.5,2.5-5.9,4-9.7,4c0,3.8,1.5,7.2,4,9.7
	c3.4,0,6.9-1.3,9.5-3.9"/>
<path class="st7" d="M45.3,41c0,3.9-1.6,7.4-4.3,9.9c-3.4-0.1-6.8-1.4-9.4-4c0,0-0.1-0.1-0.1-0.1c0,0,0.1-0.1,0.1-0.1
	c2.7-2.7,4-6.2,4-9.7C38.1,39.5,41.5,41,45.3,41z"/>
<circle class="st3" cx="59.3" cy="15.5" r="2.4"/>
<circle class="st1" cx="60.9" cy="20.2" r="1.1"/>
<circle class="st1" cx="44" cy="54.6" r="2.7"/>
<circle class="st3" cx="38.5" cy="56.4" r="1.3"/>
<circle class="st2" cx="61.3" cy="23.3" r="0.7"/>
<circle class="st1" cx="1.6" cy="34" r="1.6"/>
<circle class="st2" cx="3" cy="40.7" r="1.9"/>
<circle class="st1" cx="2.5" cy="18.2" r="0.8"/>
<circle class="st3" cx="5.3" cy="12.1" r="1.1"/>
<circle class="st2" cx="3.1" cy="15" r="1.4"/>
<g>
	<path class="st15" d="M14.1,35.5h-4c-0.9,0-1.6-0.7-1.6-1.6v-0.8c0-0.9,0.7-1.6,1.6-1.6h4c0.9,0,1.6,0.7,1.6,1.6v0.8
		C15.7,34.8,15,35.5,14.1,35.5z"/>
	<path class="st15" d="M46.3,30.6c-1.1,1.7-3,2.9-5.2,2.9c-3.4,0-6.1-2.8-6.1-6.1c0-0.7,0.1-1.4,0.3-2h-8.3h-2.8h-9.8
		c-1.1,0-1.9,0.9-1.9,1.9v0.1c0,1.1,0.9,1.9,1.9,1.9h7.3h5.2h2.4c0.6,0,1.1,0.5,1.1,1.1c0,0.6-0.5,1.1-1.1,1.1h-1.9h-5.7h-2.8
		c-1.1,0-1.9,0.9-1.9,1.9v0.1c0,1.1,0.9,1.9,1.9,1.9h6.4h4h3.6c0.6,0,1.1,0.5,1.1,1.1c0,0.6-0.5,1.1-1.1,1.1h-1.8h-5.8h-8.9
		c-1.1,0-1.9,0.9-1.9,1.9v0.1c0,1.1,0.9,1.9,1.9,1.9h23.7c0.1,0,0.2,0,0.2,0c0.2,0,0.4,0,0.7,0c4.7,0,8.9-2.3,11.5-5.9L46.3,30.6z"
		/>
	<path class="st15" d="M47.6,14.9c-0.7-0.4-3.2-1.5-6.2-1.6h-20c-1.1,0-1.9,0.9-1.9,1.9v0.1c0,1.1,0.9,1.9,1.9,1.9h6.5h3.3h4.3
		c0.6,0,1.1,0.5,1.1,1.1v0c0,0.6-0.5,1.1-1.1,1.1h-6.1h-1.5h-2.1c-1.1,0-1.9,0.9-1.9,1.9v0.1c0,1.1,0.9,1.9,1.9,1.9h1.6h9.1
		c1.1-1.2,2.7-2,4.6-2c1.5,0,3,0.6,4,1.5l5.9-5.4C50,16.4,48.8,15.5,47.6,14.9z"/>
	<path class="st15" d="M41.1,21.9c-3.1,0-5.5,2.5-5.5,5.5s2.5,5.5,5.5,5.5c3.1,0,5.5-2.5,5.5-5.5S44.2,21.9,41.1,21.9z M39.9,31.1
		v-3.7l-1.4,0.5v-0.6l1.4-0.5l0-0.3L38.5,27v-0.6l1.4-0.5l0-2.2h0.8l0,1.9l2.3-0.8l0,0.6l-2.3,0.8l0,0.3l2.3-0.8l0,0.6l-2.3,0.9
		l0,3.2c0,0,2.5-0.2,2.6-3h0.8C44.1,27.4,44,31.2,39.9,31.1z"/>
</g>
<g>
	<path class="st15" d="M85.7,17.8c-1.2,4.7-5.3,7.9-10.1,7.9c-6.3,0-10.6-5-10.6-10.4c0-5.1,4-10.4,10.5-10.4c6.3,0,9.7,4.9,10.2,8
		h-5.4c-0.6-1.5-2.1-3.5-4.9-3.5c-3.4,0-5.4,3-5.4,5.9c0,3,2.1,6,5.4,6c3.2,0,4.5-2.7,4.8-3.4H85.7z"/>
	<path class="st15" d="M88.4,25.3V5.2h6.9L99,18.2l3.7-12.9h6.9v20.1h-4.7l0.2-15l-4.3,15h-3.4l-4.3-15l0.2,15H88.4z"/>
	<path class="st15" d="M115.6,9.7h-4V5.2h13v4.5h-3.9v15.6h-5.1V9.7z"/>
</g>
<g>
	<path class="st15" d="M84.8,45.7c-1.3,3.1-4.8,5.7-9.2,5.7c-5.9,0-10.5-4.6-10.5-10.4c0-5.7,4.4-10.4,10.4-10.4
		c5,0,8.1,3.3,9.2,5.9h-2.4c-0.7-1.2-3-3.9-6.8-3.9c-4.7,0-8.2,3.7-8.2,8.4c0,4.7,3.6,8.4,8.2,8.4c4.2,0,6.3-3,6.8-3.8H84.8z"/>
	<path class="st15" d="M101.1,51.1h-1.9v-2.6c-0.8,1.9-2.8,3-5.4,3c-4.6-0.1-6.2-3.2-6.2-6.7v-8.3h2v7.9c0,3.1,1.4,5.3,4.7,5.2
		c3,0,4.8-1.8,4.8-4.9v-8.2h2V51.1z M92.8,34.3h-2v-3.5h2V34.3z M97.9,34.3h-2v-3.5h2V34.3z"/>
	<path class="st15" d="M103.4,49.7l8.1-11.5h-7.8v-1.6h10v1.6l-7.9,11.4h8.2v1.6h-10.6V49.7z"/>
	<path class="st15" d="M130.9,51.1H129v-3c-1,1.9-3,3.4-6,3.4c-4.7,0-7.5-3.6-7.5-7.7c0-4.3,3.1-7.7,7.5-7.7c3.2,0,5.3,1.8,6,3.4
		v-3.1v-5.3h2V51.1z M117.4,43.8c0,2.9,2.1,5.8,5.9,5.8c1.6,0,3.1-0.7,4.1-1.7c1.1-1.1,1.7-2.6,1.6-4.2c0-1.7-0.6-3.1-1.7-4.1
		c-1-1.1-2.5-1.7-4.1-1.7C119.9,38,117.4,40.5,117.4,43.8L117.4,43.8z"/>
	<path class="st15" d="M149.5,51.1h-2v-3c-1.1,2.2-3.4,3.4-6,3.4c-4.7,0-7.6-3.7-7.6-7.7c0-4.3,3.1-7.7,7.6-7.7c3.1,0,5.3,1.8,6,3.5
		v-3.1h2V51.1z M136,43.9c0,2.6,1.8,5.8,5.9,5.8c2.6,0,4.5-1.5,5.3-3.6c0.3-0.7,0.5-1.5,0.5-2.3c0-0.8-0.1-1.6-0.5-2.3
		c-0.8-2-2.8-3.5-5.3-3.5C138.4,38,136,40.6,136,43.9L136,43.9z"/>
	<path class="st15" d="M153.4,36.5h1.9c0,0.8,0,1.6,0,2.6c0.8-1.9,2.8-3.1,5.4-3c4.5,0.1,6.1,3.1,6.1,6.7v8.3h-2v-7.9
		c0-3.1-1.4-5.3-4.7-5.2c-3,0-4.7,1.8-4.7,4.9v8.2h-2V36.5z"/>
</g>
</svg>
