<svg xmlns="http://www.w3.org/2000/svg" viewBox="0 0 467.58 95.5"><defs><style>.cls-1{fill:#fff;}</style></defs><title>Playson-White</title><g id="Layer_2" data-name="Layer 2"><g id="Layer_1-2" data-name="Layer 1"><path class="cls-1" d="M49.25,24.11l7,.09V61.83h39l-.09,6.8H49.34Zm96.62.17h8.27l16.44,20.07L187,24.28h8.35L174,52V68.63h-6.89V52Zm49.86,6.38c0-3.71,4-6.38,7.83-6.46,9.22,0,30.66-.18,32.12.26a8.24,8.24,0,0,1,5.86,6.11,19.7,19.7,0,0,1,.17,4.22h-7.15V31.6c0-.6-.94-.69-1.55-.69H204.17a1.45,1.45,0,0,0-1.55,1.55v9a1.57,1.57,0,0,0,1.55,1.64h30.05a8.09,8.09,0,0,1,7.49,7.83v9.82a8.19,8.19,0,0,1-5.08,7.15c-1.64.68-23.51.68-32.81.68a8.51,8.51,0,0,1-7.57-5c-.78-1.81-.69-5.77-.69-5.77h7s-.43,3,.86,4h29.88c.69,0,1.47-.6,1.38-1.29V52.7a4.32,4.32,0,0,0-.43-2.76,6.72,6.72,0,0,0-1.89-.25H203.74c-3.79,0-8-2.24-8-6.46C195.81,41.42,195.73,30.66,195.73,30.66ZM296.22,24.2h8.44l30.57,35.3V24.2l7.06.08-.17,44.35h-8L303.19,33.24l-.08,35.39h-6.89ZM46,32c-.08-4.22-4-7.67-8.09-7.67H0V68.54H6.8l.17-16,30.57.08c4.4,0,8.44-3.36,8.44-7.75ZM39,44.69A1.36,1.36,0,0,1,37.54,46H7.92a1.24,1.24,0,0,1-1-1.29V32.12c0-.86,1-1.21,1.73-1.21H37.63A1.38,1.38,0,0,1,39,32.38ZM145.1,32.21c0-4.31-3-8-5.95-8H107A8.08,8.08,0,0,0,99.11,32V68.54H106V53h32.12V65.19l.17,3.35H145l.09-8.69s-.09-18.43,0-27.64Zm-7,14.12H106V32.46a1.35,1.35,0,0,1,1.47-1.55h29.19A1.36,1.36,0,0,1,138,32.46C138.12,37.11,138.12,46.33,138.12,46.33ZM291.83,59c0-5.69-.09-24.55-.09-28.33,0-3.53-4.13-6.38-7.83-6.46H253.85c-3.53,0-8.09,4.3-8.09,7.32V60.71a8.39,8.39,0,0,0,8.09,7.83h29.71a8.39,8.39,0,0,0,7.75-5.42,9.66,9.66,0,0,0,.52-4.13Zm-7.75,2.84h-30.4c-.52,0-1-.69-.86-1.29V31.77c.17-.51,0-1.2,1.81-1.2H283.3c.86,0,1.55.34,1.55,1.2V60.54C284.94,61.14,284.68,61.83,284.08,61.83Z"/><path class="cls-1" d="M363.56,0l35,15.93-35,16Z"/><path class="cls-1" d="M398.52,15.93l34.87,15.93L398.52,47.79V15.93Z"/><path class="cls-1" d="M363.56,32l35,15.84-35,15.85Z"/><path class="cls-1" d="M467.58,47.62l-34.19,16.1V31.86Z"/><path class="cls-1" d="M433.39,63.72,398.52,79.65V47.79Z"/><path class="cls-1" d="M398.52,79.65l-35,15.85V63.64Z"/></g></g></svg>