<svg xmlns="http://www.w3.org/2000/svg" viewBox="0 0 298.69 114.91"><defs><style>.cls-1{fill:#fff;}</style></defs><title>playNgo_White</title><g id="Layer_2" data-name="Layer 2"><g id="Layer_1-2" data-name="Layer 1"><path class="cls-1" d="M53.06,99.28H46.94v15.39H44.41V99.28H38.29V97H53.06Z"/><path class="cls-1" d="M71,114.67H68.49V107H58.6v7.7H56.06V97H58.6v7.7h9.9V97H71Z"/><path class="cls-1" d="M85.92,99.28H78.43v5.34h7.23v2.28H78.43v5.49h7.72v2.28H75.89V97h10Z"/><path class="cls-1" d="M112.85,113.45a15.47,15.47,0,0,1-6.74,1.45c-5.42,0-9.41-3.78-9.41-9a9.15,9.15,0,0,1,9.48-9.17,14.34,14.34,0,0,1,6.3,1.5v2.57a13.13,13.13,0,0,0-6.35-1.74,6.68,6.68,0,0,0-6.81,6.76c0,3.94,3,6.71,7.15,6.71a12.41,12.41,0,0,0,3.83-.7v-3.63h-3.39V106h5.93Z"/><path class="cls-1" d="M132.65,114.67h-2.59l-2.36-5.21h-7.51L118,114.67h-2.59L123,96.9h1.79Zm-11.48-7.49h5.49l-2.85-6.4Z"/><path class="cls-1" d="M151.88,114.67h-2.54V100.92h-.05l-5.44,6.84h-.41L138,100.92h-.05v13.76H135.4V97h2.38l5.85,7.25L149.52,97h2.36Z"/><path class="cls-1" d="M159.25,114.67h-2.54V97h2.54Z"/><path class="cls-1" d="M180.42,114.67h-2.18l-11.82-13.6v13.6H164V97h2l12,13.68V97h2.38Z"/><path class="cls-1" d="M200.56,113.45a15.47,15.47,0,0,1-6.74,1.45c-5.42,0-9.4-3.78-9.4-9a9.15,9.15,0,0,1,9.48-9.17,14.35,14.35,0,0,1,6.3,1.5v2.57a13.13,13.13,0,0,0-6.35-1.74,6.68,6.68,0,0,0-6.81,6.76c0,3.94,3,6.71,7.15,6.71a12.4,12.4,0,0,0,3.83-.7v-3.63h-3.39V106h5.93Z"/><path class="cls-1" d="M218.14,97c3.86,0,5.62,2.28,5.62,5.08s-1.87,4.95-6,4.95h-2.64v7.64h-2.54V97Zm-3,7.75H218c1.89,0,3.11-1,3.11-2.77,0-1.3-.7-2.7-3-2.7h-3Z"/><path class="cls-1" d="M231.13,97c3.58,0,5.81,1.89,5.81,4.95a4.42,4.42,0,0,1-3,4.32c1.61,1.06,2.59,2.7,3.94,4.9.75,1.22,1.19,1.81,2.41,3.5h-3L235,111c-2.33-3.63-3.39-4-4.69-4h-1.06v7.67h-2.54V97Zm-1.92,7.72h1.63c2.72,0,3.5-1.4,3.47-2.88,0-1.66-1-2.67-3.47-2.67h-1.63Z"/><path class="cls-1" d="M250.89,96.77c5.83,0,9.51,4.14,9.51,9.07,0,4.77-3.58,9.07-9.56,9.07a9,9,0,0,1-9.43-9.07C241.41,100.94,245.17,96.77,250.89,96.77Zm0,15.8a6.74,6.74,0,1,0-6.87-6.73A6.63,6.63,0,0,0,250.89,112.57Z"/><path class="cls-1" d="M296.29,23a11.72,11.72,0,0,0-9.35-4.35h-7.32a24.37,24.37,0,0,1-1.12,8.41L268.33,59.89a29.57,29.57,0,0,1-1.8,4.4h10.74c7.11,0,14.13-5.65,16-12.68l5-18A12.07,12.07,0,0,0,296.29,23Z"/><path class="cls-1" d="M27.18,40.28H34l2.19-7h-6.8Zm46.88,0h6.81l2.19-7H76.25Zm71.28-21.63H21.08c-7,0-13.83,5.39-15.65,12.27l-5,18.79A11.85,11.85,0,0,0,2.36,60.15a11.38,11.38,0,0,0,9.17,4.13h137a23.85,23.85,0,0,1,1.1-8.27l10.65-33.89a27.85,27.85,0,0,1,1.38-3.48ZM31.87,47H25.07l-2.14,6.81h-6.8L24.68,26.6H38.29c3.74,0,5.84,3.07,4.67,6.81l-2.14,6.8A10.13,10.13,0,0,1,31.87,47Zm7.69,6.81L48.12,26.6h6.81L48.48,47.09h6.8l2.16-6.88h6.81L60,53.82ZM89.83,33.4,83.42,53.82H76.61L78.75,47H71.95l-2.14,6.81H63L69.42,33.4c1.18-3.74,5.2-6.81,8.94-6.81h6.8C88.91,26.6,91,29.66,89.83,33.4Zm21.68,6.8C110.34,44,106.32,47,102.57,47l-2.14,6.81H93.63L95.77,47C92,47,89.92,44,91.1,40.21L95.38,26.6h6.8l-4.3,13.69h6.8L109,26.6h6.81Zm8.29-12.87h9l-2.66,7.92h-9Zm25.54,14.14-3.59,12.34h-6.81l3.61-12.42h-6.8l-3.62,12.42h-6.81l3.59-12.34c1.18-3.75,5.2-6.81,8.94-6.81h6.81C144.42,34.67,146.52,37.74,145.34,41.48Z"/><path class="cls-1" d="M228.18,58.46h15.59l10.68-34.27H238.86Zm51.44-39.81A19.59,19.59,0,0,0,276,7.85c-3.66-5-9.66-7.85-16.46-7.85H189.62c-11.34,0-22.94,8-27.95,18.65a27.85,27.85,0,0,0-1.38,3.48L149.64,56a23.85,23.85,0,0,0-1.1,8.27,19.25,19.25,0,0,0,3.61,10.57,19.67,19.67,0,0,0,16.17,7.71H234v-.06h4.37c11.29,0,22.85-7.72,28.17-18.23a29.58,29.58,0,0,0,1.8-4.4l10.17-32.83A24.37,24.37,0,0,0,279.63,18.65ZM185.26,75.18H168.32c-9.32,0-14.55-7.63-11.62-16.94l10.65-33.89c2.93-9.32,13-16.95,22.27-16.95h31.76l-5.27,16.76H184.35L173.58,58.42h16.95l2.78-8.85h-8.47L190,33h24.24l-7.93,25.23C203.42,67.55,194.58,75.18,185.26,75.18Zm86.58-51.38L261.27,57.68c-3,9.59-13.33,17.44-22.91,17.44H222.77c-9.6,0-15-7.85-12-17.44l10.57-33.88c3-9.59,13.32-17.44,22.92-17.44h15.59C269.47,6.35,274.85,14.2,271.84,23.79Z"/><path class="cls-1" d="M286.15,5.52c1.19,0,1.93.63,1.93,1.65a1.47,1.47,0,0,1-1,1.44,4.84,4.84,0,0,1,1.31,1.63c.25.41.4.61.8,1.17h-1l-.78-1.21c-.78-1.21-1.13-1.35-1.56-1.35h-.35v2.56h-.85V5.52Zm-.64,2.57h.55c.91,0,1.16-.47,1.16-1s-.34-.89-1.16-.89h-.55Z"/><path class="cls-1" d="M286.38,13.86a5.4,5.4,0,1,1,5.4-5.4A5.41,5.41,0,0,1,286.38,13.86Zm0-9.72a4.32,4.32,0,1,0,4.32,4.32A4.32,4.32,0,0,0,286.38,4.14Z"/></g></g></svg>