<svg xmlns="http://www.w3.org/2000/svg" viewBox="0 0 298.49 114.83"><defs><style>.cls-1{fill:#fff;}.cls-2{fill:#0086ca;}.cls-3{fill:#231f20;}.cls-4{fill:#ea2629;}</style></defs><title>play&amp;apos;nGO</title><g id="Layer_2" data-name="Layer 2"><g id="Layer_1-2" data-name="Layer 1"><path class="cls-1" d="M53,99.22H46.91V114.6H44.38V99.22H38.27V96.94H53Z"/><path class="cls-1" d="M71,114.6H68.45v-7.69H58.56v7.69H56V96.94h2.54v7.69h9.89V96.94H71Z"/><path class="cls-1" d="M85.86,99.22H78.38v5.33H85.6v2.28H78.38v5.49h7.72v2.28H75.84V96.94h10Z"/><path class="cls-1" d="M112.77,113.38a15.46,15.46,0,0,1-6.73,1.45c-5.41,0-9.4-3.78-9.4-9a9.14,9.14,0,0,1,9.48-9.16,14.33,14.33,0,0,1,6.29,1.5v2.56A13.12,13.12,0,0,0,106.07,99a6.68,6.68,0,0,0-6.81,6.76c0,3.93,3,6.7,7.15,6.7a12.4,12.4,0,0,0,3.83-.7v-3.63h-3.39V105.9h5.93Z"/><path class="cls-1" d="M132.56,114.6H130l-2.36-5.21h-7.51l-2.23,5.21h-2.59l7.59-17.76h1.79Zm-11.47-7.48h5.49l-2.85-6.4Z"/><path class="cls-1" d="M151.78,114.6h-2.54V100.85h-.05l-5.44,6.83h-.41l-5.44-6.83h-.05V114.6h-2.54V96.94h2.38l5.85,7.25,5.88-7.25h2.36Z"/><path class="cls-1" d="M159.14,114.6H156.6V96.94h2.54Z"/><path class="cls-1" d="M180.3,114.6h-2.17L166.31,101V114.6h-2.38V96.94h2l12,13.67V96.94h2.38Z"/><path class="cls-1" d="M200.42,113.38a15.46,15.46,0,0,1-6.73,1.45c-5.41,0-9.4-3.78-9.4-9a9.14,9.14,0,0,1,9.48-9.16,14.34,14.34,0,0,1,6.29,1.5v2.56A13.12,13.12,0,0,0,193.72,99a6.68,6.68,0,0,0-6.81,6.76c0,3.93,3,6.7,7.14,6.7a12.39,12.39,0,0,0,3.83-.7v-3.63H194.5V105.9h5.93Z"/><path class="cls-1" d="M218,96.94c3.86,0,5.62,2.28,5.62,5.07s-1.86,4.95-6,4.95H215v7.64h-2.54V96.94Zm-3,7.74h2.87c1.89,0,3.11-1,3.11-2.77,0-1.29-.7-2.69-3-2.69h-3Z"/><path class="cls-1" d="M231,96.94c3.58,0,5.8,1.89,5.8,4.95a4.42,4.42,0,0,1-3,4.32c1.6,1.06,2.59,2.69,3.93,4.9.75,1.21,1.19,1.81,2.41,3.5h-3L234.81,111c-2.33-3.63-3.39-4-4.69-4h-1.06v7.66h-2.54V96.94Zm-1.91,7.72h1.63c2.72,0,3.5-1.4,3.47-2.88,0-1.66-1-2.66-3.47-2.66h-1.63Z"/><path class="cls-1" d="M250.72,96.71c5.83,0,9.5,4.14,9.5,9.06,0,4.76-3.58,9.06-9.55,9.06a9,9,0,0,1-9.43-9.06C241.24,100.87,245,96.71,250.72,96.71Zm0,15.79a6.73,6.73,0,1,0-6.86-6.73A6.63,6.63,0,0,0,250.72,112.5Z"/><path class="cls-2" d="M296.09,23a11.72,11.72,0,0,0-9.34-4.35h-7.32a24.35,24.35,0,0,1-1.12,8.4L268.15,59.85a29.55,29.55,0,0,1-1.8,4.4h10.73c7.11,0,14.12-5.65,16-12.67l5-17.95A12.06,12.06,0,0,0,296.09,23Z"/><path class="cls-2" d="M74,40.26h6.8l2.19-7H76.2Zm-46.84,0H34l2.18-7h-6.8Zm-6.1-21.62C14.12,18.64,7.25,24,5.43,30.9l-5,18.78A11.84,11.84,0,0,0,2.36,60.11a11.37,11.37,0,0,0,9.16,4.13H148.44a23.84,23.84,0,0,1,1.1-8.27l10.64-33.86a27.86,27.86,0,0,1,1.38-3.47ZM31.85,47h-6.8l-2.14,6.81h-6.8l8.55-27.21h13.6c3.74,0,5.84,3.07,4.66,6.8l-2.14,6.8A10.13,10.13,0,0,1,31.85,47Zm7.68,6.81,8.55-27.21h6.8L48.45,47.06h6.8l2.16-6.88h6.8L59.94,53.79ZM89.77,33.38,83.36,53.79h-6.8L78.7,47H71.9l-2.14,6.81H63l6.41-20.41c1.18-3.74,5.2-6.8,8.94-6.8h6.8C88.85,26.58,91,29.64,89.77,33.38Zm21.67,6.8c-1.18,3.74-5.19,6.8-8.94,6.8l-2.14,6.81h-6.8L95.7,47C92,47,89.86,43.92,91,40.18l4.28-13.6h6.8L97.82,40.26h6.8l4.29-13.68h6.81Zm8.29-12.86h8.95L126,35.24h-8.95Zm25.52,14.13-3.59,12.33h-6.8l3.61-12.41h-6.8l-3.61,12.41h-6.8l3.59-12.33c1.18-3.74,5.2-6.8,8.94-6.8h6.8C144.32,34.65,146.42,37.71,145.24,41.45Z"/><path class="cls-1" d="M83.36,53.79l6.41-20.41c1.18-3.74-.92-6.8-4.66-6.8h-6.8c-3.74,0-7.76,3.07-8.94,6.8L63,53.79h6.8L71.9,47h6.8l-2.14,6.81ZM80.81,40.26H74l2.19-7H83Z"/><path class="cls-1" d="M40.79,40.18l2.14-6.8c1.18-3.74-.92-6.8-4.66-6.8H24.66L16.11,53.79h6.8L25.05,47h6.8a10.13,10.13,0,0,0,8.94-6.8M34,40.26h-6.8l2.18-7h6.8Z"/><polygon class="cls-1" points="39.54 53.79 48.09 26.58 54.89 26.58 48.45 47.06 55.25 47.06 57.41 40.18 64.21 40.18 59.94 53.79 39.54 53.79"/><path class="cls-1" d="M102.5,47l-2.14,6.81h-6.8L95.7,47C92,47,89.86,43.92,91,40.18l4.28-13.6h6.8L97.82,40.26h6.8l4.29-13.68h6.81l-4.28,13.6c-1.18,3.74-5.19,6.8-8.94,6.8"/><path class="cls-1" d="M134.85,53.79l3.61-12.41h-6.8l-3.61,12.41h-6.8l3.59-12.33c1.18-3.74,5.2-6.8,8.94-6.8h6.8c3.74,0,5.84,3.06,4.66,6.8l-3.59,12.33Z"/><polygon class="cls-1" points="117.06 35.24 119.72 27.32 128.68 27.32 126.01 35.24 117.06 35.24"/><path class="cls-3" d="M228,58.42h15.58l10.68-34.25H238.7Zm51.41-39.78a19.58,19.58,0,0,0-3.67-10.79c-3.66-5-9.65-7.85-16.45-7.85H189.49c-11.33,0-22.93,7.95-27.93,18.64a27.86,27.86,0,0,0-1.38,3.47L149.54,56a23.84,23.84,0,0,0-1.1,8.27A19.24,19.24,0,0,0,152,74.81a19.66,19.66,0,0,0,16.16,7.71h65.63v-.06h4.37c11.29,0,22.83-7.71,28.15-18.22a29.54,29.54,0,0,0,1.8-4.4L278.32,27A24.35,24.35,0,0,0,279.44,18.64Zm-94.3,56.49H168.2c-9.31,0-14.54-7.62-11.61-16.93l10.65-33.87C170.16,15,180.18,7.39,189.49,7.39h31.74L216,24.14H184.23L173.46,58.38H190.4l2.78-8.85h-8.46L189.91,33h24.22l-7.92,25.21C203.28,67.5,194.45,75.13,185.13,75.13Zm86.52-51.35L261.1,57.64c-3,9.58-13.32,17.43-22.9,17.43H222.61c-9.59,0-15-7.85-12-17.43l10.56-33.86c3-9.58,13.31-17.43,22.9-17.43H259.7C269.28,6.35,274.66,14.19,271.66,23.78Z"/><path class="cls-4" d="M216,24.14H184.23L173.46,58.38H190.4l2.78-8.85h-8.46L189.91,33h24.22l-7.92,25.21c-2.93,9.31-11.76,16.93-21.07,16.93H168.2c-9.31,0-14.54-7.62-11.61-16.93l10.64-33.87C170.16,15,180.18,7.39,189.49,7.39h31.74Z"/><path class="cls-4" d="M259.7,6.35H244.12c-9.59,0-19.89,7.85-22.9,17.43L210.66,57.64c-3,9.58,2.36,17.43,12,17.43H238.2c9.58,0,19.89-7.85,22.9-17.43l10.56-33.86C274.66,14.19,269.28,6.35,259.7,6.35ZM243.61,58.42H228L238.7,24.17h15.58Z"/><path class="cls-1" d="M286,5.52c1.19,0,1.93.63,1.93,1.65a1.47,1.47,0,0,1-1,1.44,4.83,4.83,0,0,1,1.31,1.63c.25.41.4.61.8,1.17h-1l-.78-1.21c-.78-1.21-1.13-1.35-1.56-1.35h-.35V11.4h-.85V5.52Zm-.64,2.57h.54c.91,0,1.16-.47,1.15-1s-.34-.89-1.15-.89h-.54Z"/><path class="cls-1" d="M286.18,13.86a5.4,5.4,0,1,1,5.4-5.4A5.4,5.4,0,0,1,286.18,13.86Zm0-9.71a4.32,4.32,0,1,0,4.32,4.32A4.32,4.32,0,0,0,286.18,4.14Z"/></g></g></svg>