<svg xmlns="http://www.w3.org/2000/svg" viewBox="0 0 490.09 211.78"><defs><style>.cls-1{fill:#fff;}</style></defs><title>PragmaticPlay-White</title><g id="Layer_2" data-name="Layer 2"><g id="Layer_1-2" data-name="Layer 1"><path class="cls-1" d="M388.94,211.78A74.79,74.79,0,1,1,463.73,137,74.87,74.87,0,0,1,388.94,211.78Zm0-140.37A65.64,65.64,0,1,0,454.58,137a65.72,65.72,0,0,0-65.64-65.63Z"/><path class="cls-1" d="M369.86,45.69a.14.14,0,0,1-.28,0C367.52,36.76,348.9-.72,347,0c-2.19.78,1.83,39.27,4.76,50.62,0,.18-.18.23-.27.09-13-20.73-28-20.32-30.85-19.91-.18.05-.18.28-.05.32,17.95,9.25,26.6,35.66,27.42,38.27a.21.21,0,0,0,.27.09,78.42,78.42,0,0,1,33.69-11c.09,0,.18-.09.14-.18-.55-2.33-5.72-26.59,4.21-43.43.09-.14-.05-.33-.18-.28C383.54,15.48,370.41,23.31,369.86,45.69Zm15.45,42.16c3.13-8.3,15.34-11.39,27.26-6.9s19,14.87,15.92,23.17-15.34,11.39-27.25,6.9S382.19,96.15,385.31,87.85Z"/><path class="cls-1" d="M29.52,156.81V119H39.73c3.61,0,7,.87,8.79,2.24,3.06,2.34,3.89,6.36,3.89,8.7A11.18,11.18,0,0,1,50,137.18c-1,1.28-3.57,2.47-5.31,3.16,2.33,3.38,9.38,17,9.38,17H45.77s-7.83-15.84-8.61-15.84H35.93v15.33Zm9.66-31.21H35.93v8.65h3.25a7,7,0,0,0,4.35-1.14A3.67,3.67,0,0,0,45.27,130a3.61,3.61,0,0,0-1.7-3.16A7,7,0,0,0,39.18,125.6ZM0,156.81V119H10.21c3.61,0,7,.87,8.78,2.24,3.07,2.34,3.89,6.36,3.89,8.7,0,5.63-3.66,9.56-7.14,10.48a46.26,46.26,0,0,1-9.33,1v15.33ZM9.7,125.6H6.45v8.65H9.7a7,7,0,0,0,4.35-1.14,3.77,3.77,0,0,0,0-6.32A7,7,0,0,0,9.7,125.6Zm324.73,31.72V119.51H345.1c3.61,0,6.95.87,8.78,2.25,3.07,2.33,3.89,6.36,3.89,8.69a11.14,11.14,0,0,1-2.38,7.23c-1,1.28-3.57,2.47-5.31,3.16-2.28.87-8.28.69-8.28.69l0,15.83h-7.33v0Zm10.16-31.22H341.8v8.65h2.79a6.92,6.92,0,0,0,4.35-1.14,3.67,3.67,0,0,0,1.74-3.16,3.62,3.62,0,0,0-1.69-3.16A6.75,6.75,0,0,0,344.59,126.1Zm-209.16-1.87-5,4.89c-3-2.79-7.73-5.21-11.72-5.21a13.17,13.17,0,0,0-5,1,12.64,12.64,0,0,0-4.17,2.7,11.91,11.91,0,0,0-2.79,4.39,16.4,16.4,0,0,0-1,5.86q0,6.31,3.57,10.16a13,13,0,0,0,17.3,1.1c1.28-1.05,2.84-2,3.52-5l-11.3-.05-.09-6.49h19.54c0,7-1.28,10.48-4.9,14.6s-8.46,6.18-14.69,6.18a21.56,21.56,0,0,1-8.28-1.56,19.71,19.71,0,0,1-6.59-4.26,19.35,19.35,0,0,1-4.3-6.45,20.93,20.93,0,0,1-1.56-8.19,20.4,20.4,0,0,1,2.7-10.49,18.93,18.93,0,0,1,7.46-7.23,21.85,21.85,0,0,1,10.48-2.56,22.67,22.67,0,0,1,8.38,1.46A43.41,43.41,0,0,1,135.43,124.23ZM181.7,119l5.91,37.8h-7.23l-3.44-24-8.37,24h-6.64l-8.56-24.3L150,156.81h-7.14l6-37.8h6.63l9.8,28.06L175.07,119Zm306.61,1.42,1.78,11.44h-2.2l-1.05-7.28-2.51,7.28h-2l-2.56-7.37-1,7.37h-2.15l1.79-11.44h2l2.93,8.51,2.93-8.51Zm-279.83-1.88H215l15.75,38.77h-8.2l-3.2-7.87h-15.1l-3.21,7.87h-7.87l15.29-38.77Zm8.65,23.66L214.52,136c-.83-2.11-1.79-4.86-2.84-8.24h-.18c-1.24,4.07-2.15,6.82-2.66,8.24l-2.56,6.13h10.85Zm182.48-23.66h6.59l15.74,38.77h-8.19l-3.2-7.87H395.44l-3.2,7.87h-7.87l15.24-38.77Zm8.65,23.66L405.65,136c-.82-2.11-1.79-4.86-2.84-8.24h-.18c-1.24,4.07-2.15,6.82-2.66,8.24l-2.56,6.13h10.85ZM74.47,118.55H81l15.74,38.77H88.56l-3.2-7.87H70.25l-3.2,7.87H59.18Zm8.6,23.66L80.46,136c-.82-2.11-1.78-4.86-2.84-8.24h-.18c-1.23,4.07-2.15,6.82-2.65,8.24l-2.57,6.13H83.07Zm146.78-16.29v-7.28h22.61v7.28h-7.55v31.31h-7.55V125.92Zm239.23-3.39v-2.19h6.82v2.19h-2.28V132h-2.29v-9.48ZM257.63,157.59V119.05h7.51v38.54Zm104.4,0V119.51h7.55v31h10.48v7.05Zm66-.32V140.61l-11.53-21.33h7l7.92,14.88h.13l7.92-14.88h7l-11.72,21.33v16.66ZM292.23,152a11.7,11.7,0,0,1-9.38-3.94,16,16,0,0,1,0-20.27,12.24,12.24,0,0,1,9.38-3.94c8.52,0,11.95,5.63,11.95,5.63l4.67-4.12a19.49,19.49,0,0,0-6-5.26,20.91,20.91,0,0,0-10.57-2.66,21.23,21.23,0,0,0-10.62,2.66,19.23,19.23,0,0,0-7.41,7.32,20.73,20.73,0,0,0-2.7,10.48l-.1.05a21,21,0,0,0,2.71,10.52,19.29,19.29,0,0,0,7.41,7.37,22.28,22.28,0,0,0,21.19,0,19.57,19.57,0,0,0,6.09-5.36l-4.72-4.67S299.65,151.78,292.23,152Z"/></g></g></svg>