<?xml version="1.0" encoding="utf-8"?>
<!-- Generator: Adobe Illustrator 22.1.0, SVG Export Plug-In . SVG Version: 6.00 Build 0)  -->
<svg version="1.1" id="katman_1" xmlns="http://www.w3.org/2000/svg" xmlns:xlink="http://www.w3.org/1999/xlink" x="0px" y="0px"
	 viewBox="0 0 286.7 68.9" style="enable-background:new 0 0 286.7 68.9;" xml:space="preserve">
<style type="text/css">
	.st0{fill:#C2C1C0;}
</style>
<title>Quickspin_White</title>
<g id="Layer_2">
	<g id="Layer_1-2">
		<path class="st0" d="M24.4,68.9c-1.6-0.9-2.8-2.3-3.5-4c-0.3-0.6-0.6-1.1-0.9-1.7c-0.8-1.9-1.9-2.5-4.2-2.3
			C8.6,61.3,2.1,56.5,0.5,49.5c-0.2-0.9-0.4-1.9-0.5-2.9c-0.2-2.5,1.5-4.7,4-5c2.4-0.2,4.3,1.6,4.7,4.3c0.1,1.1,0.4,2.2,0.9,3.2
			c1.1,2.2,3.5,3.4,5.9,3.1c2.4-0.1,4.6-1.7,5.4-4c0.3-0.9,0.4-1.7,0.5-2.6c0.2-2.4,2.3-4.1,4.7-4c2.5,0.3,4.2,2.6,3.9,5
			c-0.1,2.9-1.1,5.6-2.8,7.9c-0.9,0.9-1,2.4-0.2,3.5c0.6,0.9,1,1.8,1.6,2.8c2.1,3.7,1.8,5.3-1.3,8.1H24.4z"/>
		<path class="st0" d="M286.7,49.3c-0.5-0.4-0.9-0.9-1.2-1.5c-2.4-4.9-4.8-9.8-7.1-14.8c-0.3-0.7-0.5-1.5-0.5-2.3
			c0-8.6,0-17.3-0.1-25.9c-0.1-2.4,1.6-4.4,4-4.5c0.3,0,0.6,0,0.8,0c1.7,0.1,3.1,1.3,3.5,2.9c0.1,0.4,0.3,0.7,0.5,1.1L286.7,49.3z"
			/>
		<path class="st0" d="M211.4,35.6c-2,0-4.1,0-6.1,0c-2.3,0.1-4.2-1.7-4.3-4c0-0.1,0-0.2,0-0.3c0-2.2,1.8-4,4-4c0.1,0,0.2,0,0.3,0
			c2.9-0.1,5.7,0,8.6,0c1.3,0,2.6-0.2,3.9-0.4c2.7-0.5,4.8-2.9,4.9-5.7c0.1-1.9,0-3.8,0.1-5.6c0.1-3.6-2.7-6.7-6.3-6.8
			c-0.1,0-0.3,0-0.4,0c-3.1,0-6.2,0-9.3,0c-0.6,0-1.1,0-1.7,0c-2-0.2-3.6-1.8-3.8-3.8c-0.3-2,1-4,3-4.5c1-0.3,2-0.5,3.1-0.6
			c3.6,0,7.2,0.1,10.7,0.3c6.2,0.5,11.4,4.9,12.9,11c1,4.1,1,8.4,0.1,12.6c-1.4,7.2-8.3,12.1-14.6,11.7
			C214.7,35.6,213.1,35.6,211.4,35.6z"/>
		<path class="st0" d="M257,0.3c1.6-0.1,3.1,0.8,3.8,2.2c0.3,0.5,0.5,1,0.8,1.5c8,16.6,16,33.2,23.9,49.8c0.4,0.9,0.7,1.8,0.8,2.8
			c0.1,2.3-1.7,4.2-4,4.3c-1.2,0-2.3-0.4-3.1-1.2c-0.6-0.7-1.1-1.4-1.5-2.2c-5.7-11.9-11.5-23.8-17.1-35.7
			c-2.2-4.5-4.4-9.1-6.5-13.7c-0.6-1.2-0.9-2.4-1.1-3.7c-0.2-2.1,1.4-3.9,3.5-4.1C256.6,0.3,256.8,0.3,257,0.3z"/>
		<path class="st0" d="M84.6,30.8c0,8.1,0,16.1,0,24.2c0,0.7,0,1.5,0,2.2c-0.3,2.1-2,3.8-4.2,3.8c-1.9,0-3.6-1.3-4.2-3.2
			c-0.2-1-0.4-2.1-0.4-3.1c0-16.1,0-32.3,0-48.4c0-0.9,0.1-1.8,0.3-2.7c0.5-2.3,2.7-3.8,5-3.3c1.9,0.4,3.3,2.1,3.4,4
			c0,0.7,0,1.3,0,2C84.6,14.5,84.6,22.6,84.6,30.8z"/>
		<path class="st0" d="M245.6,30.8c0,8.1,0,16.1,0,24.2c0,0.7,0,1.5,0,2.2c-0.3,2.1-2,3.8-4.2,3.9c-1.9,0-3.6-1.3-4.2-3.2
			c-0.3-1-0.4-2.1-0.4-3.1c0-16.1,0-32.3,0-48.4c0-0.9,0.1-1.8,0.3-2.7c0.5-2.3,2.7-3.8,5-3.3c1.9,0.4,3.3,2.1,3.4,4
			c0,0.7,0,1.3,0,2C245.6,14.5,245.6,22.6,245.6,30.8z"/>
		<path class="st0" d="M160.8,4.7c-0.4,1-0.9,2-1.4,2.9c-4.9,7-9.8,14-14.7,21c-2.4,3.5-4.9,7-7.3,10.4c-0.4,0.6-0.8,1.2-1.3,1.7
			c-1.5,1.5-3.9,1.7-5.6,0.3c-1.8-1.2-2.3-3.6-1.2-5.4c1.4-2.2,2.9-4.3,4.4-6.5c6.1-8.7,12.3-17.5,18.4-26.2c0.5-0.7,1.1-1.4,1.7-2
			c1.2-1,2.9-1.3,4.3-0.6C159.9,1.2,160.5,2.6,160.8,4.7z"/>
		<path class="st0" d="M163.8,46.8c-0.1-1.8,0.1-3.6,2.1-4.6c2.1-1.1,4.7-0.4,5.8,1.7c0.2,0.4,0.4,0.8,0.4,1.2
			c0.1,0.6,0.1,1.1,0.2,1.7c0.5,3.2,3.3,5.5,6.5,5.5c3.2-0.1,5.9-2.6,6.1-5.9c0.2-2.1,0.9-3.8,3.1-4.5c2.1-0.8,4.4,0.3,5.2,2.3
			c0.4,1,0.5,2,0.4,3.1c-0.9,7.6-6.6,13.5-14.8,13.6C170.8,61.2,164.1,54.9,163.8,46.8L163.8,46.8z"/>
		<path class="st0" d="M37.8,46.9c0.1-1,0.3-2,0.7-3c0.8-1.5,2.3-2.4,4-2.2c1.8,0.2,3.4,1.5,3.8,3.4c0.1,0.5,0.1,1,0.1,1.5
			c0.3,3.3,3.1,5.8,6.4,5.9c3.3,0,5.8-2.4,6.3-6c0-0.1,0-0.2,0-0.2c0.4-3,2.3-4.8,4.8-4.5c2.4,0.3,4,2.4,3.9,5.3
			c-0.5,6.8-5.5,12.4-12.3,13.7C48.4,62.1,41.2,58,38.8,51C38.4,49.6,38.1,48.3,37.8,46.9z"/>
		<path class="st0" d="M122.8,46.3c-0.3,6.8-4.9,12.6-11.5,14.2c-8,1.8-16-3.1-18-11.1c-0.3-1.2-0.4-2.4-0.4-3.6
			c-0.1-2.3,1.8-4.3,4.1-4.3c2.1-0.1,3.9,1.4,4.3,3.5c0.2,0.7,0.3,1.4,0.4,2.2c0.6,3.4,3.9,5.7,7.3,5c2.5-0.5,4.5-2.4,5-4.9
			c0.1-0.6,0.2-1.3,0.3-1.9c0.5-2.3,2.3-3.9,4.4-3.7C121.1,41.8,122.9,43.9,122.8,46.3C122.8,46.4,122.8,46.6,122.8,46.3z"/>
		<path class="st0" d="M15.2,0.3c7.2-0.2,14.4,5.4,14.9,14.4c0.2,2.4-1.6,4.5-4,4.8c-2.3,0.2-4.4-1.5-4.6-3.8c0-0.1,0-0.1,0-0.2
			c0-2-0.9-3.8-2.4-5.1c-1.6-1.5-4-2-6.1-1.1c-2.2,0.8-3.8,2.7-4.1,5c-0.1,0.5,0,1-0.1,1.5c-0.3,2.1-2.1,3.7-4.2,3.7
			c-2,0.1-3.8-1.3-4.2-3.3C0,15.4-0.1,14.7,0,14C1.1,5.1,8.2-0.1,15.2,0.3z"/>
		<path class="st0" d="M179,0.2c7.9,0.2,14.3,6.4,14.6,14.3c0.3,2.4-1.4,4.7-3.8,5c-0.1,0-0.1,0-0.2,0c-2.4,0.2-4.3-1.4-4.7-4
			c-0.1-0.4,0-0.8-0.1-1.2c-0.2-1.5-1-3-2.2-3.9c-4.3-3.4-9.6-0.5-10.4,4.2c-0.1,0.5,0,1-0.1,1.5c-0.4,2.1-2.3,3.6-4.4,3.5
			c-2.1,0-3.9-1.7-4-3.8C163,8.7,169,1.3,176.3,0.5C177.2,0.3,178,0.3,179,0.2z"/>
		<path class="st0" d="M108.4,0.2c7.9,0.4,14.2,6.8,14.4,14.7c0,2.3-1.6,4.2-3.9,4.5c-2.3,0.2-4-1.1-4.6-3.7
			c-0.2-0.7-0.2-1.4-0.4-2.2c-0.8-3.4-4.3-5.4-7.6-4.6c-2.3,0.6-4,2.3-4.6,4.6c-0.2,0.8-0.3,1.6-0.4,2.4c-0.3,2.2-2.3,3.8-4.5,3.5
			c-2.3-0.3-4-2.2-3.9-4.5c0-7.3,6-14,13.2-14.6C106.8,0.3,107.6,0.2,108.4,0.2z"/>
		<path class="st0" d="M67.8,40.5c-2.5-1.8-5.9-1.8-8.4,0c-0.1-0.9-0.2-1.5-0.2-2.1c0-10.9,0-21.8,0-32.8c0-0.8,0.1-1.6,0.3-2.4
			c0.5-1.8,2.1-3,4-2.9c1.9-0.2,3.6,1,4.1,2.8c0.2,0.7,0.3,1.4,0.3,2.2c0,11.2,0,22.3,0,33.5C67.9,39.3,67.8,39.7,67.8,40.5z"/>
		<path class="st0" d="M253.3,12.5c0.6,1.3,1.2,2.6,1.9,3.9c1.8,3.8,3.7,7.6,5.5,11.5c0.4,0.9,0.6,1.8,0.6,2.8c0,8.5,0,16.9,0,25.4
			c0,2.6-1,4-3.1,4.6c-2.2,0.6-4.5-0.6-5.1-2.8c-0.1-0.2-0.1-0.4-0.1-0.5c-0.1-0.6-0.1-1.1-0.1-1.7c0-13.8,0-27.5,0-41.3
			c0-0.6,0.1-1.2,0.1-1.8L253.3,12.5z"/>
		<path class="st0" d="M46.4,40.6c-2.4-1.8-5.8-1.9-8.3-0.3c0-0.9-0.1-1.6-0.1-2.3c0-10.8,0-21.5,0-32.3c0-0.5,0-1,0-1.5
			c-0.1-2.1,1.6-3.9,3.8-4c0.1,0,0.2,0,0.3,0c2.2-0.2,4.1,1.5,4.3,3.7c0,0.1,0,0.2,0,0.3c0,0.7,0,1.3,0,2c0,10.4,0,20.9,0,31.3
			L46.4,40.6z"/>
		<path class="st0" d="M147.8,28.5c0.9,1.8,1.6,3.2,2.3,4.7c3,6.4,6.1,12.8,9.1,19.2c0.4,0.8,0.8,1.6,1.1,2.5c1,2.1,0.1,4.6-2.1,5.6
			c0,0-0.1,0-0.1,0.1c-2.1,1-4.5,0.1-5.5-2v-0.1c-1-1.9-1.9-3.8-2.8-5.7c-2.3-4.8-4.5-9.6-6.8-14.3c-0.7-1.1-0.6-2.6,0.3-3.5
			C144.7,33,146.1,30.9,147.8,28.5z"/>
		<path class="st0" d="M128.6,31.1c0-8.8,0-17.6,0-26.4c0-2.9,1.7-4.5,4.4-4.5c2.3,0,4.2,1.8,4.3,4.1c0,0.1,0,0.2,0,0.3
			c0.1,4.6,0,9.3,0,13.9c0,0.6-0.2,1.1-0.5,1.6c-2.6,3.7-5.2,7.4-7.9,11.1L128.6,31.1z"/>
		<path class="st0" d="M182.6,43.9l-15.3-21.8c3.3-0.2,5.7-1.5,6.9-4.4c1.4,1,13,17.1,15.2,21.1C186.5,39.1,183.8,41.1,182.6,43.9z"
			/>
		<path class="st0" d="M201.4,37.2c2,1.2,4.4,1,6.6,1c1.5,0,1.7,0.2,1.7,1.7c0,5.4,0.1,10.8,0,16.2c0.1,1.8-0.8,3.6-2.5,4.4
			c-2.6,1.3-6-0.3-6.1-3.2c-0.2-6.6,0-13.2,0-19.8C201.2,37.4,201.3,37.3,201.4,37.2z"/>
		<path class="st0" d="M0,40.5V20.7c2.6,1.7,5.9,1.7,8.5-0.1v19.8C6,38.6,2.5,38.7,0,40.5z"/>
		<path class="st0" d="M21.5,20.6c2.8,1.9,5.4,1.6,8.1,0.3c0.7,1.7,0.9,13.6,0.4,19.1c-1.3-0.5-2.7-0.8-4.1-1
			c-1.5,0.2-2.9,0.5-4.3,0.9L21.5,20.6z"/>
		<path class="st0" d="M93,40.5V21.1c1.3,0.4,2.7,0.6,4.1,0.8c1.3-0.1,2.6-0.3,3.8-0.7c0.6,1.5,0.8,13.5,0.3,19
			C98.5,38.8,95.8,38.5,93,40.5z"/>
		<path class="st0" d="M128.6,43.2c2.7,1.8,6.1,1.7,8.7-0.1c0,2.1,0,3.9,0,5.7c0,2.6,0.1,5.2,0,7.8c0,2.4-1.9,4.4-4.4,4.5
			c-2.4,0-4.4-2-4.4-4.5c0-0.1,0-0.1,0-0.2C128.6,52,128.6,47.7,128.6,43.2z"/>
		<path class="st0" d="M201.2,25.7V10.1c2.2,1.3,4.4,1.1,6.6,1.1c1.9,0,2,0.1,2,1.9c0,3.3,0,6.5,0,9.7c0,1.2-0.5,1.6-1.6,1.5
			C205.8,24.3,203.4,24.7,201.2,25.7z"/>
	</g>
</g>
</svg>
