<svg xmlns="http://www.w3.org/2000/svg" viewBox="0 0 197.96 67.61"><defs><style>.cls-1{fill:#c1c1c1;}</style></defs><title>skrill_w</title><g id="Layer_2" data-name="Layer 2"><g id="Layer_1-2" data-name="Layer 1"><path class="cls-1" d="M157.42,6.65,173.89,3.7V66.94H157.42Zm24.06,0V66.94H198V3.7ZM134,66.94h16.48V20.68H134ZM25.05,27.22c-2.08-.14-6.9-.45-6.9-4.79,0-5.24,6.94-5.24,9.55-5.24,4.58,0,10.51,1.35,14.74,2.62,0,0,2.36.83,4.37,1.68l.19.05V7.2l-.26-.08c-5-1.75-10.81-3.43-21.58-3.43C6.58,3.7,0,14.51,0,23.79c0,5.34,2.29,17.93,23.56,19.37,1.8.11,6.59.39,6.59,4.87,0,3.71-3.92,5.89-10.51,5.89A51.63,51.63,0,0,1,1.16,50.33V65.11a86,86,0,0,0,22,2.5c18.16,0,26.3-10.24,26.3-20.39C49.43,35.72,40.33,28.25,25.05,27.22ZM124.67,20c-15.23.49-23,7.33-23,20.91v26h16.62V45.71c0-8.13,1.07-11.62,10.72-12V20.24A23.06,23.06,0,0,0,124.67,20ZM80,20.63a57.23,57.23,0,0,1-9.39,16.1V3.7l-17,3.36V66.94h17V48.43c4.92,7.39,7.36,18.51,7.36,18.51H98.3c-2-8.38-10.83-23.82-10.83-23.82A74.73,74.73,0,0,0,99.41,20.63Zm62.23-4.38a8.12,8.12,0,1,0-8.12-8.12A8.12,8.12,0,0,0,142.19,16.25Z"/></g></g></svg>