<?xml version="1.0" encoding="utf-8"?>
<!-- Generator: Adobe Illustrator 24.1.0, SVG Export Plug-In . SVG Version: 6.00 Build 0)  -->
<svg version="1.1" id="Layer_1" xmlns="http://www.w3.org/2000/svg" xmlns:xlink="http://www.w3.org/1999/xlink" x="0px" y="0px"
	 viewBox="0 0 53.1 54.5" style="enable-background:new 0 0 53.1 54.5;" xml:space="preserve">
<style type="text/css">
	.st0{fill:url(#SVGID_1_);}
</style>
<linearGradient id="SVGID_1_" gradientUnits="userSpaceOnUse" x1="1.2" y1="28.1469" x2="51.9" y2="28.1469" gradientTransform="matrix(1 0 0 -1 0 55.1969)">
	<stop  offset="0" style="stop-color:#33BDD5"/>
	<stop  offset="1" style="stop-color:#A34E9E"/>
</linearGradient>
<path class="st0" d="M51.9,27c0-1.6-0.3-3.2-1.1-4.6c-1-1.5-2.7-2.5-4.4-2.9C44.6,19,42.8,19,41,19c-8.3,0-16.5,0-24.8-0.1v-3.7
	c8,0.3,16-0.3,23.9,0.1c4.2,0.2,8.7,0.9,11.6,4C48.4,11.3,41.5,4.9,33.4,2c-4.9-1.8-10-1.3-15.1-1.3c-1.1,0-11.4,0-15.4,0
	C2,0.7,1.2,1.4,1.2,2.4v23.8c0,0.3,0,0.6,0,0.8l0,0c0,1.6,0.3,3.2,1.1,4.6c1,1.5,2.7,2.5,4.4,2.9C8.5,35,10.3,35,12.1,35
	c8.3,0,16.5,0,24.8,0.1v3.7c-8-0.3-16,0.3-23.9-0.1c-4.2-0.2-8.7-0.9-11.6-4c3.3,8,10.1,14.5,18.3,17.4c4.9,1.8,10,1.3,15.1,1.3
	c1.1,0,11.4,0,15.4,0c0.9,0,1.7-0.7,1.7-1.7V27.9C51.9,27.6,51.9,27.3,51.9,27L51.9,27z"/>
</svg>
