<svg xmlns="http://www.w3.org/2000/svg" viewBox="0 0 380.91 63.79"><defs><style>.cls-1{fill:#c1c1c1;}</style></defs><title>creditcard_g</title><g id="Layer_2" data-name="Layer 2"><g id="Layer_1-2" data-name="Layer 1"><polygon class="cls-1" points="53.27 52.24 43.25 52.24 49.51 13.72 59.54 13.72 53.27 52.24"/><path class="cls-1" d="M34.81,13.72,25.25,40.21l-1.13-5.7h0L20.74,17.19s-.41-3.47-4.76-3.47H.18L0,14.38a37.46,37.46,0,0,1,10.49,4.4L19.2,52.24H29.65l16-38.52Z"/><path class="cls-1" d="M113.69,52.24h9.21l-8-38.52H106.8a4.61,4.61,0,0,0-4.63,2.87l-15,35.65H97.67l2.09-5.72h12.75Zm-11-13.62,5.27-14.42,3,14.42Z"/><path class="cls-1" d="M88,23l1.43-8.27a29,29,0,0,0-9-1.68c-5,0-16.79,2.18-16.79,12.75,0,10,13.87,10.08,13.87,15.3s-12.44,4.29-16.55,1l-1.49,8.65A28.08,28.08,0,0,0,70.77,52.9c6.84,0,17.17-3.54,17.17-13.19,0-10-14-10.95-14-15.3S83.71,20.62,88,23Z"/><path class="cls-1" d="M24.12,34.51,20.74,17.19s-.41-3.47-4.76-3.47H.18L0,14.38a38.86,38.86,0,0,1,14.88,7.47A30,30,0,0,1,24.12,34.51Z"/><polygon class="cls-1" points="208.62 28.36 208.81 28.09 208.87 28.01 209.01 27.82 209.16 27.63 208.45 27.63 208.56 28.46 208.62 28.36"/><path class="cls-1" d="M251.33,30.21l-.12-1.61L251,27l-.28-1.56-.35-1.53-.43-1.5-.5-1.48-.57-1.44-.64-1.4-.7-1.37-.77-1.32-.83-1.3-.89-1.24-.94-1.19-1-1.16L242,9.42l-1.1-1.05-1.16-1-1.2-.94-1.24-.89L236,4.71,234.72,4l-1.37-.7-1.41-.65L230.48,2,229,1.54l-1.51-.43L226,.76,224.38.48l-1.59-.2L221.17.16l-1.64,0-1.63,0-1.62.12-1.58.2-1.57.28-1.53.35-1.51.43-1.47.5-1.45.57-1.4.65-1.36.7-1.33.76-1.29.83-1.24.89-1.2.94-1.07.93.07.06,1.1,1.05,1.05,1.11,0,.05h10.89V12.3H202l.45.57.88,1.24.19.3h7.93v1.73h-6.87l.34.59.71,1.37.06.14h5.76V20h-5l.39,1,.38,1.14h4.24v1.73h-3.73l0,.12.36,1.53.08.45h3.26v0l.12-.05.31-.12.33-.11.14,0,.19,0,.14,0,.2,0,.37-.06.36-.06.39,0,.39,0h.75l.33,0h0l.28,0,.32,0,.3,0h0l.24.05.28.05.26.06.25.06.22.06.13,0,.07,0,.17.06,0,0,.1,0,.13,0,.1,0h.07L218,29l-.08,0-.06,0-.14-.07-.15-.07h0l-.05,0-.11-.05-.16-.06-.18-.06-.09,0-.09,0-.19-.06-.14,0-.06,0-.21,0-.22,0-.17,0h-.07l-.23,0h-1.32l-.29,0-.3.05-.26.08h0l-.06,0-.24.09-.3.15-.3.19-.29.24-.28.28-.27.34-.25.4-.17.34-.07.13-.06.13-.17.4-.2.6-.15.59,0,.1v.06l-.06.33V33h.78V34.7h-.72l.09.31v0l.11.29.16.29,0,.06.15.22.23.25.26.23.13.09.16.11.15.07.18.09.18.07.18.07.41.1.14,0,.12,0h0l.19,0,.21,0,.2,0h.55l.27,0,.28,0H215l.21,0,.27-.08.22-.07,0,0h0l.26-.12.23-.13h0l.22-.17.21-.19h0l-.48,2.86-.07.05-.06.06h0l-.08.07-.08.05h0l-.12.09-.15.08h0l-.17.08-.06,0-.13,0-.17.05-.08,0-.13,0-.15,0-.32,0-.26,0h-1.56l-.6,0-.49-.05-.14,0-.35-.08-.36-.12-.13,0-.49-.22-.1-.05-.37-.2-.28-.2-.17-.12-.21-.18H208l-.29,1.26-.24.84h4v1.73H207l-.14.43-.57,1.45-.1.24h5.35v1.73h-6.16l-.42.82-.73,1.28h7.31V50h-8.44l-.61.87-.94,1.2,0,0h10v1.74H199.92l-.47.49-1.1,1.06-.07.06,1.07.93,1.2.94,1.24.89,1.29.82,1.33.77,1.36.7,1.4.64,1.45.57,1.47.5,1.51.43,1.53.35,1.57.28,1.58.2,1.62.12,1.63,0,1.64,0,1.62-.12,1.59-.2L226,63l1.53-.35,1.51-.43,1.48-.5,1.45-.57,1.41-.64,1.37-.7,1.33-.77,1.3-.82,1.24-.89,1.2-.94,1.16-1,1.1-1.06,1.06-1.11,1-1.16.94-1.2.89-1.24.83-1.3.77-1.33.7-1.37.64-1.41.57-1.45.5-1.48.43-1.51.35-1.53.28-1.58.2-1.59.12-1.62,0-1.64Zm-24.39,7.3-.44,2.38v.05h-2.82v-.08l0-.44v-.6l-.17.17-.19.15-.23.15-.22.15-.26.13-.28.13-.27.11-.3.09-.3.08-.3.05-.31,0-.31,0h-.3l-.29,0-.3,0-.39-.1-.35-.11-.31-.14-.28-.17-.25-.17-.21-.2-.17-.2-.15-.23-.14-.23-.1-.25-.09-.25-.05-.24,0-.25,0-.26,0-.24V36.8l0-.42.06-.41.1-.39.14-.36.16-.35.21-.32.23-.3.26-.27.28-.26.29-.23.32-.22.33-.17.34-.15.36-.12.36-.1.37-.06h.26l.14,0h.15l.16,0,.17,0,.18,0,.19,0h.18l.18,0h.32l.15,0h.38l.26,0h.48l.2,0h.26v0l0-.19,0-.22v-.2h0l0-.23-.09-.19-.13-.18-.15-.15-.18-.13-.21-.1-.22-.06h-1.55l-.35,0-.34,0-.34,0-.33,0-.31,0-.31.05-.28.06-.26.05-.23.06-.18.06-.14.07-.11.05-.11-.06.75-2.58v0h0l.24-.1.25-.09.26-.07.26-.05.27-.05.27,0,.29,0,.29,0,.3,0h.31l.31,0H224l.36,0,.3,0,.33.05.33.08.35.1.33.13.34.15.32.19.31.2.27.24.26.27.22.3.17.33.12.35.07.38v.41l-.05.44Zm7.24-6.39-.34.09-.31.11-.28.13h0l-.23.15-.21.17-.14.13-.05.05-.06.07-.11.13-.08.12-.06.09-.13.23-.11.24,0,.08-.06.16-.06.24-.07.24,0,.23-.28,1.58-.8,4.52h-3l2-11.48h3l-.32,1.94.15-.22.16-.19.16-.2.08-.09.08-.09.17-.17.17-.17.18-.15.19-.15.2-.13.22-.12.22-.11.24-.09.26-.07.27-.05.29,0h.3L235.42,30l-.18,1H235l-.42,0-.29.05Zm10.18,8.76h-3l.08-.42.14-.77v-.11l-.1.13-.07.09-.18.19-.18.17-.19.15,0,0-.14.1-.15.09,0,0-.19.1-.2.1-.2.08h0l-.16,0-.12,0-.08,0-.21,0-.13,0h-.08l-.14,0h-.65l-.4,0-.22,0-.3-.07-.47-.18-.23-.13-.2-.12-.39-.31-.21-.22-.14-.15-.3-.4-.22-.38,0-.07-.21-.48-.17-.5-.08-.37,0-.15,0-.15-.06-.4v-.23l0-.31v-.56l.05-.55.1-.55,0-.19.11-.44.19-.6.23-.55.27-.51.28-.48.32-.43.33-.38.24-.24.12-.12.38-.31.4-.27.39-.23h0l.41-.18.43-.15.43-.1h.08l.35-.05.44,0h.31l.19,0h.11l.14,0,.14,0,.26.08.25.09,0,0,.17.07.21.12.08,0,.11.07.17.13.11.09.05,0,.14.14.13.14.11.14.1.14h0l.08.12,0,.06,0,.06.75-4.21h2.91Z"/><polygon class="cls-1" points="170.6 38.75 170.75 38.58 170.75 38.58 170.6 38.75"/><polygon class="cls-1" points="159.69 25.8 156.19 34.15 156.19 34.15 159.69 25.8"/><path class="cls-1" d="M197.1,54.35l-.47-.49h0l-.13-.15-.44-.46-1-1.16-.94-1.2-.61-.87h0l-.08-.13-.17-.24-.83-1.3L191.64,47l-.42-.82h0l0-.08-.24-.47-.63-1.41-.57-1.45-.49-1.48-.43-1.51-.11-.49v.08l-.05,0,0,0,0,0,0,0,0,0,0,0h0l0,0-.08,0-.05,0h-.07l-.06,0-.1,0-.08,0h0l-.11,0-.13,0-.13,0-.1,0h0l-.16,0h-1.17l-.43,0-.37,0-.31-.06h-.07l-.25-.07-.25-.1-.2-.1-.11-.08-.07-.05-.14-.14,0,0-.08-.1,0-.11,0-.07-.05-.18V38.6l0-.13V38l0-.25,0-.26h0l2-11.7h2.68l.06-.34.35-1.53,0-.12h0v0l.39-1.35.49-1.48.57-1.44.63-1.4.71-1.37.76-1.32.83-1.3.88-1.24.94-1.19,1-1.16,1-1.11,1.11-1.05.07-.06-1.07-.93L196,6.43l-1.25-.89-1.29-.83L192.14,4l-1.36-.7-1.4-.65L187.93,2l-1.47-.5-1.51-.43L183.42.76,181.85.48l-1.59-.2L178.64.16,177,.11l-1.64,0-1.62.12-1.59.2-1.58.28-1.53.35-1.51.43-1.48.5-1.45.57-1.42.65-1.37.7-1.33.76-1.3.83L158,6.43l-1.2.94-1.16,1-1.1,1.05-1.06,1.11-1,1.16-.94,1.19-.89,1.24-.82,1.3L149,16.73l-.7,1.37-.64,1.4-.57,1.44-.5,1.48-.43,1.5-.35,1.53L145.54,27l-.2,1.59-.12,1.61,0,1.63,0,1.64.12,1.62.2,1.59.28,1.58.35,1.53.43,1.51.5,1.48.57,1.45.64,1.41L149,47l.77,1.33.82,1.3.89,1.24.94,1.2,1,1.16,1.06,1.11,1.1,1.06,1.16,1,1.2.94,1.24.89,1.3.82,1.33.77,1.37.7,1.42.64,1.45.57,1.48.5,1.51.43,1.53.35,1.58.28,1.59.2,1.62.12,1.64,0,1.63,0,1.62-.12,1.59-.2,1.56-.28,1.53-.35,1.51-.43,1.47-.5,1.45-.57,1.4-.64,1.36-.7,1.33-.77,1.29-.82,1.25-.89,1.2-.94,1.07-.93-.07-.06ZM162.5,39.88h-2.92l.95-5.4.9-5.12h-.12l-2.51,6.05-1.85,4.47h-3.29l0-.44-.08-1.17-.07-1.14,0-.52-.1-1.8v-.13l-.11-1.89-.09-1.66v0l-.08-1.22,0-.5v0h-.16l-1.78,10.52H148.2l.63-3.62,1.81-10.46h5.07l.48,8.35,3.51-8.35H165Zm11.17-2.38-.19,1.08-.24,1.3h-2.7l.08-.44,0-.17,0-.23,0-.3,0-.16-.15.17-.17.17-.2.16h0l-.21.14-.26.15-.27.13-.28.13-.29.11-.31.1-.25.06-.06,0-.16,0L168,40l-.13,0-.19,0-.31,0H167l-.15,0-.15,0-.15,0-.14,0-.37-.1-.34-.11-.27-.12h0l-.2-.12-.07,0-.23-.17-.21-.19-.09-.11-.08-.1-.15-.21-.13-.23-.11-.24-.08-.23,0-.11,0-.13,0-.25,0-.25v-.6l0-.29L164,36l.09-.33v-.07l.13-.34.17-.34.19-.31.23-.3.26-.27.27-.25.3-.23.31-.2.32-.17.34-.15.35-.12h0l.32-.08.38-.06h.55l.16,0h.18l.18,0,.18,0h2.42v-.08l.06-.19,0-.15,0-.08,0-.2,0-.24-.08-.18,0,0-.13-.19-.17-.16-.2-.14-.09,0-.14-.06-.18,0-.08,0h-1.58l-.35,0h-.07l-.27,0-.2,0h-.14l-.33,0-.14,0-.19,0L167,31l-.15,0-.14,0-.14,0-.26.05-.24.07-.19.06h0l-.15.07-.12.06h0l.71-2.42,0-.17.24-.1.23-.09.26-.07.26-.06h0l.21,0,.26,0h0l.14,0,.14,0h0l.26,0h3l.32.05.33.08h0l.3.08h0l.3.11.32.15.22.13.1.05.3.2.26.24,0,0,.19.21.11.15.1.14.16.32,0,.11.07.23,0,.16,0,.2v.41l0,.26,0,.17Zm9.5-6.63H183l-.15,0h-.14l-.14,0-.12,0h0l-.14,0-.14,0-.15,0-.14,0h-1.05l-.28,0-.31,0-.21,0-.2,0-.18.06-.16.06-.15.08-.14.09-.11.11-.07.07,0,0v0l0,.09-.05.12,0,.13v.13l0,.14,0,.14,0,.07,0,.07.11.14.11.1.1.1.26.16.08,0,.22.1.32.12.34.11.19.06.16.05.15.05.21.08.22.09.13.05.32.18.3.22.27.27.23.33.06.14.11.26.1.46v0l0,.58,0,.66v0l-.08.5-.13.44-.09.2-.09.2-.1.16-.12.2-.25.31-.05.05-.23.22-.19.15-.11.09-.15.1-.18.11-.35.16-.35.14-.36.11-.37.09-.26,0-.1,0-.35,0-.25,0h-2.67l-.18,0h-.07l-.25,0h0l-.21,0-.2,0-.15,0H175l-.14,0-.18,0h0l-.17-.07-.11,0-.06,0-.18-.06.37-1.81.11-.56.1,0h0l.1,0,.09,0,.06,0,.11,0,.07,0h0l.17,0,.17,0h0l.09,0,.14,0,.26,0,.15,0,.12,0,.28,0,.29,0h.13l.17,0h1.29l.26-.05.25-.09.06,0,.13-.08.11-.11,0,0,0,0,.08-.11.07-.14,0,0,.05-.17,0-.08,0-.08v-.31l-.09-.25v0l0,0-.15-.18-.27-.18-.24-.12-.08,0-.37-.16-.22-.08L178,35l-.42-.17-.43-.19-.41-.23-.11-.08-.27-.2-.17-.16-.18-.17-.15-.23-.12-.18,0-.09-.16-.39-.05-.31,0-.27v-.69l.05-.42.07-.37v0l.11-.36.13-.34.17-.32.19-.28.23-.27.27-.23.09-.06.22-.15.34-.17.38-.16.43-.12.48-.1.53-.07.22,0,.36,0h2l.27,0h.25l.21,0,.19,0h.18l.15,0,.12,0h0l.12,0h.2l.1,0h.09Z"/><polygon class="cls-1" points="187.7 31.07 186.73 36.75 186.72 36.88 186.72 36.96 186.75 37.06 186.77 37.15 186.88 37.28 187.02 37.4 187.21 37.48 187.43 37.54 187.66 37.58 187.87 37.6 187.92 37.61 188.15 37.59 188.21 37.59 188.33 37.58 188.18 36.68 187.97 35.1 187.94 34.7 187.6 34.7 187.49 32.96 187.84 32.96 187.81 31.84 187.84 30.77 187.76 30.77 187.7 31.07"/><polygon class="cls-1" points="197.1 9.42 196.05 10.53 195.05 11.68 194.1 12.87 193.23 14.12 192.4 15.41 191.64 16.73 190.93 18.1 190.3 19.51 189.73 20.95 189.24 22.42 188.85 23.77 189.38 22.08 207.2 22.08 206.82 20.95 206.43 19.97 190.14 19.97 190.89 18.24 205.68 18.24 205.62 18.1 204.91 16.73 204.57 16.14 192.03 16.14 193.04 14.41 203.51 14.41 203.32 14.12 202.45 12.87 202 12.3 194.56 12.3 196.01 10.58 200.55 10.58 200.51 10.53 199.45 9.42 198.35 8.37 198.28 8.3 198.2 8.37 197.1 9.42"/><polygon class="cls-1" points="202.37 39.88 202.32 39.88 199.29 39.88 200.97 30.27 201.3 28.4 204.38 28.4 203.99 30.34 204.15 30.12 204.21 30.04 204.31 29.91 204.38 29.82 204.46 29.7 204.51 29.65 204.62 29.52 204.78 29.34 204.86 29.26 204.94 29.18 205.07 29.06 205.12 29.02 205.3 28.88 205.49 28.75 205.59 28.7 205.69 28.64 205.76 28.61 205.92 28.54 206.1 28.47 206.17 28.45 206.24 28.43 206.42 28.39 206.65 28.34 206.7 28.33 206.76 28.32 207 28.3 207.16 28.29 207.33 28.28 207.41 28.28 207.49 28.29 207.52 28.29 207.57 28.3 207.65 28.3 207.72 28.31 207.77 28.32 207.82 28.33 207.83 28.33 207.81 28.36 207.79 28.39 207.75 28.44 207.68 28.57 207.58 28.73 207.47 28.91 207.37 29.11 207.26 29.32 207.21 29.43 207.17 29.52 207.12 29.7 207.08 29.82 206.98 30.12 206.97 30.17 206.91 30.42 206.83 30.7 206.79 30.88 206.78 30.94 206.77 30.99 206.73 31.13 206.7 31.26 206.7 31.28 206.69 31.3 206.68 31.3 206.66 31.29 206.65 31.29 206.63 31.29 206.6 31.28 206.57 31.27 206.55 31.27 206.5 31.27 206.44 31.26 206.4 31.25 206.37 31.25 206.25 31.26 205.95 31.28 205.59 31.33 205.37 31.39 205.25 31.42 205.16 31.45 204.95 31.52 204.7 31.63 204.46 31.76 204.27 31.92 204.1 32.08 203.95 32.27 203.82 32.46 203.75 32.58 203.71 32.66 203.63 32.88 203.6 32.96 207.1 32.96 207.1 32.95 207.17 32.43 207.22 32.17 207.26 31.99 207.31 31.77 207.35 31.56 207.46 31.14 207.57 30.74 207.69 30.37 207.75 30.19 207.83 29.99 207.88 29.85 207.97 29.64 208.12 29.31 208.18 29.18 208.28 28.98 208.32 28.89 208.44 28.66 208.54 28.49 208.56 28.46 208.45 27.63 188.37 27.63 188.37 27.64 188.24 28.4 190.03 28.4 189.67 30.66 189.65 30.82 188.7 30.79 187.84 30.77 187.81 31.84 187.84 32.96 189.45 32.96 189.52 32.62 189.57 32.43 189.63 32.17 189.78 31.75 189.8 31.71 189.81 31.66 189.99 31.25 190.13 30.97 190.23 30.78 190.41 30.51 190.53 30.33 190.67 30.16 190.88 29.9 191.29 29.49 191.71 29.17 191.77 29.13 191.82 29.09 192.3 28.8 192.71 28.63 192.93 28.54 193.57 28.36 193.62 28.34 194.39 28.21 194.46 28.21 195.26 28.17 195.68 28.18 195.99 28.21 196.12 28.22 196.56 28.3 196.76 28.35 197 28.41 197.43 28.57 197.51 28.61 197.85 28.76 198.23 29.02 198.59 29.32 198.91 29.68 199.18 30.11 199.23 30.25 199.39 30.6 199.54 31.17 199.56 31.29 199.63 31.81 199.64 32.54 199.57 33.23 199.56 33.36 199.54 33.48 199.4 34.26 199.35 34.91 192.39 34.91 192.37 35.05 192.36 35.23 192.38 35.44 192.42 35.64 192.5 35.85 192.58 36.04 192.62 36.1 192.7 36.24 192.77 36.34 192.83 36.42 192.98 36.61 193.06 36.69 193.14 36.77 193.31 36.93 193.43 37.01 193.5 37.06 193.7 37.18 193.91 37.27 194.13 37.35 194.34 37.39 194.46 37.41 194.62 37.43 194.72 37.45 194.89 37.47 195.17 37.5 195.41 37.52 195.44 37.52 195.72 37.53 196.01 37.53 196.29 37.52 196.32 37.52 196.58 37.5 196.64 37.49 196.87 37.45 197.16 37.4 197.26 37.38 197.46 37.34 197.6 37.29 197.75 37.24 198.05 37.12 198.36 36.99 198.66 36.82 198.69 36.81 198.97 36.64 198.54 39.28 198.37 39.36 198.28 39.41 198.2 39.45 198.03 39.51 197.87 39.58 197.71 39.63 197.53 39.69 197.36 39.73 197.3 39.74 197.18 39.76 197.08 39.78 196.99 39.79 196.86 39.81 196.78 39.81 196.55 39.84 196.43 39.84 196.3 39.86 196.04 39.87 196.02 39.87 195.74 39.87 195.4 39.88 195.05 39.88 194.54 39.87 194.52 39.87 194.41 39.86 193.99 39.81 193.45 39.74 193.09 39.65 192.91 39.61 192.39 39.45 191.89 39.24 191.4 38.98 190.95 38.67 190.53 38.3 190.46 38.21 190.17 37.86 189.86 37.37 189.6 36.8 189.52 36.5 189.42 36.17 189.36 35.78 189.3 35.45 189.27 34.7 187.94 34.7 187.97 35.1 188.18 36.68 188.33 37.58 188.37 37.57 188.53 37.55 188.56 37.54 188.73 37.5 188.76 37.49 188.87 37.45 188.97 37.42 189.03 37.4 189.06 37.39 188.7 39.31 188.81 39.79 189.24 41.3 189.73 42.78 190.3 44.23 190.93 45.65 191.17 46.11 190.41 44.47 206.15 44.47 206.25 44.23 206.82 42.78 206.96 42.35 189.59 42.35 189.06 40.63 207.5 40.63 207.74 39.79 208.03 38.53 202.6 38.53 202.37 39.88"/><polygon class="cls-1" points="203.6 32.96 203.63 32.88 203.59 32.96 203.6 32.96"/><polygon class="cls-1" points="194.1 50.89 195.05 52.09 196.05 53.25 196.49 53.71 195.1 52.12 201.47 52.12 201.5 52.09 202.45 50.89 203.06 50.02 193.49 50.02 194.1 50.89"/><polygon class="cls-1" points="191.64 47.02 192.4 48.35 193.23 49.65 193.4 49.89 192.4 48.29 204.18 48.29 204.91 47.02 205.34 46.19 191.21 46.19 191.64 47.02"/><polygon class="cls-1" points="207.08 34.91 207.07 34.7 207.07 34.7 207.08 34.91"/><polygon class="cls-1" points="207.4 36.29 207.23 35.7 207.21 35.63 207.19 35.54 207.08 34.91 207.07 34.7 203.25 34.7 202.89 36.8 207.62 36.8 207.51 36.54 207.4 36.29"/><polygon class="cls-1" points="192.81 32.79 192.8 32.8 196.72 32.8 196.74 32.53 196.73 32.28 196.71 32.04 196.67 31.83 196.61 31.66 196.59 31.62 196.59 31.6 196.52 31.44 196.41 31.28 196.3 31.13 196.18 31 196.03 30.89 195.92 30.83 195.87 30.8 195.82 30.77 195.71 30.71 195.55 30.65 195.54 30.65 195.52 30.64 195.37 30.6 195.2 30.57 195.19 30.57 195.17 30.57 195 30.55 194.79 30.56 194.6 30.59 194.42 30.64 194.23 30.7 194.05 30.79 193.89 30.88 193.73 31 193.59 31.13 193.45 31.28 193.32 31.44 193.21 31.61 193.11 31.8 193.01 31.99 192.97 32.12 192.94 32.2 192.91 32.29 192.87 32.42 192.83 32.64 192.82 32.66 192.8 32.79 192.81 32.79"/><polygon class="cls-1" points="199.45 54.35 199.93 53.86 196.63 53.86 197.1 54.35 198.2 55.41 198.28 55.48 198.35 55.41 199.45 54.35"/><polygon class="cls-1" points="188.81 23.93 188.46 25.46 188.39 25.8 188.68 25.8 188.66 25.91 208.18 25.91 208.1 25.46 207.74 23.93 207.71 23.81 188.84 23.81 188.81 23.93"/><polygon class="cls-1" points="192.36 35.23 192.37 35.05 192.37 35.05 192.36 35.23"/><polygon class="cls-1" points="202 12.3 211.44 12.3 211.44 10.58 200.55 10.58 201.5 11.68 202 12.3"/><polygon class="cls-1" points="194.56 12.3 202 12.3 201.5 11.68 200.55 10.58 196.01 10.58 194.56 12.3"/><polygon class="cls-1" points="204.57 16.14 211.44 16.14 211.44 14.41 203.51 14.41 204.15 15.41 204.57 16.14"/><polygon class="cls-1" points="192.03 16.14 204.57 16.14 204.15 15.41 203.51 14.41 193.04 14.41 192.03 16.14"/><polygon class="cls-1" points="206.43 19.97 211.44 19.97 211.44 18.24 205.68 18.24 206.25 19.51 206.43 19.97"/><polygon class="cls-1" points="190.14 19.97 206.43 19.97 206.25 19.51 205.68 18.24 190.89 18.24 190.14 19.97"/><polygon class="cls-1" points="207.71 23.81 211.44 23.81 211.44 22.08 207.2 22.08 207.31 22.42 207.71 23.81"/><polygon class="cls-1" points="188.84 23.81 188.84 23.81 188.85 23.77 188.84 23.81"/><polygon class="cls-1" points="188.85 23.77 188.84 23.81 207.71 23.81 207.31 22.42 207.2 22.08 189.38 22.08 188.85 23.77"/><polygon class="cls-1" points="206.96 42.35 211.49 42.35 211.49 40.63 207.5 40.63 207.31 41.3 206.96 42.35"/><polygon class="cls-1" points="189.59 42.35 206.96 42.35 207.31 41.3 207.5 40.63 189.06 40.63 189.59 42.35"/><polygon class="cls-1" points="205.34 46.19 211.49 46.19 211.49 44.47 206.15 44.47 205.62 45.65 205.34 46.19"/><polygon class="cls-1" points="191.21 46.19 191.21 46.19 191.17 46.11 191.21 46.19"/><polygon class="cls-1" points="191.17 46.11 191.21 46.19 205.34 46.19 205.62 45.65 206.15 44.47 190.41 44.47 191.17 46.11"/><polygon class="cls-1" points="203.32 49.65 203.06 50.02 211.49 50.02 211.49 48.29 204.18 48.29 204.15 48.35 203.32 49.65"/><polygon class="cls-1" points="193.48 50.02 193.49 50.02 193.4 49.89 193.48 50.02"/><polygon class="cls-1" points="193.4 49.89 193.49 50.02 203.06 50.02 203.32 49.65 204.15 48.35 204.18 48.29 192.4 48.29 193.4 49.89"/><polygon class="cls-1" points="199.93 53.86 211.49 53.86 211.49 52.12 201.47 52.12 200.51 53.25 199.93 53.86"/><polygon class="cls-1" points="196.61 53.86 196.63 53.86 196.49 53.71 196.61 53.86"/><polygon class="cls-1" points="196.49 53.71 196.63 53.86 199.93 53.86 200.51 53.25 201.47 52.12 195.1 52.12 196.49 53.71"/><polygon class="cls-1" points="208.45 27.63 209.16 27.63 209.21 27.57 209.22 27.56 209.23 27.55 209.44 27.32 209.53 27.23 209.66 27.1 209.91 26.88 210.15 26.68 210.41 26.5 210.57 26.39 210.68 26.33 210.97 26.17 211.16 26.07 211.26 26.03 211.44 25.95 211.44 25.95 211.44 25.91 208.18 25.91 208.37 27.01 208.45 27.63"/><polygon class="cls-1" points="188.37 27.63 208.45 27.63 208.37 27.01 208.18 25.91 188.66 25.91 188.37 27.63"/><polygon class="cls-1" points="208.31 37.91 208.19 37.74 208.19 37.74 208.31 37.91"/><polygon class="cls-1" points="208.7 38.33 208.31 37.91 208.19 37.74 208.1 38.26 208.03 38.53 208.93 38.53 208.71 38.33 208.7 38.33"/><polygon class="cls-1" points="208.19 37.74 207.96 37.42 207.66 36.89 207.62 36.8 202.89 36.8 202.6 38.53 208.03 38.53 208.1 38.26 208.19 37.74"/><polygon class="cls-1" points="208.19 37.74 208.19 37.74 207.96 37.42 208.19 37.74"/><polygon class="cls-1" points="210.41 33.24 210.39 33.62 210.4 33.8 210.4 33.98 210.42 34.24 210.43 34.35 210.47 34.52 210.51 34.69 210.51 34.7 211.23 34.7 211.23 32.96 210.44 32.96 210.44 33.01 210.41 33.24"/><polygon class="cls-1" points="203.5 33.32 203.44 33.54 203.42 33.69 203.4 33.78 203.25 34.7 207.07 34.7 207.03 34.15 207.06 33.32 207.1 32.96 203.6 32.96 203.55 33.09 203.5 33.32"/><polygon class="cls-1" points="203.55 33.09 203.6 32.96 203.59 32.96 203.55 33.09"/><polygon class="cls-1" points="207.07 34.7 207.03 34.15 207.07 34.7 207.07 34.7"/><polygon class="cls-1" points="187.6 34.7 187.94 34.7 187.85 33.48 187.84 32.96 187.49 32.96 187.6 34.7"/><polygon class="cls-1" points="187.94 34.7 189.27 34.7 189.27 34.66 189.32 33.78 189.34 33.65 189.37 33.43 189.41 33.15 189.43 33.04 189.45 32.96 187.84 32.96 187.85 33.48 187.94 34.7"/><polygon class="cls-1" points="188.68 39.38 188.7 39.31 188.7 39.31 188.68 39.38"/><polygon class="cls-1" points="242.35 32.78 242.31 32.51 242.23 32.26 242.15 32.01 242.04 31.8 241.91 31.59 241.77 31.42 241.61 31.27 241.43 31.14 241.23 31.05 241.03 31 240.81 30.98 240.51 31 240.25 31.04 240 31.13 239.75 31.24 239.54 31.38 239.32 31.55 239.14 31.73 238.96 31.93 238.8 32.17 238.65 32.42 238.51 32.67 238.39 32.95 238.28 33.24 238.2 33.53 238.12 33.84 238.05 34.15 238 34.63 238.02 35.14 238.09 35.66 238.23 36.17 238.45 36.61 238.72 36.96 239.08 37.2 239.51 37.28 239.81 37.26 240.09 37.2 240.34 37.12 240.59 37.01 240.82 36.88 241.03 36.72 241.23 36.53 241.42 36.34 241.58 36.13 241.73 35.89 241.87 35.64 241.99 35.39 242.09 35.12 242.18 34.84 242.25 34.55 242.31 34.26 242.36 33.96 242.39 33.65 242.39 33.36 242.38 33.06 242.35 32.78"/><polygon class="cls-1" points="170.75 38.58 170.75 38.58 170.75 38.58 170.75 38.58"/><polygon class="cls-1" points="171.03 34.59 170.97 34.56 170.86 34.54 170.74 34.52 170.6 34.51 170.44 34.51 170.28 34.51 170.11 34.52 169.93 34.54 169.76 34.56 169.59 34.58 169.43 34.6 169.28 34.63 169.15 34.67 169.03 34.7 168.95 34.72 168.87 34.75 168.75 34.8 168.63 34.85 168.49 34.91 168.35 34.99 168.2 35.06 168.06 35.15 167.91 35.26 167.77 35.36 167.65 35.49 167.53 35.62 167.42 35.76 167.35 35.91 167.28 36.08 167.25 36.25 167.24 36.62 167.29 36.91 167.4 37.12 167.54 37.28 167.7 37.39 167.88 37.45 168.05 37.49 168.22 37.5 168.55 37.49 168.84 37.45 169.12 37.41 169.36 37.35 169.57 37.27 169.78 37.18 169.96 37.08 170.12 36.96 170.26 36.85 170.39 36.73 170.5 36.61 170.58 36.48 170.66 36.35 170.72 36.22 170.78 36.1 170.81 35.99 170.89 35.68 170.97 35.32 171.03 34.98 171.09 34.7 171.08 34.65 171.03 34.59"/><polygon class="cls-1" points="224.22 34.58 224.15 34.55 224.04 34.52 223.92 34.51 223.78 34.49 223.62 34.49 223.46 34.51 223.29 34.53 223.12 34.55 222.94 34.57 222.78 34.59 222.63 34.63 222.48 34.65 222.34 34.68 222.24 34.7 222.16 34.71 222.08 34.74 221.97 34.77 221.85 34.82 221.71 34.88 221.58 34.95 221.43 35.02 221.29 35.12 221.15 35.21 221.01 35.33 220.9 35.45 220.78 35.59 220.68 35.74 220.61 35.9 220.54 36.07 220.51 36.25 220.5 36.62 220.55 36.91 220.64 37.12 220.77 37.28 220.93 37.39 221.11 37.45 221.29 37.49 221.48 37.5 221.8 37.49 222.1 37.45 222.38 37.4 222.63 37.33 222.86 37.24 223.06 37.15 223.25 37.03 223.43 36.91 223.58 36.79 223.7 36.65 223.82 36.52 223.92 36.38 223.99 36.25 224.05 36.13 224.09 36 224.12 35.88 224.17 35.58 224.22 35.27 224.26 34.97 224.28 34.7 224.26 34.63 224.22 34.58"/><path class="cls-1" d="M380.87,30.2l-.13-1.61-.2-1.58-.28-1.57-.36-1.53-.43-1.51-.5-1.48-.57-1.45-.64-1.4-.71-1.38-.77-1.33-.83-1.3-.89-1.25-1-1.21-1-1.15-1-1.11-1.11-1-1.16-1-1.21-.94-1.26-.89-1.29-.83-1.34-.77-1.37-.71L361.4,2.5l-1.46-.57-1.48-.5L357,1,355.4.65,353.83.37l-1.59-.2L350.61,0,349,0l-1.65,0-1.62.13-1.59.2-1.57.28L341,1l-1.51.43-1.49.5-1.45.57-1.41.64-1.37.71-1.33.77-1.3.83-1.25.89-1.21.94-.85.74L327,7.28l-1.21-.94-1.25-.89-1.3-.83-1.33-.77-1.37-.71-1.42-.64-1.45-.57-1.49-.5L314.65,1,313.1.65,311.52.37l-1.59-.2L308.3,0l-1.65,0L305,0l-1.62.13-1.59.2-1.57.28L298.67,1l-1.52.43-1.48.5-1.46.57-1.42.64-1.37.71-1.34.77-1.29.83-1.26.89-1.2.94-1.16,1-1.1,1L283,10.45l-1,1.15-1,1.21-.89,1.25-.83,1.3-.77,1.33-.71,1.38-.64,1.4-.56,1.45-.5,1.48-.43,1.51-.36,1.53L275.08,27l-.2,1.58-.13,1.61,0,1.63,0,1.65.13,1.63.2,1.59.28,1.58.36,1.54.43,1.52.5,1.48.56,1.46.64,1.41.71,1.37.77,1.34.83,1.3.89,1.25,1,1.2,1,1.16,1.06,1.11,1.1,1.06,1.16,1,1.2.94,1.26.89,1.29.84,1.34.77,1.37.7,1.42.64,1.46.58,1.48.5,1.52.43,1.55.35,1.57.28,1.59.2,1.62.13,1.65,0,1.65,0,1.63-.12,1.59-.2,1.57-.28,1.55-.35,1.51-.43,1.49-.5,1.45-.58,1.42-.64,1.37-.7,1.33-.77,1.3-.84,1.25-.89L327,56.5l.85-.74.85.74,1.21.94,1.25.89,1.3.84,1.33.77,1.37.7,1.41.64,1.45.58,1.49.5,1.51.43,1.55.35,1.57.28,1.59.2,1.62.13,1.65,0,1.65,0,1.62-.12,1.59-.2,1.57-.28,1.55-.35,1.52-.43,1.48-.5,1.46-.58,1.41-.64,1.38-.7,1.34-.77,1.29-.84,1.26-.89,1.21-.94,1.16-1,1.11-1.06,1-1.11,1-1.16,1-1.2.89-1.25.83-1.3.77-1.34.71-1.37.64-1.41.57-1.46.5-1.48.43-1.52.36-1.54.28-1.58.2-1.59.13-1.62,0-1.65ZM298.4,41.87h-4.1l2.59-14.78h-.16l-6.1,14.78H286l0-.62-.09-1.65-.14-2.33-.16-2.67-.16-2.7-.14-2.38-.1-1.72,0-.72H285l-2.59,14.78h-4.1l3.45-19.74h7.13l.7,11.75,4.85-11.75h7.4Zm15.66-3.35-.6,3.35h-3.78l0-.32,0-.32,0-.28,0-.26,0-.22,0-.19,0-.13,0-.07-.2.23-.25.23-.28.22-.33.21-.35.2-.38.19-.4.17-.41.16-.43.14-.44.12-.44.08-.44.06-.44,0h-.43l-.42,0L304,42l-.53-.12-.47-.17-.43-.2-.38-.22-.33-.24-.29-.27-.25-.28-.21-.31-.18-.31-.15-.33-.12-.34-.09-.34-.06-.34,0-.35,0-.34v-.33l0-.59.09-.56.14-.54.2-.5.24-.47.27-.44.33-.41.35-.39.39-.35.41-.3.44-.28.46-.24.48-.21.49-.17.5-.12.51-.1H306l.16,0,.18,0,.21,0,.23,0,.25,0,.25,0,.25,0,.26,0,.25,0,.23,0h2.69l0-.1.07-.25.05-.3v-.26l0-.19,0-.18-.05-.17-.07-.16-.08-.15-.1-.14-.1-.13-.13-.13-.14-.1-.14-.08-.16-.08-.16-.07-.17-.05-.18,0-.18,0-.18,0h-1.35l-.48,0-.48,0-.48,0-.48.05-.47.05-.45.07-.43.06-.39.07-.37.08-.33.08-.27.08-.22.08-.15.09,1.08-3.56.31-.15.34-.14.33-.12.36-.09.37-.07.38-.06.4-.05.41,0,.42,0,.43,0h2.89l.43,0,.45.06.47.12.47.14.47.18.47.22.44.25.42.29.39.33.35.37.29.41.23.45.17.49.09.53V30l-.08.62Zm4,1.88-.31-.23-.29-.25-.28-.27-.27-.29L316.7,39l-.23-.35-.21-.35-.19-.39-.17-.41-.15-.44-.11-.46-.1-.48-.06-.52,0-.55v-.56l0-.61.05-.63,0-.22,0-.25,0-.25.05-.27.05-.28.07-.29.09-.3.08-.31.11-.33.11-.31.14-.33.15-.32.17-.33.18-.33.2-.32.21-.32,0,0,.21-.26.25-.3.27-.29.3-.27,0,0,.28-.24.35-.25.37-.23.4-.22.42-.19.45-.18.47-.16.5-.13.54-.1.57-.07h.16l.42,0,.63,0h.29l.29,0,.3,0h.09l.21,0,.3,0,.32.06.3.07.3.09.3.09.31.12.29.12.28.15.27.17.27.18.25.21.25.22.23.24.22.26.2.29.18.3.17.33.15.36.13.39.09.41.08.44.05.46,0,.49v.52l0,.56-.05.59,0,.14-.07.48-.13.65-.12.65,0,.27h-9.71l0,.21v.26l0,.28.06.27.08.28.13.28.15.27,0,.07.13.19.2.25.23.24.24.21.26.2.28.17.29.14.32.1.31.07.38.05.38.05.39,0,.39,0h.79l.41,0,.4,0,.41-.06.42-.07.42-.11.42-.14.42-.16.44-.19.43-.23.44-.25-.23,1.29-.25,1.46-.17,1-.24.13-.24.11-.22.1-.23.08-.23.08-.23.06-.24.05-.26.05-.27,0-.3,0-.32,0h-.35l-.38,0h-1.75l-.38,0-.37,0-.38,0-.39-.05-.38-.06-.38-.08-.38-.08-.37-.11-.37-.12-.36-.14L319.1,41l-.34-.18-.27-.15-.07,0-.14-.09Zm23.95-11.26h-.21l-.21,0-.19,0-.19,0-.19,0-.19,0-.2,0-.21,0-.22,0-.23,0-.26,0h-.94l-.39,0h0l-.39,0-.31,0-.28.06-.26.08-.23.09-.21.11-.19.13-.16.15-.12.15-.09.17-.06.18,0,.18v.19l0,.2.07.2.11.2.15.2.3.27.36.22.42.19.45.16.47.16.09,0,.4.13.5.18.48.21.11.06,0,0,.31.18.43.3.38.39.31.46.24.57.16.67.05.8-.05.94-.12.7-.19.63-.24.57-.31.5-.35.44-.39.38-.24.18-.19.14-.46.28-.48.23-.5.19-.51.16-.51.11-.42.07-.1,0-.5.05-.48,0h-2.74l-.45,0-.4,0-.38,0-.34,0-.31,0-.29-.05-.27-.05-.27-.07-.25-.07-.25-.07-.25-.09-.26-.09.21-1.08.29-1.46.15-.75.15,0,.18.05.22.05.24.06.28.05.31.07.34.06.36.06.38.05.4.05.41,0,.43,0,.43,0h.88l.45,0,.42-.07.35-.11.26-.17.21-.19.16-.22.12-.23.09-.23.06-.23,0-.22v-.23l-.05-.2-.09-.17-.11-.17-.15-.15-.18-.14-.2-.13-.22-.11-.24-.12-.26-.11-.27-.1-.27-.11-.29-.12-.29-.12-.3-.13-.29-.13-.29-.14-.29-.16-.28-.17-.27-.18-.25-.2-.24-.23-.22-.24-.2-.27-.12-.2-.06-.09-.15-.33-.12-.35-.08-.39-.05-.42v-.46l0-.49,0-.3,0-.29,0-.28.06-.27.06-.26.07-.26.09-.24.09-.24L332,28l.12-.22.14-.2.15-.2,0,0,.14-.17.17-.18.18-.17.2-.16.21-.15.22-.14.24-.12.25-.13.26-.1.28-.1.3-.08.31-.09.34-.07.35-.06.36-.05h.11l.27,0,.4,0,.42,0,.43,0h2l.42,0,.37,0,.34,0,.3,0,.26,0,.24,0,.21,0,.2,0,.17,0,.15,0,.14,0,.12,0h.12Zm5,8.77,0,.13.06.11.07.1.1.08.1.06.13.07.13.05.14,0,.15,0,.17,0H349l.29,0,.27,0,.23-.05.18-.05.14-.05.08,0h0l-.43,2.86-.1.06-.12.05-.12.05-.12.05-.11,0-.13,0-.12,0-.15,0-.15,0-.16,0-.18,0-.19,0-.2,0-.21,0-.24,0-.25,0H346.1l-.6,0-.53-.06-.47-.09-.41-.12-.35-.12-.29-.16-.24-.18-.2-.2-.16-.22-.12-.24-.07-.26,0-.29v-.64l0-.35.05-.38,2.8-16.39h4.21l-.65,3.67h2.59l-.59,3.34-2.65-.05L347,37.45l0,.18v.16Zm12.65-8-.47.1-.42.14-.36.17-.33.19-.27.21-.24.23-.2.26-.18.27-.15.28-.12.3-.1.3-.08.32-.07.33-.06.34-1.46,8.52H350.9l2.81-16.12,4.27.05-.49,2.69.22-.3.22-.29.21-.28.22-.26.23-.25.22-.23.24-.22.26-.2.26-.18.29-.17.3-.14.34-.12.36-.09.39-.09.42-.05.46,0h.1l.11,0h.13l.1,0,.11,0h.07l.05,0h0l0,0-.07.12-.1.18-.13.22-.15.26-.14.28-.14.28-.12.3-.16.4-.14.42-.11.42-.11.39-.08.35-.05.27,0,.18v.06h-.48l-.59,0Zm17.57,3.76,0,.54-.06.51-.07.49-.09.48-.1.46-.14.44-.15.43-.16.41-.19.39-.19.38-.22.36-.22.34-.24.33-.26.3-.27.28-.28.27-.29.25-.3.24-.32.22-.33.2-.35.19-.36.17-.35.16-.38.14-.38.13-.4.11-.4.09-.4.07-.42.05-.42,0-.43,0h-.86l-.43,0-.41,0-.41-.06-.4-.07-.4-.08-.38-.11-.37-.12-.37-.14-.35-.16-.33-.17L364,41l-.31-.2-.29-.22-.29-.23-.27-.25-.25-.26-.25-.28-.22-.29-.22-.31-.19-.33-.19-.35-.16-.36-.15-.37-.12-.39-.12-.41-.09-.42-.07-.43-.05-.45,0-.46V34l0-.5.05-.48.07-.47.09-.45.11-.44.13-.43.14-.41.16-.4.17-.39.19-.37.21-.35.22-.35.23-.31.25-.32L363,28l.27-.28.29-.26.3-.24.31-.23.33-.21.34-.19.36-.19.37-.16.37-.15.39-.12.4-.12.41-.09.42-.08.43-.05.44-.05.45,0h.92l.46,0,.45,0,.44.06.42.09.41.1.39.12.39.14.37.16.35.17.35.18.31.2.31.22.29.23.27.24.26.26.25.27.23.29.21.29.2.31.19.32.16.35.16.35.13.37.12.37.09.39.08.4.06.41,0,.41,0,.43v.88Z"/><polygon class="cls-1" points="325.9 31.6 325.9 31.23 325.88 30.89 325.82 30.57 325.74 30.29 325.63 30.03 325.5 29.8 325.34 29.59 325.16 29.4 324.96 29.25 324.75 29.12 324.53 29.01 324.29 28.93 324.04 28.86 323.78 28.84 323.5 28.82 323.21 28.82 322.94 28.86 322.67 28.92 322.41 29 322.17 29.12 321.94 29.25 321.72 29.41 321.52 29.59 321.33 29.8 321.17 30.02 321.01 30.26 320.86 30.52 320.74 30.79 320.63 31.09 320.55 31.4 320.47 31.73 320.42 32 325.87 32 325.9 31.6"/><polygon class="cls-1" points="310.37 34.44 310.26 34.39 310.13 34.36 309.95 34.34 309.76 34.33 309.54 34.33 309.31 34.33 309.07 34.35 308.82 34.38 308.58 34.41 308.34 34.45 308.11 34.49 307.89 34.54 307.7 34.59 307.53 34.64 307.44 34.66 307.31 34.7 307.15 34.76 306.99 34.83 306.81 34.9 306.61 35 306.41 35.11 306.21 35.23 306.01 35.38 305.82 35.53 305.64 35.7 305.49 35.89 305.34 36.09 305.23 36.31 305.15 36.55 305.1 36.8 305.08 37.31 305.15 37.71 305.28 38.03 305.46 38.26 305.7 38.41 305.94 38.52 306.2 38.57 306.45 38.58 306.91 38.57 307.32 38.53 307.71 38.46 308.05 38.36 308.37 38.26 308.65 38.13 308.9 37.98 309.12 37.83 309.32 37.67 309.49 37.49 309.64 37.32 309.76 37.15 309.87 36.97 309.95 36.8 310.01 36.63 310.07 36.48 310.12 36.24 310.17 36 310.22 35.75 310.28 35.49 310.32 35.24 310.36 35.01 310.4 34.79 310.44 34.59 310.43 34.5 310.37 34.44"/><polygon class="cls-1" points="372.12 31.29 372.03 30.93 371.92 30.61 371.78 30.3 371.62 30.03 371.43 29.8 371.2 29.59 370.96 29.42 370.69 29.28 370.4 29.2 370.08 29.15 369.74 29.15 369.31 29.18 368.91 29.25 368.54 29.38 368.2 29.54 367.88 29.75 367.59 29.98 367.33 30.24 367.1 30.53 366.88 30.85 366.69 31.18 366.52 31.52 366.38 31.87 366.26 32.23 366.15 32.59 366.08 32.94 366.02 33.29 365.95 33.88 365.92 34.42 365.92 34.91 365.95 35.38 366.02 35.79 366.11 36.16 366.23 36.5 366.37 36.8 366.55 37.06 366.75 37.28 366.97 37.47 367.21 37.62 367.47 37.73 367.77 37.82 368.07 37.86 368.4 37.88 368.75 37.87 369.1 37.83 369.42 37.75 369.74 37.64 370.03 37.49 370.31 37.3 370.57 37.08 370.83 36.82 371.05 36.53 371.26 36.19 371.46 35.81 371.62 35.41 371.78 34.96 371.92 34.46 372.02 33.93 372.12 33.35 372.17 32.9 372.2 32.47 372.2 32.05 372.17 31.66 372.12 31.29"/></g></g></svg>