<svg xmlns="http://www.w3.org/2000/svg" viewBox="0 0 380.91 63.79"><defs><style>.cls-1,.cls-4{fill:#fff;}.cls-2{fill:#fbb216;}.cls-2,.cls-3,.cls-4{fill-rule:evenodd;}.cls-3,.cls-6{fill:#ec1c27;}.cls-5,.cls-8{fill:none;stroke:#fff;}.cls-5{stroke-miterlimit:2.61;stroke-width:0.22px;}.cls-7{fill:#0082c5;}.cls-8{stroke-width:0.21px;}</style></defs><title>creditcard</title><g id="Layer_2" data-name="Layer 2"><g id="Layer_1-2" data-name="Layer 1"><polygon class="cls-1" points="53.27 52.24 43.25 52.24 49.51 13.72 59.54 13.72 53.27 52.24"/><path class="cls-1" d="M34.81,13.72,25.25,40.21l-1.13-5.7h0L20.74,17.19s-.41-3.47-4.76-3.47H.18L0,14.38a37.46,37.46,0,0,1,10.49,4.4L19.2,52.24H29.65l16-38.52Z"/><path class="cls-1" d="M113.69,52.24h9.21l-8-38.52H106.8a4.61,4.61,0,0,0-4.63,2.87l-15,35.65H97.67l2.09-5.72h12.75Zm-11-13.62,5.27-14.42,3,14.42Z"/><path class="cls-1" d="M88,23l1.43-8.27a29,29,0,0,0-9-1.68c-5,0-16.79,2.18-16.79,12.75,0,10,13.87,10.08,13.87,15.3s-12.44,4.29-16.55,1l-1.49,8.65A28.08,28.08,0,0,0,70.77,52.9c6.84,0,17.17-3.54,17.17-13.19,0-10-14-10.95-14-15.3S83.71,20.62,88,23Z"/><path class="cls-1" d="M24.12,34.51,20.74,17.19s-.41-3.47-4.76-3.47H.18L0,14.38a38.86,38.86,0,0,1,14.88,7.47A30,30,0,0,1,24.12,34.51Z"/><polygon class="cls-2" points="219.54 63.68 221.17 63.63 222.79 63.52 224.38 63.31 225.96 63.03 227.49 62.68 229 62.25 230.48 61.75 231.93 61.18 233.34 60.54 234.72 59.84 236.04 59.07 237.34 58.24 238.59 57.35 239.79 56.41 240.94 55.41 242.05 54.35 243.11 53.25 244.11 52.09 245.05 50.89 245.94 49.65 246.77 48.35 247.54 47.02 248.23 45.65 248.88 44.23 249.45 42.78 249.95 41.3 250.38 39.79 250.73 38.26 251.01 36.68 251.22 35.1 251.33 33.48 251.38 31.84 251.33 30.21 251.22 28.6 251.01 27.01 250.73 25.46 250.38 23.93 249.95 22.42 249.45 20.95 248.88 19.51 248.23 18.1 247.54 16.73 246.77 15.41 245.94 14.12 245.05 12.87 244.11 11.68 243.11 10.53 242.05 9.42 240.94 8.37 239.79 7.37 238.59 6.43 237.34 5.54 236.04 4.71 234.72 3.95 233.34 3.26 231.93 2.61 230.48 2.04 229 1.54 227.49 1.11 225.96 0.76 224.38 0.48 222.79 0.28 221.17 0.16 219.54 0.11 217.9 0.16 216.29 0.28 214.7 0.48 213.13 0.76 211.6 1.11 210.09 1.54 208.62 2.04 207.17 2.61 205.77 3.26 204.41 3.95 203.08 4.71 201.79 5.54 200.55 6.43 199.35 7.37 198.2 8.37 197.09 9.42 196.05 10.53 195.05 11.68 194.1 12.87 193.23 14.12 192.4 15.41 191.64 16.73 190.93 18.1 190.3 19.51 189.73 20.95 189.24 22.42 188.81 23.93 188.46 25.46 188.18 27.01 187.97 28.6 187.85 30.21 187.81 31.84 187.85 33.48 187.97 35.1 188.18 36.68 188.46 38.26 188.81 39.79 189.24 41.3 189.73 42.78 190.3 44.23 190.93 45.65 191.64 47.02 192.4 48.35 193.23 49.65 194.1 50.89 195.05 52.09 196.05 53.25 197.09 54.35 198.2 55.41 199.35 56.41 200.55 57.35 201.79 58.24 203.08 59.07 204.41 59.84 205.77 60.54 207.17 61.18 208.62 61.75 210.09 62.25 211.6 62.68 213.13 63.03 214.7 63.31 216.29 63.52 217.9 63.63 219.54 63.68 219.54 63.68 219.54 63.68"/><polygon class="cls-3" points="177.02 63.68 178.64 63.63 180.26 63.52 181.85 63.31 183.42 63.03 184.95 62.68 186.46 62.25 187.93 61.75 189.38 61.18 190.78 60.54 192.14 59.84 193.47 59.07 194.76 58.24 196 57.35 197.2 56.41 198.35 55.41 199.46 54.35 200.51 53.25 201.5 52.09 202.45 50.89 203.32 49.65 204.15 48.35 204.91 47.02 205.62 45.65 206.25 44.23 206.82 42.78 207.31 41.3 207.74 39.79 208.1 38.26 208.37 36.68 208.58 35.1 208.69 33.48 208.74 31.84 208.69 30.21 208.58 28.6 208.37 27.01 208.1 25.46 207.74 23.93 207.31 22.42 206.82 20.95 206.25 19.51 205.62 18.1 204.91 16.73 204.15 15.41 203.32 14.12 202.45 12.87 201.5 11.68 200.51 10.53 199.46 9.42 198.35 8.37 197.2 7.37 196 6.43 194.76 5.54 193.47 4.71 192.14 3.95 190.78 3.26 189.38 2.61 187.93 2.04 186.46 1.54 184.95 1.11 183.42 0.76 181.85 0.48 180.26 0.28 178.64 0.16 177.02 0.11 175.38 0.16 173.76 0.28 172.17 0.48 170.59 0.76 169.06 1.11 167.55 1.54 166.07 2.04 164.62 2.61 163.21 3.26 161.84 3.95 160.51 4.71 159.21 5.54 157.96 6.43 156.76 7.37 155.61 8.37 154.5 9.42 153.44 10.53 152.44 11.68 151.5 12.87 150.61 14.12 149.78 15.41 149.01 16.73 148.32 18.1 147.67 19.51 147.1 20.95 146.6 22.42 146.17 23.93 145.82 25.46 145.54 27.01 145.34 28.6 145.22 30.21 145.18 31.84 145.22 33.48 145.34 35.1 145.54 36.68 145.82 38.26 146.17 39.79 146.6 41.3 147.1 42.78 147.67 44.23 148.32 45.65 149.01 47.02 149.78 48.35 150.61 49.65 151.5 50.89 152.44 52.09 153.44 53.25 154.5 54.35 155.61 55.41 156.76 56.41 157.96 57.35 159.21 58.24 160.51 59.07 161.84 59.84 163.21 60.54 164.62 61.18 166.07 61.75 167.55 62.25 169.06 62.68 170.59 63.03 172.17 63.31 173.76 63.52 175.38 63.63 177.02 63.68 177.02 63.68 177.02 63.68"/><polygon class="cls-2" points="194.56 12.3 211.44 12.3 211.44 10.58 196.01 10.58 194.56 12.3 194.56 12.3 194.56 12.3"/><polygon class="cls-2" points="192.03 16.14 211.44 16.14 211.44 14.41 193.04 14.41 192.03 16.14 192.03 16.14 192.03 16.14"/><polygon class="cls-2" points="190.14 19.97 211.44 19.97 211.44 18.24 190.89 18.24 190.14 19.97 190.14 19.97 190.14 19.97"/><polygon class="cls-2" points="188.84 23.81 211.44 23.81 211.44 22.08 189.38 22.08 188.84 23.81 188.84 23.81 188.84 23.81"/><polygon class="cls-2" points="189.59 42.35 211.49 42.35 211.49 40.63 189.06 40.63 189.59 42.35 189.59 42.35 189.59 42.35"/><polygon class="cls-2" points="191.21 46.19 211.49 46.19 211.49 44.47 190.41 44.47 191.21 46.19 191.21 46.19 191.21 46.19"/><polygon class="cls-2" points="193.48 50.02 211.49 50.02 211.49 48.29 192.4 48.29 193.48 50.02 193.48 50.02 193.48 50.02"/><polygon class="cls-2" points="196.61 53.86 211.49 53.86 211.49 52.12 195.1 52.12 196.61 53.86 196.61 53.86 196.61 53.86"/><polygon class="cls-2" points="188.08 27.64 211.44 27.64 211.44 25.91 188.41 25.91 188.08 27.64 188.08 27.64 188.08 27.64"/><polygon class="cls-2" points="202.32 38.53 211.23 38.53 211.23 36.8 202.64 36.8 202.32 38.53 202.32 38.53 202.32 38.53"/><polygon class="cls-2" points="203.03 34.7 211.23 34.7 211.23 32.96 203.35 32.96 203.03 34.7 203.03 34.7 203.03 34.7"/><polygon class="cls-2" points="187.49 32.96 189.81 32.96 189.81 34.7 187.6 34.7 187.49 32.96 187.49 32.96 187.49 32.96"/><polygon class="cls-4" points="183.17 30.87 183.02 30.86 182.87 30.84 182.73 30.82 182.59 30.8 182.46 30.78 182.32 30.75 182.19 30.73 182.03 30.71 181.88 30.69 181.71 30.68 181.52 30.67 181.32 30.66 181.09 30.66 180.84 30.67 180.56 30.69 180.25 30.71 180.04 30.74 179.84 30.78 179.65 30.84 179.49 30.9 179.34 30.98 179.2 31.07 179.09 31.17 179 31.27 178.94 31.39 178.88 31.5 178.86 31.63 178.86 31.76 178.89 31.9 178.94 32.04 179.02 32.18 179.13 32.32 179.34 32.52 179.6 32.68 179.9 32.82 180.22 32.94 180.56 33.05 180.92 33.17 181.27 33.3 181.61 33.43 181.94 33.62 182.24 33.84 182.5 34.11 182.73 34.44 182.9 34.85 183.01 35.33 183.05 35.91 183.01 36.59 182.93 37.09 182.81 37.53 182.63 37.94 182.42 38.29 182.17 38.6 181.89 38.87 181.59 39.11 181.26 39.31 180.92 39.47 180.56 39.61 180.2 39.72 179.82 39.8 179.46 39.87 179.11 39.9 178.75 39.92 178.42 39.93 177.96 39.93 177.53 39.92 177.16 39.92 176.8 39.91 176.48 39.9 176.19 39.88 175.93 39.86 175.69 39.82 175.46 39.8 175.26 39.76 175.05 39.73 174.87 39.67 174.69 39.63 174.52 39.57 174.35 39.5 174.16 39.44 174.65 37.07 174.74 37.09 174.86 37.12 175.01 37.16 175.19 37.21 175.39 37.25 175.6 37.29 175.84 37.35 176.09 37.39 176.36 37.43 176.64 37.48 176.93 37.51 177.23 37.54 177.54 37.55 177.85 37.56 178.16 37.56 178.47 37.55 178.78 37.49 179.03 37.4 179.22 37.28 179.38 37.13 179.48 36.98 179.57 36.81 179.62 36.64 179.66 36.48 179.69 36.17 179.59 35.9 179.41 35.69 179.14 35.5 178.82 35.34 178.44 35.18 178.02 35.03 177.61 34.86 177.18 34.67 176.77 34.44 176.4 34.16 176.05 33.83 175.78 33.42 175.59 32.94 175.49 32.36 175.5 31.68 175.56 31.26 175.63 30.86 175.74 30.5 175.87 30.15 176.04 29.83 176.23 29.55 176.46 29.29 176.73 29.05 177.04 28.85 177.38 28.67 177.77 28.51 178.19 28.4 178.68 28.3 179.2 28.22 179.78 28.18 180.42 28.17 180.81 28.17 181.18 28.18 181.51 28.19 181.81 28.2 182.08 28.22 182.32 28.25 182.54 28.27 182.73 28.29 182.91 28.31 183.06 28.34 183.2 28.36 183.33 28.39 183.44 28.41 183.53 28.42 183.63 28.44 183.72 28.45 183.17 30.87 183.17 30.87 183.17 30.87"/><polyline class="cls-5" points="183.17 30.87 183.17 30.87 183.02 30.86 182.87 30.84 182.73 30.82 182.59 30.8 182.46 30.78 182.32 30.75 182.19 30.73 182.03 30.71 181.88 30.69 181.71 30.68 181.52 30.67 181.32 30.66 181.09 30.66 180.84 30.67 180.56 30.69 180.25 30.71 180.25 30.71 180.04 30.74 179.84 30.78 179.65 30.84 179.49 30.9 179.34 30.98 179.2 31.07 179.09 31.17 179 31.27 178.94 31.39 178.88 31.5 178.86 31.63 178.86 31.76 178.89 31.9 178.94 32.04 179.02 32.18 179.13 32.32 179.13 32.32 179.34 32.52 179.6 32.68 179.9 32.82 180.22 32.94 180.56 33.05 180.92 33.17 181.27 33.3 181.61 33.43 181.94 33.62 182.24 33.84 182.5 34.11 182.73 34.44 182.9 34.85 183.01 35.33 183.05 35.91 183.01 36.59 183.01 36.59 182.93 37.09 182.81 37.53 182.63 37.94 182.42 38.29 182.17 38.6 181.89 38.87 181.59 39.11 181.26 39.31 180.92 39.47 180.56 39.61 180.2 39.72 179.82 39.8 179.46 39.87 179.11 39.9 178.75 39.92 178.42 39.93 178.42 39.93 177.96 39.93 177.53 39.92 177.16 39.92 176.8 39.91 176.48 39.9 176.19 39.88 175.93 39.86 175.69 39.82 175.46 39.8 175.26 39.76 175.05 39.73 174.87 39.67 174.69 39.63 174.52 39.57 174.35 39.5 174.16 39.44 174.65 37.07 174.65 37.07 174.74 37.09 174.86 37.12 175.01 37.16 175.19 37.21 175.39 37.25 175.6 37.29 175.84 37.35 176.09 37.39 176.36 37.43 176.64 37.48 176.93 37.51 177.23 37.54 177.54 37.55 177.85 37.56 178.16 37.56 178.47 37.55 178.47 37.55 178.78 37.49 179.03 37.4 179.22 37.28 179.38 37.13 179.48 36.98 179.57 36.81 179.62 36.64 179.66 36.48 179.66 36.48 179.69 36.17 179.59 35.9 179.41 35.69 179.14 35.5 178.82 35.34 178.44 35.18 178.02 35.03 177.61 34.86 177.18 34.67 176.77 34.44 176.4 34.16 176.05 33.83 175.78 33.42 175.59 32.94 175.49 32.36 175.5 31.68 175.5 31.68 175.56 31.26 175.63 30.86 175.74 30.5 175.87 30.15 176.04 29.83 176.23 29.55 176.46 29.29 176.73 29.05 177.04 28.85 177.38 28.67 177.77 28.51 178.19 28.4 178.68 28.3 179.2 28.22 179.78 28.18 180.42 28.17 180.42 28.17 180.81 28.17 181.18 28.18 181.51 28.19 181.81 28.2 182.08 28.22 182.32 28.25 182.54 28.27 182.73 28.29 182.91 28.31 183.06 28.34 183.2 28.36 183.33 28.39 183.44 28.41 183.53 28.42 183.63 28.44 183.72 28.45 183.17 30.87"/><polygon class="cls-4" points="185.71 25.8 188.68 25.8 188.24 28.4 190.03 28.4 189.65 30.82 187.76 30.77 186.73 36.75 186.72 36.96 186.77 37.15 186.88 37.28 187.02 37.4 187.21 37.48 187.43 37.54 187.66 37.58 187.92 37.61 188.15 37.59 188.37 37.57 188.56 37.54 188.73 37.5 188.87 37.45 188.97 37.42 189.03 37.4 189.06 37.39 188.68 39.38 188.6 39.44 188.53 39.48 188.46 39.52 188.38 39.57 188.31 39.6 188.22 39.63 188.12 39.66 188.03 39.7 187.92 39.73 187.81 39.75 187.68 39.77 187.56 39.79 187.42 39.81 187.25 39.84 187.08 39.86 186.9 39.88 186.08 39.88 185.66 39.84 185.28 39.8 184.94 39.74 184.65 39.66 184.4 39.57 184.2 39.46 184.02 39.33 183.88 39.19 183.77 39.04 183.69 38.86 183.64 38.68 183.61 38.47 183.6 38.25 183.6 38.01 183.63 37.77 183.66 37.5 185.71 25.8 185.71 25.8 185.71 25.8"/><polyline class="cls-5" points="185.71 25.8 188.68 25.8 188.24 28.4 190.03 28.4 189.65 30.82 187.76 30.77 186.73 36.75 186.73 36.75 186.72 36.96 186.77 37.15 186.88 37.28 187.02 37.4 187.21 37.48 187.43 37.54 187.66 37.58 187.92 37.61 187.92 37.61 188.15 37.59 188.37 37.57 188.56 37.54 188.73 37.5 188.87 37.45 188.97 37.42 189.03 37.4 189.06 37.39 188.68 39.38 188.68 39.38 188.6 39.44 188.53 39.48 188.46 39.52 188.38 39.57 188.31 39.6 188.22 39.63 188.12 39.66 188.03 39.7 187.92 39.73 187.81 39.75 187.68 39.77 187.56 39.79 187.42 39.81 187.25 39.84 187.08 39.86 186.9 39.88 186.08 39.88 186.08 39.88 185.66 39.84 185.28 39.8 184.94 39.74 184.65 39.66 184.4 39.57 184.2 39.46 184.02 39.33 183.88 39.19 183.77 39.04 183.69 38.86 183.64 38.68 183.61 38.47 183.6 38.25 183.6 38.01 183.63 37.77 183.66 37.5 185.71 25.8"/><polyline class="cls-5" points="192.4 34.86 192.4 34.86 192.37 35.04 192.36 35.23 192.38 35.44 192.42 35.64 192.5 35.85 192.58 36.04 192.7 36.24 192.83 36.42 192.98 36.61 193.14 36.77 193.31 36.93 193.5 37.06 193.7 37.18 193.91 37.27 194.13 37.35 194.34 37.39 194.34 37.39 194.62 37.43 194.89 37.47 195.17 37.5 195.44 37.52 195.72 37.53 196.01 37.53 196.29 37.52 196.58 37.5 196.87 37.45 197.16 37.4 197.46 37.34 197.75 37.24 198.05 37.12 198.36 36.99 198.66 36.82 198.97 36.64 198.54 39.28 198.54 39.28 198.37 39.36 198.2 39.45 198.03 39.51 197.87 39.58 197.71 39.63 197.53 39.69 197.36 39.73 197.18 39.76 196.99 39.79 196.78 39.81 196.55 39.84 196.3 39.86 196.02 39.87 195.74 39.87 195.4 39.88 195.05 39.88 195.05 39.88 194.52 39.87 193.99 39.81 193.45 39.74 192.91 39.61 192.39 39.45 191.89 39.24 191.4 38.98 190.95 38.67 190.53 38.3 190.17 37.86 189.86 37.37 189.6 36.8 189.42 36.17 189.3 35.45 189.27 34.66 189.32 33.78 189.32 33.78 189.37 33.43 189.43 33.04 189.52 32.62 189.63 32.17 189.8 31.71 189.99 31.25 190.23 30.78 190.53 30.33 190.88 29.9 191.29 29.49 191.77 29.13 192.3 28.8 192.93 28.54 193.62 28.34 194.39 28.21 195.26 28.17 195.26 28.17 195.68 28.18 196.12 28.22 196.56 28.3 197 28.41 197.43 28.57 197.85 28.76 198.23 29.02 198.59 29.32 198.91 29.68 199.18 30.11 199.39 30.61 199.54 31.17 199.63 31.81 199.64 32.54 199.56 33.36 199.4 34.26 199.35 34.91 191.53 34.91 192.03 32.8 196.72 32.8 196.72 32.8 196.74 32.53 196.73 32.28 196.71 32.04 196.67 31.83 196.59 31.62 196.52 31.44 196.41 31.28 196.3 31.13 196.18 31 196.03 30.89 195.87 30.8 195.71 30.71 195.54 30.65 195.37 30.61 195.19 30.57 195 30.55 195 30.55 194.79 30.56 194.6 30.59 194.42 30.64 194.23 30.7 194.05 30.79 193.89 30.88 193.73 31 193.59 31.13 193.45 31.28 193.32 31.44 193.21 31.61 193.11 31.8 193.01 31.99 192.94 32.2 192.87 32.42 192.83 32.64 192.4 34.86"/><polygon class="cls-4" points="217.97 29.04 217.83 28.96 217.69 28.9 217.54 28.82 217.38 28.75 217.22 28.68 217.04 28.62 216.85 28.56 216.66 28.49 216.46 28.44 216.25 28.4 216.03 28.35 215.81 28.32 215.56 28.3 215.31 28.28 215.05 28.28 214.79 28.28 214.52 28.28 214.24 28.3 213.95 28.33 213.65 28.39 213.35 28.47 213.05 28.59 212.75 28.74 212.45 28.93 212.16 29.17 211.88 29.45 211.61 29.79 211.36 30.19 211.12 30.66 210.89 31.19 210.69 31.8 210.52 32.48 210.45 32.87 210.41 33.24 210.39 33.62 210.4 33.98 210.43 34.35 210.51 34.69 210.6 35.01 210.72 35.33 210.88 35.62 211.07 35.9 211.3 36.15 211.56 36.37 211.85 36.56 212.18 36.73 212.54 36.87 212.95 36.96 213.09 36.99 213.25 37.02 213.45 37.05 213.66 37.07 213.9 37.09 214.14 37.09 214.41 37.09 214.68 37.07 214.96 37.03 215.24 36.98 215.5 36.91 215.77 36.82 216.04 36.7 216.29 36.56 216.51 36.39 216.73 36.2 216.25 39.06 216.18 39.12 216.12 39.18 216.03 39.26 215.93 39.32 215.82 39.41 215.66 39.48 215.49 39.56 215.3 39.62 215.05 39.7 214.78 39.75 214.45 39.79 214.08 39.84 213.66 39.86 213.18 39.87 212.63 39.86 212.03 39.82 211.54 39.77 211.04 39.66 210.55 39.5 210.06 39.29 209.59 39.03 209.13 38.71 208.71 38.33 208.31 37.91 207.96 37.42 207.66 36.89 207.4 36.29 207.21 35.63 207.08 34.91 207.03 34.15 207.06 33.32 207.17 32.43 207.26 31.99 207.35 31.56 207.46 31.14 207.57 30.74 207.69 30.37 207.83 29.99 207.97 29.64 208.12 29.31 208.28 28.98 208.44 28.66 208.62 28.36 208.81 28.09 209.01 27.82 209.22 27.56 209.44 27.32 209.66 27.1 209.91 26.88 210.15 26.68 210.41 26.5 210.68 26.33 210.97 26.17 211.26 26.03 211.56 25.9 211.87 25.78 212.2 25.67 212.53 25.59 212.88 25.51 213.24 25.45 213.61 25.39 213.99 25.35 214.38 25.33 214.79 25.32 215.13 25.33 215.46 25.35 215.78 25.38 216.1 25.43 216.41 25.47 216.69 25.53 216.97 25.59 217.23 25.65 217.48 25.71 217.69 25.78 217.9 25.84 218.07 25.91 218.22 25.96 218.34 26.01 218.44 26.05 218.51 26.07 217.97 29.04 217.97 29.04 217.97 29.04"/><polyline class="cls-5" points="217.97 29.04 217.97 29.04 217.83 28.96 217.69 28.9 217.54 28.82 217.38 28.75 217.22 28.68 217.04 28.62 216.85 28.56 216.66 28.49 216.46 28.44 216.25 28.4 216.03 28.35 215.81 28.32 215.56 28.3 215.31 28.28 215.05 28.28 214.79 28.28 214.79 28.28 214.52 28.28 214.24 28.3 213.95 28.33 213.65 28.39 213.35 28.47 213.05 28.59 212.75 28.74 212.45 28.93 212.16 29.17 211.88 29.45 211.61 29.79 211.36 30.19 211.12 30.66 210.89 31.19 210.69 31.8 210.52 32.48 210.52 32.48 210.45 32.87 210.41 33.24 210.39 33.62 210.4 33.98 210.43 34.35 210.51 34.69 210.6 35.01 210.72 35.33 210.88 35.62 211.07 35.9 211.3 36.15 211.56 36.37 211.85 36.56 212.18 36.73 212.54 36.87 212.95 36.96 212.95 36.96 213.09 36.99 213.25 37.02 213.45 37.05 213.66 37.07 213.9 37.09 214.14 37.09 214.41 37.09 214.68 37.07 214.96 37.03 215.24 36.98 215.5 36.91 215.77 36.82 216.04 36.7 216.29 36.56 216.51 36.39 216.73 36.2 216.25 39.06 216.25 39.06 216.18 39.12 216.12 39.18 216.03 39.26 215.93 39.32 215.82 39.41 215.66 39.48 215.49 39.56 215.3 39.62 215.05 39.7 214.78 39.75 214.45 39.79 214.08 39.84 213.66 39.86 213.18 39.87 212.63 39.86 212.03 39.82 212.03 39.82 211.54 39.77 211.04 39.66 210.55 39.5 210.06 39.29 209.59 39.03 209.13 38.71 208.71 38.33 208.31 37.91 207.96 37.42 207.66 36.89 207.4 36.29 207.21 35.63 207.08 34.91 207.03 34.15 207.06 33.32 207.17 32.43 207.17 32.43 207.26 31.99 207.35 31.56 207.46 31.14 207.57 30.74 207.69 30.37 207.83 29.99 207.97 29.64 208.12 29.31 208.28 28.98 208.44 28.66 208.62 28.36 208.81 28.09 209.01 27.82 209.22 27.56 209.44 27.32 209.66 27.1 209.91 26.88 210.15 26.68 210.41 26.5 210.68 26.33 210.97 26.17 211.26 26.03 211.56 25.9 211.87 25.78 212.2 25.67 212.53 25.59 212.88 25.51 213.24 25.45 213.61 25.39 213.99 25.35 214.38 25.33 214.79 25.32 214.79 25.32 215.13 25.33 215.46 25.35 215.78 25.38 216.1 25.43 216.41 25.47 216.69 25.53 216.97 25.59 217.23 25.65 217.48 25.71 217.69 25.78 217.9 25.84 218.07 25.91 218.22 25.96 218.34 26.01 218.44 26.05 218.51 26.07 217.97 29.04"/><polygon class="cls-4" points="244.36 39.88 241.39 39.88 241.61 38.69 241.61 38.58 241.44 38.8 241.25 38.99 241.07 39.16 240.88 39.31 240.69 39.45 240.49 39.57 240.3 39.66 240.1 39.76 239.89 39.84 239.69 39.89 239.49 39.94 239.27 39.97 239.06 40.01 238.85 40.03 238.64 40.04 238.43 40.04 237.87 39.99 237.35 39.88 236.88 39.7 236.45 39.45 236.07 39.14 235.72 38.77 235.42 38.38 235.17 37.93 234.95 37.44 234.78 36.94 234.66 36.42 234.58 35.87 234.54 35.32 234.56 34.77 234.61 34.22 234.71 33.67 234.87 33.04 235.06 32.44 235.28 31.89 235.55 31.38 235.83 30.89 236.15 30.46 236.48 30.08 236.84 29.73 237.21 29.41 237.61 29.15 238.02 28.91 238.43 28.73 238.85 28.58 239.28 28.48 239.71 28.42 240.15 28.4 240.46 28.41 240.76 28.44 241.04 28.49 241.3 28.57 241.54 28.66 241.76 28.75 241.97 28.87 242.17 28.99 242.34 29.11 242.5 29.25 242.64 29.39 242.77 29.53 242.87 29.67 242.97 29.81 243.06 29.94 243.12 30.07 243.12 30.07 243.87 25.86 246.79 25.86 244.36 39.88 244.36 39.88 244.36 39.88"/><polyline class="cls-5" points="244.36 39.88 241.39 39.88 241.61 38.69 241.61 38.58 241.61 38.58 241.44 38.8 241.25 38.99 241.07 39.16 240.88 39.31 240.69 39.45 240.49 39.57 240.3 39.66 240.1 39.76 239.89 39.84 239.69 39.89 239.49 39.94 239.27 39.97 239.06 40.01 238.85 40.03 238.64 40.04 238.43 40.04 238.43 40.04 237.87 39.99 237.35 39.88 236.88 39.7 236.45 39.45 236.07 39.14 235.72 38.77 235.42 38.38 235.17 37.93 234.95 37.44 234.78 36.94 234.66 36.42 234.58 35.87 234.54 35.32 234.56 34.77 234.61 34.22 234.71 33.67 234.71 33.67 234.87 33.04 235.06 32.44 235.28 31.89 235.55 31.38 235.83 30.89 236.15 30.46 236.48 30.08 236.84 29.73 237.21 29.41 237.61 29.15 238.02 28.91 238.43 28.73 238.85 28.58 239.28 28.48 239.71 28.42 240.15 28.4 240.15 28.4 240.46 28.41 240.76 28.44 241.04 28.49 241.3 28.57 241.54 28.66 241.76 28.75 241.97 28.87 242.17 28.99 242.34 29.11 242.5 29.25 242.64 29.39 242.77 29.53 242.87 29.67 242.97 29.81 243.06 29.94 243.12 30.07 243.12 30.07 243.87 25.86 246.79 25.86 244.36 39.88"/><polygon class="cls-2" points="239.51 37.28 239.81 37.26 240.09 37.2 240.34 37.12 240.59 37.01 240.82 36.88 241.03 36.72 241.23 36.53 241.42 36.34 241.58 36.13 241.73 35.89 241.87 35.64 241.99 35.39 242.09 35.12 242.18 34.84 242.25 34.55 242.31 34.26 242.36 33.96 242.39 33.65 242.39 33.36 242.38 33.06 242.35 32.78 242.31 32.51 242.23 32.26 242.15 32.01 242.04 31.8 241.91 31.59 241.77 31.42 241.61 31.27 241.43 31.14 241.23 31.05 241.03 31 240.81 30.98 240.51 31 240.25 31.04 240 31.13 239.75 31.24 239.54 31.38 239.33 31.55 239.14 31.73 238.96 31.93 238.8 32.17 238.65 32.42 238.51 32.67 238.39 32.95 238.28 33.24 238.2 33.53 238.11 33.84 238.05 34.15 238 34.63 238.02 35.14 238.09 35.66 238.23 36.17 238.45 36.61 238.73 36.96 239.08 37.2 239.51 37.28 239.51 37.28 239.51 37.28"/><polygon class="cls-4" points="173.67 37.5 173.24 39.88 170.54 39.88 170.62 39.44 170.67 39.04 170.71 38.74 170.75 38.58 170.6 38.75 170.43 38.92 170.23 39.09 170 39.23 169.75 39.38 169.48 39.51 169.2 39.64 168.91 39.75 168.6 39.84 168.29 39.92 167.98 39.99 167.66 40.03 167.34 40.05 167.04 40.06 166.73 40.03 166.44 39.99 166.07 39.89 165.73 39.78 165.43 39.64 165.16 39.48 164.92 39.31 164.71 39.12 164.54 38.91 164.39 38.7 164.26 38.47 164.15 38.24 164.06 38 164 37.77 163.96 37.52 163.93 37.27 163.9 37.03 163.9 36.8 163.94 36.38 164 35.99 164.11 35.61 164.25 35.25 164.42 34.9 164.61 34.59 164.84 34.29 165.09 34.02 165.36 33.78 165.66 33.55 165.97 33.35 166.29 33.18 166.64 33.03 166.99 32.91 167.36 32.81 167.73 32.75 167.75 32.75 167.81 32.74 167.88 32.73 168 32.72 168.13 32.7 168.28 32.68 168.44 32.66 168.62 32.64 168.8 32.62 168.99 32.6 169.18 32.59 169.35 32.57 169.52 32.56 169.68 32.54 169.83 32.53 169.95 32.53 170.2 32.53 170.46 32.54 170.69 32.56 170.93 32.56 171.12 32.57 171.27 32.58 171.38 32.59 171.41 32.59 171.43 32.51 171.49 32.32 171.55 32.09 171.57 31.89 171.53 31.66 171.43 31.44 171.3 31.25 171.13 31.09 170.93 30.95 170.7 30.85 170.44 30.79 170.16 30.77 169.87 30.75 169.54 30.74 169.21 30.74 168.87 30.75 168.51 30.78 168.17 30.81 167.83 30.84 167.5 30.88 167.17 30.93 166.86 30.98 166.58 31.03 166.33 31.09 166.09 31.15 165.9 31.21 165.75 31.29 165.63 31.35 166.39 28.77 166.63 28.67 166.86 28.59 167.12 28.51 167.38 28.46 167.64 28.41 167.91 28.36 168.19 28.32 168.48 28.3 168.78 28.28 169.09 28.27 169.41 28.25 169.75 28.25 170.09 28.25 170.44 28.25 170.82 28.27 171.19 28.28 171.49 28.3 171.82 28.35 172.15 28.43 172.49 28.52 172.82 28.66 173.15 28.8 173.47 28.99 173.77 29.19 174.03 29.43 174.27 29.68 174.49 29.97 174.65 30.29 174.75 30.64 174.82 31 174.82 31.41 174.75 31.84 173.67 37.5 173.67 37.5 173.67 37.5"/><polyline class="cls-5" points="173.67 37.5 173.24 39.88 170.54 39.88 170.54 39.88 170.62 39.44 170.67 39.04 170.71 38.74 170.75 38.58 170.75 38.58 170.6 38.75 170.43 38.92 170.23 39.09 170 39.23 169.75 39.38 169.48 39.51 169.2 39.64 168.91 39.75 168.6 39.84 168.29 39.92 167.98 39.99 167.66 40.03 167.34 40.05 167.04 40.06 166.73 40.03 166.44 39.99 166.44 39.99 166.07 39.89 165.73 39.78 165.43 39.64 165.16 39.48 164.92 39.31 164.71 39.12 164.54 38.91 164.39 38.7 164.26 38.47 164.15 38.24 164.06 38 164 37.77 163.96 37.52 163.93 37.27 163.9 37.03 163.9 36.8 163.9 36.8 163.94 36.38 164 35.99 164.11 35.61 164.25 35.25 164.42 34.9 164.61 34.59 164.84 34.29 165.09 34.02 165.36 33.78 165.66 33.55 165.97 33.35 166.29 33.18 166.64 33.03 166.99 32.91 167.36 32.81 167.73 32.75 167.73 32.75 167.75 32.75 167.81 32.74 167.88 32.73 168 32.72 168.13 32.7 168.28 32.68 168.44 32.66 168.62 32.64 168.8 32.62 168.99 32.6 169.18 32.59 169.35 32.57 169.52 32.56 169.68 32.54 169.83 32.53 169.95 32.53 169.95 32.53 170.2 32.53 170.46 32.54 170.69 32.56 170.93 32.56 171.12 32.57 171.27 32.58 171.38 32.59 171.41 32.59 171.41 32.59 171.43 32.51 171.49 32.32 171.55 32.09 171.57 31.89 171.57 31.89 171.53 31.66 171.43 31.44 171.3 31.25 171.13 31.09 170.93 30.95 170.7 30.85 170.44 30.79 170.16 30.77 170.16 30.77 169.87 30.75 169.54 30.74 169.21 30.74 168.87 30.75 168.51 30.78 168.17 30.81 167.83 30.84 167.5 30.88 167.17 30.93 166.86 30.98 166.58 31.03 166.33 31.09 166.09 31.15 165.9 31.21 165.75 31.29 165.63 31.35 166.39 28.77 166.39 28.77 166.63 28.67 166.86 28.59 167.12 28.51 167.38 28.46 167.64 28.41 167.91 28.36 168.19 28.32 168.48 28.3 168.78 28.28 169.09 28.27 169.41 28.25 169.75 28.25 170.09 28.25 170.44 28.25 170.82 28.27 171.19 28.28 171.19 28.28 171.49 28.3 171.82 28.35 172.15 28.43 172.49 28.52 172.82 28.66 173.15 28.8 173.47 28.99 173.77 29.19 174.03 29.43 174.27 29.68 174.49 29.97 174.65 30.29 174.75 30.64 174.82 31 174.82 31.41 174.75 31.84 173.67 37.5"/><polygon class="cls-3" points="171.09 34.7 171.08 34.65 171.03 34.59 170.97 34.56 170.86 34.54 170.74 34.52 170.6 34.51 170.44 34.51 170.28 34.51 170.11 34.52 169.93 34.54 169.76 34.56 169.59 34.58 169.43 34.6 169.28 34.63 169.15 34.67 169.03 34.7 168.95 34.72 168.87 34.75 168.75 34.8 168.63 34.85 168.49 34.91 168.35 34.99 168.2 35.06 168.06 35.15 167.91 35.26 167.77 35.36 167.65 35.49 167.53 35.62 167.42 35.76 167.34 35.91 167.28 36.08 167.25 36.25 167.24 36.62 167.29 36.91 167.4 37.12 167.54 37.28 167.7 37.39 167.88 37.45 168.05 37.49 168.22 37.5 168.55 37.49 168.84 37.45 169.12 37.41 169.36 37.35 169.57 37.27 169.78 37.18 169.96 37.08 170.12 36.96 170.26 36.85 170.39 36.73 170.5 36.61 170.58 36.48 170.66 36.35 170.72 36.22 170.78 36.1 170.81 35.99 170.89 35.68 170.97 35.32 171.03 34.98 171.09 34.7 171.09 34.7 171.09 34.7"/><polygon class="cls-4" points="151.11 39.88 148.2 39.88 150.63 25.8 155.7 25.8 156.19 34.15 159.69 25.8 164.99 25.8 162.5 39.88 159.58 39.88 161.43 29.36 161.31 29.36 156.95 39.88 153.66 39.88 153.63 39.44 153.56 38.27 153.46 36.61 153.35 34.7 153.25 32.78 153.15 31.1 153.08 29.88 153.05 29.36 153.02 29.36 152.96 29.36 152.89 29.36 152.89 29.36 151.11 39.88 151.11 39.88 151.11 39.88"/><polyline class="cls-5" points="151.11 39.88 148.2 39.88 150.63 25.8 155.7 25.8 156.19 34.15 159.69 25.8 164.99 25.8 162.5 39.88 159.58 39.88 161.43 29.36 161.31 29.36 156.95 39.88 153.66 39.88 153.66 39.88 153.63 39.44 153.56 38.27 153.46 36.61 153.35 34.7 153.25 32.78 153.15 31.1 153.08 29.88 153.05 29.36 153.05 29.36 153.02 29.36 152.96 29.36 152.89 29.36 152.89 29.36 151.11 39.88"/><polygon class="cls-4" points="226.88 37.5 226.44 39.88 223.75 39.88 223.77 39.44 223.78 39.05 223.78 38.76 223.8 38.64 223.66 38.8 223.5 38.96 223.31 39.11 223.09 39.26 222.87 39.4 222.61 39.52 222.34 39.65 222.08 39.76 221.79 39.84 221.49 39.93 221.19 39.99 220.89 40.03 220.57 40.05 220.28 40.06 219.99 40.03 219.69 39.99 219.31 39.89 218.97 39.78 218.67 39.64 218.39 39.48 218.15 39.31 217.95 39.12 217.78 38.91 217.63 38.7 217.5 38.47 217.4 38.24 217.32 38 217.26 37.77 217.22 37.52 217.19 37.27 217.16 37.03 217.16 36.8 217.19 36.38 217.25 35.99 217.35 35.61 217.49 35.25 217.65 34.9 217.85 34.59 218.08 34.29 218.32 34.02 218.6 33.78 218.89 33.55 219.2 33.35 219.54 33.18 219.87 33.03 220.22 32.91 220.57 32.81 220.94 32.75 220.96 32.75 221.01 32.74 221.09 32.73 221.2 32.72 221.34 32.7 221.49 32.68 221.65 32.66 221.82 32.64 222 32.62 222.19 32.6 222.38 32.59 222.56 32.57 222.73 32.56 222.88 32.54 223.03 32.53 223.15 32.53 223.41 32.53 223.66 32.54 223.91 32.56 224.15 32.56 224.35 32.57 224.52 32.58 224.62 32.59 224.66 32.59 224.68 32.51 224.71 32.32 224.75 32.09 224.77 31.89 224.72 31.66 224.64 31.44 224.5 31.25 224.34 31.09 224.15 30.95 223.92 30.85 223.69 30.79 223.43 30.77 223.13 30.75 222.81 30.74 222.47 30.74 222.13 30.75 221.78 30.78 221.43 30.81 221.09 30.84 220.76 30.88 220.44 30.93 220.13 30.98 219.85 31.03 219.59 31.09 219.35 31.15 219.16 31.21 219.01 31.29 218.89 31.35 219.64 28.77 219.88 28.67 220.13 28.59 220.37 28.51 220.63 28.46 220.9 28.41 221.17 28.36 221.44 28.32 221.73 28.3 222.03 28.28 222.34 28.27 222.65 28.25 222.99 28.25 223.32 28.25 223.66 28.25 224.03 28.27 224.39 28.28 224.69 28.3 225.01 28.35 225.34 28.43 225.69 28.52 226.02 28.66 226.35 28.8 226.67 28.99 226.97 29.19 227.25 29.43 227.49 29.68 227.7 29.97 227.87 30.29 227.98 30.64 228.06 31 228.06 31.41 228 31.84 226.88 37.5 226.88 37.5 226.88 37.5"/><polygon class="cls-4" points="226.44 39.95 226.5 39.89 226.94 37.51 226.81 37.49 226.38 39.87 226.44 39.8 226.44 39.95 226.49 39.94 226.5 39.89 226.44 39.95 226.44 39.95 226.44 39.95"/><polygon class="cls-4" points="223.69 39.88 223.75 39.95 226.44 39.95 226.44 39.8 223.75 39.8 223.81 39.88 223.69 39.88 223.67 39.95 223.75 39.95 223.69 39.88 223.69 39.88 223.69 39.88"/><polygon class="cls-4" points="223.86 38.68 223.76 38.59 223.72 38.76 223.7 39.05 223.7 39.44 223.69 39.88 223.81 39.88 223.83 39.44 223.86 39.05 223.84 38.76 223.84 38.68 223.75 38.59 223.86 38.68 223.86 38.68 223.86 38.68"/><polygon class="cls-4" points="219.69 40.05 219.69 40.05 219.99 40.09 220.28 40.12 220.57 40.12 220.89 40.09 221.2 40.05 221.5 39.99 221.8 39.91 222.1 39.82 222.37 39.72 222.64 39.59 222.9 39.46 223.13 39.31 223.35 39.16 223.54 39.01 223.72 38.84 223.86 38.68 223.75 38.59 223.61 38.75 223.46 38.9 223.26 39.05 223.06 39.2 222.84 39.33 222.58 39.46 222.32 39.59 222.05 39.7 221.78 39.78 221.48 39.87 221.17 39.92 220.89 39.96 220.57 39.99 220.28 39.99 219.99 39.96 219.71 39.92 219.71 39.92 219.69 40.05 219.69 40.05 219.69 40.05"/><polygon class="cls-4" points="217.09 36.8 217.09 36.8 217.1 37.03 217.12 37.27 217.16 37.53 217.2 37.78 217.25 38.01 217.34 38.26 217.43 38.51 217.57 38.73 217.72 38.96 217.9 39.16 218.11 39.36 218.36 39.53 218.63 39.71 218.95 39.84 219.3 39.95 219.69 40.05 219.71 39.92 219.32 39.82 218.99 39.72 218.7 39.58 218.42 39.43 218.19 39.26 218 39.07 217.83 38.87 217.68 38.67 217.56 38.44 217.47 38.22 217.38 37.99 217.33 37.76 217.28 37.51 217.25 37.27 217.23 37.03 217.24 36.8 217.24 36.8 217.09 36.8 217.09 36.8 217.09 36.8"/><polygon class="cls-4" points="220.94 32.68 220.94 32.68 220.56 32.75 220.2 32.84 219.85 32.96 219.5 33.11 219.17 33.28 218.85 33.5 218.56 33.73 218.28 33.98 218.02 34.25 217.8 34.55 217.58 34.87 217.42 35.23 217.28 35.59 217.19 35.98 217.12 36.38 217.09 36.8 217.24 36.8 217.25 36.38 217.32 36 217.41 35.63 217.55 35.27 217.71 34.94 217.9 34.63 218.13 34.34 218.37 34.07 218.64 33.83 218.94 33.6 219.23 33.41 219.57 33.24 219.89 33.09 220.24 32.97 220.59 32.88 220.94 32.81 220.94 32.81 220.94 32.68 220.94 32.68 220.94 32.68"/><polygon class="cls-4" points="223.15 32.46 223.15 32.46 223.03 32.46 222.88 32.48 222.73 32.49 222.56 32.5 222.38 32.52 222.19 32.53 222 32.56 221.82 32.58 221.65 32.6 221.49 32.62 221.34 32.63 221.2 32.65 221.09 32.66 221 32.67 220.96 32.68 220.94 32.68 220.94 32.81 220.96 32.81 221.03 32.8 221.09 32.79 221.2 32.78 221.34 32.76 221.49 32.75 221.65 32.73 221.82 32.7 222 32.68 222.19 32.66 222.38 32.65 222.56 32.63 222.73 32.62 222.88 32.61 223.03 32.61 223.15 32.61 223.15 32.61 223.15 32.46 223.15 32.46 223.15 32.46"/><polygon class="cls-4" points="224.6 32.58 224.66 32.52 224.62 32.52 224.52 32.51 224.35 32.5 224.15 32.48 223.91 32.48 223.66 32.48 223.41 32.46 223.15 32.46 223.15 32.61 223.41 32.61 223.66 32.61 223.91 32.63 224.15 32.63 224.35 32.63 224.52 32.64 224.62 32.65 224.66 32.65 224.72 32.6 224.66 32.65 224.71 32.66 224.72 32.6 224.6 32.58 224.6 32.58 224.6 32.58"/><polygon class="cls-4" points="224.7 31.89 224.69 31.89 224.68 32.09 224.65 32.31 224.62 32.5 224.6 32.58 224.72 32.6 224.75 32.52 224.78 32.33 224.81 32.09 224.84 31.89 224.83 31.89 224.7 31.89 224.7 31.89 224.7 31.89"/><polygon class="cls-4" points="223.43 30.83 223.43 30.84 223.67 30.85 223.9 30.92 224.11 31.01 224.29 31.14 224.44 31.29 224.57 31.47 224.66 31.66 224.7 31.89 224.83 31.89 224.79 31.64 224.7 31.41 224.55 31.2 224.38 31.03 224.18 30.88 223.94 30.79 223.69 30.72 223.43 30.69 223.43 30.7 223.43 30.83 223.43 30.83 223.43 30.83"/><polygon class="cls-4" points="218.83 31.34 218.94 31.41 219.04 31.35 219.18 31.28 219.37 31.21 219.6 31.15 219.86 31.1 220.13 31.04 220.45 30.99 220.76 30.95 221.09 30.9 221.43 30.87 221.78 30.84 222.13 30.82 222.47 30.82 222.81 30.82 223.13 30.82 223.43 30.83 223.43 30.7 223.13 30.69 222.81 30.67 222.47 30.67 222.13 30.69 221.78 30.71 221.43 30.74 221.09 30.78 220.76 30.82 220.43 30.86 220.11 30.92 219.84 30.97 219.58 31.02 219.34 31.09 219.14 31.15 218.98 31.23 218.85 31.3 218.96 31.36 218.83 31.34 218.83 31.34 218.83 31.34"/><polygon class="cls-4" points="219.62 28.71 219.58 28.76 218.83 31.34 218.96 31.36 219.71 28.78 219.66 28.84 219.62 28.71 219.59 28.72 219.58 28.76 219.62 28.71 219.62 28.71 219.62 28.71"/><polygon class="cls-4" points="224.39 28.21 224.39 28.21 224.03 28.19 223.66 28.18 223.32 28.18 222.99 28.18 222.65 28.18 222.34 28.2 222.03 28.21 221.73 28.24 221.44 28.25 221.15 28.3 220.89 28.34 220.62 28.4 220.36 28.45 220.1 28.52 219.86 28.61 219.62 28.71 219.66 28.84 219.9 28.74 220.15 28.66 220.38 28.58 220.64 28.52 220.91 28.47 221.17 28.43 221.44 28.39 221.73 28.36 222.03 28.34 222.34 28.33 222.65 28.33 222.99 28.33 223.32 28.33 223.66 28.33 224.03 28.34 224.39 28.34 224.39 28.34 224.39 28.21 224.39 28.21 224.39 28.21"/><polygon class="cls-4" points="228.07 31.85 228.07 31.85 228.12 31.41 228.12 31 228.05 30.63 227.93 30.27 227.76 29.94 227.54 29.64 227.28 29.37 227.02 29.14 226.71 28.93 226.38 28.74 226.04 28.59 225.71 28.46 225.36 28.36 225.02 28.29 224.69 28.24 224.39 28.21 224.39 28.34 224.69 28.36 225 28.42 225.34 28.49 225.67 28.59 226 28.72 226.32 28.87 226.64 29.04 226.93 29.24 227.2 29.48 227.44 29.73 227.65 30 227.8 30.32 227.92 30.65 227.99 31 227.99 31.41 227.94 31.83 227.94 31.83 228.07 31.85 228.07 31.85 228.07 31.85"/><polygon class="cls-4" points="226.94 37.51 226.94 37.51 228.07 31.85 227.94 31.83 226.81 37.49 226.81 37.49 226.94 37.51 226.94 37.51 226.94 37.51"/><polygon class="cls-2" points="224.28 34.7 224.26 34.63 224.22 34.58 224.15 34.55 224.04 34.52 223.92 34.51 223.78 34.49 223.62 34.49 223.46 34.51 223.29 34.53 223.12 34.55 222.94 34.57 222.78 34.59 222.63 34.63 222.48 34.65 222.34 34.68 222.24 34.7 222.16 34.71 222.08 34.74 221.97 34.77 221.85 34.82 221.71 34.88 221.58 34.95 221.43 35.02 221.29 35.12 221.15 35.21 221.01 35.33 220.9 35.45 220.78 35.59 220.68 35.74 220.61 35.9 220.54 36.07 220.51 36.25 220.5 36.62 220.55 36.91 220.64 37.12 220.77 37.28 220.93 37.39 221.11 37.45 221.29 37.49 221.48 37.5 221.8 37.49 222.1 37.45 222.38 37.4 222.63 37.33 222.86 37.24 223.06 37.15 223.25 37.03 223.43 36.91 223.58 36.79 223.7 36.65 223.82 36.52 223.92 36.38 223.99 36.25 224.05 36.13 224.09 36 224.12 35.88 224.17 35.58 224.22 35.27 224.26 34.97 224.28 34.7 224.28 34.7 224.28 34.7"/><polygon class="cls-4" points="227.69 39.88 230.71 39.88 230.71 39.88 231.79 33.78 231.83 33.54 231.9 33.31 231.96 33.07 232.05 32.83 232.15 32.6 232.28 32.37 232.42 32.16 232.59 31.95 232.79 31.77 233 31.6 233.25 31.44 233.53 31.31 233.84 31.2 234.18 31.12 234.56 31.05 234.97 31.03 235.12 31.03 235.21 31.03 235.24 31.03 235.24 31.03 235.72 28.28 235.42 28.3 235.13 28.33 234.87 28.39 234.61 28.46 234.37 28.55 234.15 28.66 233.93 28.77 233.73 28.9 233.54 29.05 233.35 29.2 233.18 29.37 233.01 29.54 232.85 29.73 232.69 29.93 232.53 30.12 232.38 30.34 232.7 28.4 229.69 28.4 227.69 39.88 227.69 39.88 227.69 39.88 227.69 39.88"/><polyline class="cls-5" points="227.69 39.88 230.71 39.88 230.71 39.88 231.79 33.78 231.79 33.78 231.83 33.54 231.9 33.31 231.96 33.07 232.05 32.83 232.15 32.6 232.28 32.37 232.42 32.16 232.59 31.95 232.79 31.77 233 31.6 233.25 31.44 233.53 31.31 233.84 31.2 234.18 31.12 234.56 31.05 234.97 31.03 234.97 31.03 235.12 31.03 235.21 31.03 235.24 31.03 235.24 31.03 235.72 28.28 235.72 28.28 235.42 28.3 235.13 28.33 234.87 28.39 234.61 28.46 234.37 28.55 234.15 28.66 233.93 28.77 233.73 28.9 233.54 29.05 233.35 29.2 233.18 29.37 233.01 29.54 232.85 29.73 232.69 29.93 232.53 30.12 232.38 30.34 232.7 28.4 229.69 28.4 227.69 39.88 227.69 39.88"/><polygon class="cls-4" points="199.29 39.88 202.32 39.88 202.37 39.88 203.4 33.78 203.44 33.54 203.5 33.32 203.55 33.09 203.63 32.88 203.71 32.66 203.82 32.46 203.95 32.27 204.1 32.08 204.27 31.92 204.46 31.76 204.7 31.63 204.95 31.52 205.25 31.42 205.59 31.33 205.95 31.28 206.37 31.25 206.4 31.25 206.44 31.26 206.5 31.27 206.55 31.27 206.6 31.28 206.65 31.29 206.68 31.3 206.69 31.3 206.7 31.26 206.73 31.13 206.78 30.94 206.83 30.7 206.91 30.42 206.98 30.12 207.08 29.82 207.17 29.52 207.26 29.32 207.37 29.11 207.47 28.91 207.58 28.73 207.68 28.57 207.75 28.44 207.81 28.36 207.83 28.33 207.82 28.33 207.77 28.32 207.72 28.31 207.65 28.3 207.57 28.3 207.49 28.29 207.41 28.28 207.33 28.28 207 28.3 206.7 28.33 206.42 28.39 206.17 28.45 205.92 28.54 205.69 28.64 205.49 28.75 205.3 28.88 205.12 29.02 204.94 29.18 204.78 29.34 204.62 29.52 204.46 29.7 204.31 29.91 204.15 30.12 203.99 30.34 204.38 28.4 201.3 28.4 199.29 39.88 199.29 39.88 199.29 39.88 199.29 39.88"/><polyline class="cls-5" points="199.29 39.88 202.32 39.88 202.37 39.88 203.4 33.78 203.4 33.78 203.44 33.54 203.5 33.32 203.55 33.09 203.63 32.88 203.71 32.66 203.82 32.46 203.95 32.27 204.1 32.08 204.27 31.92 204.46 31.76 204.7 31.63 204.95 31.52 205.25 31.42 205.59 31.33 205.95 31.28 206.37 31.25 206.37 31.25 206.4 31.25 206.44 31.26 206.5 31.27 206.55 31.27 206.6 31.28 206.65 31.29 206.68 31.3 206.69 31.3 206.69 31.3 206.7 31.26 206.73 31.13 206.78 30.94 206.83 30.7 206.91 30.42 206.98 30.12 207.08 29.82 207.17 29.52 207.17 29.52 207.26 29.32 207.37 29.11 207.47 28.91 207.58 28.73 207.68 28.57 207.75 28.44 207.81 28.36 207.83 28.33 207.83 28.33 207.82 28.33 207.77 28.32 207.72 28.31 207.65 28.3 207.57 28.3 207.49 28.29 207.41 28.28 207.33 28.28 207.33 28.28 207 28.3 206.7 28.33 206.42 28.39 206.17 28.45 205.92 28.54 205.69 28.64 205.49 28.75 205.3 28.88 205.12 29.02 204.94 29.18 204.78 29.34 204.62 29.52 204.46 29.7 204.31 29.91 204.15 30.12 203.99 30.34 204.38 28.4 201.3 28.4 199.29 39.88 199.29 39.88"/><path class="cls-4" d="M199.63,31.81l-.09-.64-.15-.57-.21-.49-.27-.43-.32-.37-.35-.3-.39-.26-.42-.19-.43-.16-.44-.11-.44-.07-.44,0h-.42l-.87,0-.77.13-.7.19-.62.27-.54.32-.47.36-.42.41-.34.43-.3.45-.25.47-.19.46-.16.46-.12.45-.09.42-.06.4,0,.34-.05.88,0,.79.12.72.18.63.26.57.31.49.36.44.42.36.45.31.48.27.5.21.52.16.54.13.54.08.53.05h1.78l.25,0,.22,0,.21,0,.19,0,.18,0,.17,0,.17-.05.16-.05.16-.07.17-.06.17-.09.17-.08.43-2.64-.31.18-.3.17-.31.13-.3.12-.29.1-.3.06-.29.05-.29,0-.29,0h-.85l-.28,0-.28,0-.27,0-.28,0-.22,0-.21-.08-.21-.1-.19-.12-.19-.13-.17-.16-.16-.16-.15-.18-.13-.18-.12-.2-.09-.2-.08-.2,0-.2,0-.2v-.18l0-.14h7l.05-.65.16-.9.08-.82Zm-2.91,1H192.8l0-.15,0-.22.06-.21L193,32l.1-.19.1-.18.12-.17.13-.16.14-.15.14-.13.16-.12.16-.1.18-.09.18-.06.18,0,.19,0h.2l.19,0,.18,0,.17,0,.17.06.16.09.16.1.14.11.13.13.11.15.11.16.07.18.08.2,0,.21,0,.24v.26Z"/><polygon class="cls-6" points="348.96 63.79 350.61 63.75 352.23 63.62 353.83 63.42 355.4 63.14 356.95 62.78 358.47 62.35 359.95 61.85 361.4 61.27 362.82 60.63 364.19 59.93 365.53 59.17 366.82 58.33 368.08 57.44 369.29 56.5 370.45 55.49 371.56 54.43 372.61 53.32 373.62 52.16 374.57 50.95 375.46 49.7 376.29 48.4 377.06 47.06 377.76 45.69 378.41 44.27 378.97 42.82 379.48 41.34 379.9 39.82 380.26 38.28 380.54 36.7 380.74 35.1 380.87 33.48 380.91 31.83 380.87 30.2 380.74 28.58 380.54 27 380.26 25.43 379.9 23.9 379.48 22.39 378.97 20.91 378.41 19.46 377.76 18.06 377.06 16.69 376.29 15.35 375.46 14.05 374.57 12.81 373.62 11.6 372.61 10.45 371.56 9.34 370.45 8.29 369.29 7.29 368.08 6.34 366.82 5.45 365.53 4.62 364.19 3.86 362.82 3.14 361.4 2.5 359.95 1.94 358.47 1.44 356.95 1.01 355.4 0.65 353.83 0.37 352.23 0.17 350.61 0.04 348.96 0 347.32 0.04 345.69 0.17 344.1 0.37 342.53 0.65 340.98 1.01 339.47 1.44 337.98 1.94 336.53 2.5 335.12 3.14 333.74 3.86 332.41 4.62 331.11 5.45 329.87 6.34 328.66 7.29 327.51 8.29 326.41 9.34 325.35 10.45 324.34 11.6 323.4 12.81 322.51 14.05 321.68 15.35 320.92 16.69 320.21 18.06 319.58 19.46 319.01 20.91 318.5 22.39 318.08 23.9 317.73 25.43 317.44 27 317.25 28.58 317.12 30.2 317.08 31.83 317.12 33.48 317.25 35.1 317.44 36.7 317.73 38.28 318.08 39.82 318.5 41.34 319.01 42.82 319.58 44.27 320.21 45.69 320.92 47.06 321.68 48.4 322.51 49.7 323.4 50.95 324.34 52.16 325.35 53.32 326.41 54.43 327.51 55.49 328.66 56.5 329.87 57.44 331.11 58.33 332.41 59.17 333.74 59.93 335.12 60.63 336.53 61.27 337.98 61.85 339.47 62.35 340.98 62.78 342.53 63.14 344.1 63.42 345.69 63.62 347.32 63.75 348.96 63.79"/><polygon class="cls-7" points="306.66 63.79 308.31 63.75 309.93 63.62 311.52 63.42 313.1 63.14 314.65 62.78 316.16 62.35 317.64 61.85 319.09 61.27 320.51 60.63 321.88 59.93 323.21 59.17 324.51 58.33 325.76 57.44 326.96 56.5 328.12 55.49 329.23 54.43 330.28 53.32 331.28 52.16 332.23 50.95 333.12 49.7 333.94 48.4 334.71 47.06 335.41 45.69 336.05 44.27 336.62 42.82 337.12 41.34 337.54 39.82 337.89 38.28 338.18 36.7 338.38 35.1 338.5 33.48 338.54 31.83 338.5 30.2 338.38 28.58 338.18 27 337.89 25.43 337.54 23.9 337.12 22.39 336.62 20.91 336.05 19.46 335.41 18.06 334.71 16.69 333.94 15.35 333.12 14.05 332.23 12.81 331.28 11.6 330.28 10.45 329.23 9.34 328.12 8.29 326.96 7.29 325.76 6.34 324.51 5.45 323.21 4.62 321.88 3.86 320.51 3.14 319.09 2.5 317.64 1.94 316.16 1.44 314.65 1.01 313.1 0.65 311.52 0.37 309.93 0.17 308.31 0.04 306.66 0 305.01 0.04 303.39 0.17 301.8 0.37 300.22 0.65 298.67 1.01 297.15 1.44 295.68 1.94 294.22 2.5 292.81 3.14 291.43 3.86 290.09 4.62 288.8 5.45 287.54 6.34 286.34 7.29 285.17 8.29 284.07 9.34 283.01 10.45 282.01 11.6 281.06 12.81 280.16 14.05 279.33 15.35 278.57 16.69 277.86 18.06 277.22 19.46 276.65 20.91 276.15 22.39 275.72 23.9 275.36 25.43 275.08 27 274.88 28.58 274.75 30.2 274.71 31.83 274.75 33.48 274.88 35.1 275.08 36.7 275.36 38.28 275.72 39.82 276.15 41.34 276.65 42.82 277.22 44.27 277.86 45.69 278.57 47.06 279.33 48.4 280.16 49.7 281.06 50.95 282.01 52.16 283.01 53.32 284.07 54.43 285.17 55.49 286.34 56.5 287.54 57.44 288.8 58.33 290.09 59.17 291.43 59.93 292.81 60.63 294.22 61.27 295.68 61.85 297.15 62.35 298.67 62.78 300.22 63.14 301.8 63.42 303.39 63.62 305.01 63.75 306.66 63.79"/><polygon class="cls-6" points="323.88 12.15 340.05 12.15 340.05 10.37 325.44 10.37 323.88 12.15"/><polygon class="cls-6" points="321.34 15.92 340.05 15.92 340.05 14.15 322.48 14.15 321.34 15.92"/><polygon class="cls-6" points="319.45 19.76 340.05 19.76 340.05 17.98 320.32 17.98 319.45 19.76"/><polygon class="cls-6" points="318.21 23.53 340.05 23.53 340.05 21.76 318.76 21.76 318.21 23.53"/><polygon class="cls-6" points="317.4 27.32 340.05 27.32 340.05 25.53 317.73 25.53 317.4 27.32"/><polygon class="cls-6" points="317.24 34.64 340.05 34.64 340.05 32.86 317.08 32.86 317.24 34.64"/><polygon class="cls-6" points="317.78 38.63 340.05 38.63 340.05 36.85 317.46 36.85 317.78 38.63"/><polygon class="cls-6" points="318.86 41.88 340.05 41.88 340.05 40.09 318.31 40.09 318.86 41.88"/><polygon class="cls-6" points="320.47 45.81 340.05 45.81 340.05 44.03 319.62 44.03 320.47 45.81"/><polygon class="cls-6" points="322.75 49.81 340.05 49.81 340.05 48.03 321.56 48.03 322.75 49.81"/><polygon class="cls-6" points="325.6 53.64 339.9 53.64 339.9 51.86 324.04 51.86 325.6 53.64"/><polygon class="cls-1" points="342.06 29.15 341.85 29.14 341.64 29.12 341.45 29.09 341.26 29.07 341.07 29.03 340.88 29 340.68 28.97 340.47 28.94 340.25 28.92 340.02 28.9 339.76 28.88 339.48 28.86 339.16 28.86 338.82 28.88 338.43 28.9 338.01 28.93 337.71 28.97 337.42 29.03 337.16 29.12 336.93 29.21 336.72 29.33 336.53 29.45 336.37 29.6 336.25 29.75 336.16 29.91 336.09 30.09 336.06 30.27 336.06 30.46 336.1 30.66 336.18 30.86 336.29 31.06 336.44 31.26 336.74 31.53 337.1 31.75 337.52 31.94 337.97 32.09 338.44 32.25 338.93 32.41 339.44 32.59 339.92 32.8 340.37 33.05 340.8 33.35 341.18 33.74 341.49 34.2 341.73 34.77 341.89 35.44 341.94 36.23 341.89 37.18 341.77 37.88 341.58 38.51 341.34 39.08 341.04 39.58 340.68 40.02 340.3 40.4 339.86 40.72 339.4 41 338.92 41.23 338.42 41.42 337.9 41.58 337.39 41.7 336.88 41.78 336.37 41.83 335.89 41.86 335.42 41.88 334.77 41.88 334.19 41.86 333.65 41.85 333.16 41.84 332.71 41.82 332.31 41.8 331.93 41.77 331.6 41.73 331.28 41.69 330.99 41.63 330.71 41.58 330.44 41.51 330.19 41.43 329.94 41.36 329.69 41.27 329.43 41.17 330.08 37.88 330.22 37.91 330.4 37.96 330.62 38.02 330.86 38.08 331.14 38.13 331.46 38.21 331.8 38.27 332.15 38.33 332.53 38.38 332.93 38.44 333.34 38.48 333.77 38.52 334.2 38.54 334.64 38.55 335.08 38.55 335.53 38.53 335.94 38.46 336.29 38.34 336.55 38.17 336.76 37.98 336.92 37.76 337.04 37.54 337.13 37.3 337.19 37.07 337.22 36.83 337.21 36.62 337.16 36.42 337.08 36.26 336.96 36.09 336.82 35.94 336.64 35.8 336.44 35.68 336.22 35.56 335.98 35.45 335.72 35.33 335.44 35.23 335.17 35.12 334.88 35.01 334.58 34.89 334.28 34.77 333.99 34.64 333.69 34.5 333.4 34.35 333.12 34.18 332.84 34 332.59 33.8 332.35 33.57 332.13 33.33 331.93 33.06 331.75 32.77 331.61 32.44 331.48 32.09 331.4 31.71 331.34 31.29 331.33 30.83 331.37 30.33 331.4 30.03 331.44 29.73 331.48 29.45 331.54 29.18 331.61 28.92 331.68 28.66 331.77 28.41 331.87 28.18 331.98 27.95 332.1 27.73 332.24 27.54 332.38 27.34 332.54 27.15 332.71 26.97 332.88 26.8 333.08 26.64 333.29 26.5 333.51 26.36 333.75 26.23 334.01 26.11 334.27 26 334.55 25.9 334.85 25.82 335.16 25.73 335.5 25.66 335.84 25.6 336.2 25.54 336.57 25.5 336.97 25.47 337.39 25.45 337.82 25.43 338.27 25.43 338.83 25.43 339.33 25.44 339.78 25.45 340.2 25.47 340.57 25.49 340.9 25.51 341.21 25.54 341.47 25.56 341.71 25.6 341.92 25.63 342.12 25.65 342.29 25.68 342.43 25.7 342.57 25.72 342.69 25.74 342.81 25.75 342.06 29.15"/><polyline class="cls-8" points="342.06 29.15 342.06 29.15 341.85 29.14 341.64 29.12 341.45 29.09 341.26 29.07 341.07 29.03 340.88 29 340.68 28.97 340.47 28.94 340.25 28.92 340.02 28.9 339.76 28.88 339.48 28.86 339.16 28.86 338.82 28.88 338.43 28.9 338.01 28.93 338.01 28.93 337.71 28.97 337.42 29.03 337.16 29.12 336.93 29.21 336.72 29.33 336.53 29.45 336.37 29.6 336.25 29.75 336.16 29.91 336.09 30.09 336.06 30.27 336.06 30.46 336.1 30.66 336.18 30.86 336.29 31.06 336.44 31.26 336.44 31.26 336.74 31.53 337.1 31.75 337.52 31.94 337.97 32.09 338.44 32.25 338.93 32.41 339.44 32.59 339.92 32.8 340.37 33.05 340.8 33.35 341.18 33.74 341.49 34.2 341.73 34.77 341.89 35.44 341.94 36.23 341.89 37.18 341.89 37.18 341.77 37.88 341.58 38.51 341.34 39.08 341.04 39.58 340.68 40.02 340.3 40.4 339.86 40.72 339.4 41 338.92 41.23 338.42 41.42 337.9 41.58 337.39 41.7 336.88 41.78 336.37 41.83 335.89 41.86 335.42 41.88 335.42 41.88 334.77 41.88 334.19 41.86 333.65 41.85 333.16 41.84 332.71 41.82 332.31 41.8 331.93 41.77 331.6 41.73 331.28 41.69 330.99 41.63 330.71 41.58 330.44 41.51 330.19 41.43 329.94 41.36 329.69 41.27 329.43 41.17 330.08 37.88 330.08 37.88 330.22 37.91 330.4 37.96 330.62 38.02 330.86 38.08 331.14 38.13 331.46 38.21 331.8 38.27 332.15 38.33 332.53 38.38 332.93 38.44 333.34 38.48 333.77 38.52 334.2 38.54 334.64 38.55 335.08 38.55 335.53 38.53 335.53 38.53 335.94 38.46 336.29 38.34 336.55 38.17 336.76 37.98 336.92 37.76 337.04 37.54 337.13 37.3 337.19 37.07 337.19 37.07 337.22 36.83 337.21 36.62 337.16 36.42 337.08 36.26 336.96 36.09 336.82 35.94 336.64 35.8 336.44 35.68 336.22 35.56 335.98 35.45 335.72 35.33 335.44 35.23 335.17 35.12 334.88 35.01 334.58 34.89 334.28 34.77 333.99 34.64 333.69 34.5 333.4 34.35 333.12 34.18 332.84 34 332.59 33.8 332.35 33.57 332.13 33.33 331.93 33.06 331.75 32.77 331.61 32.44 331.48 32.09 331.4 31.71 331.34 31.29 331.33 30.83 331.37 30.33 331.37 30.33 331.4 30.03 331.44 29.73 331.48 29.45 331.54 29.18 331.61 28.92 331.68 28.66 331.77 28.41 331.87 28.18 331.98 27.95 332.1 27.73 332.24 27.54 332.38 27.34 332.54 27.15 332.71 26.97 332.88 26.8 333.08 26.64 333.29 26.5 333.51 26.36 333.75 26.23 334.01 26.11 334.27 26 334.55 25.9 334.85 25.82 335.16 25.73 335.5 25.66 335.84 25.6 336.2 25.54 336.57 25.5 336.97 25.47 337.39 25.45 337.82 25.43 338.27 25.43 338.27 25.43 338.83 25.43 339.33 25.44 339.78 25.45 340.2 25.47 340.57 25.49 340.9 25.51 341.21 25.54 341.47 25.56 341.71 25.6 341.92 25.63 342.12 25.65 342.29 25.68 342.43 25.7 342.57 25.72 342.69 25.74 342.81 25.75 342.06 29.15"/><polygon class="cls-1" points="345.5 22.14 349.72 22.14 349.07 25.81 351.66 25.81 351.07 29.15 348.42 29.1 347.02 37.45 347 37.63 347 37.78 347.02 37.92 347.07 38.05 347.13 38.15 347.2 38.26 347.3 38.34 347.4 38.4 347.53 38.47 347.65 38.52 347.8 38.56 347.95 38.58 348.12 38.61 348.28 38.62 348.46 38.63 348.64 38.63 348.97 38.63 349.27 38.61 349.54 38.57 349.77 38.52 349.95 38.47 350.09 38.41 350.17 38.37 350.2 38.36 349.77 41.22 349.67 41.29 349.55 41.34 349.44 41.39 349.32 41.44 349.2 41.49 349.08 41.53 348.95 41.57 348.81 41.61 348.66 41.65 348.5 41.69 348.32 41.72 348.13 41.75 347.94 41.78 347.73 41.81 347.49 41.84 347.23 41.88 346.1 41.88 345.5 41.83 344.97 41.77 344.5 41.69 344.09 41.57 343.74 41.44 343.45 41.29 343.21 41.11 343.01 40.91 342.85 40.69 342.74 40.45 342.66 40.19 342.62 39.89 342.61 39.59 342.62 39.25 342.65 38.91 342.71 38.53 345.5 22.14"/><polyline class="cls-8" points="345.5 22.14 349.72 22.14 349.07 25.81 351.66 25.81 351.07 29.15 348.42 29.1 347.02 37.45 347.02 37.45 347 37.63 347 37.78 347.02 37.92 347.07 38.05 347.13 38.15 347.2 38.26 347.3 38.34 347.4 38.4 347.53 38.47 347.65 38.52 347.8 38.56 347.95 38.58 348.12 38.61 348.28 38.62 348.46 38.63 348.64 38.63 348.64 38.63 348.97 38.63 349.27 38.61 349.54 38.57 349.77 38.52 349.95 38.47 350.09 38.41 350.17 38.37 350.2 38.36 349.77 41.22 349.77 41.22 349.67 41.29 349.55 41.34 349.44 41.39 349.32 41.44 349.2 41.49 349.08 41.53 348.95 41.57 348.81 41.61 348.66 41.65 348.5 41.69 348.32 41.72 348.13 41.75 347.94 41.78 347.73 41.81 347.49 41.84 347.23 41.88 346.1 41.88 346.1 41.88 345.5 41.83 344.97 41.77 344.5 41.69 344.09 41.57 343.74 41.44 343.45 41.29 343.21 41.11 343.01 40.91 342.85 40.69 342.74 40.45 342.66 40.19 342.62 39.89 342.61 39.59 342.62 39.25 342.65 38.91 342.71 38.53 345.5 22.14"/><polygon class="cls-1" points="319.89 34.86 319.83 35.12 319.83 35.39 319.85 35.67 319.91 35.94 319.99 36.23 320.12 36.51 320.26 36.78 320.44 37.04 320.64 37.29 320.87 37.54 321.11 37.74 321.38 37.94 321.66 38.11 321.95 38.25 322.27 38.35 322.58 38.42 322.96 38.48 323.34 38.53 323.72 38.57 324.11 38.59 324.51 38.6 324.9 38.6 325.31 38.58 325.7 38.55 326.11 38.49 326.53 38.41 326.95 38.31 327.37 38.17 327.79 38.02 328.23 37.83 328.66 37.6 329.1 37.35 328.45 41.07 328.21 41.19 327.97 41.31 327.75 41.4 327.52 41.49 327.29 41.57 327.06 41.63 326.82 41.69 326.55 41.74 326.28 41.77 325.99 41.8 325.66 41.83 325.32 41.84 324.94 41.86 324.52 41.86 324.06 41.88 323.56 41.88 323.19 41.88 322.81 41.85 322.44 41.83 322.07 41.79 321.68 41.74 321.3 41.67 320.93 41.59 320.55 41.51 320.18 41.39 319.81 41.28 319.46 41.14 319.1 40.98 318.76 40.8 318.42 40.62 318.11 40.41 317.79 40.18 317.5 39.92 317.21 39.65 316.94 39.36 316.7 39.04 316.47 38.7 316.26 38.34 316.07 37.95 315.91 37.54 315.76 37.1 315.64 36.64 315.55 36.16 315.49 35.64 315.45 35.09 315.45 34.53 315.46 33.92 315.52 33.29 315.55 33.07 315.58 32.82 315.62 32.56 315.67 32.29 315.73 32.01 315.8 31.72 315.88 31.41 315.97 31.1 316.07 30.77 316.19 30.46 316.32 30.13 316.47 29.81 316.64 29.48 316.82 29.16 317.02 28.84 317.23 28.52 317.47 28.22 317.72 27.91 317.99 27.62 318.29 27.35 318.61 27.07 318.96 26.82 319.32 26.59 319.72 26.37 320.14 26.18 320.59 26 321.06 25.85 321.56 25.72 322.1 25.62 322.67 25.54 323.25 25.5 323.88 25.48 324.18 25.48 324.47 25.5 324.77 25.52 325.08 25.55 325.38 25.6 325.69 25.66 326 25.73 326.3 25.82 326.61 25.91 326.91 26.03 327.2 26.15 327.49 26.3 327.76 26.47 328.03 26.64 328.28 26.86 328.54 27.07 328.76 27.32 328.99 27.58 329.19 27.87 329.36 28.18 329.53 28.51 329.68 28.86 329.8 29.25 329.9 29.66 329.98 30.1 330.03 30.56 330.06 31.06 330.06 31.58 330.02 32.14 329.97 32.72 329.88 33.34 329.75 33.99 329.58 34.91 318.69 34.91 319.34 32 325.87 32 325.9 31.6 325.9 31.23 325.88 30.89 325.82 30.57 325.74 30.29 325.63 30.03 325.5 29.8 325.34 29.59 325.16 29.4 324.96 29.25 324.75 29.12 324.53 29.01 324.29 28.93 324.04 28.86 323.78 28.84 323.5 28.82 323.21 28.82 322.94 28.86 322.67 28.92 322.41 29 322.17 29.12 321.94 29.25 321.72 29.41 321.52 29.59 321.33 29.8 321.17 30.02 321.01 30.26 320.86 30.52 320.74 30.79 320.63 31.09 320.55 31.4 320.47 31.73 319.89 34.86"/><polyline class="cls-8" points="319.89 34.86 319.89 34.86 319.83 35.12 319.83 35.39 319.85 35.67 319.91 35.94 319.99 36.23 320.12 36.51 320.26 36.78 320.44 37.04 320.64 37.29 320.87 37.54 321.11 37.74 321.38 37.94 321.66 38.11 321.95 38.25 322.27 38.35 322.58 38.42 322.58 38.42 322.96 38.48 323.34 38.53 323.72 38.57 324.11 38.59 324.51 38.6 324.9 38.6 325.31 38.58 325.7 38.55 326.11 38.49 326.53 38.41 326.95 38.31 327.37 38.17 327.79 38.02 328.23 37.83 328.66 37.6 329.1 37.35 328.45 41.07 328.45 41.07 328.21 41.19 327.97 41.31 327.75 41.4 327.52 41.49 327.29 41.57 327.06 41.63 326.82 41.69 326.55 41.74 326.28 41.77 325.99 41.8 325.66 41.83 325.32 41.84 324.94 41.86 324.52 41.86 324.06 41.88 323.56 41.88 323.56 41.88 323.19 41.88 322.81 41.85 322.44 41.83 322.07 41.79 321.68 41.74 321.3 41.67 320.93 41.59 320.55 41.51 320.18 41.39 319.81 41.28 319.46 41.14 319.1 40.98 318.76 40.8 318.42 40.62 318.11 40.41 317.79 40.18 317.5 39.92 317.21 39.65 316.94 39.36 316.7 39.04 316.47 38.7 316.26 38.34 316.07 37.95 315.91 37.54 315.76 37.1 315.64 36.64 315.55 36.16 315.49 35.64 315.45 35.09 315.45 34.53 315.46 33.92 315.52 33.29 315.52 33.29 315.55 33.07 315.58 32.82 315.62 32.56 315.67 32.29 315.73 32.01 315.8 31.72 315.88 31.41 315.97 31.1 316.07 30.77 316.19 30.46 316.32 30.13 316.47 29.81 316.64 29.48 316.82 29.16 317.02 28.84 317.23 28.52 317.47 28.22 317.72 27.91 317.99 27.62 318.29 27.35 318.61 27.07 318.96 26.82 319.32 26.59 319.72 26.37 320.14 26.18 320.59 26 321.06 25.85 321.56 25.72 322.1 25.62 322.67 25.54 323.25 25.5 323.88 25.48 323.88 25.48 324.18 25.48 324.47 25.5 324.77 25.52 325.08 25.55 325.38 25.6 325.69 25.66 326 25.73 326.3 25.82 326.61 25.91 326.91 26.03 327.2 26.15 327.49 26.3 327.76 26.47 328.03 26.64 328.28 26.86 328.54 27.07 328.76 27.32 328.99 27.58 329.19 27.87 329.36 28.18 329.53 28.51 329.68 28.86 329.8 29.25 329.9 29.66 329.98 30.1 330.03 30.56 330.06 31.06 330.06 31.58 330.02 32.14 329.97 32.72 329.88 33.34 329.75 33.99 329.58 34.91 318.69 34.91 319.34 32 325.87 32 325.87 32 325.9 31.6 325.9 31.23 325.88 30.89 325.82 30.57 325.74 30.29 325.63 30.03 325.5 29.8 325.34 29.59 325.16 29.4 324.96 29.25 324.75 29.12 324.53 29.01 324.29 28.93 324.04 28.86 323.78 28.84 323.5 28.82 323.5 28.82 323.21 28.82 322.94 28.86 322.67 28.92 322.41 29 322.17 29.12 321.94 29.25 321.72 29.41 321.52 29.59 321.33 29.8 321.17 30.02 321.01 30.26 320.86 30.52 320.74 30.79 320.63 31.09 320.55 31.4 320.47 31.73 319.89 34.86"/><polygon class="cls-1" points="314.06 38.53 313.46 41.88 309.68 41.88 309.72 41.56 309.76 41.24 309.81 40.96 309.85 40.7 309.89 40.48 309.92 40.29 309.96 40.16 310 40.09 309.81 40.32 309.55 40.55 309.27 40.77 308.94 40.98 308.6 41.18 308.22 41.37 307.82 41.54 307.41 41.7 306.99 41.83 306.55 41.95 306.1 42.03 305.67 42.09 305.22 42.13 304.79 42.14 304.38 42.11 303.97 42.04 303.43 41.91 302.96 41.75 302.53 41.55 302.15 41.33 301.82 41.09 301.53 40.81 301.28 40.53 301.07 40.22 300.89 39.9 300.75 39.58 300.63 39.24 300.54 38.9 300.48 38.56 300.43 38.22 300.41 37.88 300.4 37.55 300.44 36.97 300.54 36.41 300.68 35.88 300.87 35.38 301.12 34.9 301.39 34.46 301.71 34.05 302.06 33.67 302.45 33.32 302.86 33.02 303.3 32.73 303.76 32.49 304.24 32.28 304.73 32.11 305.23 31.99 305.75 31.89 305.77 31.89 305.84 31.89 305.96 31.87 306.11 31.85 306.29 31.83 306.5 31.81 306.74 31.78 306.99 31.76 307.24 31.74 307.49 31.71 307.75 31.68 308 31.66 308.23 31.64 308.45 31.63 308.65 31.62 308.82 31.62 309 31.62 309.18 31.62 309.36 31.62 309.54 31.63 309.72 31.63 309.89 31.64 310.05 31.64 310.22 31.64 310.37 31.66 310.51 31.66 310.62 31.66 310.73 31.66 310.81 31.68 310.87 31.68 310.92 31.68 310.93 31.68 310.96 31.57 311.03 31.32 311.08 31.02 311.08 30.76 311.06 30.57 311.03 30.4 310.98 30.23 310.9 30.07 310.82 29.93 310.72 29.79 310.61 29.66 310.49 29.54 310.35 29.43 310.21 29.35 310.05 29.27 309.9 29.19 309.73 29.14 309.55 29.1 309.37 29.07 309.19 29.05 308.77 29.03 308.32 29.05 307.84 29.05 307.36 29.09 306.88 29.12 306.4 29.16 305.92 29.21 305.44 29.27 304.99 29.34 304.56 29.4 304.18 29.47 303.81 29.56 303.48 29.64 303.21 29.73 302.99 29.81 302.84 29.9 303.91 26.34 304.23 26.19 304.56 26.06 304.9 25.94 305.25 25.85 305.62 25.77 306 25.71 306.4 25.66 306.81 25.62 307.23 25.6 307.66 25.57 308.1 25.56 308.56 25.56 309.04 25.56 309.52 25.56 310.02 25.57 310.55 25.59 310.98 25.63 311.43 25.69 311.9 25.81 312.37 25.94 312.84 26.12 313.32 26.34 313.76 26.59 314.18 26.89 314.56 27.22 314.91 27.59 315.2 28 315.43 28.45 315.6 28.94 315.69 29.47 315.71 30.04 315.62 30.66 314.06 38.53"/><polyline class="cls-8" points="314.06 38.53 313.46 41.88 309.68 41.88 309.68 41.88 309.72 41.56 309.76 41.24 309.81 40.96 309.85 40.7 309.89 40.48 309.92 40.29 309.96 40.16 310 40.09 310 40.09 309.81 40.32 309.55 40.55 309.27 40.77 308.94 40.98 308.6 41.18 308.22 41.37 307.82 41.54 307.41 41.7 306.99 41.83 306.55 41.95 306.1 42.03 305.67 42.09 305.22 42.13 304.79 42.14 304.38 42.11 303.97 42.04 303.97 42.04 303.43 41.91 302.96 41.75 302.53 41.55 302.15 41.33 301.82 41.09 301.53 40.81 301.28 40.53 301.07 40.22 300.89 39.9 300.75 39.58 300.63 39.24 300.54 38.9 300.48 38.56 300.43 38.22 300.41 37.88 300.4 37.55 300.4 37.55 300.44 36.97 300.54 36.41 300.68 35.88 300.87 35.38 301.12 34.9 301.39 34.46 301.71 34.05 302.06 33.67 302.45 33.32 302.86 33.02 303.3 32.73 303.76 32.49 304.24 32.28 304.73 32.11 305.23 31.99 305.75 31.89 305.75 31.89 305.77 31.89 305.84 31.89 305.96 31.87 306.11 31.85 306.29 31.83 306.5 31.81 306.74 31.78 306.99 31.76 307.24 31.74 307.49 31.71 307.75 31.68 308 31.66 308.23 31.64 308.45 31.63 308.65 31.62 308.82 31.62 308.82 31.62 309 31.62 309.18 31.62 309.36 31.62 309.54 31.63 309.72 31.63 309.89 31.64 310.05 31.64 310.22 31.64 310.37 31.66 310.51 31.66 310.62 31.66 310.73 31.66 310.81 31.68 310.87 31.68 310.92 31.68 310.93 31.68 310.93 31.68 310.96 31.57 311.03 31.32 311.08 31.02 311.08 30.76 311.08 30.76 311.06 30.57 311.03 30.4 310.98 30.23 310.9 30.07 310.82 29.93 310.72 29.79 310.61 29.66 310.49 29.54 310.35 29.43 310.21 29.35 310.05 29.27 309.9 29.19 309.73 29.14 309.55 29.1 309.37 29.07 309.19 29.05 309.19 29.05 308.77 29.03 308.32 29.05 307.84 29.05 307.36 29.09 306.88 29.12 306.4 29.16 305.92 29.21 305.44 29.27 304.99 29.34 304.56 29.4 304.18 29.47 303.81 29.56 303.48 29.64 303.21 29.73 302.99 29.81 302.84 29.9 303.91 26.34 303.91 26.34 304.23 26.19 304.56 26.06 304.9 25.94 305.25 25.85 305.62 25.77 306 25.71 306.4 25.66 306.81 25.62 307.23 25.6 307.66 25.57 308.1 25.56 308.56 25.56 309.04 25.56 309.52 25.56 310.02 25.57 310.55 25.59 310.55 25.59 310.98 25.63 311.43 25.69 311.9 25.81 312.37 25.94 312.84 26.12 313.32 26.34 313.76 26.59 314.18 26.89 314.56 27.22 314.91 27.59 315.2 28 315.43 28.45 315.6 28.94 315.69 29.47 315.71 30.04 315.62 30.66 314.06 38.53"/><polygon class="cls-7" points="310.44 34.59 310.43 34.5 310.37 34.44 310.26 34.39 310.13 34.36 309.95 34.34 309.76 34.33 309.54 34.33 309.31 34.33 309.07 34.35 308.82 34.38 308.58 34.41 308.34 34.45 308.11 34.49 307.89 34.54 307.7 34.59 307.53 34.64 307.44 34.66 307.31 34.7 307.15 34.76 306.99 34.83 306.81 34.9 306.61 35 306.41 35.11 306.21 35.23 306.01 35.38 305.82 35.53 305.64 35.7 305.49 35.89 305.34 36.09 305.23 36.31 305.15 36.55 305.1 36.8 305.08 37.31 305.15 37.71 305.28 38.03 305.46 38.26 305.7 38.41 305.94 38.52 306.2 38.57 306.45 38.58 306.91 38.57 307.32 38.53 307.71 38.46 308.05 38.36 308.37 38.26 308.65 38.13 308.9 37.98 309.12 37.83 309.32 37.67 309.49 37.49 309.64 37.32 309.76 37.15 309.87 36.97 309.95 36.8 310.01 36.63 310.07 36.48 310.12 36.24 310.17 36 310.22 35.75 310.28 35.49 310.32 35.24 310.36 35.01 310.4 34.79 310.44 34.59"/><polygon class="cls-1" points="282.43 41.88 278.33 41.88 281.78 22.14 288.9 22.14 289.61 33.89 294.46 22.14 301.86 22.14 298.4 41.88 294.3 41.88 296.89 27.09 296.73 27.09 290.63 41.88 286.04 41.88 286 41.26 285.91 39.61 285.77 37.28 285.61 34.61 285.46 31.91 285.32 29.54 285.23 27.82 285.18 27.09 285.17 27.09 285.13 27.09 285.09 27.09 285.04 27.09 285 27.09 284.97 27.09 284.97 27.09 285.02 27.09 282.43 41.88"/><polyline class="cls-8" points="282.43 41.88 278.33 41.88 281.78 22.14 288.9 22.14 289.61 33.89 294.46 22.14 301.86 22.14 298.4 41.88 294.3 41.88 296.89 27.09 296.73 27.09 290.63 41.88 286.04 41.88 286.04 41.88 286 41.26 285.91 39.61 285.77 37.28 285.61 34.61 285.46 31.91 285.32 29.54 285.23 27.82 285.18 27.09 285.18 27.09 285.17 27.09 285.13 27.09 285.09 27.09 285.04 27.09 285 27.09 284.97 27.09 284.97 27.09 285.02 27.09 282.43 41.88"/><polygon class="cls-1" points="350.9 41.88 355.17 41.88 355.17 41.88 356.63 33.35 356.69 33.02 356.76 32.69 356.85 32.37 356.95 32.06 357.07 31.76 357.21 31.48 357.39 31.2 357.59 30.94 357.83 30.71 358.1 30.5 358.43 30.31 358.79 30.14 359.2 30.01 359.68 29.9 360.2 29.84 360.79 29.8 360.84 29.8 360.9 29.81 360.99 29.82 361.07 29.82 361.14 29.83 361.2 29.84 361.25 29.85 361.27 29.85 361.28 29.79 361.32 29.61 361.38 29.34 361.46 28.99 361.56 28.61 361.68 28.18 361.81 27.77 361.97 27.37 362.09 27.07 362.22 26.79 362.36 26.51 362.51 26.25 362.63 26.03 362.74 25.85 362.81 25.73 362.83 25.69 362.81 25.69 362.76 25.67 362.68 25.66 362.58 25.64 362.47 25.62 362.35 25.61 362.23 25.59 362.13 25.59 361.67 25.62 361.25 25.67 360.86 25.75 360.5 25.85 360.17 25.97 359.87 26.11 359.57 26.28 359.31 26.45 359.05 26.66 358.81 26.88 358.59 27.11 358.35 27.36 358.13 27.62 357.93 27.9 357.7 28.2 357.49 28.5 357.98 25.81 353.71 25.75 350.9 41.88 350.9 41.88"/><polyline class="cls-8" points="350.9 41.88 355.17 41.88 355.17 41.88 356.63 33.35 356.63 33.35 356.69 33.02 356.76 32.69 356.85 32.37 356.95 32.06 357.07 31.76 357.21 31.48 357.39 31.2 357.59 30.94 357.83 30.71 358.1 30.5 358.43 30.31 358.79 30.14 359.2 30.01 359.68 29.9 360.2 29.84 360.79 29.8 360.79 29.8 360.84 29.8 360.9 29.81 360.99 29.82 361.07 29.82 361.14 29.83 361.2 29.84 361.25 29.85 361.27 29.85 361.27 29.85 361.28 29.79 361.32 29.61 361.38 29.34 361.46 28.99 361.56 28.61 361.68 28.18 361.81 27.77 361.97 27.37 361.97 27.37 362.09 27.07 362.22 26.79 362.36 26.51 362.51 26.25 362.63 26.03 362.74 25.85 362.81 25.73 362.83 25.69 362.83 25.69 362.81 25.69 362.76 25.67 362.68 25.66 362.58 25.64 362.47 25.62 362.35 25.61 362.23 25.59 362.13 25.59 362.13 25.59 361.67 25.62 361.25 25.67 360.86 25.75 360.5 25.85 360.17 25.97 359.87 26.11 359.57 26.28 359.31 26.45 359.05 26.66 358.81 26.88 358.59 27.11 358.35 27.36 358.13 27.62 357.93 27.9 357.7 28.2 357.49 28.5 357.98 25.81 353.71 25.75 350.9 41.88 350.9 41.88"/><polygon class="cls-1" points="369.36 25.59 369.83 25.6 370.29 25.63 370.75 25.67 371.19 25.73 371.61 25.82 372.01 25.92 372.4 26.04 372.79 26.17 373.15 26.33 373.5 26.5 373.85 26.68 374.16 26.88 374.48 27.09 374.77 27.32 375.04 27.57 375.3 27.83 375.56 28.1 375.79 28.39 376 28.69 376.19 29 376.38 29.33 376.54 29.67 376.7 30.02 376.82 30.39 376.94 30.75 377.03 31.14 377.12 31.54 377.18 31.95 377.22 32.35 377.24 32.79 377.25 33.23 377.24 33.67 377.21 34.2 377.15 34.72 377.07 35.21 376.98 35.69 376.88 36.15 376.74 36.59 376.59 37.02 376.44 37.43 376.25 37.82 376.06 38.19 375.84 38.55 375.62 38.89 375.38 39.21 375.11 39.51 374.84 39.8 374.56 40.07 374.27 40.32 373.96 40.56 373.64 40.78 373.31 40.98 372.97 41.17 372.61 41.34 372.25 41.5 371.88 41.63 371.5 41.76 371.1 41.86 370.7 41.95 370.3 42.02 369.88 42.07 369.47 42.11 369.04 42.14 368.61 42.15 368.18 42.14 367.75 42.11 367.34 42.07 366.93 42.01 366.53 41.94 366.13 41.85 365.75 41.75 365.39 41.62 365.02 41.49 364.68 41.33 364.34 41.16 364.01 40.97 363.7 40.77 363.41 40.55 363.11 40.32 362.84 40.07 362.59 39.81 362.34 39.52 362.12 39.23 361.9 38.92 361.71 38.59 361.52 38.25 361.36 37.89 361.21 37.52 361.09 37.14 360.98 36.73 360.88 36.31 360.81 35.88 360.76 35.43 360.73 34.97 360.71 34.48 360.73 33.99 360.76 33.49 360.81 33.01 360.88 32.53 360.98 32.08 361.08 31.64 361.2 31.21 361.34 30.8 361.5 30.41 361.67 30.02 361.85 29.65 362.06 29.31 362.29 28.96 362.52 28.65 362.77 28.33 363.03 28.05 363.3 27.77 363.6 27.5 363.9 27.26 364.21 27.03 364.54 26.82 364.88 26.63 365.24 26.45 365.61 26.29 365.98 26.14 366.36 26.02 366.76 25.9 367.17 25.81 367.59 25.72 368.02 25.67 368.46 25.62 368.91 25.6 369.36 25.59"/><polyline class="cls-8" points="369.36 25.59 369.36 25.59 369.83 25.6 370.29 25.63 370.75 25.67 371.19 25.73 371.61 25.82 372.01 25.92 372.4 26.04 372.79 26.17 373.15 26.33 373.5 26.5 373.85 26.68 374.16 26.88 374.48 27.09 374.77 27.32 375.04 27.57 375.3 27.83 375.56 28.1 375.79 28.39 376 28.69 376.19 29 376.38 29.33 376.54 29.67 376.7 30.02 376.82 30.39 376.94 30.75 377.03 31.14 377.12 31.54 377.18 31.95 377.22 32.35 377.24 32.79 377.25 33.23 377.24 33.67 377.24 33.67 377.21 34.2 377.15 34.72 377.07 35.21 376.98 35.69 376.88 36.15 376.74 36.59 376.59 37.02 376.44 37.43 376.25 37.82 376.06 38.19 375.84 38.55 375.62 38.89 375.38 39.21 375.11 39.51 374.84 39.8 374.56 40.07 374.27 40.32 373.96 40.56 373.64 40.78 373.31 40.98 372.97 41.17 372.61 41.34 372.25 41.5 371.88 41.63 371.5 41.76 371.1 41.86 370.7 41.95 370.3 42.02 369.88 42.07 369.47 42.11 369.04 42.14 368.61 42.15 368.61 42.15 368.18 42.14 367.75 42.11 367.34 42.07 366.93 42.01 366.53 41.94 366.13 41.85 365.75 41.75 365.39 41.62 365.02 41.49 364.68 41.33 364.34 41.16 364.01 40.97 363.7 40.77 363.41 40.55 363.11 40.32 362.84 40.07 362.59 39.81 362.34 39.52 362.12 39.23 361.9 38.92 361.71 38.59 361.52 38.25 361.36 37.89 361.21 37.52 361.09 37.14 360.98 36.73 360.88 36.31 360.81 35.88 360.76 35.43 360.73 34.97 360.71 34.48 360.73 33.99 360.73 33.99 360.76 33.49 360.81 33.01 360.88 32.53 360.98 32.08 361.08 31.64 361.2 31.21 361.34 30.8 361.5 30.41 361.67 30.02 361.85 29.65 362.06 29.31 362.29 28.96 362.52 28.65 362.77 28.33 363.03 28.05 363.3 27.77 363.6 27.5 363.9 27.26 364.21 27.03 364.54 26.82 364.88 26.63 365.24 26.45 365.61 26.29 365.98 26.14 366.36 26.02 366.76 25.9 367.17 25.81 367.59 25.72 368.02 25.67 368.46 25.62 368.91 25.6 369.36 25.59"/><polygon class="cls-6" points="366.02 33.29 365.95 33.88 365.92 34.42 365.92 34.91 365.95 35.38 366.02 35.8 366.11 36.16 366.23 36.5 366.37 36.8 366.55 37.06 366.75 37.28 366.97 37.47 367.21 37.62 367.47 37.73 367.77 37.82 368.07 37.86 368.4 37.88 368.75 37.87 369.1 37.83 369.42 37.75 369.74 37.64 370.03 37.49 370.31 37.3 370.58 37.08 370.83 36.82 371.05 36.53 371.26 36.19 371.46 35.81 371.62 35.41 371.78 34.96 371.92 34.46 372.02 33.93 372.12 33.35 372.17 32.9 372.2 32.47 372.2 32.05 372.17 31.66 372.12 31.29 372.03 30.93 371.92 30.61 371.78 30.3 371.62 30.03 371.42 29.8 371.2 29.59 370.96 29.42 370.69 29.28 370.4 29.2 370.08 29.15 369.74 29.15 369.31 29.18 368.91 29.25 368.54 29.38 368.2 29.54 367.88 29.75 367.59 29.98 367.33 30.24 367.1 30.53 366.88 30.85 366.69 31.18 366.52 31.52 366.38 31.87 366.26 32.23 366.15 32.59 366.08 32.94 366.02 33.29"/></g></g></svg>