<?xml version="1.0" encoding="utf-8"?>
<!-- Generator: Adobe Illustrator 22.1.0, SVG Export Plug-In . SVG Version: 6.00 Build 0)  -->
<svg version="1.1" id="katman_1" xmlns="http://www.w3.org/2000/svg" xmlns:xlink="http://www.w3.org/1999/xlink" x="0px" y="0px"
	 viewBox="0 0 117.5 119.4" style="enable-background:new 0 0 117.5 119.4;" xml:space="preserve">
<style type="text/css">
	.st0{fill:#F8B500;}
</style>
<title>THUNDERKICK</title>
<g id="Layer_2">
	<g id="Layer_1-2">
		<path class="st0" d="M74.8,2.8c1.3,3.7,2.6,7.3,3.9,10.8c0.3,0.8,0.7,1.5,1.3,2.2c2.7,3.2,5.4,6.3,8.2,9.4c0.3,0.3,0.6,0.6,0.9,1
			l3.7-7.1c0.3,0.5,0.6,0.9,0.9,1.2c5.8,8.7,11.6,17.4,17.4,26.2c0.6,0.9,0.9,1.9,0.8,3c-0.8,7-1.5,14.1-2.2,21.1
			c-0.1,0.6-0.1,1.1-0.1,1.8h7.9c-0.2,0.6-0.3,1.1-0.5,1.5c-3.8,9.8-7.6,19.6-11.4,29.4c-0.3,0.6-0.9,1.1-1.5,1.4
			c-10.8,3.5-21.5,7-32.4,10.3c-5.7,1.7-11.6,3-17.4,4.3c-0.5,0.1-0.9,0-1.4-0.2c-11.6-4.2-23.1-8.4-34.7-12.6
			c-0.6-0.2-1.1-0.7-1.4-1.2c-5.5-10.7-11-21.3-16.5-32C0,72.8-0.1,72.1,0,71.5c0.9-8,1.8-16,2.7-24.1c0.1-0.5,0.2-1.1,0.3-1.6
			l0.5-0.3l5.8,6.7l0.6-0.3c0.8-3,1.5-6,2.2-9c1.3-5.5,2.7-10.9,4-16.4c0.1-0.6,0.5-1.1,0.9-1.5C27,16.7,37,8.5,47.1,0.3
			c0.1-0.1,0.3-0.2,0.4-0.3v10L74.8,2.8z M91.5,42.7l-66.6,1.1l0.8,22.5L48,65.4l1.7,36.9h18.4L70,64.8l21-0.6
			c0.1-0.4,0.1-0.7,0.2-0.9c0.3-5.7,0.6-11.4,0.8-17.1C91.9,45.1,91.8,43.9,91.5,42.7z"/>
	</g>
</g>
</svg>
