<?xml version="1.0" encoding="utf-8"?>
<!-- Generator: Adobe Illustrator 22.1.0, SVG Export Plug-In . SVG Version: 6.00 Build 0)  -->
<svg version="1.1" id="Layer_1" xmlns="http://www.w3.org/2000/svg" xmlns:xlink="http://www.w3.org/1999/xlink" x="0px" y="0px"
	 viewBox="0 0 226.7 78" style="enable-background:new 0 0 226.7 78;" xml:space="preserve">
<style type="text/css">
	.st0{fill:#FFD000;}
	.st1{fill:#222222;}
	.st2{fill:#FFFFFF;}
	.st3{fill:#CACACA;}
	.st4{fill:url(#SVGID_1_);}
	.st5{fill:url(#SVGID_2_);}
	.st6{fill:url(#SVGID_3_);}
	.st7{fill:url(#SVGID_4_);}
	.st8{fill:url(#SVGID_5_);}
	.st9{fill:url(#SVGID_6_);}
	.st10{fill:url(#SVGID_7_);}
	.st11{fill:url(#SVGID_8_);}
	.st12{fill:url(#SVGID_9_);}
	.st13{fill:url(#SVGID_10_);}
	.st14{fill:url(#SVGID_11_);}
	.st15{fill:url(#SVGID_12_);}
	.st16{fill:url(#SVGID_13_);}
	.st17{fill:url(#SVGID_14_);}
	.st18{fill:url(#SVGID_15_);}
	.st19{fill:url(#SVGID_16_);}
	.st20{fill:#F6A100;}
</style>
<rect x="239" y="-496.5" class="st0" width="282.5" height="189.4"/>
<rect x="521.3" y="-307.1" class="st1" width="282.5" height="189.4"/>
<rect x="802.3" y="-307.1" class="st0" width="282.5" height="189.4"/>
<rect x="-43.7" y="-307.1" class="st1" width="282.5" height="189.4"/>
<g>
	<g>
		<g>
			<path class="st2" d="M351.7-380.1h-5.6c-0.4,0-0.8-0.1-1.1-0.4c-0.3-0.3-0.5-0.7-0.5-1.1V-401c0-0.3-0.1-0.4-0.2-0.4
				c-0.1-0.1-0.3-0.2-0.4-0.2H338c-0.4,0-0.8-0.1-1.1-0.4c-0.3-0.3-0.5-0.7-0.5-1.2v-2.1c0-0.6,0.1-1.2,0.4-1.7
				c0.2-0.5,0.6-0.9,0.9-1.3c0.4-0.4,0.8-0.6,1.3-0.8c0.5-0.2,1-0.3,1.5-0.3h19.3c0.5,0,0.9,0.2,1.2,0.5c0.3,0.3,0.5,0.7,0.5,1.1
				v4.5c0,0.5-0.2,0.9-0.5,1.2c-0.3,0.3-0.7,0.4-1.2,0.4h-7c0.4,0.5,0.5,1,0.5,1.5v18.4c0,0.5-0.2,0.9-0.5,1.1
				C352.5-380.3,352.1-380.1,351.7-380.1z M340.5-408.1c-0.4,0-0.7,0.1-1.1,0.2c-0.3,0.1-0.7,0.3-0.9,0.6c-0.3,0.3-0.5,0.6-0.7,0.9
				c-0.2,0.3-0.2,0.7-0.2,1.2v2.1c0,0.1,0,0.2,0.1,0.3c0.1,0.1,0.2,0.1,0.3,0.1h5.8c0.5,0,0.9,0.2,1.2,0.5c0.4,0.3,0.6,0.8,0.6,1.3
				v19.3c0,0.1,0,0.2,0.1,0.2c0,0,0,0,0.1,0.1c0.1,0.1,0.1,0.1,0.3,0.1h5.6c0.2,0,0.2-0.1,0.3-0.1c0,0,0,0,0.1-0.1
				c0,0,0.1-0.1,0.1-0.2v-18.4c0-0.4-0.2-0.7-0.5-1c-0.4-0.3-0.7-0.5-1.2-0.5c-0.3,0-0.6-0.3-0.6-0.6c0-0.3,0.3-0.6,0.6-0.6h9.3
				c0.2,0,0.3-0.1,0.3-0.1c0.1-0.1,0.1-0.1,0.1-0.3v-4.5c0-0.1,0-0.2-0.1-0.3c-0.1-0.1-0.2-0.1-0.3-0.1H340.5z"/>
		</g>
		<g>
			<path class="st2" d="M380-380.1h-6.4c-0.7,0-1.2-0.2-1.5-0.5c-0.3-0.3-0.6-0.7-0.7-1.1l-8.1-25.7l-0.1-0.4c0,0,0-0.1,0-0.1
				c0-0.4,0.1-0.7,0.4-1c0.3-0.3,0.7-0.4,1.1-0.4h5.2c0.6,0,1,0.2,1.4,0.5c0.3,0.3,0.5,0.7,0.7,1l4.9,16.2l4.9-16.2
				c0.2-0.5,0.4-0.9,0.8-1.1c0.4-0.2,0.8-0.4,1.3-0.4h5.2c0.4,0,0.7,0.1,1,0.4c0.3,0.3,0.5,0.6,0.5,1c0,0.3,0,0.4-0.1,0.6l-8.1,25.6
				c-0.1,0.4-0.3,0.7-0.7,1.1C381.2-380.3,380.7-380.1,380-380.1z M364.4-408l0.1,0.3l8.1,25.6c0.1,0.2,0.2,0.4,0.4,0.6
				c0.1,0.1,0.4,0.2,0.7,0.2h6.4c0.3,0,0.6-0.1,0.7-0.2c0.2-0.2,0.3-0.4,0.3-0.6l8.1-25.7c0,0,0,0,0,0c0,0,0-0.1,0-0.2
				c0,0,0-0.1-0.1-0.1c-0.1-0.1-0.1-0.1-0.2-0.1h-5.2c-0.2,0-0.4,0.1-0.6,0.2c-0.1,0.1-0.3,0.2-0.3,0.5l-5.3,17.4
				c0,0.4-0.3,0.6-0.8,0.6c-0.5,0-0.7-0.3-0.8-0.6l-5.3-17.4c0-0.1-0.2-0.3-0.3-0.5c-0.1-0.1-0.3-0.1-0.6-0.1h-5.2
				C364.5-408.1,364.5-408.1,364.4-408C364.4-408,364.4-408,364.4-408z M389.3-407.7L389.3-407.7L389.3-407.7z M389.3-407.8
				C389.3-407.8,389.3-407.8,389.3-407.8C389.3-407.8,389.3-407.8,389.3-407.8z"/>
		</g>
		<g>
			<path class="st2" d="M406.5-380.1h-12.7c-0.4,0-0.8-0.2-1.1-0.5c-0.3-0.3-0.5-0.7-0.5-1.1v-23.5c0-0.7,0.1-1.3,0.4-1.8
				c0.3-0.5,0.6-0.9,1-1.3c0.4-0.3,0.9-0.6,1.3-0.8c0.5-0.2,0.9-0.2,1.3-0.2h9.9c1.4,0,2.7,0.1,4,0.4c1.3,0.3,2.4,0.7,3.4,1.4
				c1,0.7,1.8,1.6,2.4,2.7c0.6,1.1,0.9,2.5,0.9,4.1c0,1.3-0.3,2.4-1,3.4c-0.4,0.7-1,1.4-1.7,1.9c0.9,0.5,1.6,1.3,2.2,2.2
				c0.7,1.3,1.1,2.6,1.1,3.9c0,1.6-0.3,3.1-0.9,4.2c-0.6,1.2-1.4,2.1-2.4,2.8c-1,0.7-2.2,1.3-3.5,1.6
				C409.4-380.3,408-380.1,406.5-380.1z M396.3-408.1c-0.3,0-0.6,0.1-1,0.2c-0.3,0.1-0.7,0.3-0.9,0.5c-0.3,0.2-0.5,0.6-0.7,0.9
				c-0.2,0.3-0.3,0.8-0.3,1.3v23.5c0,0.1,0,0.2,0.1,0.3c0.1,0.1,0.2,0.1,0.3,0.1h12.7c1.3,0,2.6-0.1,3.8-0.4
				c1.2-0.3,2.2-0.8,3.1-1.4c0.9-0.6,1.5-1.4,2.1-2.4c0.5-1,0.8-2.2,0.8-3.7c0-1.1-0.3-2.3-0.9-3.3c-0.6-1.1-1.5-1.8-2.5-2.2
				c-0.2-0.1-0.4-0.3-0.4-0.5c0-0.2,0.1-0.4,0.3-0.6c0.9-0.5,1.7-1.2,2.2-2c0.5-0.8,0.8-1.8,0.8-2.8c0-1.4-0.2-2.6-0.7-3.6
				c-0.5-0.9-1.2-1.7-2-2.3c-0.8-0.6-1.8-1-3-1.2c-1.2-0.2-2.4-0.4-3.7-0.4H396.3z M405.7-385.5h-4.2c-0.7,0-1.2-0.3-1.4-0.6
				c-0.3-0.4-0.4-0.8-0.4-1.2v-2.9c0-0.4-0.2-0.7-0.5-1.1c-0.3-0.3-0.7-0.5-1.1-0.5c-0.3,0-0.6-0.3-0.6-0.6c0-0.3,0.3-0.6,0.6-0.6
				h7.6c1.1,0,2,0.3,2.7,1c0.7,0.7,1.1,1.6,1.1,2.7c0,1.2-0.4,2.1-1.1,2.7C407.8-385.9,406.8-385.5,405.7-385.5z M400.4-391.8
				c0.3,0.5,0.5,1,0.5,1.5v2.9c0,0.1,0.1,0.3,0.2,0.4c0,0,0.1,0.2,0.4,0.2h4.2c0.8,0,1.5-0.2,2-0.7c0.5-0.4,0.7-1,0.7-1.8
				c0-0.8-0.2-1.4-0.7-1.9c-0.5-0.5-1.1-0.7-1.9-0.7H400.4z M405.4-397h-3.8c-0.6,0-1-0.2-1.4-0.6c-0.3-0.4-0.5-0.8-0.5-1.1v-2.4
				c0-0.4-0.2-0.7-0.5-1.1c-0.3-0.3-0.7-0.5-1.1-0.5c-0.3,0-0.6-0.3-0.6-0.6c0-0.3,0.3-0.6,0.6-0.6h7.2c1,0,1.9,0.3,2.6,0.8
				c0.7,0.6,1.1,1.5,1.1,2.6c0,1.1-0.4,2-1,2.6C407.3-397.3,406.4-397,405.4-397z M400.4-402.7c0.3,0.5,0.5,1,0.5,1.5v2.4
				c0,0.1,0.1,0.2,0.2,0.4c0.1,0.1,0.2,0.2,0.4,0.2h3.8c0.8,0,1.4-0.2,1.8-0.6c0.4-0.4,0.6-0.9,0.6-1.7c0-0.8-0.2-1.3-0.6-1.6
				c-0.5-0.4-1.1-0.6-1.8-0.6H400.4z"/>
		</g>
		<g>
			<path class="st2" d="M440.1-380.1h-19.2c-0.4,0-0.8-0.2-1.1-0.5c-0.3-0.3-0.5-0.7-0.5-1.1v-23.5c0-1.2,0.4-2.2,1.2-2.9
				c0.8-0.8,1.8-1.1,2.9-1.1h16.4c0.5,0,0.9,0.2,1.2,0.5c0.3,0.3,0.5,0.7,0.5,1.2v4c0,0.6-0.3,0.9-0.5,1.1c-0.3,0.3-0.7,0.4-1.2,0.4
				h-12.6c0.3,0.5,0.5,1,0.5,1.6v1.7c0,0.2,0.1,0.3,0.2,0.5c0,0,0.1,0.2,0.4,0.2h8.8c0.5,0,0.9,0.2,1.2,0.5c0.3,0.3,0.5,0.7,0.5,1.2
				v3.6c0,0.5-0.2,0.9-0.5,1.2c-0.3,0.3-0.7,0.5-1.2,0.5h-9.9c0.3,0.5,0.5,1,0.5,1.5v1.9c0,0.2,0.1,0.3,0.2,0.5
				c0.1,0.1,0.2,0.2,0.4,0.2h11.7c1,0,1.6,0.6,1.6,1.6v3.9c0,0.6-0.3,1-0.5,1.2C440.9-380.2,440.5-380.1,440.1-380.1z M423.4-408.1
				c-0.8,0-1.5,0.3-2,0.8c-0.6,0.5-0.9,1.2-0.9,2.1v23.5c0,0.1,0,0.2,0.1,0.3c0.1,0.1,0.2,0.1,0.3,0.1h19.2c0.2,0,0.3-0.1,0.4-0.1
				c0,0,0.1-0.1,0.1-0.3v-3.9c0-0.4-0.1-0.4-0.4-0.4h-11.7c-0.6,0-1-0.2-1.4-0.6c-0.3-0.4-0.5-0.8-0.5-1.2v-1.9c0-0.4-0.2-0.7-0.5-1
				c-0.3-0.3-0.7-0.5-1.1-0.5c-0.3,0-0.6-0.3-0.6-0.6c0-0.3,0.3-0.6,0.6-0.6h12.2c0.1,0,0.2,0,0.3-0.1c0.1-0.1,0.1-0.2,0.1-0.3v-3.6
				c0-0.1,0-0.2-0.1-0.3c-0.1-0.1-0.2-0.1-0.3-0.1h-8.8c-0.7,0-1.2-0.3-1.4-0.6c-0.3-0.4-0.4-0.8-0.4-1.2v-1.7
				c0-0.4-0.2-0.7-0.5-1.1c-0.3-0.3-0.7-0.5-1.1-0.5c-0.3,0-0.6-0.3-0.6-0.6c0-0.3,0.3-0.6,0.6-0.6h14.8c0.2,0,0.3-0.1,0.3-0.1
				c0.1,0,0.1-0.1,0.1-0.3v-4c0-0.1,0-0.2-0.1-0.3c-0.1-0.1-0.2-0.1-0.3-0.1H423.4z"/>
		</g>
		<g>
			<path class="st2" d="M458.6-380.1h-5.6c-0.4,0-0.8-0.1-1.1-0.4c-0.3-0.3-0.5-0.7-0.5-1.1V-401c0-0.3-0.1-0.4-0.2-0.4
				c-0.1-0.1-0.3-0.2-0.4-0.2H445c-0.4,0-0.8-0.1-1.1-0.4c-0.3-0.3-0.5-0.7-0.5-1.2v-2.1c0-0.6,0.1-1.2,0.4-1.7
				c0.2-0.5,0.5-0.9,0.9-1.3c0.4-0.4,0.8-0.6,1.3-0.8c0.5-0.2,1-0.3,1.5-0.3h15.9c0.5,0,0.9,0.2,1.2,0.5c0.3,0.3,0.5,0.7,0.5,1.1
				v4.5c0,0.5-0.2,0.9-0.5,1.2c-0.3,0.3-0.7,0.4-1.2,0.4h-3.5c0.4,0.5,0.5,1,0.5,1.5v18.4c0,0.5-0.2,0.9-0.5,1.1
				C459.5-380.3,459.1-380.1,458.6-380.1z M447.4-408.1c-0.4,0-0.7,0.1-1.1,0.2c-0.3,0.1-0.7,0.3-0.9,0.6c-0.3,0.3-0.5,0.6-0.7,0.9
				c-0.2,0.3-0.2,0.7-0.2,1.2v2.1c0,0.1,0,0.2,0.1,0.3c0.1,0.1,0.2,0.1,0.3,0.1h5.8c0.5,0,0.9,0.2,1.2,0.5c0.4,0.3,0.6,0.8,0.6,1.3
				v19.3c0,0.1,0,0.2,0.1,0.2c0,0,0,0,0.1,0.1c0.1,0.1,0.1,0.1,0.3,0.1h5.6c0.2,0,0.2-0.1,0.3-0.1c0,0,0,0,0.1-0.1
				c0,0,0.1-0.1,0.1-0.2v-18.4c0-0.4-0.2-0.7-0.5-1c-0.4-0.3-0.7-0.5-1.2-0.5c-0.3,0-0.6-0.3-0.6-0.6c0-0.3,0.3-0.6,0.6-0.6h5.9
				c0.2,0,0.3-0.1,0.3-0.1c0.1-0.1,0.1-0.1,0.1-0.3v-4.5c0-0.1,0-0.2-0.1-0.3c-0.1-0.1-0.2-0.1-0.3-0.1H447.4z"/>
		</g>
	</g>
	<g>
		<g>
			<path class="st2" d="M320.9-380.2h-16.2c-0.7,0-1.3-0.4-1.7-1L283.5-421c-0.3-0.6-0.2-1.2,0.1-1.8c0.3-0.5,0.9-0.9,1.6-0.9H302
				c0.7,0,1.4,0.4,1.7,1.1l18.8,39.7c0.3,0.6,0.2,1.2-0.1,1.8C322.1-380.5,321.5-380.2,320.9-380.2z M285.2-422.5
				c-0.2,0-0.4,0.1-0.6,0.3c-0.1,0.2-0.1,0.4,0,0.6l19.4,39.7c0.1,0.2,0.3,0.4,0.6,0.4h16.2c0.2,0,0.4-0.1,0.5-0.3
				c0.1-0.2,0.1-0.4,0-0.6l-18.8-39.7c-0.1-0.2-0.3-0.4-0.6-0.4H285.2z"/>
		</g>
		<g>
			<path class="st2" d="M325.7-425.5c-0.2,0-0.5,0-0.7-0.2c0,0,0,0,0,0L324-426c-0.5-0.2-0.8-0.6-1-1c-0.2-0.5-0.2-1,0-1.4l4.7-10.6
				c0.4-0.9,1.5-1.4,2.4-0.9l0.9,0.4c0.9,0.4,1.4,1.5,0.9,2.4l-4.7,10.6C327.1-425.9,326.4-425.5,325.7-425.5z M325.5-426.7
				c0.3,0.1,0.7,0,0.9-0.3l4.7-10.6c0.1-0.3,0-0.7-0.3-0.8l-0.9-0.4c-0.3-0.1-0.7,0-0.9,0.3l-4.7,10.6c-0.1,0.2-0.1,0.3,0,0.5
				c0.1,0.2,0.2,0.3,0.3,0.4L325.5-426.7z"/>
		</g>
		<g>
			<path class="st2" d="M329.2-415.9c-0.3,0-0.5-0.1-0.8-0.2l-0.9-0.4c-0.9-0.4-1.4-1.5-0.9-2.4l6.1-13.8c0.2-0.5,0.6-0.8,1-1
				c0.5-0.2,1-0.2,1.4,0l0.9,0.4c0.9,0.4,1.4,1.5,0.9,2.4l-6.1,13.8c-0.2,0.5-0.6,0.8-1,1C329.6-415.9,329.4-415.9,329.2-415.9z
				 M334.3-432.6c-0.1,0-0.2,0-0.2,0c-0.2,0.1-0.3,0.2-0.4,0.3l-6.1,13.8c-0.1,0.3,0,0.7,0.3,0.9l0.9,0.4l0,0c0.2,0.1,0.3,0.1,0.5,0
				c0.2-0.1,0.3-0.2,0.4-0.4l6.1-13.8c0.1-0.3,0-0.7-0.3-0.9l-0.9-0.4C334.5-432.6,334.4-432.6,334.3-432.6z"/>
		</g>
		<g>
			<path class="st2" d="M337.8-435.5c-0.3,0-0.5-0.1-0.7-0.2l-0.9-0.4c-0.5-0.2-0.8-0.6-1-1c-0.2-0.5-0.2-1,0-1.4l0.4-0.9
				c0.4-0.9,1.5-1.4,2.4-0.9l0.9,0.4c0.9,0.4,1.4,1.5,0.9,2.4l-0.4,0.9c-0.2,0.5-0.6,0.8-1,1C338.3-435.6,338.1-435.5,337.8-435.5z
				 M337.3-439.4c-0.3,0-0.5,0.1-0.6,0.4l-0.4,0.9c-0.1,0.2-0.1,0.3,0,0.5c0.1,0.2,0.2,0.3,0.3,0.4l0.9,0.4c0,0,0,0,0,0
				c0.2,0.1,0.3,0.1,0.5,0c0.2-0.1,0.3-0.2,0.4-0.3l0.4-0.9c0.1-0.3,0-0.7-0.3-0.9l-0.9-0.4C337.5-439.3,337.4-439.4,337.3-439.4z"
				/>
		</g>
		<g>
			<path class="st2" d="M321-380.2h-16.3c-0.7,0-1.4-0.4-1.7-1.1c-0.1-0.3,0-0.7,0.3-0.8c0.3-0.1,0.7,0,0.8,0.3
				c0.1,0.2,0.3,0.4,0.6,0.4H321c0.3,0,0.5-0.2,0.6-0.4l11.9-26.5c0-0.1,0-0.2,0-0.2c0,0-0.1-0.1-0.1-0.1l-1.3-0.6
				c-0.5-0.2-0.8-0.6-1-1c-0.2-0.5-0.2-1,0-1.4l1.2-2.6c0.1-0.3,0-0.7-0.3-0.9l-1.1-0.5c-0.2-0.1-0.5,0-0.6,0.3l-4.8,11
				c-0.2,0.5-0.6,0.8-1,1c-0.5,0.2-1,0.2-1.4,0l-0.9-0.4c-0.9-0.4-1.4-1.5-0.9-2.4l7.2-16.5c0.1-0.3,0-0.7-0.3-0.9L327-424
				c-0.3-0.1-0.7,0-0.9,0.3l-5.5,12.5c-0.4,0.9-1.5,1.4-2.4,0.9l-0.9-0.4c-0.3-0.1-0.7,0-0.9,0.3l-3.4,7.8c-0.1,0.3-0.5,0.4-0.8,0.3
				c-0.3-0.1-0.4-0.5-0.3-0.8l3.4-7.8c0.4-0.9,1.5-1.4,2.4-0.9l0.9,0.4c0.3,0.1,0.7,0,0.9-0.3l5.5-12.5c0.4-0.9,1.5-1.4,2.4-0.9
				l0.9,0.4c0.9,0.4,1.4,1.5,0.9,2.4l-7.2,16.5c-0.1,0.3,0,0.7,0.3,0.9l0.9,0.4c0.2,0.1,0.3,0.1,0.5,0c0.2-0.1,0.3-0.2,0.4-0.3
				l4.8-11c0.4-0.8,1.4-1.2,2.2-0.9l1.1,0.5c0.9,0.4,1.4,1.5,0.9,2.4l-1.2,2.6c-0.1,0.2-0.1,0.3,0,0.5c0.1,0.2,0.2,0.3,0.3,0.4
				l1.3,0.6c0.4,0.2,0.6,0.4,0.8,0.8c0.1,0.4,0.1,0.8,0,1.1l-11.9,26.5C322.3-380.6,321.7-380.2,321-380.2z"/>
		</g>
		<g>
			<path class="st2" d="M335.8-413.3c-0.3,0-0.5-0.1-0.7-0.2l-0.9-0.4c-0.5-0.2-0.8-0.6-1-1c-0.2-0.5-0.2-1,0-1.4l1.4-3.1
				c0.2-0.5,0.6-0.8,1-1c0.5-0.2,1-0.2,1.4,0l0.9,0.4c0.5,0.2,0.8,0.6,1,1c0.2,0.5,0.2,1,0,1.4l-1.4,3.1c-0.2,0.5-0.6,0.8-1,1
				C336.2-413.4,336-413.3,335.8-413.3z M336.2-419.3c-0.1,0-0.2,0-0.2,0c-0.2,0.1-0.3,0.2-0.4,0.3l-1.4,3.1c-0.1,0.2-0.1,0.3,0,0.5
				c0.1,0.2,0.2,0.3,0.3,0.4l0.9,0.4c0,0,0,0,0,0c0.2,0.1,0.3,0.1,0.5,0c0.2-0.1,0.3-0.2,0.4-0.3l1.4-3.1c0.1-0.2,0.1-0.3,0-0.5
				c-0.1-0.2-0.2-0.3-0.3-0.4l-0.9-0.4C336.4-419.3,336.3-419.3,336.2-419.3z"/>
		</g>
		<g>
			<path class="st2" d="M320.4-413.5c-0.3,0-0.5-0.1-0.7-0.2l-0.9-0.4c-0.9-0.4-1.4-1.5-0.9-2.4l1.4-3.1c0.4-0.9,1.5-1.4,2.4-0.9
				l0.9,0.4c0.9,0.4,1.4,1.5,0.9,2.4l-1.4,3.1c-0.2,0.5-0.6,0.8-1,1C320.9-413.5,320.7-413.5,320.4-413.5z M320.9-419.5
				c-0.3,0-0.5,0.1-0.6,0.4l-1.4,3.1c-0.1,0.3,0,0.7,0.3,0.9l0.9,0.4c0.2,0.1,0.3,0.1,0.5,0c0.2-0.1,0.3-0.2,0.4-0.3l1.4-3.1
				c0.1-0.3,0-0.7-0.3-0.9l-0.9-0.4C321-419.4,320.9-419.5,320.9-419.5z"/>
		</g>
		<g>
			<path class="st2" d="M339.5-421.8c-0.3,0-0.5-0.1-0.7-0.2l-0.9-0.4c-0.9-0.4-1.4-1.5-0.9-2.4l2.8-6.3c0.4-0.9,1.5-1.4,2.4-0.9
				l0.9,0.4c0.9,0.4,1.4,1.5,0.9,2.4l-2.8,6.3c-0.2,0.5-0.6,0.8-1,1C340-421.9,339.7-421.8,339.5-421.8z M341.3-431
				c-0.2,0-0.5,0.1-0.6,0.4l-2.8,6.3c-0.1,0.3,0,0.7,0.3,0.9l0.9,0.4l0,0c0.2,0.1,0.3,0.1,0.5,0c0.2-0.1,0.3-0.2,0.4-0.3l2.8-6.3
				c0.1-0.3,0-0.7-0.3-0.9l-0.9-0.4C341.5-431,341.4-431,341.3-431z"/>
		</g>
	</g>
	<g>
		<path class="st2" d="M472.6-401.6h-4.3c-1,0-1.8-0.8-1.8-1.8v-4.3c0-1,0.8-1.8,1.8-1.8h4.3c1,0,1.8,0.8,1.8,1.8v4.3
			C474.3-402.4,473.6-401.6,472.6-401.6z M468.3-408.2c-0.3,0-0.6,0.3-0.6,0.6v4.3c0,0.3,0.3,0.6,0.6,0.6h4.3c0.3,0,0.6-0.3,0.6-0.6
			v-4.3c0-0.3-0.3-0.6-0.6-0.6H468.3z"/>
	</g>
</g>
<g>
	<g>
		<g>
			<path class="st1" d="M351.7-187.8h-5.6c-0.4,0-0.8-0.1-1.1-0.4c-0.3-0.3-0.5-0.7-0.5-1.1v-19.3c0-0.3-0.1-0.4-0.2-0.4
				c-0.1-0.1-0.3-0.2-0.4-0.2H338c-0.4,0-0.8-0.1-1.1-0.4c-0.3-0.3-0.5-0.7-0.5-1.2v-2.1c0-0.6,0.1-1.2,0.4-1.7
				c0.2-0.5,0.6-0.9,0.9-1.3c0.4-0.4,0.8-0.6,1.3-0.8c0.5-0.2,1-0.3,1.5-0.3h19.3c0.5,0,0.9,0.2,1.2,0.5c0.3,0.3,0.5,0.7,0.5,1.1
				v4.5c0,0.5-0.2,0.9-0.5,1.2c-0.3,0.3-0.7,0.4-1.2,0.4h-7c0.4,0.5,0.5,1,0.5,1.5v18.4c0,0.5-0.2,0.9-0.5,1.1
				C352.5-188,352.1-187.8,351.7-187.8z M340.5-215.8c-0.4,0-0.7,0.1-1.1,0.2c-0.3,0.1-0.7,0.3-0.9,0.6c-0.3,0.3-0.5,0.6-0.7,0.9
				c-0.2,0.3-0.2,0.7-0.2,1.2v2.1c0,0.1,0,0.2,0.1,0.3c0.1,0.1,0.2,0.1,0.3,0.1h5.8c0.5,0,0.9,0.2,1.2,0.5c0.4,0.3,0.6,0.8,0.6,1.3
				v19.3c0,0.1,0,0.2,0.1,0.2c0,0,0,0,0.1,0.1c0.1,0.1,0.1,0.1,0.3,0.1h5.6c0.2,0,0.2-0.1,0.3-0.1c0,0,0,0,0.1-0.1
				c0,0,0.1-0.1,0.1-0.2v-18.4c0-0.4-0.2-0.7-0.5-1c-0.4-0.3-0.7-0.5-1.2-0.5c-0.3,0-0.6-0.3-0.6-0.6c0-0.3,0.3-0.6,0.6-0.6h9.3
				c0.2,0,0.3-0.1,0.3-0.1c0.1-0.1,0.1-0.1,0.1-0.3v-4.5c0-0.1,0-0.2-0.1-0.3c-0.1-0.1-0.2-0.1-0.3-0.1H340.5z"/>
		</g>
		<g>
			<path class="st1" d="M380-187.8h-6.4c-0.7,0-1.2-0.2-1.5-0.5c-0.3-0.3-0.6-0.7-0.7-1.1l-8.1-25.7l-0.1-0.4c0,0,0-0.1,0-0.1
				c0-0.4,0.1-0.7,0.4-1c0.3-0.3,0.7-0.4,1.1-0.4h5.2c0.6,0,1,0.2,1.4,0.5c0.3,0.3,0.5,0.7,0.7,1l4.9,16.2l4.9-16.2
				c0.2-0.5,0.4-0.9,0.8-1.1c0.4-0.2,0.8-0.4,1.3-0.4h5.2c0.4,0,0.7,0.1,1,0.4c0.3,0.3,0.5,0.6,0.5,1c0,0.3,0,0.4-0.1,0.6l-8.1,25.6
				c-0.1,0.4-0.3,0.7-0.7,1.1C381.2-188,380.7-187.8,380-187.8z M364.4-215.6l0.1,0.3l8.1,25.6c0.1,0.2,0.2,0.4,0.4,0.6
				c0.1,0.1,0.4,0.2,0.7,0.2h6.4c0.3,0,0.6-0.1,0.7-0.2c0.2-0.2,0.3-0.4,0.3-0.6l8.1-25.7c0,0,0,0,0,0c0,0,0-0.1,0-0.2
				c0,0,0-0.1-0.1-0.1c-0.1-0.1-0.1-0.1-0.2-0.1h-5.2c-0.2,0-0.4,0.1-0.6,0.2c-0.1,0.1-0.3,0.2-0.3,0.5l-5.3,17.4
				c0,0.4-0.3,0.6-0.8,0.6c-0.5,0-0.7-0.3-0.8-0.6l-5.3-17.4c0-0.1-0.2-0.3-0.3-0.5c-0.1-0.1-0.3-0.1-0.6-0.1h-5.2
				C364.5-215.8,364.5-215.8,364.4-215.6C364.4-215.7,364.4-215.7,364.4-215.6z M389.3-215.4L389.3-215.4L389.3-215.4z M389.3-215.5
				C389.3-215.5,389.3-215.5,389.3-215.5C389.3-215.5,389.3-215.5,389.3-215.5z"/>
		</g>
		<g>
			<path class="st1" d="M406.5-187.8h-12.7c-0.4,0-0.8-0.2-1.1-0.5c-0.3-0.3-0.5-0.7-0.5-1.1v-23.5c0-0.7,0.1-1.3,0.4-1.8
				c0.3-0.5,0.6-0.9,1-1.3c0.4-0.3,0.9-0.6,1.3-0.8c0.5-0.2,0.9-0.2,1.3-0.2h9.9c1.4,0,2.7,0.1,4,0.4c1.3,0.3,2.4,0.7,3.4,1.4
				c1,0.7,1.8,1.6,2.4,2.7c0.6,1.1,0.9,2.5,0.9,4.1c0,1.3-0.3,2.4-1,3.4c-0.4,0.7-1,1.4-1.7,1.9c0.9,0.5,1.6,1.3,2.2,2.2
				c0.7,1.3,1.1,2.6,1.1,3.9c0,1.6-0.3,3.1-0.9,4.2c-0.6,1.2-1.4,2.1-2.4,2.8c-1,0.7-2.2,1.3-3.5,1.6
				C409.4-187.9,408-187.8,406.5-187.8z M396.3-215.8c-0.3,0-0.6,0.1-1,0.2c-0.3,0.1-0.7,0.3-0.9,0.5c-0.3,0.2-0.5,0.6-0.7,0.9
				c-0.2,0.3-0.3,0.8-0.3,1.3v23.5c0,0.1,0,0.2,0.1,0.3c0.1,0.1,0.2,0.1,0.3,0.1h12.7c1.3,0,2.6-0.1,3.8-0.4
				c1.2-0.3,2.2-0.8,3.1-1.4c0.9-0.6,1.5-1.4,2.1-2.4c0.5-1,0.8-2.2,0.8-3.7c0-1.1-0.3-2.3-0.9-3.3c-0.6-1.1-1.5-1.8-2.5-2.2
				c-0.2-0.1-0.4-0.3-0.4-0.5c0-0.2,0.1-0.4,0.3-0.6c0.9-0.5,1.7-1.2,2.2-2c0.5-0.8,0.8-1.8,0.8-2.8c0-1.4-0.2-2.6-0.7-3.6
				c-0.5-0.9-1.2-1.7-2-2.3c-0.8-0.6-1.8-1-3-1.2c-1.2-0.2-2.4-0.4-3.7-0.4H396.3z M405.7-193.2h-4.2c-0.7,0-1.2-0.3-1.4-0.6
				c-0.3-0.4-0.4-0.8-0.4-1.2v-2.9c0-0.4-0.2-0.7-0.5-1.1c-0.3-0.3-0.7-0.5-1.1-0.5c-0.3,0-0.6-0.3-0.6-0.6c0-0.3,0.3-0.6,0.6-0.6
				h7.6c1.1,0,2,0.3,2.7,1c0.7,0.7,1.1,1.6,1.1,2.7c0,1.2-0.4,2.1-1.1,2.7C407.8-193.5,406.8-193.2,405.7-193.2z M400.4-199.5
				c0.3,0.5,0.5,1,0.5,1.5v2.9c0,0.1,0.1,0.3,0.2,0.4c0,0,0.1,0.2,0.4,0.2h4.2c0.8,0,1.5-0.2,2-0.7c0.5-0.4,0.7-1,0.7-1.8
				c0-0.8-0.2-1.4-0.7-1.9c-0.5-0.5-1.1-0.7-1.9-0.7H400.4z M405.4-204.7h-3.8c-0.6,0-1-0.2-1.4-0.6c-0.3-0.4-0.5-0.8-0.5-1.1v-2.4
				c0-0.4-0.2-0.7-0.5-1.1c-0.3-0.3-0.7-0.5-1.1-0.5c-0.3,0-0.6-0.3-0.6-0.6c0-0.3,0.3-0.6,0.6-0.6h7.2c1,0,1.9,0.3,2.6,0.8
				c0.7,0.6,1.1,1.5,1.1,2.6c0,1.1-0.4,2-1,2.6C407.3-205,406.4-204.7,405.4-204.7z M400.4-210.4c0.3,0.5,0.5,1,0.5,1.5v2.4
				c0,0.1,0.1,0.2,0.2,0.4c0.1,0.1,0.2,0.2,0.4,0.2h3.8c0.8,0,1.4-0.2,1.8-0.6c0.4-0.4,0.6-0.9,0.6-1.7c0-0.8-0.2-1.3-0.6-1.6
				c-0.5-0.4-1.1-0.6-1.8-0.6H400.4z"/>
		</g>
		<g>
			<path class="st1" d="M440.1-187.7h-19.2c-0.4,0-0.8-0.2-1.1-0.5c-0.3-0.3-0.5-0.7-0.5-1.1v-23.5c0-1.2,0.4-2.2,1.2-2.9
				c0.8-0.8,1.8-1.1,2.9-1.1h16.4c0.5,0,0.9,0.2,1.2,0.5c0.3,0.3,0.5,0.7,0.5,1.2v4c0,0.6-0.3,0.9-0.5,1.1c-0.3,0.3-0.7,0.4-1.2,0.4
				h-12.6c0.3,0.5,0.5,1,0.5,1.6v1.7c0,0.2,0.1,0.3,0.2,0.5c0,0,0.1,0.2,0.4,0.2h8.8c0.5,0,0.9,0.2,1.2,0.5c0.3,0.3,0.5,0.7,0.5,1.2
				v3.6c0,0.5-0.2,0.9-0.5,1.2c-0.3,0.3-0.7,0.5-1.2,0.5h-9.9c0.3,0.5,0.5,1,0.5,1.5v1.9c0,0.2,0.1,0.3,0.2,0.5
				c0.1,0.1,0.2,0.2,0.4,0.2h11.7c1,0,1.6,0.6,1.6,1.6v3.9c0,0.6-0.3,1-0.5,1.2C440.9-187.9,440.5-187.7,440.1-187.7z M423.4-215.8
				c-0.8,0-1.5,0.3-2,0.8c-0.6,0.5-0.9,1.2-0.9,2.1v23.5c0,0.1,0,0.2,0.1,0.3c0.1,0.1,0.2,0.1,0.3,0.1h19.2c0.2,0,0.3-0.1,0.4-0.1
				c0,0,0.1-0.1,0.1-0.3v-3.9c0-0.4-0.1-0.4-0.4-0.4h-11.7c-0.6,0-1-0.2-1.4-0.6c-0.3-0.4-0.5-0.8-0.5-1.2v-1.9c0-0.4-0.2-0.7-0.5-1
				c-0.3-0.3-0.7-0.5-1.1-0.5c-0.3,0-0.6-0.3-0.6-0.6s0.3-0.6,0.6-0.6h12.2c0.1,0,0.2,0,0.3-0.1c0.1-0.1,0.1-0.2,0.1-0.3v-3.6
				c0-0.1,0-0.2-0.1-0.3c-0.1-0.1-0.2-0.1-0.3-0.1h-8.8c-0.7,0-1.2-0.3-1.4-0.6c-0.3-0.4-0.4-0.8-0.4-1.2v-1.7
				c0-0.4-0.2-0.7-0.5-1.1c-0.3-0.3-0.7-0.5-1.1-0.5c-0.3,0-0.6-0.3-0.6-0.6s0.3-0.6,0.6-0.6h14.8c0.2,0,0.3-0.1,0.3-0.1
				c0.1,0,0.1-0.1,0.1-0.3v-4c0-0.1,0-0.2-0.1-0.3c-0.1-0.1-0.2-0.1-0.3-0.1H423.4z"/>
		</g>
		<g>
			<path class="st1" d="M458.6-187.8h-5.6c-0.4,0-0.8-0.1-1.1-0.4c-0.3-0.3-0.5-0.7-0.5-1.1v-19.3c0-0.3-0.1-0.4-0.2-0.4
				c-0.1-0.1-0.3-0.2-0.4-0.2H445c-0.4,0-0.8-0.1-1.1-0.4c-0.3-0.3-0.5-0.7-0.5-1.2v-2.1c0-0.6,0.1-1.2,0.4-1.7
				c0.2-0.5,0.5-0.9,0.9-1.3c0.4-0.4,0.8-0.6,1.3-0.8c0.5-0.2,1-0.3,1.5-0.3h15.9c0.5,0,0.9,0.2,1.2,0.5c0.3,0.3,0.5,0.7,0.5,1.1
				v4.5c0,0.5-0.2,0.9-0.5,1.2c-0.3,0.3-0.7,0.4-1.2,0.4h-3.5c0.4,0.5,0.5,1,0.5,1.5v18.4c0,0.5-0.2,0.9-0.5,1.1
				C459.5-188,459.1-187.8,458.6-187.8z M447.4-215.8c-0.4,0-0.7,0.1-1.1,0.2c-0.3,0.1-0.7,0.3-0.9,0.6c-0.3,0.3-0.5,0.6-0.7,0.9
				c-0.2,0.3-0.2,0.7-0.2,1.2v2.1c0,0.1,0,0.2,0.1,0.3c0.1,0.1,0.2,0.1,0.3,0.1h5.8c0.5,0,0.9,0.2,1.2,0.5c0.4,0.3,0.6,0.8,0.6,1.3
				v19.3c0,0.1,0,0.2,0.1,0.2c0,0,0,0,0.1,0.1c0.1,0.1,0.1,0.1,0.3,0.1h5.6c0.2,0,0.2-0.1,0.3-0.1c0,0,0,0,0.1-0.1
				c0,0,0.1-0.1,0.1-0.2v-18.4c0-0.4-0.2-0.7-0.5-1c-0.4-0.3-0.7-0.5-1.2-0.5c-0.3,0-0.6-0.3-0.6-0.6c0-0.3,0.3-0.6,0.6-0.6h5.9
				c0.2,0,0.3-0.1,0.3-0.1c0.1-0.1,0.1-0.1,0.1-0.3v-4.5c0-0.1,0-0.2-0.1-0.3c-0.1-0.1-0.2-0.1-0.3-0.1H447.4z"/>
		</g>
	</g>
	<g>
		<g>
			<path class="st1" d="M320.9-187.9h-16.2c-0.7,0-1.3-0.4-1.7-1l-19.4-39.7c-0.3-0.6-0.2-1.2,0.1-1.8c0.3-0.5,0.9-0.9,1.6-0.9H302
				c0.7,0,1.4,0.4,1.7,1.1l18.8,39.7c0.3,0.6,0.2,1.2-0.1,1.8C322.1-188.2,321.5-187.9,320.9-187.9z M285.2-230.1
				c-0.2,0-0.4,0.1-0.6,0.3c-0.1,0.2-0.1,0.4,0,0.6l19.4,39.7c0.1,0.2,0.3,0.4,0.6,0.4h16.2c0.2,0,0.4-0.1,0.5-0.3
				c0.1-0.2,0.1-0.4,0-0.6l-18.8-39.7c-0.1-0.2-0.3-0.4-0.6-0.4H285.2z"/>
		</g>
		<g>
			<path class="st1" d="M325.7-233.1c-0.2,0-0.5,0-0.7-0.2c0,0,0,0,0,0l-0.9-0.4c-0.5-0.2-0.8-0.6-1-1c-0.2-0.5-0.2-1,0-1.4
				l4.7-10.6c0.4-0.9,1.5-1.4,2.4-0.9l0.9,0.4c0.9,0.4,1.4,1.5,0.9,2.4l-4.7,10.6C327.1-233.5,326.4-233.1,325.7-233.1z
				 M325.5-234.4c0.3,0.1,0.7,0,0.9-0.3l4.7-10.6c0.1-0.3,0-0.7-0.3-0.8l-0.9-0.4c-0.3-0.1-0.7,0-0.9,0.3l-4.7,10.6
				c-0.1,0.2-0.1,0.3,0,0.5c0.1,0.2,0.2,0.3,0.3,0.4L325.5-234.4z"/>
		</g>
		<g>
			<path class="st1" d="M329.2-223.5c-0.3,0-0.5-0.1-0.8-0.2l-0.9-0.4c-0.9-0.4-1.4-1.5-0.9-2.4l6.1-13.8c0.2-0.5,0.6-0.8,1-1
				c0.5-0.2,1-0.2,1.4,0l0.9,0.4c0.9,0.4,1.4,1.5,0.9,2.4l-6.1,13.8c-0.2,0.5-0.6,0.8-1,1C329.6-223.6,329.4-223.5,329.2-223.5z
				 M334.3-240.3c-0.1,0-0.2,0-0.2,0c-0.2,0.1-0.3,0.2-0.4,0.3l-6.1,13.8c-0.1,0.3,0,0.7,0.3,0.9l0.9,0.4l0,0c0.2,0.1,0.3,0.1,0.5,0
				c0.2-0.1,0.3-0.2,0.4-0.4l6.1-13.8c0.1-0.3,0-0.7-0.3-0.9l-0.9-0.4C334.5-240.3,334.4-240.3,334.3-240.3z"/>
		</g>
		<g>
			<path class="st1" d="M337.8-243.2c-0.3,0-0.5-0.1-0.7-0.2l-0.9-0.4c-0.5-0.2-0.8-0.6-1-1c-0.2-0.5-0.2-1,0-1.4l0.4-0.9
				c0.4-0.9,1.5-1.4,2.4-0.9l0.9,0.4c0.9,0.4,1.4,1.5,0.9,2.4l-0.4,0.9c-0.2,0.5-0.6,0.8-1,1C338.3-243.2,338.1-243.2,337.8-243.2z
				 M337.3-247c-0.3,0-0.5,0.1-0.6,0.4l-0.4,0.9c-0.1,0.2-0.1,0.3,0,0.5c0.1,0.2,0.2,0.3,0.3,0.4l0.9,0.4c0,0,0,0,0,0
				c0.2,0.1,0.3,0.1,0.5,0c0.2-0.1,0.3-0.2,0.4-0.3l0.4-0.9c0.1-0.3,0-0.7-0.3-0.9l-0.9-0.4C337.5-247,337.4-247,337.3-247z"/>
		</g>
		<g>
			<path class="st1" d="M321-187.9h-16.3c-0.7,0-1.4-0.4-1.7-1.1c-0.1-0.3,0-0.7,0.3-0.8c0.3-0.1,0.7,0,0.8,0.3
				c0.1,0.2,0.3,0.4,0.6,0.4H321c0.3,0,0.5-0.2,0.6-0.4l11.9-26.5c0-0.1,0-0.2,0-0.2c0,0-0.1-0.1-0.1-0.1l-1.3-0.6
				c-0.5-0.2-0.8-0.6-1-1c-0.2-0.5-0.2-1,0-1.4l1.2-2.6c0.1-0.3,0-0.7-0.3-0.9l-1.1-0.5c-0.2-0.1-0.5,0-0.6,0.3l-4.8,11
				c-0.2,0.5-0.6,0.8-1,1c-0.5,0.2-1,0.2-1.4,0l-0.9-0.4c-0.9-0.4-1.4-1.5-0.9-2.4l7.2-16.5c0.1-0.3,0-0.7-0.3-0.9l-0.9-0.4
				c-0.3-0.1-0.7,0-0.9,0.3l-5.5,12.5c-0.4,0.9-1.5,1.4-2.4,0.9l-0.9-0.4c-0.3-0.1-0.7,0-0.9,0.3l-3.4,7.8c-0.1,0.3-0.5,0.4-0.8,0.3
				c-0.3-0.1-0.4-0.5-0.3-0.8l3.4-7.8c0.4-0.9,1.5-1.4,2.4-0.9l0.9,0.4c0.3,0.1,0.7,0,0.9-0.3l5.5-12.5c0.4-0.9,1.5-1.4,2.4-0.9
				l0.9,0.4c0.9,0.4,1.4,1.5,0.9,2.4l-7.2,16.5c-0.1,0.3,0,0.7,0.3,0.9l0.9,0.4c0.2,0.1,0.3,0.1,0.5,0c0.2-0.1,0.3-0.2,0.4-0.3
				l4.8-11c0.4-0.8,1.4-1.2,2.2-0.9l1.1,0.5c0.9,0.4,1.4,1.5,0.9,2.4l-1.2,2.6c-0.1,0.2-0.1,0.3,0,0.5c0.1,0.2,0.2,0.3,0.3,0.4
				l1.3,0.6c0.4,0.2,0.6,0.4,0.8,0.8c0.1,0.4,0.1,0.8,0,1.1L322.6-189C322.3-188.3,321.7-187.9,321-187.9z"/>
		</g>
		<g>
			<path class="st1" d="M335.8-221c-0.3,0-0.5-0.1-0.7-0.2l-0.9-0.4c-0.5-0.2-0.8-0.6-1-1c-0.2-0.5-0.2-1,0-1.4l1.4-3.1
				c0.2-0.5,0.6-0.8,1-1s1-0.2,1.4,0l0.9,0.4c0.5,0.2,0.8,0.6,1,1c0.2,0.5,0.2,1,0,1.4l-1.4,3.1c-0.2,0.5-0.6,0.8-1,1
				C336.2-221.1,336-221,335.8-221z M336.2-227c-0.1,0-0.2,0-0.2,0c-0.2,0.1-0.3,0.2-0.4,0.3l-1.4,3.1c-0.1,0.2-0.1,0.3,0,0.5
				c0.1,0.2,0.2,0.3,0.3,0.4l0.9,0.4c0,0,0,0,0,0c0.2,0.1,0.3,0.1,0.5,0c0.2-0.1,0.3-0.2,0.4-0.3l1.4-3.1c0.1-0.2,0.1-0.3,0-0.5
				c-0.1-0.2-0.2-0.3-0.3-0.4l-0.9-0.4C336.4-227,336.3-227,336.2-227z"/>
		</g>
		<g>
			<path class="st1" d="M320.4-221.1c-0.3,0-0.5-0.1-0.7-0.2l-0.9-0.4c-0.9-0.4-1.4-1.5-0.9-2.4l1.4-3.1c0.4-0.9,1.5-1.4,2.4-0.9
				l0.9,0.4c0.9,0.4,1.4,1.5,0.9,2.4l-1.4,3.1c-0.2,0.5-0.6,0.8-1,1C320.9-221.2,320.7-221.1,320.4-221.1z M320.9-227.1
				c-0.3,0-0.5,0.1-0.6,0.4l-1.4,3.1c-0.1,0.3,0,0.7,0.3,0.9l0.9,0.4c0.2,0.1,0.3,0.1,0.5,0c0.2-0.1,0.3-0.2,0.4-0.3l1.4-3.1
				c0.1-0.3,0-0.7-0.3-0.9l-0.9-0.4C321-227.1,320.9-227.1,320.9-227.1z"/>
		</g>
		<g>
			<path class="st1" d="M339.5-229.5c-0.3,0-0.5-0.1-0.7-0.2l-0.9-0.4c-0.9-0.4-1.4-1.5-0.9-2.4l2.8-6.3c0.4-0.9,1.5-1.4,2.4-0.9
				l0.9,0.4c0.9,0.4,1.4,1.5,0.9,2.4l-2.8,6.3c-0.2,0.5-0.6,0.8-1,1C340-229.5,339.7-229.5,339.5-229.5z M341.3-238.7
				c-0.2,0-0.5,0.1-0.6,0.4L338-232c-0.1,0.3,0,0.7,0.3,0.9l0.9,0.4l0,0c0.2,0.1,0.3,0.1,0.5,0c0.2-0.1,0.3-0.2,0.4-0.3l2.8-6.3
				c0.1-0.3,0-0.7-0.3-0.9l-0.9-0.4C341.5-238.7,341.4-238.7,341.3-238.7z"/>
		</g>
	</g>
	<g>
		<path class="st1" d="M472.6-209.3h-4.3c-1,0-1.8-0.8-1.8-1.8v-4.3c0-1,0.8-1.8,1.8-1.8h4.3c1,0,1.8,0.8,1.8,1.8v4.3
			C474.3-210,473.6-209.3,472.6-209.3z M468.3-215.9c-0.3,0-0.6,0.3-0.6,0.6v4.3c0,0.3,0.3,0.6,0.6,0.6h4.3c0.3,0,0.6-0.3,0.6-0.6
			v-4.3c0-0.3-0.3-0.6-0.6-0.6H468.3z"/>
	</g>
</g>
<g>
	<g>
		<path class="st3" d="M94.2,143.3c0.3,0,0.5,0.1,0.7,0.3c0.2,0.2,0.3,0.4,0.3,0.7v4.5c0,0.3-0.1,0.5-0.3,0.7
			c-0.2,0.2-0.4,0.3-0.7,0.3h-9.3c0.6,0,1.1,0.2,1.6,0.6c0.5,0.4,0.7,0.9,0.7,1.4v18.4c0,0.3-0.1,0.5-0.3,0.7
			c-0.2,0.2-0.4,0.3-0.7,0.3h-5.6c-0.3,0-0.5-0.1-0.7-0.3c-0.2-0.2-0.3-0.4-0.3-0.7V151c0-0.4-0.1-0.7-0.4-0.9
			c-0.2-0.2-0.5-0.3-0.8-0.3h-5.8c-0.3,0-0.5-0.1-0.7-0.3c-0.2-0.2-0.3-0.4-0.3-0.7v-2.1c0-0.5,0.1-1,0.3-1.4
			c0.2-0.4,0.5-0.8,0.8-1.1c0.3-0.3,0.7-0.5,1.1-0.7c0.4-0.2,0.8-0.2,1.3-0.2H94.2z"/>
		<path class="st3" d="M123.5,143.3c0.2,0,0.4,0.1,0.6,0.2c0.2,0.2,0.3,0.3,0.3,0.6c0,0.2,0,0.3,0,0.4l-8.1,25.7
			c-0.1,0.3-0.3,0.6-0.5,0.8c-0.2,0.2-0.6,0.3-1.1,0.3h-6.4c-0.5,0-0.9-0.1-1.1-0.3c-0.3-0.2-0.5-0.5-0.6-0.8l-8.1-25.7l-0.1-0.4
			c0-0.2,0.1-0.4,0.2-0.6c0.2-0.2,0.4-0.2,0.6-0.2h5.2c0.4,0,0.8,0.1,1,0.3c0.2,0.2,0.4,0.5,0.5,0.7l5.3,17.4c0,0.1,0.1,0.2,0.2,0.2
			c0.1,0,0.2-0.1,0.2-0.2l5.3-17.4c0.1-0.3,0.3-0.6,0.6-0.8c0.3-0.2,0.6-0.3,0.9-0.3H123.5z"/>
		<path class="st3" d="M127.3,170.3v-23.5c0-0.6,0.1-1.1,0.3-1.6c0.2-0.4,0.5-0.8,0.9-1.1c0.3-0.3,0.7-0.5,1.1-0.6
			c0.4-0.1,0.8-0.2,1.1-0.2h9.9c1.4,0,2.7,0.1,3.9,0.4c1.2,0.3,2.3,0.7,3.2,1.3c0.9,0.6,1.6,1.4,2.2,2.5c0.5,1,0.8,2.3,0.8,3.8
			c0,1.2-0.3,2.2-0.9,3.1c-0.6,0.9-1.4,1.7-2.4,2.3c1.2,0.5,2.2,1.3,2.8,2.5s1,2.4,1,3.6c0,1.6-0.3,2.9-0.8,3.9
			c-0.5,1.1-1.3,2-2.2,2.6c-0.9,0.7-2,1.2-3.3,1.5c-1.2,0.3-2.6,0.5-4,0.5h-12.7c-0.3,0-0.5-0.1-0.7-0.3
			C127.4,170.8,127.3,170.6,127.3,170.3z M139.9,154.4c0.9,0,1.6-0.2,2.2-0.7c0.6-0.5,0.8-1.2,0.8-2.2c0-0.9-0.3-1.6-0.9-2.1
			c-0.6-0.5-1.3-0.7-2.2-0.7h-7.2c0.6,0,1.1,0.2,1.6,0.7c0.4,0.4,0.6,0.9,0.6,1.5v2.4c0,0.2,0.1,0.5,0.3,0.8
			c0.2,0.3,0.5,0.4,0.9,0.4H139.9z M140.2,165.9c1,0,1.7-0.3,2.4-0.8c0.6-0.5,0.9-1.3,0.9-2.3c0-1-0.3-1.7-0.9-2.3
			c-0.6-0.6-1.4-0.9-2.3-0.9h-7.6c0.6,0,1.1,0.2,1.6,0.7c0.4,0.4,0.6,0.9,0.6,1.5v2.9c0,0.3,0.1,0.5,0.3,0.8
			c0.2,0.3,0.5,0.4,0.9,0.4H140.2z"/>
		<path class="st3" d="M154.4,170.4v-23.5c0-1,0.3-1.9,1-2.5c0.7-0.7,1.5-1,2.5-1h16.4c0.3,0,0.5,0.1,0.7,0.3
			c0.2,0.2,0.3,0.4,0.3,0.7v4c0,0.3-0.1,0.5-0.3,0.7c-0.2,0.2-0.4,0.3-0.8,0.3h-14.8c0.6,0,1.2,0.2,1.6,0.7c0.4,0.5,0.6,1,0.6,1.5
			v1.7c0,0.3,0.1,0.6,0.3,0.8c0.2,0.3,0.5,0.4,0.9,0.4h8.8c0.3,0,0.5,0.1,0.7,0.3c0.2,0.2,0.3,0.4,0.3,0.7v3.6
			c0,0.3-0.1,0.5-0.3,0.7c-0.2,0.2-0.4,0.3-0.7,0.3h-12.2c0.6,0,1.1,0.2,1.6,0.6c0.4,0.4,0.6,0.9,0.6,1.4v1.9c0,0.3,0.1,0.6,0.3,0.8
			c0.2,0.3,0.5,0.4,0.9,0.4h11.7c0.7,0,1,0.3,1,1v3.9c0,0.3-0.1,0.6-0.3,0.7c-0.2,0.2-0.4,0.3-0.7,0.3h-19.2c-0.3,0-0.5-0.1-0.7-0.3
			C154.5,170.9,154.4,170.6,154.4,170.4z"/>
		<path class="st3" d="M197.8,143.3c0.3,0,0.5,0.1,0.7,0.3c0.2,0.2,0.3,0.4,0.3,0.7v4.5c0,0.3-0.1,0.5-0.3,0.7
			c-0.2,0.2-0.4,0.3-0.7,0.3h-5.9c0.6,0,1.1,0.2,1.6,0.6c0.5,0.4,0.7,0.9,0.7,1.4v18.4c0,0.3-0.1,0.5-0.3,0.7
			c-0.2,0.2-0.4,0.3-0.7,0.3h-5.6c-0.3,0-0.5-0.1-0.7-0.3c-0.2-0.2-0.3-0.4-0.3-0.7V151c0-0.4-0.1-0.7-0.4-0.9
			c-0.2-0.2-0.5-0.3-0.8-0.3h-5.8c-0.3,0-0.5-0.1-0.7-0.3c-0.2-0.2-0.3-0.4-0.3-0.7v-2.1c0-0.5,0.1-1,0.3-1.4
			c0.2-0.4,0.5-0.8,0.8-1.1c0.3-0.3,0.7-0.5,1.1-0.7c0.4-0.2,0.8-0.2,1.3-0.2H197.8z"/>
	</g>
	<g>
		<path class="st3" d="M55.3,171.2H39.1c-0.5,0-0.9-0.3-1.1-0.7l-19.4-39.7c-0.4-0.8,0.2-1.8,1.1-1.8h16.8c0.5,0,0.9,0.3,1.1,0.7
			l18.8,39.7C56.9,170.2,56.3,171.2,55.3,171.2z"/>
		<path class="st3" d="M59.7,125.9l-0.9-0.4c-0.6-0.3-0.9-1-0.6-1.6l4.7-10.6c0.3-0.6,1-0.9,1.6-0.6l0.9,0.4c0.6,0.3,0.9,1,0.6,1.6
			l-4.7,10.6C61.1,125.8,60.3,126.1,59.7,125.9z"/>
		<path class="st3" d="M63.2,135.4l-0.9-0.4c-0.6-0.3-0.9-1-0.6-1.6l6.1-13.8c0.3-0.6,1-0.9,1.6-0.6l0.9,0.4c0.6,0.3,0.9,1,0.6,1.6
			l-6.1,13.8C64.6,135.4,63.8,135.7,63.2,135.4z"/>
		<path class="st3" d="M71.8,115.8l-0.9-0.4c-0.6-0.3-0.9-1-0.6-1.6l0.4-0.9c0.3-0.6,1-0.9,1.6-0.6l0.9,0.4c0.6,0.3,0.9,1,0.6,1.6
			l-0.4,0.9C73.2,115.8,72.5,116.1,71.8,115.8z"/>
		<path class="st3" d="M66.1,140.6l1.2-2.6c0.3-0.6,0-1.4-0.6-1.6l-1.1-0.5c-0.5-0.2-1.2,0-1.4,0.6l-1.7,3.9l-3.1,7.1
			c-0.3,0.6-1,0.9-1.6,0.6l-0.9-0.4c-0.6-0.3-0.9-1-0.6-1.6l3.1-7.1l4.1-9.4c0.3-0.6,0-1.4-0.6-1.6l-0.9-0.4c-0.6-0.3-1.4,0-1.6,0.6
			l-4.1,9.4l-1.4,3.1c-0.3,0.6-1,0.9-1.6,0.6l-0.9-0.4c-0.6-0.3-1.4,0-1.6,0.6l-12.3,28c-0.4,0.8,0.2,1.7,1.1,1.7h16.3
			c0.5,0,0.9-0.3,1.1-0.7L68.5,144c0.2-0.4,0-1-0.4-1.1l-1.3-0.6C66.1,142,65.8,141.3,66.1,140.6z"/>
		<path class="st3" d="M69.8,138l-0.9-0.4c-0.6-0.3-0.9-1-0.6-1.6l1.4-3.1c0.3-0.6,1-0.9,1.6-0.6l0.9,0.4c0.6,0.3,0.9,1,0.6,1.6
			l-1.4,3.1C71.1,138,70.4,138.3,69.8,138z"/>
		<path class="st3" d="M54.4,137.9l-0.9-0.4c-0.6-0.3-0.9-1-0.6-1.6l1.4-3.1c0.3-0.6,1-0.9,1.6-0.6l0.9,0.4c0.6,0.3,0.9,1,0.6,1.6
			l-1.4,3.1C55.8,137.9,55.1,138.1,54.4,137.9z"/>
		<path class="st3" d="M73.5,129.5l-0.9-0.4c-0.6-0.3-0.9-1-0.6-1.6l2.8-6.3c0.3-0.6,1-0.9,1.6-0.6l0.9,0.4c0.6,0.3,0.9,1,0.6,1.6
			l-2.8,6.3C74.9,129.5,74.1,129.8,73.5,129.5z"/>
	</g>
	<path class="st3" d="M204.9,143.2h-2.1c-0.6,0-1.2,0.5-1.2,1.2v2.1v2.1c0,0.6,0.5,1.2,1.2,1.2h2.1h2.1c0.6,0,1.2-0.5,1.2-1.2v-2.1
		v-2.1c0-0.6-0.5-1.2-1.2-1.2H204.9z"/>
</g>
<g>
	<g>
		<path class="st2" d="M94.2,39.8c0.3,0,0.5,0.1,0.7,0.3c0.2,0.2,0.3,0.4,0.3,0.7v4.5c0,0.3-0.1,0.5-0.3,0.7
			c-0.2,0.2-0.4,0.3-0.7,0.3h-9.3c0.6,0,1.1,0.2,1.6,0.6c0.5,0.4,0.7,0.9,0.7,1.4v18.4c0,0.3-0.1,0.5-0.3,0.7
			c-0.2,0.2-0.4,0.3-0.7,0.3h-5.6c-0.3,0-0.5-0.1-0.7-0.3c-0.2-0.2-0.3-0.4-0.3-0.7V47.5c0-0.4-0.1-0.7-0.4-0.9
			c-0.2-0.2-0.5-0.3-0.8-0.3h-5.8c-0.3,0-0.5-0.1-0.7-0.3c-0.2-0.2-0.3-0.4-0.3-0.7v-2.1c0-0.5,0.1-1,0.3-1.4
			c0.2-0.4,0.5-0.8,0.8-1.1c0.3-0.3,0.7-0.5,1.1-0.7c0.4-0.2,0.8-0.2,1.3-0.2H94.2z"/>
		<path class="st2" d="M123.5,39.8c0.2,0,0.4,0.1,0.6,0.2c0.2,0.2,0.3,0.3,0.3,0.6c0,0.2,0,0.3,0,0.4l-8.1,25.7
			c-0.1,0.3-0.3,0.6-0.5,0.8c-0.2,0.2-0.6,0.3-1.1,0.3h-6.4c-0.5,0-0.9-0.1-1.1-0.3c-0.3-0.2-0.5-0.5-0.6-0.8L98.3,41l-0.1-0.4
			c0-0.2,0.1-0.4,0.2-0.6c0.2-0.2,0.4-0.2,0.6-0.2h5.2c0.4,0,0.8,0.1,1,0.3c0.2,0.2,0.4,0.5,0.5,0.7l5.3,17.4c0,0.1,0.1,0.2,0.2,0.2
			c0.1,0,0.2-0.1,0.2-0.2l5.3-17.4c0.1-0.3,0.3-0.6,0.6-0.8c0.3-0.2,0.6-0.3,0.9-0.3H123.5z"/>
		<path class="st2" d="M127.3,66.8V43.3c0-0.6,0.1-1.1,0.3-1.6c0.2-0.4,0.5-0.8,0.9-1.1c0.3-0.3,0.7-0.5,1.1-0.6
			c0.4-0.1,0.8-0.2,1.1-0.2h9.9c1.4,0,2.7,0.1,3.9,0.4c1.2,0.3,2.3,0.7,3.2,1.3c0.9,0.6,1.6,1.4,2.2,2.5c0.5,1,0.8,2.3,0.8,3.8
			c0,1.2-0.3,2.2-0.9,3.1c-0.6,0.9-1.4,1.7-2.4,2.3c1.2,0.5,2.2,1.3,2.8,2.5s1,2.4,1,3.6c0,1.6-0.3,2.9-0.8,3.9
			c-0.5,1.1-1.3,2-2.2,2.6c-0.9,0.7-2,1.2-3.3,1.5c-1.2,0.3-2.6,0.5-4,0.5h-12.7c-0.3,0-0.5-0.1-0.7-0.3
			C127.4,67.3,127.3,67.1,127.3,66.8z M139.9,50.9c0.9,0,1.6-0.2,2.2-0.7c0.6-0.5,0.8-1.2,0.8-2.2c0-0.9-0.3-1.6-0.9-2.1
			c-0.6-0.5-1.3-0.7-2.2-0.7h-7.2c0.6,0,1.1,0.2,1.6,0.7c0.4,0.4,0.6,0.9,0.6,1.5v2.4c0,0.2,0.1,0.5,0.3,0.8
			c0.2,0.3,0.5,0.4,0.9,0.4H139.9z M140.2,62.4c1,0,1.7-0.3,2.4-0.8c0.6-0.5,0.9-1.3,0.9-2.3c0-1-0.3-1.7-0.9-2.3
			c-0.6-0.6-1.4-0.9-2.3-0.9h-7.6c0.6,0,1.1,0.2,1.6,0.7c0.4,0.4,0.6,0.9,0.6,1.5v2.9c0,0.3,0.1,0.5,0.3,0.8
			c0.2,0.3,0.5,0.4,0.9,0.4H140.2z"/>
		<path class="st2" d="M154.4,66.9V43.3c0-1,0.3-1.9,1-2.5c0.7-0.7,1.5-1,2.5-1h16.4c0.3,0,0.5,0.1,0.7,0.3c0.2,0.2,0.3,0.4,0.3,0.7
			v4c0,0.3-0.1,0.5-0.3,0.7c-0.2,0.2-0.4,0.3-0.8,0.3h-14.8c0.6,0,1.2,0.2,1.6,0.7c0.4,0.5,0.6,1,0.6,1.5v1.7c0,0.3,0.1,0.6,0.3,0.8
			c0.2,0.3,0.5,0.4,0.9,0.4h8.8c0.3,0,0.5,0.1,0.7,0.3c0.2,0.2,0.3,0.4,0.3,0.7v3.6c0,0.3-0.1,0.5-0.3,0.7c-0.2,0.2-0.4,0.3-0.7,0.3
			h-12.2c0.6,0,1.1,0.2,1.6,0.6c0.4,0.4,0.6,0.9,0.6,1.4v1.9c0,0.3,0.1,0.6,0.3,0.8c0.2,0.3,0.5,0.4,0.9,0.4h11.7c0.7,0,1,0.3,1,1
			v3.9c0,0.3-0.1,0.6-0.3,0.7c-0.2,0.2-0.4,0.3-0.7,0.3h-19.2c-0.3,0-0.5-0.1-0.7-0.3C154.5,67.4,154.4,67.1,154.4,66.9z"/>
		<path class="st2" d="M197.8,39.8c0.3,0,0.5,0.1,0.7,0.3s0.3,0.4,0.3,0.7v4.5c0,0.3-0.1,0.5-0.3,0.7c-0.2,0.2-0.4,0.3-0.7,0.3h-5.9
			c0.6,0,1.1,0.2,1.6,0.6c0.5,0.4,0.7,0.9,0.7,1.4v18.4c0,0.3-0.1,0.5-0.3,0.7c-0.2,0.2-0.4,0.3-0.7,0.3h-5.6
			c-0.3,0-0.5-0.1-0.7-0.3c-0.2-0.2-0.3-0.4-0.3-0.7V47.5c0-0.4-0.1-0.7-0.4-0.9c-0.2-0.2-0.5-0.3-0.8-0.3h-5.8
			c-0.3,0-0.5-0.1-0.7-0.3c-0.2-0.2-0.3-0.4-0.3-0.7v-2.1c0-0.5,0.1-1,0.3-1.4c0.2-0.4,0.5-0.8,0.8-1.1c0.3-0.3,0.7-0.5,1.1-0.7
			c0.4-0.2,0.8-0.2,1.3-0.2H197.8z"/>
	</g>
	<g>
		
			<linearGradient id="SVGID_1_" gradientUnits="userSpaceOnUse" x1="959.8746" y1="-112.444" x2="975.9564" y2="-82.1361" gradientTransform="matrix(1 0 0 1 -936.1387 132.5112)">
			<stop  offset="0" style="stop-color:#FFD000"/>
			<stop  offset="1" style="stop-color:#F6A100"/>
		</linearGradient>
		<path class="st4" d="M55.3,67.7H39.1c-0.5,0-0.9-0.3-1.1-0.7L18.6,27.3c-0.4-0.8,0.2-1.8,1.1-1.8h16.8c0.5,0,0.9,0.3,1.1,0.7
			l18.8,39.7C56.9,66.7,56.3,67.7,55.3,67.7z"/>
		
			<linearGradient id="SVGID_2_" gradientUnits="userSpaceOnUse" x1="975.1862" y1="-69.1131" x2="984.0411" y2="-87.4553" gradientTransform="matrix(1 0 0 1 -936.1387 132.5112)">
			<stop  offset="0" style="stop-color:#FFD000"/>
			<stop  offset="1" style="stop-color:#F6A100"/>
		</linearGradient>
		<path class="st5" d="M59.7,22.4l-0.9-0.4c-0.6-0.3-0.9-1-0.6-1.6l4.7-10.6c0.3-0.6,1-0.9,1.6-0.6l0.9,0.4c0.6,0.3,0.9,1,0.6,1.6
			l-4.7,10.6C61.1,22.3,60.3,22.6,59.7,22.4z"/>
		
			<linearGradient id="SVGID_3_" gradientUnits="userSpaceOnUse" x1="981.6643" y1="-65.8856" x2="990.5298" y2="-84.25" gradientTransform="matrix(1 0 0 1 -936.1387 132.5112)">
			<stop  offset="0" style="stop-color:#FFD000"/>
			<stop  offset="1" style="stop-color:#F6A100"/>
		</linearGradient>
		<path class="st6" d="M63.2,31.9l-0.9-0.4c-0.6-0.3-0.9-1-0.6-1.6l6.1-13.8c0.3-0.6,1-0.9,1.6-0.6l0.9,0.4c0.6,0.3,0.9,1,0.6,1.6
			l-6.1,13.8C64.6,31.9,63.8,32.2,63.2,31.9z"/>
		
			<linearGradient id="SVGID_4_" gradientUnits="userSpaceOnUse" x1="981.7473" y1="-67.2296" x2="990.4448" y2="-85.2458" gradientTransform="matrix(1 0 0 1 -936.1387 132.5112)">
			<stop  offset="0" style="stop-color:#FFD000"/>
			<stop  offset="1" style="stop-color:#F6A100"/>
		</linearGradient>
		<path class="st7" d="M71.8,12.3l-0.9-0.4c-0.6-0.3-0.9-1-0.6-1.6l0.4-0.9c0.3-0.6,1-0.9,1.6-0.6l0.9,0.4c0.6,0.3,0.9,1,0.6,1.6
			l-0.4,0.9C73.2,12.3,72.5,12.6,71.8,12.3z"/>
		
			<linearGradient id="SVGID_5_" gradientUnits="userSpaceOnUse" x1="982.996" y1="-64.2439" x2="995.554" y2="-93.755" gradientTransform="matrix(1 0 0 1 -936.1387 132.5112)">
			<stop  offset="0" style="stop-color:#FFD000"/>
			<stop  offset="1" style="stop-color:#F6A100"/>
		</linearGradient>
		<path class="st8" d="M66.1,37.1l1.2-2.6c0.3-0.6,0-1.4-0.6-1.6l-1.1-0.5c-0.5-0.2-1.2,0-1.4,0.6l-1.7,3.9l-3.1,7.1
			c-0.3,0.6-1,0.9-1.6,0.6l-0.9-0.4c-0.6-0.3-0.9-1-0.6-1.6l3.1-7.1l4.1-9.4c0.3-0.6,0-1.4-0.6-1.6L61.7,24c-0.6-0.3-1.4,0-1.6,0.6
			L55.9,34l-1.4,3.1c-0.3,0.6-1,0.9-1.6,0.6L52,37.4c-0.6-0.3-1.4,0-1.6,0.6L38,66c-0.4,0.8,0.2,1.7,1.1,1.7h16.3
			c0.5,0,0.9-0.3,1.1-0.7l11.9-26.5c0.2-0.4,0-1-0.4-1.1l-1.3-0.6C66.1,38.5,65.8,37.8,66.1,37.1z"/>
		
			<linearGradient id="SVGID_6_" gradientUnits="userSpaceOnUse" x1="988.3453" y1="-63.0845" x2="997.1257" y2="-81.2724" gradientTransform="matrix(1 0 0 1 -936.1387 132.5112)">
			<stop  offset="0" style="stop-color:#FFD000"/>
			<stop  offset="1" style="stop-color:#F6A100"/>
		</linearGradient>
		<path class="st9" d="M69.8,34.5l-0.9-0.4c-0.6-0.3-0.9-1-0.6-1.6l1.4-3.1c0.3-0.6,1-0.9,1.6-0.6l0.9,0.4c0.6,0.3,0.9,1,0.6,1.6
			l-1.4,3.1C71.1,34.5,70.4,34.8,69.8,34.5z"/>
		
			<linearGradient id="SVGID_7_" gradientUnits="userSpaceOnUse" x1="975.82" y1="-69.0259" x2="984.6003" y2="-87.2138" gradientTransform="matrix(1 0 0 1 -936.1387 132.5112)">
			<stop  offset="0" style="stop-color:#FFD000"/>
			<stop  offset="1" style="stop-color:#F6A100"/>
		</linearGradient>
		<path class="st10" d="M54.4,34.4l-0.9-0.4c-0.6-0.3-0.9-1-0.6-1.6l1.4-3.1c0.3-0.6,1-0.9,1.6-0.6l0.9,0.4c0.6,0.3,0.9,1,0.6,1.6
			l-1.4,3.1C55.8,34.4,55.1,34.6,54.4,34.4z"/>
		
			<linearGradient id="SVGID_8_" gradientUnits="userSpaceOnUse" x1="987.9389" y1="-63.1389" x2="996.7669" y2="-81.4254" gradientTransform="matrix(1 0 0 1 -936.1387 132.5112)">
			<stop  offset="0" style="stop-color:#FFD000"/>
			<stop  offset="1" style="stop-color:#F6A100"/>
		</linearGradient>
		<path class="st11" d="M73.5,26l-0.9-0.4c-0.6-0.3-0.9-1-0.6-1.6l2.8-6.3c0.3-0.6,1-0.9,1.6-0.6l0.9,0.4c0.6,0.3,0.9,1,0.6,1.6
			l-2.8,6.3C74.9,26,74.1,26.3,73.5,26z"/>
	</g>
	<path class="st0" d="M204.9,39.7h-2.1c-0.6,0-1.2,0.5-1.2,1.2V43v2.1c0,0.6,0.5,1.2,1.2,1.2h2.1h2.1c0.6,0,1.2-0.5,1.2-1.2V43v-2.1
		c0-0.6-0.5-1.2-1.2-1.2H204.9z"/>
</g>
<g>
	<g>
		<path class="st1" d="M77.8-407.8c0.3,0,0.5,0.1,0.7,0.3c0.2,0.2,0.3,0.4,0.3,0.7v4.5c0,0.3-0.1,0.5-0.3,0.7
			c-0.2,0.2-0.4,0.3-0.7,0.3h-9.3c0.6,0,1.1,0.2,1.6,0.6c0.5,0.4,0.7,0.9,0.7,1.4v18.4c0,0.3-0.1,0.5-0.3,0.7
			c-0.2,0.2-0.4,0.3-0.7,0.3h-5.6c-0.3,0-0.5-0.1-0.7-0.3c-0.2-0.2-0.3-0.4-0.3-0.7v-19.3c0-0.4-0.1-0.7-0.4-0.9
			c-0.2-0.2-0.5-0.3-0.8-0.3h-5.8c-0.3,0-0.5-0.1-0.7-0.3c-0.2-0.2-0.3-0.4-0.3-0.7v-2.1c0-0.5,0.1-1,0.3-1.4
			c0.2-0.4,0.5-0.8,0.8-1.1c0.3-0.3,0.7-0.5,1.1-0.7c0.4-0.2,0.8-0.2,1.3-0.2H77.8z"/>
		<path class="st1" d="M107.1-407.8c0.2,0,0.4,0.1,0.6,0.2c0.2,0.2,0.3,0.3,0.3,0.6c0,0.2,0,0.3,0,0.4L99.8-381
			c-0.1,0.3-0.3,0.6-0.5,0.8c-0.2,0.2-0.6,0.3-1.1,0.3h-6.4c-0.5,0-0.9-0.1-1.1-0.3c-0.3-0.2-0.5-0.5-0.6-0.8l-8.1-25.7l-0.1-0.4
			c0-0.2,0.1-0.4,0.2-0.6c0.2-0.2,0.4-0.2,0.6-0.2H88c0.4,0,0.8,0.1,1,0.3c0.2,0.2,0.4,0.5,0.5,0.7l5.3,17.4c0,0.1,0.1,0.2,0.2,0.2
			c0.1,0,0.2-0.1,0.2-0.2l5.3-17.4c0.1-0.3,0.3-0.6,0.6-0.8c0.3-0.2,0.6-0.3,0.9-0.3H107.1z"/>
		<path class="st1" d="M110.9-380.8v-23.5c0-0.6,0.1-1.1,0.3-1.6c0.2-0.4,0.5-0.8,0.9-1.1c0.3-0.3,0.7-0.5,1.1-0.6
			c0.4-0.1,0.8-0.2,1.1-0.2h9.9c1.4,0,2.7,0.1,3.9,0.4c1.2,0.3,2.3,0.7,3.2,1.3c0.9,0.6,1.6,1.4,2.2,2.5c0.5,1,0.8,2.3,0.8,3.8
			c0,1.2-0.3,2.2-0.9,3.1c-0.6,0.9-1.4,1.7-2.4,2.3c1.2,0.5,2.2,1.3,2.8,2.5s1,2.4,1,3.6c0,1.6-0.3,2.9-0.8,3.9
			c-0.5,1.1-1.3,2-2.2,2.6c-0.9,0.7-2,1.2-3.3,1.5c-1.2,0.3-2.6,0.5-4,0.5h-12.7c-0.3,0-0.5-0.1-0.7-0.3
			C111-380.3,110.9-380.6,110.9-380.8z M123.5-396.7c0.9,0,1.6-0.2,2.2-0.7c0.6-0.5,0.8-1.2,0.8-2.2c0-0.9-0.3-1.6-0.9-2.1
			c-0.6-0.5-1.3-0.7-2.2-0.7h-7.2c0.6,0,1.1,0.2,1.6,0.7c0.4,0.4,0.6,0.9,0.6,1.5v2.4c0,0.2,0.1,0.5,0.3,0.8
			c0.2,0.3,0.5,0.4,0.9,0.4H123.5z M123.8-385.2c1,0,1.7-0.3,2.4-0.8c0.6-0.5,0.9-1.3,0.9-2.3c0-1-0.3-1.7-0.9-2.3
			c-0.6-0.6-1.4-0.9-2.3-0.9h-7.6c0.6,0,1.1,0.2,1.6,0.7c0.4,0.4,0.6,0.9,0.6,1.5v2.9c0,0.3,0.1,0.5,0.3,0.8
			c0.2,0.3,0.5,0.4,0.9,0.4H123.8z"/>
		<path class="st1" d="M138-380.8v-23.5c0-1,0.3-1.9,1-2.5c0.7-0.7,1.5-1,2.5-1h16.4c0.3,0,0.5,0.1,0.7,0.3c0.2,0.2,0.3,0.4,0.3,0.7
			v4c0,0.3-0.1,0.5-0.3,0.7c-0.2,0.2-0.4,0.3-0.8,0.3H143c0.6,0,1.2,0.2,1.6,0.7c0.4,0.5,0.6,1,0.6,1.5v1.7c0,0.3,0.1,0.6,0.3,0.8
			c0.2,0.3,0.5,0.4,0.9,0.4h8.8c0.3,0,0.5,0.1,0.7,0.3s0.3,0.4,0.3,0.7v3.6c0,0.3-0.1,0.5-0.3,0.7s-0.4,0.3-0.7,0.3H143
			c0.6,0,1.1,0.2,1.6,0.6c0.4,0.4,0.6,0.9,0.6,1.4v1.9c0,0.3,0.1,0.6,0.3,0.8c0.2,0.3,0.5,0.4,0.9,0.4h11.7c0.7,0,1,0.3,1,1v3.9
			c0,0.3-0.1,0.6-0.3,0.7c-0.2,0.2-0.4,0.3-0.7,0.3H139c-0.3,0-0.5-0.1-0.7-0.3C138.1-380.3,138-380.5,138-380.8z"/>
		<path class="st1" d="M181.4-407.8c0.3,0,0.5,0.1,0.7,0.3c0.2,0.2,0.3,0.4,0.3,0.7v4.5c0,0.3-0.1,0.5-0.3,0.7
			c-0.2,0.2-0.4,0.3-0.7,0.3h-5.9c0.6,0,1.1,0.2,1.6,0.6c0.5,0.4,0.7,0.9,0.7,1.4v18.4c0,0.3-0.1,0.5-0.3,0.7
			c-0.2,0.2-0.4,0.3-0.7,0.3h-5.6c-0.3,0-0.5-0.1-0.7-0.3c-0.2-0.2-0.3-0.4-0.3-0.7v-19.3c0-0.4-0.1-0.7-0.4-0.9
			c-0.2-0.2-0.5-0.3-0.8-0.3h-5.8c-0.3,0-0.5-0.1-0.7-0.3c-0.2-0.2-0.3-0.4-0.3-0.7v-2.1c0-0.5,0.1-1,0.3-1.4
			c0.2-0.4,0.5-0.8,0.8-1.1c0.3-0.3,0.7-0.5,1.1-0.7c0.4-0.2,0.8-0.2,1.3-0.2H181.4z"/>
	</g>
	<g>
		
			<linearGradient id="SVGID_9_" gradientUnits="userSpaceOnUse" x1="943.467" y1="-560.0809" x2="959.5486" y2="-529.7731" gradientTransform="matrix(1 0 0 1 -936.1387 132.5112)">
			<stop  offset="0" style="stop-color:#FFD000"/>
			<stop  offset="1" style="stop-color:#F6A100"/>
		</linearGradient>
		<path class="st12" d="M38.9-379.9H22.7c-0.5,0-0.9-0.3-1.1-0.7L2.2-420.4c-0.4-0.8,0.2-1.8,1.1-1.8h16.8c0.5,0,0.9,0.3,1.1,0.7
			l18.8,39.7C40.5-380.9,39.9-379.9,38.9-379.9z"/>
		
			<linearGradient id="SVGID_10_" gradientUnits="userSpaceOnUse" x1="958.7785" y1="-516.7499" x2="967.6334" y2="-535.0922" gradientTransform="matrix(1 0 0 1 -936.1387 132.5112)">
			<stop  offset="0" style="stop-color:#FFD000"/>
			<stop  offset="1" style="stop-color:#F6A100"/>
		</linearGradient>
		<path class="st13" d="M43.3-425.3l-0.9-0.4c-0.6-0.3-0.9-1-0.6-1.6l4.7-10.6c0.3-0.6,1-0.9,1.6-0.6l0.9,0.4c0.6,0.3,0.9,1,0.6,1.6
			l-4.7,10.6C44.7-425.3,43.9-425,43.3-425.3z"/>
		
			<linearGradient id="SVGID_11_" gradientUnits="userSpaceOnUse" x1="965.2566" y1="-513.5225" x2="974.1221" y2="-531.8869" gradientTransform="matrix(1 0 0 1 -936.1387 132.5112)">
			<stop  offset="0" style="stop-color:#FFD000"/>
			<stop  offset="1" style="stop-color:#F6A100"/>
		</linearGradient>
		<path class="st14" d="M46.8-415.7l-0.9-0.4c-0.6-0.3-0.9-1-0.6-1.6l6.1-13.8c0.3-0.6,1-0.9,1.6-0.6l0.9,0.4c0.6,0.3,0.9,1,0.6,1.6
			l-6.1,13.8C48.1-415.7,47.4-415.4,46.8-415.7z"/>
		
			<linearGradient id="SVGID_12_" gradientUnits="userSpaceOnUse" x1="965.3397" y1="-514.8665" x2="974.0371" y2="-532.8827" gradientTransform="matrix(1 0 0 1 -936.1387 132.5112)">
			<stop  offset="0" style="stop-color:#FFD000"/>
			<stop  offset="1" style="stop-color:#F6A100"/>
		</linearGradient>
		<path class="st15" d="M55.4-435.3l-0.9-0.4c-0.6-0.3-0.9-1-0.6-1.6l0.4-0.9c0.3-0.6,1-0.9,1.6-0.6l0.9,0.4c0.6,0.3,0.9,1,0.6,1.6
			l-0.4,0.9C56.8-435.3,56-435.1,55.4-435.3z"/>
		
			<linearGradient id="SVGID_13_" gradientUnits="userSpaceOnUse" x1="966.5883" y1="-511.8808" x2="979.1462" y2="-541.392" gradientTransform="matrix(1 0 0 1 -936.1387 132.5112)">
			<stop  offset="0" style="stop-color:#FFD000"/>
			<stop  offset="1" style="stop-color:#F6A100"/>
		</linearGradient>
		<path class="st16" d="M49.7-410.5l1.2-2.6c0.3-0.6,0-1.4-0.6-1.6l-1.1-0.5c-0.5-0.2-1.2,0-1.4,0.6l-1.7,3.9l-3.1,7.1
			c-0.3,0.6-1,0.9-1.6,0.6l-0.9-0.4c-0.6-0.3-0.9-1-0.6-1.6l3.1-7.1l4.1-9.4c0.3-0.6,0-1.4-0.6-1.6l-0.9-0.4c-0.6-0.3-1.4,0-1.6,0.6
			l-4.1,9.4l-1.4,3.1c-0.3,0.6-1,0.9-1.6,0.6l-0.9-0.4c-0.6-0.3-1.4,0-1.6,0.6l-12.3,28c-0.4,0.8,0.2,1.7,1.1,1.7H39
			c0.5,0,0.9-0.3,1.1-0.7l11.9-26.5c0.2-0.4,0-1-0.4-1.1l-1.3-0.6C49.7-409.1,49.4-409.9,49.7-410.5z"/>
		
			<linearGradient id="SVGID_14_" gradientUnits="userSpaceOnUse" x1="971.9376" y1="-510.7214" x2="980.718" y2="-528.9093" gradientTransform="matrix(1 0 0 1 -936.1387 132.5112)">
			<stop  offset="0" style="stop-color:#FFD000"/>
			<stop  offset="1" style="stop-color:#F6A100"/>
		</linearGradient>
		<path class="st17" d="M53.4-413.2l-0.9-0.4c-0.6-0.3-0.9-1-0.6-1.6l1.4-3.1c0.3-0.6,1-0.9,1.6-0.6l0.9,0.4c0.6,0.3,0.9,1,0.6,1.6
			l-1.4,3.1C54.7-413.2,54-412.9,53.4-413.2z"/>
		
			<linearGradient id="SVGID_15_" gradientUnits="userSpaceOnUse" x1="959.4124" y1="-516.6628" x2="968.1927" y2="-534.8506" gradientTransform="matrix(1 0 0 1 -936.1387 132.5112)">
			<stop  offset="0" style="stop-color:#FFD000"/>
			<stop  offset="1" style="stop-color:#F6A100"/>
		</linearGradient>
		<path class="st18" d="M38-413.3l-0.9-0.4c-0.6-0.3-0.9-1-0.6-1.6l1.4-3.1c0.3-0.6,1-0.9,1.6-0.6l0.9,0.4c0.6,0.3,0.9,1,0.6,1.6
			l-1.4,3.1C39.4-413.3,38.6-413,38-413.3z"/>
		
			<linearGradient id="SVGID_16_" gradientUnits="userSpaceOnUse" x1="971.5313" y1="-510.7758" x2="980.3592" y2="-529.0623" gradientTransform="matrix(1 0 0 1 -936.1387 132.5112)">
			<stop  offset="0" style="stop-color:#FFD000"/>
			<stop  offset="1" style="stop-color:#F6A100"/>
		</linearGradient>
		<path class="st19" d="M57.1-421.6l-0.9-0.4c-0.6-0.3-0.9-1-0.6-1.6l2.8-6.3c0.3-0.6,1-0.9,1.6-0.6l0.9,0.4c0.6,0.3,0.9,1,0.6,1.6
			l-2.8,6.3C58.5-421.6,57.7-421.4,57.1-421.6z"/>
	</g>
	<path class="st0" d="M188.5-407.9h-2.1c-0.6,0-1.2,0.5-1.2,1.2v2.1v2.1c0,0.6,0.5,1.2,1.2,1.2h2.1h2.1c0.6,0,1.2-0.5,1.2-1.2v-2.1
		v-2.1c0-0.6-0.5-1.2-1.2-1.2H188.5z"/>
</g>
<g>
	<g>
		<path class="st1" d="M643.5-408.7c0.3,0,0.5,0.1,0.7,0.3s0.3,0.4,0.3,0.7v4.5c0,0.3-0.1,0.5-0.3,0.7c-0.2,0.2-0.4,0.3-0.7,0.3
			h-9.3c0.6,0,1.1,0.2,1.6,0.6c0.5,0.4,0.7,0.9,0.7,1.4v18.4c0,0.3-0.1,0.5-0.3,0.7c-0.2,0.2-0.4,0.3-0.7,0.3h-5.6
			c-0.3,0-0.5-0.1-0.7-0.3c-0.2-0.2-0.3-0.4-0.3-0.7V-401c0-0.4-0.1-0.7-0.4-0.9c-0.2-0.2-0.5-0.3-0.8-0.3h-5.8
			c-0.3,0-0.5-0.1-0.7-0.3c-0.2-0.2-0.3-0.4-0.3-0.7v-2.1c0-0.5,0.1-1,0.3-1.4c0.2-0.4,0.5-0.8,0.8-1.1c0.3-0.3,0.7-0.5,1.1-0.7
			c0.4-0.2,0.8-0.2,1.3-0.2H643.5z"/>
		<path class="st1" d="M672.7-408.7c0.2,0,0.4,0.1,0.6,0.2c0.2,0.2,0.3,0.3,0.3,0.6c0,0.2,0,0.3,0,0.4l-8.1,25.7
			c-0.1,0.3-0.3,0.6-0.5,0.8c-0.2,0.2-0.6,0.3-1.1,0.3h-6.4c-0.5,0-0.9-0.1-1.1-0.3c-0.3-0.2-0.5-0.5-0.6-0.8l-8.1-25.7l-0.1-0.4
			c0-0.2,0.1-0.4,0.2-0.6c0.2-0.2,0.4-0.2,0.6-0.2h5.2c0.4,0,0.8,0.1,1,0.3c0.2,0.2,0.4,0.5,0.5,0.7l5.3,17.4c0,0.1,0.1,0.2,0.2,0.2
			c0.1,0,0.2-0.1,0.2-0.2l5.3-17.4c0.1-0.3,0.3-0.6,0.6-0.8c0.3-0.2,0.6-0.3,0.9-0.3H672.7z"/>
		<path class="st1" d="M676.5-381.7v-23.5c0-0.6,0.1-1.1,0.3-1.6c0.2-0.4,0.5-0.8,0.9-1.1c0.3-0.3,0.7-0.5,1.1-0.6
			c0.4-0.1,0.8-0.2,1.1-0.2h9.9c1.4,0,2.7,0.1,3.9,0.4c1.2,0.3,2.3,0.7,3.2,1.3c0.9,0.6,1.6,1.4,2.2,2.5c0.5,1,0.8,2.3,0.8,3.8
			c0,1.2-0.3,2.2-0.9,3.1c-0.6,0.9-1.4,1.7-2.4,2.3c1.2,0.5,2.2,1.3,2.8,2.5c0.7,1.2,1,2.4,1,3.6c0,1.6-0.3,2.9-0.8,3.9
			c-0.5,1.1-1.3,2-2.2,2.6c-0.9,0.7-2,1.2-3.3,1.5c-1.2,0.3-2.6,0.5-4,0.5h-12.7c-0.3,0-0.5-0.1-0.7-0.3
			C676.6-381.2,676.5-381.4,676.5-381.7z M689.1-397.6c0.9,0,1.6-0.2,2.2-0.7c0.6-0.5,0.8-1.2,0.8-2.2c0-0.9-0.3-1.6-0.9-2.1
			c-0.6-0.5-1.3-0.7-2.2-0.7h-7.2c0.6,0,1.1,0.2,1.6,0.7c0.4,0.4,0.6,0.9,0.6,1.5v2.4c0,0.2,0.1,0.5,0.3,0.8
			c0.2,0.3,0.5,0.4,0.9,0.4H689.1z M689.4-386.1c1,0,1.7-0.3,2.4-0.8c0.6-0.5,0.9-1.3,0.9-2.3c0-1-0.3-1.7-0.9-2.3
			c-0.6-0.6-1.4-0.9-2.3-0.9h-7.6c0.6,0,1.1,0.2,1.6,0.7c0.4,0.4,0.6,0.9,0.6,1.5v2.9c0,0.3,0.1,0.5,0.3,0.8
			c0.2,0.3,0.5,0.4,0.9,0.4H689.4z"/>
		<path class="st1" d="M703.6-381.7v-23.5c0-1,0.3-1.9,1-2.5c0.7-0.7,1.5-1,2.5-1h16.4c0.3,0,0.5,0.1,0.7,0.3s0.3,0.4,0.3,0.7v4
			c0,0.3-0.1,0.5-0.3,0.7c-0.2,0.2-0.4,0.3-0.8,0.3h-14.8c0.6,0,1.2,0.2,1.6,0.7c0.4,0.5,0.6,1,0.6,1.5v1.7c0,0.3,0.1,0.6,0.3,0.8
			c0.2,0.3,0.5,0.4,0.9,0.4h8.8c0.3,0,0.5,0.1,0.7,0.3s0.3,0.4,0.3,0.7v3.6c0,0.3-0.1,0.5-0.3,0.7c-0.2,0.2-0.4,0.3-0.7,0.3h-12.2
			c0.6,0,1.1,0.2,1.6,0.6c0.4,0.4,0.6,0.9,0.6,1.4v1.9c0,0.3,0.1,0.6,0.3,0.8c0.2,0.3,0.5,0.4,0.9,0.4h11.7c0.7,0,1,0.3,1,1v3.9
			c0,0.3-0.1,0.6-0.3,0.7c-0.2,0.2-0.4,0.3-0.7,0.3h-19.2c-0.3,0-0.5-0.1-0.7-0.3S703.6-381.4,703.6-381.7z"/>
		<path class="st1" d="M747-408.7c0.3,0,0.5,0.1,0.7,0.3c0.2,0.2,0.3,0.4,0.3,0.7v4.5c0,0.3-0.1,0.5-0.3,0.7
			c-0.2,0.2-0.4,0.3-0.7,0.3h-5.9c0.6,0,1.1,0.2,1.6,0.6c0.5,0.4,0.7,0.9,0.7,1.4v18.4c0,0.3-0.1,0.5-0.3,0.7
			c-0.2,0.2-0.4,0.3-0.7,0.3h-5.6c-0.3,0-0.5-0.1-0.7-0.3c-0.2-0.2-0.3-0.4-0.3-0.7V-401c0-0.4-0.1-0.7-0.4-0.9
			c-0.2-0.2-0.5-0.3-0.8-0.3h-5.8c-0.3,0-0.5-0.1-0.7-0.3c-0.2-0.2-0.3-0.4-0.3-0.7v-2.1c0-0.5,0.1-1,0.3-1.4
			c0.2-0.4,0.5-0.8,0.8-1.1c0.3-0.3,0.7-0.5,1.1-0.7c0.4-0.2,0.8-0.2,1.3-0.2H747z"/>
	</g>
	<g>
		<path class="st1" d="M604.6-380.8h-16.2c-0.5,0-0.9-0.3-1.1-0.7l-19.4-39.7c-0.4-0.8,0.2-1.8,1.1-1.8h16.8c0.5,0,0.9,0.3,1.1,0.7
			l18.8,39.7C606.1-381.8,605.5-380.8,604.6-380.8z"/>
		<path class="st1" d="M608.9-426.2l-0.9-0.4c-0.6-0.3-0.9-1-0.6-1.6l4.7-10.6c0.3-0.6,1-0.9,1.6-0.6l0.9,0.4c0.6,0.3,0.9,1,0.6,1.6
			l-4.7,10.6C610.3-426.2,609.6-425.9,608.9-426.2z"/>
		<path class="st1" d="M612.4-416.6l-0.9-0.4c-0.6-0.3-0.9-1-0.6-1.6l6.1-13.8c0.3-0.6,1-0.9,1.6-0.6l0.9,0.4c0.6,0.3,0.9,1,0.6,1.6
			l-6.1,13.8C613.8-416.6,613-416.3,612.4-416.6z"/>
		<path class="st1" d="M621-436.2l-0.9-0.4c-0.6-0.3-0.9-1-0.6-1.6l0.4-0.9c0.3-0.6,1-0.9,1.6-0.6l0.9,0.4c0.6,0.3,0.9,1,0.6,1.6
			l-0.4,0.9C622.4-436.2,621.7-435.9,621-436.2z"/>
		<path class="st1" d="M615.3-411.4l1.2-2.6c0.3-0.6,0-1.4-0.6-1.6l-1.1-0.5c-0.5-0.2-1.2,0-1.4,0.6l-1.7,3.9l-3.1,7.1
			c-0.3,0.6-1,0.9-1.6,0.6l-0.9-0.4c-0.6-0.3-0.9-1-0.6-1.6l3.1-7.1l4.1-9.4c0.3-0.6,0-1.4-0.6-1.6l-0.9-0.4c-0.6-0.3-1.4,0-1.6,0.6
			l-4.1,9.4l-1.4,3.1c-0.3,0.6-1,0.9-1.6,0.6l-0.9-0.4c-0.6-0.3-1.4,0-1.6,0.6l-12.3,28c-0.4,0.8,0.2,1.7,1.1,1.7h16.3
			c0.5,0,0.9-0.3,1.1-0.7l11.9-26.5c0.2-0.4,0-1-0.4-1.1l-1.3-0.6C615.3-410,615-410.8,615.3-411.4z"/>
		<path class="st1" d="M619-414l-0.9-0.4c-0.6-0.3-0.9-1-0.6-1.6l1.4-3.1c0.3-0.6,1-0.9,1.6-0.6l0.9,0.4c0.6,0.3,0.9,1,0.6,1.6
			l-1.4,3.1C620.3-414.1,619.6-413.8,619-414z"/>
		<path class="st1" d="M603.6-414.2l-0.9-0.4c-0.6-0.3-0.9-1-0.6-1.6l1.4-3.1c0.3-0.6,1-0.9,1.6-0.6l0.9,0.4c0.6,0.3,0.9,1,0.6,1.6
			l-1.4,3.1C605-414.2,604.3-413.9,603.6-414.2z"/>
		<path class="st1" d="M622.7-422.5l-0.9-0.4c-0.6-0.3-0.9-1-0.6-1.6l2.8-6.3c0.3-0.6,1-0.9,1.6-0.6l0.9,0.4c0.6,0.3,0.9,1,0.6,1.6
			l-2.8,6.3C624.1-422.5,623.3-422.2,622.7-422.5z"/>
	</g>
	<path class="st1" d="M754.1-408.8H752c-0.6,0-1.2,0.5-1.2,1.2v2.1v2.1c0,0.6,0.5,1.2,1.2,1.2h2.1h2.1c0.6,0,1.2-0.5,1.2-1.2v-2.1
		v-2.1c0-0.6-0.5-1.2-1.2-1.2H754.1z"/>
</g>
<g>
	<g>
		<path class="st2" d="M643.5-217.7c0.3,0,0.5,0.1,0.7,0.3s0.3,0.4,0.3,0.7v4.5c0,0.3-0.1,0.5-0.3,0.7c-0.2,0.2-0.4,0.3-0.7,0.3
			h-9.3c0.6,0,1.1,0.2,1.6,0.6c0.5,0.4,0.7,0.9,0.7,1.4v18.4c0,0.3-0.1,0.5-0.3,0.7c-0.2,0.2-0.4,0.3-0.7,0.3h-5.6
			c-0.3,0-0.5-0.1-0.7-0.3c-0.2-0.2-0.3-0.4-0.3-0.7V-210c0-0.4-0.1-0.7-0.4-0.9c-0.2-0.2-0.5-0.3-0.8-0.3h-5.8
			c-0.3,0-0.5-0.1-0.7-0.3c-0.2-0.2-0.3-0.4-0.3-0.7v-2.1c0-0.5,0.1-1,0.3-1.4c0.2-0.4,0.5-0.8,0.8-1.1c0.3-0.3,0.7-0.5,1.1-0.7
			c0.4-0.2,0.8-0.2,1.3-0.2H643.5z"/>
		<path class="st2" d="M672.7-217.7c0.2,0,0.4,0.1,0.6,0.2c0.2,0.2,0.3,0.3,0.3,0.6c0,0.2,0,0.3,0,0.4l-8.1,25.7
			c-0.1,0.3-0.3,0.6-0.5,0.8c-0.2,0.2-0.6,0.3-1.1,0.3h-6.4c-0.5,0-0.9-0.1-1.1-0.3c-0.3-0.2-0.5-0.5-0.6-0.8l-8.1-25.7l-0.1-0.4
			c0-0.2,0.1-0.4,0.2-0.6c0.2-0.2,0.4-0.2,0.6-0.2h5.2c0.4,0,0.8,0.1,1,0.3c0.2,0.2,0.4,0.5,0.5,0.7l5.3,17.4c0,0.1,0.1,0.2,0.2,0.2
			c0.1,0,0.2-0.1,0.2-0.2l5.3-17.4c0.1-0.3,0.3-0.6,0.6-0.8c0.3-0.2,0.6-0.3,0.9-0.3H672.7z"/>
		<path class="st2" d="M676.5-190.7v-23.5c0-0.6,0.1-1.1,0.3-1.6c0.2-0.4,0.5-0.8,0.9-1.1c0.3-0.3,0.7-0.5,1.1-0.6
			c0.4-0.1,0.8-0.2,1.1-0.2h9.9c1.4,0,2.7,0.1,3.9,0.4c1.2,0.3,2.3,0.7,3.2,1.3c0.9,0.6,1.6,1.4,2.2,2.5c0.5,1,0.8,2.3,0.8,3.8
			c0,1.2-0.3,2.2-0.9,3.1c-0.6,0.9-1.4,1.7-2.4,2.3c1.2,0.5,2.2,1.3,2.8,2.5s1,2.4,1,3.6c0,1.6-0.3,2.9-0.8,3.9
			c-0.5,1.1-1.3,2-2.2,2.6c-0.9,0.7-2,1.2-3.3,1.5c-1.2,0.3-2.6,0.5-4,0.5h-12.7c-0.3,0-0.5-0.1-0.7-0.3
			C676.6-190.2,676.5-190.5,676.5-190.7z M689.1-206.6c0.9,0,1.6-0.2,2.2-0.7c0.6-0.5,0.8-1.2,0.8-2.2c0-0.9-0.3-1.6-0.9-2.1
			c-0.6-0.5-1.3-0.7-2.2-0.7h-7.2c0.6,0,1.1,0.2,1.6,0.7c0.4,0.4,0.6,0.9,0.6,1.5v2.4c0,0.2,0.1,0.5,0.3,0.8
			c0.2,0.3,0.5,0.4,0.9,0.4H689.1z M689.4-195.1c1,0,1.7-0.3,2.4-0.8c0.6-0.5,0.9-1.3,0.9-2.3c0-1-0.3-1.7-0.9-2.3
			c-0.6-0.6-1.4-0.9-2.3-0.9h-7.6c0.6,0,1.1,0.2,1.6,0.7c0.4,0.4,0.6,0.9,0.6,1.5v2.9c0,0.3,0.1,0.5,0.3,0.8
			c0.2,0.3,0.5,0.4,0.9,0.4H689.4z"/>
		<path class="st2" d="M703.6-190.7v-23.5c0-1,0.3-1.9,1-2.5c0.7-0.7,1.5-1,2.5-1h16.4c0.3,0,0.5,0.1,0.7,0.3
			c0.2,0.2,0.3,0.4,0.3,0.7v4c0,0.3-0.1,0.5-0.3,0.7c-0.2,0.2-0.4,0.3-0.8,0.3h-14.8c0.6,0,1.2,0.2,1.6,0.7c0.4,0.5,0.6,1,0.6,1.5
			v1.7c0,0.3,0.1,0.6,0.3,0.8c0.2,0.3,0.5,0.4,0.9,0.4h8.8c0.3,0,0.5,0.1,0.7,0.3s0.3,0.4,0.3,0.7v3.6c0,0.3-0.1,0.5-0.3,0.7
			s-0.4,0.3-0.7,0.3h-12.2c0.6,0,1.1,0.2,1.6,0.6c0.4,0.4,0.6,0.9,0.6,1.4v1.9c0,0.3,0.1,0.6,0.3,0.8c0.2,0.3,0.5,0.4,0.9,0.4h11.7
			c0.7,0,1,0.3,1,1v3.9c0,0.3-0.1,0.6-0.3,0.7c-0.2,0.2-0.4,0.3-0.7,0.3h-19.2c-0.3,0-0.5-0.1-0.7-0.3
			C703.7-190.2,703.6-190.4,703.6-190.7z"/>
		<path class="st2" d="M747-217.7c0.3,0,0.5,0.1,0.7,0.3c0.2,0.2,0.3,0.4,0.3,0.7v4.5c0,0.3-0.1,0.5-0.3,0.7
			c-0.2,0.2-0.4,0.3-0.7,0.3h-5.9c0.6,0,1.1,0.2,1.6,0.6c0.5,0.4,0.7,0.9,0.7,1.4v18.4c0,0.3-0.1,0.5-0.3,0.7
			c-0.2,0.2-0.4,0.3-0.7,0.3h-5.6c-0.3,0-0.5-0.1-0.7-0.3c-0.2-0.2-0.3-0.4-0.3-0.7V-210c0-0.4-0.1-0.7-0.4-0.9
			c-0.2-0.2-0.5-0.3-0.8-0.3h-5.8c-0.3,0-0.5-0.1-0.7-0.3c-0.2-0.2-0.3-0.4-0.3-0.7v-2.1c0-0.5,0.1-1,0.3-1.4
			c0.2-0.4,0.5-0.8,0.8-1.1c0.3-0.3,0.7-0.5,1.1-0.7c0.4-0.2,0.8-0.2,1.3-0.2H747z"/>
	</g>
	<g>
		<path class="st2" d="M604.6-189.8h-16.2c-0.5,0-0.9-0.3-1.1-0.7l-19.4-39.7c-0.4-0.8,0.2-1.8,1.1-1.8h16.8c0.5,0,0.9,0.3,1.1,0.7
			l18.8,39.7C606.1-190.8,605.5-189.8,604.6-189.8z"/>
		<path class="st2" d="M608.9-235.2l-0.9-0.4c-0.6-0.3-0.9-1-0.6-1.6l4.7-10.6c0.3-0.6,1-0.9,1.6-0.6l0.9,0.4c0.6,0.3,0.9,1,0.6,1.6
			l-4.7,10.6C610.3-235.2,609.6-234.9,608.9-235.2z"/>
		<path class="st2" d="M612.4-225.6l-0.9-0.4c-0.6-0.3-0.9-1-0.6-1.6l6.1-13.8c0.3-0.6,1-0.9,1.6-0.6l0.9,0.4c0.6,0.3,0.9,1,0.6,1.6
			l-6.1,13.8C613.8-225.6,613-225.3,612.4-225.6z"/>
		<path class="st2" d="M621-245.2l-0.9-0.4c-0.6-0.3-0.9-1-0.6-1.6l0.4-0.9c0.3-0.6,1-0.9,1.6-0.6l0.9,0.4c0.6,0.3,0.9,1,0.6,1.6
			l-0.4,0.9C622.4-245.3,621.7-245,621-245.2z"/>
		<path class="st2" d="M615.3-220.4l1.2-2.6c0.3-0.6,0-1.4-0.6-1.6l-1.1-0.5c-0.5-0.2-1.2,0-1.4,0.6l-1.7,3.9l-3.1,7.1
			c-0.3,0.6-1,0.9-1.6,0.6l-0.9-0.4c-0.6-0.3-0.9-1-0.6-1.6l3.1-7.1l4.1-9.4c0.3-0.6,0-1.4-0.6-1.6l-0.9-0.4c-0.6-0.3-1.4,0-1.6,0.6
			l-4.1,9.4l-1.4,3.1c-0.3,0.6-1,0.9-1.6,0.6l-0.9-0.4c-0.6-0.3-1.4,0-1.6,0.6l-12.3,28c-0.4,0.8,0.2,1.7,1.1,1.7h16.3
			c0.5,0,0.9-0.3,1.1-0.7l11.9-26.5c0.2-0.4,0-1-0.4-1.1l-1.3-0.6C615.3-219,615-219.8,615.3-220.4z"/>
		<path class="st2" d="M619-223.1l-0.9-0.4c-0.6-0.3-0.9-1-0.6-1.6l1.4-3.1c0.3-0.6,1-0.9,1.6-0.6l0.9,0.4c0.6,0.3,0.9,1,0.6,1.6
			l-1.4,3.1C620.3-223.1,619.6-222.8,619-223.1z"/>
		<path class="st2" d="M603.6-223.2l-0.9-0.4c-0.6-0.3-0.9-1-0.6-1.6l1.4-3.1c0.3-0.6,1-0.9,1.6-0.6l0.9,0.4c0.6,0.3,0.9,1,0.6,1.6
			l-1.4,3.1C605-223.2,604.3-222.9,603.6-223.2z"/>
		<path class="st2" d="M622.7-231.5l-0.9-0.4c-0.6-0.3-0.9-1-0.6-1.6l2.8-6.3c0.3-0.6,1-0.9,1.6-0.6l0.9,0.4c0.6,0.3,0.9,1,0.6,1.6
			l-2.8,6.3C624.1-231.6,623.3-231.3,622.7-231.5z"/>
	</g>
	<path class="st2" d="M754.1-217.8H752c-0.6,0-1.2,0.5-1.2,1.2v2.1v2.1c0,0.6,0.5,1.2,1.2,1.2h2.1h2.1c0.6,0,1.2-0.5,1.2-1.2v-2.1
		v-2.1c0-0.6-0.5-1.2-1.2-1.2H754.1z"/>
</g>
<g>
	<g>
		<path class="st20" d="M931.8-217.7c0.3,0,0.5,0.1,0.7,0.3s0.3,0.4,0.3,0.7v4.5c0,0.3-0.1,0.5-0.3,0.7c-0.2,0.2-0.4,0.3-0.7,0.3
			h-9.3c0.6,0,1.1,0.2,1.6,0.6c0.5,0.4,0.7,0.9,0.7,1.4v18.4c0,0.3-0.1,0.5-0.3,0.7c-0.2,0.2-0.4,0.3-0.7,0.3h-5.6
			c-0.3,0-0.5-0.1-0.7-0.3c-0.2-0.2-0.3-0.4-0.3-0.7V-210c0-0.4-0.1-0.7-0.4-0.9c-0.2-0.2-0.5-0.3-0.8-0.3h-5.8
			c-0.3,0-0.5-0.1-0.7-0.3c-0.2-0.2-0.3-0.4-0.3-0.7v-2.1c0-0.5,0.1-1,0.3-1.4c0.2-0.4,0.5-0.8,0.8-1.1c0.3-0.3,0.7-0.5,1.1-0.7
			c0.4-0.2,0.8-0.2,1.3-0.2H931.8z"/>
		<path class="st20" d="M961.1-217.7c0.2,0,0.4,0.1,0.6,0.2c0.2,0.2,0.3,0.3,0.3,0.6c0,0.2,0,0.3,0,0.4l-8.1,25.7
			c-0.1,0.3-0.3,0.6-0.5,0.8c-0.2,0.2-0.6,0.3-1.1,0.3h-6.4c-0.5,0-0.9-0.1-1.1-0.3c-0.3-0.2-0.5-0.5-0.6-0.8l-8.1-25.7l-0.1-0.4
			c0-0.2,0.1-0.4,0.2-0.6c0.2-0.2,0.4-0.2,0.6-0.2h5.2c0.4,0,0.8,0.1,1,0.3c0.2,0.2,0.4,0.5,0.5,0.7l5.3,17.4c0,0.1,0.1,0.2,0.2,0.2
			c0.1,0,0.2-0.1,0.2-0.2l5.3-17.4c0.1-0.3,0.3-0.6,0.6-0.8c0.3-0.2,0.6-0.3,0.9-0.3H961.1z"/>
		<path class="st20" d="M964.9-190.7v-23.5c0-0.6,0.1-1.1,0.3-1.6c0.2-0.4,0.5-0.8,0.9-1.1c0.3-0.3,0.7-0.5,1.1-0.6
			c0.4-0.1,0.8-0.2,1.1-0.2h9.9c1.4,0,2.7,0.1,3.9,0.4c1.2,0.3,2.3,0.7,3.2,1.3c0.9,0.6,1.6,1.4,2.2,2.5c0.5,1,0.8,2.3,0.8,3.8
			c0,1.2-0.3,2.2-0.9,3.1c-0.6,0.9-1.4,1.7-2.4,2.3c1.2,0.5,2.2,1.3,2.8,2.5s1,2.4,1,3.6c0,1.6-0.3,2.9-0.8,3.9
			c-0.5,1.1-1.3,2-2.2,2.6c-0.9,0.7-2,1.2-3.3,1.5c-1.2,0.3-2.6,0.5-4,0.5h-12.7c-0.3,0-0.5-0.1-0.7-0.3
			C965-190.2,964.9-190.5,964.9-190.7z M977.5-206.6c0.9,0,1.6-0.2,2.2-0.7c0.6-0.5,0.8-1.2,0.8-2.2c0-0.9-0.3-1.6-0.9-2.1
			c-0.6-0.5-1.3-0.7-2.2-0.7h-7.2c0.6,0,1.1,0.2,1.6,0.7c0.4,0.4,0.6,0.9,0.6,1.5v2.4c0,0.2,0.1,0.5,0.3,0.8
			c0.2,0.3,0.5,0.4,0.9,0.4H977.5z M977.8-195.1c1,0,1.7-0.3,2.4-0.8c0.6-0.5,0.9-1.3,0.9-2.3c0-1-0.3-1.7-0.9-2.3
			c-0.6-0.6-1.4-0.9-2.3-0.9h-7.6c0.6,0,1.1,0.2,1.6,0.7c0.4,0.4,0.6,0.9,0.6,1.5v2.9c0,0.3,0.1,0.5,0.3,0.8
			c0.2,0.3,0.5,0.4,0.9,0.4H977.8z"/>
		<path class="st20" d="M992-190.7v-23.5c0-1,0.3-1.9,1-2.5c0.7-0.7,1.5-1,2.5-1h16.4c0.3,0,0.5,0.1,0.7,0.3
			c0.2,0.2,0.3,0.4,0.3,0.7v4c0,0.3-0.1,0.5-0.3,0.7c-0.2,0.2-0.4,0.3-0.8,0.3H997c0.6,0,1.2,0.2,1.6,0.7c0.4,0.5,0.6,1,0.6,1.5v1.7
			c0,0.3,0.1,0.6,0.3,0.8c0.2,0.3,0.5,0.4,0.9,0.4h8.8c0.3,0,0.5,0.1,0.7,0.3s0.3,0.4,0.3,0.7v3.6c0,0.3-0.1,0.5-0.3,0.7
			s-0.4,0.3-0.7,0.3H997c0.6,0,1.1,0.2,1.6,0.6c0.4,0.4,0.6,0.9,0.6,1.4v1.9c0,0.3,0.1,0.6,0.3,0.8c0.2,0.3,0.5,0.4,0.9,0.4h11.7
			c0.7,0,1,0.3,1,1v3.9c0,0.3-0.1,0.6-0.3,0.7c-0.2,0.2-0.4,0.3-0.7,0.3H993c-0.3,0-0.5-0.1-0.7-0.3
			C992.1-190.2,992-190.4,992-190.7z"/>
		<path class="st20" d="M1035.4-217.7c0.3,0,0.5,0.1,0.7,0.3s0.3,0.4,0.3,0.7v4.5c0,0.3-0.1,0.5-0.3,0.7c-0.2,0.2-0.4,0.3-0.7,0.3
			h-5.9c0.6,0,1.1,0.2,1.6,0.6c0.5,0.4,0.7,0.9,0.7,1.4v18.4c0,0.3-0.1,0.5-0.3,0.7c-0.2,0.2-0.4,0.3-0.7,0.3h-5.6
			c-0.3,0-0.5-0.1-0.7-0.3c-0.2-0.2-0.3-0.4-0.3-0.7V-210c0-0.4-0.1-0.7-0.4-0.9c-0.2-0.2-0.5-0.3-0.8-0.3h-5.8
			c-0.3,0-0.5-0.1-0.7-0.3c-0.2-0.2-0.3-0.4-0.3-0.7v-2.1c0-0.5,0.1-1,0.3-1.4c0.2-0.4,0.5-0.8,0.8-1.1c0.3-0.3,0.7-0.5,1.1-0.7
			c0.4-0.2,0.8-0.2,1.3-0.2H1035.4z"/>
	</g>
	<g>
		<path class="st20" d="M893-189.8h-16.2c-0.5,0-0.9-0.3-1.1-0.7l-19.4-39.7c-0.4-0.8,0.2-1.8,1.1-1.8h16.8c0.5,0,0.9,0.3,1.1,0.7
			l18.8,39.7C894.5-190.8,893.9-189.8,893-189.8z"/>
		<path class="st20" d="M897.3-235.2l-0.9-0.4c-0.6-0.3-0.9-1-0.6-1.6l4.7-10.6c0.3-0.6,1-0.9,1.6-0.6l0.9,0.4
			c0.6,0.3,0.9,1,0.6,1.6l-4.7,10.6C898.7-235.2,897.9-234.9,897.3-235.2z"/>
		<path class="st20" d="M900.8-225.6l-0.9-0.4c-0.6-0.3-0.9-1-0.6-1.6l6.1-13.8c0.3-0.6,1-0.9,1.6-0.6l0.9,0.4
			c0.6,0.3,0.9,1,0.6,1.6l-6.1,13.8C902.2-225.6,901.4-225.3,900.8-225.6z"/>
		<path class="st20" d="M909.4-245.2l-0.9-0.4c-0.6-0.3-0.9-1-0.6-1.6l0.4-0.9c0.3-0.6,1-0.9,1.6-0.6l0.9,0.4c0.6,0.3,0.9,1,0.6,1.6
			l-0.4,0.9C910.8-245.3,910.1-245,909.4-245.2z"/>
		<path class="st20" d="M903.7-220.4l1.2-2.6c0.3-0.6,0-1.4-0.6-1.6l-1.1-0.5c-0.5-0.2-1.2,0-1.4,0.6l-1.7,3.9l-3.1,7.1
			c-0.3,0.6-1,0.9-1.6,0.6l-0.9-0.4c-0.6-0.3-0.9-1-0.6-1.6l3.1-7.1l4.1-9.4c0.3-0.6,0-1.4-0.6-1.6l-0.9-0.4c-0.6-0.3-1.4,0-1.6,0.6
			l-4.1,9.4l-1.4,3.1c-0.3,0.6-1,0.9-1.6,0.6l-0.9-0.4c-0.6-0.3-1.4,0-1.6,0.6l-12.3,28c-0.4,0.8,0.2,1.7,1.1,1.7h16.3
			c0.5,0,0.9-0.3,1.1-0.7l11.9-26.5c0.2-0.4,0-1-0.4-1.1l-1.3-0.6C903.7-219,903.4-219.8,903.7-220.4z"/>
		<path class="st20" d="M907.4-223.1l-0.9-0.4c-0.6-0.3-0.9-1-0.6-1.6l1.4-3.1c0.3-0.6,1-0.9,1.6-0.6l0.9,0.4c0.6,0.3,0.9,1,0.6,1.6
			l-1.4,3.1C908.7-223.1,908-222.8,907.4-223.1z"/>
		<path class="st20" d="M892-223.2l-0.9-0.4c-0.6-0.3-0.9-1-0.6-1.6l1.4-3.1c0.3-0.6,1-0.9,1.6-0.6l0.9,0.4c0.6,0.3,0.9,1,0.6,1.6
			l-1.4,3.1C893.4-223.2,892.7-222.9,892-223.2z"/>
		<path class="st20" d="M911.1-231.5l-0.9-0.4c-0.6-0.3-0.9-1-0.6-1.6l2.8-6.3c0.3-0.6,1-0.9,1.6-0.6l0.9,0.4c0.6,0.3,0.9,1,0.6,1.6
			l-2.8,6.3C912.5-231.6,911.7-231.3,911.1-231.5z"/>
	</g>
	<path class="st20" d="M1042.5-217.8h-2.1c-0.6,0-1.2,0.5-1.2,1.2v2.1v2.1c0,0.6,0.5,1.2,1.2,1.2h2.1h2.1c0.6,0,1.2-0.5,1.2-1.2
		v-2.1v-2.1c0-0.6-0.5-1.2-1.2-1.2H1042.5z"/>
</g>
<rect x="802.3" y="-495.4" class="st20" width="282.5" height="189.4"/>
<g>
	<g>
		<path class="st2" d="M931.8-406c0.3,0,0.5,0.1,0.7,0.3c0.2,0.2,0.3,0.4,0.3,0.7v4.5c0,0.3-0.1,0.5-0.3,0.7
			c-0.2,0.2-0.4,0.3-0.7,0.3h-9.3c0.6,0,1.1,0.2,1.6,0.6c0.5,0.4,0.7,0.9,0.7,1.4v18.4c0,0.3-0.1,0.5-0.3,0.7
			c-0.2,0.2-0.4,0.3-0.7,0.3h-5.6c-0.3,0-0.5-0.1-0.7-0.3c-0.2-0.2-0.3-0.4-0.3-0.7v-19.3c0-0.4-0.1-0.7-0.4-0.9
			c-0.2-0.2-0.5-0.3-0.8-0.3h-5.8c-0.3,0-0.5-0.1-0.7-0.3c-0.2-0.2-0.3-0.4-0.3-0.7v-2.1c0-0.5,0.1-1,0.3-1.4
			c0.2-0.4,0.5-0.8,0.8-1.1c0.3-0.3,0.7-0.5,1.1-0.7c0.4-0.2,0.8-0.2,1.3-0.2H931.8z"/>
		<path class="st2" d="M961.1-406c0.2,0,0.4,0.1,0.6,0.2c0.2,0.2,0.3,0.3,0.3,0.6c0,0.2,0,0.3,0,0.4l-8.1,25.7
			c-0.1,0.3-0.3,0.6-0.5,0.8c-0.2,0.2-0.6,0.3-1.1,0.3h-6.4c-0.5,0-0.9-0.1-1.1-0.3c-0.3-0.2-0.5-0.5-0.6-0.8l-8.1-25.7l-0.1-0.4
			c0-0.2,0.1-0.4,0.2-0.6c0.2-0.2,0.4-0.2,0.6-0.2h5.2c0.4,0,0.8,0.1,1,0.3c0.2,0.2,0.4,0.5,0.5,0.7l5.3,17.4c0,0.1,0.1,0.2,0.2,0.2
			c0.1,0,0.2-0.1,0.2-0.2l5.3-17.4c0.1-0.3,0.3-0.6,0.6-0.8c0.3-0.2,0.6-0.3,0.9-0.3H961.1z"/>
		<path class="st2" d="M964.9-379v-23.5c0-0.6,0.1-1.1,0.3-1.6c0.2-0.4,0.5-0.8,0.9-1.1c0.3-0.3,0.7-0.5,1.1-0.6
			c0.4-0.1,0.8-0.2,1.1-0.2h9.9c1.4,0,2.7,0.1,3.9,0.4c1.2,0.3,2.3,0.7,3.2,1.3c0.9,0.6,1.6,1.4,2.2,2.5c0.5,1,0.8,2.3,0.8,3.8
			c0,1.2-0.3,2.2-0.9,3.1c-0.6,0.9-1.4,1.7-2.4,2.3c1.2,0.5,2.2,1.3,2.8,2.5s1,2.4,1,3.6c0,1.6-0.3,2.9-0.8,3.9
			c-0.5,1.1-1.3,2-2.2,2.6c-0.9,0.7-2,1.2-3.3,1.5c-1.2,0.3-2.6,0.5-4,0.5h-12.7c-0.3,0-0.5-0.1-0.7-0.3
			C965-378.5,964.9-378.7,964.9-379z M977.5-394.9c0.9,0,1.6-0.2,2.2-0.7c0.6-0.5,0.8-1.2,0.8-2.2c0-0.9-0.3-1.6-0.9-2.1
			c-0.6-0.5-1.3-0.7-2.2-0.7h-7.2c0.6,0,1.1,0.2,1.6,0.7c0.4,0.4,0.6,0.9,0.6,1.5v2.4c0,0.2,0.1,0.5,0.3,0.8
			c0.2,0.3,0.5,0.4,0.9,0.4H977.5z M977.8-383.4c1,0,1.7-0.3,2.4-0.8c0.6-0.5,0.9-1.3,0.9-2.3c0-1-0.3-1.7-0.9-2.3
			c-0.6-0.6-1.4-0.9-2.3-0.9h-7.6c0.6,0,1.1,0.2,1.6,0.7c0.4,0.4,0.6,0.9,0.6,1.5v2.9c0,0.3,0.1,0.5,0.3,0.8
			c0.2,0.3,0.5,0.4,0.9,0.4H977.8z"/>
		<path class="st2" d="M992-378.9v-23.5c0-1,0.3-1.9,1-2.5c0.7-0.7,1.5-1,2.5-1h16.4c0.3,0,0.5,0.1,0.7,0.3s0.3,0.4,0.3,0.7v4
			c0,0.3-0.1,0.5-0.3,0.7c-0.2,0.2-0.4,0.3-0.8,0.3H997c0.6,0,1.2,0.2,1.6,0.7c0.4,0.5,0.6,1,0.6,1.5v1.7c0,0.3,0.1,0.6,0.3,0.8
			c0.2,0.3,0.5,0.4,0.9,0.4h8.8c0.3,0,0.5,0.1,0.7,0.3c0.2,0.2,0.3,0.4,0.3,0.7v3.6c0,0.3-0.1,0.5-0.3,0.7s-0.4,0.3-0.7,0.3H997
			c0.6,0,1.1,0.2,1.6,0.6c0.4,0.4,0.6,0.9,0.6,1.4v1.9c0,0.3,0.1,0.6,0.3,0.8c0.2,0.3,0.5,0.4,0.9,0.4h11.7c0.7,0,1,0.3,1,1v3.9
			c0,0.3-0.1,0.6-0.3,0.7c-0.2,0.2-0.4,0.3-0.7,0.3H993c-0.3,0-0.5-0.1-0.7-0.3C992.1-378.4,992-378.7,992-378.9z"/>
		<path class="st2" d="M1035.4-406c0.3,0,0.5,0.1,0.7,0.3c0.2,0.2,0.3,0.4,0.3,0.7v4.5c0,0.3-0.1,0.5-0.3,0.7
			c-0.2,0.2-0.4,0.3-0.7,0.3h-5.9c0.6,0,1.1,0.2,1.6,0.6c0.5,0.4,0.7,0.9,0.7,1.4v18.4c0,0.3-0.1,0.5-0.3,0.7
			c-0.2,0.2-0.4,0.3-0.7,0.3h-5.6c-0.3,0-0.5-0.1-0.7-0.3c-0.2-0.2-0.3-0.4-0.3-0.7v-19.3c0-0.4-0.1-0.7-0.4-0.9
			c-0.2-0.2-0.5-0.3-0.8-0.3h-5.8c-0.3,0-0.5-0.1-0.7-0.3c-0.2-0.2-0.3-0.4-0.3-0.7v-2.1c0-0.5,0.1-1,0.3-1.4
			c0.2-0.4,0.5-0.8,0.8-1.1c0.3-0.3,0.7-0.5,1.1-0.7c0.4-0.2,0.8-0.2,1.3-0.2H1035.4z"/>
	</g>
	<g>
		<path class="st2" d="M893-378.1h-16.2c-0.5,0-0.9-0.3-1.1-0.7l-19.4-39.7c-0.4-0.8,0.2-1.8,1.1-1.8h16.8c0.5,0,0.9,0.3,1.1,0.7
			l18.8,39.7C894.5-379,893.9-378.1,893-378.1z"/>
		<path class="st2" d="M897.3-423.4l-0.9-0.4c-0.6-0.3-0.9-1-0.6-1.6l4.7-10.6c0.3-0.6,1-0.9,1.6-0.6l0.9,0.4c0.6,0.3,0.9,1,0.6,1.6
			l-4.7,10.6C898.7-423.4,897.9-423.1,897.3-423.4z"/>
		<path class="st2" d="M900.8-413.8l-0.9-0.4c-0.6-0.3-0.9-1-0.6-1.6l6.1-13.8c0.3-0.6,1-0.9,1.6-0.6l0.9,0.4c0.6,0.3,0.9,1,0.6,1.6
			l-6.1,13.8C902.2-413.8,901.4-413.6,900.8-413.8z"/>
		<path class="st2" d="M909.4-433.5l-0.9-0.4c-0.6-0.3-0.9-1-0.6-1.6l0.4-0.9c0.3-0.6,1-0.9,1.6-0.6l0.9,0.4c0.6,0.3,0.9,1,0.6,1.6
			l-0.4,0.9C910.8-433.5,910.1-433.2,909.4-433.5z"/>
		<path class="st2" d="M903.7-408.6l1.2-2.6c0.3-0.6,0-1.4-0.6-1.6l-1.1-0.5c-0.5-0.2-1.2,0-1.4,0.6l-1.7,3.9l-3.1,7.1
			c-0.3,0.6-1,0.9-1.6,0.6l-0.9-0.4c-0.6-0.3-0.9-1-0.6-1.6l3.1-7.1l4.1-9.4c0.3-0.6,0-1.4-0.6-1.6l-0.9-0.4c-0.6-0.3-1.4,0-1.6,0.6
			l-4.1,9.4l-1.4,3.1c-0.3,0.6-1,0.9-1.6,0.6l-0.9-0.4c-0.6-0.3-1.4,0-1.6,0.6l-12.3,28c-0.4,0.8,0.2,1.7,1.1,1.7h16.3
			c0.5,0,0.9-0.3,1.1-0.7l11.9-26.5c0.2-0.4,0-1-0.4-1.1l-1.3-0.6C903.7-407.3,903.4-408,903.7-408.6z"/>
		<path class="st2" d="M907.4-411.3l-0.9-0.4c-0.6-0.3-0.9-1-0.6-1.6l1.4-3.1c0.3-0.6,1-0.9,1.6-0.6l0.9,0.4c0.6,0.3,0.9,1,0.6,1.6
			l-1.4,3.1C908.7-411.3,908-411,907.4-411.3z"/>
		<path class="st2" d="M892-411.4l-0.9-0.4c-0.6-0.3-0.9-1-0.6-1.6l1.4-3.1c0.3-0.6,1-0.9,1.6-0.6l0.9,0.4c0.6,0.3,0.9,1,0.6,1.6
			l-1.4,3.1C893.4-411.4,892.7-411.1,892-411.4z"/>
		<path class="st2" d="M911.1-419.8l-0.9-0.4c-0.6-0.3-0.9-1-0.6-1.6l2.8-6.3c0.3-0.6,1-0.9,1.6-0.6l0.9,0.4c0.6,0.3,0.9,1,0.6,1.6
			l-2.8,6.3C912.5-419.8,911.7-419.5,911.1-419.8z"/>
	</g>
	<path class="st2" d="M1042.5-406h-2.1c-0.6,0-1.2,0.5-1.2,1.2v2.1v2.1c0,0.6,0.5,1.2,1.2,1.2h2.1h2.1c0.6,0,1.2-0.5,1.2-1.2v-2.1
		v-2.1c0-0.6-0.5-1.2-1.2-1.2H1042.5z"/>
</g>
</svg>
