<?xml version="1.0" encoding="utf-8"?>
<!-- Generator: Adobe Illustrator 22.1.0, SVG Export Plug-In . SVG Version: 6.00 Build 0)  -->
<svg version="1.1" id="Layer_1" xmlns="http://www.w3.org/2000/svg" xmlns:xlink="http://www.w3.org/1999/xlink" x="0px" y="0px"
	 viewBox="0 0 226.7 78" style="enable-background:new 0 0 226.7 78;" xml:space="preserve">
<style type="text/css">
	.st0{fill:#FFD000;}
	.st1{fill:#222222;}
	.st2{fill:#FFFFFF;}
	.st3{fill:#CACACA;}
	.st4{fill:url(#SVGID_1_);}
	.st5{fill:url(#SVGID_2_);}
	.st6{fill:url(#SVGID_3_);}
	.st7{fill:url(#SVGID_4_);}
	.st8{fill:url(#SVGID_5_);}
	.st9{fill:url(#SVGID_6_);}
	.st10{fill:url(#SVGID_7_);}
	.st11{fill:url(#SVGID_8_);}
	.st12{fill:url(#SVGID_9_);}
	.st13{fill:url(#SVGID_10_);}
	.st14{fill:url(#SVGID_11_);}
	.st15{fill:url(#SVGID_12_);}
	.st16{fill:url(#SVGID_13_);}
	.st17{fill:url(#SVGID_14_);}
	.st18{fill:url(#SVGID_15_);}
	.st19{fill:url(#SVGID_16_);}
	.st20{fill:#F6A100;}
</style>
<rect x="239" y="-600" class="st0" width="282.5" height="189.4"/>
<rect x="521.3" y="-410.6" class="st1" width="282.5" height="189.4"/>
<rect x="802.3" y="-410.6" class="st0" width="282.5" height="189.4"/>
<rect x="-43.7" y="-410.6" class="st1" width="282.5" height="189.4"/>
<g>
	<g>
		<g>
			<path class="st2" d="M351.7-483.6h-5.6c-0.4,0-0.8-0.1-1.1-0.4c-0.3-0.3-0.5-0.7-0.5-1.1v-19.3c0-0.3-0.1-0.4-0.2-0.4
				c-0.1-0.1-0.3-0.2-0.4-0.2H338c-0.4,0-0.8-0.1-1.1-0.4c-0.3-0.3-0.5-0.7-0.5-1.2v-2.1c0-0.6,0.1-1.2,0.4-1.7
				c0.2-0.5,0.6-0.9,0.9-1.3c0.4-0.4,0.8-0.6,1.3-0.8c0.5-0.2,1-0.3,1.5-0.3h19.3c0.5,0,0.9,0.2,1.2,0.5c0.3,0.3,0.5,0.7,0.5,1.1
				v4.5c0,0.5-0.2,0.9-0.5,1.2c-0.3,0.3-0.7,0.4-1.2,0.4h-7c0.4,0.5,0.5,1,0.5,1.5v18.4c0,0.5-0.2,0.9-0.5,1.1
				C352.5-483.8,352.1-483.6,351.7-483.6z M340.5-511.6c-0.4,0-0.7,0.1-1.1,0.2c-0.3,0.1-0.7,0.3-0.9,0.6c-0.3,0.3-0.5,0.6-0.7,0.9
				c-0.2,0.3-0.2,0.7-0.2,1.2v2.1c0,0.1,0,0.2,0.1,0.3c0.1,0.1,0.2,0.1,0.3,0.1h5.8c0.5,0,0.9,0.2,1.2,0.5c0.4,0.3,0.6,0.8,0.6,1.3
				v19.3c0,0.1,0,0.2,0.1,0.2c0,0,0,0,0.1,0.1c0.1,0.1,0.1,0.1,0.3,0.1h5.6c0.2,0,0.2-0.1,0.3-0.1c0,0,0,0,0.1-0.1
				c0,0,0.1-0.1,0.1-0.2v-18.4c0-0.4-0.2-0.7-0.5-1c-0.4-0.3-0.7-0.5-1.2-0.5c-0.3,0-0.6-0.3-0.6-0.6c0-0.3,0.3-0.6,0.6-0.6h9.3
				c0.2,0,0.3-0.1,0.3-0.1c0.1-0.1,0.1-0.1,0.1-0.3v-4.5c0-0.1,0-0.2-0.1-0.3c-0.1-0.1-0.2-0.1-0.3-0.1H340.5z"/>
		</g>
		<g>
			<path class="st2" d="M380-483.6h-6.4c-0.7,0-1.2-0.2-1.5-0.5c-0.3-0.3-0.6-0.7-0.7-1.1l-8.1-25.7l-0.1-0.4c0,0,0-0.1,0-0.1
				c0-0.4,0.1-0.7,0.4-1c0.3-0.3,0.7-0.4,1.1-0.4h5.2c0.6,0,1,0.2,1.4,0.5c0.3,0.3,0.5,0.7,0.7,1l4.9,16.2l4.9-16.2
				c0.2-0.5,0.4-0.9,0.8-1.1c0.4-0.2,0.8-0.4,1.3-0.4h5.2c0.4,0,0.7,0.1,1,0.4c0.3,0.3,0.5,0.6,0.5,1c0,0.3,0,0.4-0.1,0.6l-8.1,25.6
				c-0.1,0.4-0.3,0.7-0.7,1.1C381.2-483.8,380.7-483.6,380-483.6z M364.4-511.5l0.1,0.3l8.1,25.6c0.1,0.2,0.2,0.4,0.4,0.6
				c0.1,0.1,0.4,0.2,0.7,0.2h6.4c0.3,0,0.6-0.1,0.7-0.2c0.2-0.2,0.3-0.4,0.3-0.6l8.1-25.7c0,0,0,0,0,0c0,0,0-0.1,0-0.2
				c0,0,0-0.1-0.1-0.1c-0.1-0.1-0.1-0.1-0.2-0.1h-5.2c-0.2,0-0.4,0.1-0.6,0.2c-0.1,0.1-0.3,0.2-0.3,0.5l-5.3,17.4
				c0,0.4-0.3,0.6-0.8,0.6c-0.5,0-0.7-0.3-0.8-0.6l-5.3-17.4c0-0.1-0.2-0.3-0.3-0.5c-0.1-0.1-0.3-0.1-0.6-0.1h-5.2
				C364.5-511.6,364.5-511.6,364.4-511.5C364.4-511.5,364.4-511.5,364.4-511.5z M389.3-511.2L389.3-511.2L389.3-511.2z M389.3-511.3
				C389.3-511.3,389.3-511.3,389.3-511.3C389.3-511.3,389.3-511.3,389.3-511.3z"/>
		</g>
		<g>
			<path class="st2" d="M406.5-483.6h-12.7c-0.4,0-0.8-0.2-1.1-0.5c-0.3-0.3-0.5-0.7-0.5-1.1v-23.5c0-0.7,0.1-1.3,0.4-1.8
				c0.3-0.5,0.6-0.9,1-1.3c0.4-0.3,0.9-0.6,1.3-0.8c0.5-0.2,0.9-0.2,1.3-0.2h9.9c1.4,0,2.7,0.1,4,0.4c1.3,0.3,2.4,0.7,3.4,1.4
				c1,0.7,1.8,1.6,2.4,2.7c0.6,1.1,0.9,2.5,0.9,4.1c0,1.3-0.3,2.4-1,3.4c-0.4,0.7-1,1.4-1.7,1.9c0.9,0.5,1.6,1.3,2.2,2.2
				c0.7,1.3,1.1,2.6,1.1,3.9c0,1.6-0.3,3.1-0.9,4.2c-0.6,1.2-1.4,2.1-2.4,2.8c-1,0.7-2.2,1.3-3.5,1.6
				C409.4-483.8,408-483.6,406.5-483.6z M396.3-511.6c-0.3,0-0.6,0.1-1,0.2c-0.3,0.1-0.7,0.3-0.9,0.5c-0.3,0.2-0.5,0.6-0.7,0.9
				c-0.2,0.3-0.3,0.8-0.3,1.3v23.5c0,0.1,0,0.2,0.1,0.3c0.1,0.1,0.2,0.1,0.3,0.1h12.7c1.3,0,2.6-0.1,3.8-0.4
				c1.2-0.3,2.2-0.8,3.1-1.4c0.9-0.6,1.5-1.4,2.1-2.4c0.5-1,0.8-2.2,0.8-3.7c0-1.1-0.3-2.3-0.9-3.3c-0.6-1.1-1.5-1.8-2.5-2.2
				c-0.2-0.1-0.4-0.3-0.4-0.5c0-0.2,0.1-0.4,0.3-0.6c0.9-0.5,1.7-1.2,2.2-2c0.5-0.8,0.8-1.8,0.8-2.8c0-1.4-0.2-2.6-0.7-3.6
				c-0.5-0.9-1.2-1.7-2-2.3c-0.8-0.6-1.8-1-3-1.2c-1.2-0.2-2.4-0.4-3.7-0.4H396.3z M405.7-489h-4.2c-0.7,0-1.2-0.3-1.4-0.6
				c-0.3-0.4-0.4-0.8-0.4-1.2v-2.9c0-0.4-0.2-0.7-0.5-1.1c-0.3-0.3-0.7-0.5-1.1-0.5c-0.3,0-0.6-0.3-0.6-0.6c0-0.3,0.3-0.6,0.6-0.6
				h7.6c1.1,0,2,0.3,2.7,1c0.7,0.7,1.1,1.6,1.1,2.7c0,1.2-0.4,2.1-1.1,2.7C407.8-489.4,406.8-489,405.7-489z M400.4-495.3
				c0.3,0.5,0.5,1,0.5,1.5v2.9c0,0.1,0.1,0.3,0.2,0.4c0,0,0.1,0.2,0.4,0.2h4.2c0.8,0,1.5-0.2,2-0.7c0.5-0.4,0.7-1,0.7-1.8
				c0-0.8-0.2-1.4-0.7-1.9c-0.5-0.5-1.1-0.7-1.9-0.7H400.4z M405.4-500.5h-3.8c-0.6,0-1-0.2-1.4-0.6c-0.3-0.4-0.5-0.8-0.5-1.1v-2.4
				c0-0.4-0.2-0.7-0.5-1.1c-0.3-0.3-0.7-0.5-1.1-0.5c-0.3,0-0.6-0.3-0.6-0.6c0-0.3,0.3-0.6,0.6-0.6h7.2c1,0,1.9,0.3,2.6,0.8
				c0.7,0.6,1.1,1.5,1.1,2.6c0,1.1-0.4,2-1,2.6C407.3-500.8,406.4-500.5,405.4-500.5z M400.4-506.2c0.3,0.5,0.5,1,0.5,1.5v2.4
				c0,0.1,0.1,0.2,0.2,0.4c0.1,0.1,0.2,0.2,0.4,0.2h3.8c0.8,0,1.4-0.2,1.8-0.6c0.4-0.4,0.6-0.9,0.6-1.7c0-0.8-0.2-1.3-0.6-1.6
				c-0.5-0.4-1.1-0.6-1.8-0.6H400.4z"/>
		</g>
		<g>
			<path class="st2" d="M440.1-483.6h-19.2c-0.4,0-0.8-0.2-1.1-0.5c-0.3-0.3-0.5-0.7-0.5-1.1v-23.5c0-1.2,0.4-2.2,1.2-2.9
				c0.8-0.8,1.8-1.1,2.9-1.1h16.4c0.5,0,0.9,0.2,1.2,0.5c0.3,0.3,0.5,0.7,0.5,1.2v4c0,0.6-0.3,0.9-0.5,1.1c-0.3,0.3-0.7,0.4-1.2,0.4
				h-12.6c0.3,0.5,0.5,1,0.5,1.6v1.7c0,0.2,0.1,0.3,0.2,0.5c0,0,0.1,0.2,0.4,0.2h8.8c0.5,0,0.9,0.2,1.2,0.5c0.3,0.3,0.5,0.7,0.5,1.2
				v3.6c0,0.5-0.2,0.9-0.5,1.2c-0.3,0.3-0.7,0.5-1.2,0.5h-9.9c0.3,0.5,0.5,1,0.5,1.5v1.9c0,0.2,0.1,0.3,0.2,0.5
				c0.1,0.1,0.2,0.2,0.4,0.2h11.7c1,0,1.6,0.6,1.6,1.6v3.9c0,0.6-0.3,1-0.5,1.2C440.9-483.7,440.5-483.6,440.1-483.6z M423.4-511.6
				c-0.8,0-1.5,0.3-2,0.8c-0.6,0.5-0.9,1.2-0.9,2.1v23.5c0,0.1,0,0.2,0.1,0.3c0.1,0.1,0.2,0.1,0.3,0.1h19.2c0.2,0,0.3-0.1,0.4-0.1
				c0,0,0.1-0.1,0.1-0.3v-3.9c0-0.4-0.1-0.4-0.4-0.4h-11.7c-0.6,0-1-0.2-1.4-0.6c-0.3-0.4-0.5-0.8-0.5-1.2v-1.9c0-0.4-0.2-0.7-0.5-1
				c-0.3-0.3-0.7-0.5-1.1-0.5c-0.3,0-0.6-0.3-0.6-0.6c0-0.3,0.3-0.6,0.6-0.6h12.2c0.1,0,0.2,0,0.3-0.1c0.1-0.1,0.1-0.2,0.1-0.3v-3.6
				c0-0.1,0-0.2-0.1-0.3c-0.1-0.1-0.2-0.1-0.3-0.1h-8.8c-0.7,0-1.2-0.3-1.4-0.6c-0.3-0.4-0.4-0.8-0.4-1.2v-1.7
				c0-0.4-0.2-0.7-0.5-1.1c-0.3-0.3-0.7-0.5-1.1-0.5c-0.3,0-0.6-0.3-0.6-0.6c0-0.3,0.3-0.6,0.6-0.6h14.8c0.2,0,0.3-0.1,0.3-0.1
				c0.1,0,0.1-0.1,0.1-0.3v-4c0-0.1,0-0.2-0.1-0.3c-0.1-0.1-0.2-0.1-0.3-0.1H423.4z"/>
		</g>
		<g>
			<path class="st2" d="M458.6-483.6h-5.6c-0.4,0-0.8-0.1-1.1-0.4c-0.3-0.3-0.5-0.7-0.5-1.1v-19.3c0-0.3-0.1-0.4-0.2-0.4
				c-0.1-0.1-0.3-0.2-0.4-0.2H445c-0.4,0-0.8-0.1-1.1-0.4c-0.3-0.3-0.5-0.7-0.5-1.2v-2.1c0-0.6,0.1-1.2,0.4-1.7
				c0.2-0.5,0.5-0.9,0.9-1.3c0.4-0.4,0.8-0.6,1.3-0.8c0.5-0.2,1-0.3,1.5-0.3h15.9c0.5,0,0.9,0.2,1.2,0.5c0.3,0.3,0.5,0.7,0.5,1.1
				v4.5c0,0.5-0.2,0.9-0.5,1.2c-0.3,0.3-0.7,0.4-1.2,0.4h-3.5c0.4,0.5,0.5,1,0.5,1.5v18.4c0,0.5-0.2,0.9-0.5,1.1
				C459.5-483.8,459.1-483.6,458.6-483.6z M447.4-511.6c-0.4,0-0.7,0.1-1.1,0.2c-0.3,0.1-0.7,0.3-0.9,0.6c-0.3,0.3-0.5,0.6-0.7,0.9
				c-0.2,0.3-0.2,0.7-0.2,1.2v2.1c0,0.1,0,0.2,0.1,0.3c0.1,0.1,0.2,0.1,0.3,0.1h5.8c0.5,0,0.9,0.2,1.2,0.5c0.4,0.3,0.6,0.8,0.6,1.3
				v19.3c0,0.1,0,0.2,0.1,0.2c0,0,0,0,0.1,0.1c0.1,0.1,0.1,0.1,0.3,0.1h5.6c0.2,0,0.2-0.1,0.3-0.1c0,0,0,0,0.1-0.1
				c0,0,0.1-0.1,0.1-0.2v-18.4c0-0.4-0.2-0.7-0.5-1c-0.4-0.3-0.7-0.5-1.2-0.5c-0.3,0-0.6-0.3-0.6-0.6c0-0.3,0.3-0.6,0.6-0.6h5.9
				c0.2,0,0.3-0.1,0.3-0.1c0.1-0.1,0.1-0.1,0.1-0.3v-4.5c0-0.1,0-0.2-0.1-0.3c-0.1-0.1-0.2-0.1-0.3-0.1H447.4z"/>
		</g>
	</g>
	<g>
		<g>
			<path class="st2" d="M320.9-483.7h-16.2c-0.7,0-1.3-0.4-1.7-1l-19.4-39.7c-0.3-0.6-0.2-1.2,0.1-1.8c0.3-0.5,0.9-0.9,1.6-0.9H302
				c0.7,0,1.4,0.4,1.7,1.1l18.8,39.7c0.3,0.6,0.2,1.2-0.1,1.8C322.1-484,321.5-483.7,320.9-483.7z M285.2-526
				c-0.2,0-0.4,0.1-0.6,0.3c-0.1,0.2-0.1,0.4,0,0.6l19.4,39.7c0.1,0.2,0.3,0.4,0.6,0.4h16.2c0.2,0,0.4-0.1,0.5-0.3
				c0.1-0.2,0.1-0.4,0-0.6l-18.8-39.7c-0.1-0.2-0.3-0.4-0.6-0.4H285.2z"/>
		</g>
		<g>
			<path class="st2" d="M325.7-529c-0.2,0-0.5,0-0.7-0.2c0,0,0,0,0,0l-0.9-0.4c-0.5-0.2-0.8-0.6-1-1c-0.2-0.5-0.2-1,0-1.4l4.7-10.6
				c0.4-0.9,1.5-1.4,2.4-0.9l0.9,0.4c0.9,0.4,1.4,1.5,0.9,2.4l-4.7,10.6C327.1-529.4,326.4-529,325.7-529z M325.5-530.2
				c0.3,0.1,0.7,0,0.9-0.3l4.7-10.6c0.1-0.3,0-0.7-0.3-0.8l-0.9-0.4c-0.3-0.1-0.7,0-0.9,0.3l-4.7,10.6c-0.1,0.2-0.1,0.3,0,0.5
				c0.1,0.2,0.2,0.3,0.3,0.4L325.5-530.2z"/>
		</g>
		<g>
			<path class="st2" d="M329.2-519.4c-0.3,0-0.5-0.1-0.8-0.2l-0.9-0.4c-0.9-0.4-1.4-1.5-0.9-2.4l6.1-13.8c0.2-0.5,0.6-0.8,1-1
				c0.5-0.2,1-0.2,1.4,0l0.9,0.4c0.9,0.4,1.4,1.5,0.9,2.4l-6.1,13.8c-0.2,0.5-0.6,0.8-1,1C329.6-519.4,329.4-519.4,329.2-519.4z
				 M334.3-536.1c-0.1,0-0.2,0-0.2,0c-0.2,0.1-0.3,0.2-0.4,0.3l-6.1,13.8c-0.1,0.3,0,0.7,0.3,0.9l0.9,0.4l0,0c0.2,0.1,0.3,0.1,0.5,0
				c0.2-0.1,0.3-0.2,0.4-0.4l6.1-13.8c0.1-0.3,0-0.7-0.3-0.9l-0.9-0.4C334.5-536.1,334.4-536.1,334.3-536.1z"/>
		</g>
		<g>
			<path class="st2" d="M337.8-539c-0.3,0-0.5-0.1-0.7-0.2l-0.9-0.4c-0.5-0.2-0.8-0.6-1-1c-0.2-0.5-0.2-1,0-1.4l0.4-0.9
				c0.4-0.9,1.5-1.4,2.4-0.9l0.9,0.4c0.9,0.4,1.4,1.5,0.9,2.4l-0.4,0.9c-0.2,0.5-0.6,0.8-1,1C338.3-539.1,338.1-539,337.8-539z
				 M337.3-542.9c-0.3,0-0.5,0.1-0.6,0.4l-0.4,0.9c-0.1,0.2-0.1,0.3,0,0.5c0.1,0.2,0.2,0.3,0.3,0.4l0.9,0.4c0,0,0,0,0,0
				c0.2,0.1,0.3,0.1,0.5,0c0.2-0.1,0.3-0.2,0.4-0.3l0.4-0.9c0.1-0.3,0-0.7-0.3-0.9l-0.9-0.4C337.5-542.8,337.4-542.9,337.3-542.9z"
				/>
		</g>
		<g>
			<path class="st2" d="M321-483.7h-16.3c-0.7,0-1.4-0.4-1.7-1.1c-0.1-0.3,0-0.7,0.3-0.8c0.3-0.1,0.7,0,0.8,0.3
				c0.1,0.2,0.3,0.4,0.6,0.4H321c0.3,0,0.5-0.2,0.6-0.4l11.9-26.5c0-0.1,0-0.2,0-0.2c0,0-0.1-0.1-0.1-0.1l-1.3-0.6
				c-0.5-0.2-0.8-0.6-1-1c-0.2-0.5-0.2-1,0-1.4l1.2-2.6c0.1-0.3,0-0.7-0.3-0.9l-1.1-0.5c-0.2-0.1-0.5,0-0.6,0.3l-4.8,11
				c-0.2,0.5-0.6,0.8-1,1c-0.5,0.2-1,0.2-1.4,0l-0.9-0.4c-0.9-0.4-1.4-1.5-0.9-2.4l7.2-16.5c0.1-0.3,0-0.7-0.3-0.9l-0.9-0.4
				c-0.3-0.1-0.7,0-0.9,0.3l-5.5,12.5c-0.4,0.9-1.5,1.4-2.4,0.9l-0.9-0.4c-0.3-0.1-0.7,0-0.9,0.3L313-506c-0.1,0.3-0.5,0.4-0.8,0.3
				c-0.3-0.1-0.4-0.5-0.3-0.8l3.4-7.8c0.4-0.9,1.5-1.4,2.4-0.9l0.9,0.4c0.3,0.1,0.7,0,0.9-0.3l5.5-12.5c0.4-0.9,1.5-1.4,2.4-0.9
				l0.9,0.4c0.9,0.4,1.4,1.5,0.9,2.4l-7.2,16.5c-0.1,0.3,0,0.7,0.3,0.9l0.9,0.4c0.2,0.1,0.3,0.1,0.5,0c0.2-0.1,0.3-0.2,0.4-0.3
				l4.8-11c0.4-0.8,1.4-1.2,2.2-0.9l1.1,0.5c0.9,0.4,1.4,1.5,0.9,2.4l-1.2,2.6c-0.1,0.2-0.1,0.3,0,0.5c0.1,0.2,0.2,0.3,0.3,0.4
				l1.3,0.6c0.4,0.2,0.6,0.4,0.8,0.8c0.1,0.4,0.1,0.8,0,1.1l-11.9,26.5C322.3-484.1,321.7-483.7,321-483.7z"/>
		</g>
		<g>
			<path class="st2" d="M335.8-516.8c-0.3,0-0.5-0.1-0.7-0.2l-0.9-0.4c-0.5-0.2-0.8-0.6-1-1c-0.2-0.5-0.2-1,0-1.4l1.4-3.1
				c0.2-0.5,0.6-0.8,1-1s1-0.2,1.4,0l0.9,0.4c0.5,0.2,0.8,0.6,1,1c0.2,0.5,0.2,1,0,1.4l-1.4,3.1c-0.2,0.5-0.6,0.8-1,1
				C336.2-516.9,336-516.8,335.8-516.8z M336.2-522.8c-0.1,0-0.2,0-0.2,0c-0.2,0.1-0.3,0.2-0.4,0.3l-1.4,3.1c-0.1,0.2-0.1,0.3,0,0.5
				c0.1,0.2,0.2,0.3,0.3,0.4l0.9,0.4c0,0,0,0,0,0c0.2,0.1,0.3,0.1,0.5,0c0.2-0.1,0.3-0.2,0.4-0.3l1.4-3.1c0.1-0.2,0.1-0.3,0-0.5
				c-0.1-0.2-0.2-0.3-0.3-0.4l-0.9-0.4C336.4-522.8,336.3-522.8,336.2-522.8z"/>
		</g>
		<g>
			<path class="st2" d="M320.4-517c-0.3,0-0.5-0.1-0.7-0.2l-0.9-0.4c-0.9-0.4-1.4-1.5-0.9-2.4l1.4-3.1c0.4-0.9,1.5-1.4,2.4-0.9
				l0.9,0.4c0.9,0.4,1.4,1.5,0.9,2.4l-1.4,3.1c-0.2,0.5-0.6,0.8-1,1C320.9-517,320.7-517,320.4-517z M320.9-523
				c-0.3,0-0.5,0.1-0.6,0.4l-1.4,3.1c-0.1,0.3,0,0.7,0.3,0.9l0.9,0.4c0.2,0.1,0.3,0.1,0.5,0c0.2-0.1,0.3-0.2,0.4-0.3l1.4-3.1
				c0.1-0.3,0-0.7-0.3-0.9l-0.9-0.4C321-522.9,320.9-523,320.9-523z"/>
		</g>
		<g>
			<path class="st2" d="M339.5-525.3c-0.3,0-0.5-0.1-0.7-0.2l-0.9-0.4c-0.9-0.4-1.4-1.5-0.9-2.4l2.8-6.3c0.4-0.9,1.5-1.4,2.4-0.9
				l0.9,0.4c0.9,0.4,1.4,1.5,0.9,2.4l-2.8,6.3c-0.2,0.5-0.6,0.8-1,1C340-525.4,339.7-525.3,339.5-525.3z M341.3-534.5
				c-0.2,0-0.5,0.1-0.6,0.4l-2.8,6.3c-0.1,0.3,0,0.7,0.3,0.9l0.9,0.4l0,0c0.2,0.1,0.3,0.1,0.5,0c0.2-0.1,0.3-0.2,0.4-0.3l2.8-6.3
				c0.1-0.3,0-0.7-0.3-0.9l-0.9-0.4C341.5-534.5,341.4-534.5,341.3-534.5z"/>
		</g>
	</g>
	<g>
		<path class="st2" d="M472.6-505.1h-4.3c-1,0-1.8-0.8-1.8-1.8v-4.3c0-1,0.8-1.8,1.8-1.8h4.3c1,0,1.8,0.8,1.8,1.8v4.3
			C474.3-505.9,473.6-505.1,472.6-505.1z M468.3-511.7c-0.3,0-0.6,0.3-0.6,0.6v4.3c0,0.3,0.3,0.6,0.6,0.6h4.3c0.3,0,0.6-0.3,0.6-0.6
			v-4.3c0-0.3-0.3-0.6-0.6-0.6H468.3z"/>
	</g>
</g>
<g>
	<g>
		<g>
			<path class="st1" d="M351.7-291.3h-5.6c-0.4,0-0.8-0.1-1.1-0.4c-0.3-0.3-0.5-0.7-0.5-1.1v-19.3c0-0.3-0.1-0.4-0.2-0.4
				c-0.1-0.1-0.3-0.2-0.4-0.2H338c-0.4,0-0.8-0.1-1.1-0.4c-0.3-0.3-0.5-0.7-0.5-1.2v-2.1c0-0.6,0.1-1.2,0.4-1.7
				c0.2-0.5,0.6-0.9,0.9-1.3c0.4-0.4,0.8-0.6,1.3-0.8c0.5-0.2,1-0.3,1.5-0.3h19.3c0.5,0,0.9,0.2,1.2,0.5c0.3,0.3,0.5,0.7,0.5,1.1
				v4.5c0,0.5-0.2,0.9-0.5,1.2c-0.3,0.3-0.7,0.4-1.2,0.4h-7c0.4,0.5,0.5,1,0.5,1.5v18.4c0,0.5-0.2,0.9-0.5,1.1
				C352.5-291.5,352.1-291.3,351.7-291.3z M340.5-319.3c-0.4,0-0.7,0.1-1.1,0.2c-0.3,0.1-0.7,0.3-0.9,0.6c-0.3,0.3-0.5,0.6-0.7,0.9
				c-0.2,0.3-0.2,0.7-0.2,1.2v2.1c0,0.1,0,0.2,0.1,0.3c0.1,0.1,0.2,0.1,0.3,0.1h5.8c0.5,0,0.9,0.2,1.2,0.5c0.4,0.3,0.6,0.8,0.6,1.3
				v19.3c0,0.1,0,0.2,0.1,0.2c0,0,0,0,0.1,0.1c0.1,0.1,0.1,0.1,0.3,0.1h5.6c0.2,0,0.2-0.1,0.3-0.1c0,0,0,0,0.1-0.1
				c0,0,0.1-0.1,0.1-0.2v-18.4c0-0.4-0.2-0.7-0.5-1c-0.4-0.3-0.7-0.5-1.2-0.5c-0.3,0-0.6-0.3-0.6-0.6c0-0.3,0.3-0.6,0.6-0.6h9.3
				c0.2,0,0.3-0.1,0.3-0.1c0.1-0.1,0.1-0.1,0.1-0.3v-4.5c0-0.1,0-0.2-0.1-0.3c-0.1-0.1-0.2-0.1-0.3-0.1H340.5z"/>
		</g>
		<g>
			<path class="st1" d="M380-291.3h-6.4c-0.7,0-1.2-0.2-1.5-0.5c-0.3-0.3-0.6-0.7-0.7-1.1l-8.1-25.7l-0.1-0.4c0,0,0-0.1,0-0.1
				c0-0.4,0.1-0.7,0.4-1c0.3-0.3,0.7-0.4,1.1-0.4h5.2c0.6,0,1,0.2,1.4,0.5c0.3,0.3,0.5,0.7,0.7,1l4.9,16.2l4.9-16.2
				c0.2-0.5,0.4-0.9,0.8-1.1c0.4-0.2,0.8-0.4,1.3-0.4h5.2c0.4,0,0.7,0.1,1,0.4c0.3,0.3,0.5,0.6,0.5,1c0,0.3,0,0.4-0.1,0.6l-8.1,25.6
				c-0.1,0.4-0.3,0.7-0.7,1.1C381.2-291.5,380.7-291.3,380-291.3z M364.4-319.1l0.1,0.3l8.1,25.6c0.1,0.2,0.2,0.4,0.4,0.6
				c0.1,0.1,0.4,0.2,0.7,0.2h6.4c0.3,0,0.6-0.1,0.7-0.2c0.2-0.2,0.3-0.4,0.3-0.6l8.1-25.7c0,0,0,0,0,0c0,0,0-0.1,0-0.2
				c0,0,0-0.1-0.1-0.1c-0.1-0.1-0.1-0.1-0.2-0.1h-5.2c-0.2,0-0.4,0.1-0.6,0.2c-0.1,0.1-0.3,0.2-0.3,0.5l-5.3,17.4
				c0,0.4-0.3,0.6-0.8,0.6c-0.5,0-0.7-0.3-0.8-0.6l-5.3-17.4c0-0.1-0.2-0.3-0.3-0.5c-0.1-0.1-0.3-0.1-0.6-0.1h-5.2
				C364.5-319.3,364.5-319.3,364.4-319.1C364.4-319.2,364.4-319.2,364.4-319.1z M389.3-318.9L389.3-318.9L389.3-318.9z M389.3-319
				C389.3-319,389.3-319,389.3-319C389.3-319,389.3-319,389.3-319z"/>
		</g>
		<g>
			<path class="st1" d="M406.5-291.3h-12.7c-0.4,0-0.8-0.2-1.1-0.5c-0.3-0.3-0.5-0.7-0.5-1.1v-23.5c0-0.7,0.1-1.3,0.4-1.8
				c0.3-0.5,0.6-0.9,1-1.3c0.4-0.3,0.9-0.6,1.3-0.8c0.5-0.2,0.9-0.2,1.3-0.2h9.9c1.4,0,2.7,0.1,4,0.4c1.3,0.3,2.4,0.7,3.4,1.4
				c1,0.7,1.8,1.6,2.4,2.7c0.6,1.1,0.9,2.5,0.9,4.1c0,1.3-0.3,2.4-1,3.4c-0.4,0.7-1,1.4-1.7,1.9c0.9,0.5,1.6,1.3,2.2,2.2
				c0.7,1.3,1.1,2.6,1.1,3.9c0,1.6-0.3,3.1-0.9,4.2c-0.6,1.2-1.4,2.1-2.4,2.8c-1,0.7-2.2,1.3-3.5,1.6
				C409.4-291.4,408-291.3,406.5-291.3z M396.3-319.3c-0.3,0-0.6,0.1-1,0.2c-0.3,0.1-0.7,0.3-0.9,0.5c-0.3,0.2-0.5,0.6-0.7,0.9
				c-0.2,0.3-0.3,0.8-0.3,1.3v23.5c0,0.1,0,0.2,0.1,0.3c0.1,0.1,0.2,0.1,0.3,0.1h12.7c1.3,0,2.6-0.1,3.8-0.4
				c1.2-0.3,2.2-0.8,3.1-1.4c0.9-0.6,1.5-1.4,2.1-2.4c0.5-1,0.8-2.2,0.8-3.7c0-1.1-0.3-2.3-0.9-3.3c-0.6-1.1-1.5-1.8-2.5-2.2
				c-0.2-0.1-0.4-0.3-0.4-0.5c0-0.2,0.1-0.4,0.3-0.6c0.9-0.5,1.7-1.2,2.2-2c0.5-0.8,0.8-1.8,0.8-2.8c0-1.4-0.2-2.6-0.7-3.6
				c-0.5-0.9-1.2-1.7-2-2.3c-0.8-0.6-1.8-1-3-1.2c-1.2-0.2-2.4-0.4-3.7-0.4H396.3z M405.7-296.7h-4.2c-0.7,0-1.2-0.3-1.4-0.6
				c-0.3-0.4-0.4-0.8-0.4-1.2v-2.9c0-0.4-0.2-0.7-0.5-1.1c-0.3-0.3-0.7-0.5-1.1-0.5c-0.3,0-0.6-0.3-0.6-0.6c0-0.3,0.3-0.6,0.6-0.6
				h7.6c1.1,0,2,0.3,2.7,1c0.7,0.7,1.1,1.6,1.1,2.7c0,1.2-0.4,2.1-1.1,2.7C407.8-297,406.8-296.7,405.7-296.7z M400.4-303
				c0.3,0.5,0.5,1,0.5,1.5v2.9c0,0.1,0.1,0.3,0.2,0.4c0,0,0.1,0.2,0.4,0.2h4.2c0.8,0,1.5-0.2,2-0.7c0.5-0.4,0.7-1,0.7-1.8
				c0-0.8-0.2-1.4-0.7-1.9c-0.5-0.5-1.1-0.7-1.9-0.7H400.4z M405.4-308.2h-3.8c-0.6,0-1-0.2-1.4-0.6c-0.3-0.4-0.5-0.8-0.5-1.1v-2.4
				c0-0.4-0.2-0.7-0.5-1.1c-0.3-0.3-0.7-0.5-1.1-0.5c-0.3,0-0.6-0.3-0.6-0.6c0-0.3,0.3-0.6,0.6-0.6h7.2c1,0,1.9,0.3,2.6,0.8
				c0.7,0.6,1.1,1.5,1.1,2.6c0,1.1-0.4,2-1,2.6C407.3-308.5,406.4-308.2,405.4-308.2z M400.4-313.9c0.3,0.5,0.5,1,0.5,1.5v2.4
				c0,0.1,0.1,0.2,0.2,0.4c0.1,0.1,0.2,0.2,0.4,0.2h3.8c0.8,0,1.4-0.2,1.8-0.6c0.4-0.4,0.6-0.9,0.6-1.7c0-0.8-0.2-1.3-0.6-1.6
				c-0.5-0.4-1.1-0.6-1.8-0.6H400.4z"/>
		</g>
		<g>
			<path class="st1" d="M440.1-291.2h-19.2c-0.4,0-0.8-0.2-1.1-0.5c-0.3-0.3-0.5-0.7-0.5-1.1v-23.5c0-1.2,0.4-2.2,1.2-2.9
				c0.8-0.8,1.8-1.1,2.9-1.1h16.4c0.5,0,0.9,0.2,1.2,0.5c0.3,0.3,0.5,0.7,0.5,1.2v4c0,0.6-0.3,0.9-0.5,1.1c-0.3,0.3-0.7,0.4-1.2,0.4
				h-12.6c0.3,0.5,0.5,1,0.5,1.6v1.7c0,0.2,0.1,0.3,0.2,0.5c0,0,0.1,0.2,0.4,0.2h8.8c0.5,0,0.9,0.2,1.2,0.5c0.3,0.3,0.5,0.7,0.5,1.2
				v3.6c0,0.5-0.2,0.9-0.5,1.2s-0.7,0.5-1.2,0.5h-9.9c0.3,0.5,0.5,1,0.5,1.5v1.9c0,0.2,0.1,0.3,0.2,0.5c0.1,0.1,0.2,0.2,0.4,0.2
				h11.7c1,0,1.6,0.6,1.6,1.6v3.9c0,0.6-0.3,1-0.5,1.2C440.9-291.4,440.5-291.2,440.1-291.2z M423.4-319.3c-0.8,0-1.5,0.3-2,0.8
				c-0.6,0.5-0.9,1.2-0.9,2.1v23.5c0,0.1,0,0.2,0.1,0.3c0.1,0.1,0.2,0.1,0.3,0.1h19.2c0.2,0,0.3-0.1,0.4-0.1c0,0,0.1-0.1,0.1-0.3
				v-3.9c0-0.4-0.1-0.4-0.4-0.4h-11.7c-0.6,0-1-0.2-1.4-0.6c-0.3-0.4-0.5-0.8-0.5-1.2v-1.9c0-0.4-0.2-0.7-0.5-1
				c-0.3-0.3-0.7-0.5-1.1-0.5c-0.3,0-0.6-0.3-0.6-0.6s0.3-0.6,0.6-0.6h12.2c0.1,0,0.2,0,0.3-0.1c0.1-0.1,0.1-0.2,0.1-0.3v-3.6
				c0-0.1,0-0.2-0.1-0.3c-0.1-0.1-0.2-0.1-0.3-0.1h-8.8c-0.7,0-1.2-0.3-1.4-0.6c-0.3-0.4-0.4-0.8-0.4-1.2v-1.7
				c0-0.4-0.2-0.7-0.5-1.1c-0.3-0.3-0.7-0.5-1.1-0.5c-0.3,0-0.6-0.3-0.6-0.6s0.3-0.6,0.6-0.6h14.8c0.2,0,0.3-0.1,0.3-0.1
				c0.1,0,0.1-0.1,0.1-0.3v-4c0-0.1,0-0.2-0.1-0.3c-0.1-0.1-0.2-0.1-0.3-0.1H423.4z"/>
		</g>
		<g>
			<path class="st1" d="M458.6-291.3h-5.6c-0.4,0-0.8-0.1-1.1-0.4c-0.3-0.3-0.5-0.7-0.5-1.1v-19.3c0-0.3-0.1-0.4-0.2-0.4
				c-0.1-0.1-0.3-0.2-0.4-0.2H445c-0.4,0-0.8-0.1-1.1-0.4c-0.3-0.3-0.5-0.7-0.5-1.2v-2.1c0-0.6,0.1-1.2,0.4-1.7
				c0.2-0.5,0.5-0.9,0.9-1.3c0.4-0.4,0.8-0.6,1.3-0.8c0.5-0.2,1-0.3,1.5-0.3h15.9c0.5,0,0.9,0.2,1.2,0.5c0.3,0.3,0.5,0.7,0.5,1.1
				v4.5c0,0.5-0.2,0.9-0.5,1.2c-0.3,0.3-0.7,0.4-1.2,0.4h-3.5c0.4,0.5,0.5,1,0.5,1.5v18.4c0,0.5-0.2,0.9-0.5,1.1
				C459.5-291.5,459.1-291.3,458.6-291.3z M447.4-319.3c-0.4,0-0.7,0.1-1.1,0.2c-0.3,0.1-0.7,0.3-0.9,0.6c-0.3,0.3-0.5,0.6-0.7,0.9
				c-0.2,0.3-0.2,0.7-0.2,1.2v2.1c0,0.1,0,0.2,0.1,0.3c0.1,0.1,0.2,0.1,0.3,0.1h5.8c0.5,0,0.9,0.2,1.2,0.5c0.4,0.3,0.6,0.8,0.6,1.3
				v19.3c0,0.1,0,0.2,0.1,0.2c0,0,0,0,0.1,0.1c0.1,0.1,0.1,0.1,0.3,0.1h5.6c0.2,0,0.2-0.1,0.3-0.1c0,0,0,0,0.1-0.1
				c0,0,0.1-0.1,0.1-0.2v-18.4c0-0.4-0.2-0.7-0.5-1c-0.4-0.3-0.7-0.5-1.2-0.5c-0.3,0-0.6-0.3-0.6-0.6c0-0.3,0.3-0.6,0.6-0.6h5.9
				c0.2,0,0.3-0.1,0.3-0.1c0.1-0.1,0.1-0.1,0.1-0.3v-4.5c0-0.1,0-0.2-0.1-0.3c-0.1-0.1-0.2-0.1-0.3-0.1H447.4z"/>
		</g>
	</g>
	<g>
		<g>
			<path class="st1" d="M320.9-291.4h-16.2c-0.7,0-1.3-0.4-1.7-1l-19.4-39.7c-0.3-0.6-0.2-1.2,0.1-1.8c0.3-0.5,0.9-0.9,1.6-0.9H302
				c0.7,0,1.4,0.4,1.7,1.1l18.8,39.7c0.3,0.6,0.2,1.2-0.1,1.8C322.1-291.7,321.5-291.4,320.9-291.4z M285.2-333.6
				c-0.2,0-0.4,0.1-0.6,0.3c-0.1,0.2-0.1,0.4,0,0.6L304-293c0.1,0.2,0.3,0.4,0.6,0.4h16.2c0.2,0,0.4-0.1,0.5-0.3
				c0.1-0.2,0.1-0.4,0-0.6l-18.8-39.7c-0.1-0.2-0.3-0.4-0.6-0.4H285.2z"/>
		</g>
		<g>
			<path class="st1" d="M325.7-336.6c-0.2,0-0.5,0-0.7-0.2c0,0,0,0,0,0l-0.9-0.4c-0.5-0.2-0.8-0.6-1-1c-0.2-0.5-0.2-1,0-1.4
				l4.7-10.6c0.4-0.9,1.5-1.4,2.4-0.9l0.9,0.4c0.9,0.4,1.4,1.5,0.9,2.4l-4.7,10.6C327.1-337,326.4-336.6,325.7-336.6z M325.5-337.9
				c0.3,0.1,0.7,0,0.9-0.3l4.7-10.6c0.1-0.3,0-0.7-0.3-0.8l-0.9-0.4c-0.3-0.1-0.7,0-0.9,0.3l-4.7,10.6c-0.1,0.2-0.1,0.3,0,0.5
				c0.1,0.2,0.2,0.3,0.3,0.4L325.5-337.9z"/>
		</g>
		<g>
			<path class="st1" d="M329.2-327c-0.3,0-0.5-0.1-0.8-0.2l-0.9-0.4c-0.9-0.4-1.4-1.5-0.9-2.4l6.1-13.8c0.2-0.5,0.6-0.8,1-1
				c0.5-0.2,1-0.2,1.4,0l0.9,0.4c0.9,0.4,1.4,1.5,0.9,2.4l-6.1,13.8c-0.2,0.5-0.6,0.8-1,1C329.6-327.1,329.4-327,329.2-327z
				 M334.3-343.8c-0.1,0-0.2,0-0.2,0c-0.2,0.1-0.3,0.2-0.4,0.3l-6.1,13.8c-0.1,0.3,0,0.7,0.3,0.9l0.9,0.4l0,0c0.2,0.1,0.3,0.1,0.5,0
				c0.2-0.1,0.3-0.2,0.4-0.4l6.1-13.8c0.1-0.3,0-0.7-0.3-0.9l-0.9-0.4C334.5-343.8,334.4-343.8,334.3-343.8z"/>
		</g>
		<g>
			<path class="st1" d="M337.8-346.7c-0.3,0-0.5-0.1-0.7-0.2l-0.9-0.4c-0.5-0.2-0.8-0.6-1-1c-0.2-0.5-0.2-1,0-1.4l0.4-0.9
				c0.4-0.9,1.5-1.4,2.4-0.9l0.9,0.4c0.9,0.4,1.4,1.5,0.9,2.4l-0.4,0.9c-0.2,0.5-0.6,0.8-1,1C338.3-346.7,338.1-346.7,337.8-346.7z
				 M337.3-350.5c-0.3,0-0.5,0.1-0.6,0.4l-0.4,0.9c-0.1,0.2-0.1,0.3,0,0.5c0.1,0.2,0.2,0.3,0.3,0.4l0.9,0.4c0,0,0,0,0,0
				c0.2,0.1,0.3,0.1,0.5,0c0.2-0.1,0.3-0.2,0.4-0.3l0.4-0.9c0.1-0.3,0-0.7-0.3-0.9l-0.9-0.4C337.5-350.5,337.4-350.5,337.3-350.5z"
				/>
		</g>
		<g>
			<path class="st1" d="M321-291.4h-16.3c-0.7,0-1.4-0.4-1.7-1.1c-0.1-0.3,0-0.7,0.3-0.8c0.3-0.1,0.7,0,0.8,0.3
				c0.1,0.2,0.3,0.4,0.6,0.4H321c0.3,0,0.5-0.2,0.6-0.4l11.9-26.5c0-0.1,0-0.2,0-0.2c0,0-0.1-0.1-0.1-0.1l-1.3-0.6
				c-0.5-0.2-0.8-0.6-1-1c-0.2-0.5-0.2-1,0-1.4l1.2-2.6c0.1-0.3,0-0.7-0.3-0.9l-1.1-0.5c-0.2-0.1-0.5,0-0.6,0.3l-4.8,11
				c-0.2,0.5-0.6,0.8-1,1c-0.5,0.2-1,0.2-1.4,0L322-315c-0.9-0.4-1.4-1.5-0.9-2.4l7.2-16.5c0.1-0.3,0-0.7-0.3-0.9l-0.9-0.4
				c-0.3-0.1-0.7,0-0.9,0.3l-5.5,12.5c-0.4,0.9-1.5,1.4-2.4,0.9l-0.9-0.4c-0.3-0.1-0.7,0-0.9,0.3l-3.4,7.8c-0.1,0.3-0.5,0.4-0.8,0.3
				c-0.3-0.1-0.4-0.5-0.3-0.8l3.4-7.8c0.4-0.9,1.5-1.4,2.4-0.9l0.9,0.4c0.3,0.1,0.7,0,0.9-0.3l5.5-12.5c0.4-0.9,1.5-1.4,2.4-0.9
				l0.9,0.4c0.9,0.4,1.4,1.5,0.9,2.4l-7.2,16.5c-0.1,0.3,0,0.7,0.3,0.9l0.9,0.4c0.2,0.1,0.3,0.1,0.5,0c0.2-0.1,0.3-0.2,0.4-0.3
				l4.8-11c0.4-0.8,1.4-1.2,2.2-0.9l1.1,0.5c0.9,0.4,1.4,1.5,0.9,2.4l-1.2,2.6c-0.1,0.2-0.1,0.3,0,0.5c0.1,0.2,0.2,0.3,0.3,0.4
				l1.3,0.6c0.4,0.2,0.6,0.4,0.8,0.8c0.1,0.4,0.1,0.8,0,1.1l-11.9,26.5C322.3-291.8,321.7-291.4,321-291.4z"/>
		</g>
		<g>
			<path class="st1" d="M335.8-324.5c-0.3,0-0.5-0.1-0.7-0.2l-0.9-0.4c-0.5-0.2-0.8-0.6-1-1c-0.2-0.5-0.2-1,0-1.4l1.4-3.1
				c0.2-0.5,0.6-0.8,1-1c0.5-0.2,1-0.2,1.4,0l0.9,0.4c0.5,0.2,0.8,0.6,1,1c0.2,0.5,0.2,1,0,1.4l-1.4,3.1c-0.2,0.5-0.6,0.8-1,1
				C336.2-324.6,336-324.5,335.8-324.5z M336.2-330.5c-0.1,0-0.2,0-0.2,0c-0.2,0.1-0.3,0.2-0.4,0.3l-1.4,3.1c-0.1,0.2-0.1,0.3,0,0.5
				c0.1,0.2,0.2,0.3,0.3,0.4l0.9,0.4c0,0,0,0,0,0c0.2,0.1,0.3,0.1,0.5,0c0.2-0.1,0.3-0.2,0.4-0.3l1.4-3.1c0.1-0.2,0.1-0.3,0-0.5
				c-0.1-0.2-0.2-0.3-0.3-0.4l-0.9-0.4C336.4-330.5,336.3-330.5,336.2-330.5z"/>
		</g>
		<g>
			<path class="st1" d="M320.4-324.6c-0.3,0-0.5-0.1-0.7-0.2l-0.9-0.4c-0.9-0.4-1.4-1.5-0.9-2.4l1.4-3.1c0.4-0.9,1.5-1.4,2.4-0.9
				l0.9,0.4c0.9,0.4,1.4,1.5,0.9,2.4l-1.4,3.1c-0.2,0.5-0.6,0.8-1,1C320.9-324.7,320.7-324.6,320.4-324.6z M320.9-330.6
				c-0.3,0-0.5,0.1-0.6,0.4l-1.4,3.1c-0.1,0.3,0,0.7,0.3,0.9l0.9,0.4c0.2,0.1,0.3,0.1,0.5,0c0.2-0.1,0.3-0.2,0.4-0.3l1.4-3.1
				c0.1-0.3,0-0.7-0.3-0.9l-0.9-0.4C321-330.6,320.9-330.6,320.9-330.6z"/>
		</g>
		<g>
			<path class="st1" d="M339.5-333c-0.3,0-0.5-0.1-0.7-0.2l-0.9-0.4c-0.9-0.4-1.4-1.5-0.9-2.4l2.8-6.3c0.4-0.9,1.5-1.4,2.4-0.9
				l0.9,0.4c0.9,0.4,1.4,1.5,0.9,2.4l-2.8,6.3c-0.2,0.5-0.6,0.8-1,1C340-333,339.7-333,339.5-333z M341.3-342.2
				c-0.2,0-0.5,0.1-0.6,0.4l-2.8,6.3c-0.1,0.3,0,0.7,0.3,0.9l0.9,0.4l0,0c0.2,0.1,0.3,0.1,0.5,0c0.2-0.1,0.3-0.2,0.4-0.3l2.8-6.3
				c0.1-0.3,0-0.7-0.3-0.9l-0.9-0.4C341.5-342.2,341.4-342.2,341.3-342.2z"/>
		</g>
	</g>
	<g>
		<path class="st1" d="M472.6-312.8h-4.3c-1,0-1.8-0.8-1.8-1.8v-4.3c0-1,0.8-1.8,1.8-1.8h4.3c1,0,1.8,0.8,1.8,1.8v4.3
			C474.3-313.5,473.6-312.8,472.6-312.8z M468.3-319.4c-0.3,0-0.6,0.3-0.6,0.6v4.3c0,0.3,0.3,0.6,0.6,0.6h4.3c0.3,0,0.6-0.3,0.6-0.6
			v-4.3c0-0.3-0.3-0.6-0.6-0.6H468.3z"/>
	</g>
</g>
<g>
	<g>
		<path class="st3" d="M94.2,39.8c0.3,0,0.5,0.1,0.7,0.3c0.2,0.2,0.3,0.4,0.3,0.7v4.5c0,0.3-0.1,0.5-0.3,0.7
			c-0.2,0.2-0.4,0.3-0.7,0.3h-9.3c0.6,0,1.1,0.2,1.6,0.6c0.5,0.4,0.7,0.9,0.7,1.4v18.4c0,0.3-0.1,0.5-0.3,0.7
			c-0.2,0.2-0.4,0.3-0.7,0.3h-5.6c-0.3,0-0.5-0.1-0.7-0.3c-0.2-0.2-0.3-0.4-0.3-0.7V47.5c0-0.4-0.1-0.7-0.4-0.9
			c-0.2-0.2-0.5-0.3-0.8-0.3h-5.8c-0.3,0-0.5-0.1-0.7-0.3c-0.2-0.2-0.3-0.4-0.3-0.7v-2.1c0-0.5,0.1-1,0.3-1.4
			c0.2-0.4,0.5-0.8,0.8-1.1c0.3-0.3,0.7-0.5,1.1-0.7c0.4-0.2,0.8-0.2,1.3-0.2H94.2z"/>
		<path class="st3" d="M123.5,39.8c0.2,0,0.4,0.1,0.6,0.2c0.2,0.2,0.3,0.3,0.3,0.6c0,0.2,0,0.3,0,0.4l-8.1,25.7
			c-0.1,0.3-0.3,0.6-0.5,0.8c-0.2,0.2-0.6,0.3-1.1,0.3h-6.4c-0.5,0-0.9-0.1-1.1-0.3c-0.3-0.2-0.5-0.5-0.6-0.8L98.3,41l-0.1-0.4
			c0-0.2,0.1-0.4,0.2-0.6c0.2-0.2,0.4-0.2,0.6-0.2h5.2c0.4,0,0.8,0.1,1,0.3c0.2,0.2,0.4,0.5,0.5,0.7l5.3,17.4c0,0.1,0.1,0.2,0.2,0.2
			c0.1,0,0.2-0.1,0.2-0.2l5.3-17.4c0.1-0.3,0.3-0.6,0.6-0.8c0.3-0.2,0.6-0.3,0.9-0.3H123.5z"/>
		<path class="st3" d="M127.3,66.8V43.3c0-0.6,0.1-1.1,0.3-1.6c0.2-0.4,0.5-0.8,0.9-1.1c0.3-0.3,0.7-0.5,1.1-0.6
			c0.4-0.1,0.8-0.2,1.1-0.2h9.9c1.4,0,2.7,0.1,3.9,0.4c1.2,0.3,2.3,0.7,3.2,1.3c0.9,0.6,1.6,1.4,2.2,2.5c0.5,1,0.8,2.3,0.8,3.8
			c0,1.2-0.3,2.2-0.9,3.1c-0.6,0.9-1.4,1.7-2.4,2.3c1.2,0.5,2.2,1.3,2.8,2.5s1,2.4,1,3.6c0,1.6-0.3,2.9-0.8,3.9
			c-0.5,1.1-1.3,2-2.2,2.6c-0.9,0.7-2,1.2-3.3,1.5c-1.2,0.3-2.6,0.5-4,0.5h-12.7c-0.3,0-0.5-0.1-0.7-0.3
			C127.4,67.3,127.3,67.1,127.3,66.8z M139.9,50.9c0.9,0,1.6-0.2,2.2-0.7c0.6-0.5,0.8-1.2,0.8-2.2c0-0.9-0.3-1.6-0.9-2.1
			c-0.6-0.5-1.3-0.7-2.2-0.7h-7.2c0.6,0,1.1,0.2,1.6,0.7c0.4,0.4,0.6,0.9,0.6,1.5v2.4c0,0.2,0.1,0.5,0.3,0.8
			c0.2,0.3,0.5,0.4,0.9,0.4H139.9z M140.2,62.4c1,0,1.7-0.3,2.4-0.8c0.6-0.5,0.9-1.3,0.9-2.3c0-1-0.3-1.7-0.9-2.3
			c-0.6-0.6-1.4-0.9-2.3-0.9h-7.6c0.6,0,1.1,0.2,1.6,0.7c0.4,0.4,0.6,0.9,0.6,1.5v2.9c0,0.3,0.1,0.5,0.3,0.8
			c0.2,0.3,0.5,0.4,0.9,0.4H140.2z"/>
		<path class="st3" d="M154.4,66.9V43.3c0-1,0.3-1.9,1-2.5c0.7-0.7,1.5-1,2.5-1h16.4c0.3,0,0.5,0.1,0.7,0.3c0.2,0.2,0.3,0.4,0.3,0.7
			v4c0,0.3-0.1,0.5-0.3,0.7c-0.2,0.2-0.4,0.3-0.8,0.3h-14.8c0.6,0,1.2,0.2,1.6,0.7c0.4,0.5,0.6,1,0.6,1.5v1.7c0,0.3,0.1,0.6,0.3,0.8
			c0.2,0.3,0.5,0.4,0.9,0.4h8.8c0.3,0,0.5,0.1,0.7,0.3c0.2,0.2,0.3,0.4,0.3,0.7v3.6c0,0.3-0.1,0.5-0.3,0.7c-0.2,0.2-0.4,0.3-0.7,0.3
			h-12.2c0.6,0,1.1,0.2,1.6,0.6c0.4,0.4,0.6,0.9,0.6,1.4v1.9c0,0.3,0.1,0.6,0.3,0.8c0.2,0.3,0.5,0.4,0.9,0.4h11.7c0.7,0,1,0.3,1,1
			v3.9c0,0.3-0.1,0.6-0.3,0.7c-0.2,0.2-0.4,0.3-0.7,0.3h-19.2c-0.3,0-0.5-0.1-0.7-0.3C154.5,67.4,154.4,67.1,154.4,66.9z"/>
		<path class="st3" d="M197.8,39.8c0.3,0,0.5,0.1,0.7,0.3s0.3,0.4,0.3,0.7v4.5c0,0.3-0.1,0.5-0.3,0.7c-0.2,0.2-0.4,0.3-0.7,0.3h-5.9
			c0.6,0,1.1,0.2,1.6,0.6c0.5,0.4,0.7,0.9,0.7,1.4v18.4c0,0.3-0.1,0.5-0.3,0.7c-0.2,0.2-0.4,0.3-0.7,0.3h-5.6
			c-0.3,0-0.5-0.1-0.7-0.3c-0.2-0.2-0.3-0.4-0.3-0.7V47.5c0-0.4-0.1-0.7-0.4-0.9c-0.2-0.2-0.5-0.3-0.8-0.3h-5.8
			c-0.3,0-0.5-0.1-0.7-0.3c-0.2-0.2-0.3-0.4-0.3-0.7v-2.1c0-0.5,0.1-1,0.3-1.4c0.2-0.4,0.5-0.8,0.8-1.1c0.3-0.3,0.7-0.5,1.1-0.7
			c0.4-0.2,0.8-0.2,1.3-0.2H197.8z"/>
	</g>
	<g>
		<path class="st3" d="M55.3,67.7H39.1c-0.5,0-0.9-0.3-1.1-0.7L18.6,27.3c-0.4-0.8,0.2-1.8,1.1-1.8h16.8c0.5,0,0.9,0.3,1.1,0.7
			l18.8,39.7C56.9,66.7,56.3,67.7,55.3,67.7z"/>
		<path class="st3" d="M59.7,22.4l-0.9-0.4c-0.6-0.3-0.9-1-0.6-1.6l4.7-10.6c0.3-0.6,1-0.9,1.6-0.6l0.9,0.4c0.6,0.3,0.9,1,0.6,1.6
			l-4.7,10.6C61.1,22.3,60.3,22.6,59.7,22.4z"/>
		<path class="st3" d="M63.2,31.9l-0.9-0.4c-0.6-0.3-0.9-1-0.6-1.6l6.1-13.8c0.3-0.6,1-0.9,1.6-0.6l0.9,0.4c0.6,0.3,0.9,1,0.6,1.6
			l-6.1,13.8C64.6,31.9,63.8,32.2,63.2,31.9z"/>
		<path class="st3" d="M71.8,12.3l-0.9-0.4c-0.6-0.3-0.9-1-0.6-1.6l0.4-0.9c0.3-0.6,1-0.9,1.6-0.6l0.9,0.4c0.6,0.3,0.9,1,0.6,1.6
			l-0.4,0.9C73.2,12.3,72.5,12.6,71.8,12.3z"/>
		<path class="st3" d="M66.1,37.1l1.2-2.6c0.3-0.6,0-1.4-0.6-1.6l-1.1-0.5c-0.5-0.2-1.2,0-1.4,0.6l-1.7,3.9l-3.1,7.1
			c-0.3,0.6-1,0.9-1.6,0.6l-0.9-0.4c-0.6-0.3-0.9-1-0.6-1.6l3.1-7.1l4.1-9.4c0.3-0.6,0-1.4-0.6-1.6L61.7,24c-0.6-0.3-1.4,0-1.6,0.6
			L55.9,34l-1.4,3.1c-0.3,0.6-1,0.9-1.6,0.6L52,37.4c-0.6-0.3-1.4,0-1.6,0.6L38,66c-0.4,0.8,0.2,1.7,1.1,1.7h16.3
			c0.5,0,0.9-0.3,1.1-0.7l11.9-26.5c0.2-0.4,0-1-0.4-1.1l-1.3-0.6C66.1,38.5,65.8,37.8,66.1,37.1z"/>
		<path class="st3" d="M69.8,34.5l-0.9-0.4c-0.6-0.3-0.9-1-0.6-1.6l1.4-3.1c0.3-0.6,1-0.9,1.6-0.6l0.9,0.4c0.6,0.3,0.9,1,0.6,1.6
			l-1.4,3.1C71.1,34.5,70.4,34.8,69.8,34.5z"/>
		<path class="st3" d="M54.4,34.4l-0.9-0.4c-0.6-0.3-0.9-1-0.6-1.6l1.4-3.1c0.3-0.6,1-0.9,1.6-0.6l0.9,0.4c0.6,0.3,0.9,1,0.6,1.6
			l-1.4,3.1C55.8,34.4,55.1,34.6,54.4,34.4z"/>
		<path class="st3" d="M73.5,26l-0.9-0.4c-0.6-0.3-0.9-1-0.6-1.6l2.8-6.3c0.3-0.6,1-0.9,1.6-0.6l0.9,0.4c0.6,0.3,0.9,1,0.6,1.6
			l-2.8,6.3C74.9,26,74.1,26.3,73.5,26z"/>
	</g>
	<path class="st3" d="M204.9,39.7h-2.1c-0.6,0-1.2,0.5-1.2,1.2V43v2.1c0,0.6,0.5,1.2,1.2,1.2h2.1h2.1c0.6,0,1.2-0.5,1.2-1.2V43v-2.1
		c0-0.6-0.5-1.2-1.2-1.2H204.9z"/>
</g>
<g>
	<g>
		<path class="st2" d="M94.2-63.7c0.3,0,0.5,0.1,0.7,0.3c0.2,0.2,0.3,0.4,0.3,0.7v4.5c0,0.3-0.1,0.5-0.3,0.7
			c-0.2,0.2-0.4,0.3-0.7,0.3h-9.3c0.6,0,1.1,0.2,1.6,0.6c0.5,0.4,0.7,0.9,0.7,1.4v18.4c0,0.3-0.1,0.5-0.3,0.7
			c-0.2,0.2-0.4,0.3-0.7,0.3h-5.6c-0.3,0-0.5-0.1-0.7-0.3c-0.2-0.2-0.3-0.4-0.3-0.7V-56c0-0.4-0.1-0.7-0.4-0.9
			c-0.2-0.2-0.5-0.3-0.8-0.3h-5.8c-0.3,0-0.5-0.1-0.7-0.3c-0.2-0.2-0.3-0.4-0.3-0.7v-2.1c0-0.5,0.1-1,0.3-1.4
			c0.2-0.4,0.5-0.8,0.8-1.1c0.3-0.3,0.7-0.5,1.1-0.7c0.4-0.2,0.8-0.2,1.3-0.2H94.2z"/>
		<path class="st2" d="M123.5-63.7c0.2,0,0.4,0.1,0.6,0.2c0.2,0.2,0.3,0.3,0.3,0.6c0,0.2,0,0.3,0,0.4l-8.1,25.7
			c-0.1,0.3-0.3,0.6-0.5,0.8c-0.2,0.2-0.6,0.3-1.1,0.3h-6.4c-0.5,0-0.9-0.1-1.1-0.3c-0.3-0.2-0.5-0.5-0.6-0.8l-8.1-25.7l-0.1-0.4
			c0-0.2,0.1-0.4,0.2-0.6c0.2-0.2,0.4-0.2,0.6-0.2h5.2c0.4,0,0.8,0.1,1,0.3c0.2,0.2,0.4,0.5,0.5,0.7l5.3,17.4c0,0.1,0.1,0.2,0.2,0.2
			c0.1,0,0.2-0.1,0.2-0.2l5.3-17.4c0.1-0.3,0.3-0.6,0.6-0.8c0.3-0.2,0.6-0.3,0.9-0.3H123.5z"/>
		<path class="st2" d="M127.3-36.7v-23.5c0-0.6,0.1-1.1,0.3-1.6c0.2-0.4,0.5-0.8,0.9-1.1c0.3-0.3,0.7-0.5,1.1-0.6
			c0.4-0.1,0.8-0.2,1.1-0.2h9.9c1.4,0,2.7,0.1,3.9,0.4c1.2,0.3,2.3,0.7,3.2,1.3c0.9,0.6,1.6,1.4,2.2,2.5c0.5,1,0.8,2.3,0.8,3.8
			c0,1.2-0.3,2.2-0.9,3.1c-0.6,0.9-1.4,1.7-2.4,2.3c1.2,0.5,2.2,1.3,2.8,2.5s1,2.4,1,3.6c0,1.6-0.3,2.9-0.8,3.9
			c-0.5,1.1-1.3,2-2.2,2.6c-0.9,0.7-2,1.2-3.3,1.5c-1.2,0.3-2.6,0.5-4,0.5h-12.7c-0.3,0-0.5-0.1-0.7-0.3
			C127.4-36.2,127.3-36.4,127.3-36.7z M139.9-52.6c0.9,0,1.6-0.2,2.2-0.7c0.6-0.5,0.8-1.2,0.8-2.2c0-0.9-0.3-1.6-0.9-2.1
			c-0.6-0.5-1.3-0.7-2.2-0.7h-7.2c0.6,0,1.1,0.2,1.6,0.7c0.4,0.4,0.6,0.9,0.6,1.5v2.4c0,0.2,0.1,0.5,0.3,0.8
			c0.2,0.3,0.5,0.4,0.9,0.4H139.9z M140.2-41.1c1,0,1.7-0.3,2.4-0.8c0.6-0.5,0.9-1.3,0.9-2.3c0-1-0.3-1.7-0.9-2.3
			c-0.6-0.6-1.4-0.9-2.3-0.9h-7.6c0.6,0,1.1,0.2,1.6,0.7c0.4,0.4,0.6,0.9,0.6,1.5v2.9c0,0.3,0.1,0.5,0.3,0.8
			c0.2,0.3,0.5,0.4,0.9,0.4H140.2z"/>
		<path class="st2" d="M154.4-36.6v-23.5c0-1,0.3-1.9,1-2.5c0.7-0.7,1.5-1,2.5-1h16.4c0.3,0,0.5,0.1,0.7,0.3
			c0.2,0.2,0.3,0.4,0.3,0.7v4c0,0.3-0.1,0.5-0.3,0.7c-0.2,0.2-0.4,0.3-0.8,0.3h-14.8c0.6,0,1.2,0.2,1.6,0.7c0.4,0.5,0.6,1,0.6,1.5
			v1.7c0,0.3,0.1,0.6,0.3,0.8c0.2,0.3,0.5,0.4,0.9,0.4h8.8c0.3,0,0.5,0.1,0.7,0.3c0.2,0.2,0.3,0.4,0.3,0.7v3.6
			c0,0.3-0.1,0.5-0.3,0.7c-0.2,0.2-0.4,0.3-0.7,0.3h-12.2c0.6,0,1.1,0.2,1.6,0.6c0.4,0.4,0.6,0.9,0.6,1.4v1.9c0,0.3,0.1,0.6,0.3,0.8
			c0.2,0.3,0.5,0.4,0.9,0.4h11.7c0.7,0,1,0.3,1,1v3.9c0,0.3-0.1,0.6-0.3,0.7c-0.2,0.2-0.4,0.3-0.7,0.3h-19.2c-0.3,0-0.5-0.1-0.7-0.3
			S154.4-36.4,154.4-36.6z"/>
		<path class="st2" d="M197.8-63.7c0.3,0,0.5,0.1,0.7,0.3s0.3,0.4,0.3,0.7v4.5c0,0.3-0.1,0.5-0.3,0.7c-0.2,0.2-0.4,0.3-0.7,0.3h-5.9
			c0.6,0,1.1,0.2,1.6,0.6c0.5,0.4,0.7,0.9,0.7,1.4v18.4c0,0.3-0.1,0.5-0.3,0.7c-0.2,0.2-0.4,0.3-0.7,0.3h-5.6
			c-0.3,0-0.5-0.1-0.7-0.3c-0.2-0.2-0.3-0.4-0.3-0.7V-56c0-0.4-0.1-0.7-0.4-0.9c-0.2-0.2-0.5-0.3-0.8-0.3h-5.8
			c-0.3,0-0.5-0.1-0.7-0.3c-0.2-0.2-0.3-0.4-0.3-0.7v-2.1c0-0.5,0.1-1,0.3-1.4c0.2-0.4,0.5-0.8,0.8-1.1c0.3-0.3,0.7-0.5,1.1-0.7
			c0.4-0.2,0.8-0.2,1.3-0.2H197.8z"/>
	</g>
	<g>
		
			<linearGradient id="SVGID_1_" gradientUnits="userSpaceOnUse" x1="959.8746" y1="-215.944" x2="975.9564" y2="-185.6361" gradientTransform="matrix(1 0 0 1 -936.1387 132.5112)">
			<stop  offset="0" style="stop-color:#FFD000"/>
			<stop  offset="1" style="stop-color:#F6A100"/>
		</linearGradient>
		<path class="st4" d="M55.3-35.8H39.1c-0.5,0-0.9-0.3-1.1-0.7L18.6-76.2c-0.4-0.8,0.2-1.8,1.1-1.8h16.8c0.5,0,0.9,0.3,1.1,0.7
			l18.8,39.7C56.9-36.8,56.3-35.8,55.3-35.8z"/>
		
			<linearGradient id="SVGID_2_" gradientUnits="userSpaceOnUse" x1="975.1862" y1="-172.6131" x2="984.0411" y2="-190.9553" gradientTransform="matrix(1 0 0 1 -936.1387 132.5112)">
			<stop  offset="0" style="stop-color:#FFD000"/>
			<stop  offset="1" style="stop-color:#F6A100"/>
		</linearGradient>
		<path class="st5" d="M59.7-81.1l-0.9-0.4c-0.6-0.3-0.9-1-0.6-1.6l4.7-10.6c0.3-0.6,1-0.9,1.6-0.6l0.9,0.4c0.6,0.3,0.9,1,0.6,1.6
			l-4.7,10.6C61.1-81.2,60.3-80.9,59.7-81.1z"/>
		
			<linearGradient id="SVGID_3_" gradientUnits="userSpaceOnUse" x1="981.6643" y1="-169.3856" x2="990.5298" y2="-187.75" gradientTransform="matrix(1 0 0 1 -936.1387 132.5112)">
			<stop  offset="0" style="stop-color:#FFD000"/>
			<stop  offset="1" style="stop-color:#F6A100"/>
		</linearGradient>
		<path class="st6" d="M63.2-71.6L62.2-72c-0.6-0.3-0.9-1-0.6-1.6l6.1-13.8c0.3-0.6,1-0.9,1.6-0.6l0.9,0.4c0.6,0.3,0.9,1,0.6,1.6
			l-6.1,13.8C64.6-71.6,63.8-71.3,63.2-71.6z"/>
		
			<linearGradient id="SVGID_4_" gradientUnits="userSpaceOnUse" x1="981.7473" y1="-170.7296" x2="990.4448" y2="-188.7458" gradientTransform="matrix(1 0 0 1 -936.1387 132.5112)">
			<stop  offset="0" style="stop-color:#FFD000"/>
			<stop  offset="1" style="stop-color:#F6A100"/>
		</linearGradient>
		<path class="st7" d="M71.8-91.2l-0.9-0.4c-0.6-0.3-0.9-1-0.6-1.6l0.4-0.9c0.3-0.6,1-0.9,1.6-0.6l0.9,0.4c0.6,0.3,0.9,1,0.6,1.6
			l-0.4,0.9C73.2-91.2,72.5-90.9,71.8-91.2z"/>
		
			<linearGradient id="SVGID_5_" gradientUnits="userSpaceOnUse" x1="982.996" y1="-167.7439" x2="995.554" y2="-197.255" gradientTransform="matrix(1 0 0 1 -936.1387 132.5112)">
			<stop  offset="0" style="stop-color:#FFD000"/>
			<stop  offset="1" style="stop-color:#F6A100"/>
		</linearGradient>
		<path class="st8" d="M66.1-66.4l1.2-2.6c0.3-0.6,0-1.4-0.6-1.6l-1.1-0.5c-0.5-0.2-1.2,0-1.4,0.6l-1.7,3.9l-3.1,7.1
			c-0.3,0.6-1,0.9-1.6,0.6l-0.9-0.4c-0.6-0.3-0.9-1-0.6-1.6l3.1-7.1l4.1-9.4c0.3-0.6,0-1.4-0.6-1.6l-0.9-0.4c-0.6-0.3-1.4,0-1.6,0.6
			l-4.1,9.4l-1.4,3.1c-0.3,0.6-1,0.9-1.6,0.6L52-66.1c-0.6-0.3-1.4,0-1.6,0.6L38-37.5c-0.4,0.8,0.2,1.7,1.1,1.7h16.3
			c0.5,0,0.9-0.3,1.1-0.7L68.5-63c0.2-0.4,0-1-0.4-1.1l-1.3-0.6C66.1-65,65.8-65.7,66.1-66.4z"/>
		
			<linearGradient id="SVGID_6_" gradientUnits="userSpaceOnUse" x1="988.3453" y1="-166.5845" x2="997.1257" y2="-184.7724" gradientTransform="matrix(1 0 0 1 -936.1387 132.5112)">
			<stop  offset="0" style="stop-color:#FFD000"/>
			<stop  offset="1" style="stop-color:#F6A100"/>
		</linearGradient>
		<path class="st9" d="M69.8-69l-0.9-0.4c-0.6-0.3-0.9-1-0.6-1.6l1.4-3.1c0.3-0.6,1-0.9,1.6-0.6l0.9,0.4c0.6,0.3,0.9,1,0.6,1.6
			l-1.4,3.1C71.1-69,70.4-68.7,69.8-69z"/>
		
			<linearGradient id="SVGID_7_" gradientUnits="userSpaceOnUse" x1="975.82" y1="-172.5259" x2="984.6003" y2="-190.7138" gradientTransform="matrix(1 0 0 1 -936.1387 132.5112)">
			<stop  offset="0" style="stop-color:#FFD000"/>
			<stop  offset="1" style="stop-color:#F6A100"/>
		</linearGradient>
		<path class="st10" d="M54.4-69.1l-0.9-0.4c-0.6-0.3-0.9-1-0.6-1.6l1.4-3.1c0.3-0.6,1-0.9,1.6-0.6l0.9,0.4c0.6,0.3,0.9,1,0.6,1.6
			l-1.4,3.1C55.8-69.1,55.1-68.9,54.4-69.1z"/>
		
			<linearGradient id="SVGID_8_" gradientUnits="userSpaceOnUse" x1="987.9389" y1="-166.6389" x2="996.7669" y2="-184.9254" gradientTransform="matrix(1 0 0 1 -936.1387 132.5112)">
			<stop  offset="0" style="stop-color:#FFD000"/>
			<stop  offset="1" style="stop-color:#F6A100"/>
		</linearGradient>
		<path class="st11" d="M73.5-77.5l-0.9-0.4c-0.6-0.3-0.9-1-0.6-1.6l2.8-6.3c0.3-0.6,1-0.9,1.6-0.6l0.9,0.4c0.6,0.3,0.9,1,0.6,1.6
			l-2.8,6.3C74.9-77.5,74.1-77.2,73.5-77.5z"/>
	</g>
	<path class="st0" d="M204.9-63.8h-2.1c-0.6,0-1.2,0.5-1.2,1.2v2.1v2.1c0,0.6,0.5,1.2,1.2,1.2h2.1h2.1c0.6,0,1.2-0.5,1.2-1.2v-2.1
		v-2.1c0-0.6-0.5-1.2-1.2-1.2H204.9z"/>
</g>
<g>
	<g>
		<path class="st1" d="M77.8-511.3c0.3,0,0.5,0.1,0.7,0.3c0.2,0.2,0.3,0.4,0.3,0.7v4.5c0,0.3-0.1,0.5-0.3,0.7
			c-0.2,0.2-0.4,0.3-0.7,0.3h-9.3c0.6,0,1.1,0.2,1.6,0.6c0.5,0.4,0.7,0.9,0.7,1.4v18.4c0,0.3-0.1,0.5-0.3,0.7
			c-0.2,0.2-0.4,0.3-0.7,0.3h-5.6c-0.3,0-0.5-0.1-0.7-0.3c-0.2-0.2-0.3-0.4-0.3-0.7v-19.3c0-0.4-0.1-0.7-0.4-0.9
			c-0.2-0.2-0.5-0.3-0.8-0.3h-5.8c-0.3,0-0.5-0.1-0.7-0.3c-0.2-0.2-0.3-0.4-0.3-0.7v-2.1c0-0.5,0.1-1,0.3-1.4
			c0.2-0.4,0.5-0.8,0.8-1.1c0.3-0.3,0.7-0.5,1.1-0.7c0.4-0.2,0.8-0.2,1.3-0.2H77.8z"/>
		<path class="st1" d="M107.1-511.3c0.2,0,0.4,0.1,0.6,0.2c0.2,0.2,0.3,0.3,0.3,0.6c0,0.2,0,0.3,0,0.4l-8.1,25.7
			c-0.1,0.3-0.3,0.6-0.5,0.8c-0.2,0.2-0.6,0.3-1.1,0.3h-6.4c-0.5,0-0.9-0.1-1.1-0.3c-0.3-0.2-0.5-0.5-0.6-0.8l-8.1-25.7l-0.1-0.4
			c0-0.2,0.1-0.4,0.2-0.6c0.2-0.2,0.4-0.2,0.6-0.2H88c0.4,0,0.8,0.1,1,0.3c0.2,0.2,0.4,0.5,0.5,0.7l5.3,17.4c0,0.1,0.1,0.2,0.2,0.2
			c0.1,0,0.2-0.1,0.2-0.2l5.3-17.4c0.1-0.3,0.3-0.6,0.6-0.8c0.3-0.2,0.6-0.3,0.9-0.3H107.1z"/>
		<path class="st1" d="M110.9-484.3v-23.5c0-0.6,0.1-1.1,0.3-1.6c0.2-0.4,0.5-0.8,0.9-1.1c0.3-0.3,0.7-0.5,1.1-0.6
			c0.4-0.1,0.8-0.2,1.1-0.2h9.9c1.4,0,2.7,0.1,3.9,0.4c1.2,0.3,2.3,0.7,3.2,1.3c0.9,0.6,1.6,1.4,2.2,2.5c0.5,1,0.8,2.3,0.8,3.8
			c0,1.2-0.3,2.2-0.9,3.1c-0.6,0.9-1.4,1.7-2.4,2.3c1.2,0.5,2.2,1.3,2.8,2.5s1,2.4,1,3.6c0,1.6-0.3,2.9-0.8,3.9
			c-0.5,1.1-1.3,2-2.2,2.6c-0.9,0.7-2,1.2-3.3,1.5c-1.2,0.3-2.6,0.5-4,0.5h-12.7c-0.3,0-0.5-0.1-0.7-0.3
			C111-483.8,110.9-484.1,110.9-484.3z M123.5-500.2c0.9,0,1.6-0.2,2.2-0.7c0.6-0.5,0.8-1.2,0.8-2.2c0-0.9-0.3-1.6-0.9-2.1
			c-0.6-0.5-1.3-0.7-2.2-0.7h-7.2c0.6,0,1.1,0.2,1.6,0.7c0.4,0.4,0.6,0.9,0.6,1.5v2.4c0,0.2,0.1,0.5,0.3,0.8
			c0.2,0.3,0.5,0.4,0.9,0.4H123.5z M123.8-488.7c1,0,1.7-0.3,2.4-0.8c0.6-0.5,0.9-1.3,0.9-2.3c0-1-0.3-1.7-0.9-2.3
			c-0.6-0.6-1.4-0.9-2.3-0.9h-7.6c0.6,0,1.1,0.2,1.6,0.7c0.4,0.4,0.6,0.9,0.6,1.5v2.9c0,0.3,0.1,0.5,0.3,0.8
			c0.2,0.3,0.5,0.4,0.9,0.4H123.8z"/>
		<path class="st1" d="M138-484.3v-23.5c0-1,0.3-1.9,1-2.5c0.7-0.7,1.5-1,2.5-1h16.4c0.3,0,0.5,0.1,0.7,0.3c0.2,0.2,0.3,0.4,0.3,0.7
			v4c0,0.3-0.1,0.5-0.3,0.7c-0.2,0.2-0.4,0.3-0.8,0.3H143c0.6,0,1.2,0.2,1.6,0.7c0.4,0.5,0.6,1,0.6,1.5v1.7c0,0.3,0.1,0.6,0.3,0.8
			c0.2,0.3,0.5,0.4,0.9,0.4h8.8c0.3,0,0.5,0.1,0.7,0.3s0.3,0.4,0.3,0.7v3.6c0,0.3-0.1,0.5-0.3,0.7s-0.4,0.3-0.7,0.3H143
			c0.6,0,1.1,0.2,1.6,0.6c0.4,0.4,0.6,0.9,0.6,1.4v1.9c0,0.3,0.1,0.6,0.3,0.8c0.2,0.3,0.5,0.4,0.9,0.4h11.7c0.7,0,1,0.3,1,1v3.9
			c0,0.3-0.1,0.6-0.3,0.7c-0.2,0.2-0.4,0.3-0.7,0.3H139c-0.3,0-0.5-0.1-0.7-0.3C138.1-483.8,138-484,138-484.3z"/>
		<path class="st1" d="M181.4-511.3c0.3,0,0.5,0.1,0.7,0.3c0.2,0.2,0.3,0.4,0.3,0.7v4.5c0,0.3-0.1,0.5-0.3,0.7
			c-0.2,0.2-0.4,0.3-0.7,0.3h-5.9c0.6,0,1.1,0.2,1.6,0.6c0.5,0.4,0.7,0.9,0.7,1.4v18.4c0,0.3-0.1,0.5-0.3,0.7
			c-0.2,0.2-0.4,0.3-0.7,0.3h-5.6c-0.3,0-0.5-0.1-0.7-0.3c-0.2-0.2-0.3-0.4-0.3-0.7v-19.3c0-0.4-0.1-0.7-0.4-0.9
			c-0.2-0.2-0.5-0.3-0.8-0.3h-5.8c-0.3,0-0.5-0.1-0.7-0.3c-0.2-0.2-0.3-0.4-0.3-0.7v-2.1c0-0.5,0.1-1,0.3-1.4
			c0.2-0.4,0.5-0.8,0.8-1.1c0.3-0.3,0.7-0.5,1.1-0.7c0.4-0.2,0.8-0.2,1.3-0.2H181.4z"/>
	</g>
	<g>
		
			<linearGradient id="SVGID_9_" gradientUnits="userSpaceOnUse" x1="943.467" y1="-663.5809" x2="959.5486" y2="-633.2731" gradientTransform="matrix(1 0 0 1 -936.1387 132.5112)">
			<stop  offset="0" style="stop-color:#FFD000"/>
			<stop  offset="1" style="stop-color:#F6A100"/>
		</linearGradient>
		<path class="st12" d="M38.9-483.4H22.7c-0.5,0-0.9-0.3-1.1-0.7L2.2-523.9c-0.4-0.8,0.2-1.8,1.1-1.8h16.8c0.5,0,0.9,0.3,1.1,0.7
			l18.8,39.7C40.5-484.4,39.9-483.4,38.9-483.4z"/>
		
			<linearGradient id="SVGID_10_" gradientUnits="userSpaceOnUse" x1="958.7785" y1="-620.2499" x2="967.6334" y2="-638.5922" gradientTransform="matrix(1 0 0 1 -936.1387 132.5112)">
			<stop  offset="0" style="stop-color:#FFD000"/>
			<stop  offset="1" style="stop-color:#F6A100"/>
		</linearGradient>
		<path class="st13" d="M43.3-528.8l-0.9-0.4c-0.6-0.3-0.9-1-0.6-1.6l4.7-10.6c0.3-0.6,1-0.9,1.6-0.6l0.9,0.4c0.6,0.3,0.9,1,0.6,1.6
			l-4.7,10.6C44.7-528.8,43.9-528.5,43.3-528.8z"/>
		
			<linearGradient id="SVGID_11_" gradientUnits="userSpaceOnUse" x1="965.2566" y1="-617.0225" x2="974.1221" y2="-635.3869" gradientTransform="matrix(1 0 0 1 -936.1387 132.5112)">
			<stop  offset="0" style="stop-color:#FFD000"/>
			<stop  offset="1" style="stop-color:#F6A100"/>
		</linearGradient>
		<path class="st14" d="M46.8-519.2l-0.9-0.4c-0.6-0.3-0.9-1-0.6-1.6l6.1-13.8c0.3-0.6,1-0.9,1.6-0.6l0.9,0.4c0.6,0.3,0.9,1,0.6,1.6
			l-6.1,13.8C48.1-519.2,47.4-518.9,46.8-519.2z"/>
		
			<linearGradient id="SVGID_12_" gradientUnits="userSpaceOnUse" x1="965.3397" y1="-618.3665" x2="974.0371" y2="-636.3827" gradientTransform="matrix(1 0 0 1 -936.1387 132.5112)">
			<stop  offset="0" style="stop-color:#FFD000"/>
			<stop  offset="1" style="stop-color:#F6A100"/>
		</linearGradient>
		<path class="st15" d="M55.4-538.8l-0.9-0.4c-0.6-0.3-0.9-1-0.6-1.6l0.4-0.9c0.3-0.6,1-0.9,1.6-0.6l0.9,0.4c0.6,0.3,0.9,1,0.6,1.6
			l-0.4,0.9C56.8-538.8,56-538.6,55.4-538.8z"/>
		
			<linearGradient id="SVGID_13_" gradientUnits="userSpaceOnUse" x1="966.5883" y1="-615.3808" x2="979.1462" y2="-644.892" gradientTransform="matrix(1 0 0 1 -936.1387 132.5112)">
			<stop  offset="0" style="stop-color:#FFD000"/>
			<stop  offset="1" style="stop-color:#F6A100"/>
		</linearGradient>
		<path class="st16" d="M49.7-514l1.2-2.6c0.3-0.6,0-1.4-0.6-1.6l-1.1-0.5c-0.5-0.2-1.2,0-1.4,0.6l-1.7,3.9l-3.1,7.1
			c-0.3,0.6-1,0.9-1.6,0.6l-0.9-0.4c-0.6-0.3-0.9-1-0.6-1.6l3.1-7.1l4.1-9.4c0.3-0.6,0-1.4-0.6-1.6l-0.9-0.4c-0.6-0.3-1.4,0-1.6,0.6
			l-4.1,9.4l-1.4,3.1c-0.3,0.6-1,0.9-1.6,0.6l-0.9-0.4c-0.6-0.3-1.4,0-1.6,0.6l-12.3,28c-0.4,0.8,0.2,1.7,1.1,1.7H39
			c0.5,0,0.9-0.3,1.1-0.7l11.9-26.5c0.2-0.4,0-1-0.4-1.1l-1.3-0.6C49.7-512.6,49.4-513.4,49.7-514z"/>
		
			<linearGradient id="SVGID_14_" gradientUnits="userSpaceOnUse" x1="971.9376" y1="-614.2214" x2="980.718" y2="-632.4093" gradientTransform="matrix(1 0 0 1 -936.1387 132.5112)">
			<stop  offset="0" style="stop-color:#FFD000"/>
			<stop  offset="1" style="stop-color:#F6A100"/>
		</linearGradient>
		<path class="st17" d="M53.4-516.7l-0.9-0.4c-0.6-0.3-0.9-1-0.6-1.6l1.4-3.1c0.3-0.6,1-0.9,1.6-0.6l0.9,0.4c0.6,0.3,0.9,1,0.6,1.6
			l-1.4,3.1C54.7-516.7,54-516.4,53.4-516.7z"/>
		
			<linearGradient id="SVGID_15_" gradientUnits="userSpaceOnUse" x1="959.4124" y1="-620.1628" x2="968.1927" y2="-638.3506" gradientTransform="matrix(1 0 0 1 -936.1387 132.5112)">
			<stop  offset="0" style="stop-color:#FFD000"/>
			<stop  offset="1" style="stop-color:#F6A100"/>
		</linearGradient>
		<path class="st18" d="M38-516.8l-0.9-0.4c-0.6-0.3-0.9-1-0.6-1.6l1.4-3.1c0.3-0.6,1-0.9,1.6-0.6l0.9,0.4c0.6,0.3,0.9,1,0.6,1.6
			l-1.4,3.1C39.4-516.8,38.6-516.5,38-516.8z"/>
		
			<linearGradient id="SVGID_16_" gradientUnits="userSpaceOnUse" x1="971.5313" y1="-614.2758" x2="980.3592" y2="-632.5623" gradientTransform="matrix(1 0 0 1 -936.1387 132.5112)">
			<stop  offset="0" style="stop-color:#FFD000"/>
			<stop  offset="1" style="stop-color:#F6A100"/>
		</linearGradient>
		<path class="st19" d="M57.1-525.1l-0.9-0.4c-0.6-0.3-0.9-1-0.6-1.6l2.8-6.3c0.3-0.6,1-0.9,1.6-0.6l0.9,0.4c0.6,0.3,0.9,1,0.6,1.6
			l-2.8,6.3C58.5-525.1,57.7-524.9,57.1-525.1z"/>
	</g>
	<path class="st0" d="M188.5-511.4h-2.1c-0.6,0-1.2,0.5-1.2,1.2v2.1v2.1c0,0.6,0.5,1.2,1.2,1.2h2.1h2.1c0.6,0,1.2-0.5,1.2-1.2v-2.1
		v-2.1c0-0.6-0.5-1.2-1.2-1.2H188.5z"/>
</g>
<g>
	<g>
		<path class="st1" d="M643.5-512.2c0.3,0,0.5,0.1,0.7,0.3c0.2,0.2,0.3,0.4,0.3,0.7v4.5c0,0.3-0.1,0.5-0.3,0.7
			c-0.2,0.2-0.4,0.3-0.7,0.3h-9.3c0.6,0,1.1,0.2,1.6,0.6c0.5,0.4,0.7,0.9,0.7,1.4v18.4c0,0.3-0.1,0.5-0.3,0.7
			c-0.2,0.2-0.4,0.3-0.7,0.3h-5.6c-0.3,0-0.5-0.1-0.7-0.3c-0.2-0.2-0.3-0.4-0.3-0.7v-19.3c0-0.4-0.1-0.7-0.4-0.9
			c-0.2-0.2-0.5-0.3-0.8-0.3h-5.8c-0.3,0-0.5-0.1-0.7-0.3c-0.2-0.2-0.3-0.4-0.3-0.7v-2.1c0-0.5,0.1-1,0.3-1.4
			c0.2-0.4,0.5-0.8,0.8-1.1c0.3-0.3,0.7-0.5,1.1-0.7c0.4-0.2,0.8-0.2,1.3-0.2H643.5z"/>
		<path class="st1" d="M672.7-512.2c0.2,0,0.4,0.1,0.6,0.2c0.2,0.2,0.3,0.3,0.3,0.6c0,0.2,0,0.3,0,0.4l-8.1,25.7
			c-0.1,0.3-0.3,0.6-0.5,0.8c-0.2,0.2-0.6,0.3-1.1,0.3h-6.4c-0.5,0-0.9-0.1-1.1-0.3c-0.3-0.2-0.5-0.5-0.6-0.8l-8.1-25.7l-0.1-0.4
			c0-0.2,0.1-0.4,0.2-0.6c0.2-0.2,0.4-0.2,0.6-0.2h5.2c0.4,0,0.8,0.1,1,0.3c0.2,0.2,0.4,0.5,0.5,0.7l5.3,17.4c0,0.1,0.1,0.2,0.2,0.2
			c0.1,0,0.2-0.1,0.2-0.2l5.3-17.4c0.1-0.3,0.3-0.6,0.6-0.8c0.3-0.2,0.6-0.3,0.9-0.3H672.7z"/>
		<path class="st1" d="M676.5-485.2v-23.5c0-0.6,0.1-1.1,0.3-1.6c0.2-0.4,0.5-0.8,0.9-1.1c0.3-0.3,0.7-0.5,1.1-0.6
			c0.4-0.1,0.8-0.2,1.1-0.2h9.9c1.4,0,2.7,0.1,3.9,0.4c1.2,0.3,2.3,0.7,3.2,1.3c0.9,0.6,1.6,1.4,2.2,2.5c0.5,1,0.8,2.3,0.8,3.8
			c0,1.2-0.3,2.2-0.9,3.1c-0.6,0.9-1.4,1.7-2.4,2.3c1.2,0.5,2.2,1.3,2.8,2.5c0.7,1.2,1,2.4,1,3.6c0,1.6-0.3,2.9-0.8,3.9
			c-0.5,1.1-1.3,2-2.2,2.6c-0.9,0.7-2,1.2-3.3,1.5c-1.2,0.3-2.6,0.5-4,0.5h-12.7c-0.3,0-0.5-0.1-0.7-0.3
			C676.6-484.7,676.5-484.9,676.5-485.2z M689.1-501.1c0.9,0,1.6-0.2,2.2-0.7c0.6-0.5,0.8-1.2,0.8-2.2c0-0.9-0.3-1.6-0.9-2.1
			c-0.6-0.5-1.3-0.7-2.2-0.7h-7.2c0.6,0,1.1,0.2,1.6,0.7c0.4,0.4,0.6,0.9,0.6,1.5v2.4c0,0.2,0.1,0.5,0.3,0.8
			c0.2,0.3,0.5,0.4,0.9,0.4H689.1z M689.4-489.6c1,0,1.7-0.3,2.4-0.8c0.6-0.5,0.9-1.3,0.9-2.3c0-1-0.3-1.7-0.9-2.3
			c-0.6-0.6-1.4-0.9-2.3-0.9h-7.6c0.6,0,1.1,0.2,1.6,0.7c0.4,0.4,0.6,0.9,0.6,1.5v2.9c0,0.3,0.1,0.5,0.3,0.8
			c0.2,0.3,0.5,0.4,0.9,0.4H689.4z"/>
		<path class="st1" d="M703.6-485.2v-23.5c0-1,0.3-1.9,1-2.5c0.7-0.7,1.5-1,2.5-1h16.4c0.3,0,0.5,0.1,0.7,0.3s0.3,0.4,0.3,0.7v4
			c0,0.3-0.1,0.5-0.3,0.7c-0.2,0.2-0.4,0.3-0.8,0.3h-14.8c0.6,0,1.2,0.2,1.6,0.7c0.4,0.5,0.6,1,0.6,1.5v1.7c0,0.3,0.1,0.6,0.3,0.8
			c0.2,0.3,0.5,0.4,0.9,0.4h8.8c0.3,0,0.5,0.1,0.7,0.3s0.3,0.4,0.3,0.7v3.6c0,0.3-0.1,0.5-0.3,0.7c-0.2,0.2-0.4,0.3-0.7,0.3h-12.2
			c0.6,0,1.1,0.2,1.6,0.6c0.4,0.4,0.6,0.9,0.6,1.4v1.9c0,0.3,0.1,0.6,0.3,0.8c0.2,0.3,0.5,0.4,0.9,0.4h11.7c0.7,0,1,0.3,1,1v3.9
			c0,0.3-0.1,0.6-0.3,0.7c-0.2,0.2-0.4,0.3-0.7,0.3h-19.2c-0.3,0-0.5-0.1-0.7-0.3S703.6-484.9,703.6-485.2z"/>
		<path class="st1" d="M747-512.2c0.3,0,0.5,0.1,0.7,0.3c0.2,0.2,0.3,0.4,0.3,0.7v4.5c0,0.3-0.1,0.5-0.3,0.7
			c-0.2,0.2-0.4,0.3-0.7,0.3h-5.9c0.6,0,1.1,0.2,1.6,0.6c0.5,0.4,0.7,0.9,0.7,1.4v18.4c0,0.3-0.1,0.5-0.3,0.7
			c-0.2,0.2-0.4,0.3-0.7,0.3h-5.6c-0.3,0-0.5-0.1-0.7-0.3c-0.2-0.2-0.3-0.4-0.3-0.7v-19.3c0-0.4-0.1-0.7-0.4-0.9
			c-0.2-0.2-0.5-0.3-0.8-0.3h-5.8c-0.3,0-0.5-0.1-0.7-0.3c-0.2-0.2-0.3-0.4-0.3-0.7v-2.1c0-0.5,0.1-1,0.3-1.4
			c0.2-0.4,0.5-0.8,0.8-1.1c0.3-0.3,0.7-0.5,1.1-0.7c0.4-0.2,0.8-0.2,1.3-0.2H747z"/>
	</g>
	<g>
		<path class="st1" d="M604.6-484.3h-16.2c-0.5,0-0.9-0.3-1.1-0.7l-19.4-39.7c-0.4-0.8,0.2-1.8,1.1-1.8h16.8c0.5,0,0.9,0.3,1.1,0.7
			l18.8,39.7C606.1-485.3,605.5-484.3,604.6-484.3z"/>
		<path class="st1" d="M608.9-529.7l-0.9-0.4c-0.6-0.3-0.9-1-0.6-1.6l4.7-10.6c0.3-0.6,1-0.9,1.6-0.6l0.9,0.4c0.6,0.3,0.9,1,0.6,1.6
			l-4.7,10.6C610.3-529.7,609.6-529.4,608.9-529.7z"/>
		<path class="st1" d="M612.4-520.1l-0.9-0.4c-0.6-0.3-0.9-1-0.6-1.6l6.1-13.8c0.3-0.6,1-0.9,1.6-0.6l0.9,0.4c0.6,0.3,0.9,1,0.6,1.6
			l-6.1,13.8C613.8-520.1,613-519.8,612.4-520.1z"/>
		<path class="st1" d="M621-539.7l-0.9-0.4c-0.6-0.3-0.9-1-0.6-1.6l0.4-0.9c0.3-0.6,1-0.9,1.6-0.6l0.9,0.4c0.6,0.3,0.9,1,0.6,1.6
			l-0.4,0.9C622.4-539.7,621.7-539.4,621-539.7z"/>
		<path class="st1" d="M615.3-514.9l1.2-2.6c0.3-0.6,0-1.4-0.6-1.6l-1.1-0.5c-0.5-0.2-1.2,0-1.4,0.6l-1.7,3.9l-3.1,7.1
			c-0.3,0.6-1,0.9-1.6,0.6l-0.9-0.4c-0.6-0.3-0.9-1-0.6-1.6l3.1-7.1l4.1-9.4c0.3-0.6,0-1.4-0.6-1.6l-0.9-0.4c-0.6-0.3-1.4,0-1.6,0.6
			l-4.1,9.4l-1.4,3.1c-0.3,0.6-1,0.9-1.6,0.6l-0.9-0.4c-0.6-0.3-1.4,0-1.6,0.6l-12.3,28c-0.4,0.8,0.2,1.7,1.1,1.7h16.3
			c0.5,0,0.9-0.3,1.1-0.7l11.9-26.5c0.2-0.4,0-1-0.4-1.1l-1.3-0.6C615.3-513.5,615-514.3,615.3-514.9z"/>
		<path class="st1" d="M619-517.5L618-518c-0.6-0.3-0.9-1-0.6-1.6l1.4-3.1c0.3-0.6,1-0.9,1.6-0.6l0.9,0.4c0.6,0.3,0.9,1,0.6,1.6
			l-1.4,3.1C620.3-517.6,619.6-517.3,619-517.5z"/>
		<path class="st1" d="M603.6-517.7l-0.9-0.4c-0.6-0.3-0.9-1-0.6-1.6l1.4-3.1c0.3-0.6,1-0.9,1.6-0.6l0.9,0.4c0.6,0.3,0.9,1,0.6,1.6
			l-1.4,3.1C605-517.7,604.3-517.4,603.6-517.7z"/>
		<path class="st1" d="M622.7-526l-0.9-0.4c-0.6-0.3-0.9-1-0.6-1.6l2.8-6.3c0.3-0.6,1-0.9,1.6-0.6l0.9,0.4c0.6,0.3,0.9,1,0.6,1.6
			l-2.8,6.3C624.1-526,623.3-525.7,622.7-526z"/>
	</g>
	<path class="st1" d="M754.1-512.3H752c-0.6,0-1.2,0.5-1.2,1.2v2.1v2.1c0,0.6,0.5,1.2,1.2,1.2h2.1h2.1c0.6,0,1.2-0.5,1.2-1.2v-2.1
		v-2.1c0-0.6-0.5-1.2-1.2-1.2H754.1z"/>
</g>
<g>
	<g>
		<path class="st2" d="M643.5-321.2c0.3,0,0.5,0.1,0.7,0.3s0.3,0.4,0.3,0.7v4.5c0,0.3-0.1,0.5-0.3,0.7c-0.2,0.2-0.4,0.3-0.7,0.3
			h-9.3c0.6,0,1.1,0.2,1.6,0.6c0.5,0.4,0.7,0.9,0.7,1.4v18.4c0,0.3-0.1,0.5-0.3,0.7c-0.2,0.2-0.4,0.3-0.7,0.3h-5.6
			c-0.3,0-0.5-0.1-0.7-0.3c-0.2-0.2-0.3-0.4-0.3-0.7v-19.3c0-0.4-0.1-0.7-0.4-0.9c-0.2-0.2-0.5-0.3-0.8-0.3h-5.8
			c-0.3,0-0.5-0.1-0.7-0.3c-0.2-0.2-0.3-0.4-0.3-0.7v-2.1c0-0.5,0.1-1,0.3-1.4c0.2-0.4,0.5-0.8,0.8-1.1c0.3-0.3,0.7-0.5,1.1-0.7
			c0.4-0.2,0.8-0.2,1.3-0.2H643.5z"/>
		<path class="st2" d="M672.7-321.2c0.2,0,0.4,0.1,0.6,0.2c0.2,0.2,0.3,0.3,0.3,0.6c0,0.2,0,0.3,0,0.4l-8.1,25.7
			c-0.1,0.3-0.3,0.6-0.5,0.8c-0.2,0.2-0.6,0.3-1.1,0.3h-6.4c-0.5,0-0.9-0.1-1.1-0.3c-0.3-0.2-0.5-0.5-0.6-0.8l-8.1-25.7l-0.1-0.4
			c0-0.2,0.1-0.4,0.2-0.6c0.2-0.2,0.4-0.2,0.6-0.2h5.2c0.4,0,0.8,0.1,1,0.3c0.2,0.2,0.4,0.5,0.5,0.7l5.3,17.4c0,0.1,0.1,0.2,0.2,0.2
			c0.1,0,0.2-0.1,0.2-0.2l5.3-17.4c0.1-0.3,0.3-0.6,0.6-0.8c0.3-0.2,0.6-0.3,0.9-0.3H672.7z"/>
		<path class="st2" d="M676.5-294.2v-23.5c0-0.6,0.1-1.1,0.3-1.6c0.2-0.4,0.5-0.8,0.9-1.1c0.3-0.3,0.7-0.5,1.1-0.6
			c0.4-0.1,0.8-0.2,1.1-0.2h9.9c1.4,0,2.7,0.1,3.9,0.4c1.2,0.3,2.3,0.7,3.2,1.3c0.9,0.6,1.6,1.4,2.2,2.5c0.5,1,0.8,2.3,0.8,3.8
			c0,1.2-0.3,2.2-0.9,3.1c-0.6,0.9-1.4,1.7-2.4,2.3c1.2,0.5,2.2,1.3,2.8,2.5c0.7,1.2,1,2.4,1,3.6c0,1.6-0.3,2.9-0.8,3.9
			c-0.5,1.1-1.3,2-2.2,2.6c-0.9,0.7-2,1.2-3.3,1.5c-1.2,0.3-2.6,0.5-4,0.5h-12.7c-0.3,0-0.5-0.1-0.7-0.3
			C676.6-293.7,676.5-294,676.5-294.2z M689.1-310.1c0.9,0,1.6-0.2,2.2-0.7c0.6-0.5,0.8-1.2,0.8-2.2c0-0.9-0.3-1.6-0.9-2.1
			c-0.6-0.5-1.3-0.7-2.2-0.7h-7.2c0.6,0,1.1,0.2,1.6,0.7c0.4,0.4,0.6,0.9,0.6,1.5v2.4c0,0.2,0.1,0.5,0.3,0.8
			c0.2,0.3,0.5,0.4,0.9,0.4H689.1z M689.4-298.6c1,0,1.7-0.3,2.4-0.8c0.6-0.5,0.9-1.3,0.9-2.3c0-1-0.3-1.7-0.9-2.3
			c-0.6-0.6-1.4-0.9-2.3-0.9h-7.6c0.6,0,1.1,0.2,1.6,0.7c0.4,0.4,0.6,0.9,0.6,1.5v2.9c0,0.3,0.1,0.5,0.3,0.8
			c0.2,0.3,0.5,0.4,0.9,0.4H689.4z"/>
		<path class="st2" d="M703.6-294.2v-23.5c0-1,0.3-1.9,1-2.5c0.7-0.7,1.5-1,2.5-1h16.4c0.3,0,0.5,0.1,0.7,0.3s0.3,0.4,0.3,0.7v4
			c0,0.3-0.1,0.5-0.3,0.7c-0.2,0.2-0.4,0.3-0.8,0.3h-14.8c0.6,0,1.2,0.2,1.6,0.7c0.4,0.5,0.6,1,0.6,1.5v1.7c0,0.3,0.1,0.6,0.3,0.8
			c0.2,0.3,0.5,0.4,0.9,0.4h8.8c0.3,0,0.5,0.1,0.7,0.3s0.3,0.4,0.3,0.7v3.6c0,0.3-0.1,0.5-0.3,0.7c-0.2,0.2-0.4,0.3-0.7,0.3h-12.2
			c0.6,0,1.1,0.2,1.6,0.6c0.4,0.4,0.6,0.9,0.6,1.4v1.9c0,0.3,0.1,0.6,0.3,0.8c0.2,0.3,0.5,0.4,0.9,0.4h11.7c0.7,0,1,0.3,1,1v3.9
			c0,0.3-0.1,0.6-0.3,0.7c-0.2,0.2-0.4,0.3-0.7,0.3h-19.2c-0.3,0-0.5-0.1-0.7-0.3S703.6-293.9,703.6-294.2z"/>
		<path class="st2" d="M747-321.2c0.3,0,0.5,0.1,0.7,0.3c0.2,0.2,0.3,0.4,0.3,0.7v4.5c0,0.3-0.1,0.5-0.3,0.7
			c-0.2,0.2-0.4,0.3-0.7,0.3h-5.9c0.6,0,1.1,0.2,1.6,0.6c0.5,0.4,0.7,0.9,0.7,1.4v18.4c0,0.3-0.1,0.5-0.3,0.7
			c-0.2,0.2-0.4,0.3-0.7,0.3h-5.6c-0.3,0-0.5-0.1-0.7-0.3c-0.2-0.2-0.3-0.4-0.3-0.7v-19.3c0-0.4-0.1-0.7-0.4-0.9
			c-0.2-0.2-0.5-0.3-0.8-0.3h-5.8c-0.3,0-0.5-0.1-0.7-0.3c-0.2-0.2-0.3-0.4-0.3-0.7v-2.1c0-0.5,0.1-1,0.3-1.4
			c0.2-0.4,0.5-0.8,0.8-1.1c0.3-0.3,0.7-0.5,1.1-0.7c0.4-0.2,0.8-0.2,1.3-0.2H747z"/>
	</g>
	<g>
		<path class="st2" d="M604.6-293.3h-16.2c-0.5,0-0.9-0.3-1.1-0.7l-19.4-39.7c-0.4-0.8,0.2-1.8,1.1-1.8h16.8c0.5,0,0.9,0.3,1.1,0.7
			l18.8,39.7C606.1-294.3,605.5-293.3,604.6-293.3z"/>
		<path class="st2" d="M608.9-338.7l-0.9-0.4c-0.6-0.3-0.9-1-0.6-1.6l4.7-10.6c0.3-0.6,1-0.9,1.6-0.6l0.9,0.4c0.6,0.3,0.9,1,0.6,1.6
			l-4.7,10.6C610.3-338.7,609.6-338.4,608.9-338.7z"/>
		<path class="st2" d="M612.4-329.1l-0.9-0.4c-0.6-0.3-0.9-1-0.6-1.6l6.1-13.8c0.3-0.6,1-0.9,1.6-0.6l0.9,0.4c0.6,0.3,0.9,1,0.6,1.6
			l-6.1,13.8C613.8-329.1,613-328.8,612.4-329.1z"/>
		<path class="st2" d="M621-348.7l-0.9-0.4c-0.6-0.3-0.9-1-0.6-1.6l0.4-0.9c0.3-0.6,1-0.9,1.6-0.6l0.9,0.4c0.6,0.3,0.9,1,0.6,1.6
			l-0.4,0.9C622.4-348.8,621.7-348.5,621-348.7z"/>
		<path class="st2" d="M615.3-323.9l1.2-2.6c0.3-0.6,0-1.4-0.6-1.6l-1.1-0.5c-0.5-0.2-1.2,0-1.4,0.6l-1.7,3.9l-3.1,7.1
			c-0.3,0.6-1,0.9-1.6,0.6l-0.9-0.4c-0.6-0.3-0.9-1-0.6-1.6l3.1-7.1l4.1-9.4c0.3-0.6,0-1.4-0.6-1.6l-0.9-0.4c-0.6-0.3-1.4,0-1.6,0.6
			l-4.1,9.4l-1.4,3.1c-0.3,0.6-1,0.9-1.6,0.6l-0.9-0.4c-0.6-0.3-1.4,0-1.6,0.6l-12.3,28c-0.4,0.8,0.2,1.7,1.1,1.7h16.3
			c0.5,0,0.9-0.3,1.1-0.7l11.9-26.5c0.2-0.4,0-1-0.4-1.1l-1.3-0.6C615.3-322.5,615-323.3,615.3-323.9z"/>
		<path class="st2" d="M619-326.6L618-327c-0.6-0.3-0.9-1-0.6-1.6l1.4-3.1c0.3-0.6,1-0.9,1.6-0.6l0.9,0.4c0.6,0.3,0.9,1,0.6,1.6
			l-1.4,3.1C620.3-326.6,619.6-326.3,619-326.6z"/>
		<path class="st2" d="M603.6-326.7l-0.9-0.4c-0.6-0.3-0.9-1-0.6-1.6l1.4-3.1c0.3-0.6,1-0.9,1.6-0.6l0.9,0.4c0.6,0.3,0.9,1,0.6,1.6
			l-1.4,3.1C605-326.7,604.3-326.4,603.6-326.7z"/>
		<path class="st2" d="M622.7-335l-0.9-0.4c-0.6-0.3-0.9-1-0.6-1.6l2.8-6.3c0.3-0.6,1-0.9,1.6-0.6l0.9,0.4c0.6,0.3,0.9,1,0.6,1.6
			l-2.8,6.3C624.1-335.1,623.3-334.8,622.7-335z"/>
	</g>
	<path class="st2" d="M754.1-321.3H752c-0.6,0-1.2,0.5-1.2,1.2v2.1v2.1c0,0.6,0.5,1.2,1.2,1.2h2.1h2.1c0.6,0,1.2-0.5,1.2-1.2v-2.1
		v-2.1c0-0.6-0.5-1.2-1.2-1.2H754.1z"/>
</g>
<g>
	<g>
		<path class="st20" d="M931.8-321.2c0.3,0,0.5,0.1,0.7,0.3s0.3,0.4,0.3,0.7v4.5c0,0.3-0.1,0.5-0.3,0.7c-0.2,0.2-0.4,0.3-0.7,0.3
			h-9.3c0.6,0,1.1,0.2,1.6,0.6c0.5,0.4,0.7,0.9,0.7,1.4v18.4c0,0.3-0.1,0.5-0.3,0.7c-0.2,0.2-0.4,0.3-0.7,0.3h-5.6
			c-0.3,0-0.5-0.1-0.7-0.3c-0.2-0.2-0.3-0.4-0.3-0.7v-19.3c0-0.4-0.1-0.7-0.4-0.9c-0.2-0.2-0.5-0.3-0.8-0.3h-5.8
			c-0.3,0-0.5-0.1-0.7-0.3c-0.2-0.2-0.3-0.4-0.3-0.7v-2.1c0-0.5,0.1-1,0.3-1.4c0.2-0.4,0.5-0.8,0.8-1.1c0.3-0.3,0.7-0.5,1.1-0.7
			c0.4-0.2,0.8-0.2,1.3-0.2H931.8z"/>
		<path class="st20" d="M961.1-321.2c0.2,0,0.4,0.1,0.6,0.2c0.2,0.2,0.3,0.3,0.3,0.6c0,0.2,0,0.3,0,0.4l-8.1,25.7
			c-0.1,0.3-0.3,0.6-0.5,0.8c-0.2,0.2-0.6,0.3-1.1,0.3h-6.4c-0.5,0-0.9-0.1-1.1-0.3c-0.3-0.2-0.5-0.5-0.6-0.8l-8.1-25.7l-0.1-0.4
			c0-0.2,0.1-0.4,0.2-0.6c0.2-0.2,0.4-0.2,0.6-0.2h5.2c0.4,0,0.8,0.1,1,0.3c0.2,0.2,0.4,0.5,0.5,0.7l5.3,17.4c0,0.1,0.1,0.2,0.2,0.2
			c0.1,0,0.2-0.1,0.2-0.2l5.3-17.4c0.1-0.3,0.3-0.6,0.6-0.8c0.3-0.2,0.6-0.3,0.9-0.3H961.1z"/>
		<path class="st20" d="M964.9-294.2v-23.5c0-0.6,0.1-1.1,0.3-1.6c0.2-0.4,0.5-0.8,0.9-1.1c0.3-0.3,0.7-0.5,1.1-0.6
			c0.4-0.1,0.8-0.2,1.1-0.2h9.9c1.4,0,2.7,0.1,3.9,0.4c1.2,0.3,2.3,0.7,3.2,1.3c0.9,0.6,1.6,1.4,2.2,2.5c0.5,1,0.8,2.3,0.8,3.8
			c0,1.2-0.3,2.2-0.9,3.1c-0.6,0.9-1.4,1.7-2.4,2.3c1.2,0.5,2.2,1.3,2.8,2.5c0.7,1.2,1,2.4,1,3.6c0,1.6-0.3,2.9-0.8,3.9
			c-0.5,1.1-1.3,2-2.2,2.6c-0.9,0.7-2,1.2-3.3,1.5c-1.2,0.3-2.6,0.5-4,0.5h-12.7c-0.3,0-0.5-0.1-0.7-0.3
			C965-293.7,964.9-294,964.9-294.2z M977.5-310.1c0.9,0,1.6-0.2,2.2-0.7c0.6-0.5,0.8-1.2,0.8-2.2c0-0.9-0.3-1.6-0.9-2.1
			c-0.6-0.5-1.3-0.7-2.2-0.7h-7.2c0.6,0,1.1,0.2,1.6,0.7c0.4,0.4,0.6,0.9,0.6,1.5v2.4c0,0.2,0.1,0.5,0.3,0.8
			c0.2,0.3,0.5,0.4,0.9,0.4H977.5z M977.8-298.6c1,0,1.7-0.3,2.4-0.8c0.6-0.5,0.9-1.3,0.9-2.3c0-1-0.3-1.7-0.9-2.3
			c-0.6-0.6-1.4-0.9-2.3-0.9h-7.6c0.6,0,1.1,0.2,1.6,0.7c0.4,0.4,0.6,0.9,0.6,1.5v2.9c0,0.3,0.1,0.5,0.3,0.8
			c0.2,0.3,0.5,0.4,0.9,0.4H977.8z"/>
		<path class="st20" d="M992-294.2v-23.5c0-1,0.3-1.9,1-2.5c0.7-0.7,1.5-1,2.5-1h16.4c0.3,0,0.5,0.1,0.7,0.3s0.3,0.4,0.3,0.7v4
			c0,0.3-0.1,0.5-0.3,0.7c-0.2,0.2-0.4,0.3-0.8,0.3H997c0.6,0,1.2,0.2,1.6,0.7c0.4,0.5,0.6,1,0.6,1.5v1.7c0,0.3,0.1,0.6,0.3,0.8
			c0.2,0.3,0.5,0.4,0.9,0.4h8.8c0.3,0,0.5,0.1,0.7,0.3s0.3,0.4,0.3,0.7v3.6c0,0.3-0.1,0.5-0.3,0.7c-0.2,0.2-0.4,0.3-0.7,0.3H997
			c0.6,0,1.1,0.2,1.6,0.6c0.4,0.4,0.6,0.9,0.6,1.4v1.9c0,0.3,0.1,0.6,0.3,0.8c0.2,0.3,0.5,0.4,0.9,0.4h11.7c0.7,0,1,0.3,1,1v3.9
			c0,0.3-0.1,0.6-0.3,0.7c-0.2,0.2-0.4,0.3-0.7,0.3H993c-0.3,0-0.5-0.1-0.7-0.3S992-293.9,992-294.2z"/>
		<path class="st20" d="M1035.4-321.2c0.3,0,0.5,0.1,0.7,0.3s0.3,0.4,0.3,0.7v4.5c0,0.3-0.1,0.5-0.3,0.7c-0.2,0.2-0.4,0.3-0.7,0.3
			h-5.9c0.6,0,1.1,0.2,1.6,0.6c0.5,0.4,0.7,0.9,0.7,1.4v18.4c0,0.3-0.1,0.5-0.3,0.7c-0.2,0.2-0.4,0.3-0.7,0.3h-5.6
			c-0.3,0-0.5-0.1-0.7-0.3c-0.2-0.2-0.3-0.4-0.3-0.7v-19.3c0-0.4-0.1-0.7-0.4-0.9c-0.2-0.2-0.5-0.3-0.8-0.3h-5.8
			c-0.3,0-0.5-0.1-0.7-0.3c-0.2-0.2-0.3-0.4-0.3-0.7v-2.1c0-0.5,0.1-1,0.3-1.4c0.2-0.4,0.5-0.8,0.8-1.1c0.3-0.3,0.7-0.5,1.1-0.7
			c0.4-0.2,0.8-0.2,1.3-0.2H1035.4z"/>
	</g>
	<g>
		<path class="st20" d="M893-293.3h-16.2c-0.5,0-0.9-0.3-1.1-0.7l-19.4-39.7c-0.4-0.8,0.2-1.8,1.1-1.8h16.8c0.5,0,0.9,0.3,1.1,0.7
			l18.8,39.7C894.5-294.3,893.9-293.3,893-293.3z"/>
		<path class="st20" d="M897.3-338.7l-0.9-0.4c-0.6-0.3-0.9-1-0.6-1.6l4.7-10.6c0.3-0.6,1-0.9,1.6-0.6l0.9,0.4
			c0.6,0.3,0.9,1,0.6,1.6l-4.7,10.6C898.7-338.7,897.9-338.4,897.3-338.7z"/>
		<path class="st20" d="M900.8-329.1l-0.9-0.4c-0.6-0.3-0.9-1-0.6-1.6l6.1-13.8c0.3-0.6,1-0.9,1.6-0.6l0.9,0.4
			c0.6,0.3,0.9,1,0.6,1.6l-6.1,13.8C902.2-329.1,901.4-328.8,900.8-329.1z"/>
		<path class="st20" d="M909.4-348.7l-0.9-0.4c-0.6-0.3-0.9-1-0.6-1.6l0.4-0.9c0.3-0.6,1-0.9,1.6-0.6l0.9,0.4c0.6,0.3,0.9,1,0.6,1.6
			l-0.4,0.9C910.8-348.8,910.1-348.5,909.4-348.7z"/>
		<path class="st20" d="M903.7-323.9l1.2-2.6c0.3-0.6,0-1.4-0.6-1.6l-1.1-0.5c-0.5-0.2-1.2,0-1.4,0.6l-1.7,3.9l-3.1,7.1
			c-0.3,0.6-1,0.9-1.6,0.6l-0.9-0.4c-0.6-0.3-0.9-1-0.6-1.6l3.1-7.1l4.1-9.4c0.3-0.6,0-1.4-0.6-1.6l-0.9-0.4c-0.6-0.3-1.4,0-1.6,0.6
			l-4.1,9.4l-1.4,3.1c-0.3,0.6-1,0.9-1.6,0.6l-0.9-0.4c-0.6-0.3-1.4,0-1.6,0.6l-12.3,28c-0.4,0.8,0.2,1.7,1.1,1.7h16.3
			c0.5,0,0.9-0.3,1.1-0.7l11.9-26.5c0.2-0.4,0-1-0.4-1.1l-1.3-0.6C903.7-322.5,903.4-323.3,903.7-323.9z"/>
		<path class="st20" d="M907.4-326.6l-0.9-0.4c-0.6-0.3-0.9-1-0.6-1.6l1.4-3.1c0.3-0.6,1-0.9,1.6-0.6l0.9,0.4c0.6,0.3,0.9,1,0.6,1.6
			l-1.4,3.1C908.7-326.6,908-326.3,907.4-326.6z"/>
		<path class="st20" d="M892-326.7l-0.9-0.4c-0.6-0.3-0.9-1-0.6-1.6l1.4-3.1c0.3-0.6,1-0.9,1.6-0.6l0.9,0.4c0.6,0.3,0.9,1,0.6,1.6
			l-1.4,3.1C893.4-326.7,892.7-326.4,892-326.7z"/>
		<path class="st20" d="M911.1-335l-0.9-0.4c-0.6-0.3-0.9-1-0.6-1.6l2.8-6.3c0.3-0.6,1-0.9,1.6-0.6l0.9,0.4c0.6,0.3,0.9,1,0.6,1.6
			l-2.8,6.3C912.5-335.1,911.7-334.8,911.1-335z"/>
	</g>
	<path class="st20" d="M1042.5-321.3h-2.1c-0.6,0-1.2,0.5-1.2,1.2v2.1v2.1c0,0.6,0.5,1.2,1.2,1.2h2.1h2.1c0.6,0,1.2-0.5,1.2-1.2
		v-2.1v-2.1c0-0.6-0.5-1.2-1.2-1.2H1042.5z"/>
</g>
<rect x="802.3" y="-598.9" class="st20" width="282.5" height="189.4"/>
<g>
	<g>
		<path class="st2" d="M931.8-509.5c0.3,0,0.5,0.1,0.7,0.3c0.2,0.2,0.3,0.4,0.3,0.7v4.5c0,0.3-0.1,0.5-0.3,0.7
			c-0.2,0.2-0.4,0.3-0.7,0.3h-9.3c0.6,0,1.1,0.2,1.6,0.6c0.5,0.4,0.7,0.9,0.7,1.4v18.4c0,0.3-0.1,0.5-0.3,0.7
			c-0.2,0.2-0.4,0.3-0.7,0.3h-5.6c-0.3,0-0.5-0.1-0.7-0.3c-0.2-0.2-0.3-0.4-0.3-0.7v-19.3c0-0.4-0.1-0.7-0.4-0.9
			c-0.2-0.2-0.5-0.3-0.8-0.3h-5.8c-0.3,0-0.5-0.1-0.7-0.3c-0.2-0.2-0.3-0.4-0.3-0.7v-2.1c0-0.5,0.1-1,0.3-1.4
			c0.2-0.4,0.5-0.8,0.8-1.1c0.3-0.3,0.7-0.5,1.1-0.7c0.4-0.2,0.8-0.2,1.3-0.2H931.8z"/>
		<path class="st2" d="M961.1-509.5c0.2,0,0.4,0.1,0.6,0.2c0.2,0.2,0.3,0.3,0.3,0.6c0,0.2,0,0.3,0,0.4l-8.1,25.7
			c-0.1,0.3-0.3,0.6-0.5,0.8c-0.2,0.2-0.6,0.3-1.1,0.3h-6.4c-0.5,0-0.9-0.1-1.1-0.3c-0.3-0.2-0.5-0.5-0.6-0.8l-8.1-25.7l-0.1-0.4
			c0-0.2,0.1-0.4,0.2-0.6c0.2-0.2,0.4-0.2,0.6-0.2h5.2c0.4,0,0.8,0.1,1,0.3c0.2,0.2,0.4,0.5,0.5,0.7l5.3,17.4c0,0.1,0.1,0.2,0.2,0.2
			c0.1,0,0.2-0.1,0.2-0.2l5.3-17.4c0.1-0.3,0.3-0.6,0.6-0.8c0.3-0.2,0.6-0.3,0.9-0.3H961.1z"/>
		<path class="st2" d="M964.9-482.5V-506c0-0.6,0.1-1.1,0.3-1.6c0.2-0.4,0.5-0.8,0.9-1.1c0.3-0.3,0.7-0.5,1.1-0.6
			c0.4-0.1,0.8-0.2,1.1-0.2h9.9c1.4,0,2.7,0.1,3.9,0.4c1.2,0.3,2.3,0.7,3.2,1.3c0.9,0.6,1.6,1.4,2.2,2.5c0.5,1,0.8,2.3,0.8,3.8
			c0,1.2-0.3,2.2-0.9,3.1c-0.6,0.9-1.4,1.7-2.4,2.3c1.2,0.5,2.2,1.3,2.8,2.5s1,2.4,1,3.6c0,1.6-0.3,2.9-0.8,3.9
			c-0.5,1.1-1.3,2-2.2,2.6c-0.9,0.7-2,1.2-3.3,1.5c-1.2,0.3-2.6,0.5-4,0.5h-12.7c-0.3,0-0.5-0.1-0.7-0.3
			C965-482,964.9-482.2,964.9-482.5z M977.5-498.4c0.9,0,1.6-0.2,2.2-0.7c0.6-0.5,0.8-1.2,0.8-2.2c0-0.9-0.3-1.6-0.9-2.1
			c-0.6-0.5-1.3-0.7-2.2-0.7h-7.2c0.6,0,1.1,0.2,1.6,0.7c0.4,0.4,0.6,0.9,0.6,1.5v2.4c0,0.2,0.1,0.5,0.3,0.8
			c0.2,0.3,0.5,0.4,0.9,0.4H977.5z M977.8-486.9c1,0,1.7-0.3,2.4-0.8c0.6-0.5,0.9-1.3,0.9-2.3c0-1-0.3-1.7-0.9-2.3
			c-0.6-0.6-1.4-0.9-2.3-0.9h-7.6c0.6,0,1.1,0.2,1.6,0.7c0.4,0.4,0.6,0.9,0.6,1.5v2.9c0,0.3,0.1,0.5,0.3,0.8
			c0.2,0.3,0.5,0.4,0.9,0.4H977.8z"/>
		<path class="st2" d="M992-482.4v-23.5c0-1,0.3-1.9,1-2.5c0.7-0.7,1.5-1,2.5-1h16.4c0.3,0,0.5,0.1,0.7,0.3s0.3,0.4,0.3,0.7v4
			c0,0.3-0.1,0.5-0.3,0.7c-0.2,0.2-0.4,0.3-0.8,0.3H997c0.6,0,1.2,0.2,1.6,0.7c0.4,0.5,0.6,1,0.6,1.5v1.7c0,0.3,0.1,0.6,0.3,0.8
			c0.2,0.3,0.5,0.4,0.9,0.4h8.8c0.3,0,0.5,0.1,0.7,0.3c0.2,0.2,0.3,0.4,0.3,0.7v3.6c0,0.3-0.1,0.5-0.3,0.7s-0.4,0.3-0.7,0.3H997
			c0.6,0,1.1,0.2,1.6,0.6c0.4,0.4,0.6,0.9,0.6,1.4v1.9c0,0.3,0.1,0.6,0.3,0.8c0.2,0.3,0.5,0.4,0.9,0.4h11.7c0.7,0,1,0.3,1,1v3.9
			c0,0.3-0.1,0.6-0.3,0.7c-0.2,0.2-0.4,0.3-0.7,0.3H993c-0.3,0-0.5-0.1-0.7-0.3C992.1-481.9,992-482.2,992-482.4z"/>
		<path class="st2" d="M1035.4-509.5c0.3,0,0.5,0.1,0.7,0.3c0.2,0.2,0.3,0.4,0.3,0.7v4.5c0,0.3-0.1,0.5-0.3,0.7
			c-0.2,0.2-0.4,0.3-0.7,0.3h-5.9c0.6,0,1.1,0.2,1.6,0.6c0.5,0.4,0.7,0.9,0.7,1.4v18.4c0,0.3-0.1,0.5-0.3,0.7
			c-0.2,0.2-0.4,0.3-0.7,0.3h-5.6c-0.3,0-0.5-0.1-0.7-0.3c-0.2-0.2-0.3-0.4-0.3-0.7v-19.3c0-0.4-0.1-0.7-0.4-0.9
			c-0.2-0.2-0.5-0.3-0.8-0.3h-5.8c-0.3,0-0.5-0.1-0.7-0.3c-0.2-0.2-0.3-0.4-0.3-0.7v-2.1c0-0.5,0.1-1,0.3-1.4
			c0.2-0.4,0.5-0.8,0.8-1.1c0.3-0.3,0.7-0.5,1.1-0.7c0.4-0.2,0.8-0.2,1.3-0.2H1035.4z"/>
	</g>
	<g>
		<path class="st2" d="M893-481.6h-16.2c-0.5,0-0.9-0.3-1.1-0.7L856.2-522c-0.4-0.8,0.2-1.8,1.1-1.8h16.8c0.5,0,0.9,0.3,1.1,0.7
			l18.8,39.7C894.5-482.5,893.9-481.6,893-481.6z"/>
		<path class="st2" d="M897.3-526.9l-0.9-0.4c-0.6-0.3-0.9-1-0.6-1.6l4.7-10.6c0.3-0.6,1-0.9,1.6-0.6l0.9,0.4c0.6,0.3,0.9,1,0.6,1.6
			l-4.7,10.6C898.7-526.9,897.9-526.6,897.3-526.9z"/>
		<path class="st2" d="M900.8-517.3l-0.9-0.4c-0.6-0.3-0.9-1-0.6-1.6l6.1-13.8c0.3-0.6,1-0.9,1.6-0.6l0.9,0.4c0.6,0.3,0.9,1,0.6,1.6
			l-6.1,13.8C902.2-517.3,901.4-517.1,900.8-517.3z"/>
		<path class="st2" d="M909.4-537l-0.9-0.4c-0.6-0.3-0.9-1-0.6-1.6l0.4-0.9c0.3-0.6,1-0.9,1.6-0.6l0.9,0.4c0.6,0.3,0.9,1,0.6,1.6
			l-0.4,0.9C910.8-537,910.1-536.7,909.4-537z"/>
		<path class="st2" d="M903.7-512.1l1.2-2.6c0.3-0.6,0-1.4-0.6-1.6l-1.1-0.5c-0.5-0.2-1.2,0-1.4,0.6l-1.7,3.9l-3.1,7.1
			c-0.3,0.6-1,0.9-1.6,0.6l-0.9-0.4c-0.6-0.3-0.9-1-0.6-1.6l3.1-7.1l4.1-9.4c0.3-0.6,0-1.4-0.6-1.6l-0.9-0.4c-0.6-0.3-1.4,0-1.6,0.6
			l-4.1,9.4l-1.4,3.1c-0.3,0.6-1,0.9-1.6,0.6l-0.9-0.4c-0.6-0.3-1.4,0-1.6,0.6l-12.3,28c-0.4,0.8,0.2,1.7,1.1,1.7h16.3
			c0.5,0,0.9-0.3,1.1-0.7l11.9-26.5c0.2-0.4,0-1-0.4-1.1l-1.3-0.6C903.7-510.8,903.4-511.5,903.7-512.1z"/>
		<path class="st2" d="M907.4-514.8l-0.9-0.4c-0.6-0.3-0.9-1-0.6-1.6l1.4-3.1c0.3-0.6,1-0.9,1.6-0.6l0.9,0.4c0.6,0.3,0.9,1,0.6,1.6
			l-1.4,3.1C908.7-514.8,908-514.5,907.4-514.8z"/>
		<path class="st2" d="M892-514.9l-0.9-0.4c-0.6-0.3-0.9-1-0.6-1.6l1.4-3.1c0.3-0.6,1-0.9,1.6-0.6l0.9,0.4c0.6,0.3,0.9,1,0.6,1.6
			l-1.4,3.1C893.4-514.9,892.7-514.6,892-514.9z"/>
		<path class="st2" d="M911.1-523.3l-0.9-0.4c-0.6-0.3-0.9-1-0.6-1.6l2.8-6.3c0.3-0.6,1-0.9,1.6-0.6l0.9,0.4c0.6,0.3,0.9,1,0.6,1.6
			l-2.8,6.3C912.5-523.3,911.7-523,911.1-523.3z"/>
	</g>
	<path class="st2" d="M1042.5-509.5h-2.1c-0.6,0-1.2,0.5-1.2,1.2v2.1v2.1c0,0.6,0.5,1.2,1.2,1.2h2.1h2.1c0.6,0,1.2-0.5,1.2-1.2v-2.1
		v-2.1c0-0.6-0.5-1.2-1.2-1.2H1042.5z"/>
</g>
</svg>
