<svg xmlns="http://www.w3.org/2000/svg" viewBox="0 0 416.4 121.42"><defs><style>.cls-1,.cls-3{fill:#fff;}.cls-1{fill-rule:evenodd;}.cls-2{fill:#ea2127;}</style></defs><title>ziraatbank</title><g id="Layer_2" data-name="Layer 2"><g id="Layer_1-2" data-name="Layer 1"><path class="cls-1" d="M45.57,26.9l-8.82,7-5.88,4.6V59.58l3-2.35V67l-3,2.35V90.5l3-2.4v9.8l-3,2.4v21.12l5.88-4.61,8.82-7,11.71-9.16V65.27A5.06,5.06,0,0,0,55,61.49a5.69,5.69,0,0,0,2.26-4.9V17.73Zm7.55,53.8c0,1.86-.74,2.7-2.36,4l-5.19,4.06-7.5,5.94v-9.8l7.5-5.93,4.51-3.48c1.51-1.23,3-.93,3,.73Zm0-30.92c0,1.86-.74,2.7-2.36,4l-5.19,4.07-7.5,5.92V54L45.57,48l4.51-3.48c1.51-1.23,3-.93,3,.73Z"/><polygon class="cls-1" points="42.58 23.02 42.58 15.48 36.75 20.14 35.03 21.51 35.03 13.62 36.75 12.25 42.58 7.54 42.58 0 36.75 4.7 30.87 9.4 30.87 32.44 36.75 27.73 42.58 23.02"/><polygon class="cls-1" points="14.7 0 14.7 7.54 18.47 10.58 18.47 18.86 17 17.69 17 25.23 20.53 28.12 24.11 31.01 24.11 23.47 22.59 22.24 22.59 13.91 26.36 16.95 26.36 9.4 20.53 4.7 14.7 0"/><polygon class="cls-1" points="0 17.73 0 38.85 20.53 55.02 22.98 56.94 20.53 59.38 17.49 62.38 0 48.66 0 69.77 5.58 74.13 0 79.57 0 100.69 20.53 116.81 26.36 121.42 26.36 100.3 20.53 95.69 3.43 82.22 8.97 76.78 20.53 85.89 26.36 90.5 26.36 69.38 20.87 65.02 26.36 59.58 26.36 38.46 20.53 33.86 0 17.73"/><polygon class="cls-2" points="72.45 20.1 70.29 27.88 89.42 27.88 68.49 62.13 68.49 69.55 97.77 69.55 100.73 62.13 79.81 62.13 100.82 27.79 100.82 20.1 72.45 20.1"/><path class="cls-2" d="M108.35,30.73a4.83,4.83,0,1,0-4.83-4.83,4.83,4.83,0,0,0,4.83,4.83"/><rect class="cls-2" x="104.57" y="33.49" width="7.74" height="36.03"/><rect class="cls-2" x="410.61" y="33.49" width="5.79" height="36.03"/><path class="cls-2" d="M119.21,69.45V33.62h6.44v4A12.09,12.09,0,0,1,131,34.43a12.78,12.78,0,0,1,5.82-.11v6.9h-5.07c-2,0-5.82,2.8-5.82,5.5V69.45Z"/><path class="cls-2" d="M154.88,60.29c0,1.41-2,3.69-6.28,3.69s-5.79-3.06-5.79-5,1.56-6.51,6.19-6.51c4.13,0,5.88,0,5.88,0Zm8.3,9.25V44.8c0-9.67-6.28-12.31-11-12.31a45.51,45.51,0,0,0-9.7,1.27L140.74,41s5.93-1.73,9.51-1.73a4.54,4.54,0,0,1,4.85,4.2V47a39.37,39.37,0,0,0-10.89,1.16c-4.61,1.4-9.16,4.42-9.16,12.5s7.13,9.59,11.6,9.59a12.78,12.78,0,0,0,7.43-2.37h1.34v1.7Z"/><path class="cls-2" d="M185.29,60.29c0,1.41-2,3.69-6.29,3.69s-5.78-3.06-5.78-5,1.57-6.51,6.19-6.51c4.13,0,5.88,0,5.88,0Zm8.3,9.25V44.8c0-9.67-6.28-12.31-11-12.31a45.48,45.48,0,0,0-9.69,1.27L171.15,41s5.92-1.73,9.51-1.73a4.53,4.53,0,0,1,4.84,4.2V47a39.31,39.31,0,0,0-10.88,1.16c-4.61,1.4-9.16,4.42-9.16,12.5s7.13,9.59,11.6,9.59a12.73,12.73,0,0,0,7.42-2.37h1.35v1.7Z"/><path class="cls-2" d="M199.87,24.06h7.49v9.7H216L214,39.28h-6.57V60c0,2.69.48,4.23,3,4.23H215v5.25H207c-2.16,0-7.41-1.48-7.41-7V39.15H196V33.62h3.91Z"/><path class="cls-2" d="M252.34,33.42c0,6-5.26,7.61-7.75,7.61h-9.9V26h9.36c2.63,0,8.29,1.48,8.29,7.47M234.49,46.71h12.36c4.48,0,7.76,4,7.76,9.33s-4.63,7.82-9.05,7.82H234.49Zm24-15.11c0-7-7.3-11.18-14.81-11.18H228.16V69.59h20.9c3.34,0,11.56-4.45,11.56-14.15s-8.89-12.25-8.89-12.25,6.73-4.58,6.73-11.59"/><path class="cls-2" d="M283.11,56.52c0,4.37-2,9.39-8.53,9.39s-6.73-4.18-6.73-7.32,2.07-7.9,9.34-7.9h5.92ZM289,70.07V43.19c0-6.6-5.52-10.55-11-10.55s-11.31,2.69-11.31,2.69l-.63,5.43a32.53,32.53,0,0,1,8.89-3c5.34-1,8.17,2.07,8.17,4.44V47h-8.3c-7.27,0-12.53,5.12-12.53,12.53,0,8.79,8.07,10.58,12.61,10.58a17.83,17.83,0,0,0,8.67-2.77v2.77Z"/><path class="cls-2" d="M372.61,56.52c0,4.37-2,9.39-8.54,9.39s-6.73-4.18-6.73-7.32,2.06-7.9,9.34-7.9h5.93Zm5.92,13.55V43.19c0-6.6-5.52-10.55-10.95-10.55s-11.32,2.69-11.32,2.69l-.63,5.43a32.53,32.53,0,0,1,8.89-3c5.34-1,8.17,2.07,8.17,4.44V47h-8.3c-7.28,0-12.53,5.12-12.53,12.53,0,8.79,8.08,10.58,12.61,10.58a17.83,17.83,0,0,0,8.67-2.77v2.77Z"/><path class="cls-2" d="M292.81,69.67H299V45c0-2.26,4.19-5.82,8.94-5.82s4.85,3.13,4.85,4.85V69.67h6.46V41.76c0-3.12-3.59-9-10.23-9.27a13.82,13.82,0,0,0-10.35,4.64V32.38l-5.82,1.23Z"/><polygon class="cls-2" points="323.21 20.31 330.1 20.31 330.1 46.82 331.5 46.82 343.35 31.74 352.08 31.74 336.67 48.71 353.69 69.24 344.27 69.24 331.5 50.49 329.99 50.49 329.99 69.56 323.2 69.56 323.21 20.31"/><path class="cls-2" d="M403.8,39.9l1.3-4.33A23.92,23.92,0,0,0,394.82,33c-5.56,0-11.4,3.51-11.4,9.61s3.77,9.79,10.24,11.32,7.72,3.5,7.72,5.39S399.49,64.6,394,64.6a19.18,19.18,0,0,1-9.7-2.83l-1.8,4.81a25.9,25.9,0,0,0,12.21,3.14c7,0,12.49-5.92,12.49-11.22s-5.75-9-10.6-10-7-3.05-7-6,3.5-4.4,6.73-4.4a23.65,23.65,0,0,1,7.45,1.79"/><path class="cls-3" d="M107.89,92.7c0,6.26-6.79,7.32-11.58,7.36.16,2.64,1.54,4.79,5,4.79a8.8,8.8,0,0,0,5.12-1.79l1.54,3.29a11.79,11.79,0,0,1-7.15,2.28c-6.91,0-9.59-4.23-9.59-10.28s3.37-11.29,10-11.29C105.25,87.06,107.89,89.09,107.89,92.7ZM101,90.51c-3.25,0-4.71,3.13-4.83,6.13,3,0,7.27-.73,7.27-3.86A2.16,2.16,0,0,0,101,90.51Z"/><path class="cls-3" d="M112.51,83.57c0-.69-.32-.94-1-1l-1.42-.08V79.14h7.14v9.62a7.47,7.47,0,0,1,4.92-1.7c5,0,8.28,3.49,8.28,9.83,0,7.92-3.29,11.74-9.83,11.74a19.29,19.29,0,0,1-8.08-1.75Zm4.71,20.67a8.72,8.72,0,0,0,3.58.81c2.84,0,4.63-2,4.63-7.51,0-3.17-.77-6.87-4.55-6.87-1.87,0-3.66,1.22-3.66,3Z"/><path class="cls-3" d="M150.12,92.7c0,6.26-6.78,7.32-11.57,7.36.16,2.64,1.54,4.79,5,4.79a8.77,8.77,0,0,0,5.12-1.79l1.54,3.29a11.79,11.79,0,0,1-7.15,2.28c-6.9,0-9.58-4.23-9.58-10.28s3.37-11.29,10-11.29C147.48,87.06,150.12,89.09,150.12,92.7Zm-6.9-2.19c-3.25,0-4.72,3.13-4.84,6.13,3,0,7.27-.73,7.27-3.86A2.15,2.15,0,0,0,143.22,90.51Z"/><path class="cls-3" d="M180,96.32H168.52v8.2l2.35.12v3.46H161v-3.29l1.34-.12c.69-.08,1.18-.33,1.18-1.14V84.66l-2.31-.12V81.09h9.83v3.29l-1.35.12c-.77.08-1.21.32-1.21,1.34v6.3H180V84.66l-2.31-.12V81.09h9.83v3.29l-1.35.12A1.12,1.12,0,0,0,185,85.8v18.72l2.31.12v3.46h-9.83v-3.29l1.34-.12c.77-.08,1.18-.33,1.18-1.34Z"/><path class="cls-3" d="M208.23,103.59c0,.89.25,1.14,1,1.18l1.3.08v3.25h-6.46v-2.36l-.12,0a6.75,6.75,0,0,1-5.57,2.93c-5.72,0-8.12-4.07-8.12-9.87,0-7.15,3.41-11.7,10.72-11.7a22.71,22.71,0,0,1,7.23,1.42Zm-4.71-12.47a8.64,8.64,0,0,0-3.13-.53c-3.85,0-5.15,3.62-5.15,8,0,3.37.81,6.58,4.22,6.58a3.78,3.78,0,0,0,4.06-3.53Z"/><path class="cls-3" d="M232.32,87.67v3.17l-1.26.08c-.53,0-.86.2-1.1,1l-5.24,16.21H218.5l-5.68-16.17c-.24-.73-.45-1-1.18-1l-1.18-.08V87.67H220v3.25l-2.48.12,4.19,13.36h.07L225.86,91l-2.11-.12V87.67Z"/><path class="cls-3" d="M252.3,103.59c0,.89.24,1.14,1,1.18l1.3.08v3.25h-6.46v-2.36l-.12,0a6.75,6.75,0,0,1-5.56,2.93c-5.73,0-8.12-4.07-8.12-9.87,0-7.15,3.41-11.7,10.72-11.7a22.8,22.8,0,0,1,7.23,1.42Zm-4.71-12.47a8.64,8.64,0,0,0-3.13-.53c-3.86,0-5.16,3.62-5.16,8,0,3.37.81,6.58,4.22,6.58a3.79,3.79,0,0,0,4.07-3.53Z"/><path class="cls-3" d="M264.35,104.73l2.32.12v3.25H257V105l1.33-.12c.73-.08,1.18-.33,1.18-1.3v-20c0-.74-.4-.94-1-1l-1.43-.08V79.14h7.27Z"/><path class="cls-3" d="M286,92.7c0,6.26-6.78,7.32-11.57,7.36.16,2.64,1.54,4.79,5,4.79a8.77,8.77,0,0,0,5.12-1.79l1.54,3.29a11.78,11.78,0,0,1-7.14,2.28c-6.91,0-9.59-4.23-9.59-10.28s3.37-11.29,10-11.29C283.36,87.06,286,89.09,286,92.7Zm-6.9-2.19c-3.25,0-4.71,3.13-4.84,6.13,3,0,7.27-.73,7.27-3.86A2.15,2.15,0,0,0,279.1,90.51Z"/><path class="cls-3" d="M87.69,102.74a24.49,24.49,0,0,1-6.6,1.78h0c-.42,0-.85.08-1.31.08-5.64.12-7.76-3.82-7.76-10.2,0-6.13,2.56-9.79,7.68-9.79A13.71,13.71,0,0,1,81,84.7a22.06,22.06,0,0,1,6.26,1.69V82.27a18.64,18.64,0,0,0-7.64-1.67c-6.25,0-12.75,3.53-12.75,14.14,0,9.26,4.51,13.89,12.75,13.89a18.49,18.49,0,0,0,8-1.67v-4.22Z"/></g></g></svg>