<?xml version="1.0" encoding="UTF-8" standalone="no"?>
<svg
   xmlns:dc="http://purl.org/dc/elements/1.1/"
   xmlns:cc="http://creativecommons.org/ns#"
   xmlns:rdf="http://www.w3.org/1999/02/22-rdf-syntax-ns#"
   xmlns:svg="http://www.w3.org/2000/svg"
   xmlns="http://www.w3.org/2000/svg"
   viewBox="0 0 194.27759 43.153332"
   height="43.153332"
   width="194.27759"
   xml:space="preserve"
   id="svg28"
   version="1.1">
  <metadata
     id="metadata34">
    <rdf:RDF>
      <cc:Work
         rdf:about="">
        <dc:format>image/svg+xml</dc:format>
        <dc:type
           rdf:resource="http://purl.org/dc/dcmitype/StillImage" />
        <dc:title></dc:title>
      </cc:Work>
    </rdf:RDF>
  </metadata>
  <defs
     id="defs32">
    <clipPath
       id="clipPath44"
       clipPathUnits="userSpaceOnUse">
      <path
         id="path42"
         d="M 0,141.73 H 283.46 V 0 H 0 Z" />
    </clipPath>
  </defs>
  <g
     transform="matrix(1.3333333,0,0,-1.3333333,-91.834398,116.06253)"
     id="g36">
    <g
       id="g38">
      <g
         clip-path="url(#clipPath44)"
         id="g40">
        <g
           transform="translate(87.7061,67.4731)"
           id="g46">
          <path
             id="path48"
             style="fill:#21529e;fill-opacity:1;fill-rule:evenodd;stroke:none"
             d="M 0,0 C 0,0.948 0.354,1.769 1.077,1.769 1.765,1.769 2.247,0.924 2.247,0 Z M 6.966,-2.816 C 7.206,2.28 4.439,5.405 0.93,5.405 c -3.141,0 -5.665,-2.817 -5.665,-7.326 0,-4.686 2.84,-6.891 5.942,-6.891 2.267,0 4.923,1.512 5.555,4.791 H 2.1 C 2.007,-4.662 1.636,-5.147 1.134,-5.147 0.131,-5.147 0,-3.919 0,-2.816" />
        </g>
        <g
           transform="translate(100.9463,72.5718)"
           id="g50">
          <path
             id="path52"
             style="fill:#21529e;fill-opacity:1;fill-rule:evenodd;stroke:none"
             d="m 0,0 h -4.681 v -13.603 h 4.792 v 6.635 c 0,0.795 0,1.922 0.799,1.922 0.818,0 0.818,-1.127 0.818,-1.922 v -6.635 h 4.793 v 8.376 c 0,2.998 -0.967,5.535 -3.418,5.535 -1.541,0 -2.249,-0.999 -3.177,-2.486 h -0.112" />
        </g>
        <g
           transform="translate(125.6465,71.8022)"
           id="g54">
          <path
             id="path56"
             style="fill:#21529e;fill-opacity:1;fill-rule:evenodd;stroke:none"
             d="m 0,0 v 0.77 h -10.159 v -4.289 h 2.321 l 1.096,0.18 V -3.44 l -3.9,-8.471 v -0.922 h 10.401 v 4.328 h -2.731 l -0.984,-0.154 v 0.154 l 1.021,2.511" />
        </g>
        <g
           transform="translate(159.9229,72.5718)"
           id="g58">
          <path
             id="path60"
             style="fill:#21529e;fill-opacity:1;fill-rule:evenodd;stroke:none"
             d="M 0,0 H -5.063 V -13.603 H 0.11 v 6.635 c 0,0.795 0,1.922 0.8,1.922 0.817,0 0.817,-1.127 0.817,-1.922 v -6.635 h 4.792 v 8.376 c 0,2.998 -0.966,5.535 -3.417,5.535 -1.542,0 -2.248,-0.999 -3.176,-2.486 h -0.113" />
        </g>
        <g
           transform="translate(167.8525,58.9692)"
           id="g62">
          <path
             id="path64"
             style="fill:#21529e;fill-opacity:1;fill-rule:evenodd;stroke:none"
             d="M 0,0 H 4.896 L 4.903,6.826 7.199,0 h 5.787 l -3.624,7.562 3.542,6.041 H 7.295 L 5.105,7.854 4.792,8.557 V 19.189 H 0" />
        </g>
        <g
           transform="translate(132.3164,66.8071)"
           id="g66">
          <path
             id="path68"
             style="fill:#21529e;fill-opacity:1;fill-rule:evenodd;stroke:none"
             d="m 0,0 h 0.501 c 0.818,0 2.118,0.026 2.118,-1.588 0,-1.612 -1.208,-1.64 -2.043,-1.64 H 0 Z m -5.154,-7.838 h 7.986 c 2.452,0 5.126,1.359 5.126,5.328 0,2.331 -0.94,3.605 -2.78,4.583 2.044,1.176 2.336,2.179 2.336,3.869 0,4.007 -3.795,5.536 -5.685,5.536 H -5.154 Z M 0,4.073 v 2.741 h 0.354 c 0.744,0 1.69,0.103 1.69,-1.305 0,-1.332 -0.836,-1.436 -1.58,-1.436" />
        </g>
        <g
           transform="translate(145.8975,65.8345)"
           id="g70">
          <path
             id="path72"
             style="fill:#21529e;fill-opacity:1;fill-rule:evenodd;stroke:none"
             d="m 0,0 c 0,0.999 0.482,2.647 1.244,2.647 0.762,0 1.281,-1.545 1.281,-2.596 0,-1.05 -0.24,-2.882 -1.15,-2.882 C 0.502,-2.831 0,-1.076 0,0 M 2.377,-6.865 H 7.514 V 6.736 H 2.377 L 2.525,5.123 H 2.414 c -0.705,1.332 -1.688,1.921 -2.879,1.921 -3.123,0 -4.29,-3.74 -4.29,-7.173 0,-3.304 1.485,-7.044 4.16,-7.044 1.358,0 2.136,0.82 3.009,2.101 h 0.111" />
        </g>
        <g
           transform="translate(73.9658,73.5825)"
           id="g74">
          <path
             id="path76"
             style="fill:#21529e;fill-opacity:1;fill-rule:evenodd;stroke:none"
             d="m 0,0 h 0.313 c 1.859,0 2.992,-2.497 2.992,-5.213 0,-2.535 -1.299,-4.632 -2.992,-4.632 H 0 Z m -5.09,-14.613 h 6.444 c 4.106,0 7.041,3.637 7.041,9.375 0,7.095 -3.604,9.939 -8.303,9.939 H -5.09" />
        </g>
        <path
           id="path78"
           style="fill:#21529e;fill-opacity:1;fill-rule:evenodd;stroke:none"
           d="m 109.18,58.969 h 4.792 v 13.603 h -4.792 z m 0.259,14.84 h 4.272 v 4.182 h -4.272 z" />
        <g
           transform="translate(186.584,72.9829)"
           id="g80">
          <path
             id="path82"
             style="fill:#ffffff;fill-opacity:1;fill-rule:nonzero;stroke:none"
             d="M 0,0 C 0.312,1.792 1.003,3.452 1.986,4.895 L 0.687,6.204 C -0.179,7.073 -0.186,8.477 0.67,9.337 1.523,10.195 2.917,10.188 3.779,9.318 L 5.061,8.03 c 1.445,1.032 3.119,1.756 4.928,2.086 v 1.723 c 0,1.228 0.982,2.225 2.189,2.225 1.209,0 2.187,-0.997 2.187,-2.225 V 10.13 c 1.839,-0.324 3.536,-1.057 5,-2.1 l 1.161,1.168 c 0.865,0.869 2.257,0.877 3.111,0.018 0.855,-0.862 0.846,-2.263 -0.016,-3.132 L 22.438,4.895 c 0.985,-1.443 1.674,-3.101 1.987,-4.893 h 1.364 C 27.01,0.002 28,-0.983 28,-2.2 28,-3.417 27.01,-4.403 25.789,-4.403 h -1.377 c -0.327,-1.825 -1.05,-3.508 -2.07,-4.964 l 1.043,-1.05 c 0.863,-0.87 0.871,-2.271 0.014,-3.133 -0.852,-0.859 -2.246,-0.851 -3.108,0.018 l -1.064,1.07 c -1.433,-0.989 -3.081,-1.684 -4.862,-1.998 v -1.613 c 0,-1.231 -0.978,-2.228 -2.187,-2.228 -1.207,0 -2.189,0.997 -2.189,2.228 v 1.625 c -1.752,0.318 -3.377,1.01 -4.788,1.986 l -1.183,-1.19 c -0.866,-0.87 -2.257,-0.877 -3.113,-0.017 -0.853,0.858 -0.846,2.262 0.018,3.131 l 1.163,1.171 C 1.062,-7.911 0.34,-6.226 0.013,-4.4 l -0.117,-0.003 h -1.833 c -1.219,0 -2.209,0.986 -2.209,2.203 0,1.217 0.99,2.202 2.209,2.202 h 1.833" />
        </g>
        <g
           transform="translate(187.6074,69.5493)"
           id="g84">
          <path
             id="path86"
             style="fill:#d01942;fill-opacity:1;fill-rule:evenodd;stroke:none"
             d="m 0,0 h -2.626 c -0.813,0 -1.475,0.552 -1.475,1.232 0,0.681 0.662,1.233 1.475,1.233 h 2.619 C 0.223,4.656 1.069,6.661 2.358,8.3 l -1.779,1.786 c -0.576,0.579 -0.654,1.439 -0.177,1.921 0.478,0.481 1.333,0.402 1.91,-0.178 l 1.763,-1.776 c 1.635,1.343 3.654,2.234 5.863,2.48 l -0.007,2.404 c 0,0.819 0.548,1.483 1.222,1.483 0.677,0 1.225,-0.664 1.225,-1.483 v -2.398 c 2.237,-0.236 4.279,-1.132 5.932,-2.491 l 1.638,1.661 c 0.575,0.579 1.43,0.659 1.908,0.178 0.478,-0.482 0.399,-1.342 -0.175,-1.921 l -1.66,-1.67 C 21.31,6.658 22.156,4.654 22.385,2.465 h 2.168 c 0.812,0 1.472,-0.552 1.472,-1.233 C 26.025,0.552 25.365,0 24.553,0 H 22.378 C 22.132,-2.22 21.25,-4.246 19.919,-5.89 l 1.609,-1.629 c 0.576,-0.58 0.656,-1.439 0.176,-1.919 -0.476,-0.483 -1.332,-0.404 -1.908,0.176 l -1.625,1.637 c -1.625,-1.295 -3.613,-2.147 -5.787,-2.38 l -0.006,-2.421 c 0,-0.82 -0.548,-1.484 -1.225,-1.484 -0.674,0 -1.222,0.664 -1.222,1.484 v 2.429 C 7.784,-9.757 5.82,-8.909 4.212,-7.63 l -1.75,-1.753 c -0.575,-0.579 -1.43,-0.659 -1.907,-0.178 -0.48,0.482 -0.4,1.342 0.175,1.922 l 1.732,1.743 C 1.13,-4.251 0.245,-2.223 0,0 M 5.473,-3.385 C 4.634,-2.342 4.071,-1.064 3.896,0.333 L 7.61,0.327 C 7.711,-0.062 7.873,-0.43 8.087,-0.76 Z m 4.672,-2.674 c -1.27,0.182 -2.434,0.69 -3.408,1.437 l 2.635,2.645 c 0.24,-0.135 0.497,-0.246 0.768,-0.327 z m 5.557,1.485 C 14.635,-5.41 13.333,-5.957 11.913,-6.098 l -0.004,3.713 c 0.418,0.083 0.812,0.239 1.165,0.449 z m 2.777,4.887 c -0.174,-1.363 -0.717,-2.61 -1.525,-3.636 l -2.621,2.632 c 0.191,0.308 0.338,0.648 0.433,1.009 z m -1.429,5.42 c 0.781,-1.037 1.298,-2.288 1.445,-3.65 l -3.699,0.005 c -0.079,0.355 -0.209,0.69 -0.381,1 z M 11.896,8.634 C 13.377,8.491 14.731,7.906 15.824,7.011 L 13.21,4.386 C 12.818,4.644 12.375,4.828 11.899,4.921 Z M 6.614,7.061 C 7.606,7.855 8.811,8.398 10.125,8.59 L 10.13,4.835 C 9.813,4.739 9.512,4.603 9.234,4.428 Z M 3.885,2.104 c 0.154,1.38 0.686,2.647 1.49,3.691 L 8.002,3.157 C 7.812,2.832 7.669,2.477 7.583,2.099" />
        </g>
      </g>
    </g>
  </g>
</svg>
