<svg id="Layer_1" data-name="Layer 1" xmlns="http://www.w3.org/2000/svg" xmlns:xlink="http://www.w3.org/1999/xlink" viewBox="0 0 190 28.05">
  <defs>
    <style>
      .cls-1 {
        fill: #005596;
      }

      .cls-2 {
        fill: url(#linear-gradient);
      }

      .cls-3 {
        fill: #f9fafd;
      }

      .cls-4 {
        fill: #a5dff9;
      }

      .cls-5 {
        fill: #141a43;
      }

      .cls-6 {
        fill: url(#linear-gradient-2);
      }

      .cls-7 {
        fill: #fff;
      }
    </style>
    <linearGradient id="linear-gradient" x1="159.62" y1="31.29" x2="186.98" y2="7.89" gradientUnits="userSpaceOnUse">
      <stop offset="0" stop-color="#00aeef"/>
      <stop offset="0.52" stop-color="#005596"/>
      <stop offset="1" stop-color="#00bff3"/>
    </linearGradient>
    <linearGradient id="linear-gradient-2" x1="149.38" y1="35.23" x2="167.39" y2="5.61" xlink:href="#linear-gradient"/>
  </defs>
  <title>190x40_vector</title>
  <g>
    <g>
      <g>
        <path class="cls-1" d="M37.68,20.3q-0.91,0-1.81,0l-1.81,0-1.81.07v1.36q0,2,0,3.51t0.14,3a7.5,7.5,0,0,0-.88,0H29.42a7.47,7.47,0,0,0-.88,0q0.09-1.48.14-3t0-3.51V18.48q0-2,0-3.51t-0.14-3.08L29.42,12q0.48,0,1.07,0t1.07,0l0.88-.08q-0.12,1.55-.15,3.06t0,3.49l1.49,0H38l1.5,0q0-2,0-3.49T39.3,11.88L40.18,12c0.32,0,.68,0,1.07,0s0.75,0,1.07,0l0.88-.08q-0.1,1.55-.14,3.08t0,3.51v3.24q0,2,0,3.51t0.14,3a7.5,7.5,0,0,0-.88,0H40.18a7.48,7.48,0,0,0-.88,0q0.1-1.48.14-3t0-3.51V20.36Z" transform="translate(0 -5.98)"/>
        <path class="cls-1" d="M60.12,28.24q-0.57,0-1.08,0H57c-0.34,0-.68,0-1,0l-0.79-2.38q-0.41-1.21-.86-2.43l-1.52,0H50.07l-1.24,0q-0.48,1.22-.88,2.43t-0.74,2.38a3.37,3.37,0,0,0-.56,0H45.52a4.36,4.36,0,0,0-.62,0q0.29-.62.76-1.72t1-2.48l1.23-3q0.65-1.58,1.31-3.2l1.29-3.19q0.63-1.57,1.15-2.93l0.45,0.08a2.9,2.9,0,0,0,.9,0l0.45-.08,1.63,4.34Q56,18.4,56.88,20.63t1.71,4.23Q59.43,26.86,60.12,28.24ZM51.69,16.36q-0.62,1.43-1.17,2.82T49.45,22h4.36l-1-2.85Q52.26,17.78,51.69,16.36Z" transform="translate(0 -5.98)"/>
        <path class="cls-1" d="M62,15q0-1.54-.14-3.08L62.69,12q0.48,0,1.07,0t1.07,0l0.88-.08q-0.1,1.55-.14,3.08t0,3.51v3.24q0,1.36,0,2.62t0,2.19q1.36,0,2.71-.07T71,26.22c0,0.18-.06.33-0.07,0.48a7.53,7.53,0,0,0,0,1.19,1.72,1.72,0,0,0,.07.36l-1.58,0H62.28l-0.46,0q0.09-1.48.14-3t0-3.51V18.48Q62,16.5,62,15Z" transform="translate(0 -5.98)"/>
        <path class="cls-1" d="M76.67,25.29a26.54,26.54,0,0,0,.17,3,7.49,7.49,0,0,0-.88,0H73.82a7.47,7.47,0,0,0-.88,0q0.09-1.48.14-3t0-3.51V18.48q0-2,0-3.51t-0.14-3.08L73.82,12q0.48,0,1.07,0T76,12l0.88-.08A16.65,16.65,0,0,0,76.69,14q0,1.43,0,3.17v2.29q0.81-1,1.74-2.08l1.79-2.2q0.86-1.07,1.55-2t1-1.35L83.39,12a6.22,6.22,0,0,0,.67,0,6.6,6.6,0,0,0,.68,0l0.75-.08q-0.4.41-1.24,1.31l-1.78,2q-0.94,1-1.8,2l-1.33,1.56L81,21.31q0.93,1.41,1.85,2.75l1.7,2.48q0.79,1.13,1.26,1.7-0.69,0-1.24,0H82.5q-0.51,0-1,0-1.22-1.81-2.38-3.68T76.7,20.83h0Q76.65,23.43,76.67,25.29Z" transform="translate(0 -5.98)"/>
        <path class="cls-1" d="M87.29,15q-0.05-1.54-.16-3.08L88,12q0.48,0,1.07,0,1,0,2.14-.06t2.14-.06a8.29,8.29,0,0,1,2,.21,4.6,4.6,0,0,1,1.52.66,2.92,2.92,0,0,1,1,1.14,3.78,3.78,0,0,1,.35,1.68,3.3,3.3,0,0,1-.41,1.68,4.07,4.07,0,0,1-1,1.17,4.82,4.82,0,0,1-1.27.73,6.59,6.59,0,0,1-1.23.36v0a5.25,5.25,0,0,1,1.28.25,4.86,4.86,0,0,1,1.4.7,4.2,4.2,0,0,1,1.13,1.23,3.4,3.4,0,0,1,.46,1.82,4.76,4.76,0,0,1-.46,2.19,4.16,4.16,0,0,1-1.24,1.48,4.68,4.68,0,0,1-1.77.8,9.31,9.31,0,0,1-2.07.23l-1.77,0-1.72,0H88.21a9.58,9.58,0,0,0-1.08,0q0.11-1.48.16-3t0.05-3.51V18.48Q87.35,16.5,87.29,15Zm7.23,0a2.2,2.2,0,0,0-.44-0.88,2.29,2.29,0,0,0-.79-0.6,2.77,2.77,0,0,0-1.19-.23H91.38a3.37,3.37,0,0,0-.44.06q0,0.88-.07,1.79t0,1.52q0,0.64,0,1.23t0,1.2h1.07a2.7,2.7,0,0,0,1-.19,2.58,2.58,0,0,0,.87-0.56,2.76,2.76,0,0,0,.62-0.94A3.44,3.44,0,0,0,94.66,16,4.4,4.4,0,0,0,94.53,14.94Zm-0.45,6.29a2.8,2.8,0,0,0-2.18-.82h-1q0,0.5,0,1t0,1.27q0,0.57,0,1.17t0,1.17q0,0.57,0,1t0,0.79l0.62,0H92.2a2.41,2.41,0,0,0,1-.21A2.37,2.37,0,0,0,94,26.11a3.21,3.21,0,0,0,.57-1,4.06,4.06,0,0,0,.21-1.38A3.59,3.59,0,0,0,94.07,21.23Z" transform="translate(0 -5.98)"/>
        <path class="cls-1" d="M114.74,28.24q-0.57,0-1.08,0h-2q-0.51,0-1,0l-0.79-2.38q-0.41-1.21-.86-2.43l-1.52,0h-2.76l-1.24,0q-0.48,1.22-.88,2.43t-0.74,2.38a3.36,3.36,0,0,0-.56,0h-1.13a4.34,4.34,0,0,0-.62,0q0.29-.62.76-1.72t1-2.48l1.23-3q0.65-1.58,1.31-3.2l1.29-3.19q0.63-1.57,1.16-2.93l0.45,0.08a2.9,2.9,0,0,0,.91,0l0.45-.08,1.63,4.34q0.87,2.31,1.75,4.54t1.72,4.23Q114,26.86,114.74,28.24Zm-8.43-11.89q-0.62,1.43-1.17,2.82T104.07,22h4.36q-0.52-1.45-1-2.85T106.31,16.36Z" transform="translate(0 -5.98)"/>
        <path class="cls-1" d="M116.79,13.85q0-1.12-.07-2a4.87,4.87,0,0,0,2.14,0q2.6,2.88,5.13,5.67t5.21,5.67V18.83q0-1.17,0-2.3t0-2.08q0-1,0-1.64a7.89,7.89,0,0,0-.08-0.93,4.88,4.88,0,0,0,2.14,0Q131.05,14,131,15.8t-0.12,3.3q0,1.55-.06,3.06t0,3.23v2.86a9.69,9.69,0,0,0-1,0,7.94,7.94,0,0,0-.93,0Q124,22.52,118.48,16.74q0,0.69,0,1.38t0,1.41v2.76q0,1.43,0,2.43t0,1.69q0,0.69,0,1.13c0,0.29,0,.53,0,0.7a3.44,3.44,0,0,0-.57,0h-0.55q-0.55,0-1.1,0a13.12,13.12,0,0,0,.12-1.36q0.07-1.17.15-2.85t0.14-3.64q0.06-2,.06-3.78Q116.83,15,116.79,13.85Z" transform="translate(0 -5.98)"/>
        <path class="cls-1" d="M137.91,25.29a26.56,26.56,0,0,0,.17,3,7.47,7.47,0,0,0-.88,0h-2.14a7.48,7.48,0,0,0-.88,0q0.1-1.48.14-3t0-3.51V18.48q0-2,0-3.51t-0.14-3.08L135.06,12c0.32,0,.68,0,1.07,0s0.75,0,1.07,0l0.88-.08a16.66,16.66,0,0,0-.15,2.14q0,1.43,0,3.17v2.29q0.81-1,1.74-2.08l1.79-2.2q0.86-1.07,1.55-2t1-1.35L144.63,12a6.24,6.24,0,0,0,.67,0,6.57,6.57,0,0,0,.68,0l0.75-.08q-0.41.41-1.24,1.31l-1.77,2q-0.94,1-1.8,2l-1.33,1.56,1.69,2.57q0.93,1.41,1.85,2.75l1.7,2.48q0.79,1.13,1.26,1.7-0.69,0-1.24,0h-2.11q-0.51,0-1,0-1.21-1.81-2.38-3.68t-2.38-3.73h0Q137.89,23.43,137.91,25.29Z" transform="translate(0 -5.98)"/>
      </g>
      <g>
        <polygon class="cls-1" points="0 8.01 0 8.81 0 9.62 0 10.42 0 11.22 0 12.02 0 12.82 0 13.62 0 14.43 0 15.23 0 16.03 0 16.83 0 17.63 0 18.43 0 19.23 0 20.04 0 20.84 0.8 20.84 0.8 20.04 0.8 19.23 0.8 18.43 0.8 17.63 0.8 16.83 0.8 16.03 0.8 15.23 0.8 14.43 0.8 13.62 0.8 12.82 0.8 12.02 0.8 11.22 0.8 10.42 0.8 9.62 0.8 8.81 0.8 8.01 0.8 7.21 0 7.21 0 8.01"/>
        <polygon class="cls-1" points="1.6 5.61 1.6 6.41 1.6 7.21 1.6 8.01 1.6 8.81 1.6 9.62 1.6 10.42 1.6 11.22 1.6 12.02 1.6 12.82 1.6 13.62 1.6 14.43 1.6 15.23 1.6 16.03 1.6 16.83 1.6 17.63 1.6 18.43 1.6 19.23 1.6 20.04 1.6 20.84 1.6 21.64 1.6 22.44 1.6 23.24 2.4 23.24 2.4 22.44 2.4 21.64 2.4 20.84 2.4 20.04 2.4 19.23 2.4 18.43 2.4 17.63 2.4 16.83 2.4 16.03 2.4 15.23 2.4 14.43 2.4 13.62 2.4 12.82 2.4 12.02 2.4 11.22 2.4 10.42 2.4 9.62 2.4 8.81 2.4 8.01 2.4 7.21 2.4 6.41 2.4 5.61 2.4 4.81 1.6 4.81 1.6 5.61"/>
        <polygon class="cls-1" points="3.21 3.21 3.21 4.01 3.21 4.81 3.21 5.61 3.21 6.41 3.21 7.21 3.21 8.01 3.21 8.81 3.21 9.62 3.21 10.42 3.21 11.22 3.21 12.02 3.21 12.82 3.21 13.62 3.21 14.43 3.21 15.23 3.21 16.03 3.21 16.83 3.21 17.63 3.21 18.43 3.21 19.23 3.21 20.04 3.21 20.84 3.21 21.64 3.21 22.44 3.21 23.24 3.21 24.04 3.21 24.84 3.21 25.64 4.01 25.64 4.01 24.84 4.01 24.04 4.01 23.24 4.01 22.44 4.01 21.64 4.01 20.84 4.01 20.04 4.01 19.23 4.01 18.43 4.01 17.63 4.01 16.83 4.01 16.03 4.01 15.23 4.01 14.43 4.01 13.62 4.01 12.82 4.01 12.02 4.01 11.22 4.01 10.42 4.01 9.62 4.01 8.81 4.01 8.01 4.01 7.21 4.01 6.41 4.01 5.61 4.01 4.81 4.01 4.01 4.01 3.21 4.01 2.4 3.21 2.4 3.21 3.21"/>
        <polygon class="cls-1" points="8.01 12.82 8.81 12.82 9.62 12.82 10.42 12.82 11.22 12.82 12.02 12.82 12.82 12.82 13.62 12.82 14.42 12.82 15.23 12.82 16.03 12.82 16.83 12.82 16.83 12.02 16.83 11.22 16.83 10.42 16.83 9.62 16.83 8.81 16.83 8.01 16.83 7.21 16.83 6.41 16.83 5.61 16.83 4.81 16.83 4.01 16.83 3.21 16.83 2.4 16.03 2.4 16.03 3.21 16.03 4.01 16.03 4.81 16.03 5.61 16.03 6.41 16.03 7.21 16.03 8.01 16.03 8.81 16.03 9.62 16.03 10.42 16.03 11.22 16.03 12.02 15.23 12.02 14.42 12.02 13.62 12.02 12.82 12.02 12.02 12.02 11.22 12.02 10.42 12.02 9.62 12.02 8.81 12.02 8.01 12.02 7.21 12.02 7.21 11.22 7.21 10.42 7.21 9.62 7.21 8.81 7.21 8.01 7.21 7.21 7.21 6.41 7.21 5.61 7.21 4.81 7.21 4.01 7.21 3.21 7.21 2.4 6.41 2.4 6.41 3.21 6.41 4.01 6.41 4.81 6.41 5.61 6.41 6.41 6.41 7.21 6.41 8.01 6.41 8.81 6.41 9.62 6.41 10.42 6.41 11.22 6.41 12.02 6.41 12.82 7.21 12.82 8.01 12.82"/>
        <polygon class="cls-1" points="9.62 11.22 10.42 11.22 11.22 11.22 12.02 11.22 12.82 11.22 13.62 11.22 14.42 11.22 15.23 11.22 15.23 10.42 15.23 9.62 15.23 8.81 15.23 8.01 15.23 7.21 15.23 6.41 15.23 5.61 15.23 4.81 14.42 4.81 14.42 5.61 14.42 6.41 14.42 7.21 14.42 8.01 14.42 8.81 14.42 9.62 14.42 10.42 13.62 10.42 12.82 10.42 12.02 10.42 11.22 10.42 10.42 10.42 9.62 10.42 8.81 10.42 8.81 9.62 8.81 8.81 8.81 8.01 8.81 7.21 8.81 6.41 8.81 5.61 8.81 4.81 8.01 4.81 8.01 5.61 8.01 6.41 8.01 7.21 8.01 8.01 8.01 8.81 8.01 9.62 8.01 10.42 8.01 11.22 8.81 11.22 9.62 11.22"/>
        <polygon class="cls-1" points="11.22 9.62 12.02 9.62 12.82 9.62 13.62 9.62 13.62 8.81 13.62 8.01 13.62 7.21 12.82 7.21 12.82 8.01 12.82 8.81 12.02 8.81 11.22 8.81 10.42 8.81 10.42 8.01 10.42 7.21 9.62 7.21 9.62 8.01 9.62 8.81 9.62 9.62 10.42 9.62 11.22 9.62"/>
        <polygon class="cls-1" points="12.02 18.43 11.22 18.43 10.42 18.43 9.62 18.43 9.62 19.23 9.62 20.04 9.62 20.84 10.42 20.84 10.42 20.04 10.42 19.23 11.22 19.23 12.02 19.23 12.82 19.23 12.82 20.04 12.82 20.84 13.62 20.84 13.62 20.04 13.62 19.23 13.62 18.43 12.82 18.43 12.02 18.43"/>
        <polygon class="cls-1" points="13.62 16.83 12.82 16.83 12.02 16.83 11.22 16.83 10.42 16.83 9.62 16.83 8.81 16.83 8.01 16.83 8.01 17.63 8.01 18.43 8.01 19.23 8.01 20.04 8.01 20.84 8.01 21.64 8.01 22.44 8.01 23.24 8.81 23.24 8.81 22.44 8.81 21.64 8.81 20.84 8.81 20.04 8.81 19.23 8.81 18.43 8.81 17.63 9.62 17.63 10.42 17.63 11.22 17.63 12.02 17.63 12.82 17.63 13.62 17.63 14.42 17.63 14.42 18.43 14.42 19.23 14.42 20.04 14.42 20.84 14.42 21.64 14.42 22.44 14.42 23.24 15.23 23.24 15.23 22.44 15.23 21.64 15.23 20.84 15.23 20.04 15.23 19.23 15.23 18.43 15.23 17.63 15.23 16.83 14.42 16.83 13.62 16.83"/>
        <polygon class="cls-1" points="15.23 15.23 14.42 15.23 13.62 15.23 12.82 15.23 12.02 15.23 11.22 15.23 10.42 15.23 9.62 15.23 8.81 15.23 8.01 15.23 7.21 15.23 6.41 15.23 6.41 16.03 6.41 16.83 6.41 17.63 6.41 18.43 6.41 19.23 6.41 20.04 6.41 20.84 6.41 21.64 6.41 22.44 6.41 23.24 6.41 24.04 6.41 24.84 6.41 25.64 7.21 25.64 7.21 24.84 7.21 24.04 7.21 23.24 7.21 22.44 7.21 21.64 7.21 20.84 7.21 20.04 7.21 19.23 7.21 18.43 7.21 17.63 7.21 16.83 7.21 16.03 8.01 16.03 8.81 16.03 9.62 16.03 10.42 16.03 11.22 16.03 12.02 16.03 12.82 16.03 13.62 16.03 14.42 16.03 15.23 16.03 16.03 16.03 16.03 16.83 16.03 17.63 16.03 18.43 16.03 19.23 16.03 20.04 16.03 20.84 16.03 21.64 16.03 22.44 16.03 23.24 16.03 24.04 16.03 24.84 16.03 25.64 16.83 25.64 16.83 24.84 16.83 24.04 16.83 23.24 16.83 22.44 16.83 21.64 16.83 20.84 16.83 20.04 16.83 19.23 16.83 18.43 16.83 17.63 16.83 16.83 16.83 16.03 16.83 15.23 16.03 15.23 15.23 15.23"/>
        <polygon class="cls-1" points="19.23 3.21 19.23 4.01 19.23 4.81 19.23 5.61 19.23 6.41 19.23 7.21 19.23 8.01 19.23 8.81 19.23 9.62 19.23 10.42 19.23 11.22 19.23 12.02 19.23 12.82 19.23 13.62 19.23 14.43 19.23 15.23 19.23 16.03 19.23 16.83 19.23 17.63 19.23 18.43 19.23 19.23 19.23 20.04 19.23 20.84 19.23 21.64 19.23 22.44 19.23 23.24 19.23 24.04 19.23 24.84 19.23 25.64 20.03 25.64 20.03 24.84 20.03 24.04 20.03 23.24 20.03 22.44 20.03 21.64 20.03 20.84 20.03 20.04 20.03 19.23 20.03 18.43 20.03 17.63 20.03 16.83 20.03 16.03 20.03 15.23 20.03 14.43 20.03 13.62 20.03 12.82 20.03 12.02 20.03 11.22 20.03 10.42 20.03 9.62 20.03 8.81 20.03 8.01 20.03 7.21 20.03 6.41 20.03 5.61 20.03 4.81 20.03 4.01 20.03 3.21 20.03 2.4 19.23 2.4 19.23 3.21"/>
        <polygon class="cls-1" points="20.84 5.61 20.84 6.41 20.84 7.21 20.84 8.01 20.84 8.81 20.84 9.62 20.84 10.42 20.84 11.22 20.84 12.02 20.84 12.82 20.84 13.62 20.84 14.43 20.84 15.23 20.84 16.03 20.84 16.83 20.84 17.63 20.84 18.43 20.84 19.23 20.84 20.04 20.84 20.84 20.84 21.64 20.84 22.44 20.84 23.24 21.64 23.24 21.64 22.44 21.64 21.64 21.64 20.84 21.64 20.04 21.64 19.23 21.64 18.43 21.64 17.63 21.64 16.83 21.64 16.03 21.64 15.23 21.64 14.43 21.64 13.62 21.64 12.82 21.64 12.02 21.64 11.22 21.64 10.42 21.64 9.62 21.64 8.81 21.64 8.01 21.64 7.21 21.64 6.41 21.64 5.61 21.64 4.81 20.84 4.81 20.84 5.61"/>
        <polygon class="cls-1" points="17.63 0.8 17.63 1.6 17.63 2.4 17.63 3.21 17.63 4.01 17.63 4.81 17.63 5.61 17.63 6.41 17.63 7.21 17.63 8.01 17.63 8.81 17.63 9.62 17.63 10.42 17.63 11.22 17.63 12.02 17.63 12.82 17.63 13.62 16.83 13.62 16.03 13.62 15.23 13.62 14.42 13.62 13.62 13.62 12.82 13.62 12.02 13.62 11.22 13.62 10.42 13.62 9.62 13.62 8.81 13.62 8.01 13.62 7.21 13.62 6.41 13.62 5.61 13.62 5.61 12.82 5.61 12.02 5.61 11.22 5.61 10.42 5.61 9.62 5.61 8.81 5.61 8.01 5.61 7.21 5.61 6.41 5.61 5.61 5.61 4.81 5.61 4.01 5.61 3.21 5.61 2.4 5.61 1.6 5.61 0.8 5.61 0 4.81 0 4.81 0.8 4.81 1.6 4.81 2.4 4.81 3.21 4.81 4.01 4.81 4.81 4.81 5.61 4.81 6.41 4.81 7.21 4.81 8.01 4.81 8.81 4.81 9.62 4.81 10.42 4.81 11.22 4.81 12.02 4.81 12.82 4.81 13.62 4.81 14.43 4.81 15.23 4.81 16.03 4.81 16.83 4.81 17.63 4.81 18.43 4.81 19.23 4.81 20.04 4.81 20.84 4.81 21.64 4.81 22.44 4.81 23.24 4.81 24.04 4.81 24.84 4.81 25.64 4.81 26.45 4.81 27.25 4.81 28.05 5.61 28.05 5.61 27.25 5.61 26.45 5.61 25.64 5.61 24.84 5.61 24.04 5.61 23.24 5.61 22.44 5.61 21.64 5.61 20.84 5.61 20.04 5.61 19.23 5.61 18.43 5.61 17.63 5.61 16.83 5.61 16.03 5.61 15.23 5.61 14.43 6.41 14.43 7.21 14.43 8.01 14.43 8.81 14.43 9.62 14.43 10.42 14.43 11.22 14.43 12.02 14.43 12.82 14.43 13.62 14.43 14.42 14.43 15.23 14.43 16.03 14.43 16.83 14.43 17.63 14.43 17.63 15.23 17.63 16.03 17.63 16.83 17.63 17.63 17.63 18.43 17.63 19.23 17.63 20.04 17.63 20.84 17.63 21.64 17.63 22.44 17.63 23.24 17.63 24.04 17.63 24.84 17.63 25.64 17.63 26.45 17.63 27.25 17.63 28.05 18.43 28.05 18.43 27.25 18.43 26.45 18.43 25.64 18.43 24.84 18.43 24.04 18.43 23.24 18.43 22.44 18.43 21.64 18.43 20.84 18.43 20.04 18.43 19.23 18.43 18.43 18.43 17.63 18.43 16.83 18.43 16.03 18.43 15.23 18.43 14.43 18.43 13.62 18.43 12.82 18.43 12.02 18.43 11.22 18.43 10.42 18.43 9.62 18.43 8.81 18.43 8.01 18.43 7.21 18.43 6.41 18.43 5.61 18.43 4.81 18.43 4.01 18.43 3.21 18.43 2.4 18.43 1.6 18.43 0.8 18.43 0 17.63 0 17.63 0.8"/>
        <polygon class="cls-1" points="22.44 7.21 22.44 8.01 22.44 8.81 22.44 9.62 22.44 10.42 22.44 11.22 22.44 12.02 22.44 12.82 22.44 13.62 22.44 14.43 22.44 15.23 22.44 16.03 22.44 16.83 22.44 17.63 22.44 18.43 22.44 19.23 22.44 20.04 22.44 20.84 23.24 20.84 23.24 20.04 23.24 19.23 23.24 18.43 23.24 17.63 23.24 16.83 23.24 16.03 23.24 15.23 23.24 14.43 23.24 13.62 23.24 12.82 23.24 12.02 23.24 11.22 23.24 10.42 23.24 9.62 23.24 8.81 23.24 8.01 23.24 7.21 22.44 7.21"/>
      </g>
    </g>
    <g>
      <path class="cls-2" d="M172.62,8.52a11.6,11.6,0,0,0-7.78,3,5.48,5.48,0,0,1,.79,2.9,5.34,5.34,0,0,1-3,4.71q4,2.06,4,5.78a6.74,6.74,0,0,1-1.41,4.28A11.65,11.65,0,1,0,172.62,8.52Z" transform="translate(0 -5.98)"/>
      <circle class="cls-3" cx="172.62" cy="14.19" r="6.49"/>
      <circle class="cls-4" cx="172.62" cy="14.19" r="4.22"/>
      <circle class="cls-5" cx="172.62" cy="14.19" r="1.51"/>
      <path class="cls-6" d="M162.05,18.86q4,2.06,4,5.78a6.71,6.71,0,0,1-2.14,5.08,7.8,7.8,0,0,1-5.6,2,7.63,7.63,0,0,1-5.55-2,6.57,6.57,0,0,1-2.09-4.89q0-3.88,4.06-6a5.33,5.33,0,0,1-3-4.77,5.5,5.5,0,0,1,2-4.17,7.12,7.12,0,0,1,9.42,0A5.55,5.55,0,0,1,165,14.15,5.35,5.35,0,0,1,162.05,18.86Zm-3.72,9.74a4.4,4.4,0,0,0,3.13-1.14,3.66,3.66,0,0,0,0-5.49,4.32,4.32,0,0,0-3-1.17A4.38,4.38,0,0,0,155.28,22a3.75,3.75,0,0,0-1.3,2.84,3.42,3.42,0,0,0,1.21,2.69A4.58,4.58,0,0,0,158.33,28.6Zm0.08-11.48a3.21,3.21,0,0,0,2.26-.91,2.78,2.78,0,0,0,1-2.08,2.59,2.59,0,0,0-.91-2,3.37,3.37,0,0,0-2.35-.82,3.47,3.47,0,0,0-2.37.82,2.56,2.56,0,0,0-.94,2,2.74,2.74,0,0,0,1,2.08A3.37,3.37,0,0,0,158.41,17.12Z" transform="translate(0 -5.98)"/>
      <path class="cls-7" d="M189.08,17c-0.87.1-1,1.54-1,1.54,0.21-1.09,1.56-1.87,1.36-.46a3.43,3.43,0,0,1-.11.5,8.85,8.85,0,0,1-.61,1.22l-0.08.12-0.07.09a8.68,8.68,0,0,1-.76.93l-0.37.34-0.17.15-0.13.1-0.16.11a0.74,0.74,0,0,1-.4.15,0.66,0.66,0,0,1-.57-0.3,1.34,1.34,0,0,1-.21-0.78,3.39,3.39,0,0,1,.08-0.6,15.41,15.41,0,0,0,2.36-3.1,5.53,5.53,0,0,0,.85-2.56A1.49,1.49,0,0,0,189,14a0.2,0.2,0,0,0-.21-0.14,0.76,0.76,0,0,0-.35.13,4.67,4.67,0,0,0-1.2,1.13A13.41,13.41,0,0,0,186,17a13.09,13.09,0,0,0-1,2.13,6.38,6.38,0,0,0-.34,1.5,8.84,8.84,0,0,1-.94.7,1.51,1.51,0,0,1-.77.26,0.76,0.76,0,0,1-.52-0.18,0.58,0.58,0,0,1-.2-0.45,0.87,0.87,0,0,1,.2-0.56,11.87,11.87,0,0,1,.85-0.88,3.29,3.29,0,0,0,.53-0.73,1.77,1.77,0,0,0,.29-0.75,0.36,0.36,0,0,0-.46-0.35q-0.88,0-1.95,1.65-0.23.37-.31,0.54a2.09,2.09,0,0,0-.14.44c0,0.07,0,.14,0,0.21-0.28.23-.53,0.43-0.72,0.6l-0.8.74-0.92.89-0.46.45q0.51-1,1-1.76t1-1.51q0.49-.73.67-1a1.05,1.05,0,0,0,.18-0.51,1.07,1.07,0,0,0-.1-0.53,0.28,0.28,0,0,0-.29-0.16,0.39,0.39,0,0,0-.22.13,3.86,3.86,0,0,0-.31.36l-0.42.51q-0.23.27-.58,0.62a12.45,12.45,0,0,1-1.68,1.43c-0.25.17-.45,0.3-0.62,0.39s-0.41,0-.38-0.33a1.14,1.14,0,0,1,.38-0.67q0.53-.47.87-0.83a6.6,6.6,0,0,0,.65-0.8,1,1,0,0,0,.21-0.46,0.64,0.64,0,0,0-.19-0.43,0.54,0.54,0,0,0-.39-0.21,1,1,0,0,0-.45.24,6.35,6.35,0,0,0-.74.68,10.29,10.29,0,0,0-.88,1.08,5.21,5.21,0,0,0-.45.77,1.78,1.78,0,0,0-.13.72,2.79,2.79,0,0,0,.32,1.17,0.94,0.94,0,0,0,.61.67,3,3,0,0,0,1.27-.83L179,20.79A41.15,41.15,0,0,0,176.57,25a0.84,0.84,0,0,0-.08.38,1.52,1.52,0,0,0,.12.55,0.39,0.39,0,0,0,.28.31,0.29,0.29,0,0,0,.18-0.12q0.11-.12.27-0.35l0.36-.49,0.52-.68q0.45-.58,1.27-1.56t1.75-2a3.24,3.24,0,0,0,.29,1.22,1,1,0,0,0,.91.64,1.91,1.91,0,0,0,1.07-.48,7.16,7.16,0,0,0,1.2-1.21,3,3,0,0,0,.29,1.22,0.92,0.92,0,0,0,.83.58,2,2,0,0,0,1.21-.59h0A7.23,7.23,0,0,0,189.12,20C190.24,18.25,189.79,16.9,189.08,17Zm-2.13-.11a4.9,4.9,0,0,1,1-1.46,0.44,0.44,0,0,1,.17-0.08q0.12,0,.12.17a2,2,0,0,1-.18.67,8.57,8.57,0,0,1-.51,1,10.88,10.88,0,0,1-.68,1,7.49,7.49,0,0,1-.75.87A8.73,8.73,0,0,1,186.95,16.87Z" transform="translate(0 -5.98)"/>
      <path class="cls-5" d="M189.29,16.57c-0.87.1-1,1.54-1,1.54,0.21-1.09,1.56-1.87,1.36-.46a3.43,3.43,0,0,1-.11.5,8.74,8.74,0,0,1-.61,1.22l-0.08.12-0.07.09a8.68,8.68,0,0,1-.76.93l-0.37.34-0.17.15-0.13.1-0.16.11a0.74,0.74,0,0,1-.4.15,0.66,0.66,0,0,1-.57-0.3A1.34,1.34,0,0,1,186,20.3a3.44,3.44,0,0,1,.07-0.6,15.39,15.39,0,0,0,2.36-3.1,5.53,5.53,0,0,0,.85-2.56,1.51,1.51,0,0,0-.05-0.48,0.2,0.2,0,0,0-.21-0.14,0.76,0.76,0,0,0-.35.13,4.68,4.68,0,0,0-1.2,1.13,13.46,13.46,0,0,0-1.25,1.89,13.14,13.14,0,0,0-1,2.13,6.4,6.4,0,0,0-.34,1.5,8.75,8.75,0,0,1-.94.7,1.51,1.51,0,0,1-.77.26,0.76,0.76,0,0,1-.52-0.18,0.58,0.58,0,0,1-.2-0.45,0.87,0.87,0,0,1,.2-0.56,11.91,11.91,0,0,1,.85-0.88,3.29,3.29,0,0,0,.53-0.73,1.77,1.77,0,0,0,.3-0.75,0.36,0.36,0,0,0-.46-0.35q-0.88,0-1.95,1.65-0.22.37-.31,0.54a2.09,2.09,0,0,0-.14.44c0,0.07,0,.14,0,0.21-0.28.23-.53,0.43-0.72,0.6l-0.8.74-0.92.89-0.46.45q0.51-1,1-1.76t1-1.51q0.49-.73.67-1a1,1,0,0,0,.07-1,0.28,0.28,0,0,0-.29-0.16,0.39,0.39,0,0,0-.22.13,3.84,3.84,0,0,0-.31.36L180,18.3q-0.23.27-.58,0.62a12.46,12.46,0,0,1-1.68,1.43c-0.25.17-.45,0.3-0.62,0.39s-0.41,0-.38-0.33a1.14,1.14,0,0,1,.38-0.67q0.53-.47.87-0.83a6.62,6.62,0,0,0,.65-0.8,1,1,0,0,0,.21-0.46,0.64,0.64,0,0,0-.19-0.43A0.54,0.54,0,0,0,178.3,17a1,1,0,0,0-.45.24,6.35,6.35,0,0,0-.74.68,10.19,10.19,0,0,0-.88,1.08,5.2,5.2,0,0,0-.45.77,1.77,1.77,0,0,0-.13.72,2.78,2.78,0,0,0,.32,1.17,1,1,0,0,0,.61.67,3,3,0,0,0,1.27-.83l1.33-1.13a41.2,41.2,0,0,0-2.42,4.21,0.84,0.84,0,0,0-.08.38,1.53,1.53,0,0,0,.12.55,0.39,0.39,0,0,0,.28.31,0.29,0.29,0,0,0,.18-0.12,4.41,4.41,0,0,0,.27-0.35l0.36-.49,0.52-.68q0.45-.58,1.27-1.56t1.75-2a3.24,3.24,0,0,0,.29,1.22,1,1,0,0,0,.91.64,1.91,1.91,0,0,0,1.07-.48,7.14,7.14,0,0,0,1.2-1.21,3,3,0,0,0,.29,1.22,0.92,0.92,0,0,0,.83.58,2,2,0,0,0,1.21-.59h0a7.25,7.25,0,0,0,2.08-2.41C190.44,17.84,190,16.49,189.29,16.57Zm-2.13-.11a4.9,4.9,0,0,1,1-1.46,0.44,0.44,0,0,1,.17-0.08q0.12,0,.12.17a2,2,0,0,1-.18.67,8.56,8.56,0,0,1-.51,1,10.88,10.88,0,0,1-.68,1,7.46,7.46,0,0,1-.75.87A8.71,8.71,0,0,1,187.15,16.46Z" transform="translate(0 -5.98)"/>
    </g>
  </g>
</svg>
