<?xml version="1.0" encoding="utf-8"?>
<!-- Generator: Adobe Illustrator 23.0.2, SVG Export Plug-In . SVG Version: 6.00 Build 0)  -->
<svg version="1.1" id="Layer_1" xmlns="http://www.w3.org/2000/svg" xmlns:xlink="http://www.w3.org/1999/xlink" x="0px" y="0px"
	 viewBox="0 0 449.5 320.6" style="enable-background:new 0 0 449.5 320.6;" xml:space="preserve">
<style type="text/css">
	.st0{fill:#038341;}
	.st1{fill-rule:evenodd;clip-rule:evenodd;fill:#027146;}
	.st2{fill-rule:evenodd;clip-rule:evenodd;fill:#7EC462;}
</style>
<g>
	<path class="st0" d="M27.6,131.7c-4.7,0.3-8.6,4.4-8.6,9c-0.1,4.7,3.7,8.1,8.3,7.8c4.7-0.3,8.6-4.4,8.7-9.1
		C36,134.8,32.3,131.3,27.6,131.7z"/>
	<path class="st0" d="M61.2,78.7c4.7-0.3,8.6-4.4,8.6-9c0.1-4.7-3.7-8.1-8.3-7.8c-4.7,0.3-8.6,4.4-8.6,9.1
		C52.8,75.6,56.5,79.1,61.2,78.7z"/>
	<path class="st0" d="M76.5,43.9c4.7-0.3,8.6-4.4,8.6-9.1c0.1-4.7-3.7-8.1-8.4-7.8c-4.7,0.3-8.6,4.4-8.6,9
		C68,40.8,71.8,44.3,76.5,43.9z"/>
	<path class="st0" d="M64.7,162.6l-15.8,1.2c-11.2,0.8-11.5,17.7-0.3,16.9l15.8-1.2C75.6,178.6,75.9,161.8,64.7,162.6z"/>
	<path class="st0" d="M338.5,7.8l-133.1,9.8c-4.3,0.3-13.7,1-13.7,1l-70.4,5.2c-11.2,0.8-11.5,17.7-0.3,16.8l2.4-0.2
		c11.2-0.8,11,16-0.3,16.8l-31.8,2.3c-11.2,0.8-11.5,17.7-0.3,16.8l13.5-1l4.4-0.3c11.2-0.8,10.9,16-0.3,16.8l-4.4,0.3l-41,3
		c-11.2,0.8-11.5,17.7-0.3,16.8l17.2-1.3l4.4-0.3c11.2-0.8,10.9,16-0.3,16.9l-4.4,0.3l-2.4,0.2c-11.2,0.8-11.5,17.7-0.3,16.8
		l35.9-2.6l4.4-0.3c11.2-0.8,10.9,16-0.3,16.8L113,159l-11.4,0.8c-11.2,0.8-11.5,17.7-0.3,16.9l87.8-6.5c2.4-0.2,4.7-0.5,7.1-0.8
		c2.2,0,4.4,0,6.6-0.2l133.1-9.8c41.5-3.1,75.7-39.5,76.4-81.3C413,36.2,380,4.8,338.5,7.8z M335.1,155.1l-126.4,9.3
		c-39.4,2.9-70.7-26.8-70-66.4c0.7-39.6,33.2-74,72.6-76.8l126.4-9.3c39.4-2.9,70.7,26.8,70,66.4
		C406.9,117.8,374.4,152.2,335.1,155.1z"/>
	<path class="st0" d="M29,97.9l-15.8,1.2c-11.2,0.8-11.5,17.7-0.3,16.8l15.8-1.2C40,113.9,40.3,97.1,29,97.9z"/>
</g>
<path class="st1" d="M360.1,52.5l-18,1.3l-1.3,75.3l-22.6,1.7l1.3-75.3l-18,1.3l0.4-19.9l58.7-4.3L360.1,52.5z M269.1,58.4
	l-0.5,26.3l22.6-1.7l-0.3,18.3l-22.6,1.7l-0.2,12.5l29.2-2.2l-0.3,19l-51.6,3.8L247,41l50.6-3.7l-0.3,19L269.1,58.4z M211.6,139.9
	c-11.7,0.9-18.1-1.7-23.9-8.2L201,116c1.9,2.1,4.1,3.6,7.5,3.4c3.6-0.3,6.2-2.7,6.3-7.9l1.2-68.2l22.6-1.7l-1.3,70.6
	C237.1,127.7,228.7,138.7,211.6,139.9z"/>
<path class="st2" d="M426.1,189.8l-31,2.5l-0.5,29.1l24.8-2l-0.4,20.3l-24.8,2l-0.2,13.8l32-2.5l-0.4,21l-56.5,4.5l1.9-105.2
	l55.5-4.4L426.1,189.8z M362.5,279l-56.9,4.5l1.9-105.2l24.8-2l-1.5,83.3l32-2.5L362.5,279z M274.4,277.2l-27.1,2.2l-2.9,9
	l-23.3,1.9l40.7-109.6l3.4-0.3l36.6,103.4l-24.7,2L274.4,277.2z M264.3,244.3c-1.4-4.5-2.6-9.7-2.7-10.1c-0.2,0.3-1.5,5.7-2.9,10.6
	l-5.2,15.6l15.3-1.2L264.3,244.3z M196.8,293.4L160.2,190l25.3-2l11,35.3c1.7,5.4,3.4,14.7,3.7,16.1c0.2-0.9,2.3-10.8,4.4-16.7
	l12.3-37.1l23.9-1.9l-40.7,109.6L196.8,293.4z M151.6,295.7l-2.6-8.6l-27.1,2.2l-2.9,9l-23.3,1.9l40.7-109.6l3.4-0.3l36.6,103.4
	L151.6,295.7z M138.9,254.3c-1.4-4.5-2.6-9.7-2.7-10.1c-0.2,0.3-1.5,5.7-2.9,10.6l-5.2,15.6l15.3-1.2L138.9,254.3z M66.9,302.5
	l0.6-33.3L45.1,271l-0.6,33.3l-24.8,2L21.5,201l24.8-2l-0.9,50l22.4-1.8l0.9-50l24.8-2l-1.9,105.2L66.9,302.5z"/>
</svg>
