<svg xmlns="http://www.w3.org/2000/svg" viewBox="0 0 46.51 25.1"><defs><style>.cls-1{fill:#9b9b9b;}</style></defs><title>allprovider-g</title><g id="Layer_2" data-name="Layer 2"><g id="Layer_1-2" data-name="Layer 1"><path class="cls-1" d="M13.55,9.76h-1v.09a.42.42,0,0,1-.1.32.36.36,0,0,1-.29.11,3.36,3.36,0,0,1-.92-.34,3.25,3.25,0,0,0-1.34-.35A1.58,1.58,0,0,0,9,9.85a1.9,1.9,0,0,0-.64.78l0-.87H7v4H8.33a1.64,1.64,0,0,0,0-.2v-.29a2.07,2.07,0,0,1,.2-1.06.71.71,0,0,1,.66-.32,3.43,3.43,0,0,1,.66.12,4.39,4.39,0,0,0,.91.12,1.89,1.89,0,0,0,.53-.08,2.76,2.76,0,0,0,.54-.22,14.58,14.58,0,0,1-1.16,1.32,12.18,12.18,0,0,0-1,1.19,5.43,5.43,0,0,0-.79,1.63,6.72,6.72,0,0,0-.25,1.88v.29c0,.07,0,.13,0,.18h2.47V18a9.69,9.69,0,0,1,.26-2.3,11.1,11.1,0,0,1,1-2.46l.2-.41a7,7,0,0,0,1-2.76.88.88,0,0,0,0-.16A.42.42,0,0,0,13.55,9.76Z"/><path class="cls-1" d="M43.51,4.22v7.33a.91.91,0,1,0,1.81,0V4.22a2,2,0,0,1-1.81,0Z"/><path class="cls-1" d="M44.42,4a2,2,0,1,0-2-2A2,2,0,0,0,44.42,4Z"/><path class="cls-1" d="M45.75,9.15v2.41a1.33,1.33,0,1,1-2.67,0V9.15h-.77v9.57h3.37a.83.83,0,0,0,.83-.83V10A.83.83,0,0,0,45.75,9.15Z"/><path class="cls-1" d="M37.64,2.77H4.25A4.26,4.26,0,0,0,0,7V20.85A4.26,4.26,0,0,0,4.25,25.1H37.64a4.26,4.26,0,0,0,4.25-4.25V7A4.26,4.26,0,0,0,37.64,2.77Zm1.91,18.08a1.91,1.91,0,0,1-1.91,1.91H4.25a1.92,1.92,0,0,1-1.91-1.91V7A1.92,1.92,0,0,1,4.25,5.11H37.64A1.91,1.91,0,0,1,39.55,7Z"/><path class="cls-1" d="M33.87,9.76v.09a.43.43,0,0,1-.1.32.38.38,0,0,1-.3.11,3.36,3.36,0,0,1-.92-.34,3.22,3.22,0,0,0-1.34-.35,1.58,1.58,0,0,0-.89.26,1.82,1.82,0,0,0-.63.78V9.76H28.33v4h1.35a1.38,1.38,0,0,1,0-.2,2.75,2.75,0,0,1,0-.29,2.07,2.07,0,0,1,.2-1.06.71.71,0,0,1,.66-.32,3.59,3.59,0,0,1,.66.12,4.25,4.25,0,0,0,.91.12,1.83,1.83,0,0,0,.52-.08,2.38,2.38,0,0,0,.54-.22A15.67,15.67,0,0,1,32,13.11a11.44,11.44,0,0,0-1,1.19,5.64,5.64,0,0,0-.79,1.63,6.72,6.72,0,0,0-.25,1.88v.29a1.38,1.38,0,0,1,0,.18h2.48V18a9.7,9.7,0,0,1,.26-2.3,12,12,0,0,1,1-2.46c0-.09.12-.23.21-.41a6.91,6.91,0,0,0,1-2.76V9.86a.41.41,0,0,1,0-.1Z"/><path class="cls-1" d="M23.19,9.76v.09a.4.4,0,0,1-.11.32.36.36,0,0,1-.29.11,3.36,3.36,0,0,1-.92-.34,3.25,3.25,0,0,0-1.34-.35,1.58,1.58,0,0,0-.89.26,1.9,1.9,0,0,0-.64.78l0-.87H17.66v4H19a1.65,1.65,0,0,0,0-.2v-.29a2.07,2.07,0,0,1,.2-1.06.71.71,0,0,1,.66-.32,3.59,3.59,0,0,1,.66.12,4.25,4.25,0,0,0,.9.12A1.84,1.84,0,0,0,22,12a2.76,2.76,0,0,0,.54-.22,14.58,14.58,0,0,1-1.16,1.32,12.17,12.17,0,0,0-1,1.19,5.43,5.43,0,0,0-.79,1.63,6.72,6.72,0,0,0-.25,1.88v.29a1.38,1.38,0,0,1,0,.18h2.48V18a9.7,9.7,0,0,1,.26-2.3,11.1,11.1,0,0,1,1-2.46l.2-.41a7,7,0,0,0,1-2.76V9.86s0-.07,0-.1Z"/><path class="cls-1" d="M37.64,5.84H4.25A1.18,1.18,0,0,0,3.08,7V20.85A1.18,1.18,0,0,0,4.25,22H37.64a1.18,1.18,0,0,0,1.18-1.18V7A1.18,1.18,0,0,0,37.64,5.84ZM15.25,19.37a1,1,0,0,1-1,1h-8a1,1,0,0,1-1-1V8.5a1,1,0,0,1,1-1h8a1,1,0,0,1,1,1Zm10.67,0a1,1,0,0,1-1,1H17a1,1,0,0,1-1-1V8.5a1,1,0,0,1,1-1h8a1,1,0,0,1,1,1Zm10.67,0a1,1,0,0,1-1,1h-8a1,1,0,0,1-1-1V8.5a1,1,0,0,1,1-1h8a1,1,0,0,1,1,1Z"/></g></g></svg>