<?xml version="1.0" encoding="utf-8"?>
<!-- Generator: Adobe Illustrator 22.1.0, SVG Export Plug-In . SVG Version: 6.00 Build 0)  -->
<svg version="1.1" id="图层_1" xmlns="http://www.w3.org/2000/svg" xmlns:xlink="http://www.w3.org/1999/xlink" x="0px" y="0px"
	 viewBox="0 0 103.4 84.4" style="enable-background:new 0 0 103.4 84.4;" xml:space="preserve">
<style type="text/css">
	.st0{fill:#C2C1C0;}
	.st1{fill:#FFFFFF;}
	.st2{fill:#0073AB;}
</style>
<path class="st0" d="M-334-253.1h9v29.7h0.2c1.9-5.6,6.8-8,17.1-8h13.8c21.8,0,28.4,6.1,28.4,23.2v9.5c0,18.5-11.5,22.6-27.9,22.6
	h-12.5c-9.5,0-16.8-2.8-19.5-9.4h-0.2v8.5h-8.4V-253.1z M-274.5-209.4c0-12.4-6.2-14.7-18.6-14.7h-12.2c-12.2,0-19.7,2.1-19.7,14.9
	v10.2c0,9.8,4.3,15.5,17.8,15.5h14.7c14.7,0,18-4.9,18-15.4C-274.5-198.9-274.5-209.4-274.5-209.4z"/>
<path class="st0" d="M-143.7-223.3h-11.8v-7.4h11.8v-12.6h9v12.7h35.9v7.4h-35.9v26.7c0,10,3.5,13,13.4,13h2.8
	c12,0,13.9-2.5,13.9-13.8v-4h7.4v5.9c0,10.7-1.1,19.2-20.6,19.2h-4.9c-16.9,0-20.9-8.2-20.9-16.9v-30.2H-143.7z"/>
<path class="st0" d="M-85.8-230.6h18.9v10.2h0.2c2.3-8.5,10.5-11,19.7-11c14.7,0,20.5,6.3,20.5,21.1c0,1.4-0.1,2.8-0.2,4.7h-17.5
	c0-6.8-1.6-10.1-9.7-10.1c-6.9,0-11.8,2.6-11.8,9v29.7h-20.2L-85.8-230.6L-85.8-230.6z"/>
<path class="st0" d="M-19-195.8c0-14.6,10.1-15.5,29.7-15.5c11,0,17.1,0.3,21,4.3v-4.7c0-5.3-1.6-7.2-9.5-7.2H10.3
	c-5.9,0-7.6,0.5-7.8,4.3h-19.6c0-14.5,7.2-16.9,24.2-16.9h23.5c13.9,0,21.2,6.6,21.2,19.2v35.2H32.7v-6.1c-5.6,5.8-7.7,6.9-17.8,6.9
	H1.1c-12.3,0.1-20.2-2.6-20.2-15.3L-19-195.8L-19-195.8z M17-188.8c13.9,0,15.1-2.1,15.1-5.7c0-4-1.2-5.5-12.3-5.5h-8.9
	c-8.5,0-10.3,1.9-10.3,6.3c0,3.5,2.7,4.8,10.6,4.8L17-188.8L17-188.8z"/>
<path class="st0" d="M62.1-208.6c0-13.7,3.2-22.8,28.7-22.8h6c8.3,0,16.8,2.3,18.1,10.7h0.2v-32.4h20.2v76.1h-18.9v-9.9h-0.3
	c-2.2,6.6-7.3,10.7-19.5,10.7h-5.9c-25.6,0-28.7-9.1-28.7-22.8v-9.6H62.1z M81.6-200.7c0,6,0.9,9.4,10.6,9.4h11.9
	c8,0,12.2-1.8,12.2-9.9v-5.3c0-8.1-4.2-9.9-12.2-9.9H92.2c-9.7,0-10.6,3.4-10.6,9.4V-200.7z"/>
<path class="st0" d="M146.5-195.8c0-14.6,10.1-15.5,29.7-15.5c11,0,17.1,0.3,21,4.3v-4.7c0-5.3-1.6-7.2-9.5-7.2h-11.9
	c-5.9,0-7.6,0.5-7.8,4.3h-19.6c0-14.5,7.2-16.9,24.2-16.9h23.5c13.9,0,21.2,6.6,21.2,19.2v35.2h-19.1v-6.1
	c-5.6,5.8-7.7,6.9-17.8,6.9h-13.8c-12.3,0.1-20.2-2.6-20.2-15.3L146.5-195.8L146.5-195.8z M182.4-188.8c13.9,0,15.1-2.1,15.1-5.7
	c0-4-1.2-5.5-12.3-5.5h-8.9c-8.5,0-10.3,1.9-10.3,6.3c0,3.5,2.7,4.8,10.6,4.8L182.4-188.8L182.4-188.8z"/>
<path class="st0" d="M230.3-230.6h18.9v10.2h0.2c2.3-8.5,10.5-11,19.7-11c14.7,0,20.5,6.3,20.5,21.1c0,1.4-0.1,2.8-0.2,4.7h-17.5
	c0-6.8-1.6-10.1-9.7-10.1c-6.9,0-11.8,2.6-11.8,9v29.7h-20.2L230.3-230.6L230.3-230.6z"/>
<g>
	<path class="st0" d="M2.8-127.6H0.1v-2.7l0,0c-0.8,2.1-3.2,3-6.2,3h-4c-5.2,0-8.9-1.3-8.9-7.2v-3c0-5.5,2.1-7.4,9-7.4h4.4
		c3.3,0,4.9,0.8,5.5,2.5H0v-9.4h2.9L2.8-127.6L2.8-127.6z M-16.1-134.6c0,3.3,1,4.9,5.7,4.9h4.7c4.3,0,5.7-1.8,5.7-4.9v-3.2
		c0-4.1-2.4-4.8-6.3-4.8h-3.9c-4,0-5.9,0.7-5.9,4.7L-16.1-134.6L-16.1-134.6z"/>
	<path class="st0" d="M8.5-144.7h2.7v2.5h0.1c1.1-2.2,3.2-2.7,5.2-2.7h2.7c5.4,0,7.2,1.7,7.2,5.9v2h-2.7v-0.7c0-4.2-0.9-4.9-6-4.9
		h-1.8c-3,0-4.5,1.9-4.5,4.2v10.9H8.5L8.5-144.7L8.5-144.7z"/>
	<path class="st0" d="M30.2-151.9h2.9v3.2h-2.9V-151.9z M30.2-144.7h2.9v17.1h-2.9V-144.7z"/>
	<path class="st0" d="M36.4-144.7h3l8.3,14.7l8.3-14.7h3l-9.6,17.1H46L36.4-144.7z"/>
	<path class="st0" d="M61.2-138.1c0-6.2,4.3-6.9,8.4-6.9h4.6c5.2,0,8.9,1.3,8.9,7.4v1.9h-19v1.1c0,3.9,1.9,4.9,6.9,4.9h4
		c3.6,0,5.1-0.5,5.3-3.1h2.9v0.3c0,3.9-3.2,5.1-8.6,5.1h-5.2c-3.8,0-8-0.7-8-7v-3.7H61.2z M80.2-139.2c0-1.7-1.3-3.5-6-3.5H70
		c-4.6,0-5.6,0.7-5.9,4.6h16.1V-139.2z"/>
	<path class="st0" d="M87.6-144.7h2.7v2.9h0.1c1.1-2.6,3.3-3.2,6.9-3.2h4.3c5.4,0,7.1,2.7,7.1,5.8v11.6h-2.9v-10.9
		c0-2.5-0.7-4.2-6.3-4.2h-0.7c-6.7,0-8.3,1.3-8.3,5.3v9.7h-2.9L87.6-144.7L87.6-144.7z"/>
	<path class="st0" d="M123.6-151.9h2.9v9.4h0.1c0.6-1.8,2.2-2.5,5.5-2.5h4.4c6.9,0,9,1.9,9,7.4v3c0,5.9-3.7,7.2-8.9,7.2h-4
		c-3,0-5.4-0.9-6.2-3h-0.1v2.7h-2.7L123.6-151.9L123.6-151.9z M142.6-138c0-4-2-4.7-5.9-4.7h-3.9c-3.9,0-6.3,0.7-6.3,4.8v3.2
		c0,3.1,1.4,4.9,5.7,4.9h4.7c4.7,0,5.7-1.6,5.7-4.9L142.6-138L142.6-138z"/>
	<path class="st0" d="M151-123.6c4.4,0,5.4-0.3,6.9-3.8h-0.7l-9.7-17.4h3.3l8.3,15.1l7.4-15.1h3.1l-9.6,19.2c-1.8,3.5-3,4.2-8.9,4.3
		L151-123.6L151-123.6z"/>
	<path class="st0" d="M183.9-142.4h-3.8v-2.3h3.7v-1.5c0-4.1,2.5-5.7,5.6-5.7h5.4v2.3h-5.2c-2.1,0-3,1.2-3,2.7v2.1h8.1v2.3h-8.1
		v14.7h-2.9v-14.6H183.9z"/>
	<path class="st0" d="M216.1-129.3L216.1-129.3c-0.8,1.5-1.7,2-6.2,2h-6.8c-4.4,0-5.5-1.9-5.5-5.1v-1.1c0-3.9,2.7-4.4,7.8-4.4h4.6
		c3.8,0,5.1,0.4,6.1,2h0.1v-3.2c0-3.1-1.9-3.5-6.4-3.5h-4.2c-3.6,0-4.3,0.9-4.3,2.3v0.6h-2.9v-0.8c0-3.1,2-4.4,7.1-4.4h4.6
		c5.4,0,9,0.8,9,5.9v11.5h-3V-129.3z M216.1-133c0-2.3-2.1-2.6-6.5-2.6h-4.4c-3.7,0-4.8,0.5-4.8,2.7v0.5c0,1.9,0.7,2.7,4.6,2.7h3.8
		c5.2,0,7.2-0.4,7.2-2.5v-0.8H216.1z"/>
	<path class="st0" d="M223.3-138.1c0-6.2,4.4-6.9,8.6-6.9h4.8c5.4,0,7.5,2.2,7.5,5.8v0.5h-2.7v-0.4c0-2.8-1.9-3.5-4.8-3.5h-5.3
		c-2.7,0-5.3,0.4-5.3,4.7v3.6c0,3.8,2.3,4.7,5.8,4.7h4.9c2.7,0,4.9-0.8,4.9-3.6v-0.6h2.7v0.5c0,4.3-2.1,6-7.5,6h-6.5
		c-2.6,0-7.2-0.7-7.2-6.9L223.3-138.1L223.3-138.1z"/>
	<path class="st0" d="M250.5-142.4h-3.8v-2.3h3.8v-4.1h2.9v4.1h11.4v2.3h-11.4v8.5c0,3.2,1.1,4.2,4.3,4.2h0.9c3.8,0,4.4-0.8,4.4-4.4
		v-1.3h2.3v1.9c0,3.4-0.3,6.1-6.6,6.1h-1.6c-5.4,0-6.7-2.6-6.7-5.4v-9.6H250.5z"/>
	<path class="st0" d="M268.2-133.5h2.7v0.8c0,2.1,1.1,3,4.1,3h6.2c4.3,0,5.7-0.2,5.7-2.7v-0.1c0-1.6-0.5-2.5-3.9-2.5h-8.9
		c-4.1,0-5.6-1.3-5.6-4.6v-1c0-2.8,1.6-4.3,8.7-4.3h4.4c6.5,0,7.4,1.9,7.4,4.3v0.9h-2.7v-0.2c0-2.6-1.7-2.7-4.9-2.7h-5
		c-4.1,0-5,0.4-5,2.3v0.6c0,1.4,0.5,2.2,3.5,2.2h7.6c4.3,0,7.3,0.4,7.3,5.1v0.1c0,4.8-4.4,5-7.9,5h-5.3c-4.3,0-8.2,0-8.2-5.1v-1.1
		H268.2z"/>
</g>
<g>
	<path id="XMLID_3_" class="st0" d="M-203.1-224.2h-13.3c-14.3,0-17.7,2.3-18.5,14.5h50.6v-3.6
		C-184.3-218.7-188.4-224.2-203.1-224.2z"/>
	<path class="st0" d="M-201-239.3h-16.5c-21.9,0-37.9,5.2-37.9,27.8v15.1c0,22.6,16,27.8,37.9,27.8h16.5c21.9,0,37.9-5.2,37.9-27.8
		v-15.1C-163.1-234-179.1-239.3-201-239.3z M-175.2-202.3h-59.7v3.4c0,12.2,5.9,15.4,21.7,15.4h12.4c11.4,0,16-1.5,16.5-9.7h9v1.1
		c0,12.3-10.2,16-27,16h-16.4c-11.8,0-25.2-2.2-25.2-22v-11.7c0-19.5,13.5-21.7,26.3-21.7h14.5c16.2,0,27.9,4.1,27.9,23.2
		L-175.2-202.3L-175.2-202.3z"/>
</g>
<path class="st1" d="M-334-414.4h9v29.7h0.2c1.9-5.6,6.8-8,17.1-8h13.8c21.8,0,28.4,6.1,28.4,23.2v9.5c0,18.5-11.5,22.6-27.9,22.6
	h-12.5c-9.5,0-16.8-2.8-19.5-9.4h-0.2v8.5h-8.4V-414.4z M-274.5-370.7c0-12.4-6.2-14.7-18.6-14.7h-12.2c-12.2,0-19.6,2.1-19.6,14.9
	v10.2c0,9.8,4.3,15.5,17.8,15.5h14.7c14.7,0,18-4.9,18-15.4v-10.5H-274.5z"/>
<path class="st1" d="M-143.7-384.6h-11.8v-7.4h11.8v-12.6h9v12.7h35.9v7.4h-35.9v26.7c0,10,3.5,13,13.4,13h2.8
	c12,0,13.9-2.5,13.9-13.8v-4h7.4v5.9c0,10.7-1.1,19.2-20.6,19.2h-4.9c-16.9,0-20.9-8.2-20.9-16.9v-30.2H-143.7z"/>
<path class="st1" d="M-85.8-391.9h18.9v10.2h0.2c2.3-8.5,10.5-11,19.7-11c14.7,0,20.5,6.3,20.5,21.1c0,1.4-0.1,2.8-0.2,4.7h-17.5
	c0-6.8-1.6-10.1-9.7-10.1c-6.9,0-11.8,2.6-11.8,9v29.7h-20.2L-85.8-391.9L-85.8-391.9z"/>
<path class="st1" d="M-19-357.1c0-14.6,10.1-15.5,29.7-15.5c11,0,17.1,0.3,21,4.3v-4.7c0-5.3-1.6-7.2-9.5-7.2H10.3
	c-5.9,0-7.6,0.5-7.8,4.3h-19.6c0-14.5,7.2-16.9,24.2-16.9h23.5c13.9,0,21.2,6.6,21.2,19.2v35.3H32.7v-6.1c-5.6,5.8-7.7,6.9-17.8,6.9
	H1.1c-12.3,0.1-20.2-2.6-20.2-15.3L-19-357.1L-19-357.1z M17-350.1c13.9,0,15.1-2.1,15.1-5.7c0-4-1.2-5.5-12.3-5.5h-8.9
	c-8.5,0-10.3,1.9-10.3,6.3c0,3.5,2.7,4.8,10.6,4.8H17V-350.1z"/>
<path class="st1" d="M62.1-369.9c0-13.7,3.2-22.8,28.7-22.8h6c8.3,0,16.8,2.3,18.1,10.7h0.2v-32.4h20.2v76.1h-18.9v-9.9h-0.3
	c-2.2,6.6-7.3,10.7-19.5,10.7h-5.9c-25.6,0-28.7-9.1-28.7-22.8v-9.6H62.1z M81.6-361.9c0,6,0.9,9.4,10.6,9.4h11.9
	c8,0,12.2-1.8,12.2-9.9v-5.3c0-8.1-4.2-9.9-12.2-9.9H92.2c-9.7,0-10.6,3.4-10.6,9.4V-361.9z"/>
<path class="st1" d="M146.5-357.1c0-14.6,10.1-15.5,29.7-15.5c11,0,17.1,0.3,21,4.3v-4.7c0-5.3-1.6-7.2-9.5-7.2h-11.9
	c-5.9,0-7.6,0.5-7.8,4.3h-19.6c0-14.5,7.2-16.9,24.2-16.9h23.5c13.9,0,21.2,6.6,21.2,19.2v35.3h-19.1v-6.1
	c-5.6,5.8-7.7,6.9-17.8,6.9h-13.8c-12.3,0.1-20.2-2.6-20.2-15.3L146.5-357.1L146.5-357.1z M182.4-350.1c13.9,0,15.1-2.1,15.1-5.7
	c0-4-1.2-5.5-12.3-5.5h-8.9c-8.5,0-10.3,1.9-10.3,6.3c0,3.5,2.7,4.8,10.6,4.8h5.8V-350.1z"/>
<path class="st1" d="M230.3-391.9h18.9v10.2h0.2c2.3-8.5,10.5-11,19.7-11c14.7,0,20.5,6.3,20.5,21.1c0,1.4-0.1,2.8-0.2,4.7h-17.5
	c0-6.8-1.6-10.1-9.7-10.1c-6.9,0-11.8,2.6-11.8,9v29.7h-20.2L230.3-391.9L230.3-391.9z"/>
<g>
	<path class="st1" d="M2.8-288.9H0.1v-2.7l0,0c-0.8,2.1-3.2,3-6.2,3h-4c-5.2,0-8.9-1.3-8.9-7.2v-3c0-5.5,2.1-7.4,9-7.4h4.4
		c3.3,0,4.9,0.8,5.5,2.5H0v-9.4h2.9L2.8-288.9L2.8-288.9z M-16.1-295.9c0,3.3,1,4.9,5.7,4.9h4.7c4.3,0,5.7-1.8,5.7-4.9v-3.2
		c0-4.1-2.4-4.8-6.3-4.8h-3.9c-4,0-5.9,0.7-5.9,4.7L-16.1-295.9L-16.1-295.9z"/>
	<path class="st1" d="M8.5-306h2.7v2.5h0.1c1.1-2.2,3.2-2.7,5.2-2.7h2.7c5.4,0,7.2,1.7,7.2,5.9v2h-2.7v-0.7c0-4.2-0.9-4.9-6-4.9
		h-1.8c-3,0-4.5,1.9-4.5,4.2v10.9H8.5L8.5-306L8.5-306z"/>
	<path class="st1" d="M30.2-313.2h2.9v3.2h-2.9V-313.2z M30.2-306h2.9v17.1h-2.9V-306z"/>
	<path class="st1" d="M36.4-306h3l8.3,14.7L56-306h3l-9.6,17.1H46L36.4-306z"/>
	<path class="st1" d="M61.2-299.4c0-6.2,4.3-6.9,8.4-6.9h4.6c5.2,0,8.9,1.3,8.9,7.4v1.9h-19v1.1c0,3.9,1.9,4.9,6.9,4.9h4
		c3.6,0,5.1-0.5,5.3-3.1h2.9v0.3c0,3.9-3.2,5.1-8.6,5.1h-5.2c-3.8,0-8-0.7-8-7v-3.7H61.2z M80.2-300.5c0-1.7-1.3-3.5-6-3.5H70
		c-4.6,0-5.6,0.7-5.9,4.6h16.1V-300.5z"/>
	<path class="st1" d="M87.6-306h2.7v2.9h0.1c1.1-2.6,3.3-3.2,6.9-3.2h4.3c5.4,0,7.1,2.7,7.1,5.8v11.6h-2.9v-10.9
		c0-2.5-0.7-4.2-6.3-4.2h-0.7c-6.7,0-8.3,1.3-8.3,5.3v9.7h-2.9L87.6-306L87.6-306z"/>
	<path class="st1" d="M123.6-313.2h2.9v9.4h0.1c0.6-1.8,2.2-2.5,5.5-2.5h4.4c6.9,0,9,1.9,9,7.4v3c0,5.9-3.7,7.2-8.9,7.2h-4
		c-3,0-5.4-0.9-6.2-3h-0.1v2.7h-2.7L123.6-313.2L123.6-313.2z M142.6-299.2c0-4-2-4.7-5.9-4.7h-3.9c-3.9,0-6.3,0.7-6.3,4.8v3.2
		c0,3.1,1.4,4.9,5.7,4.9h4.7c4.7,0,5.7-1.6,5.7-4.9L142.6-299.2L142.6-299.2z"/>
	<path class="st1" d="M151-284.9c4.4,0,5.4-0.3,6.9-3.8h-0.7l-9.7-17.4h3.3l8.3,15.1l7.4-15.1h3.1l-9.6,19.2c-1.8,3.5-3,4.2-8.9,4.3
		L151-284.9L151-284.9z"/>
	<path class="st1" d="M183.9-303.7h-3.8v-2.3h3.7v-1.5c0-4.1,2.5-5.7,5.6-5.7h5.4v2.3h-5.2c-2.1,0-3,1.2-3,2.7v2.1h8.1v2.3h-8.1
		v14.7h-2.9v-14.6H183.9z"/>
	<path class="st1" d="M216.1-290.6L216.1-290.6c-0.8,1.5-1.7,2-6.2,2h-6.8c-4.4,0-5.5-1.9-5.5-5.1v-1.1c0-3.9,2.7-4.4,7.8-4.4h4.6
		c3.8,0,5.1,0.4,6.1,2h0.1v-3.2c0-3.1-1.9-3.5-6.4-3.5h-4.2c-3.6,0-4.3,0.9-4.3,2.3v0.6h-2.9v-0.8c0-3.1,2-4.4,7.1-4.4h4.6
		c5.4,0,9,0.8,9,5.9v11.5h-3V-290.6z M216.1-294.3c0-2.3-2.1-2.6-6.5-2.6h-4.4c-3.7,0-4.8,0.5-4.8,2.7v0.5c0,1.9,0.7,2.7,4.6,2.7
		h3.8c5.2,0,7.2-0.4,7.2-2.5v-0.8H216.1z"/>
	<path class="st1" d="M223.3-299.4c0-6.2,4.4-6.9,8.6-6.9h4.8c5.4,0,7.5,2.2,7.5,5.8v0.5h-2.7v-0.4c0-2.8-1.9-3.5-4.8-3.5h-5.3
		c-2.7,0-5.3,0.4-5.3,4.7v3.6c0,3.8,2.3,4.7,5.8,4.7h4.9c2.7,0,4.9-0.8,4.9-3.6v-0.6h2.7v0.5c0,4.3-2.1,6-7.5,6h-6.5
		c-2.6,0-7.2-0.7-7.2-6.9L223.3-299.4L223.3-299.4z"/>
	<path class="st1" d="M250.5-303.7h-3.8v-2.3h3.8v-4.1h2.9v4.1h11.4v2.3h-11.4v8.5c0,3.2,1.1,4.2,4.3,4.2h0.9c3.8,0,4.4-0.8,4.4-4.4
		v-1.3h2.3v1.9c0,3.4-0.3,6.1-6.6,6.1h-1.6c-5.4,0-6.7-2.6-6.7-5.4v-9.6H250.5z"/>
	<path class="st1" d="M268.2-294.8h2.7v0.8c0,2.1,1.1,3,4.1,3h6.2c4.3,0,5.7-0.2,5.7-2.7v-0.1c0-1.6-0.5-2.5-3.9-2.5h-8.9
		c-4.1,0-5.6-1.3-5.6-4.6v-1c0-2.8,1.6-4.3,8.7-4.3h4.4c6.5,0,7.4,1.9,7.4,4.3v0.9h-2.7v-0.3c0-2.6-1.7-2.7-4.9-2.7h-5
		c-4.1,0-5,0.4-5,2.3v0.6c0,1.4,0.5,2.2,3.5,2.2h7.6c4.3,0,7.3,0.4,7.3,5.1v0.1c0,4.8-4.4,5-7.9,5h-5.3c-4.3,0-8.2,0-8.2-5.1v-1
		H268.2z"/>
</g>
<g>
	<path id="XMLID_19_" class="st2" d="M-203.1-385.5h-13.3c-14.3,0-17.7,2.3-18.5,14.5h50.6v-3.6C-184.3-380-188.4-385.5-203.1-385.5
		z"/>
	<path class="st2" d="M-201-400.6h-16.5c-21.9,0-37.9,5.2-37.9,27.8v15.1c0,22.6,16,27.8,37.9,27.8h16.5c21.9,0,37.9-5.2,37.9-27.8
		v-15C-163.1-395.3-179.1-400.6-201-400.6z M-175.2-363.6h-59.7v3.3c0,12.2,5.9,15.4,21.7,15.4h12.4c11.4,0,16-1.5,16.5-9.7h9v1.1
		c0,12.3-10.2,16-27,16h-16.4c-11.8,0-25.2-2.2-25.2-22v-11.7c0-19.5,13.5-21.7,26.3-21.7h14.5c16.2,0,27.9,4.1,27.9,23.2
		L-175.2-363.6L-175.2-363.6z"/>
</g>
<g>
	<path id="XMLID_1_" class="st0" d="M58,117.1H44.7c-14.3,0-17.7,2.3-18.5,14.5h50.6V128C76.8,122.6,72.7,117.1,58,117.1z"/>
	<path class="st0" d="M60.1,102H43.6c-21.9,0-37.9,5.2-37.9,27.8v15.1c0,22.6,16,27.8,37.9,27.8h16.5c21.9,0,37.9-5.2,37.9-27.8v-15
		C98,107.3,82,102,60.1,102z M85.9,139H26.2v3.3c0,12.2,5.9,15.4,21.7,15.4h12.4c11.4,0,16-1.5,16.5-9.7h9v1.1c0,12.3-10.2,16-27,16
		H42.4c-11.8,0-25.2-2.2-25.2-22v-11.7c0-19.5,13.5-21.7,26.3-21.7H58c16.2,0,27.9,4.1,27.9,23.2L85.9,139L85.9,139z"/>
</g>
<g>
	<path id="XMLID_2_" class="st2" d="M58,24.5H44.7C30.4,24.5,27,26.8,26.2,39h50.6v-3.6C76.8,30,72.7,24.5,58,24.5z"/>
	<path class="st2" d="M60.1,9.4H43.6c-21.9,0-37.9,5.2-37.9,27.8v15.1c0,22.6,16,27.8,37.9,27.8h16.5C82,80.1,98,74.9,98,52.3v-15
		C98,14.7,82,9.4,60.1,9.4z M85.9,46.4H26.2v3.3c0,12.2,5.9,15.4,21.7,15.4h12.4c11.4,0,16-1.5,16.5-9.7h9v1.1c0,12.3-10.2,16-27,16
		H42.4c-11.8,0-25.2-2.2-25.2-22V38.8c0-19.5,13.5-21.7,26.3-21.7H58c16.2,0,27.9,4.1,27.9,23.2L85.9,46.4L85.9,46.4z"/>
</g>
</svg>
