<?xml version="1.0" encoding="utf-8"?>
<!-- Generator: Adobe Illustrator 19.0.0, SVG Export Plug-In . SVG Version: 6.00 Build 0)  -->
<svg version="1.1" id="Layer_1" xmlns="http://www.w3.org/2000/svg" xmlns:xlink="http://www.w3.org/1999/xlink" x="0px" y="0px"
	 viewBox="-228.1 391.5 10 10" style="enable-background:new -228.1 391.5 10 10;" xml:space="preserve">
<style type="text/css">
	.st0{clip-path:url(#SVGID_2_);}
	.st1{fill:#094CA0;}
	.st2{fill:#FFFFFF;}
	.st3{fill:#EC1C24;}
	.st4{fill:none;stroke:#094CA0;stroke-width:0.5;stroke-miterlimit:10;}
</style>
<g>
	<g>
		<defs>
			<circle id="SVGID_1_" cx="-223.1" cy="396.6" r="4.7"/>
		</defs>
		<clipPath id="SVGID_2_">
			<use xlink:href="#SVGID_1_"  style="overflow:visible;"/>
		</clipPath>
		<g class="st0">
			<rect x="-230.5" y="391.7" class="st1" width="14.8" height="9.7"/>
			<path class="st2" d="M-215.7,391.7h-1.9l-3.9,2.5c0-1.1,0-2.5,0-2.5h-3.4c0,0,0,1.6,0,2.6l-4.1-2.6h-1.6v1.3l2.9,1.9
				c-1.5,0-2.9,0-2.9,0v3.4c0,0,1.4,0,2.9,0l-2.9,1.9v1.2h1.9l3.8-2.5c0,1.1,0,2.5,0,2.5h3.4c0,0,0-1.5,0-2.5l3.9,2.5h1.8v-1.2
				l-3-1.9c1.5,0,3,0,3,0v-3.4c0,0-1.5,0-3,0l3-1.9V391.7z"/>
			<g>
				<path class="st3" d="M-225.7,394.9l-4.8-3.2v0.8l3.6,2.4C-226.5,394.9-226.1,394.9-225.7,394.9z"/>
				<path class="st3" d="M-220.5,398.3l4.8,3.1l0,0v-0.8l-3.6-2.4C-219.7,398.3-220.1,398.3-220.5,398.3z"/>
				<path class="st3" d="M-224.8,398.3c-0.2,0-0.6,0-1,0l-4.7,3.1l0,0h1.1l4.6-3C-224.8,398.4-224.8,398.3-224.8,398.3z"/>
				<path class="st3" d="M-221.4,394.9c0.2,0,0.5,0,0.9,0l4.8-3.1v-0.1h-1.1l-4.6,3C-221.4,394.8-221.4,394.8-221.4,394.9z"/>
			</g>
			<polygon class="st3" points="-215.7,395.6 -222.1,395.6 -222.1,391.7 -224.1,391.7 -224.1,395.6 -230.5,395.6 -230.5,397.6 
				-224.1,397.6 -224.1,401.4 -222.1,401.4 -222.1,397.6 -215.7,397.6 			"/>
		</g>
	</g>
</g>
<circle class="st4" cx="-223.1" cy="396.5" r="4.8"/>
</svg>
