<svg xmlns="http://www.w3.org/2000/svg" viewBox="0 0 195.66 279.77"><title>Europa_League</title><g id="Layer_2" data-name="Layer 2"><g id="Layer_1-2" data-name="Layer 1"><g id="_Group_" data-name="&lt;Group&gt;"><g id="_Group_2" data-name="&lt;Group&gt;"><path id="_Compound_Path_" data-name="&lt;Compound Path&gt;" d="M108.23,175.55l8,2.1.87-3.15-8-2.1.35-1.75c.52-1.92,1.22-2.1,3-1.75l6.47,1.75.87-3.32-6.64-1.75c-3.15-.87-5.95,0-7,3.67l-3,11.19A1.18,1.18,0,0,0,104,182l2.1.52ZM91.1,167l-.7-3.32-11,2.27a1.28,1.28,0,0,0-1,1.57l2.27,11.37c.7,3.85,3.67,4.72,6.64,4l6.64-1.4-.7-3.32-6.47,1.4c-1.75.35-2.45,0-2.8-1.92l-.35-1.75,8-1.57-.7-3.32-8,1.57-.87-4ZM64.35,189.72a5.1,5.1,0,0,1-3.32-2.1l-6.29-7.69-2.8,2.27,6.82,8.39a6.81,6.81,0,0,0,4.9,2.8,7.89,7.89,0,0,0,5.95-1.92A7.69,7.69,0,0,0,72.74,186,7.25,7.25,0,0,0,71,180.62l-6.82-8.39-2.8,2.27,6.29,7.69c1.22,1.57,1.57,2.45,1.4,3.67a4.45,4.45,0,0,1-4.72,3.85m72.39-12.94a1.49,1.49,0,0,1,.52,1.92l-5.25,18-2.8-2.62,1-3.5-3.5-2.62,3-1.92,1.4,1,1.75-6.12-11.37,7.34-3.32-1.92,15.74-10.14a1.57,1.57,0,0,1,1.92,0ZM67.49,202.13l-2.1-1.92a42.15,42.15,0,0,1,63.65,0l-2.1,1.92a39.55,39.55,0,0,0-59.45,0m-19.76-22-1.92-1.92a71.78,71.78,0,0,1,102.81,0l-1.92,1.92a69.24,69.24,0,0,0-99,0"/><g id="_Group_3" data-name="&lt;Group&gt;"><g id="_Group_4" data-name="&lt;Group&gt;"><path id="_Path_" data-name="&lt;Path&gt;" d="M106.66,271.2h7v1.57a7.34,7.34,0,0,1-5.25,2.27c-4,0-6.82-2.27-6.82-7.17,0-4.72,3.15-7.17,6.29-7.17a5.18,5.18,0,0,1,5.42,3.85l4.9-1.4C117,259,113.66,256,107.89,256A11.25,11.25,0,0,0,96.34,267.7c0,7.34,5.25,11.72,11.72,11.72a12.31,12.31,0,0,0,10.49-5.07v-7.69H106.66Z"/><polygon id="_Path_2" data-name="&lt;Path&gt;" points="40.74 256.51 35.49 256.51 35.49 279.42 51.58 279.42 51.58 274.7 40.74 274.7 40.74 256.51"/><polygon id="_Path_3" data-name="&lt;Path&gt;" points="59.1 270.15 68.89 270.15 68.89 265.6 59.1 265.6 59.1 261.23 69.77 261.23 69.77 256.51 54.03 256.51 54.03 279.42 69.94 279.42 69.94 274.7 59.1 274.7 59.1 270.15"/><polygon id="_Path_4" data-name="&lt;Path&gt;" points="148.45 274.7 148.45 270.15 158.07 270.15 158.07 265.6 148.45 265.6 148.45 261.23 158.94 261.23 158.94 256.51 143.21 256.51 143.21 279.42 159.12 279.42 159.12 274.7 148.45 274.7"/><path id="_Path_5" data-name="&lt;Path&gt;" d="M135,270.15c0,3-1.57,4.9-4.37,4.9s-4.37-1.92-4.37-4.9V256.69H121V270.5c0,6.29,4.37,9.27,9.62,9.27s9.62-3,9.62-9.27V256.69H135Z"/><path id="_Compound_Path_2" data-name="&lt;Compound Path&gt;" d="M81.66,256.51l-9.27,22.73h5.95l1.57-4.37h8.92l1.57,4.37h5.95l-9.27-22.73Zm0,13.81,2.62-7,2.62,7Z"/></g><g id="_Group_5" data-name="&lt;Group&gt;"><path id="_Path_6" data-name="&lt;Path&gt;" d="M51.76,231.33c0,4.72-2.45,7.69-7,7.69s-7-3-7-7.69V210.17H29.55v21.68c0,10,6.82,14.51,15,14.51s15-4.72,15-14.51V210.17H51.41v21.16Z"/><path id="_Compound_Path_3" data-name="&lt;Compound Path&gt;" d="M161.57,222.06c0-7.69-5.77-11.72-12.76-11.72h-14v35.5H143V233.78h5.77C155.8,233.78,161.57,229.76,161.57,222.06Zm-13.29,4.37h-5.42v-8.92h5.42c3.67,0,5.07,1.92,5.07,4.55C153.35,224.51,151.95,226.44,148.28,226.44Z"/><polygon id="_Path_7" data-name="&lt;Path&gt;" points="8.22 231.51 23.43 231.51 23.43 224.16 8.22 224.16 8.22 217.52 24.65 217.52 24.65 210.18 0 210.18 0 245.84 25 245.84 25 238.5 8.22 238.5 8.22 231.51"/><path id="_Compound_Path_4" data-name="&lt;Compound Path&gt;" d="M181,210.17h-8.57l-14.51,35.5h9.27l2.62-6.82h14l2.62,6.82h9.27Zm-8.57,21.51,4.2-10.84,4.2,10.84Z"/><path id="_Compound_Path_5" data-name="&lt;Compound Path&gt;" d="M91.8,221.54c0-7-5.6-11.37-12.94-11.37H64.7v35.5h8.22V232.91h4.37l7.17,12.76h9.09l-7.87-14.34A10.52,10.52,0,0,0,91.8,221.54ZM79,225.74H72.91v-8.22H79c3.32,0,4.55,1.75,4.55,4C83.76,224,82.53,225.74,79,225.74Z"/><path id="_Compound_Path_6" data-name="&lt;Compound Path&gt;" d="M113,209.48c-10.49,0-17.14,7-17.14,18.53s6.82,18.53,17.14,18.53c10.49,0,17.14-7,17.14-18.53S123.27,209.48,113,209.48Zm0,29.73c-5.07,0-9.09-3.67-9.09-11.19,0-7.69,4-11.19,9.09-11.19S122,220.49,122,228,118,239.2,113,239.2Z"/></g></g></g><path id="_Path_8" data-name="&lt;Path&gt;" d="M102.46,139.71h0a69.56,69.56,0,0,0,13.64-2.45h0a.17.17,0,0,0,.17-.17v-.17h0c-5.6-6.12-14.34-18.53-20.28-29.73,3,12.06,5.6,25.35,6.12,32.35.17.17.17.17.35.17"/><path id="_Path_9" data-name="&lt;Path&gt;" d="M127.64,13.81h0c0-.17,0-.35-.17-.35h0l-21-12.06h-.17c-.17,0-.17.17-.35.17h0c-1,4.55-10.84,49.31,4.9,102.64-5.6-34.8,8-73.26,16.79-90.4"/><path id="_Path_10" data-name="&lt;Path&gt;" d="M121.17,135.69C91.62,88.13,96.34,20.81,99.67.35h0A.38.38,0,0,0,99.32,0h0c-3.85,1.57-29.9,12.06-32.7,13.11-.17,0-.17.17-.17.35h0c5.25,24.13,18.71,81.31,54.73,122.22" style="fill:#6d6e71"/><path id="_Path_11" data-name="&lt;Path&gt;" d="M80.78,137.44h0c0,.17,0,.35.17.35a68.52,68.52,0,0,0,15.91,2.27.38.38,0,0,0,.35-.35h0c-.7-11.54-3.32-35.32-13.11-56.48,3.15,21.33-.35,43.71-3.32,54.2" style="fill:#6d6e71"/><path id="_Path_12" data-name="&lt;Path&gt;" d="M73.09,135.16c.17,0,.17,0,.17-.17h0a5.11,5.11,0,0,0,.35-1.57h0c0-.17-.17-.17-.17-.35h0C52.28,124,38.12,99.32,38.12,74.66c0-19.23,8.22-40.22,22.38-51.06h0v-.17h0c0-.35-.35-1-.35-1.57h0c0-.17-.17-.17-.35-.17h-.17A64.93,64.93,0,0,0,32.35,74.84a65.86,65.86,0,0,0,40.74,60.32h0" style="fill:#f18800"/><path id="_Path_13" data-name="&lt;Path&gt;" d="M133.59,20.11h0c-.17,0-.35,0-.35.17l-.7,1.4v.17c0,.17,0,.17.17.17h0c15.74,10.67,24.65,32.17,24.65,52.63,0,22.91-11,45.64-29.9,55.78h0l-.17.17v.17h0l.87,1.4h0l.17.17h.17a65.23,65.23,0,0,0,34.62-57.53,66.15,66.15,0,0,0-29.55-54.73" style="fill:#f18800"/><g id="_Group_6" data-name="&lt;Group&gt;"><polygon id="_Path_14" data-name="&lt;Path&gt;" points="146.53 133.94 148.1 133.94 148.1 138.31 148.8 138.31 148.8 133.94 150.38 133.94 150.38 133.24 146.53 133.24 146.53 133.94" style="fill:#fff"/><polygon id="_Path_15" data-name="&lt;Path&gt;" points="155.44 133.24 153.7 137.61 152.12 133.24 151.25 133.24 151.25 138.31 151.95 138.31 151.95 134.64 153.35 138.31 154.22 138.31 155.62 134.64 155.62 138.31 156.32 138.31 156.32 133.24 155.44 133.24" style="fill:#fff"/></g></g></g></g></svg>