<?xml version="1.0" encoding="utf-8"?>
<!-- Generator: Adobe Illustrator 19.1.0, SVG Export Plug-In . SVG Version: 6.00 Build 0)  -->
<svg version="1.1" id="Layer_1" xmlns="http://www.w3.org/2000/svg" xmlns:xlink="http://www.w3.org/1999/xlink" x="0px" y="0px"
	 viewBox="152 259.2 274.8 274.8" style="enable-background:new 152 259.2 274.8 274.8;" xml:space="preserve">
<style type="text/css">
	.st0{fill:#C52426;}
	.st1{fill:#E12629;}
	.st2{fill:#91191B;}
	.st3{fill:#751416;}
	.st4{fill:#FFFFFF;}
</style>
<title>Marsbet_Red</title>
<path class="st0" d="M396.4,515.9v3h-5.8V534H387v-15.1h-5.8v-3L396.4,515.9z M415.9,534l-0.7-10.6c-0.1-1.4-0.1-3.1-0.1-5h-0.2
	c-0.5,1.6-1,3.7-1.5,5.4l-3.3,10h-3.7l-3.3-10.3c-0.3-1.4-0.9-3.5-1.3-5.1h-0.2c0,1.7-0.1,3.4-0.1,5l-0.7,10.6h-3.5l1.3-18.1h5.4
	l3.1,8.8c0.4,1.4,0.7,2.7,1.2,4.6h0.1c0.5-1.7,0.9-3.2,1.3-4.5l3.1-8.9h5.2l1.4,18.1L415.9,534z"/>
<polygon class="st0" points="390,296 426.8,359.8 426.8,433.4 390,497.2 326.2,534 252.6,534 188.8,497.2 152,433.4 152,359.8 
	188.8,296 252.6,259.2 326.2,259.2 "/>
<polygon class="st0" points="424.6,360.4 424.6,432.8 409.8,458.4 369.3,388.2 "/>
<polygon class="st1" points="388.4,297.6 424.6,360.4 369.3,388.2 343.1,318.8 "/>
<polygon class="st2" points="409.8,458.4 388.4,495.5 369.3,388.2 "/>
<polygon class="st0" points="369.3,388.2 388.4,495.5 325.6,531.8 304.3,449.5 "/>
<polygon class="st0" points="388.4,297.6 343.1,318.8 281.5,306.5 325.6,261.4 "/>
<polygon class="st0" points="343.1,318.8 369.3,388.2 290.5,378 "/>
<polygon class="st2" points="369.3,388.2 304.3,449.5 245.9,428.5 290.5,378 "/>
<polygon class="st2" points="343.1,318.8 290.5,378 281.5,306.5 "/>
<polygon class="st1" points="325.6,261.4 281.5,306.5 253.2,261.4 "/>
<polygon class="st2" points="304.3,449.5 325.6,531.8 257.7,492.5 "/>
<polygon class="st3" points="257.7,492.5 325.6,531.8 253.2,531.8 190.5,495.5 213.9,467.2 "/>
<polygon class="st0" points="304.3,449.5 257.7,492.5 213.9,467.2 245.9,428.5 "/>
<polygon class="st1" points="281.5,306.5 290.5,378 220.6,369 220.6,368.8 "/>
<polygon class="st0" points="290.5,378 245.9,428.5 220.6,369 "/>
<polygon class="st0" points="253.2,261.4 281.5,306.5 220.6,368.8 190.5,297.6 "/>
<polygon class="st3" points="220.6,369 245.9,428.5 213.9,467.2 154.2,432.8 154.2,360.4 "/>
<polygon class="st2" points="220.6,368.8 220.6,369 154.2,360.4 190.5,297.6 "/>
<polygon class="st2" points="213.9,467.2 190.5,495.5 154.2,432.8 "/>
<path class="st4" d="M248.5,333.2h-27.5v126.7h31.7v-79.1l34.4,39.7h4.8l34.4-39.7v79.1h31.7V333.2h-27.5l-40.9,47L248.5,333.2z"/>
</svg>
