<svg xmlns="http://www.w3.org/2000/svg" viewBox="0 0 40.46 52.61"><defs><style>.cls-1{fill:#fff;}</style></defs><title>SerieA-White</title><g id="Layer_2" data-name="Layer 2"><g id="Layer_1-2" data-name="Layer 1"><path class="cls-1" d="M39.47,41.41s-6.2-2.62-19.24-2.62S1,41.41,1,41.41c-.58.4-1,.63-1,1.21v6.32c0,.58.46,1,1.28,1.31,0,0,6.48,2.36,19,2.36s19-2.36,19-2.36a2.21,2.21,0,0,0,1.18-.92V42.2A2.72,2.72,0,0,0,39.47,41.41ZM17.74,49.19H13.63L12.87,48,8.14,49.19H3.67l.4-1.56H7.83l4.69-1.15.67,1.15h4.94Zm.5-2H14.36l-.64-1.4L8,47.2H4.17L4.44,46H8.2l5.28-1.4.67,1.4H18.5Zm.44-1.81H14.92L14.28,44l-5.8,1.4H4.62l.21-.87H8.59l5.51-1.4.66,1.4h4.13ZM19,44H15.22l-.65-1.4L8.78,44H4.91l.19-.81H8.86l5.51-1.4.67,1.4h4.13Zm3.61,5.17H20.92l1.52-6H20.52l.42-1.49h5.33l-.42,1.49H24.11Zm2.86,0,1.81-7.47h1.67l-1.8,7.47Zm9,0H32.73l1-3.9L32.14,47l-.66-2.13-1,4.29H28.77l1.81-7.47h1.67l.59,2.49,1.7-2.49h1.67Z"/><path class="cls-1" d="M20.23,37.44c12.75,0,19.37,2.47,19.37,2.47a5.08,5.08,0,0,1,.86.37v-34a3.2,3.2,0,0,0-1.59-2.5C37.14,2.69,31.15,0,20.47,0H20C9.31,0,3.34,2.72,1.6,3.77A3.32,3.32,0,0,0,0,6.27v34a8,8,0,0,1,.86-.37S7.48,37.44,20.23,37.44ZM1.3,7A3.09,3.09,0,0,1,2.8,4.68C4.42,3.7,10,1.15,20,1.15h.46c10,0,15.6,2.52,17.2,3.53A3,3,0,0,1,39.16,7V38.54c-.37-.15-.67-.25-.94-.34,0,0-6-2-18-2s-18.13,2-18.13,2c-.25.11-.38.13-.8.32Z"/><path class="cls-1" d="M32.77,9.51c0,3.94-6.07,6.84-12.5,7.19S10.84,14,10.84,14a4.43,4.43,0,0,0-.22,1.72c0,.8.38,5.89,9.65,5.54,10.79-.42,16.92-4.61,16.92-9.3S30.92,4.5,23.69,3.58C23.69,3.58,32.77,5.56,32.77,9.51Z"/><path class="cls-1" d="M15.76,22.11S7.69,20,7.56,15.89C7.45,12.29,12.3,9,20,9c7.32,0,9.43,3.36,9.43,3.36s3.33-6.86-9.18-7.72c0,0-9.23-.76-14.83,4.62S5.68,20.8,15.76,22.11Z"/><path class="cls-1" d="M19.94,16.11c4.42,0,8-1.42,8-3.16,0-1-1.15-1.89-3-2.47L22,12a1,1,0,0,1,.37,1c-.2.83-1.5,1.41-2.89,1.3a3.47,3.47,0,0,1-1.35-.37l-3.07,1.54A17.12,17.12,0,0,0,19.94,16.11Z"/><path class="cls-1" d="M12,13c0,.74.65,1.42,1.73,2l3.78-1.6a.94.94,0,0,1-.11-.73c.21-.82,1.5-1.4,2.89-1.3a3.63,3.63,0,0,1,1.24.32l3-1.27a17.27,17.27,0,0,0-4.55-.56C15.53,9.78,12,11.19,12,13Z"/><path class="cls-1" d="M21.85,12.82a.68.68,0,0,0-.21-.66l-2.83,1.42a2.7,2.7,0,0,0,.79.16C20.69,13.83,21.7,13.42,21.85,12.82Z"/><path class="cls-1" d="M17.88,12.5a.72.72,0,0,0,.14.58l3.05-1.29a2.89,2.89,0,0,0-.93-.21C19,11.49,18,11.91,17.88,12.5Z"/><path class="cls-1" d="M12.52,33.3V31.18h2v-.81h-2V28.58h1.3a5.58,5.58,0,0,1,1.51.18v-.92H11.35v6.21h4V33.1a4.05,4.05,0,0,1-1.23.2Z"/><path class="cls-1" d="M30.85,27l-2.61,7h1.31l.64-1.91h2.09l.65,1.91h1.75l-2.85-7Zm-.38,4.29.75-2.23L32,31.29Z"/><path class="cls-1" d="M9,30c-2-.68-2-1.42-2-1.76s.26-.73,1.17-.73a3.55,3.55,0,0,1,2,.7L10.27,27a20,20,0,0,0-2.17-.2c-.8,0-2.18.13-2.18,1.78,0,1.42,1.34,2,2.28,2.32s1.44.79,1.44,1.26-.37,1.17-1.47,1.17a2.88,2.88,0,0,1-1.95-1.07l-.44,1.18a7.15,7.15,0,0,0,2.42.61c1.08,0,2.44-.38,2.44-2A2.24,2.24,0,0,0,9,30Z"/><path class="cls-1" d="M24.12,33.3V31.18h2v-.81H24.05V28.58h1.31a5.46,5.46,0,0,1,1.5.18v-.92H23v6.21H26.9V33.1a4.11,4.11,0,0,1-1.24.2Z"/><rect class="cls-1" x="21.1" y="27.84" width="0.97" height="6.21"/><path class="cls-1" d="M20.13,29.33c0-1.46-1.51-1.49-1.78-1.49H15.87v6.21H17V31.18s.71-.14,1,.3,1.47,2.57,1.47,2.57H20.7l-1.88-2.94A1.8,1.8,0,0,0,20.13,29.33Zm-2.23,1.3H17V28.44h.93a1.06,1.06,0,0,1,1.08,1v.11A1.06,1.06,0,0,1,17.9,30.63Z"/></g></g></svg>