<svg xmlns="http://www.w3.org/2000/svg" viewBox="0 0 55.41 52.84"><defs><style>.cls-1{fill:#d20515;}.cls-2{fill:#fff;}</style></defs><title>Bundesliga</title><g id="Layer_2" data-name="Layer 2"><g id="Layer_1-2" data-name="Layer 1"><rect class="cls-1" x="0.02" width="55.39" height="44.29"/><path class="cls-2" d="M45.65,23.34c0,.1-.09.19-.28.29l-.1.1v.09c0,.1,0,.1-.1.19l-.19.1h-.19V24l-.19.1v.09c0,.1,0,.1-.1.2l-.19.09h-.19V24.4c-.67.38-1.53.67-2.29,1.05v.09c0,.1,0,.1-.1.19l-.19.1h-.19l-.1-.1-.29.1.1.1c0,.09,0,.09-.1.19l-.19.09h-.19l-.09-.09a.7.7,0,0,1-1.06-.39c-.09-.28-.09-.86-.19-1.14A.33.33,0,0,0,39,24.4c-3.64-.67-4.79.09-7.18-.48-.76-.19-1.15-.86-2-.86-1.91-.1-2.49,0-4.69-.1a1.63,1.63,0,0,0-.09.38H17.53l1.14.58.39,3.25a2.11,2.11,0,0,1-.39.1c.1.67.1,1.53.2,2.29S19,31,19,31.47a1.79,1.79,0,0,1-.19.87,1.17,1.17,0,0,1-.57.57,6.92,6.92,0,0,1-.67.48l-1,.48c0,.09.09.19.09.28C12.17,36.35,6.52,37,4.71,40.56c-.2.39-1,.19-1-.28v-.67h-.1c-.09,0-.09-.1-.09-.19v-.2A.36.36,0,0,1,3.65,39h.1c0-.19.1-.38.1-.57h-.1c-.1,0-.1-.1,0-.19l.1-.19c0-.1.09-.2.19-.1h.09c.29-.76,1-1,1.25-1.82h0c-.1,0-.1-.09,0-.19l-.1-.19c0-.1.1-.19.19-.1h.1c0-.09.09-.19.19-.28h-.1c-.09,0-.09-.1,0-.19l.1-.2c.09-.09.09-.09.19-.09H6l.1-.1a.86.86,0,0,1,1,0,2,2,0,0,0,2.49-.19c1.72-1.62,3.83-3.73,5.36-3.82a19.85,19.85,0,0,1-1.25-3.54l-.48-.1A23.58,23.58,0,0,1,12,21.81a14.84,14.84,0,0,1,0-3,1.41,1.41,0,0,0-.39.19c-.28-.67.67-6.6,1.53-8.33l1.44-.57c-.19,0-1.15-.09-3.83-.29-1.53,1.34-3.15,2.78-4.11,3.54-.19.1-.38,1-.38,1a5.67,5.67,0,0,1-.86.67c-.58.38-1.82.67-2.11.19-.09-.09-.09-.19,0-.19.19-.19,1-.57,1.24-1-.38.19-.86.48-1.24.38-.19,0-.29-.38,0-.48a3,3,0,0,0,1.34-.76,1.38,1.38,0,0,1,1.24-.77S8.34,9.09,9.78,7.56a1.59,1.59,0,0,1,1.14-.29l.1-.48s5-.57,7.37.19c-.1-1.43.57-3.25,2.77-3.25a3.55,3.55,0,0,1,3.06,2.2c.1.38-.19.67-.28,1.15a8.43,8.43,0,0,0,0,1.72c-.1.19-.29.19-.48.48s-.48.86-.48.86l-.29.67-1.53-.1a24.76,24.76,0,0,0-2.1,6.22h0c1.24.1,6.79.86,6.79.86l.09.48a17.08,17.08,0,0,1,4.21,1.15c.39.1,1.53-.09,2.2.29l.2-.19c2.48.76,4.59,2.1,7,2.68l1.53.38c.86.19,1.44.19,1.91.28a11.86,11.86,0,0,0,1.73.1c.28-.1.86-.19.95.38m3.64-7.55a3.06,3.06,0,1,0,3.06,3.06A3.08,3.08,0,0,0,49.29,15.79Z"/><path class="cls-1" d="M4.9,51.12c0,1.05-.5,1.62-1.82,1.62H0v-6H3c1.38,0,1.85.54,1.85,1.56,0,.76-.29,1.11-1.1,1.31l-.16,0,.13,0C4.62,49.94,4.9,50.28,4.9,51.12ZM1.42,49.28H2.67c.5,0,.71-.21.71-.72s-.21-.75-.71-.75H1.42ZM3.47,51c0-.53-.22-.77-.72-.77H1.42v1.54H2.75C3.27,51.72,3.47,51.5,3.47,51Zm2.41-.17v-4H7.36v4c0,.66.31.91,1.11.91s1.1-.25,1.1-.91v-4h1.49v4c0,1.39-.82,2-2.58,2S5.88,52.2,5.88,50.8Zm12.11-4v6h-1.8l-2.53-4.3v4.3H12.28v-6h1.8l2.53,4.3v-4.3Zm1.22,0h2.64c2.08,0,2.63.86,2.63,3s-.59,3-2.63,3H19.21Zm2.6,4.82c.87,0,1.15-.45,1.15-1.84s-.28-1.83-1.15-1.83H20.68v3.67Zm3.75-4.82h4.15v1.13H27.05v1.25h2.22v1.12H27.05v1.3h2.73v1.13H25.56Zm5.09,5.71V51.34a6,6,0,0,0,2,.33c.69,0,1-.18,1-.64s-.13-.53-.67-.63l-1-.21a1.42,1.42,0,0,1-1.36-1.65c0-1.3.76-1.86,2.31-1.86A5.27,5.27,0,0,1,34.8,47v1.16a5.41,5.41,0,0,0-1.8-.31c-.74,0-1,.19-1,.65s.17.5.64.59l1,.22c1.12.23,1.42.61,1.42,1.68,0,1.27-.79,1.85-2.38,1.85A6,6,0,0,1,30.65,52.5Zm5.41-5.71h1.49v4.8H40.1v1.13h-4Zm5,0h1.49v6H41Zm7.63,2.52v3.23a6.92,6.92,0,0,1-2,.3c-2.07,0-3-.91-3-3.07s1-3.08,3-3.08a5.41,5.41,0,0,1,1.95.33v1.14a5.69,5.69,0,0,0-1.84-.31c-1.24,0-1.63.5-1.63,1.9s.41,2,1.58,2a6.66,6.66,0,0,0,.78-.05V50.33H46.33v-1Zm4.84,2.18H51.16l-.42,1.25H49.26l2.12-6h1.9l2.11,6H53.91Zm-1.16-3.76-.86,2.68h1.71Z"/></g></g></svg>