<svg xmlns="http://www.w3.org/2000/svg" viewBox="0 0 55.92 54.54"><defs><style>.cls-1{fill:#fff;fill-rule:evenodd;}</style></defs><title>Champions-League-White</title><g id="Layer_2" data-name="Layer 2"><g id="Layer_1-2" data-name="Layer 1"><path class="cls-1" d="M28,14.4c2.8.77,4.89,1.14,4.89,1.14a44.18,44.18,0,0,1-3.2-3.61C31.26,9.63,32.54,8,32.54,8c-1.72.38-3.35.85-4.81,1.33A38.61,38.61,0,0,1,25.58,6a20.61,20.61,0,0,0-.67,4.4c-2.31.9-3.76,1.63-3.76,1.63,1.25.57,2.55,1.06,3.81,1.49a25.44,25.44,0,0,0,.75,4.58c.71-1.26,1.48-2.5,2.24-3.67Z"/><path class="cls-1" d="M40.74,13.69A3.61,3.61,0,0,1,39.09,15a33.61,33.61,0,0,0-.38-3.61,40.6,40.6,0,0,1-1.8,4.17,16.68,16.68,0,0,1-4.07,0,17.21,17.21,0,0,0,2.66,2.64,26.13,26.13,0,0,1-1.79,2.69,10,10,0,0,0,3.53-1.54,3.57,3.57,0,0,1,1,1,6.31,6.31,0,0,0,.79-2.79,8.65,8.65,0,0,0,1.69-3.88Z"/><path class="cls-1" d="M40.07,8.39A9.19,9.19,0,0,0,37.44,5a8.6,8.6,0,0,0-1.88-2.69,2.84,2.84,0,0,1-.14,1.39,12.66,12.66,0,0,0-4.18-1.23A17.29,17.29,0,0,1,34.6,5.37,18,18,0,0,1,32.54,8a19.4,19.4,0,0,1,3.81-.52,26.68,26.68,0,0,1,2.36,3.88,16.27,16.27,0,0,0-.35-3.75,3.09,3.09,0,0,1,1.71.74Z"/><path class="cls-1" d="M31.24,2.44a16.61,16.61,0,0,0-3-1.16A6.19,6.19,0,0,1,30.54,0a12.21,12.21,0,0,0-5,.81A10.76,10.76,0,0,0,22.18,1,3.53,3.53,0,0,1,23,2.16a11.34,11.34,0,0,0-2.64,2.45,18.63,18.63,0,0,1,3.28-1.23,7.16,7.16,0,0,0,.39.66A12.39,12.39,0,0,0,25.58,6a9,9,0,0,1,1.35-3.25,28.23,28.23,0,0,1,4.31-.28Z"/><path class="cls-1" d="M18,6.64a23.16,23.16,0,0,1,2.43-2,8.4,8.4,0,0,0-1.84.24,9.71,9.71,0,0,1,1.32-2.36,12.84,12.84,0,0,0-4.76,8,9.29,9.29,0,0,1,1.48-2.32,8.06,8.06,0,0,0,1,1.65A13.36,13.36,0,0,1,18,6.64Z"/><path class="cls-1" d="M21.15,12a24,24,0,0,0-3.32.32,23,23,0,0,1-.28-2.55,11.26,11.26,0,0,0-1.4,3,2.57,2.57,0,0,0-1.21.7A4.44,4.44,0,0,0,15.77,15a8.08,8.08,0,0,0,.6,3.69,7.89,7.89,0,0,1,.89-2.25A16.42,16.42,0,0,0,19.62,18a14.35,14.35,0,0,1-1.26-3.17A18.5,18.5,0,0,1,21.15,12Z"/><path class="cls-1" d="M28,23.37A27.41,27.41,0,0,1,25.18,22a30.88,30.88,0,0,1,.53-3.89,17.27,17.27,0,0,1-3,2.32A27.55,27.55,0,0,1,19.62,18a19.21,19.21,0,0,0,1.44,3.21,4.68,4.68,0,0,1-2.69.29s1,1.25,4.12,1.79a6.19,6.19,0,0,0,3.13,2.16,3.42,3.42,0,0,1-.45-1.93A26.49,26.49,0,0,0,28,23.37Z"/><path class="cls-1" d="M33.64,23.24a6.85,6.85,0,0,0,.07-2.37,15.94,15.94,0,0,1-2.27,2.64A18.15,18.15,0,0,1,28,23.37a8.52,8.52,0,0,0,1.85,1.35,5.49,5.49,0,0,1-2.18.88A12.78,12.78,0,0,0,36.83,22a9.07,9.07,0,0,1-3.19,1.26Z"/><path class="cls-1" d="M21.69,38.45a7.89,7.89,0,0,1,12,.15l.38-.36a8.4,8.4,0,0,0-12.75-.14l.36.35Z"/><polygon class="cls-1" points="26.96 34.27 24.65 34.75 24.07 31.95 26.35 31.48 26.45 31.99 24.96 32.3 25.08 32.89 26.51 32.59 26.61 33.11 25.19 33.41 25.32 34.08 26.85 33.76 26.96 34.27 26.96 34.27"/><polygon class="cls-1" points="31.37 32.47 29.99 32.18 29.86 32.8 31.24 33.09 31.13 33.6 29.75 33.31 29.51 34.46 28.73 34.29 29.32 31.5 31.48 31.95 31.37 32.47 31.37 32.47"/><path class="cls-1" d="M34.7,37.25,34,36.6l.11-.61-1.18-.82-.51.33-.78-.44,2.77-1.65.76.52-.48,3.32Zm-.24-3.06-1.05.66.84.58.21-1.24Z"/><path class="cls-1" d="M22,36.1a1.39,1.39,0,0,1-2,0l-.92-1.17.62-.49.9,1.16a.7.7,0,0,0,1.05,0,.7.7,0,0,0,.2-1l-.9-1.15.61-.49.92,1.18c.55.75.21,1.43-.46,2Z"/><path class="cls-1" d="M37.51,34.46a13.52,13.52,0,0,0-19.67.09l-.42-.42a14.23,14.23,0,0,1,20.51-.07l-.42.4Z"/><path class="cls-1" d="M40.27,45.81a2.81,2.81,0,0,1-2.75-3A2.74,2.74,0,0,1,40.31,40a2.91,2.91,0,0,1,0,5.82Zm-.09-5c-1.07,0-1.39,1-1.39,1.7,0,1,.45,2.47,1.68,2.47.87,0,1.38-.78,1.38-1.72s-.39-2.45-1.67-2.45Z"/><path class="cls-1" d="M29.8,45c0,.31.06.42.56.52v.21c-.54,0-.87,0-1.19,0s-.66,0-1,0v-.21c.33-.06.39-.21.39-.61v-4.2c0-.24-.1-.36-.39-.36v-.24h2.54c1.59,0,2.16.75,2.16,1.75a1.72,1.72,0,0,1-1.91,1.72c-.42,0-1-.22-1-.4s.05-.08.13-.08.19,0,.3,0a1.11,1.11,0,0,0,1.25-1.22c0-.77-.48-1-1.24-1l-.53.06V45Z"/><path class="cls-1" d="M34.5,40.65c0-.24-.1-.35-.39-.36v-.22c.38,0,.71,0,1,0s.65,0,1,0v.22c-.29,0-.4.12-.4.36v4.5c0,.24.11.36.4.37v.21c-.38,0-.71,0-1,0s-.65,0-1,0v-.21c.29,0,.39-.12.39-.36V40.65Z"/><path class="cls-1" d="M44.84,40.65c0-.24-.1-.35-.39-.36v-.23c.38,0,.71.06,1,.06a3.29,3.29,0,0,0,.75-.06l2.38,3.85h0V40.77c0-.45-.28-.48-.51-.48v-.22c.28,0,.55,0,.82,0s.57,0,.84,0v.22c-.29,0-.39.12-.39.36v5.08h-.91l-2.85-4.44h0V45c0,.45.28.48.51.48v.22a5.77,5.77,0,0,0-1.66,0v-.22c.29,0,.39-.12.39-.36v-4.5Z"/><path class="cls-1" d="M51.53,43.78a1.61,1.61,0,0,0,1.76,1.41c.52,0,1.27-.15,1.27-.81s-.55-.67-1-.8L53,43.4c-.9-.27-1.8-.65-1.8-1.69,0-1.37,1.33-1.79,2.64-1.79a4.81,4.81,0,0,1,1.65.29c0,.63,0,1.17.07,1.63h-.22a1.55,1.55,0,0,0-1.64-1.19c-.45,0-1.19.14-1.19.75s.42.63.79.73l.92.27c.9.25,1.73.58,1.73,1.73s-1.18,1.79-2.62,1.79a6,6,0,0,1-1.92-.32c0-.7,0-1.31-.07-1.82Z"/><path class="cls-1" d="M6.87,40.65c0-.24-.1-.35-.39-.36v-.22c.38,0,.71,0,1,0s.65,0,1,0v.22c-.29,0-.39.12-.39.36v1.7h2.07v-1.7c0-.24-.1-.35-.39-.36v-.22c.38,0,.71,0,1,0s.65,0,1,0v.22c-.29,0-.4.12-.4.36v4.5c0,.24.11.36.4.37v.21c-.38,0-.71,0-1,0s-.65,0-1,0v-.21c.29,0,.39-.13.39-.37v-2H8.15v2c0,.24.1.36.39.37v.21c-.38,0-.71,0-1,0s-.65,0-1,0v-.21c.29,0,.39-.13.39-.37v-4.5Z"/><path class="cls-1" d="M15.07,43.27c.22-.61.5-1.28.69-2h0a15.84,15.84,0,0,0,.5,2ZM13,45.73a8.85,8.85,0,0,1,.89,0,8.69,8.69,0,0,1,.89,0v-.21c-.29,0-.41-.12-.41-.28a1.05,1.05,0,0,1,.07-.3l.38-1h1.68l.27.83a1.57,1.57,0,0,1,.09.43c0,.2-.11.27-.43.33v.21c.37,0,.74,0,1.1,0s.73,0,1.09,0v-.21c-.25-.07-.38-.18-.51-.56l-1.58-4.89c-.27,0-.54,0-.81,0s-.53,0-.81,0v.22c.24,0,.33.14.33.23a1.26,1.26,0,0,1-.11.33l-1.68,4.27a.55.55,0,0,1-.45.4v.21Z"/><path class="cls-1" d="M20.35,41.46c0-.24,0-.48,0-.82s-.06-.3-.38-.35v-.22c.26,0,.57,0,.88,0s.61,0,.92,0l1.51,4,1.34-4c.3,0,.6,0,.9,0s.6,0,.89,0v.22c-.3,0-.34.12-.34.36s0,.62.06.92l.27,3.66c0,.23.27.26.44.29v.21c-.37,0-.75,0-1.12,0s-.74,0-1.1,0v-.21c.42-.06.54-.13.54-.53,0-.2,0-.59-.05-.87l-.2-2.56h0l-1.43,4.22h-.73L21.11,41.5h0L21,44c0,.45,0,.68,0,.91,0,.43,0,.53.56.59v.21c-.34,0-.66,0-1,0a8.42,8.42,0,0,0-.9,0v-.21c.34,0,.47-.11.49-.47l.19-3.59Z"/><path class="cls-1" d="M5.19,45.42a3.55,3.55,0,0,1-2,.63A3.13,3.13,0,0,1,0,42.83a3.2,3.2,0,0,1,3.37-3.27,4.57,4.57,0,0,1,1.56.23c0,.65,0,1.28.08,1.9H4.76a1.4,1.4,0,0,0-1.5-1.21c-1.08,0-1.91.85-1.91,2.28a2.3,2.3,0,0,0,2.14,2.31,3.2,3.2,0,0,0,1.81-.72l-.11,1.07Z"/><path class="cls-1" d="M14.48,48.84c0-.19-.08-.28-.3-.28v-.18c.29,0,.55,0,.79,0s.69,0,.88,0v.18c-.34,0-.38.18-.38.36v3.25h1.22c.44,0,.62-.2.73-.7h.21a7,7,0,0,0-.15,1.28h-3.3v-.18c.22,0,.3-.09.3-.28V48.84Z"/><path class="cls-1" d="M18.7,48.86c0-.19-.08-.27-.3-.28V48.4h3.35c0,.36,0,.66.05,1h-.18c-.07-.37-.16-.49-.52-.49H19.69v1.28h.88c.29,0,.34-.1.38-.34h.18a5,5,0,0,0,0,1.26H21c0-.24-.09-.34-.38-.34h-.88v1.38h1.49c.35,0,.47-.12.58-.68H22c-.06.55-.07.9-.08,1.26H18.4v-.18c.22,0,.3-.09.3-.28V48.86Z"/><path class="cls-1" d="M22.77,52.57a.39.39,0,0,0,.35-.3L24.42,49a.83.83,0,0,0,.08-.26c0-.06-.07-.17-.25-.17v-.18c.22,0,.42,0,.63,0s.42,0,.62,0l1.22,3.77c.1.29.2.38.4.43v.18c-.28,0-.56,0-.84,0s-.57,0-.86,0v-.18c.25,0,.33-.1.33-.25a1.28,1.28,0,0,0-.06-.33l-.22-.64H24.18l-.29.78a.53.53,0,0,0-.05.23c0,.12.09.2.31.21v.18c-.23,0-.46,0-.69,0s-.45,0-.69,0v-.18Zm2.54-1.72a14.51,14.51,0,0,1-.38-1.52h0c-.16.52-.37,1.05-.54,1.52Z"/><path class="cls-1" d="M30.67,51.2c0-.26-.12-.28-.42-.28V50.7c.27,0,.54,0,.82,0s.59,0,.89,0v.2c-.23,0-.35.07-.35.37v1.48h-.39l-.15-.44a1.85,1.85,0,0,1-1.31.53,2.09,2.09,0,0,1-2-2.22,2.2,2.2,0,0,1,2.39-2.31,2.47,2.47,0,0,1,1.31.31c0,.32,0,.69,0,1.15h-.19a1.11,1.11,0,0,0-1.19-.88,1.38,1.38,0,0,0-1.38,1.56c0,.82.47,1.75,1.24,1.75.47,0,.73-.22.73-.52V51.2Z"/><path class="cls-1" d="M33.29,48.84c0-.19-.08-.28-.3-.28v-.18c.21,0,.48,0,.76,0s.62,0,.88,0v.18c-.28,0-.36.06-.36.32v2.48c0,.75.32.9.85.9s.85-.16.85-.9V48.88c0-.26-.07-.31-.36-.32v-.18c.27,0,.54,0,.88,0s.56,0,.77,0v.18c-.23,0-.31.09-.31.28v2.38c0,1.23-.63,1.62-1.83,1.62s-1.83-.39-1.83-1.53V48.84Z"/><path class="cls-1" d="M38.66,48.86c0-.19-.08-.27-.3-.28V48.4h3.35c0,.36,0,.66,0,1h-.18c-.07-.37-.16-.49-.52-.49H39.64v1.26h.88c.3,0,.35-.1.39-.34h.18c0,.17,0,.45,0,.63a6.26,6.26,0,0,0,0,.63h-.18c0-.24-.09-.34-.39-.34h-.88v1.4h1.5c.35,0,.47-.12.58-.68h.22c-.06.55-.07.9-.08,1.26h-3.5v-.18c.22,0,.3-.09.3-.28V48.86Z"/><path class="cls-1" d="M43,54.54a.79.79,0,1,0-.81-.79.8.8,0,0,0,.81.79Zm-.65-.79a.64.64,0,0,1,.65-.66.66.66,0,0,1,0,1.32.64.64,0,0,1-.65-.66Zm.48.06H43l.24.39h.16l-.26-.4a.23.23,0,0,0,.23-.25c0-.18-.1-.26-.32-.26h-.35v.91h.14v-.39Zm0-.12v-.28H43c.1,0,.2,0,.2.13s-.1.15-.22.15Z"/></g></g></svg>