<svg xmlns="http://www.w3.org/2000/svg" viewBox="0 0 38.1 53.68"><defs><style>.cls-1{fill:#fff;}.cls-2{fill:#941b80;}.cls-3{fill:#004f9e;}.cls-4{fill:#008fd6;}.cls-5{fill:#009540;}.cls-6{fill:#ffec00;}.cls-7{fill:#f08700;}.cls-8{fill:#e20613;}.cls-9{fill:#1d1d1b;}</style></defs><title>Laliga</title><g id="Layer_2" data-name="Layer 2"><g id="Layer_1-2" data-name="Layer 1"><path class="cls-1" d="M18.71,13.13A6.32,6.32,0,1,0,25,19.44a6.32,6.32,0,0,0-6.31-6.31"/><path class="cls-2" d="M5.36,8.29a.21.21,0,0,0,0,.23.27.27,0,0,0,.08.07l6.69,3.89h0a.24.24,0,0,0,.23,0l.06-.05v0a8.79,8.79,0,0,1,6.12-4.32h0l.08,0a.2.2,0,0,0,.08-.21v0L17.35.19v0a.12.12,0,0,0,0-.08A.19.19,0,0,0,17.11,0h0A17,17,0,0,0,5.36,8.29"/><path class="cls-3" d="M1.53,23a.24.24,0,0,0,.19.13.18.18,0,0,0,.1,0L9,20.32h0a.21.21,0,0,0,.13-.18.19.19,0,0,0,0-.08s0,0,0,0a8.76,8.76,0,0,1,.46-7.48v0a.19.19,0,0,0,0-.08.21.21,0,0,0-.11-.2h0L2.72,8.57h0l-.09,0a.19.19,0,0,0-.2.1h0a17.09,17.09,0,0,0-2,7.09A16.84,16.84,0,0,0,1.53,23"/><path class="cls-4" d="M10.71,35.07a.23.23,0,0,0,.22-.06.31.31,0,0,0,.05-.1l2.3-7.38v0a.23.23,0,0,0-.07-.22l-.07,0h0a8.75,8.75,0,0,1-5.58-5,0,0,0,0,0,0,0,.15.15,0,0,0,0-.06.2.2,0,0,0-.22,0h0L.14,25.18h0a.16.16,0,0,0-.08.06.23.23,0,0,0,0,.21v0H0a17,17,0,0,0,10.69,9.59"/><path class="cls-5" d="M25.8,35.43a.22.22,0,0,0,.09-.2.23.23,0,0,0,0-.1L21.53,28.7h0a.2.2,0,0,0-.21-.09.11.11,0,0,0-.07,0l0,0a8.82,8.82,0,0,1-7.4,1.21h-.1a.24.24,0,0,0-.18.16h0l-2.06,7.46h0a.17.17,0,0,0,0,.1.19.19,0,0,0,.14.16h0a17.12,17.12,0,0,0,7.36.41,16.9,16.9,0,0,0,6.82-2.73"/><path class="cls-6" d="M35.63,23.9a.23.23,0,0,0-.11-.19.19.19,0,0,0-.1,0l-7.72-.6h0a.2.2,0,0,0-.2.11.19.19,0,0,0,0,.07v0A9,9,0,0,1,26.38,27a8.88,8.88,0,0,1-2.56,2.87,0,0,0,0,0,0,0,.17.17,0,0,0-.06.06.24.24,0,0,0,0,.23h0l4.58,6.24h0a.13.13,0,0,0,.07.06.22.22,0,0,0,.22,0h0a17,17,0,0,0,7-12.55"/><path class="cls-7" d="M32.71,9a.22.22,0,0,0-.22,0A.18.18,0,0,0,32.4,9l-5.32,5.61v0a.18.18,0,0,0,0,.22.16.16,0,0,0,0,.07l0,0a8.76,8.76,0,0,1,2.8,7v0a.19.19,0,0,0,0,.08.22.22,0,0,0,.18.14h0l7.73.37h0a.15.15,0,0,0,.09,0,.21.21,0,0,0,.13-.17v0h0A17,17,0,0,0,32.71,9"/><path class="cls-8" d="M19.18,2.1a.22.22,0,0,0-.17.14.2.2,0,0,0,0,.11L20.14,10h0a.21.21,0,0,0,.16.17h.11a8.93,8.93,0,0,1,3.83.24,8.8,8.8,0,0,1,3.37,1.85l0,0,.07,0a.22.22,0,0,0,.22-.06h0L33,6.42v0a.22.22,0,0,0,0-.08A.22.22,0,0,0,33,6.11h0a17,17,0,0,0-6.47-3.53,16.66,16.66,0,0,0-7.33-.47"/><path class="cls-9" d="M18.71,13a6.4,6.4,0,1,0,6.4,6.4,6.41,6.41,0,0,0-6.4-6.4m4.65,10a4.92,4.92,0,0,0,.16-.8,4.87,4.87,0,0,1-.42.35,3.56,3.56,0,0,1-1.37.62l-1.24-1.35,0,0,.9,1.59a3.5,3.5,0,0,1-1,1.12,3.21,3.21,0,0,1-.46.29,4,4,0,0,0,.81.1,6,6,0,0,1-4,0,4,4,0,0,0,.81-.1,3.21,3.21,0,0,1-.46-.29,3.62,3.62,0,0,1-1-1.12l.9-1.59,0,0-1.24,1.35a3.65,3.65,0,0,1-1.78-1,3.44,3.44,0,0,0,.16.8,5.82,5.82,0,0,1-1.24-3.61v-.19a3.13,3.13,0,0,0,.35.76,3.3,3.3,0,0,1,.13-.52,3.6,3.6,0,0,1,.76-1.33l1.77.35v0l-1.66-.75a3.74,3.74,0,0,1,.18-1.49,2.85,2.85,0,0,1,.2-.51,3.36,3.36,0,0,0-.75.43,5.89,5.89,0,0,1,3.31-2.4,3.16,3.16,0,0,0-.66.59,4.9,4.9,0,0,1,.54,0,3.7,3.7,0,0,1,1.49.31l.21,1.79h0l.2-1.79a3.7,3.7,0,0,1,1.49-.31,4.56,4.56,0,0,1,.54,0,3.09,3.09,0,0,0-.65-.59,5.92,5.92,0,0,1,3.3,2.4,3.36,3.36,0,0,0-.75-.43,3.89,3.89,0,0,1,.21.51,3.56,3.56,0,0,1,.17,1.49l-1.66.76v0l1.77-.36a3.6,3.6,0,0,1,.76,1.33,3.3,3.3,0,0,1,.13.52,3.13,3.13,0,0,0,.35-.76v.19a5.89,5.89,0,0,1-1.23,3.61"/><polygon class="cls-9" points="16.12 18.6 17.11 21.64 20.31 21.64 21.3 18.6 18.71 16.72 16.12 18.6"/><polygon class="cls-8" points="0.13 42.67 0.13 51.26 5.06 51.26 5.06 49.3 2.36 49.3 2.36 42.67 0.13 42.67"/><path class="cls-8" d="M9.16,46.17a1.58,1.58,0,0,0-1.63,1.64A1.6,1.6,0,0,0,9.1,49.55a1.65,1.65,0,0,0,1.69-1.68,1.61,1.61,0,0,0-1.63-1.7M5.43,47.85a3.47,3.47,0,0,1,3.32-3.61,2.64,2.64,0,0,1,2,.84v-.71h2.06v6.89H10.69v-.68a2.9,2.9,0,0,1-2,.84c-1.91,0-3.21-1.36-3.21-3.57"/><polygon class="cls-8" points="18.93 51.26 14 51.26 14 42.67 16.23 42.67 16.23 49.3 18.93 49.3 18.93 51.26"/><path class="cls-8" d="M21.93,51.26H19.86V44.37h2.07Zm-2.27-8.64a1.26,1.26,0,0,1,2.51,0,1.28,1.28,0,0,1-1.28,1.28,1.24,1.24,0,0,1-1.23-1.26"/><path class="cls-8" d="M26.3,46a1.49,1.49,0,0,0-1.45,1.65,1.46,1.46,0,0,0,1.44,1.61,1.57,1.57,0,0,0,1.59-1.6A1.51,1.51,0,0,0,26.3,46m-3.47,1.66a3.16,3.16,0,0,1,3-3.44,2.56,2.56,0,0,1,2.05.91v-.78h2v6.07c0,2.13-1.6,3.24-3.52,3.24-1.68,0-3.16-.85-3.38-2.4h2.33a1.07,1.07,0,0,0,1.1.56c.72,0,1.39-.34,1.39-1.09a4.3,4.3,0,0,0,0-.51,3.18,3.18,0,0,1-2,.79,3.08,3.08,0,0,1-3-3.35"/><path class="cls-8" d="M34.48,46.17a1.58,1.58,0,0,0-1.62,1.64,1.6,1.6,0,0,0,1.56,1.74,1.65,1.65,0,0,0,1.69-1.68,1.61,1.61,0,0,0-1.63-1.7m-3.73,1.68a3.47,3.47,0,0,1,3.32-3.61,2.68,2.68,0,0,1,2,.84v-.71H38.1v6.89H36v-.68a2.9,2.9,0,0,1-2,.84c-1.91,0-3.21-1.36-3.21-3.57"/></g></g></svg>