<svg xmlns="http://www.w3.org/2000/svg" viewBox="0 0 85.59 31.75"><defs><style>.cls-1,.cls-2{fill:#fff;}.cls-1{fill-rule:evenodd;}</style></defs><title>SuperToto-White</title><g id="Layer_2" data-name="Layer 2"><g id="Layer_1-2" data-name="Layer 1"><polygon class="cls-1" points="36.89 9.95 34.3 9.95 34.3 16.34 32.82 16.34 32.82 9.95 30.23 9.95 30.23 8.47 36.89 8.47 36.89 9.95"/><polygon class="cls-1" points="51.75 9.95 49.16 9.95 49.16 16.34 47.68 16.34 47.68 9.95 45.09 9.95 45.09 8.47 51.75 8.47 51.75 9.95"/><path class="cls-1" d="M57.33,8.52a2.29,2.29,0,0,1,.94.19,2.34,2.34,0,0,1,.79.53,2.51,2.51,0,0,1,.7,1.72v3a2.37,2.37,0,0,1-.19,1,2.46,2.46,0,0,1-.51.77,2.64,2.64,0,0,1-.79.52,2.29,2.29,0,0,1-.94.19h-3a2.34,2.34,0,0,1-1-.19,2.55,2.55,0,0,1-.77-.52,2.49,2.49,0,0,1-.52-.77,2.37,2.37,0,0,1-.19-1V11a2.46,2.46,0,0,1,.18-.94,2.5,2.5,0,0,1,.53-.78,2.21,2.21,0,0,1,.78-.53,2.26,2.26,0,0,1,.94-.19Zm-3.85,5.77a1.2,1.2,0,0,0,.21.31.92.92,0,0,0,.31.2.86.86,0,0,0,.36.08h3a.87.87,0,0,0,.37-.08,1.21,1.21,0,0,0,.3-.2,1,1,0,0,0,.21-.31.86.86,0,0,0,.07-.36V11a.9.9,0,0,0-.07-.37,1,1,0,0,0-.21-.3,1,1,0,0,0-.3-.21.87.87,0,0,0-.37-.07h-3a.86.86,0,0,0-.36.07,1,1,0,0,0-.31.21,1.14,1.14,0,0,0-.21.3.94.94,0,0,0-.07.37v3A1,1,0,0,0,53.48,14.29Z"/><path class="cls-1" d="M42.48,8.52a2.36,2.36,0,0,1,.94.19,2.4,2.4,0,0,1,.78.53A2.46,2.46,0,0,1,44.91,11v3a2.56,2.56,0,0,1-.19,1,2.68,2.68,0,0,1-.52.77,2.73,2.73,0,0,1-.78.52,2.36,2.36,0,0,1-.94.19h-3a2.29,2.29,0,0,1-.94-.19,2.42,2.42,0,0,1-1.3-1.29,2.37,2.37,0,0,1-.19-1V11a2.29,2.29,0,0,1,.19-.94,2.32,2.32,0,0,1,.52-.78,2.21,2.21,0,0,1,.78-.53,2.29,2.29,0,0,1,.94-.19Zm-3.85,5.77a1,1,0,0,0,.2.31.92.92,0,0,0,.31.2.94.94,0,0,0,.36.08h3a.86.86,0,0,0,.36-.08.93.93,0,0,0,.3-.2,1,1,0,0,0,.21-.31.86.86,0,0,0,.08-.36V11a.91.91,0,0,0-.08-.37,1.05,1.05,0,0,0-.51-.51.86.86,0,0,0-.36-.07h-3a.92.92,0,0,0-.36.07,1,1,0,0,0-.31.21,1.14,1.14,0,0,0-.21.3,1.16,1.16,0,0,0-.07.37v3A.86.86,0,0,0,38.63,14.29Z"/><path class="cls-1" d="M29.66,12.29a2.07,2.07,0,0,1-.86.72l1,3.33H28.28l-1-3.13H24.75v3.12H23.27V11.72h4.62a.67.67,0,0,0,.48-.2.63.63,0,0,0,.2-.46V10.7a.66.66,0,0,0-.2-.48.66.66,0,0,0-.48-.19H23.32V8.55h4.57a2,2,0,0,1,.84.17,2.14,2.14,0,0,1,1.15,1.14,2.17,2.17,0,0,1,.17.84v.36A2.07,2.07,0,0,1,29.66,12.29Z"/><path class="cls-1" d="M12.69,8.46a2.17,2.17,0,0,1,.84.17,2.14,2.14,0,0,1,1.14,1.15,2,2,0,0,1,.17.83V11a2,2,0,0,1-.17.84,2.4,2.4,0,0,1-.46.68,2,2,0,0,1-1.52.63H9.54v3.22H8.05V11.63h4.64a.62.62,0,0,0,.46-.19.65.65,0,0,0,.2-.47v-.36a.66.66,0,0,0-.2-.48.62.62,0,0,0-.46-.19H8.11V8.46Z"/><path class="cls-1" d="M7.26,8.48V10H2.16a.65.65,0,0,0-.67.67V11a.62.62,0,0,0,.19.46.62.62,0,0,0,.48.2H5.68a2.14,2.14,0,0,1,.84.17,2.08,2.08,0,0,1,.7.46,2.19,2.19,0,0,1,.63,1.52v.36a2,2,0,0,1-.17.84,2.15,2.15,0,0,1-.46.68,2.27,2.27,0,0,1-.7.47,2.13,2.13,0,0,1-.84.16H.59V14.83H5.68a.61.61,0,0,0,.48-.2.64.64,0,0,0,.19-.47V13.8a.65.65,0,0,0-.67-.66H2.16A2.22,2.22,0,0,1,1.31,13,2.17,2.17,0,0,1,0,11v-.36A2.12,2.12,0,0,1,.17,9.8a2.09,2.09,0,0,1,.46-.69,2,2,0,0,1,.68-.46,2.22,2.22,0,0,1,.85-.17Z"/><path class="cls-1" d="M16.58,14.29a.85.85,0,0,0,.21.31.79.79,0,0,0,.3.2.92.92,0,0,0,.36.07h3a.86.86,0,0,0,.36-.07.79.79,0,0,0,.3-.2,1,1,0,0,0,.21-.31.86.86,0,0,0,.08-.36V11a.91.91,0,0,0-.08-.37,1.05,1.05,0,0,0-.51-.51.86.86,0,0,0-.36-.07h-3a.92.92,0,0,0-.36.07,1,1,0,0,0-.31.21.93.93,0,0,0-.2.3,1,1,0,0,0-.08.37v3A.86.86,0,0,0,16.58,14.29Zm3.85-5.77a2.5,2.5,0,0,1,.94.19,2.21,2.21,0,0,1,.78.53,2.32,2.32,0,0,1,.52.78,2.47,2.47,0,0,1,.19.94v3a2.41,2.41,0,0,1-.71,1.72,2.6,2.6,0,0,1-.78.52,2.32,2.32,0,0,1-.94.19h-3a2.29,2.29,0,0,1-.94-.19,2.6,2.6,0,0,1-.78-.52,2.68,2.68,0,0,1-.52-.77,2.56,2.56,0,0,1-.19-1V11a2.47,2.47,0,0,1,.19-.94,2.32,2.32,0,0,1,.52-.78,2.45,2.45,0,0,1,.78-.53,2.29,2.29,0,0,1,.94-.19Z"/><path class="cls-2" d="M6.35,26.19h.39A2.21,2.21,0,0,0,8.93,28a1.42,1.42,0,0,0,1.59-1.32,1.67,1.67,0,0,0-.78-1.34c-.2-.15-.45-.33-.75-.52a9.26,9.26,0,0,1-2.06-1.64A2,2,0,0,1,6.51,22c0-1.11,1-1.88,2.35-1.88a4.9,4.9,0,0,1,1.1.13,1.8,1.8,0,0,0,.54.08.39.39,0,0,0,.36-.15h.32l.28,2h-.37A2.33,2.33,0,0,0,9,20.54,1.1,1.1,0,0,0,7.74,21.6a1.52,1.52,0,0,0,.81,1.26c.32.23.69.48,1.1.73,1.21.78,1.69,1.22,1.95,1.83a2.25,2.25,0,0,1,.16.87c0,1.31-1.1,2.19-2.72,2.19a5.35,5.35,0,0,1-1-.11l-.36-.08a1.31,1.31,0,0,0-.31,0,.37.37,0,0,0-.34.13H6.67Z"/><path class="cls-2" d="M19.76,23.6l1.65-.77h.31V23.9a4,4,0,0,1,2.1-.81,2.07,2.07,0,0,1,1.86,2.31,3.06,3.06,0,0,1-3,3,3.36,3.36,0,0,1-1-.17v1.73c0,.79.19,1,1,1h.21v.32H19.57v-.32h.09c.68,0,.86-.26.86-1.24v-5a3.47,3.47,0,0,0,0-.39.24.24,0,0,0-.06-.18A.27.27,0,0,0,20.3,24a2.07,2.07,0,0,0-.54-.12Zm3.39,4.26c.77,0,1.32-.77,1.32-1.84,0-1.24-.67-2.22-1.51-2.22a2.19,2.19,0,0,0-1.24.48v2.86A2,2,0,0,0,23.15,27.86Z"/><path class="cls-2" d="M28.85,28.42a2.33,2.33,0,0,1-2.31-2.6A2.6,2.6,0,0,1,29.16,23a2.13,2.13,0,0,1,1.67.69,1.85,1.85,0,0,1,.37.76c.11.37.17.46.35.52v.29H27.73c0,1.46.77,2.4,1.89,2.4a2.18,2.18,0,0,0,1.62-.89l.19.2A3.24,3.24,0,0,1,28.85,28.42ZM30.08,25c-.1-1.06-.48-1.61-1.13-1.61s-1.08.55-1.21,1.61Z"/><path class="cls-2" d="M32.17,23.83v-.28L33.85,23h.39v1.27l.09-.18c.44-.8.74-1.09,1.09-1.09a.69.69,0,0,1,.22,0l.12,0c.36.12.58.18.83.24l-.41,1a4.14,4.14,0,0,1-.74-.23l-.14-.06a.5.5,0,0,0-.24-.06c-.27,0-.54.25-.82.82V27c0,.8.19,1,.91,1h.36v.33H32.18V28h0c.64,0,.8-.23.8-1.22V24.15Z"/><path class="cls-2" d="M36.69,28.28v-.35H37c.68,0,.87-.24.88-1.09V21.79c0-.86-.2-1.09-.88-1.09h-.33v-.35h4.17v.35h-.29c-1.11,0-1.24.1-1.24,1v5.52c0,.39.13.47.68.47h1.32c.87,0,1.06-.05,1.43-.47s.34-.42.67-.88h.38l-1,1.93Z"/><path class="cls-2" d="M45.38,20.28c.47,0,.79.26.79.66s-.33.69-.82.69a.7.7,0,0,1-.78-.67C44.57,20.54,44.89,20.28,45.38,20.28Z"/><path class="cls-2" d="M43.86,23.41l2-.52h.23v3.83c0,1,.16,1.23.84,1.23H47v.33H43.87V28H44c.69,0,.84-.21.84-1.22v-2.3c0-.56-.07-.62-1-.74Z"/><path class="cls-2" d="M47.67,27.61c0-.36.18-.54.69-.7a4.89,4.89,0,0,0,.59-.26A1.69,1.69,0,0,1,47.75,25a2.13,2.13,0,0,1,2.39-2,2.46,2.46,0,0,1,1.56.48l1.71-.26v1.1a4.2,4.2,0,0,1-1.2-.18,2,2,0,0,1,.14.74,2.13,2.13,0,0,1-2.3,1.92,3.8,3.8,0,0,1-.7-.06c-.43.29-.56.43-.56.59,0,.35.39.45,1.86.47a5.1,5.1,0,0,1,1.81.15,1.18,1.18,0,0,1,.82,1.1,1.69,1.69,0,0,1-.75,1.29,4.44,4.44,0,0,1-2.9.87c-1.4,0-2.15-.4-2.15-1.13,0-.36.2-.65.71-1a2.15,2.15,0,0,0,.51-.43C48.05,28.43,47.67,28.06,47.67,27.61ZM49,28.77a.17.17,0,0,1-.08.1l-.11.12a.82.82,0,0,0-.27.57c0,.65.85,1.2,1.85,1.2s1.87-.62,1.87-1.31c0-.39-.25-.57-.84-.58l-1,0a8.54,8.54,0,0,1-1.41-.1S49.05,28.76,49,28.77Zm1.07-2.32c.63,0,1-.54,1-1.39S50.68,23.4,50,23.4s-1.06.53-1.06,1.35C48.94,25.75,49.43,26.45,50.11,26.45Z"/><path class="cls-2" d="M17.24,28.41h-.15v-1a10.86,10.86,0,0,1-1,.62,2.72,2.72,0,0,1-1.22.35c-.93,0-1.37-.57-1.37-1.79V24.5c0-.54,0-.6-.32-.7a2.35,2.35,0,0,0-.47-.12V23.4L14.35,23h.34v3.29c0,.91.31,1.32,1,1.32a2.5,2.5,0,0,0,1.4-.63V24.5c0-.7-.1-.79-1.09-.88v-.29L18,23h.31v4c0,.54,0,.63.32.63a2.18,2.18,0,0,0,.52-.08v.31Z"/><path class="cls-2" d="M14.76,20.68a.69.69,0,0,1,.78.66c0,.42-.33.69-.82.69a.68.68,0,0,1-.77-.67C14,21,14.26,20.68,14.76,20.68Z"/><path class="cls-2" d="M17,20.68a.69.69,0,0,1,.78.66c0,.42-.33.69-.82.69a.68.68,0,0,1-.77-.67C16.23,21,16.54,20.68,17,20.68Z"/><path class="cls-2" d="M73.56,12.6A19.87,19.87,0,0,1,63.43,9.18s1.05,7.59,3.8,11.7l-.07,2.64S62.39,17.4,62.31,6.33l.3-.32s4.63,4.58,11,4.81a14.14,14.14,0,0,0,9-2.95,20.2,20.2,0,0,0,2.09-1.75s.74-1.06.89.53c0,0,1.57,23.31-16.84,25.1,0,0-.82-.32-1-3.16,0,0,16.09,2.42,16.61-19,0,0-.28.21-.81.53A18.33,18.33,0,0,1,73.56,12.6Z"/><polygon class="cls-2" points="76.58 0 78.37 1.44 80.58 0.78 79.76 2.93 81.07 4.82 78.77 4.71 77.38 6.54 76.77 4.32 74.6 3.56 76.53 2.3 76.58 0"/></g></g></svg>