<?xml version="1.0" encoding="utf-8"?>
<!-- Generator: Adobe Illustrator 19.1.0, SVG Export Plug-In . SVG Version: 6.00 Build 0)  -->
<svg version="1.1" id="Layer_1" xmlns="http://www.w3.org/2000/svg" xmlns:xlink="http://www.w3.org/1999/xlink" x="0px" y="0px"
	 viewBox="-284 368 41.9 57" style="enable-background:new -284 368 41.9 57;" xml:space="preserve">
<style type="text/css">
	.st0{fill:#4A4A4A;}
	.st1{fill:#FFFFFF;}
</style>
<title>Allsvenskan_Grey</title>
<path class="st0" d="M-284,389c0,11.6,9.4,21,21,21c11.6,0,21-9.4,21-21s-9.4-21-21-21C-274.6,368-284,377.4-284,389z"/>
<path class="st1" d="M-281.7,389c0,10.3,8.4,18.7,18.7,18.7c10.3,0,18.7-8.4,18.7-18.7c0-10.3-8.4-18.7-18.7-18.7
	c-5,0-9.7,2-13.2,5.5C-279.8,379.3-281.7,384-281.7,389z"/>
<path class="st0" d="M-251.5,377.4c-6.4-6.4-16.7-6.4-23.1,0c-6.4,6.4-6.4,16.7,0,23.1s16.7,6.4,23.1,0c3-3,4.8-7.2,4.8-11.5
	C-246.7,384.7-248.4,380.5-251.5,377.4z"/>
<path class="st1" d="M-277.1,389c0,5.2,2.8,9.9,7.3,12.4c0.3,0.2,0.6,0.3,1,0.3c0.8,0,1.5-0.4,1.9-1.1c0.2-0.3,0.3-0.7,0.3-1
	c0-0.8-0.4-1.5-1.1-1.9c-1.4-0.8-2.6-1.9-3.5-3.3l-0.1-0.1h16.6l-0.1,0.1c-0.9,1.4-2.1,2.5-3.5,3.3c-0.7,0.4-1.1,1.1-1.1,1.9
	c0,0.4,0.1,0.7,0.3,1c0.6,1,1.9,1.4,2.9,0.8c6.8-3.7,9.3-12.3,5.6-19.1c-3.7-6.8-12.3-9.3-19.1-5.6
	C-274.3,379.1-277.1,383.9-277.1,389z M-263,379.1c5.4,0,9.8,4.5,9.8,9.9c0,0.4,0,0.7-0.1,1l0,0h-19.6l0,0c0-0.3-0.1-0.7-0.1-1
	C-272.9,383.6-268.5,379.1-263,379.1C-263,379.1-263,379.1-263,379.1z"/>
<path class="st1" d="M-280.4,410.9l0.5,0.3l-1.3,4.8l-0.6-0.3l0.3-1l-0.8-0.4l-0.7,0.8l-0.6-0.3L-280.4,410.9z M-280.8,412.3
	L-280.8,412.3l-1.1,1.4l0.6,0.3L-280.8,412.3z"/>
<path class="st1" d="M-277.9,412.2l0.6,0.3l-1.5,3.8l1.3,0.5l-0.3,0.6l-1.9-0.8L-277.9,412.2z"/>
<path class="st1" d="M-274.8,413.3l0.7,0.2l-1.2,4l1.3,0.4l-0.2,0.7l-2-0.6L-274.8,413.3z"/>
<path class="st1" d="M-269.8,416l-0.7-0.1v-0.1c0.1-0.3,0-0.6-0.4-0.7c-0.4-0.1-0.5,0.2-0.6,0.5c-0.1,0.3-0.1,0.5,0.3,0.7l0.5,0.3
	c0.5,0.3,0.6,0.7,0.5,1.4c-0.1,0.7-0.6,1.3-1.4,1.2c-0.6-0.1-1-0.7-0.9-1.3c0,0,0,0,0,0v-0.3l0.7,0.1v0.2c-0.1,0.2,0.1,0.5,0.3,0.6
	c0,0,0,0,0.1,0c0.5,0.1,0.5-0.2,0.6-0.6c0.1-0.4,0.1-0.6-0.2-0.8l-0.4-0.3c-0.5-0.3-0.7-0.8-0.5-1.4c0-0.6,0.6-1.1,1.2-1.1
	c0.1,0,0.1,0,0.2,0c0.6,0.1,1,0.7,0.9,1.3L-269.8,416z"/>
<path class="st1" d="M-267.3,419.7l-0.6-0.1l-0.5-4.9l0.7,0.1l0.2,3.4l0,0l0.9-3.3l0.7,0.1L-267.3,419.7z"/>
<path class="st1" d="M-264.5,415.1h2.1v0.6h-1.4v1.4h1.2v0.7h-1.2v1.4h1.4v0.7h-2.1L-264.5,415.1z"/>
<path class="st1" d="M-261.1,415.1h0.7l1.3,2.8l0,0l-0.3-2.9l0.7-0.1l0.4,4.8l-0.6,0.1l-1.3-2.8l0,0l0.3,2.8l-0.7,0.1L-261.1,415.1z
	"/>
<path class="st1" d="M-254.7,415.6l-0.7,0.1v-0.2c-0.1-0.3-0.2-0.5-0.6-0.5c-0.4,0.1-0.4,0.4-0.3,0.7s0.1,0.5,0.5,0.6l0.6,0.1
	c0.6,0.1,0.8,0.5,0.9,1.2c0.1,0.7,0,1.4-0.9,1.6c-0.6,0.1-1.2-0.3-1.4-0.9c0,0,0,0,0,0v-0.3l0.7-0.1v0.2c0,0.2,0.2,0.4,0.5,0.4
	c0,0,0.1,0,0.1,0c0.5-0.1,0.4-0.4,0.4-0.8c-0.1-0.4-0.2-0.6-0.5-0.6l-0.5-0.1c-0.6-0.1-1-0.5-1-1.1c-0.2-0.6,0.1-1.3,0.8-1.5
	c0.1,0,0.1,0,0.2,0c0.6-0.1,1.2,0.3,1.3,0.9L-254.7,415.6z"/>
<path class="st1" d="M-253.5,413.9l0.7-0.2l0.6,2.1l0,0l0.4-2.4l0.7-0.2l-0.4,2.1l1.9,2.5l-0.7,0.2l-1.4-1.8l-0.2,0.8l0.4,1.4
	l-0.7,0.2L-253.5,413.9z"/>
<path class="st1" d="M-249.4,412.6l0.5-0.2l2.8,4.1l-0.6,0.3l-0.6-0.9l-0.9,0.4l0.2,1l-0.6,0.3L-249.4,412.6z M-248.6,413.7
	L-248.6,413.7l0.3,1.7l0.6-0.3L-248.6,413.7z"/>
<path class="st1" d="M-246.9,411.5l0.6-0.3l2.3,2.1l0,0l-1.4-2.6l0.6-0.3l2.3,4.3l-0.6,0.3l-2.3-2l0,0l1.4,2.5l-0.6,0.3
	L-246.9,411.5z"/>
<path class="st1" d="M-274.1,423.2c0.1,0.2,0.3,0.3,0.6,0.4c0.3,0.1,0.5,0,0.5-0.2c0-0.2,0-0.3-0.2-0.4c0,0,0,0,0,0l-0.3-0.1
	c-0.3-0.1-0.5-0.4-0.4-0.8c0.1-0.4,0.4-0.6,0.8-0.5c0,0,0.1,0,0.1,0c0.3,0.1,0.5,0.2,0.7,0.4l-0.3,0.2c-0.1-0.1-0.3-0.2-0.5-0.3
	c-0.2-0.1-0.4,0-0.4,0.2c0,0,0,0,0,0c0,0.1,0,0.3,0.3,0.4l0.2,0.1c0.3,0.1,0.5,0.4,0.5,0.8c-0.1,0.4-0.4,0.6-0.9,0.5
	c-0.3-0.1-0.6-0.2-0.8-0.5L-274.1,423.2z"/>
<path class="st1" d="M-271.4,422l1.4,0.3l-0.1,0.3l-1.1-0.2l-0.1,0.6l0.9,0.2l-0.1,0.3l-0.9-0.1l-0.1,0.6l1.1,0.2l-0.1,0.3l-1.4-0.2
	L-271.4,422z"/>
<path class="st1" d="M-269,422.4l0.8,0.1c0.3,0,0.5,0.2,0.6,0.5c0.1,0.2,0.1,0.3,0,0.8s-0.1,0.6-0.2,0.8c-0.2,0.2-0.5,0.3-0.7,0.3
	l-0.8-0.1L-269,422.4z M-268.9,424.4h0.4c0.2,0,0.3,0,0.4-0.2c0.1-0.1,0.1-0.2,0.1-0.6c0-0.4,0-0.5,0-0.6c-0.1-0.1-0.2-0.2-0.4-0.2
	h-0.4L-268.9,424.4z"/>
<path class="st1" d="M-265.4,424.4h-0.9l-0.2,0.5h-0.4l1-2.2h0.3l0.7,2.3h-0.4L-265.4,424.4z M-265.5,424.1l-0.3-1l0,0l-0.4,1
	H-265.5z"/>
<path class="st1" d="M-263.9,422.7h0.3l1,1.6l0,0v-1.6h0.4v2.3h-0.3l-1-1.6l0,0v1.6h-0.3L-263.9,422.7z"/>
<path class="st1" d="M-259.3,422.9l-0.3,0.3v-0.3l0.3-0.3h0.3l0.2,2.3h-0.3L-259.3,422.9z"/>
<path class="st1" d="M-256.8,424.5h-0.4l0.3-1l0,0c-0.1,0-0.1,0-0.2,0.1c-0.3,0-0.6-0.1-0.6-0.6c-0.1-0.3,0.1-0.7,0.4-0.8
	s0.7,0.1,0.8,0.4c0,0.1,0,0.1,0,0.2c0,0.1,0,0.3,0,0.4L-256.8,424.5z M-256.6,422.9c0-0.3-0.2-0.4-0.4-0.3c-0.2,0-0.3,0.2-0.3,0.4
	c0,0,0,0,0,0c0,0.3,0.2,0.3,0.4,0.3C-256.7,423.3-256.6,423.2-256.6,422.9z"/>
<path class="st1" d="M-255.2,424l0.7-1.3c0-0.1,0-0.2,0-0.2c0-0.2-0.2-0.3-0.4-0.3c-0.2,0-0.3,0.2-0.3,0.4l-0.3,0.1
	c-0.1-0.3,0.2-0.7,0.5-0.8c0.4-0.1,0.7,0.2,0.8,0.5c0,0.1,0,0.3-0.1,0.4l-0.6,1l0.9-0.2l0.1,0.3l-1.3,0.2L-255.2,424z"/>
<path class="st1" d="M-253.2,423.2l0.3-1.8l0.4-0.1l-0.4,1.8l0.6-0.1l-0.2-0.6l0.3-0.1l0.2,0.6h0.2l0.1,0.3h-0.2l0.1,0.3l-0.3,0.1
	l-0.1-0.3l-0.9,0.2L-253.2,423.2z"/>
</svg>
