<svg xmlns="http://www.w3.org/2000/svg" xmlns:xlink="http://www.w3.org/1999/xlink" viewBox="0 0 41.91 56.98"><defs><style>.cls-1{fill:url(#radial-gradient);}.cls-2{fill:#002559;}.cls-3{fill:url(#radial-gradient-2);}.cls-4{fill:url(#radial-gradient-3);}.cls-5{fill:url(#radial-gradient-4);}.cls-6{fill:url(#radial-gradient-5);}</style><radialGradient id="radial-gradient" cx="13.42" cy="12.62" r="28.96" gradientUnits="userSpaceOnUse"><stop offset="0" stop-color="#75a7d9"/><stop offset="0.61" stop-color="#000745"/></radialGradient><radialGradient id="radial-gradient-2" cx="13.63" cy="12.92" r="28.16" gradientTransform="translate(0 -0.07)" gradientUnits="userSpaceOnUse"><stop offset="0" stop-color="#fffce8"/><stop offset="0.64" stop-color="#ffc10e"/></radialGradient><radialGradient id="radial-gradient-3" cx="13.42" cy="12.62" r="28.96" xlink:href="#radial-gradient"/><radialGradient id="radial-gradient-4" cx="14.47" cy="13.77" r="25.12" gradientUnits="userSpaceOnUse"><stop offset="0" stop-color="#fff"/><stop offset="0.65" stop-color="#ebebeb"/><stop offset="1" stop-color="#ccc"/></radialGradient><radialGradient id="radial-gradient-5" cx="14.47" cy="13.77" r="25.12" xlink:href="#radial-gradient-4"/></defs><title>Allsvenskan</title><g id="Layer_2" data-name="Layer 2"><g id="Layer_1-2" data-name="Layer 1"><path class="cls-1" d="M0,21A21,21,0,1,0,21,0,21,21,0,0,0,0,21Z"/><path class="cls-2" d="M21,2.15A18.81,18.81,0,1,0,39.76,21,18.82,18.82,0,0,0,21,2.15Z"/><path class="cls-3" d="M2.27,21A18.71,18.71,0,1,0,7.75,7.75,18.59,18.59,0,0,0,2.27,21Z"/><path class="cls-2" d="M9.33,32.57A16.33,16.33,0,0,1,4.52,21h0A16.33,16.33,0,0,1,9.33,9.33h0A16.38,16.38,0,0,1,21,4.52h0A16.39,16.39,0,0,1,32.58,9.33h0A16.33,16.33,0,0,1,37.39,21h0a16.33,16.33,0,0,1-4.81,11.62h0A16.34,16.34,0,0,1,21,37.39h0A16.32,16.32,0,0,1,9.33,32.57Z"/><path class="cls-4" d="M32.49,9.41A16.32,16.32,0,1,0,37.27,21,16.27,16.27,0,0,0,32.49,9.41Z"/><path class="cls-5" d="M21,6.82a14.13,14.13,0,0,0-6.77,26.54,2.17,2.17,0,1,0,2.09-3.81,9.77,9.77,0,0,1-3.49-3.23H29.13a9.86,9.86,0,0,1-3.49,3.23,2.17,2.17,0,1,0,2.08,3.81A14.13,14.13,0,0,0,21,6.82ZM11.23,22a8.6,8.6,0,0,1-.06-1,9.79,9.79,0,0,1,19.57,0,8.6,8.6,0,0,1-.06,1Z"/><path class="cls-2" d="M24.72,32.53a2.3,2.3,0,0,1-.27-1.07h0a2.23,2.23,0,0,1,1.16-2h0A9.88,9.88,0,0,0,29,26.38H12.88A9.88,9.88,0,0,0,16.3,29.5h0a2.23,2.23,0,0,1,1.16,2h0a2.19,2.19,0,0,1-.28,1.07h0a2.23,2.23,0,0,1-2,1.16h0a2.16,2.16,0,0,1-1.06-.28h0A14.19,14.19,0,0,1,6.76,21h0A14.21,14.21,0,0,1,21,6.76h0v.12A14.07,14.07,0,0,0,11,11h0A14.07,14.07,0,0,0,6.88,21h0a14.07,14.07,0,0,0,7.33,12.36h0a2.06,2.06,0,0,0,1,.26h0a2.14,2.14,0,0,0,1.87-1.1h0a2.17,2.17,0,0,0,.26-1h0a2.11,2.11,0,0,0-1.11-1.86h0a9.8,9.8,0,0,1-3.51-3.25h0l-.06-.09H29.24l-.06.09a9.83,9.83,0,0,1-3.52,3.25h0a2.12,2.12,0,0,0-1.1,1.86h0a2.06,2.06,0,0,0,.26,1h0a2.11,2.11,0,0,0,1.86,1.1h0a2.09,2.09,0,0,0,1-.26h0A14.07,14.07,0,0,0,35,21h0A14,14,0,0,0,30.9,11h0A14.05,14.05,0,0,0,21,6.88h0V6.76A14.21,14.21,0,0,1,35.14,21h0a14.18,14.18,0,0,1-7.39,12.46h0a2.19,2.19,0,0,1-1.07.28h0a2.24,2.24,0,0,1-2-1.16ZM11.23,22V22h0V22h-.05V22c0-.34-.06-.68-.06-1h0A9.86,9.86,0,0,1,21,11.11h0A9.86,9.86,0,0,1,30.8,21h0c0,.35,0,.69-.06,1h0V22Zm19.4-.12c0-.31.05-.63.05-1h0a9.69,9.69,0,0,0-2.85-6.87h0A9.7,9.7,0,0,0,21,11.23h0a9.69,9.69,0,0,0-6.87,2.85h0A9.69,9.69,0,0,0,11.23,21h0c0,.33,0,.65,0,1H30.63Z"/><path class="cls-2" d="M21,6.76a14.19,14.19,0,0,0-6.79,26.65,2.16,2.16,0,0,0,1.06.28,2.23,2.23,0,0,0,2-1.16,2.19,2.19,0,0,0,.28-1.07,2.23,2.23,0,0,0-1.16-2,9.88,9.88,0,0,1-3.42-3.12H29a9.88,9.88,0,0,1-3.42,3.12,2.23,2.23,0,0,0-1.16,2,2.3,2.3,0,0,0,.27,1.07,2.24,2.24,0,0,0,2,1.16,2.19,2.19,0,0,0,1.07-.28A14.19,14.19,0,0,0,21,6.76ZM30.68,22H11.23a8.6,8.6,0,0,1-.06-1,9.79,9.79,0,0,1,19.57,0A8.6,8.6,0,0,1,30.68,22Z"/><path class="cls-6" d="M6.88,21a14.07,14.07,0,0,0,7.33,12.36,2.06,2.06,0,0,0,1,.26,2.14,2.14,0,0,0,1.87-1.1,2.17,2.17,0,0,0,.26-1,2.11,2.11,0,0,0-1.11-1.86,9.8,9.8,0,0,1-3.51-3.25l-.06-.09H29.24l-.06.09a9.83,9.83,0,0,1-3.52,3.25,2.12,2.12,0,0,0-1.1,1.86,2.06,2.06,0,0,0,.26,1,2.13,2.13,0,0,0,2.88.84A14.08,14.08,0,1,0,6.88,21ZM21,11.11A9.86,9.86,0,0,1,30.8,21c0,.35,0,.69-.06,1V22H11.18V22c0-.34-.06-.68-.06-1A9.86,9.86,0,0,1,21,11.11Z"/><path class="cls-2" d="M3.57,42.93l.51.27L2.82,48l-.61-.32.29-1-.83-.44L1,47,.4,46.71ZM3.19,44.3h0l-1.1,1.39.61.32Z"/><path class="cls-2" d="M6.11,44.15l.64.26L5.23,48.24l1.27.51-.26.64-1.91-.76Z"/><path class="cls-2" d="M9.19,45.31l.67.19-1.17,4,1.31.39-.19.66-2-.58Z"/><path class="cls-2" d="M14.16,47.94l-.67-.13,0-.15c.06-.32,0-.6-.37-.67s-.51.21-.58.52-.06.5.26.71l.48.31c.55.34.59.74.45,1.43s-.57,1.33-1.44,1.16a1.14,1.14,0,0,1-.93-1.36l0-.25.67.14,0,.21a.46.46,0,0,0,.38.58c.46.09.55-.18.63-.61s.06-.59-.24-.79l-.45-.3a1.12,1.12,0,0,1-.49-1.36,1.17,1.17,0,0,1,1.42-1.06,1.13,1.13,0,0,1,.91,1.29Z"/><path class="cls-2" d="M16.66,51.71l-.61-.06-.49-4.89.73.07.21,3.4h0l.89-3.29.73.08Z"/><path class="cls-2" d="M19.47,47.07l2.06,0v.65l-1.37,0,0,1.42h1.19v.65H20.12v1.41l1.36,0v.69l-2.05,0Z"/><path class="cls-2" d="M22.91,47.05l.66,0,1.28,2.8h0l-.25-2.89.69-.06.4,4.8-.64.06-1.3-2.8h0L24,51.8l-.69.05Z"/><path class="cls-2" d="M29.33,47.59l-.68.13,0-.16c-.06-.31-.24-.55-.59-.48s-.4.38-.34.7.12.48.5.56l.56.11c.64.11.82.47.95,1.16s0,1.45-.91,1.61a1.14,1.14,0,0,1-1.37-.91l0-.25.68-.13,0,.21a.44.44,0,0,0,.56.4c.46-.08.45-.36.37-.8s-.17-.57-.53-.64L28,49a1.14,1.14,0,0,1-1-1.08,1.17,1.17,0,0,1,.92-1.51,1.12,1.12,0,0,1,1.33.86Z"/><path class="cls-2" d="M30.47,45.89l.67-.2.61,2.11h0l.35-2.39.66-.2-.36,2.12,1.88,2.46-.7.2-1.35-1.83-.17.77.41,1.39-.66.19Z"/><path class="cls-2" d="M34.56,44.55l.53-.22,2.8,4.07-.64.26-.58-.89-.87.35.2,1-.64.26Zm.79,1.17h0l.34,1.74.64-.25Z"/><path class="cls-2" d="M37.11,43.45l.59-.32L40,45.2h0l-1.37-2.56.61-.33,2.27,4.25-.57.3-2.3-2h0L40,47.37l-.61.32Z"/><path class="cls-2" d="M9.88,55.15a1,1,0,0,0,.57.36c.28.06.47,0,.51-.21a.29.29,0,0,0-.22-.36l-.28-.11a.64.64,0,0,1-.45-.76.66.66,0,0,1,.87-.48,1.29,1.29,0,0,1,.67.39l-.25.24a1.1,1.1,0,0,0-.51-.3.34.34,0,0,0-.44.24c0,.12,0,.27.25.35l.24.09a.66.66,0,0,1,.46.78c-.09.41-.45.58-.93.47a1.28,1.28,0,0,1-.77-.5Z"/><path class="cls-2" d="M12.62,54l1.44.25-.06.32-1.09-.19L12.8,55l.93.16-.05.3-.93-.15-.11.65,1.09.19-.05.32-1.44-.24Z"/><path class="cls-2" d="M15,54.35l.79.08a.77.77,0,0,1,.64.46c.1.2.1.29,0,.76s-.09.6-.21.75a.8.8,0,0,1-.74.29l-.77-.08Zm.13,2,.41,0a.48.48,0,0,0,.44-.15c.09-.11.1-.17.15-.59s0-.51,0-.64a.44.44,0,0,0-.39-.24l-.41,0Z"/><path class="cls-2" d="M18.62,56.42l-.86,0-.2.5-.37,0,.95-2.23h.29L19.14,57l-.37,0Zm-.08-.31-.28-1h0l-.38,1Z"/><path class="cls-2" d="M20.12,54.71h.33l1.05,1.6h0l0-1.62h.35l0,2.27h-.33l-1.05-1.61h0l0,1.62h-.34Z"/><path class="cls-2" d="M24.69,54.87l-.3.26,0-.34.3-.27.33,0,.21,2.27-.33,0Z"/><path class="cls-2" d="M27.2,56.52l-.36,0,.34-1h0a.55.55,0,0,1-.17.05c-.29,0-.57-.11-.63-.55a.66.66,0,1,1,1.29-.22.84.84,0,0,1,0,.39Zm.15-1.63c0-.26-.18-.36-.38-.33a.33.33,0,0,0-.27.42c0,.25.2.35.38.32S27.38,55.14,27.35,54.89Z"/><path class="cls-2" d="M28.77,56l.66-1.26a.37.37,0,0,0,0-.24.33.33,0,0,0-.37-.26.34.34,0,0,0-.27.39l-.32.06a.65.65,0,0,1,.5-.76.66.66,0,0,1,.78.51.61.61,0,0,1-.06.42l-.55,1L30,55.7l.06.32-1.27.24Z"/><path class="cls-2" d="M30.82,55.2l.35-1.77.35-.08-.35,1.76.57-.14-.15-.64.31-.07.16.63.18,0,.07.3-.18,0,.09.33-.32.08-.08-.33-.92.23Z"/></g></g></svg>