<svg xmlns="http://www.w3.org/2000/svg" viewBox="0 0 584.63 567.9"><defs><style>.cls-1{fill:#fff;}</style></defs><title>Football_M</title><g id="Layer_2" data-name="Layer 2"><g id="Layer_1-2" data-name="Layer 1"><path class="cls-1" d="M224.37,31.55a4.15,4.15,0,0,0-5.48-2.12A109.9,109.9,0,0,0,199,41.56c-.52.4-1,.8-1.48,1.2L196,41.56a109.92,109.92,0,0,0-19.88-12.13A4.15,4.15,0,0,0,172.75,37,104.5,104.5,0,0,1,191,48.23h0A91.79,91.79,0,0,0,183,56.64a69.09,69.09,0,0,0-12.45,21.29A4.21,4.21,0,0,0,173,83.26a4.15,4.15,0,0,0,5.39-2.5c3.38-9.61,9.84-18.76,19.11-27.21,9.35,8.44,15.81,17.59,19.19,27.2a4.15,4.15,0,0,0,5.21,2.57,4.08,4.08,0,0,0,2.4-2.1,4.29,4.29,0,0,0,.19-3.3A69.07,69.07,0,0,0,212,56.64,88.43,88.43,0,0,0,204,48.24,104.44,104.44,0,0,1,222.25,37,4.16,4.16,0,0,0,224.37,31.55ZM203.91,48.28l-.8-1h0l.81,1Z"/><path class="cls-1" d="M190.57,126.94a3.61,3.61,0,0,0,.16-2.39,3.94,3.94,0,0,0-2-2.42,3.34,3.34,0,0,0-2.73-.19c-8.36,3.16-17.84,6.75-25.43,13.29-7.83,6.75-12.07,16.09-11.34,25A30.24,30.24,0,0,0,160.43,181a35.11,35.11,0,0,0,22.26,8.15,32.44,32.44,0,0,0,3.36-.17c15.81-1.65,28.41-15.64,28.67-31.86C214.95,143.34,204.3,130.29,190.57,126.94Zm15.61,36.71A26.21,26.21,0,0,1,193,179.31c-6.05,3.07-14.15,3.1-21.12.07-10-4.37-18.08-15.89-14.13-27.6,3.5-10.39,13.72-16,24.53-20.37a3.69,3.69,0,0,0,3.25,2.28,23.76,23.76,0,0,1,17.31,10.11A22.6,22.6,0,0,1,206.18,163.65Z"/><path class="cls-1" d="M432.45,77a82.31,82.31,0,0,0-8.1-8.37,103.38,103.38,0,0,1,18.33-11.24,4.15,4.15,0,1,0-3.36-7.6,110.58,110.58,0,0,0-19.87,12.13c-.52.4-1,.8-1.48,1.2l-1.55-1.2a110.59,110.59,0,0,0-19.88-12.13,4.15,4.15,0,0,0-3.36,7.6,104.05,104.05,0,0,1,18.29,11.2A91.87,91.87,0,0,0,403.42,77,69.09,69.09,0,0,0,391,98.25a4.21,4.21,0,0,0,2.42,5.33,4.15,4.15,0,0,0,5.39-2.51c3.38-9.61,9.84-18.77,19.11-27.2,9.35,8.44,15.81,17.59,19.19,27.2a4.15,4.15,0,0,0,5.21,2.57,4.08,4.08,0,0,0,2.4-2.1,4.29,4.29,0,0,0,.19-3.3A69.1,69.1,0,0,0,432.45,77Z"/><path class="cls-1" d="M297.22,180.57a4.16,4.16,0,0,0-5.48-2.12,110.62,110.62,0,0,0-19.88,12.13c-.52.4-1,.8-1.48,1.2l-1.55-1.2A110.6,110.6,0,0,0,249,178.46a4.15,4.15,0,0,0-3.36,7.59,105,105,0,0,1,18.29,11.2,91.93,91.93,0,0,0-8.05,8.41,69.1,69.1,0,0,0-12.45,21.29,4.21,4.21,0,0,0,2.42,5.33,4.15,4.15,0,0,0,5.39-2.51c3.38-9.61,9.84-18.76,19.11-27.2,9.35,8.44,15.81,17.59,19.19,27.2a4.15,4.15,0,0,0,5.21,2.57,4.08,4.08,0,0,0,2.4-2.1,4.29,4.29,0,0,0,.19-3.3,69.08,69.08,0,0,0-12.44-21.28,88.32,88.32,0,0,0-8.07-8.39,104.18,104.18,0,0,1,18.3-11.21A4.16,4.16,0,0,0,297.22,180.57Z"/><path class="cls-1" d="M395.09,136.07a3.61,3.61,0,0,0,.16-2.39,4,4,0,0,0-2-2.42,3.34,3.34,0,0,0-2.73-.19c-8.36,3.16-17.84,6.75-25.43,13.29-7.83,6.75-12.07,16.09-11.34,25A30.24,30.24,0,0,0,365,190.14a35.11,35.11,0,0,0,22.26,8.15,32.44,32.44,0,0,0,3.36-.17c15.81-1.65,28.41-15.64,28.67-31.86C419.47,152.48,408.83,139.42,395.09,136.07Zm15.61,36.71a26.21,26.21,0,0,1-13.17,15.67c-6.05,3.07-14.15,3.1-21.12.07-10-4.37-18.08-15.89-14.13-27.6,3.5-10.39,13.72-16,24.53-20.37a3.69,3.69,0,0,0,3.25,2.28,23.76,23.76,0,0,1,17.31,10.11A22.6,22.6,0,0,1,410.7,172.79Z"/><path class="cls-1" d="M287.67,59.27a35.11,35.11,0,0,0,22.26,8.15,32.44,32.44,0,0,0,3.36-.17C329.1,65.6,341.7,51.61,342,35.38c.22-13.77-10.42-26.83-24.16-30.18A3.62,3.62,0,0,0,318,2.82,4,4,0,0,0,316,.4a3.34,3.34,0,0,0-2.73-.19C304.87,3.37,295.39,7,287.79,13.5c-7.83,6.75-12.07,16.09-11.34,25A30.24,30.24,0,0,0,287.67,59.27ZM285,30.05c3.5-10.39,13.72-16,24.53-20.37A3.69,3.69,0,0,0,312.78,12a23.76,23.76,0,0,1,17.31,10.11,22.6,22.6,0,0,1,3.33,19.84,26.21,26.21,0,0,1-13.17,15.67c-6.05,3.07-14.15,3.1-21.12.07C289.08,53.29,281,41.77,285,30.05Z"/><path class="cls-1" d="M268.43,167.12a3.18,3.18,0,0,0,4.46-.62s.77-1,2.25-2.78a3.18,3.18,0,1,0-4.88-4.09c-1.47,1.75-2.29,2.82-2.44,3A3.19,3.19,0,0,0,268.43,167.12Z"/><path class="cls-1" d="M280.12,158c1.66-1.81,3.42-3.66,5.23-5.5a3.18,3.18,0,0,0-2.27-5.42h0a3.16,3.16,0,0,0-2.24.95c-1.85,1.88-3.66,3.78-5.39,5.66a3.18,3.18,0,1,0,4.69,4.3Z"/><path class="cls-1" d="M288.58,148.1a3.17,3.17,0,0,0,2.19-.88c1.8-1.72,3.68-3.45,5.59-5.16a3.18,3.18,0,0,0-4.24-4.74c-1.94,1.74-3.87,3.52-5.73,5.29a3.18,3.18,0,0,0-.11,4.5A3.19,3.19,0,0,0,288.58,148.1Z"/><path class="cls-1" d="M345.54,101.45a3.17,3.17,0,0,0-2.43.23c-2.27,1.2-4.57,2.47-6.83,3.76a3.18,3.18,0,1,0,3.16,5.53c2.2-1.26,4.44-2.49,6.66-3.67a3.18,3.18,0,0,0-.56-5.85Z"/><path class="cls-1" d="M306.38,126.62a3.18,3.18,0,0,0-2.34.67c-2,1.61-4.07,3.27-6,4.93a3.18,3.18,0,1,0,4.1,4.87c1.93-1.63,3.91-3.25,5.89-4.81a3.18,3.18,0,0,0-1.61-5.66Z"/><path class="cls-1" d="M329.57,109.42h0c-2.22,1.36-4.43,2.77-6.58,4.18a3.18,3.18,0,1,0,3.49,5.32c2.12-1.39,4.28-2.76,6.42-4.07a3.18,3.18,0,0,0-3.33-5.42Z"/><path class="cls-1" d="M316.54,118h0c-2.12,1.48-4.24,3-6.32,4.56a3.18,3.18,0,0,0-.65,4.45,3.2,3.2,0,0,0,2.55,1.28,3.16,3.16,0,0,0,1.9-.63c2-1.5,4.09-3,6.16-4.45a3.18,3.18,0,0,0-3.65-5.21Z"/><path class="cls-1" d="M379.41,89.41a2,2,0,0,0-1.85-1.24h0L341,88.33a2,2,0,0,0-1.28,3.54l9,7.54a3.19,3.19,0,0,0,2.11,4.7l-1.19,11.54a2,2,0,0,0,1.13,2,2,2,0,0,0,.87.2,2,2,0,0,0,1.4-.58L379,91.6A2,2,0,0,0,379.41,89.41Z"/><path class="cls-1" d="M370.12,71.29a3.18,3.18,0,0,0,1.6-.44c2.07-1.21,3.21-2,3.43-2.18a3.18,3.18,0,0,0-3.75-5.14c-.11.08-1.1.78-2.88,1.82a3.18,3.18,0,0,0-1.14,4.35A3.2,3.2,0,0,0,370.12,71.29Z"/><path class="cls-1" d="M357.2,77.36a3.17,3.17,0,0,0,1.13-.21c2.33-.88,4.62-1.85,6.81-2.87a3.18,3.18,0,0,0-2.69-5.77c-2,1-4.18,1.86-6.37,2.68a3.18,3.18,0,0,0-1.85,4.1A3.2,3.2,0,0,0,357.2,77.36Z"/><path class="cls-1" d="M340.83,76.64a3.18,3.18,0,0,0,2.7,4.87,3.21,3.21,0,0,0,.72-.08c2.39-.56,4.78-1.19,7.1-1.89a3.18,3.18,0,0,0-1.84-6.09c-2.19.66-4.44,1.26-6.7,1.79A3.16,3.16,0,0,0,340.83,76.64Z"/><path class="cls-1" d="M315.18,78.17a3.18,3.18,0,0,0,0,6.36h1.32c2,0,4,0,6-.14a3.18,3.18,0,0,0,2-5.53,3.13,3.13,0,0,0-2.29-.83C319.88,78.15,317.53,78.19,315.18,78.17Z"/><path class="cls-1" d="M338.37,77.12a3.15,3.15,0,0,0-2.37-.54c-2.27.38-4.58.69-6.89.94a3.18,3.18,0,0,0,.33,6.35l.34,0c2.44-.26,4.88-.59,7.27-1a3.18,3.18,0,0,0,1.32-5.73Z"/><path class="cls-1" d="M296.44,77.57a3.16,3.16,0,0,0-2.06-1.29c-2.27-.39-4.58-.84-6.87-1.34a3.18,3.18,0,0,0-1.36,6.22c2.39.53,4.8,1,7.16,1.39a3.18,3.18,0,0,0,3.13-5Z"/><path class="cls-1" d="M301.3,77.27a3.18,3.18,0,1,0-.75,6.32c2.42.29,4.87.51,7.26.66H308a3.18,3.18,0,0,0,.2-6.36C305.95,77.76,303.61,77.54,301.3,77.27Z"/><path class="cls-1" d="M272.08,77.38c2.32.73,4.67,1.42,7,2a3.18,3.18,0,1,0,1.65-6.15c-2.22-.6-4.49-1.26-6.73-2a3.18,3.18,0,0,0-1.92,6.07Z"/><path class="cls-1" d="M265.51,88.86a2,2,0,0,0,2-2.2l-1.14-11.42a3.18,3.18,0,0,0,3-2.66,3.13,3.13,0,0,0-.68-2.51l9.36-6.65A2,2,0,0,0,277,59.77l-36.39-1.41a2,2,0,0,0-1.54,3.38l25,26.49A2,2,0,0,0,265.51,88.86Z"/><polygon class="cls-1" points="267.51 86.65 267.51 86.65 267.51 86.65 267.51 86.65"/><g id="_27" data-name="27"><path class="cls-1" d="M584.63,511.32S574,333.69,546.93,321.6s-116-32.73-155.17-67.59c11.39,117.4-19.92,178.58-59.05,242.62-14.46-76.61-24.19-121-24.19-121l21-16.8C331.46,357.33,373,382,373,382s-41.15-36.46-60.81-54.37c-5-4.27-3.42-8.73.36-10.83C370.42,292.28,374.68,254,374.68,254s.71-8.71,2.82-20.41c-52.46,52.48-119,50.78-170,4.24,1.54,9.51,2.09,16.17,2.09,16.17s4.25,38.16,61.89,62.72c4.57,2.26,4.43,7.41,1.22,10.38-19.64,17.86-62.6,55.82-62.6,55.82s42.7-25.6,44.6-24.08l21.05,16.82s-8.51,44.34-24.19,121c-39.13-64-70.44-125.22-59.05-242.62C153.41,288.87,64.4,309.5,37.36,321.6S0,511.66,0,511.66L292.15,567.9l229-44.3h0ZM324.2,503.85l-9.48,15.51L304.37,384.47Zm-1-149.11-9.48,7.33s-.5-20.69-13-34.91C308.47,336.21,323.19,354.74,323.19,354.74Z"/></g></g></g></svg>