<svg xmlns="http://www.w3.org/2000/svg" viewBox="0 0 677.69 96.21"><defs><style>.cls-1{fill:#fff;}</style></defs><title>Gamble_White</title><g id="Layer_2" data-name="Layer 2"><g id="Layer_1-2" data-name="Layer 1"><path class="cls-1" d="M43.57,23.92H39.76V56.06a15.08,15.08,0,0,1-2.4,8.53,14.93,14.93,0,0,1-6.89,5.5A27.67,27.67,0,0,1,19.73,72q-9.29,0-14.28-4.3a12.36,12.36,0,0,1-3-3.45,25.23,25.23,0,0,1-2-5.66H10.51a7.89,7.89,0,0,0,3.26,4.17A11.36,11.36,0,0,0,19.58,64a11.25,11.25,0,0,0,7.18-2.15,6.86,6.86,0,0,0,2.72-5.66V49.59a22.38,22.38,0,0,1-2.72,2.78,14.45,14.45,0,0,1-4.08,2.38,15.53,15.53,0,0,1-5.85,1,15.23,15.23,0,0,1-8.68-2.61,17.09,17.09,0,0,1-6-7.26A24.92,24.92,0,0,1,0,35.38,24.53,24.53,0,0,1,2.21,24.79a17,17,0,0,1,6.21-7.26A16.47,16.47,0,0,1,17.52,15a14,14,0,0,1,5.75,1.26,27.14,27.14,0,0,1,6.21,4.11V15.81H43.57Zm-14,11.31a14.49,14.49,0,0,0-1.18-6,10.19,10.19,0,0,0-3.22-4.15,7.54,7.54,0,0,0-4.59-1.5,9.24,9.24,0,0,0-8.68,5.62,15.13,15.13,0,0,0-1.22,6.3,17,17,0,0,0,1.07,6.4,8.35,8.35,0,0,0,3.12,4,9,9,0,0,0,5,1.35,8.52,8.52,0,0,0,5-1.56,10.15,10.15,0,0,0,3.45-4.3A15,15,0,0,0,29.55,35.23Z"/><path class="cls-1" d="M87.83,57.55H74.88V52.63a27.19,27.19,0,0,1-4.08,3.45,13.35,13.35,0,0,1-3.9,1.79,17.93,17.93,0,0,1-4.67.55,16.4,16.4,0,0,1-7.5-1.69A13.27,13.27,0,0,1,49.44,52a12,12,0,0,1-1.94-6.61q0-5.67,3.71-8.72a20.77,20.77,0,0,1,9.12-4.17,135.86,135.86,0,0,1,14.32-2,15.86,15.86,0,0,0-.72-5,4,4,0,0,0-2.29-2.38,13.07,13.07,0,0,0-4.72-.67,8,8,0,0,0-5.27,1.7,6.26,6.26,0,0,0-2.23,4.63l-10.13-.3a14.16,14.16,0,0,1,2.48-7.27,14,14,0,0,1,6-4.76,21.43,21.43,0,0,1,8.65-1.68q8.72,0,13.25,3.79t4.53,11V49.44h3.62ZM74.46,41.86v-4q-5.71.53-9,1.18a12.23,12.23,0,0,0-5.26,2.15,5.54,5.54,0,0,0,0,8.36,7.6,7.6,0,0,0,5,1.56,9.4,9.4,0,0,0,4.78-1.22,8.89,8.89,0,0,0,3.33-3.35A9.2,9.2,0,0,0,74.46,41.86Z"/><path class="cls-1" d="M157.1,57.55H143V29.48a7,7,0,0,0-1.18-4.32,3.9,3.9,0,0,0-3.28-1.54q-3.16,0-5.71,3.47a12.9,12.9,0,0,0-2.55,7.85V49.44h4.08v8.11H120V29.86A8.33,8.33,0,0,0,119,25.14a3.77,3.77,0,0,0-3.31-1.52,6.17,6.17,0,0,0-4.17,1.66,11.63,11.63,0,0,0-3,4.49,16.21,16.21,0,0,0-1.14,6.11V49.44h4.08v8.11H93.62V49.44h3.5V23.92H93.54V15.81h13.79v4.91a29.68,29.68,0,0,1,4.06-3.66A11.68,11.68,0,0,1,115,15.25a15.76,15.76,0,0,1,4.21-.51,11.86,11.86,0,0,1,4.11.65,9,9,0,0,1,3.18,2,15.6,15.6,0,0,1,2.72,3.79q1.75-1.83,3.22-3.1a15,15,0,0,1,3.87-2.32,13.71,13.71,0,0,1,5.52-1,11.68,11.68,0,0,1,5.88,1.49,10.1,10.1,0,0,1,4,4.17,13.12,13.12,0,0,1,1.41,6.19V49.44h3.92Z"/><path class="cls-1" d="M205.85,36.18a31.34,31.34,0,0,1-1.26,9.18A21.39,21.39,0,0,1,201,52.42,16.08,16.08,0,0,1,195.46,57a15.77,15.77,0,0,1-7.08,1.6,19.47,19.47,0,0,1-4.59-.5,13.69,13.69,0,0,1-4-1.71A29.6,29.6,0,0,1,175.5,53v4.53H161.37V49.44h4.38V8.11h-4V0H176V20.41a23,23,0,0,1,5.88-4.49,13.45,13.45,0,0,1,6-1.33A16.5,16.5,0,0,1,195,16.15a16.93,16.93,0,0,1,5.79,4.51,20.92,20.92,0,0,1,3.79,6.88A27.09,27.09,0,0,1,205.85,36.18Zm-10.7.38A20.18,20.18,0,0,0,194,29.44a10,10,0,0,0-3.28-4.59,8.17,8.17,0,0,0-5-1.62,9.15,9.15,0,0,0-5.45,1.6,9.89,9.89,0,0,0-3.43,4.68,20.32,20.32,0,0,0-1.18,7.27q0,6.36,2.57,9.73a8.84,8.84,0,0,0,7.48,3.37,8,8,0,0,0,6.89-3.62Q195.15,42.66,195.15,36.56Z"/><path class="cls-1" d="M228.71,57.55H210.46V49.44h4V8.11h-4V0h14.24V49.44h4Z"/><path class="cls-1" d="M270.26,38.66H240.17q.65,7,3.85,9.18A11,11,0,0,0,250.23,50q6.09,0,8.49-6.21h10.85a17.59,17.59,0,0,1-10.46,12.89A22.76,22.76,0,0,1,250,58.5a20.12,20.12,0,0,1-8.05-1.62,19.07,19.07,0,0,1-6.49-4.57,20.82,20.82,0,0,1-4.25-7,24.87,24.87,0,0,1-1.5-8.76,24.34,24.34,0,0,1,1.54-8.76,21.51,21.51,0,0,1,4.27-7A19.06,19.06,0,0,1,242,16.22a20,20,0,0,1,8.07-1.64,19.38,19.38,0,0,1,9.18,2.21,18.58,18.58,0,0,1,6.89,6.28,21.15,21.15,0,0,1,3.24,7.39A50,50,0,0,1,270.26,38.66ZM258.87,31.5a9.52,9.52,0,0,0-2.8-6.07,8.52,8.52,0,0,0-6-2.11,8.88,8.88,0,0,0-4.13,1,9.13,9.13,0,0,0-3.22,2.8,13.12,13.12,0,0,0-2,4.42Z"/><path class="cls-1" d="M508.5,58.73h-5.76V53h5.76Z"/><path class="cls-1" d="M539.45,49.16a15.81,15.81,0,0,1-1.09,3.38,13.26,13.26,0,0,1-1.61,2.61,11.22,11.22,0,0,1-4,3.13,12.95,12.95,0,0,1-11.84-.78,12.5,12.5,0,0,1-4.59-5.19,16.73,16.73,0,0,1-1.64-7.49,15.42,15.42,0,0,1,1.63-7.12,12.11,12.11,0,0,1,11-6.75,8.65,8.65,0,0,1,3.84.82,11.38,11.38,0,0,1,3.4,2.77v-3h4.1v9.71h-4.35a8.57,8.57,0,0,0-2.45-4.4,6.09,6.09,0,0,0-4.25-1.46,6.52,6.52,0,0,0-3.85,1.17,7.38,7.38,0,0,0-2.56,3.39,13.5,13.5,0,0,0-.89,5.06,11.71,11.71,0,0,0,2,7.08,6.37,6.37,0,0,0,8.38,1.83,6,6,0,0,0,2.26-2.39,9.79,9.79,0,0,0,.91-2.37Z"/><path class="cls-1" d="M568.84,45a17.39,17.39,0,0,1-.94,5.82,13.36,13.36,0,0,1-2.65,4.55,11.71,11.71,0,0,1-4.12,2.93,13.16,13.16,0,0,1-5.25,1,12.43,12.43,0,0,1-5.14-1.06,11.59,11.59,0,0,1-4.05-3,13.72,13.72,0,0,1-2.6-4.57,17.69,17.69,0,0,1-.91-5.81,15.66,15.66,0,0,1,1.62-7.19,12.13,12.13,0,0,1,4.56-5,12.4,12.4,0,0,1,6.58-1.79,13.33,13.33,0,0,1,5.25,1,11.77,11.77,0,0,1,4.1,2.89,12.74,12.74,0,0,1,2.65,4.46A17.2,17.2,0,0,1,568.84,45Zm-5.66.2q0-4.67-1.87-7.24a6.7,6.7,0,0,0-9.12-1.36A7.58,7.58,0,0,0,549.71,40a14.5,14.5,0,0,0-.87,5.25,11.33,11.33,0,0,0,2,7A6.16,6.16,0,0,0,556,54.87a6.36,6.36,0,0,0,3.79-1.17,7.39,7.39,0,0,0,2.52-3.34A13.71,13.71,0,0,0,563.18,45.2Z"/><path class="cls-1" d="M579.3,58.73h-5.76V53h5.76Z"/><path class="cls-1" d="M613,58.73h-8.46V54.47a18.31,18.31,0,0,1-2.41,2.45,12.88,12.88,0,0,1-2.38,1.46,10.26,10.26,0,0,1-4.15,1,8.2,8.2,0,0,1-4.14-1,7.18,7.18,0,0,1-2.82-2.92,9.13,9.13,0,0,1-1-4.35V35.83h-3.09v-4.3h8.41V50a5.3,5.3,0,0,0,1.24,3.71,4.31,4.31,0,0,0,3.36,1.36A5.76,5.76,0,0,0,600.91,54a9,9,0,0,0,2.61-2.87,6.68,6.68,0,0,0,1-3.34V35.83h-3.14v-4.3h8.46V54.42H613Z"/><path class="cls-1" d="M643.6,58.73h-6.18l-8-14.78-4.15,3.76v6.72h3.19v4.3H616.83v-4.3h3.09V25.25h-3.09V21h8.4V42l10.88-10.48h5.27v4.3h-3l-5.61,5.07,8.06,13.52h2.77Z"/><path class="cls-1" d="M657.51,12.33h-2.73V8.59h-2.15V19.65h1.53v2.69h-6.4V19.65h1.5V8.59h-2.15v3.74h-2.73V5.9h13.13Z"/><path class="cls-1" d="M677.69,22.33H673.4V11.8l.07-3.1,0-.73-4,14.36h-2.23L663.08,7.68l.18,4.89v9.76h-4.34V19.65h1.29V8.59h-1.29V5.9h6.2l1.66,6,1.58,6,1.54-6.13,1.58-5.87h6.2V8.59h-1.31V19.65h1.31Z"/><path class="cls-1" d="M316,57.55h-13.1v-5.6a37.47,37.47,0,0,1-6.63,4.93,15.25,15.25,0,0,1-7.43,1.62,13.7,13.7,0,0,1-9.71-3.58,11.76,11.76,0,0,1-3.85-9,11.47,11.47,0,0,1,3.12-8.11,13,13,0,0,1,3.88-2.74,27.52,27.52,0,0,1,6-1.88q3.68-.78,9.08-1.39l5.45-.61V28.53a6.84,6.84,0,0,0-2.27-5.58q-2.27-1.88-6.57-1.88-3.88,0-5.87,1.6a8.73,8.73,0,0,0-2.7,5.33h-8.65a19.5,19.5,0,0,1,1.33-5.18,12.42,12.42,0,0,1,2.7-3.73q4.88-4.34,13.75-4.34a21.72,21.72,0,0,1,8.82,1.64A12.35,12.35,0,0,1,309,21.16a13.78,13.78,0,0,1,2,7.45V50.92h5ZM302.81,41.93v-5.6l-3.66.53a50.68,50.68,0,0,0-8.53,1.81,11.37,11.37,0,0,0-4.42,2.57,5.5,5.5,0,0,0-1.79,4,6.78,6.78,0,0,0,2.15,5,7,7,0,0,0,5.08,2.11A10.79,10.79,0,0,0,297,50.84a11.91,11.91,0,0,0,4.21-3.92A9.07,9.07,0,0,0,302.81,41.93Z"/><path class="cls-1" d="M377.16,22.28h-4.08l-9.6,35.27h-8.8L347,26.2l-7.5,31.34h-8.87l-9.75-35.27h-4.08V15.65H332.9v6.63h-4.68l6.89,28.34,8-35h8l7.92,35,6.89-28.34h-4.61V15.65h15.84Z"/><path class="cls-1" d="M423.32,57.55h-13.1v-5.6a37.47,37.47,0,0,1-6.63,4.93,15.25,15.25,0,0,1-7.43,1.62,13.7,13.7,0,0,1-9.71-3.58,11.76,11.76,0,0,1-3.85-9,11.47,11.47,0,0,1,3.12-8.11,13,13,0,0,1,3.88-2.74,27.52,27.52,0,0,1,6-1.88q3.68-.78,9.08-1.39l5.45-.61V28.53a6.84,6.84,0,0,0-2.27-5.58q-2.27-1.88-6.57-1.88-3.88,0-5.87,1.6a8.73,8.73,0,0,0-2.7,5.33h-8.65a19.5,19.5,0,0,1,1.33-5.18,12.42,12.42,0,0,1,2.7-3.73q4.88-4.34,13.75-4.34a21.72,21.72,0,0,1,8.82,1.64,12.35,12.35,0,0,1,5.68,4.78,13.78,13.78,0,0,1,2,7.45V50.92h5ZM410.14,41.93v-5.6l-3.66.53A50.68,50.68,0,0,0,398,38.68a11.37,11.37,0,0,0-4.42,2.57,5.5,5.5,0,0,0-1.79,4,6.78,6.78,0,0,0,2.15,5A7,7,0,0,0,399,52.33a10.79,10.79,0,0,0,5.37-1.49,11.91,11.91,0,0,0,4.21-3.92A9.07,9.07,0,0,0,410.14,41.93Z"/><path class="cls-1" d="M456.95,23.16a21.94,21.94,0,0,0-4.08-.65,10.58,10.58,0,0,0-7,2.27A13,13,0,0,0,442,30a14.16,14.16,0,0,0-1.18,5V50.92h4.76v6.63H427.77V50.92h4.84V22.28h-4.68V15.65H440.8V25a43.94,43.94,0,0,1,2.91-5.48,11.51,11.51,0,0,1,3.52-3.37,10.48,10.48,0,0,1,5.71-1.43,19.08,19.08,0,0,1,4,.53Z"/><path class="cls-1" d="M496.71,38.28H466.59a15.87,15.87,0,0,0,1.87,7.39,10.78,10.78,0,0,0,4.4,4.4,12,12,0,0,0,5.58,1.39,8.46,8.46,0,0,0,5.37-1.64A10.4,10.4,0,0,0,487,44.67h9a28.07,28.07,0,0,1-6.11,9.52q-4.13,4.3-11.9,4.3a19.77,19.77,0,0,1-8.05-1.62,18,18,0,0,1-6.32-4.63,21.25,21.25,0,0,1-4.08-7.07,27,27,0,0,1-1.43-9,23.21,23.21,0,0,1,2.61-11,19.13,19.13,0,0,1,7.22-7.67,19.73,19.73,0,0,1,10.28-2.74,19.5,19.5,0,0,1,8.36,2,16.67,16.67,0,0,1,7.16,7.22Q496.71,29.17,496.71,38.28Zm-9.22-5.83q-.27-5.26-2.65-8a8.55,8.55,0,0,0-6.8-2.72,9.61,9.61,0,0,0-5.18,1.35,11.2,11.2,0,0,0-3.45,3.26,17.11,17.11,0,0,0-1.9,3.64,8.59,8.59,0,0,0-.63,2.46Z"/><path class="cls-1" d="M230.14,95.65a6.83,6.83,0,0,1-2.68.56,9.51,9.51,0,0,1-3.83-.74,8.2,8.2,0,0,1-2.87-2A9,9,0,0,1,219,90.37a11.21,11.21,0,0,1-.62-3.78,11.6,11.6,0,0,1,.62-3.86,9.28,9.28,0,0,1,1.79-3.11,8.22,8.22,0,0,1,2.87-2.08,9.38,9.38,0,0,1,3.83-.75,9,9,0,0,1,2.77.43,7.87,7.87,0,0,1,2.42,1.26,6.82,6.82,0,0,1,2.64,4.86h-3.9A3.9,3.9,0,0,0,230,81a4.07,4.07,0,0,0-2.52-.78,4.76,4.76,0,0,0-2.34.53,4.42,4.42,0,0,0-1.56,1.43,6.31,6.31,0,0,0-.87,2,10.2,10.2,0,0,0-.27,2.37,9.49,9.49,0,0,0,.27,2.28,6.17,6.17,0,0,0,.87,2,4.44,4.44,0,0,0,1.56,1.42,4.76,4.76,0,0,0,2.34.53,4,4,0,0,0,4.42-4h-4.11v-3h7.8v10H233l-.42-2.11A6.12,6.12,0,0,1,230.14,95.65Z"/><path class="cls-1" d="M255.41,77.23l6.94,18.56h-4.24l-1.4-4.13h-6.94l-1.46,4.13h-4.11l7-18.56Zm.23,11.39-2.34-6.81h-.05l-2.42,6.81Z"/><path class="cls-1" d="M277,77.23,281.33,90h.05l4.11-12.77h5.75V95.79h-3.82V82.63h-.05l-4.55,13.16h-3.15l-4.55-13h-.05v13h-3.82V77.23Z"/><path class="cls-1" d="M310.84,77.23a11.55,11.55,0,0,1,2.42.23,5.23,5.23,0,0,1,1.87.77,3.58,3.58,0,0,1,1.21,1.42,5,5,0,0,1,.43,2.19,4.08,4.08,0,0,1-.64,2.34,4.63,4.63,0,0,1-1.89,1.53,4.47,4.47,0,0,1,2.56,1.73,5.68,5.68,0,0,1,.3,5.41,4.74,4.74,0,0,1-1.47,1.68,6.51,6.51,0,0,1-2.11,1,9.53,9.53,0,0,1-2.43.31h-9V77.23Zm-.52,7.52a2.93,2.93,0,0,0,1.79-.52,2,2,0,0,0,.7-1.69,2.17,2.17,0,0,0-.23-1.07,1.72,1.72,0,0,0-.62-.65,2.63,2.63,0,0,0-.9-.33A6,6,0,0,0,310,80.4h-3.82v4.34Zm.23,7.88a5.43,5.43,0,0,0,1.14-.12,2.81,2.81,0,0,0,1-.39,2,2,0,0,0,.66-.74,2.55,2.55,0,0,0,.25-1.2,2.4,2.4,0,0,0-.81-2,3.43,3.43,0,0,0-2.13-.61h-4.45v5.1Z"/><path class="cls-1" d="M331.77,77.23V92.36h9v3.43H327.69V77.23Z"/><path class="cls-1" d="M364.27,77.23v3.43h-9.8v4h9v3.17h-9v4.55h10v3.43H350.39V77.23Z"/><path class="cls-1" d="M397.91,77.23a6,6,0,0,1,2.25.4,5.18,5.18,0,0,1,1.72,1.11A4.81,4.81,0,0,1,403,80.36a5.2,5.2,0,0,1,.38,2,5.57,5.57,0,0,1-.69,2.83A4.33,4.33,0,0,1,400.41,87v.05a3.17,3.17,0,0,1,1.25.64,3.54,3.54,0,0,1,.81,1,4.73,4.73,0,0,1,.46,1.29,11.16,11.16,0,0,1,.19,1.4c0,.29,0,.64.05,1s0,.81.09,1.22a8.08,8.08,0,0,0,.21,1.18,2.72,2.72,0,0,0,.43.95h-4.08a7.11,7.11,0,0,1-.42-2.11q-.08-1.22-.23-2.34a3.68,3.68,0,0,0-.88-2.13,3,3,0,0,0-2.21-.68H392v7.25H387.9V77.23Zm-1.46,8.4a3.09,3.09,0,0,0,2.11-.62,2.59,2.59,0,0,0,.7-2,2.48,2.48,0,0,0-.7-2,3.13,3.13,0,0,0-2.11-.61H392v5.23Z"/><path class="cls-1" d="M427.84,77.23v3.43H418v4h9v3.17h-9v4.55h10v3.43H414V77.23Z"/><path class="cls-1" d="M441.2,91.21a2.94,2.94,0,0,0,.9,1.05,3.87,3.87,0,0,0,1.31.6,6.21,6.21,0,0,0,1.56.19,8,8,0,0,0,1.17-.09,4,4,0,0,0,1.17-.35,2.54,2.54,0,0,0,.91-.71,1.79,1.79,0,0,0,.36-1.16,1.62,1.62,0,0,0-.48-1.22,3.8,3.8,0,0,0-1.26-.78,12.67,12.67,0,0,0-1.77-.55q-1-.23-2-.52a17.53,17.53,0,0,1-2-.64,7,7,0,0,1-1.77-1,4.6,4.6,0,0,1-1.26-1.5,4.55,4.55,0,0,1-.48-2.17,4.85,4.85,0,0,1,.61-2.48,5.51,5.51,0,0,1,1.6-1.75,7,7,0,0,1,2.24-1,9.54,9.54,0,0,1,2.5-.34,11.8,11.8,0,0,1,2.79.33,7,7,0,0,1,2.38,1.05A5.33,5.33,0,0,1,451.3,80a5.71,5.71,0,0,1,.61,2.74h-4a3.31,3.31,0,0,0-.35-1.38,2.3,2.3,0,0,0-.79-.86,3.34,3.34,0,0,0-1.13-.44A6.93,6.93,0,0,0,444.3,80a4.86,4.86,0,0,0-1,.1,2.67,2.67,0,0,0-.9.36,2.25,2.25,0,0,0-.66.65,1.75,1.75,0,0,0-.26,1,1.67,1.67,0,0,0,.21.88,1.85,1.85,0,0,0,.82.62,10.5,10.5,0,0,0,1.69.57l2.82.73q.52.1,1.44.38a6.92,6.92,0,0,1,1.83.87,5.53,5.53,0,0,1,1.57,1.6,4.55,4.55,0,0,1,.66,2.56,5.67,5.67,0,0,1-.49,2.37,5.13,5.13,0,0,1-1.47,1.89,7.06,7.06,0,0,1-2.42,1.23,11.42,11.42,0,0,1-3.34.44,11.75,11.75,0,0,1-3-.38,7.49,7.49,0,0,1-2.55-1.18,5.84,5.84,0,0,1-1.75-2.05,6.12,6.12,0,0,1-.62-3h4A3.4,3.4,0,0,0,441.2,91.21Z"/><path class="cls-1" d="M470.61,77.23a7.73,7.73,0,0,1,3,.51,5.55,5.55,0,0,1,2,1.34,5.16,5.16,0,0,1,1.12,1.9,7.1,7.1,0,0,1,0,4.41,5.14,5.14,0,0,1-1.12,1.91,5.55,5.55,0,0,1-2,1.34,7.73,7.73,0,0,1-3,.51h-4.29v6.66h-4.08V77.23ZM469.49,86a8.54,8.54,0,0,0,1.35-.1,3.15,3.15,0,0,0,1.14-.4,2.2,2.2,0,0,0,.79-.84,3.57,3.57,0,0,0,0-2.86,2.19,2.19,0,0,0-.79-.84,3.15,3.15,0,0,0-1.14-.4,8.54,8.54,0,0,0-1.35-.1h-3.17V86Z"/><path class="cls-1" d="M486.67,82.73a9.28,9.28,0,0,1,1.79-3.11,8.2,8.2,0,0,1,2.87-2.08,10.16,10.16,0,0,1,7.68,0,8.25,8.25,0,0,1,2.86,2.08,9.29,9.29,0,0,1,1.79,3.11,11.6,11.6,0,0,1,.62,3.86,11.21,11.21,0,0,1-.62,3.78,9,9,0,0,1-1.79,3.05,8.25,8.25,0,0,1-2.86,2,10.32,10.32,0,0,1-7.68,0,8.2,8.2,0,0,1-2.87-2,9,9,0,0,1-1.79-3.05,11.21,11.21,0,0,1-.62-3.78A11.6,11.6,0,0,1,486.67,82.73Zm3.73,6.14a6.14,6.14,0,0,0,.87,2,4.45,4.45,0,0,0,1.56,1.42,5.4,5.4,0,0,0,4.68,0,4.45,4.45,0,0,0,1.56-1.42,6.14,6.14,0,0,0,.87-2,9.47,9.47,0,0,0,.27-2.28,10.19,10.19,0,0,0-.27-2.37,6.27,6.27,0,0,0-.87-2,4.42,4.42,0,0,0-1.56-1.43,5.4,5.4,0,0,0-4.68,0,4.42,4.42,0,0,0-1.56,1.43,6.27,6.27,0,0,0-.87,2,10.19,10.19,0,0,0-.27,2.37A9.47,9.47,0,0,0,490.41,88.86Z"/><path class="cls-1" d="M518.42,77.23l7.75,12.45h.05V77.23H530V95.79H526l-7.72-12.43h-.05V95.79h-3.82V77.23Z"/><path class="cls-1" d="M544,91.21a2.94,2.94,0,0,0,.9,1.05,3.87,3.87,0,0,0,1.31.6,6.22,6.22,0,0,0,1.56.19A8,8,0,0,0,549,93a4,4,0,0,0,1.17-.35,2.56,2.56,0,0,0,.91-.71,1.8,1.8,0,0,0,.36-1.16,1.63,1.63,0,0,0-.48-1.22,3.79,3.79,0,0,0-1.26-.78,12.61,12.61,0,0,0-1.77-.55q-1-.23-2-.52a17.52,17.52,0,0,1-2-.64,6.93,6.93,0,0,1-1.77-1,4.37,4.37,0,0,1-1.74-3.67,4.85,4.85,0,0,1,.61-2.48,5.52,5.52,0,0,1,1.6-1.75,7,7,0,0,1,2.24-1,9.54,9.54,0,0,1,2.5-.34,11.8,11.8,0,0,1,2.79.33,7,7,0,0,1,2.38,1.05A5.31,5.31,0,0,1,554.13,80a5.69,5.69,0,0,1,.61,2.74h-4a3.3,3.3,0,0,0-.35-1.38,2.29,2.29,0,0,0-.79-.86,3.37,3.37,0,0,0-1.13-.44,7,7,0,0,0-1.39-.13,4.84,4.84,0,0,0-1,.1,2.66,2.66,0,0,0-.9.36,2.27,2.27,0,0,0-.66.65,1.74,1.74,0,0,0-.26,1,1.67,1.67,0,0,0,.21.88,1.85,1.85,0,0,0,.82.62,10.45,10.45,0,0,0,1.69.57l2.82.73q.52.1,1.44.38a6.93,6.93,0,0,1,1.83.87,5.54,5.54,0,0,1,1.57,1.6,4.54,4.54,0,0,1,.66,2.56,5.69,5.69,0,0,1-.49,2.37,5.16,5.16,0,0,1-1.47,1.89A7.07,7.07,0,0,1,551,95.76a11.43,11.43,0,0,1-3.34.44,11.73,11.73,0,0,1-3-.38,7.48,7.48,0,0,1-2.55-1.18,5.83,5.83,0,0,1-1.75-2.05,6.12,6.12,0,0,1-.62-3h4A3.39,3.39,0,0,0,544,91.21Z"/><path class="cls-1" d="M569.15,77.23V95.79h-4.08V77.23Z"/><path class="cls-1" d="M588.75,77.23a11.54,11.54,0,0,1,2.42.23,5.25,5.25,0,0,1,1.87.77,3.58,3.58,0,0,1,1.21,1.42,5,5,0,0,1,.43,2.18,4.07,4.07,0,0,1-.64,2.34,4.62,4.62,0,0,1-1.88,1.53,4.46,4.46,0,0,1,2.56,1.73,5.67,5.67,0,0,1,.3,5.41,4.72,4.72,0,0,1-1.47,1.68,6.49,6.49,0,0,1-2.11,1,9.5,9.5,0,0,1-2.43.31h-9V77.23Zm-.52,7.51a2.92,2.92,0,0,0,1.79-.52,2,2,0,0,0,.7-1.69,2.16,2.16,0,0,0-.23-1.07,1.73,1.73,0,0,0-.62-.65,2.64,2.64,0,0,0-.9-.33,6,6,0,0,0-1.05-.09H584.1v4.34Zm.23,7.88a5.42,5.42,0,0,0,1.14-.12,2.81,2.81,0,0,0,1-.39,2,2,0,0,0,.66-.74,2.54,2.54,0,0,0,.25-1.2,2.4,2.4,0,0,0-.81-2,3.44,3.44,0,0,0-2.13-.61H584.1v5.1Z"/><path class="cls-1" d="M609.68,77.23V92.36h9v3.43H605.6V77.23Z"/><path class="cls-1" d="M623.41,77.23H628l4.34,7.33,4.32-7.33h4.55L634.3,88.67v7.12h-4.08V88.56Z"/></g></g></svg>