<svg xmlns="http://www.w3.org/2000/svg" xmlns:xlink="http://www.w3.org/1999/xlink" viewBox="0 0 131.75 146.47"><defs><style>.cls-1{fill:none;}.cls-2{clip-path:url(#clip-path);}.cls-3{fill:#fff;}</style><clipPath id="clip-path"><rect class="cls-1" width="131.71" height="146.47"/></clipPath></defs><title>GamCare_White</title><g id="Layer_2" data-name="Layer 2"><g id="Layer_1-2" data-name="Layer 1"><g id="Layer_1-2-2" data-name="Layer 1-2"><g class="cls-2"><g class="cls-2"><path class="cls-3" d="M20.64,135.83c-.29,6.44-4.59,10.63-10.35,10.63A9.91,9.91,0,0,1,2.62,143,10.56,10.56,0,0,1,0,135.81a10.31,10.31,0,0,1,3.16-7.47,9.92,9.92,0,0,1,7.35-2.94,9.25,9.25,0,0,1,8.89,5.53H15.79a6.7,6.7,0,0,0-5.5-2.59,6.93,6.93,0,0,0-5,2.11,7.93,7.93,0,0,0-.17,10.83,7.3,7.3,0,0,0,5.19,2.28c3.05,0,5.44-1.63,7-4.87H8.1v-2.85Z"/><path class="cls-3" d="M23.8,146.07H20.69l7.93-20.27h2.85l7.92,20.27H36.17L34,140.17H26.08ZM30,129.62l-2.91,7.7h5.76Z"/><polygon class="cls-3" points="40.49 146.07 40.49 125.8 44.86 125.8 50.73 141.48 56.6 125.8 60.91 125.8 60.91 146.07 58.14 146.07 58.34 128.48 51.76 146.07 49.67 146.07 43.12 128.48 43.32 146.07 40.49 146.07"/><path class="cls-3" d="M73.81,146.47a10,10,0,0,1-7.53-3.22,10.55,10.55,0,0,1-2.88-7.53,10,10,0,0,1,3.08-7.33,10.22,10.22,0,0,1,7.39-3A10.38,10.38,0,0,1,84,133.5H78.6a5.23,5.23,0,0,0-4.7-3.05,5.29,5.29,0,0,0-5.39,5.19s0,.07,0,.11a5.55,5.55,0,0,0,5.3,5.7,5.34,5.34,0,0,0,4.67-2.91h5.39a10.16,10.16,0,0,1-10.06,7.93"/><path class="cls-3" d="M88.88,146.07H83.47l7.78-20.27h4L103,146.07H97.61l-1-2.94h-6.7Zm4.39-13.63-2,6.5h4Z"/><path class="cls-3" d="M103.47,146.07V125.8h6.73c2.14,0,3.76.14,5.13,1.11a6.51,6.51,0,0,1,2.74,5.67c0,3.28-1.71,5.73-4.59,6.53l5,7h-6.13l-3.88-6.53v6.53Zm5.93-10.92c2.45,0,3.65-.63,3.65-2.45s-1.05-2.36-3.25-2.36h-1.37v4.82Z"/><polygon class="cls-3" points="120.69 146.07 120.69 125.8 131.69 125.8 131.69 130.27 125.65 130.27 125.65 133.55 131.69 133.55 131.69 138.06 125.65 138.06 125.65 141.59 131.69 141.59 131.69 146.07 120.69 146.07"/><path class="cls-3" d="M128.1,70.13a5,5,0,0,0-1.79-.6H85.14a5.08,5.08,0,1,0,0,10.16h15.4a.93.93,0,0,1,.92.93.9.9,0,0,1-.37.71c-8.44,4.51-19.3,7.24-31.19,7.24A75.89,75.89,0,0,1,61.43,88V99.53c2.4.17,4.83.28,7.3.28,16.54,0,31.58-4,42.86-10.65h0a1.09,1.09,0,0,1,1.46,1.17l-2.35,6.38a6.48,6.48,0,0,0,12,5q.1-.24.18-.49l8.5-23.07a6.45,6.45,0,0,0-3.21-8"/><path class="cls-3" d="M69.9,26.56c12,0,22.94,2.76,31.41,7.33,0,0,5.38,3.87,7.94.15,2.94-4.26-2.93-6.92-2.93-6.92-10.51-4.94-23.52-7.87-37.59-7.87-2.47,0-4.9.1-7.3.28V27a75.89,75.89,0,0,1,8.47-.48"/><path class="cls-3" d="M9,0A9,9,0,0,0,0,9v97.72a9,9,0,0,0,9,9H61.43V99.53c-31.52-2.3-56-19.33-56-40s24.48-37.69,56-40V0Z"/><path class="cls-3" d="M21.29,57.52c0,15.26,17.33,27.93,40.14,30.48V27C38.62,29.59,21.29,42.26,21.29,57.52"/></g></g></g></g></g></svg>