<svg xmlns="http://www.w3.org/2000/svg" viewBox="0 0 31.57 49.14"><defs><style>.cls-1{fill:#fff;}</style></defs><title>Ligue1-White</title><g id="Layer_2" data-name="Layer 2"><g id="Layer_1-2" data-name="Layer 1"><path id="path8" class="cls-1" d="M4,18c.76-.09,1.22-1.36,1-2.83s-.94-2.59-1.69-2.5-1.22,1.35-1,2.82S3.21,18.12,4,18Z"/><path id="path15" class="cls-1" d="M12,3C15.31,1.89,17.91.68,17.8.34A5.48,5.48,0,0,0,14.88,0a2.52,2.52,0,0,1,.89.29L12.25,1.91,8,3a1,1,0,0,1-.53-.29C6.39,3.56,5.7,4.31,5.72,4.5,5.76,4.85,8.63,4.19,12,3Z"/><path id="path22" class="cls-1" d="M11.14.78A14.25,14.25,0,0,0,8.57,2,14.34,14.34,0,0,0,13.42.2,12.11,12.11,0,0,0,11.14.78Z"/><path id="path29" class="cls-1" d="M4.64,7.85C3.63,8,2.9,9.2,2.42,10.71a10,10,0,0,1,2.3-.86,15.49,15.49,0,0,1,2.5,4.61,24.07,24.07,0,0,1-.58,5.35A6.11,6.11,0,0,1,3.71,20c.84,1.81,1.92,2.29,3.08,2.16,1.92-.21,2.73-4,2.37-7.51C8.77,10.83,6.55,7.64,4.64,7.85Z"/><path id="path36" class="cls-1" d="M24.17,4A36.92,36.92,0,0,0,27.5,6.91a11.71,11.71,0,0,0-2.83-3.53A13.19,13.19,0,0,0,22,1.57a4.72,4.72,0,0,0-1.17-.52C20.85,1.13,22.36,2.41,24.17,4Z"/><path id="path43" class="cls-1" d="M17.6,3.55a7.42,7.42,0,0,0-6.28,8.39,7.54,7.54,0,0,0,6.39,6.74s-.07-.72-.15-1.44-.18-1.41-.18-1.41l-.86.09a14.93,14.93,0,0,1-1.75-2,14.73,14.73,0,0,1-1.24-2.19s.38-1.29.86-2.49a25.43,25.43,0,0,1,1.1-2.31,20.38,20.38,0,0,1,2.34-.41c1.27-.15,2.57-.16,2.57-.16A15.66,15.66,0,0,1,22,8.25a18.78,18.78,0,0,1,1.37,2.3,11.57,11.57,0,0,1-.65,2.38,16.66,16.66,0,0,1-1.3,2.42l-.77.13s.11.68.15,1.38.1,1.45.1,1.45a7.54,7.54,0,0,0,4.69-8A7.41,7.41,0,0,0,17.6,3.55Z"/><path id="path50" class="cls-1" d="M28.66,9.67c-.3-.11-.93,2.43-1.37,5.52s-.53,5.67-.21,5.69c.52,0,1.75-2.73,2.12-5.33A11.1,11.1,0,0,0,28.66,9.67Z"/><path id="path57" class="cls-1" d="M17.14,20.94c-3.75.57-6.77,2.29-6.29,4.15.2.85,1,1.45,2.54,1.77a5.57,5.57,0,0,1-.66-2A19.63,19.63,0,0,1,17.4,22.5a38.28,38.28,0,0,1,4.94.79,6.28,6.28,0,0,1-.06,2.14c1.31-.86,1.78-1.65,1.53-2.64C23.5,21.51,20.56,20.42,17.14,20.94Z"/><path id="path64" class="cls-1" d="M17.66,24.46c-1.47.23-2.57.95-2.46,1.61s1.37,1,2.83.79,2.57-1,2.46-1.63S19.12,24.22,17.66,24.46Z"/><path id="path71" class="cls-1" d="M21.11,10.8a2.47,2.47,0,1,0-2.17,2.77A2.47,2.47,0,0,0,21.11,10.8Z"/><polyline id="polyline73" class="cls-1" points="0 36.56 0 31.71 1.27 31.71 1.27 35.45 2.81 35.45 2.81 36.56"/><rect id="rect75" class="cls-1" x="4.85" y="31.7" width="1.27" height="4.86"/><path id="path77" class="cls-1" d="M10.74,31.53a2.34,2.34,0,0,1,2.19,1.22l-1,.55a1.36,1.36,0,0,0-1.2-.67c-.82,0-1.2.68-1.2,1.56s.38,1.48,1.32,1.48a1.07,1.07,0,0,0,1.08-.85H10.81v-1h2.43v.27a2.35,2.35,0,0,1-2.49,2.67,2.48,2.48,0,0,1-2.53-2.6,2.52,2.52,0,0,1,2.52-2.61"/><path id="path79" class="cls-1" d="M16.55,31.71v3a.79.79,0,0,0,.88.88.78.78,0,0,0,.86-.81v-3h1.28v3.11c0,1.1-.75,1.88-2.16,1.88-1.08,0-2.12-.55-2.12-1.75V31.71"/><polyline id="polyline81" class="cls-1" points="21.93 31.71 24.74 31.71 24.74 32.81 23.19 32.81 23.19 33.59 24.65 33.59 24.65 34.67 23.19 34.67 23.19 35.48 24.77 35.48 24.77 36.56 21.93 36.56"/><polyline id="polyline83" class="cls-1" points="29.61 31.71 31.57 31.71 31.57 36.56 30.31 36.56 30.31 32.75 29.61 32.75"/><path id="path85" class="cls-1" d="M17,47.23a.52.52,0,1,1,.51.51.51.51,0,0,1-.51-.51"/><path id="path87" class="cls-1" d="M16.75,46.75a4.27,4.27,0,0,0-.72-1.6,6.88,6.88,0,0,0,.4-.81,1.89,1.89,0,0,0,.19-1.08s-.05,0-.08-.06-.13.36-.6.87a.51.51,0,0,0,.06-.25.47.47,0,1,0-.94,0,.48.48,0,0,0,.47.48.52.52,0,0,0,.25-.07,1.61,1.61,0,0,1-.39.31c-.86-.8-1.71-1.36-1.82-1.27s0,.15.17.32a3.37,3.37,0,0,1,.87,1.71,3.61,3.61,0,0,1-.6,1.75.08.08,0,0,0,.05.09c.1,0,.21-.06.34-.17s.21-.18.33-.3c.35-.37.69-.81.69-.81s0,0,.38.44a4.06,4.06,0,0,1,.38.59c.35.64.28,1,.39,1a.09.09,0,0,0,.08-.06,1.72,1.72,0,0,0,.1-1"/><path id="path89" class="cls-1" d="M24.92,45.3a14.24,14.24,0,0,1-1.56-.13A10.12,10.12,0,0,1,19.79,44a6.2,6.2,0,0,1-1.21-1A3.74,3.74,0,0,0,13,43a6.43,6.43,0,0,1-1.22,1,10.05,10.05,0,0,1-3.57,1.2,14.24,14.24,0,0,1-1.56.13H0v.24H6.65a14.24,14.24,0,0,1,1.56.13,10.05,10.05,0,0,1,3.57,1.2,6.25,6.25,0,0,1,1.22,1,3.74,3.74,0,0,0,5.58,0,6,6,0,0,1,1.21-1,10.12,10.12,0,0,1,3.57-1.2,14.24,14.24,0,0,1,1.56-.13h6.63V45.3Zm-9.13,3.51a3.39,3.39,0,1,1,3.38-3.39A3.39,3.39,0,0,1,15.79,48.81Z"/></g></g></svg>