<svg xmlns="http://www.w3.org/2000/svg" viewBox="0 0 127.36 139.86"><defs><style>.cls-1,.cls-5,.cls-6{fill:#fff;}.cls-1,.cls-10,.cls-7,.cls-9{fill-rule:evenodd;}.cls-2{fill:#ff3935;}.cls-3{fill:#d82e2e;}.cls-4{fill:#2d2d2d;}.cls-5{opacity:0.1;}.cls-7{fill:#ccc;}.cls-8{fill:#999;}.cls-9{fill:#4a4a4a;}.cls-10{fill:#b0b0b0;}</style></defs><title>MarsTV</title><g id="Layer_2" data-name="Layer 2"><g id="Layer_1-2" data-name="Layer 1"><path class="cls-1" d="M18.14,138.5,20.58,129l7.14,1-5.06,9.12A5.54,5.54,0,0,1,18.14,138.5Z"/><path class="cls-1" d="M103.4,139l-2.43-9.5-7.14,1.06,5.06,9.12A5.54,5.54,0,0,0,103.4,139Z"/><path class="cls-2" d="M125.08,88.09c1.57-8.58,3-18.86,1.92-24.58-1.21-6.67-8.3-11.86-13.7-14.92l.07.07s-.21-.14-.61-.38l-1.19-.64a37.63,37.63,0,0,0-8-2.8l-4.87-.93c-.33-.05-.64-.11-.92-.17C85.06,41.34,60.77,37,36,33.52c-36-5-36,28-36,28v7l.77,24L1,105.2v0c.9,27.7,15.54,30.36,24,30.36,9,0,40-4,49-4s22,3,35-6a30.09,30.09,0,0,0,12.43-18.66h0S124.14,95.77,125.08,88.09Z"/><path class="cls-3" d="M11,71.52s3-27,32-22,42,8,42,8,24,3,26,19-7,38-9,40-12,12-23,10c0,0,15-3,18-13s6-26,6-26,5-16-16-23-50-9-50-9S18,51.52,11,71.52Z"/><path class="cls-4" d="M101.91,94c1.14-6.23,2.15-13.71,1.4-17.86-.88-4.85-6-8.62-10-10.85l.05.05s-.15-.1-.44-.27l-.86-.46a27.35,27.35,0,0,0-5.8-2l-3.54-.68-.67-.13c-9.27-1.75-26.93-4.93-44.93-7.44C11,50.74,11,74.73,11,74.73v5.09l.56,17.46.16,9.21v0c.66,20.14,11.3,22.07,17.44,22.07,6.54,0,29.07-2.91,35.62-2.91s16,2.18,25.44-4.36a21.87,21.87,0,0,0,9-13.56h0S101.23,99.63,101.91,94Z"/><path class="cls-5" d="M97.46,90.12c.6-4.15.94-8.3.46-10.92-.76-4.2-5.22-7.46-8.62-9.39l0,0L89,69.62l-.75-.4a23.67,23.67,0,0,0-5-1.76l-3.06-.59-.58-.11c-8-1.51-23.31-4.27-38.9-6.44C18,57.18,18,77.95,18,77.95v4.41l.17,5.16C34.69,90.78,70.27,96.33,97.46,90.12Z"/><path class="cls-1" d="M104.58,28l11.14-8.9,1.23.93-11,9A2.08,2.08,0,0,1,104.58,28Z"/><path class="cls-1" d="M94.58,35.57,111.4,22.14l1.86,1.4L96.6,37.21A3.16,3.16,0,0,1,94.58,35.57Z"/><polygon class="cls-1" points="117.03 21 114.86 18.73 116.16 17.77 118.27 20.03 117.03 21"/><polygon class="cls-1" points="115.39 19.28 114.81 18.68 116.11 17.72 116.71 18.36 115.39 19.28"/><path class="cls-1" d="M80.49,15,75.35,1.74l-1.54.18,5,13.38A2.11,2.11,0,0,0,80.49,15Z"/><path class="cls-1" d="M88,33.67,78.28,8.31,76,8.59,85.4,34.07A3.15,3.15,0,0,0,88,33.67Z"/><polygon class="cls-1" points="73.2 2.36 76.22 1.49 75.57 0.02 72.61 0.91 73.2 2.36"/><polygon class="cls-1" points="75.48 1.71 76.27 1.48 75.63 0 74.8 0.25 75.48 1.71"/><path class="cls-1" d="M81.42,38.35c0,1.86,14,5.11,17.14,3.32.29-4-1.64-7-7.17-8.22C86.66,32.74,82.72,33.34,81.42,38.35Z"/><path class="cls-6" d="M29.06,81.48l-5.84-6.73H19.29V92.91h4.52V81.57l4.9,5.69h.68l4.9-5.69V92.91h4.52V74.75H34.89Zm19.17-6.73L40.89,92.91h4.79L47,89.32h8.13l1.5,3.59h4.86L53.46,74.75Zm0,11.4,2.67-7.06,2.94,7.06Zm26.31-1.73A4.69,4.69,0,0,0,77.67,80,4.85,4.85,0,0,0,76,76.28a6.07,6.07,0,0,0-4.29-1.53H63.62V92.91h4.52V85.54h1.3a2.47,2.47,0,0,1,1.68.72A10.54,10.54,0,0,1,73,89.49q1.1,2.52,1.55,3.42h5q-1.15-2.42-2.38-5.14T74.55,84.41Zm-2.2-2.74a2.81,2.81,0,0,1-1.81.54H68.14V78.08h2.29q2.59,0,2.59,2.05A1.86,1.86,0,0,1,72.35,81.67Zm21.55,3a6.28,6.28,0,0,0-2.09-1.79,27.56,27.56,0,0,0-3.22-1.38A9.33,9.33,0,0,1,86,80.33a1.34,1.34,0,0,1-.52-1,1.22,1.22,0,0,1,.72-1.09,3.94,3.94,0,0,1,1.94-.41A15.14,15.14,0,0,1,94,79.47V75.92a15.46,15.46,0,0,0-6.15-1.4,8.11,8.11,0,0,0-5,1.44,4.52,4.52,0,0,0-1.88,3.78,4.82,4.82,0,0,0,.86,3,6.08,6.08,0,0,0,2.05,1.78A26,26,0,0,0,87,85.83a8.48,8.48,0,0,1,2.57,1.23,1.48,1.48,0,0,1,.53,1.08q0,1.68-2.66,1.68a8,8,0,0,1-3-.56,17.78,17.78,0,0,1-3.22-1.78v3.91a13.36,13.36,0,0,0,6.55,1.75,8,8,0,0,0,5-1.49,4.83,4.83,0,0,0,1.92-4A4.7,4.7,0,0,0,93.89,84.71Z"/><path class="cls-2" d="M48.26,109v-8.7H46.07V95.85h2.19V91.16h5.2v4.69h4.31v4.45H53.47v7.84c0,1.2.51,1.78,1.68,1.78a5.29,5.29,0,0,0,2.57-.65v4.18a7.67,7.67,0,0,1-4.11,1.06C50.42,114.52,48.26,113.25,48.26,109Z"/><path class="cls-2" d="M60,95.85h5.51l4.11,12.29,4.14-12.29h5.41l-7.22,18.49H67.2Z"/><path class="cls-7" d="M113.63,80.69a4.19,4.19,0,1,0,4.54-3.81A4.19,4.19,0,0,0,113.63,80.69Z"/><circle class="cls-8" cx="117.81" cy="81.06" r="3.48" transform="translate(-6.6 10.54) rotate(-4.99)"/><path class="cls-9" d="M115.3,78.23,118.61,85c.36.73,1.06,1.12,1.56.88h0c.49-.25.6-1,.25-1.77l-3.31-6.71c-.36-.73-1.05-1.13-1.55-.88h0C115,76.71,114.94,77.51,115.3,78.23Z"/><path class="cls-10" d="M115.52,78l3.31,6.71c.36.73,1.06,1.13,1.56.88h0c.5-.24.6-1,.25-1.76l-3.31-6.72c-.36-.73-1.06-1.12-1.56-.88h0C115.27,76.45,115.16,77.24,115.52,78Z"/><path class="cls-1" d="M109.37,109.59a.76.76,0,0,1-.62-.93l.05-.25a.87.87,0,0,1,1-.65l8,1.39a.76.76,0,0,1,.61.93l-.05.25a.86.86,0,0,1-1,.65Zm.62-2.69a.76.76,0,0,1-.62-.93l.06-.25a.86.86,0,0,1,1-.65l8,1.39a.76.76,0,0,1,.62.93l-.06.25a.86.86,0,0,1-1,.65Zm.65-2.85a.75.75,0,0,1-.61-.93l.05-.25a.87.87,0,0,1,1-.65l8,1.39a.76.76,0,0,1,.62.93l-.06.25a.86.86,0,0,1-1,.65Zm.62-2.68a.76.76,0,0,1-.62-.93l.06-.25a.85.85,0,0,1,1-.65l8,1.39a.76.76,0,0,1,.61.93l-.05.25a.87.87,0,0,1-1,.65Zm.64-2.79a.76.76,0,0,1-.62-.93l.06-.25a.86.86,0,0,1,1-.65l8,1.39a.77.77,0,0,1,.62.93l-.06.25a.87.87,0,0,1-1,.65Zm.66-2.89a.76.76,0,0,1-.61-.93l.05-.25a.86.86,0,0,1,1-.65l8,1.39a.75.75,0,0,1,.61.93l-.05.25a.87.87,0,0,1-1,.65Zm.64-2.79a.76.76,0,0,1-.61-.93l.05-.25a.86.86,0,0,1,1-.65l8,1.39a.76.76,0,0,1,.61.93l-.05.25a.87.87,0,0,1-1,.65Z"/></g></g></svg>