<svg xmlns="http://www.w3.org/2000/svg" viewBox="0 0 86.47 36.4"><defs><style>.cls-1{fill:#38003d;}</style></defs><title>Premier-League</title><g id="Layer_2" data-name="Layer 2"><g id="Layer_1-2" data-name="Layer 1"><g id="g4199"><path id="path4138" class="cls-1" d="M7.62,6.93a16,16,0,0,1,12.22-1.5,12.34,12.34,0,0,1,1-4.09,12.77,12.77,0,0,0-2.32,2.39L18.28,0,15.16,3.49,13,0,11.71,3.9,7.89,1.2,8.53,5A12,12,0,0,0,5.7,3.09,12.44,12.44,0,0,1,7.62,6.93Z"/><path id="path4142" class="cls-1" d="M23.54,8.5A10.11,10.11,0,0,0,19,6.22a4.18,4.18,0,0,1,.4,1.71,9.43,9.43,0,0,0-2.29-2,15.13,15.13,0,0,0-8.6,1.6,2.63,2.63,0,0,1,2.13,1.81c-2.93-2-4.61.9-2.92,3.84-1.82-.87-1.9-3-1.35-4.38a16.78,16.78,0,0,0-4.76,5.75l1.67.24A15.58,15.58,0,0,0,0,22.63l2.72-.88c-.86,3.12-.17,8,.93,9.74a20.81,20.81,0,0,0,4.46-5.13,16.24,16.24,0,0,1,0,8.75A11.34,11.34,0,0,0,20.29,34c.14.58.23.85.5,2.1a12.42,12.42,0,0,0,5.64-9.27l1.28,1.41A15.36,15.36,0,0,0,25.36,13.9l-.12,1c-.36-.44-.93-1-1.2-1.32-.05-.05,0-.08-.06-.12.14-.09.41-.21.48-.4A2.09,2.09,0,0,0,23.9,12a1.22,1.22,0,0,0-1,.72,3.43,3.43,0,0,0-1.42-.89,6.49,6.49,0,0,1,1,1.5,21.11,21.11,0,0,1,2.2,1.92l-.14.14c-.76-.6-2.82-.55-3.95,0a21.09,21.09,0,0,0-2.08-2.2A1.25,1.25,0,0,1,19,11.6a2.28,2.28,0,0,0-1.44.7,7,7,0,0,0-2.37-1.14,4.87,4.87,0,0,0-2.38,1.25,4.47,4.47,0,0,0,2,.76c.92.07,1.73-.14,2.32.24a11.73,11.73,0,0,1,2.3,2.42c-1.19-.68-3-.32-4.94-.42a3.09,3.09,0,0,1-2.92-2.72l-1.33-.21a4.86,4.86,0,0,1,2.39-1.73l-.73-.6a9,9,0,0,1,4.84-2,16.59,16.59,0,0,1,3.13,2,3.69,3.69,0,0,0,.43-1.59,15.3,15.3,0,0,1,4.28,3,8.72,8.72,0,0,1-1-3.08ZM17.83,22.18c-.56-1.08-1.11-2.3-1.75-3.32a12.23,12.23,0,0,1,4.43-2.33,6.56,6.56,0,0,0,1.95,1.1v2.13c-1.27.87-2.54,2.28-4.63,2.42Zm4.22-.39h1.54a3.27,3.27,0,0,1,.84,1.72,4.71,4.71,0,0,1-2.08,3.25,8.6,8.6,0,0,0-.21-2.36,4.76,4.76,0,0,1-2.47,1.3,10.66,10.66,0,0,0-1.06-2,8.34,8.34,0,0,0,3.44-1.9Zm3-5.18a5.61,5.61,0,0,1,.08,5.26,6.41,6.41,0,0,0-1.57-2.08l0-2.09a5.91,5.91,0,0,0,1.47-1.09Z"/><path id="path4144" class="cls-1" d="M35.75,14.31v4h-2.3V6.15h3.11c2,0,2.71.26,3.6.86a3.87,3.87,0,0,1,1.52,3.12c0,2.79-1.72,4.21-5,4.18Zm0-2.17h1.17c1.28,0,2.35-.47,2.36-1.94,0-.9-.53-1.75-2.12-1.84H35.75Z"/><path id="path4146" class="cls-1" d="M47.26,12.4a1.92,1.92,0,0,0-2.65,1.67v4.25H42.48v-8h1.87l.25,1.21a2.15,2.15,0,0,1,2.66-1.22Z"/><path id="path4148" class="cls-1" d="M55.6,15H49.69a1.92,1.92,0,0,0,2,1.68,2.8,2.8,0,0,0,2.21-1l1.27,1.34a5,5,0,0,1-3.3,1.5,4.13,4.13,0,0,1-4.43-4.13,4.23,4.23,0,0,1,4.26-4.3,3.93,3.93,0,0,1,3.56,2.33A5.1,5.1,0,0,1,55.6,15Zm-5.92-1.48h3.87A2,2,0,0,0,51.62,12,1.94,1.94,0,0,0,49.68,13.52Z"/><path id="path4150" class="cls-1" d="M66.15,18.32V13.59a1.37,1.37,0,0,0-1.36-1.45,1.47,1.47,0,0,0-1.34,1.5v4.68H61.36V13.26A1.31,1.31,0,0,0,60,12.16a1.3,1.3,0,0,0-1.29,1.2v5H56.57v-8H58.5l.21,1a2.25,2.25,0,0,1,2-1.24,2.65,2.65,0,0,1,2.34,1.3,2.7,2.7,0,0,1,2.5-1.3,2.87,2.87,0,0,1,2.72,3.19v5Z"/><path id="path4152" class="cls-1" d="M69.43,10.34h2.2v8h-2.2Z"/><path id="path4153" class="cls-1" d="M33.42,19.64h2.41v9.7h5.11v2.2H33.42Z"/><path id="path4157" class="cls-1" d="M57.17,31.54l-.24-1a3.15,3.15,0,0,1-2.76,1.2,3.8,3.8,0,0,1-2.77-1.5,4.36,4.36,0,0,1-.95-2.83,4.23,4.23,0,0,1,1.43-3,4,4,0,0,1,2.65-1,2.8,2.8,0,0,1,2.38,1.14l.22-1h2v8Zm-2.28-6.13a2.19,2.19,0,0,0-1.43,3.79,2.25,2.25,0,0,0,1.5.5,2.15,2.15,0,0,0-.07-4.29Z"/><path id="path4161" class="cls-1" d="M69.6,23.53h2.26V27.4a2.65,2.65,0,0,0,.3,1.64,1.65,1.65,0,0,0,1.22.64,1.75,1.75,0,0,0,1.26-.39,2.28,2.28,0,0,0,.6-1.84V23.53h2.22v4.65A3.54,3.54,0,0,1,76.3,30.8a4,4,0,0,1-2.93.95,3.91,3.91,0,0,1-2.69-1.05A3.62,3.62,0,0,1,69.6,28Z"/><path id="path4145" class="cls-1" d="M70.57,6.5a1.38,1.38,0,0,1,1,2.35,1.38,1.38,0,0,1-1.94,0,1.33,1.33,0,0,1-.4-1A1.38,1.38,0,0,1,70.57,6.5Z"/><path id="path4147" class="cls-1" d="M86.46,12.4a1.93,1.93,0,0,0-2.66,1.67v4.25H81.67v-8h1.87l.25,1.21a2.16,2.16,0,0,1,2.67-1.22Z"/><path id="path4149" class="cls-1" d="M80.66,15H74.75a1.92,1.92,0,0,0,2,1.68,2.77,2.77,0,0,0,2.21-1l1.28,1.34a5,5,0,0,1-3.3,1.5,4.14,4.14,0,0,1-4.44-4.13,4.23,4.23,0,0,1,4.26-4.3,3.94,3.94,0,0,1,3.57,2.33A5,5,0,0,1,80.66,15Zm-5.91-1.48h3.87A2,2,0,0,0,76.68,12,1.93,1.93,0,0,0,74.75,13.52Z"/><path id="path4180" class="cls-1" d="M61.5,32.35a3.82,3.82,0,0,0,1.89,1c1.56.26,3.24-.33,2.88-2.56a2.68,2.68,0,0,1-1.26.8,4,4,0,0,1-4.15-1.38,4.35,4.35,0,0,1-.94-2.83,4.26,4.26,0,0,1,1.42-3,4,4,0,0,1,2.65-1,2.78,2.78,0,0,1,2.38,1.14l.22-1h2v7.4c.09,3.53-2.51,4.62-4.61,4.6a5.81,5.81,0,0,1-3.68-1.45Zm2.85-6.94a2.18,2.18,0,0,0-1.42,3.79,2.25,2.25,0,0,0,1.5.5,2.15,2.15,0,0,0-.08-4.29Z"/><path id="path4149-6" class="cls-1" d="M86.42,28.21H80.51a1.92,1.92,0,0,0,2,1.68,2.79,2.79,0,0,0,2.21-1L86,30.26a5,5,0,0,1-3.3,1.5,4.15,4.15,0,0,1-4.44-4.14,4.23,4.23,0,0,1,4.26-4.29,3.94,3.94,0,0,1,3.57,2.33,5,5,0,0,1,.31,2.55Zm-5.91-1.48h3.87a2,2,0,0,0-1.94-1.55A1.93,1.93,0,0,0,80.51,26.73Z"/><path id="path4197" class="cls-1" d="M49.59,28.21H43.68a1.92,1.92,0,0,0,2,1.68,2.79,2.79,0,0,0,2.21-1l1.27,1.34a5,5,0,0,1-3.3,1.5,4.14,4.14,0,0,1-4.43-4.14,4.23,4.23,0,0,1,4.26-4.29,3.94,3.94,0,0,1,3.57,2.33,5,5,0,0,1,.31,2.55Zm-5.91-1.48h3.87a2,2,0,0,0-1.94-1.55A1.93,1.93,0,0,0,43.68,26.73Z"/></g></g></g></svg>