<svg xmlns="http://www.w3.org/2000/svg" xmlns:xlink="http://www.w3.org/1999/xlink" viewBox="0 0 150.92 117.95"><defs><style>.cls-1{isolation:isolate;}.cls-2{fill:#f2bc00;}.cls-3{fill:#fdcd00;}.cls-4{opacity:0.1;}.cls-5{fill:#fd0000;}.cls-6{fill:#fd9401;}.cls-7{fill:#fdcf02;}.cls-8{fill:#6cd943;}.cls-9{fill:#35b214;}.cls-10{fill:#218800;}.cls-11{fill:#007dba;}.cls-12{fill:#0faeba;}.cls-13{fill:#2ccddc;}.cls-14{fill:#cd00b8;}.cls-15{fill:#fd00b8;}.cls-16{fill:#fd6ef3;}.cls-17{opacity:0.15;}.cls-18{fill:#ffffb3;}.cls-19{fill:#231f20;opacity:0.2;}.cls-20{fill:#fdf003;}.cls-21{fill:#fdc701;}.cls-22{fill:#fd9a00;}.cls-23{fill:#fdc000;}.cls-24{fill:#f4a601;}.cls-25{fill:#f39c01;}.cls-26{fill:#d22f21;}.cls-27{fill:#db3123;}.cls-28{fill:#da3122;}.cls-29{fill:#d93022;}.cls-30{fill:#d83021;}.cls-31{fill:#d72f21;}.cls-32{fill:#d62f20;}.cls-33{fill:#d52e20;}.cls-34{fill:#d42e1f;}.cls-35{fill:#d32d1f;}.cls-36{fill:#d22d1e;}.cls-37{fill:#d12d1d;}.cls-38{fill:#d02c1d;}.cls-39{fill:#cf2c1c;}.cls-40{fill:#ce2b1c;}.cls-41{fill:#cd2b1b;}.cls-42{fill:#cc2a1b;}.cls-43{fill:#cb2a1a;}.cls-44{fill:#ca291a;}.cls-45{fill:#c92919;}.cls-46{fill:#c82918;}.cls-47{fill:#c72818;}.cls-48{fill:#c62817;}.cls-49{fill:#c52717;}.cls-50{fill:#c42716;}.cls-51{fill:#c42616;}.cls-52{fill:#c32615;}.cls-53{fill:#c22515;}.cls-54{fill:#c12514;}.cls-55{fill:#c02414;}.cls-56{fill:#bf2413;}.cls-57{fill:#be2412;}.cls-58{fill:#bd2312;}.cls-59{fill:#bc2311;}.cls-60{fill:#b21;}.cls-61{fill:#ba2210;}.cls-62{fill:#b92110;}.cls-63{fill:#b8210f;}.cls-64{fill:#b7200f;}.cls-65{fill:#b6200e;}.cls-66{fill:#b5200d;}.cls-67{fill:#b41f0d;}.cls-68{fill:#b31f0c;}.cls-69{fill:#b21e0c;}.cls-70{fill:#b11e0b;}.cls-71{fill:#b01d0b;}.cls-72{fill:#af1d0a;}.cls-73{fill:#ae1c0a;}.cls-74{fill:#ad1c09;}.cls-75{fill:#e83627;}.cls-76{mix-blend-mode:multiply;fill:url(#linear-gradient);}.cls-77{fill:#e8b133;}.cls-78{fill:#e8b033;}.cls-79{fill:#e8af33;}.cls-80{fill:#e7ae32;}.cls-81{fill:#e7ad32;}.cls-82{fill:#e7ac32;}.cls-83{fill:#e7ab32;}.cls-84{fill:#e6aa32;}.cls-85{fill:#e6a932;}.cls-86{fill:#e6a831;}.cls-87{fill:#e6a731;}.cls-88{fill:#e6a631;}.cls-89{fill:#e5a531;}.cls-90{fill:#e5a431;}.cls-91{fill:#e5a330;}.cls-92{fill:#e5a230;}.cls-93{fill:#e4a130;}.cls-94{fill:#e4a030;}.cls-95{fill:#e49f30;}.cls-96{fill:#e49e30;}.cls-97{fill:#e49d2f;}.cls-98{fill:#e39c2f;}.cls-99{fill:#e39b2f;}.cls-100{fill:#e39a2f;}.cls-101{fill:#e3992f;}.cls-102{fill:#e2992e;}.cls-103{fill:#e2982e;}.cls-104{fill:#e2972e;}.cls-105{fill:#e2962e;}.cls-106{fill:#e1952e;}.cls-107{fill:#e1942d;}.cls-108{fill:#e1932d;}.cls-109{fill:#e1922d;}.cls-110{fill:#e1912d;}.cls-111{fill:#e0902d;}.cls-112{fill:#e08f2d;}.cls-113{fill:#e08e2c;}.cls-114{fill:#e08d2c;}.cls-115{fill:#df8c2c;}.cls-116{fill:#df8b2c;}.cls-117{fill:#df8a2c;}.cls-118{fill:#df892b;}.cls-119{fill:#df882b;}.cls-120{fill:#de872b;}.cls-121{fill:#de862b;}.cls-122{fill:#de852b;}.cls-123{fill:#de842b;}.cls-124{fill:#dd832a;}.cls-125{fill:#dd822a;}.cls-126{fill:#dd812a;}.cls-127{fill:#d4443c;}.cls-128{fill:#d04139;}.cls-129{fill:#cc3e36;}.cls-130{fill:#c83c32;}.cls-131{fill:#c4392f;}.cls-132{fill:#c0362c;}.cls-133{fill:#bd3329;}.cls-134{fill:#b93026;}.cls-135{fill:#b52d23;}.cls-136{fill:#b12b1f;}.cls-137{fill:#ad281c;}.cls-138{fill:#a92519;}.cls-139{fill:#b6b6bf;}.cls-140{fill:#ff3935;}.cls-141,.cls-146{opacity:0.3;}.cls-142,.cls-146{fill:#0c024d;}.cls-142{mix-blend-mode:overlay;}.cls-143{fill:#5f7096;}.cls-144{fill:#8e8ea8;}.cls-145{fill:#a8b1c1;}.cls-147{fill:#f9e0d3;}.cls-148{fill:#7593b4;}.cls-149{fill:#81a2c7;}.cls-150{fill:#001656;}.cls-151{fill:#01387c;}.cls-152{fill:#e2d3c0;}.cls-153{fill:#7b7c8f;}.cls-154{fill:#174888;}.cls-155{fill:#3d6294;}.cls-156{fill:#b0b8bc;}.cls-157{fill:#5d7297;}.cls-158{fill:#6b82a6;}.cls-159{fill:#9bb8c8;}.cls-160{fill:#bacccd;}.cls-161{fill:#fff5c2;}.cls-162{fill:#290e2d;}.cls-163{fill:#5c1b7d;}.cls-164{fill:#17b284;}.cls-165{fill:#ff3642;}.cls-166{fill:#ff7355;}.cls-167{fill:#ce302d;}.cls-168{fill:#eb3e3a;}.cls-169{fill:#fff;}</style><linearGradient id="linear-gradient" x1="-265.89" y1="712.33" x2="-265.89" y2="704.42" gradientTransform="translate(131.35 -701.61) rotate(-14.25)" gradientUnits="userSpaceOnUse"><stop offset="0.03" stop-color="#fff"/><stop offset="0.18" stop-color="#fffefc"/><stop offset="0.29" stop-color="#fef9f3"/><stop offset="0.39" stop-color="#fcf1e3"/><stop offset="0.48" stop-color="#f9e6cd"/><stop offset="0.56" stop-color="#f6d7b0"/><stop offset="0.64" stop-color="#f1c68e"/><stop offset="0.7" stop-color="#edb46a"/><stop offset="0.96" stop-color="#b1610d"/></linearGradient></defs><title>Sans-Carki</title><g class="cls-1"><g id="Layer_2" data-name="Layer 2"><g id="Layer_1-2" data-name="Layer 1"><rect class="cls-2" x="36.32" y="94.35" width="28.91" height="18.73"/><circle class="cls-3" cx="50.78" cy="50.78" r="50.78"/><path class="cls-4" d="M36.32,102.61a50.34,50.34,0,0,0,28.91,0V99.46a50.57,50.57,0,0,1-28.91,0Z"/><path class="cls-5" d="M62.83,8.9a43.63,43.63,0,0,0-22.55-.42l10.5,42.3Z"/><path class="cls-6" d="M40.28,8.48A43.44,43.44,0,0,0,20.55,19.41L50.78,50.78Z"/><path class="cls-7" d="M20.55,19.41A43.42,43.42,0,0,0,8.9,38.72L50.78,50.78Z"/><path class="cls-8" d="M8.9,38.72a43.66,43.66,0,0,0-.42,22.56l42.3-10.5Z"/><path class="cls-9" d="M8.48,61.28A43.49,43.49,0,0,0,19.41,81L50.78,50.78Z"/><path class="cls-10" d="M19.41,81A43.49,43.49,0,0,0,38.72,92.65L50.78,50.78Z"/><path class="cls-11" d="M38.72,92.65a43.66,43.66,0,0,0,22.56.42L50.78,50.78Z"/><path class="cls-12" d="M61.28,93.07A43.49,43.49,0,0,0,81,82.14L50.78,50.78Z"/><path class="cls-13" d="M81,82.14A43.49,43.49,0,0,0,92.65,62.83l-41.87-12Z"/><path class="cls-14" d="M92.65,62.83a43.63,43.63,0,0,0,.42-22.55L50.78,50.78Z"/><path class="cls-15" d="M50.78,50.78l42.29-10.5A43.44,43.44,0,0,0,82.14,20.55Z"/><path class="cls-16" d="M82.14,20.55A43.42,43.42,0,0,0,62.83,8.9l-12,41.88Z"/><path class="cls-17" d="M93.07,40.28a43.63,43.63,0,1,0,1.28,10.5A43.44,43.44,0,0,0,93.07,40.28Zm-3,22.44A41.44,41.44,0,0,1,79.14,81.06,40.61,40.61,0,0,1,60.63,91.43,40.33,40.33,0,0,1,39.47,91,40.66,40.66,0,0,1,21.34,80,41.49,41.49,0,0,1,11.09,61.24a42,42,0,0,1,.39-21.42A41.44,41.44,0,0,1,22.41,21.48a40.51,40.51,0,0,1,57.8,1.08A41.7,41.7,0,0,1,91.67,51.27,42,42,0,0,1,90.07,62.72Z"/><path class="cls-18" d="M53,3.56a2.24,2.24,0,1,1-2.23-2.23A2.23,2.23,0,0,1,53,3.56Z"/><path class="cls-18" d="M40.71,4.59A2.23,2.23,0,1,1,38,3,2.23,2.23,0,0,1,40.71,4.59Z"/><path class="cls-18" d="M29.1,8.77A2.23,2.23,0,1,1,26.05,8,2.23,2.23,0,0,1,29.1,8.77Z"/><path class="cls-18" d="M19,15.81a2.23,2.23,0,1,1-3.16,0A2.24,2.24,0,0,1,19,15.81Z"/><path class="cls-18" d="M11,25.23a2.23,2.23,0,1,1-3,.82A2.23,2.23,0,0,1,11,25.23Z"/><path class="cls-18" d="M5.75,36.4A2.23,2.23,0,1,1,3,38,2.24,2.24,0,0,1,5.75,36.4Z"/><path class="cls-18" d="M3.56,48.54a2.24,2.24,0,1,1-2.23,2.23A2.23,2.23,0,0,1,3.56,48.54Z"/><path class="cls-18" d="M4.59,60.84A2.23,2.23,0,1,1,3,63.57,2.24,2.24,0,0,1,4.59,60.84Z"/><path class="cls-18" d="M8.77,72.45a2.23,2.23,0,1,1-.82,3A2.23,2.23,0,0,1,8.77,72.45Z"/><path class="cls-18" d="M15.81,82.58a2.23,2.23,0,1,1,0,3.16A2.24,2.24,0,0,1,15.81,82.58Z"/><path class="cls-18" d="M25.23,90.55a2.23,2.23,0,1,1,.82,3A2.23,2.23,0,0,1,25.23,90.55Z"/><path class="cls-18" d="M36.4,95.8A2.23,2.23,0,1,1,38,98.54,2.22,2.22,0,0,1,36.4,95.8Z"/><path class="cls-18" d="M48.54,98a2.24,2.24,0,1,1,2.24,2.24A2.23,2.23,0,0,1,48.54,98Z"/><path class="cls-18" d="M60.84,97a2.23,2.23,0,1,1,2.73,1.58A2.23,2.23,0,0,1,60.84,97Z"/><path class="cls-18" d="M72.45,92.78a2.23,2.23,0,1,1,3,.82A2.23,2.23,0,0,1,72.45,92.78Z"/><path class="cls-18" d="M82.58,85.74a2.23,2.23,0,1,1,3.16,0A2.24,2.24,0,0,1,82.58,85.74Z"/><path class="cls-18" d="M90.55,76.32a2.23,2.23,0,1,1,3-.82A2.24,2.24,0,0,1,90.55,76.32Z"/><path class="cls-18" d="M95.8,65.15a2.23,2.23,0,1,1,2.74-1.58A2.22,2.22,0,0,1,95.8,65.15Z"/><path class="cls-18" d="M98,53a2.24,2.24,0,1,1,2.23-2.23A2.23,2.23,0,0,1,98,53Z"/><path class="cls-18" d="M97,40.71A2.23,2.23,0,1,1,98.54,38,2.22,2.22,0,0,1,97,40.71Z"/><path class="cls-18" d="M92.78,29.1a2.23,2.23,0,1,1,.82-3.05A2.23,2.23,0,0,1,92.78,29.1Z"/><path class="cls-18" d="M85.74,19a2.23,2.23,0,1,1,0-3.16A2.24,2.24,0,0,1,85.74,19Z"/><path class="cls-18" d="M76.32,11a2.23,2.23,0,1,1-.82-3A2.23,2.23,0,0,1,76.32,11Z"/><path class="cls-18" d="M65.15,5.75A2.23,2.23,0,1,1,63.57,3,2.23,2.23,0,0,1,65.15,5.75Z"/><ellipse class="cls-19" cx="50.78" cy="51.04" rx="10.39" ry="10.69"/><path class="cls-20" d="M60.65,50.74a9.88,9.88,0,1,1-9.87-9.88A9.88,9.88,0,0,1,60.65,50.74Z"/><polygon class="cls-21" points="50.78 45.62 52.44 48.99 56.15 49.53 53.47 52.15 54.1 55.85 50.78 54.1 47.45 55.85 48.09 52.15 45.4 49.53 49.12 48.99 50.78 45.62"/><path class="cls-21" d="M50.78,60A9.25,9.25,0,1,1,60,50.74,9.26,9.26,0,0,1,50.78,60Zm0-18a8.78,8.78,0,1,0,8.78,8.78A8.79,8.79,0,0,0,50.78,42Z"/><path class="cls-22" d="M51.28,14.29c-.28.58-.73.58-1,0L46.73,7a.68.68,0,0,1,.66-1h6.77a.68.68,0,0,1,.66,1Z"/><path class="cls-23" d="M51.1,12.26c-.18.37-.47.37-.65,0L48.19,7.62A.43.43,0,0,1,48.61,7h4.33a.42.42,0,0,1,.42.66Z"/><rect class="cls-24" x="24.94" y="113.09" width="51.68" height="3.92"/><rect class="cls-25" x="24.94" y="115.05" width="51.68" height="1.96"/><path class="cls-26" d="M80.32,36,14,52.8c-.75.19-1.6-.37-2.08-1.39L2.31,31.18c-.72-1.53-.32-3.34.82-3.63l74.74-19c1.13-.28,2.35,1.12,2.44,2.8L81.5,33.75A2,2,0,0,1,80.32,36Z"/><path class="cls-27" d="M80.77,37.13,14.49,54c-.75.2-1.6-.37-2.09-1.38L2.76,32.34C2,30.82,2.44,29,3.57,28.72l74.74-19c1.14-.29,2.36,1.11,2.45,2.8l1.18,22.38A2,2,0,0,1,80.77,37.13Z"/><path class="cls-28" d="M80.76,37.1,14.48,53.94c-.75.19-1.6-.37-2.09-1.39L2.75,32.32C2,30.79,2.43,29,3.56,28.69L78.3,9.7c1.14-.28,2.36,1.12,2.45,2.8l1.18,22.39C82,36,81.52,36.91,80.76,37.1Z"/><path class="cls-29" d="M80.75,37.08,14.47,53.92c-.75.19-1.6-.38-2.09-1.39L2.74,32.29C2,30.77,2.42,29,3.55,28.67l74.75-19c1.13-.29,2.35,1.11,2.44,2.8l1.18,22.38C82,36,81.51,36.89,80.75,37.08Z"/><path class="cls-30" d="M80.74,37.05,14.46,53.89c-.75.19-1.6-.37-2.09-1.39L2.73,32.27c-.73-1.53-.32-3.34.81-3.63l74.75-19c1.13-.29,2.35,1.11,2.44,2.79l1.18,22.39C82,36,81.5,36.86,80.74,37.05Z"/><path class="cls-31" d="M80.73,37,14.45,53.87c-.75.19-1.6-.38-2.09-1.39L2.72,32.24c-.73-1.52-.32-3.33.82-3.62l74.74-19c1.13-.29,2.35,1.11,2.44,2.8l1.19,22.38C82,35.93,81.49,36.84,80.73,37Z"/><path class="cls-32" d="M80.72,37,14.44,53.84c-.75.19-1.6-.37-2.08-1.39L2.71,32.22c-.73-1.52-.32-3.34.82-3.63l74.74-19c1.13-.29,2.35,1.11,2.44,2.79L81.9,34.79C82,35.91,81.48,36.81,80.72,37Z"/><path class="cls-33" d="M80.71,37,14.43,53.82c-.75.19-1.6-.38-2.08-1.39L2.7,32.19c-.72-1.52-.32-3.33.82-3.62l74.74-19c1.13-.29,2.35,1.11,2.44,2.8l1.19,22.38A2,2,0,0,1,80.71,37Z"/><path class="cls-34" d="M80.7,37,14.42,53.79c-.75.19-1.6-.37-2.08-1.39L2.69,32.17c-.72-1.52-.32-3.34.82-3.63l74.74-19c1.13-.29,2.36,1.11,2.44,2.79l1.19,22.39A2,2,0,0,1,80.7,37Z"/><path class="cls-35" d="M80.69,36.93,14.41,53.77c-.75.19-1.6-.38-2.08-1.39L2.68,32.15c-.72-1.53-.32-3.34.82-3.63l74.74-19c1.13-.29,2.36,1.11,2.44,2.8l1.19,22.38A2,2,0,0,1,80.69,36.93Z"/><path class="cls-36" d="M80.68,36.9,14.41,53.74c-.76.19-1.61-.37-2.09-1.39L2.67,32.12c-.72-1.52-.32-3.34.82-3.63l74.74-19c1.13-.29,2.36,1.11,2.45,2.79l1.18,22.39A2,2,0,0,1,80.68,36.9Z"/><path class="cls-37" d="M80.68,36.88,14.4,53.72c-.76.19-1.61-.38-2.09-1.39L2.66,32.1c-.72-1.53-.32-3.34.82-3.63l74.74-19c1.13-.29,2.36,1.11,2.45,2.8l1.18,22.38A2,2,0,0,1,80.68,36.88Z"/><path class="cls-38" d="M80.67,36.85,14.39,53.69c-.76.19-1.61-.37-2.09-1.39L2.65,32.07c-.72-1.52-.31-3.34.82-3.63l74.74-19c1.13-.29,2.36,1.11,2.45,2.8l1.18,22.38A2,2,0,0,1,80.67,36.85Z"/><path class="cls-39" d="M80.66,36.83,14.38,53.67c-.76.19-1.61-.38-2.09-1.39L2.64,32.05c-.72-1.53-.31-3.34.82-3.63l74.74-19c1.13-.29,2.36,1.11,2.45,2.8l1.18,22.38C81.89,35.74,81.41,36.64,80.66,36.83Z"/><path class="cls-40" d="M80.65,36.8,14.37,53.64c-.76.19-1.61-.37-2.09-1.39L2.64,32c-.73-1.52-.32-3.34.81-3.63l74.74-19c1.13-.29,2.36,1.11,2.45,2.8l1.18,22.38A2,2,0,0,1,80.65,36.8Z"/><path class="cls-41" d="M80.64,36.78,14.36,53.62c-.76.19-1.61-.38-2.09-1.39L2.63,32c-.73-1.53-.32-3.34.81-3.63l74.74-19c1.13-.29,2.36,1.11,2.45,2.8l1.18,22.38C81.87,35.69,81.39,36.59,80.64,36.78Z"/><path class="cls-42" d="M80.63,36.76,14.35,53.59c-.76.19-1.61-.37-2.09-1.39L2.62,32c-.73-1.52-.32-3.34.81-3.63l74.74-19c1.14-.29,2.36,1.11,2.45,2.8L81.8,34.54A2,2,0,0,1,80.63,36.76Z"/><path class="cls-43" d="M80.62,36.73,14.34,53.57c-.76.19-1.61-.38-2.09-1.39L2.61,32c-.73-1.53-.32-3.34.81-3.63l74.74-19c1.14-.29,2.36,1.11,2.45,2.8l1.18,22.38C81.85,35.64,81.37,36.54,80.62,36.73Z"/><path class="cls-44" d="M80.61,36.71,14.33,53.54c-.75.2-1.61-.37-2.09-1.38L2.6,31.92c-.73-1.52-.32-3.34.81-3.62l74.74-19c1.14-.29,2.36,1.11,2.45,2.8l1.18,22.38A2,2,0,0,1,80.61,36.71Z"/><path class="cls-45" d="M80.6,36.68,14.32,53.52c-.75.19-1.6-.38-2.09-1.39L2.59,31.9c-.73-1.53-.32-3.34.81-3.63l74.74-19c1.14-.28,2.36,1.12,2.45,2.8l1.18,22.38C81.83,35.59,81.35,36.49,80.6,36.68Z"/><path class="cls-46" d="M80.59,36.66,14.31,53.49c-.75.2-1.6-.37-2.09-1.38L2.58,31.87c-.73-1.52-.32-3.34.81-3.62l74.74-19c1.14-.29,2.36,1.11,2.45,2.8l1.18,22.38A2,2,0,0,1,80.59,36.66Z"/><path class="cls-47" d="M80.58,36.63,14.3,53.47c-.75.19-1.6-.37-2.09-1.39L2.57,31.85c-.73-1.53-.32-3.34.81-3.63l74.74-19c1.14-.28,2.36,1.12,2.45,2.8l1.18,22.38C81.81,35.54,81.33,36.44,80.58,36.63Z"/><path class="cls-48" d="M80.57,36.61,14.29,53.44c-.75.2-1.6-.37-2.09-1.38L2.56,31.82c-.73-1.52-.32-3.34.81-3.62l74.74-19c1.14-.29,2.36,1.11,2.45,2.8l1.18,22.38A2,2,0,0,1,80.57,36.61Z"/><path class="cls-49" d="M80.56,36.58,14.28,53.42c-.75.19-1.6-.37-2.09-1.39L2.55,31.8c-.73-1.53-.32-3.34.81-3.63l74.74-19c1.14-.28,2.36,1.12,2.45,2.8l1.18,22.39C81.79,35.49,81.32,36.39,80.56,36.58Z"/><path class="cls-50" d="M80.55,36.56,14.27,53.39c-.75.2-1.6-.37-2.09-1.38L2.54,31.77c-.73-1.52-.32-3.34.81-3.62l74.75-19c1.13-.29,2.35,1.11,2.44,2.8l1.18,22.38C81.78,35.46,81.31,36.37,80.55,36.56Z"/><path class="cls-51" d="M80.54,36.53,14.26,53.37c-.75.19-1.6-.37-2.09-1.39L2.53,31.75c-.73-1.53-.32-3.34.82-3.63l74.74-19c1.13-.28,2.35,1.12,2.44,2.8l1.18,22.39C81.77,35.44,81.3,36.34,80.54,36.53Z"/><path class="cls-52" d="M80.53,36.51,14.25,53.35c-.75.19-1.6-.38-2.08-1.39L2.52,31.72c-.73-1.52-.32-3.34.82-3.62l74.74-19c1.13-.29,2.35,1.11,2.44,2.8l1.19,22.38C81.76,35.41,81.29,36.32,80.53,36.51Z"/><path class="cls-53" d="M80.52,36.48,14.24,53.32c-.75.19-1.6-.37-2.08-1.39L2.51,31.7c-.72-1.53-.32-3.34.82-3.63l74.74-19c1.13-.28,2.35,1.12,2.44,2.8L81.7,34.27A2,2,0,0,1,80.52,36.48Z"/><path class="cls-54" d="M80.51,36.46,14.23,53.3c-.75.19-1.6-.38-2.08-1.39L2.5,31.67c-.72-1.52-.32-3.33.82-3.62l74.74-19c1.13-.29,2.35,1.11,2.44,2.8l1.19,22.38A2,2,0,0,1,80.51,36.46Z"/><path class="cls-55" d="M80.5,36.43,14.22,53.27c-.75.19-1.6-.37-2.08-1.39L2.49,31.65c-.72-1.53-.32-3.34.82-3.63L78.05,9c1.13-.29,2.36,1.11,2.44,2.79l1.19,22.39A2,2,0,0,1,80.5,36.43Z"/><path class="cls-56" d="M80.49,36.41,14.22,53.25c-.76.19-1.61-.38-2.09-1.39L2.48,31.62c-.72-1.52-.32-3.33.82-3.62L78,9c1.13-.29,2.36,1.11,2.44,2.8l1.19,22.38A2,2,0,0,1,80.49,36.41Z"/><path class="cls-57" d="M80.49,36.38,14.21,53.22c-.76.19-1.61-.37-2.09-1.39L2.47,31.6c-.72-1.52-.32-3.34.82-3.63L78,9c1.13-.29,2.36,1.11,2.45,2.79l1.18,22.39A2,2,0,0,1,80.49,36.38Z"/><path class="cls-58" d="M80.48,36.36,14.2,53.2c-.76.19-1.61-.38-2.09-1.39L2.46,31.57c-.72-1.52-.32-3.33.82-3.62L78,9c1.13-.29,2.36,1.11,2.45,2.8l1.18,22.38A2,2,0,0,1,80.48,36.36Z"/><path class="cls-59" d="M80.47,36.33,14.19,53.17c-.76.19-1.61-.37-2.09-1.39L2.45,31.55c-.72-1.52-.31-3.34.82-3.63L78,8.94c1.13-.29,2.36,1.11,2.45,2.79l1.18,22.39A2,2,0,0,1,80.47,36.33Z"/><path class="cls-60" d="M80.46,36.31,14.18,53.15c-.76.19-1.61-.38-2.09-1.39L2.45,31.53c-.73-1.53-.32-3.34.81-3.63L78,8.91c1.13-.29,2.36,1.11,2.45,2.8l1.18,22.38A2,2,0,0,1,80.46,36.31Z"/><path class="cls-61" d="M80.45,36.28,14.17,53.12c-.76.19-1.61-.37-2.09-1.39L2.44,31.5c-.73-1.52-.32-3.34.81-3.63L78,8.89c1.13-.29,2.36,1.11,2.45,2.79l1.18,22.39A2,2,0,0,1,80.45,36.28Z"/><path class="cls-62" d="M80.44,36.26,14.16,53.1c-.76.19-1.61-.38-2.09-1.39L2.43,31.48c-.73-1.53-.32-3.34.81-3.63L78,8.86c1.13-.29,2.36,1.11,2.45,2.8L81.61,34C81.67,35.17,81.19,36.07,80.44,36.26Z"/><path class="cls-63" d="M80.43,36.23,14.15,53.07c-.76.19-1.61-.37-2.09-1.39L2.42,31.45c-.73-1.52-.32-3.34.81-3.63L78,8.84c1.14-.29,2.36,1.11,2.45,2.8L81.6,34A2,2,0,0,1,80.43,36.23Z"/><path class="cls-64" d="M80.42,36.21,14.14,53.05c-.76.19-1.61-.38-2.09-1.39L2.41,31.43c-.73-1.53-.32-3.34.81-3.63L78,8.81c1.14-.29,2.36,1.11,2.45,2.8L81.59,34C81.65,35.12,81.17,36,80.42,36.21Z"/><path class="cls-65" d="M80.41,36.19,14.13,53c-.75.19-1.61-.37-2.09-1.39L2.4,31.4c-.73-1.52-.32-3.34.81-3.63L78,8.79c1.14-.29,2.36,1.11,2.45,2.8L81.58,34A2,2,0,0,1,80.41,36.19Z"/><path class="cls-66" d="M80.4,36.16,14.12,53c-.75.19-1.6-.38-2.09-1.39L2.39,31.38c-.73-1.53-.32-3.34.81-3.63l74.74-19c1.14-.29,2.36,1.11,2.45,2.8l1.18,22.38C81.63,35.07,81.15,36,80.4,36.16Z"/><path class="cls-67" d="M80.39,36.14,14.11,53c-.75.19-1.6-.37-2.09-1.39L2.38,31.35c-.73-1.52-.32-3.34.81-3.63l74.74-19c1.14-.29,2.36,1.11,2.45,2.8l1.18,22.38A2,2,0,0,1,80.39,36.14Z"/><path class="cls-68" d="M80.38,36.11,14.1,53c-.75.19-1.6-.38-2.09-1.39L2.37,31.33c-.73-1.53-.32-3.34.81-3.63l74.74-19c1.14-.29,2.36,1.11,2.45,2.8l1.18,22.38C81.61,35,81.13,35.92,80.38,36.11Z"/><path class="cls-69" d="M80.37,36.09,14.09,52.92c-.75.2-1.6-.37-2.09-1.38L2.36,31.3C1.63,29.78,2,28,3.17,27.68l74.74-19c1.14-.29,2.36,1.11,2.45,2.8l1.18,22.38A2,2,0,0,1,80.37,36.09Z"/><path class="cls-70" d="M80.36,36.06,14.08,52.9c-.75.19-1.6-.38-2.09-1.39L2.35,31.28c-.73-1.53-.32-3.34.81-3.63l74.75-19c1.13-.28,2.35,1.12,2.44,2.8l1.18,22.38C81.59,35,81.12,35.87,80.36,36.06Z"/><path class="cls-71" d="M80.35,36,14.07,52.87c-.75.2-1.6-.37-2.09-1.38L2.34,31.25c-.73-1.52-.32-3.34.81-3.62l74.75-19c1.13-.29,2.35,1.11,2.44,2.8l1.18,22.38A2,2,0,0,1,80.35,36Z"/><path class="cls-72" d="M80.34,36,14.06,52.85c-.75.19-1.6-.37-2.09-1.39L2.33,31.23C1.6,29.7,2,27.89,3.15,27.6l74.74-19c1.13-.28,2.35,1.12,2.44,2.8l1.19,22.38C81.57,34.92,81.1,35.82,80.34,36Z"/><path class="cls-73" d="M80.33,36,14.05,52.82c-.75.2-1.6-.37-2.08-1.38L2.32,31.2c-.73-1.52-.32-3.34.82-3.62l74.74-19c1.13-.29,2.35,1.11,2.44,2.8l1.19,22.38A2,2,0,0,1,80.33,36Z"/><path class="cls-74" d="M80.32,36,14,52.8c-.75.19-1.6-.37-2.08-1.39L2.31,31.18c-.72-1.53-.32-3.34.82-3.63l74.74-19c1.13-.28,2.35,1.12,2.44,2.8L81.5,33.75A2,2,0,0,1,80.32,36Z"/><path class="cls-75" d="M80.32,36,14,52.8c-.75.19-1.6-.37-2.08-1.39L2.31,31.18c-.72-1.53-.32-3.34.82-3.63l74.74-19c1.13-.28,2.35,1.12,2.44,2.8L81.5,33.75A2,2,0,0,1,80.32,36Z"/><path class="cls-76" d="M92,43.34,6,65.18l-2.52-5a2,2,0,0,1-.41-1.29,1.9,1.9,0,0,1,.57-1.28l86.9-22.07a2,2,0,0,1,.93.58,2.45,2.45,0,0,1,.44,1.6Z"/><path class="cls-77" d="M90.73,61.33l-74.87,19a2.06,2.06,0,0,1-2.07-.59L3.05,58.33a1.87,1.87,0,0,1,.92-3L89.25,33.69a1.87,1.87,0,0,1,2.23,2.18l.79,24A2.09,2.09,0,0,1,90.73,61.33Z"/><path class="cls-78" d="M90.73,61.33l-74.87,19a2.06,2.06,0,0,1-2.07-.59L3.05,58.33a1.87,1.87,0,0,1,.92-3L89.25,33.69a1.87,1.87,0,0,1,2.23,2.18l.79,24A2.09,2.09,0,0,1,90.73,61.33Z"/><path class="cls-79" d="M90.73,61.33l-74.87,19a2.06,2.06,0,0,1-2.07-.59L3.05,58.33a1.87,1.87,0,0,1,.92-3L89.25,33.69a1.87,1.87,0,0,1,2.23,2.18l.79,24A2.09,2.09,0,0,1,90.73,61.33Z"/><path class="cls-80" d="M90.73,61.33l-74.87,19a2.05,2.05,0,0,1-2.07-.59L3.05,58.33a1.87,1.87,0,0,1,.91-3L89.25,33.69a1.87,1.87,0,0,1,2.23,2.18l.79,24A2.09,2.09,0,0,1,90.73,61.33Z"/><path class="cls-81" d="M90.73,61.33l-74.87,19a2.07,2.07,0,0,1-2.08-.59L3.05,58.34a1.88,1.88,0,0,1,.91-3L89.25,33.69a1.87,1.87,0,0,1,2.23,2.18l.79,24A2.09,2.09,0,0,1,90.73,61.33Z"/><path class="cls-82" d="M90.73,61.33l-74.87,19a2.07,2.07,0,0,1-2.08-.59L3.05,58.34a1.88,1.88,0,0,1,.91-3L89.25,33.69a1.86,1.86,0,0,1,2.22,2.18l.8,24A2.09,2.09,0,0,1,90.73,61.33Z"/><path class="cls-83" d="M90.73,61.33l-74.87,19a2.07,2.07,0,0,1-2.08-.59L3.05,58.34a1.88,1.88,0,0,1,.91-3L89.25,33.69a1.86,1.86,0,0,1,2.22,2.18l.8,24A2.08,2.08,0,0,1,90.73,61.33Z"/><path class="cls-84" d="M90.73,61.33l-74.87,19a2.07,2.07,0,0,1-2.08-.59L3.05,58.34a1.88,1.88,0,0,1,.91-3L89.25,33.69a1.86,1.86,0,0,1,2.22,2.18l.79,24A2,2,0,0,1,90.73,61.33Z"/><path class="cls-85" d="M90.72,61.33l-74.86,19a2.07,2.07,0,0,1-2.08-.59L3.05,58.34a1.87,1.87,0,0,1,.91-3L89.24,33.69a1.87,1.87,0,0,1,2.23,2.18l.79,24A2,2,0,0,1,90.72,61.33Z"/><path class="cls-86" d="M90.72,61.33l-74.86,19a2.07,2.07,0,0,1-2.08-.59L3.05,58.34a1.87,1.87,0,0,1,.91-3L89.24,33.69a1.87,1.87,0,0,1,2.23,2.18l.79,24A2,2,0,0,1,90.72,61.33Z"/><path class="cls-87" d="M90.72,61.33l-74.87,19a2.06,2.06,0,0,1-2.07-.59L3.05,58.34a1.87,1.87,0,0,1,.91-3L89.24,33.69a1.87,1.87,0,0,1,2.23,2.18l.79,24A2,2,0,0,1,90.72,61.33Z"/><path class="cls-88" d="M90.72,61.33l-74.87,19a2.06,2.06,0,0,1-2.07-.59L3.05,58.34a1.87,1.87,0,0,1,.91-3L89.24,33.69a1.87,1.87,0,0,1,2.23,2.18l.79,24A2,2,0,0,1,90.72,61.33Z"/><path class="cls-89" d="M90.72,61.33l-74.87,19a2.06,2.06,0,0,1-2.07-.59L3,58.34a1.88,1.88,0,0,1,.92-3L89.24,33.69a1.87,1.87,0,0,1,2.23,2.18l.79,24A2,2,0,0,1,90.72,61.33Z"/><path class="cls-90" d="M90.72,61.33l-74.87,19a2.06,2.06,0,0,1-2.07-.59L3,58.34a1.88,1.88,0,0,1,.92-3L89.24,33.69a1.87,1.87,0,0,1,2.23,2.18l.79,24A2,2,0,0,1,90.72,61.33Z"/><path class="cls-91" d="M90.72,61.33l-74.87,19a2.06,2.06,0,0,1-2.07-.59L3,58.34a1.88,1.88,0,0,1,.92-3L89.24,33.69a1.87,1.87,0,0,1,2.23,2.18l.79,24A2,2,0,0,1,90.72,61.33Z"/><path class="cls-92" d="M90.72,61.33l-74.87,19a2.06,2.06,0,0,1-2.07-.59L3,58.34a1.88,1.88,0,0,1,.92-3L89.24,33.69a1.87,1.87,0,0,1,2.23,2.18l.79,24A2,2,0,0,1,90.72,61.33Z"/><path class="cls-93" d="M90.72,61.33l-74.87,19a2.06,2.06,0,0,1-2.07-.59L3,58.34a1.88,1.88,0,0,1,.92-3L89.24,33.69a1.87,1.87,0,0,1,2.23,2.18l.79,24A2,2,0,0,1,90.72,61.33Z"/><path class="cls-94" d="M90.72,61.33l-74.87,19a2.06,2.06,0,0,1-2.07-.59L3,58.34a1.88,1.88,0,0,1,.92-3L89.24,33.69a1.87,1.87,0,0,1,2.23,2.18l.79,24A2,2,0,0,1,90.72,61.33Z"/><path class="cls-95" d="M90.72,61.33l-74.87,19a2.06,2.06,0,0,1-2.07-.59L3,58.34a1.88,1.88,0,0,1,.92-3L89.24,33.69a1.87,1.87,0,0,1,2.23,2.18l.79,24A2.08,2.08,0,0,1,90.72,61.33Z"/><path class="cls-96" d="M90.72,61.33l-74.87,19a2.06,2.06,0,0,1-2.07-.59L3,58.34a1.88,1.88,0,0,1,.92-3L89.24,33.69a1.87,1.87,0,0,1,2.23,2.18l.79,24A2.08,2.08,0,0,1,90.72,61.33Z"/><path class="cls-97" d="M90.72,61.33l-74.87,19a2.06,2.06,0,0,1-2.07-.59L3,58.34a1.88,1.88,0,0,1,.92-3L89.24,33.69a1.87,1.87,0,0,1,2.23,2.18l.79,24A2.08,2.08,0,0,1,90.72,61.33Z"/><path class="cls-98" d="M90.72,61.33l-74.87,19a2.06,2.06,0,0,1-2.07-.59L3,58.34a1.88,1.88,0,0,1,.92-3L89.24,33.69a1.87,1.87,0,0,1,2.23,2.18l.79,24A2.08,2.08,0,0,1,90.72,61.33Z"/><path class="cls-99" d="M90.72,61.33l-74.87,19a2.07,2.07,0,0,1-2.08-.59L3,58.34a1.88,1.88,0,0,1,.91-3L89.24,33.69a1.88,1.88,0,0,1,2.23,2.18l.79,24A2.08,2.08,0,0,1,90.72,61.33Z"/><path class="cls-100" d="M90.72,61.33l-74.87,19a2.07,2.07,0,0,1-2.08-.59L3,58.34a1.88,1.88,0,0,1,.91-3L89.24,33.69a1.88,1.88,0,0,1,2.23,2.18l.79,24A2.08,2.08,0,0,1,90.72,61.33Z"/><path class="cls-101" d="M90.72,61.33l-74.87,19a2.07,2.07,0,0,1-2.08-.59L3,58.34a1.88,1.88,0,0,1,.91-3L89.24,33.69a1.87,1.87,0,0,1,2.22,2.18l.8,24A2.08,2.08,0,0,1,90.72,61.33Z"/><path class="cls-102" d="M90.72,61.33l-74.87,19a2.07,2.07,0,0,1-2.08-.59L3,58.34a1.88,1.88,0,0,1,.91-3L89.24,33.69a1.87,1.87,0,0,1,2.22,2.18l.8,24A2.08,2.08,0,0,1,90.72,61.33Z"/><path class="cls-103" d="M90.72,61.33l-74.87,19a2.07,2.07,0,0,1-2.08-.59L3,58.34a1.88,1.88,0,0,1,.91-3L89.23,33.69a1.87,1.87,0,0,1,2.23,2.18l.79,24A2,2,0,0,1,90.72,61.33Z"/><path class="cls-104" d="M90.71,61.33l-74.86,19a2.07,2.07,0,0,1-2.08-.59L3,58.34a1.88,1.88,0,0,1,.91-3L89.23,33.69a1.87,1.87,0,0,1,2.23,2.18l.79,24A2,2,0,0,1,90.71,61.33Z"/><path class="cls-105" d="M90.71,61.33l-74.86,19a2.07,2.07,0,0,1-2.08-.59L3,58.34a1.88,1.88,0,0,1,.91-3L89.23,33.69a1.87,1.87,0,0,1,2.23,2.18l.79,24A2,2,0,0,1,90.71,61.33Z"/><path class="cls-106" d="M90.71,61.33l-74.87,19a2.06,2.06,0,0,1-2.07-.59L3,58.34a1.87,1.87,0,0,1,.91-3L89.23,33.69a1.87,1.87,0,0,1,2.23,2.18l.79,24A2,2,0,0,1,90.71,61.33Z"/><path class="cls-107" d="M90.71,61.33l-74.87,19a2.06,2.06,0,0,1-2.07-.59L3,58.34a1.88,1.88,0,0,1,.92-3L89.23,33.69a1.87,1.87,0,0,1,2.23,2.18l.79,24A2,2,0,0,1,90.71,61.33Z"/><path class="cls-108" d="M90.71,61.33l-74.87,19a2.06,2.06,0,0,1-2.07-.59L3,58.34a1.88,1.88,0,0,1,.92-3L89.23,33.69a1.87,1.87,0,0,1,2.23,2.18l.79,24A2,2,0,0,1,90.71,61.33Z"/><path class="cls-109" d="M90.71,61.33l-74.87,19a2.06,2.06,0,0,1-2.07-.59L3,58.34a1.88,1.88,0,0,1,.92-3L89.23,33.69a1.87,1.87,0,0,1,2.23,2.18l.79,24A2,2,0,0,1,90.71,61.33Z"/><path class="cls-110" d="M90.71,61.33l-74.87,19a2.06,2.06,0,0,1-2.07-.59L3,58.34a1.88,1.88,0,0,1,.92-3L89.23,33.69a1.87,1.87,0,0,1,2.23,2.18l.79,24A2,2,0,0,1,90.71,61.33Z"/><path class="cls-111" d="M90.71,61.33l-74.87,19a2.06,2.06,0,0,1-2.07-.59L3,58.34a1.88,1.88,0,0,1,.92-3L89.23,33.69a1.87,1.87,0,0,1,2.23,2.18l.79,24A2,2,0,0,1,90.71,61.33Z"/><path class="cls-112" d="M90.71,61.34l-74.87,19a2.06,2.06,0,0,1-2.07-.59L3,58.34a1.88,1.88,0,0,1,.92-3L89.23,33.69a1.87,1.87,0,0,1,2.23,2.18l.79,24A2.07,2.07,0,0,1,90.71,61.34Z"/><path class="cls-113" d="M90.71,61.34l-74.87,19a2.06,2.06,0,0,1-2.07-.59L3,58.34a1.88,1.88,0,0,1,.92-3L89.23,33.69a1.87,1.87,0,0,1,2.23,2.18l.79,24A2.09,2.09,0,0,1,90.71,61.34Z"/><path class="cls-114" d="M90.71,61.34l-74.87,19a2.06,2.06,0,0,1-2.07-.59L3,58.34a1.88,1.88,0,0,1,.92-3L89.23,33.69a1.87,1.87,0,0,1,2.23,2.18l.79,24A2.11,2.11,0,0,1,90.71,61.34Z"/><path class="cls-115" d="M90.71,61.34l-74.87,19a2.08,2.08,0,0,1-2.07-.6L3,58.34a1.88,1.88,0,0,1,.92-3L89.23,33.69a1.87,1.87,0,0,1,2.23,2.18l.79,24A2.11,2.11,0,0,1,90.71,61.34Z"/><path class="cls-116" d="M90.71,61.34l-74.87,19a2.08,2.08,0,0,1-2.07-.6L3,58.34a1.88,1.88,0,0,1,.92-3L89.23,33.69a1.87,1.87,0,0,1,2.23,2.18l.79,24A2.11,2.11,0,0,1,90.71,61.34Z"/><path class="cls-117" d="M90.71,61.34l-74.87,19a2.08,2.08,0,0,1-2.07-.6L3,58.34a1.88,1.88,0,0,1,.91-3L89.23,33.69a1.88,1.88,0,0,1,2.23,2.19l.79,23.95A2.11,2.11,0,0,1,90.71,61.34Z"/><path class="cls-118" d="M90.71,61.34l-74.87,19a2.1,2.1,0,0,1-2.08-.6L3,58.34a1.87,1.87,0,0,1,.91-3L89.23,33.69a1.88,1.88,0,0,1,2.23,2.19l.79,23.95A2.11,2.11,0,0,1,90.71,61.34Z"/><path class="cls-119" d="M90.71,61.34l-74.87,19a2.1,2.1,0,0,1-2.08-.6L3,58.34a1.87,1.87,0,0,1,.91-3L89.23,33.69a1.87,1.87,0,0,1,2.22,2.19l.8,23.95A2.11,2.11,0,0,1,90.71,61.34Z"/><path class="cls-120" d="M90.71,61.34l-74.87,19a2.1,2.1,0,0,1-2.08-.6L3,58.34a1.87,1.87,0,0,1,.91-3L89.23,33.69a1.87,1.87,0,0,1,2.22,2.19l.8,23.95A2.11,2.11,0,0,1,90.71,61.34Z"/><path class="cls-121" d="M90.71,61.34l-74.87,19a2.1,2.1,0,0,1-2.08-.6L3,58.34a1.87,1.87,0,0,1,.91-3L89.23,33.69a1.87,1.87,0,0,1,2.22,2.19l.79,23.95A2.08,2.08,0,0,1,90.71,61.34Z"/><path class="cls-122" d="M90.7,61.34l-74.86,19a2.1,2.1,0,0,1-2.08-.6L3,58.34a1.87,1.87,0,0,1,.91-3L89.22,33.69a1.87,1.87,0,0,1,2.23,2.19l.79,23.95A2.08,2.08,0,0,1,90.7,61.34Z"/><path class="cls-123" d="M90.7,61.34l-74.86,19a2.1,2.1,0,0,1-2.08-.6L3,58.34a1.87,1.87,0,0,1,.91-3L89.22,33.69a1.87,1.87,0,0,1,2.23,2.19l.79,23.95A2.08,2.08,0,0,1,90.7,61.34Z"/><path class="cls-124" d="M90.7,61.34l-74.87,19a2.09,2.09,0,0,1-2.07-.6L3,58.34a1.86,1.86,0,0,1,.91-3L89.22,33.69a1.87,1.87,0,0,1,2.23,2.19l.79,23.95A2.08,2.08,0,0,1,90.7,61.34Z"/><path class="cls-125" d="M90.7,61.34l-74.87,19a2.09,2.09,0,0,1-2.07-.6L3,58.34a1.86,1.86,0,0,1,.91-3L89.22,33.69a1.88,1.88,0,0,1,2.23,2.19l.79,23.95A2.08,2.08,0,0,1,90.7,61.34Z"/><path class="cls-126" d="M90.7,61.34l-74.87,19a2.09,2.09,0,0,1-2.07-.6L3,58.34a1.87,1.87,0,0,1,.92-3L89.22,33.69a1.88,1.88,0,0,1,2.23,2.19l.79,23.95A2.08,2.08,0,0,1,90.7,61.34Z"/><path class="cls-127" d="M51.67,94,23.78,79.58a1.53,1.53,0,0,1,.33-2.84L82,62a1.53,1.53,0,0,1,1.64,2.34L66,90.38A11.14,11.14,0,0,1,51.67,94Z"/><path class="cls-128" d="M51.71,94.15,23.82,79.71a1.53,1.53,0,0,1,.32-2.84L82,62.17a1.53,1.53,0,0,1,1.64,2.34l-17.62,26A11.15,11.15,0,0,1,51.71,94.15Z"/><path class="cls-129" d="M51.75,94.27,23.85,79.83A1.53,1.53,0,0,1,24.18,77l57.89-14.7a1.53,1.53,0,0,1,1.64,2.34l-17.63,26A11.13,11.13,0,0,1,51.75,94.27Z"/><path class="cls-130" d="M51.79,94.39,23.89,80a1.53,1.53,0,0,1,.33-2.84L82.1,62.41a1.53,1.53,0,0,1,1.65,2.34l-17.63,26A11.12,11.12,0,0,1,51.79,94.39Z"/><path class="cls-131" d="M51.83,94.52,23.93,80.08a1.53,1.53,0,0,1,.33-2.84l57.88-14.7a1.53,1.53,0,0,1,1.64,2.34l-17.62,26A11.13,11.13,0,0,1,51.83,94.52Z"/><path class="cls-132" d="M51.86,94.64,24,80.2a1.53,1.53,0,0,1,.32-2.84l57.89-14.7A1.53,1.53,0,0,1,83.82,65L66.2,91A11.15,11.15,0,0,1,51.86,94.64Z"/><path class="cls-133" d="M51.9,94.76,24,80.32a1.53,1.53,0,0,1,.32-2.84l57.89-14.7a1.53,1.53,0,0,1,1.64,2.34l-17.63,26A11.12,11.12,0,0,1,51.9,94.76Z"/><path class="cls-134" d="M51.94,94.89,24,80.45a1.53,1.53,0,0,1,.33-2.84l57.88-14.7a1.53,1.53,0,0,1,1.65,2.34l-17.63,26A11.13,11.13,0,0,1,51.94,94.89Z"/><path class="cls-135" d="M52,95,24.08,80.57a1.53,1.53,0,0,1,.33-2.84L82.29,63a1.53,1.53,0,0,1,1.64,2.34l-17.62,26A11.13,11.13,0,0,1,52,95Z"/><path class="cls-136" d="M52,95.13,24.12,80.69a1.53,1.53,0,0,1,.33-2.84l57.88-14.7A1.53,1.53,0,0,1,84,65.49l-17.62,26A11.14,11.14,0,0,1,52,95.13Z"/><path class="cls-137" d="M52.05,95.26,24.16,80.82A1.53,1.53,0,0,1,24.48,78l57.89-14.7A1.53,1.53,0,0,1,84,65.62l-17.62,26A11.15,11.15,0,0,1,52.05,95.26Z"/><path class="cls-138" d="M52.09,95.38,24.2,80.94a1.53,1.53,0,0,1,.32-2.84L82.41,63.4a1.53,1.53,0,0,1,1.64,2.34l-17.63,26A11.13,11.13,0,0,1,52.09,95.38Z"/><path class="cls-75" d="M52.09,95.38,24.2,80.94a1.53,1.53,0,0,1,.32-2.84L82.41,63.4a1.53,1.53,0,0,1,1.64,2.34l-17.63,26A11.13,11.13,0,0,1,52.09,95.38Z"/><path class="cls-75" d="M90.7,61.34l-74.87,19a2.08,2.08,0,0,1-2.09-.67l-11.13-23a2,2,0,0,1,.87-3.17L88.76,31.89A2,2,0,0,1,91,34.25l1.18,25.5A2.06,2.06,0,0,1,90.7,61.34Z"/><path class="cls-139" d="M107.59,71.12l-8.56-2c-2.44-.56-4.87-1.16-7.32-1.68A20.29,20.29,0,0,0,85,67c-.84.09-3.49.22-3.93,1.19s2.1,1,2.78,1.23c1.32.39,1.21,1.09,2,2.09,1.48-.35,2.81.88,4,1.48,1.58.78,3.22,1.46,4.85,2.12,2.38,1,4.83,1.75,7.18,2.77a40.33,40.33,0,0,0,4.29,1.71,7,7,0,0,0,1.9.57C109,79.77,107.71,72.51,107.59,71.12Z"/><path class="cls-140" d="M89.75,71.79c.14-1.54.36-3.06.65-4.58A18.56,18.56,0,0,0,85,67c-.84.09-3.49.22-3.93,1.19s2.1,1,2.78,1.23c1.32.39,1.21,1.09,2,2.09,1.37-.33,2.6.7,3.76,1.33C89.69,72.47,89.72,72.13,89.75,71.79Z"/><path class="cls-140" d="M100.16,69.41,99,69.15l-1.43-.33c-.11.37-.22.75-.32,1.13,0,.14-.18.7-.22.85s-.07.27-.1.41q-.52,2.16-.93,4.35l2.64,1A64.52,64.52,0,0,1,100.16,69.41Z"/><g class="cls-141"><path class="cls-142" d="M104.69,73h0S104.68,73,104.69,73Z"/><path class="cls-142" d="M105.87,78c-.83-.29-1.64-.63-2.46-1-1.3-.53-2.62-1-3.92-1.55-2.53-1-5.06-2-7.56-3.13a19,19,0,0,1-2.15-1C88.39,70.5,87,69.82,85.57,69a13.32,13.32,0,0,1,2.61-.16,18.72,18.72,0,0,1,4.66.59c1.5.35,3,.7,4.48,1.09,2.39.62,7.15,2.29,7.36,2.4,6,1.82,2.93-1.31,3.23-1.71-.49-.27-2.72-.41-3.14-.77,0,0-.28-.11-.29-.08l-4.39-1L99,69.13l-1.43-.34c-2-.46-3.92-.93-5.89-1.35q-1-.21-2-.36h0L89,67H89c-.41,0-.82-.09-1.23-.11h-.1l-.6,0H86.3l-.59,0h-.13l-.61.05c-.84.1-3.5.22-3.93,1.2s2.1,1,2.77,1.23c1.33.38,1.22,1.08,2,2.08l.24,0h0l.22,0h.29l.21,0h0l.21,0h0l.22.07h0l.2.08h0l.2.09,0,0,.19.1,0,0,.18.1.06,0,.17.1.08,0,.11.06c.42.25.83.51,1.23.71,1.58.77,3.21,1.45,4.85,2.11l1.23.49h0l2.64,1v0c1.11.42,2.21.84,3.3,1.31l.07,0a40.28,40.28,0,0,0,4.22,1.68c.21.06.81.31,1.28.47a7.63,7.63,0,0,1,1.16-.21c-.12-.36-.23-.72-.34-1.07A12.53,12.53,0,0,0,105.87,78Z"/></g><path class="cls-143" d="M138.59,96.89l7.76-4.78A165.49,165.49,0,0,0,140.13,76c-1.92-4.3-3.92-8.27-5.9-11.9L120.35,70Z"/><path class="cls-144" d="M123.6,63l-14.8,4a31.6,31.6,0,0,0-2.34,11.81c0,11.42,6.33,19.37,8.47,21.84l22.91-10.49Q130.72,76.62,123.6,63Z"/><path class="cls-145" d="M114.69,74c-4.63,1.48-6.27,8-5,12.64,1.25,4.45,5.69,8.91,10.12,8.11,4.87-.88,7.78-7.76,6.23-13.08C124.66,76.88,119.33,72.56,114.69,74Z"/><path class="cls-143" d="M120.83,79.63a2.2,2.2,0,1,0,2.34,2.19A2.32,2.32,0,0,0,120.83,79.63Z"/><path class="cls-140" d="M120.61,80.44a1.57,1.57,0,0,0-1.58,1.3,1.59,1.59,0,0,0,1.56,1.67,1.57,1.57,0,0,0,1.62-1.48A1.59,1.59,0,0,0,120.61,80.44Z"/><path class="cls-143" d="M110.08,81.18a2.19,2.19,0,1,0,2.34,2.19A2.32,2.32,0,0,0,110.08,81.18Z"/><path class="cls-140" d="M109.86,82a1.57,1.57,0,0,0-1.58,1.31A1.6,1.6,0,0,0,109.84,85a1.58,1.58,0,0,0,1.62-1.49A1.6,1.6,0,0,0,109.86,82Z"/><path class="cls-146" d="M110,83.38,107,84.77q.3,1.53.72,2.94A4.8,4.8,0,0,0,110,83.38Z"/><path class="cls-147" d="M109.69,82.39a1,1,0,1,0,1.09,1A1.09,1.09,0,0,0,109.69,82.39Z"/><path class="cls-143" d="M111.91,86.6a2.19,2.19,0,1,0,2.35,2.19A2.32,2.32,0,0,0,111.91,86.6Z"/><path class="cls-140" d="M111.81,87.26a1.58,1.58,0,0,0-1.59,1.31,1.6,1.6,0,0,0,1.57,1.67,1.58,1.58,0,0,0,1.61-1.49A1.6,1.6,0,0,0,111.81,87.26Z"/><path class="cls-148" d="M113.41,100l1.71,3.45,11.93,2.49L140,93l-2.38-4.49Z"/><path class="cls-149" d="M130.05,95.66c-.59-1.16-4.94-.16-7.79,1.1-2.2,1-5.64,3-5.28,4.24s3.92,1.35,6.79.43C127.53,100.22,130.64,96.81,130.05,95.66Z"/><path class="cls-146" d="M136.12,91.44a8.25,8.25,0,0,0,1.49-2.87l-.49.23c-.42-.78-.83-1.57-1.25-2.36-.58,1.3-1.16,2.59-1.75,3.89l-3.43,2.35a8.79,8.79,0,0,0-4.8-4.56,8.41,8.41,0,0,0-4.38-.36,2.66,2.66,0,0,0,.42,1.42,3.57,3.57,0,0,0,3.9,1.08,6,6,0,0,0,4.58,4.18C133.38,94.86,135.47,92.26,136.12,91.44Z"/><path class="cls-146" d="M136.6,87.82q-3.45-6.58-6.91-13.17a7.81,7.81,0,0,0-1.32,4.48C128.51,82.89,131.79,86.43,136.6,87.82Z"/><path class="cls-146" d="M120.41,83a10.12,10.12,0,0,1,11,1.6l2-4.72-1.12-2.23,3.08.67a7.15,7.15,0,0,1-.36,5.34A5.9,5.9,0,0,1,131,87a5.79,5.79,0,0,1-5.76-2.83,5.45,5.45,0,0,1-3.3-.2A5.18,5.18,0,0,1,120.41,83Z"/><path class="cls-143" d="M121.7,84.86a2.31,2.31,0,0,0-2.33,1.92,2.36,2.36,0,1,0,2.33-1.92Z"/><path class="cls-140" d="M121.48,85.67a1.49,1.49,0,1,0,0,3,1.57,1.57,0,0,0,1.62-1.48A1.59,1.59,0,0,0,121.48,85.67Z"/><path class="cls-147" d="M121.53,86.49a8.36,8.36,0,0,1,4.4.05A8.76,8.76,0,0,1,131,90.75l3.25-2.59,1.88-5.1-2.59-5,1.92-1a11.08,11.08,0,0,1,2.38,7.11,9,9,0,0,1-1.51,4.92c-.6.85-2.5,3.6-5.49,3.39A6,6,0,0,1,126,88.67l-4.08-.62C121.8,87.53,121.67,87,121.53,86.49Z"/><path class="cls-146" d="M135.5,77.1l-1.92,1q1.08,2.07,2.15,4.16c.52-.64,1-1.31,1.51-2A11.58,11.58,0,0,0,135.5,77.1Z"/><path class="cls-146" d="M136.37,89.13c.11-.16.2-.32.3-.48l-3,0L131,90.75a9.13,9.13,0,0,0-1.5-2l-3.48,0a7.14,7.14,0,0,0,1.38,2.07l7.46,0A11.55,11.55,0,0,0,136.37,89.13Z"/><path class="cls-147" d="M120.94,86.21a1.07,1.07,0,0,0-.62,1,1.14,1.14,0,0,0,1.38,1,1.1,1.1,0,0,0,.76-1.21A1.14,1.14,0,0,0,120.94,86.21Z"/><path class="cls-150" d="M133.21,54.62c1.82-11-4.79-18.73-5.68-19.74a19.91,19.91,0,0,0-5.63-2.62c-12.36-3.48-26.57,6.34-27,19-.36,11.16,10.07,21.23,21.69,21a20.67,20.67,0,0,0,4.36-.56C122.08,71.14,131.34,65.92,133.21,54.62Z"/><path class="cls-151" d="M131,56.5c-1.66,6.26-6.82,11.87-13.47,13-10.19,1.71-20.8-7.63-20.67-17.89.08-6.41,4.35-12.18,9.88-15,5.34-2.68,12.7-3,18.38,1.32C131.14,42.54,132.66,50.32,131,56.5Z"/><path class="cls-150" d="M129.65,60.7a7.65,7.65,0,0,1-2.08-7.78,7.78,7.78,0,0,1,4.86-4.87l.64-.22.55.4A7.06,7.06,0,0,1,130.81,61l-.67.12Z"/><path class="cls-152" d="M127.53,34.88c.75.87,8.18,9.69,5.39,21.38A24.69,24.69,0,0,1,121,71.74c7.53-1.81,14.2-7.77,15.74-16.06S134,39.21,127.53,34.88Z"/><path class="cls-147" d="M133.13,49.35a6.56,6.56,0,0,0-4,4,6.3,6.3,0,0,0,1.73,6.41,5.73,5.73,0,0,0,2.28-10.42Z"/><path class="cls-153" d="M132.79,51.36a4,4,0,0,0-2.47,2.46,3.9,3.9,0,0,0,1.07,4,3.53,3.53,0,0,0,1.4-6.41Z"/><path class="cls-147" d="M132.35,52.49a2.71,2.71,0,0,0-1.67,1.66,2.64,2.64,0,0,0,.72,2.67,2.38,2.38,0,0,0,.95-4.33Z"/><path class="cls-154" d="M102.25,53c1.9-.61,3.82,1.16,5.29,2.12,2.47,1.62,5.42,2,8.28,2.39,1.74.22,7.55.23,7,2.94a5.6,5.6,0,0,1-3.19,3.71,13.09,13.09,0,0,1-4.92,1.07c-5.76.38-11.81-3.31-13.66-9C100.61,55,100.94,53.37,102.25,53Z"/><path class="cls-155" d="M113.64,42.87a24.83,24.83,0,0,1,8.2,4.08c3.11,2.55,3.18,6.6-1.52,7.52-3.45.68-7.3-.55-10.43-1.9-2.83-1.22-7.66-4-6.66-7.72C104.37,40.6,110.79,42,113.64,42.87Z"/><path class="cls-156" d="M114.66,31.3l18.15,8.55a14.82,14.82,0,0,0-7.7-8.14A14.66,14.66,0,0,0,114.66,31.3Z"/><path class="cls-140" d="M108,112.17l-4.87-1.45,4.12,7.23a47.86,47.86,0,0,0,5.65-2.11q-1.62-2.67-3.12-5.45C109.17,111,108.57,111.6,108,112.17Z"/><path class="cls-139" d="M116.12,102.84c-1,1.35-2.08,2.76-3.31,4.2-1,1.2-2,2.32-3,3.35q1.5,2.77,3.12,5.45A46.41,46.41,0,0,0,128,105Z"/><path class="cls-146" d="M106.17,116.07l1.07,1.88a47.86,47.86,0,0,0,5.65-2.11A46.41,46.41,0,0,0,128,105l-2.68-.48C120.29,110.08,113.35,113.74,106.17,116.07Z"/><path class="cls-157" d="M110.18,110.25l1.73.51A4.55,4.55,0,0,0,115.3,109a4.45,4.45,0,0,0,.77-3.33l-.62-1.37Z"/><path class="cls-143" d="M129.23,99.85,123,103.26a7.08,7.08,0,0,0,3,2.94,7.73,7.73,0,0,0,6.61-.08Z"/><path class="cls-158" d="M126.14,102.49a2,2,0,0,0-.65,1.93c.38,1.38,2.75,2.09,3.78,1.1a2.11,2.11,0,0,0,.23-2.49A2.34,2.34,0,0,0,126.14,102.49Z"/><path class="cls-139" d="M143.79,102.56l-1.72.71a31,31,0,0,0-3.71-10.85,12.65,12.65,0,0,0-8.55,8.85c.07.27,1.71,5.88,7.25,7.41a10.4,10.4,0,0,0,8.24-1.27A7.78,7.78,0,0,0,143.79,102.56Z"/><path class="cls-140" d="M149,100.4l-5.25,2.16a7.78,7.78,0,0,1,1.51,4.85,11,11,0,0,0,2.91-2.67l2.71,2C150.29,104.6,149.67,102.5,149,100.4Z"/><path class="cls-146" d="M136.48,108.5l.58.18a10.4,10.4,0,0,0,8.24-1.27,11,11,0,0,0,2.91-2.67l2.71,2-1.23-4.14C145.23,104.47,140.75,106.3,136.48,108.5Z"/><path class="cls-157" d="M133.72,107.89l1.11-1.73a5.3,5.3,0,0,1,7.11,1.23c.09.62.18,1.25.28,1.87Z"/><path class="cls-159" d="M133.72,107.89a5.62,5.62,0,0,0,3.13,2.6,6,6,0,0,0,5.37-1.23,5.68,5.68,0,0,0-3.5-2.71A5.81,5.81,0,0,0,133.72,107.89Z"/><path class="cls-160" d="M135.61,108.78a3,3,0,0,0,1.68,1.39,3.19,3.19,0,0,0,2.89-.66,3.07,3.07,0,0,0-1.88-1.46A3.11,3.11,0,0,0,135.61,108.78Z"/><path class="cls-159" d="M115.45,104.28a5.16,5.16,0,0,0-3.58,1.16,5.52,5.52,0,0,0-1.69,4.81,5.21,5.21,0,0,0,3.85-1.4A5.34,5.34,0,0,0,115.45,104.28Z"/><path class="cls-160" d="M113.75,105.25a2.86,2.86,0,0,0-1.93.63,3,3,0,0,0-.91,2.59,2.79,2.79,0,0,0,2.08-.75A2.89,2.89,0,0,0,113.75,105.25Z"/><path class="cls-157" d="M114.92,106.23a.9.9,0,0,0-.66.21,1,1,0,0,0-.32.89.91.91,0,0,0,.72-.26A1,1,0,0,0,114.92,106.23Z"/><path class="cls-157" d="M136,107.24a1,1,0,0,0,.56.41,1,1,0,0,0,.91-.26,1,1,0,0,0-.63-.43A1,1,0,0,0,136,107.24Z"/><path class="cls-157" d="M138.77,107.62a1,1,0,0,0,.56.42,1,1,0,0,0,.91-.27,1,1,0,0,0-.63-.43A1,1,0,0,0,138.77,107.62Z"/><path class="cls-157" d="M140.46,109a.75.75,0,0,0,.49.28,1.08,1.08,0,0,0,.79-.17.83.83,0,0,0-.55-.3A1,1,0,0,0,140.46,109Z"/><path class="cls-157" d="M134.18,108.08a.82.82,0,0,0,.49.29,1.1,1.1,0,0,0,.79-.18.76.76,0,0,0-.54-.29A1,1,0,0,0,134.18,108.08Z"/><path class="cls-157" d="M113.24,108.27a1,1,0,0,0-.66.22,1,1,0,0,0-.32.89,1,1,0,0,0,.72-.26A1,1,0,0,0,113.24,108.27Z"/><path class="cls-157" d="M111.16,108.93a.75.75,0,0,0-.51.19.83.83,0,0,0-.26.71.79.79,0,0,0,.55-.23A.81.81,0,0,0,111.16,108.93Z"/><path class="cls-157" d="M114.85,104.51a.75.75,0,0,0-.51.19.89.89,0,0,0-.27.71.8.8,0,0,0,.56-.23A.81.81,0,0,0,114.85,104.51Z"/><path class="cls-147" d="M108.72,74.9l11.67-.71c.11,1.27.21,2.54.32,3.81l-3.7.46L118.81,89l-4.13.68-1.83-11.35-4,.43C108.84,77.47,108.78,76.18,108.72,74.9Z"/><path class="cls-147" d="M120.06,80.88a1.06,1.06,0,0,0-.62,1,1.14,1.14,0,0,0,1.38,1,1.09,1.09,0,0,0,.76-1.2A1.14,1.14,0,0,0,120.06,80.88Z"/><path class="cls-147" d="M120,81.23a10.11,10.11,0,0,1,11,1.6c.68-1.57,1.35-3.15,2-4.72-.38-.74-.75-1.49-1.12-2.23l3.07.67a7.19,7.19,0,0,1-.35,5.34,6,6,0,0,1-4,3.36,5.81,5.81,0,0,1-5.76-2.83l-4.11.25Z"/><path class="cls-146" d="M132.3,79.63a8.89,8.89,0,0,1,3.12.77,7,7,0,0,1,2.31,1.66,11.54,11.54,0,0,0-2.23-5l-.4.2a4.79,4.79,0,0,0-.2-.75l-3.07-.67L133,78.11Z"/><path class="cls-139" d="M125.26,72l3.11,7.14a8.31,8.31,0,0,1,11.91,6.8l5.73.48c0-.52.45-8.2-5.87-12.89A14.76,14.76,0,0,0,125.26,72Z"/><path class="cls-140" d="M138.39,72.41q-1.54,3.28-3.11,6.57a9.19,9.19,0,0,1,1,.5A8.28,8.28,0,0,1,138,80.85l4.43-5.22a14.45,14.45,0,0,0-2.27-2.11A15.19,15.19,0,0,0,138.39,72.41Z"/><path class="cls-146" d="M138.89,77.18c-3.67-2.48-8-2.35-12.09-1.65l1.57,3.6a8.31,8.31,0,0,1,11.91,6.8l3.8.32C143.4,82.62,142,79.26,138.89,77.18Z"/><path class="cls-147" d="M109.81,83.12c-.82,2.39-2.51,4-4.19,3.92a2.68,2.68,0,0,1-2.35-1.29c-.57-1.24.56-2.62.73-2.83a4,4,0,0,1,2.58-1.37c.1.82.21,1.65.32,2.47Z"/><path class="cls-160" d="M124.8,103.18a.67.67,0,0,0-.65.5.69.69,0,0,0,.62.8.7.7,0,0,0,.72-.72A.68.68,0,0,0,124.8,103.18Z"/><path class="cls-160" d="M128.75,101.13a.68.68,0,0,0-.65.5.69.69,0,0,0,.61.8.65.65,0,1,0,0-1.3Z"/><path class="cls-161" d="M111.73,37.77c-2.3,0-5.13,1.31-5.2,3s2.58,3.23,4.81,3.4c2.53.2,5.55-1.29,5.61-3S114.19,37.82,111.73,37.77Z"/><path class="cls-140" d="M139.62,85.49c0,1.71.1,3.42.14,5.13a7.65,7.65,0,0,0,2.51.06,5.44,5.44,0,0,0,2.73-1c1.68-1.37,1.48-3.88,1.45-4.22Z"/><path class="cls-162" d="M109.31,76.53a1.47,1.47,0,0,0,1.41,1.37,1.54,1.54,0,0,0,1.45-1.85,1.47,1.47,0,0,0-2.86.48Z"/><path class="cls-163" d="M108.88,76.53a1.28,1.28,0,0,0,1.25,1.21,1.26,1.26,0,0,0,1.18-1.13A1.32,1.32,0,0,0,110,75.18,1.3,1.3,0,0,0,108.88,76.53Z"/><path class="cls-162" d="M112.8,76.38a1.25,1.25,0,0,0,2.49,0,1.36,1.36,0,0,0-1.42-1.49A1.32,1.32,0,0,0,112.8,76.38Z"/><path class="cls-162" d="M116,75.93a1.27,1.27,0,0,0,1.27,1.34A1.24,1.24,0,1,0,116,75.93Z"/><path class="cls-164" d="M115.65,76.35a.87.87,0,0,0,1.73-.16.88.88,0,1,0-1.73.16Z"/><path class="cls-165" d="M112.62,76.46a.9.9,0,0,0,1.77,0,1,1,0,0,0-.92-1.09A1,1,0,0,0,112.62,76.46Z"/><path class="cls-156" d="M114.18,82.22c.15,1.85,1.12,3.94,1.87,3.87s1.32-2.35,1-4.25c-.26-1.56-1.2-3.31-1.9-3.22S114.06,80.7,114.18,82.22Z"/><path class="cls-166" d="M139.55,73.87a1.29,1.29,0,0,0-.33,2.52,1.41,1.41,0,0,0,1.8-1A1.39,1.39,0,0,0,139.55,73.87Z"/><path class="cls-152" d="M142.36,77.25a6.53,6.53,0,0,0,.42,3.15,6.62,6.62,0,0,0,1.91,2.66,5.87,5.87,0,0,0-.39-3.37A6,6,0,0,0,142.36,77.25Z"/><path class="cls-152" d="M134.79,96.37a4.12,4.12,0,0,0-2.52,5.41,4.17,4.17,0,0,0,7.6-1.13C140.17,98.28,137.25,95.69,134.79,96.37Z"/><path class="cls-152" d="M119.51,104.33a2.24,2.24,0,0,0-2.27,1.21,2.29,2.29,0,0,0,1.2,2.95,2.54,2.54,0,0,0,3-2.47A2.2,2.2,0,0,0,119.51,104.33Z"/><path class="cls-167" d="M133.3,74.3c-.26.39-.39.59-.66,1l-1.06.48-1.38-.18-.66-.52c.08.2.16.38.27.64l.92.71c.46,0,.91.12,1.38.18l1.06-.48c.27-.39.4-.59.66-1,0-.48,0-.73,0-1.22l-.58-1.11-.15-.1.2.39C133.33,73.56,133.32,73.81,133.3,74.3Z"/><path class="cls-168" d="M130.69,74.19l-1.07.48-.28,0,.2.43.66.52,1.38.18,1.06-.48c.27-.39.4-.59.66-1,0-.49,0-.74,0-1.22l-.2-.39-.86-.6-.9-.1c0,.48,0,.73,0,1.21C131.09,73.6,131,73.8,130.69,74.19Z"/><path class="cls-140" d="M130,72.45c-.22.39-.33.58-.57,1,0,.47,0,.71-.06,1.18v0l.28,0,1.07-.48c.27-.39.4-.59.65-1,0-.48,0-.73,0-1.21l-.45,0Z"/><path class="cls-169" d="M132.64,75.59c-.72-.48-1.45-.94-2.19-1.39l-.16.39a3.53,3.53,0,0,0,1.41,0c.15,0,.26-.23.14-.35l-1.27-1.35-.25.34a12.41,12.41,0,0,0,2.64,1c.27.07.43-.34.16-.41a13.25,13.25,0,0,1-2.65-1c-.18-.1-.39.18-.25.33l1.28,1.35.14-.35a3.34,3.34,0,0,1-1.3,0,.22.22,0,0,0-.15.39c.74.45,1.47.91,2.19,1.39.23.16.49-.19.26-.35Z"/><path class="cls-169" d="M45.84,84.08a2.93,2.93,0,0,0,.07.48c0,.17.09.39.16.65a8.58,8.58,0,0,0,.36,1.15,1.48,1.48,0,0,0,.37.55.75.75,0,0,0,.39.19,1.4,1.4,0,0,0,.6-.07,1.92,1.92,0,0,0,.64-.26.82.82,0,0,0,.27-.41,1.69,1.69,0,0,0,0-.72,11.63,11.63,0,0,0-.31-1.34l-.15-.59c-.05-.16-.09-.29-.13-.39L48,83.06l-.14-.25a1,1,0,0,0-.35-.32,3.38,3.38,0,0,0-.58-.2c-.22-.06-.46-.12-.72-.17l-.79-.18c-.26-.06-.52-.12-.77-.2a5.45,5.45,0,0,1-.65-.22,2.23,2.23,0,0,1-.5-.31,2,2,0,0,1-.42-.53,5.48,5.48,0,0,1-.39-.91c-.13-.37-.27-.85-.43-1.44A6.27,6.27,0,0,1,42,76.55a2.07,2.07,0,0,1,.33-1.11,2.27,2.27,0,0,1,.74-.67,6,6,0,0,1,1.35-.5A5.23,5.23,0,0,1,46.06,74a2,2,0,0,1,1,.27,1.92,1.92,0,0,1,.67.74,6.69,6.69,0,0,1,.5,1.41c.11.4.18.72.23,1a4.34,4.34,0,0,1,.06.64l-1.73.46a2.24,2.24,0,0,0-.07-.46c0-.18-.09-.41-.17-.69a5.42,5.42,0,0,0-.35-1,1.16,1.16,0,0,0-.39-.47.76.76,0,0,0-.38-.11,2.84,2.84,0,0,0-.57.1,2.45,2.45,0,0,0-.52.2.73.73,0,0,0-.26.31A1.22,1.22,0,0,0,44,77a6.21,6.21,0,0,0,.23,1.08l.18.69c0,.18.09.33.13.44a1.55,1.55,0,0,0,.12.28l.15.23a1.44,1.44,0,0,0,.33.3,2.71,2.71,0,0,0,.57.21,8.74,8.74,0,0,0,1.15.25,9,9,0,0,1,1.27.27,4.75,4.75,0,0,1,.72.23,2.19,2.19,0,0,1,.5.35,3.47,3.47,0,0,1,.25.29,1.68,1.68,0,0,1,.22.41,7.2,7.2,0,0,1,.23.7c.09.28.19.65.31,1.11s.22.89.28,1.23a7.26,7.26,0,0,1,.11.9,3.32,3.32,0,0,1,0,.66c0,.19-.08.37-.13.54a1.82,1.82,0,0,1-.71.88,5.49,5.49,0,0,1-1.65.68,6,6,0,0,1-1.53.23,1.63,1.63,0,0,1-1-.42,3,3,0,0,1-.36-.35,2.17,2.17,0,0,1-.33-.47,6.64,6.64,0,0,1-.29-.67c-.09-.26-.19-.59-.3-1s-.15-.6-.19-.85a6.18,6.18,0,0,1-.08-.64Z"/><path class="cls-169" d="M52.65,87.25,48.92,73.32l3.63-1A3.69,3.69,0,0,1,54,72.21a1.83,1.83,0,0,1,1.05.53,3.79,3.79,0,0,1,.83,1.3,16.11,16.11,0,0,1,.73,2.2,17.1,17.1,0,0,1,.47,2.27,4.56,4.56,0,0,1,0,1.59,2,2,0,0,1-.65,1.05,3.39,3.39,0,0,1-1.32.63l-1.57.42,1.21,4.51Zm1.64-7a.76.76,0,0,0,.43-.28,1.11,1.11,0,0,0,.2-.59,4.25,4.25,0,0,0-.05-1,16,16,0,0,0-.35-1.59A14.58,14.58,0,0,0,54,75.25a3.43,3.43,0,0,0-.45-.85.91.91,0,0,0-.46-.33,1,1,0,0,0-.51,0l-1.23.33L53,80.58Z"/><path class="cls-169" d="M60.33,85.2,56.61,71.27l2.1-.56,3.72,13.93Z"/><path class="cls-169" d="M69.52,82.74l-2.25-3.12L65.68,77.4c-.44-.61-.79-1.1-1.06-1.49L64,75l-.4-.57L63.32,74l-.11,0c.12.39.24.79.35,1.22l.38,1.42,1.89,7-1.87.5L60.23,70.3l2.35-.63,1.59,2.4,1.1,1.68L66,74.84l.43.66.22.37a2.67,2.67,0,0,1,.12.24l.12,0c-.08-.23-.15-.47-.22-.72l-.26-1L65,69l1.89-.5,3.73,13.93Z"/><path class="cls-169" d="M22.93,39.75a2.6,2.6,0,0,0,0,.61c0,.23.1.5.17.83a9.57,9.57,0,0,0,.43,1.48,1.55,1.55,0,0,0,.51.68,1.3,1.3,0,0,0,.61.25,3.49,3.49,0,0,0,.95-.11,4,4,0,0,0,1-.36,1.42,1.42,0,0,0,.48-.54,1.83,1.83,0,0,0,.14-.93A14.59,14.59,0,0,0,27,40l-.18-.75a2.3,2.3,0,0,0-.15-.5c-.06-.12-.11-.24-.16-.33a3,3,0,0,0-.19-.32,1.23,1.23,0,0,0-.5-.4,7.51,7.51,0,0,0-.9-.24c-.33-.07-.7-.14-1.11-.2L22.57,37c-.41-.07-.81-.14-1.2-.23a7.86,7.86,0,0,1-1-.27,3.18,3.18,0,0,1-.76-.38,2.17,2.17,0,0,1-.59-.67,6.43,6.43,0,0,1-.5-1.15c-.16-.47-.33-1.09-.51-1.84a6.59,6.59,0,0,1-.23-2.29,2.62,2.62,0,0,1,.66-1.43,4,4,0,0,1,1.25-.89,11.69,11.69,0,0,1,2.2-.68,10.79,10.79,0,0,1,2.64-.37,3.72,3.72,0,0,1,1.51.32,2.27,2.27,0,0,1,1,.93,7.07,7.07,0,0,1,.62,1.8c.11.5.19.92.23,1.25a3.32,3.32,0,0,1,0,.83l-2.79.65a2.62,2.62,0,0,0,0-.6c0-.23-.1-.53-.19-.89a6.17,6.17,0,0,0-.42-1.3,1.38,1.38,0,0,0-.57-.6,1.14,1.14,0,0,0-.58-.12,4.08,4.08,0,0,0-.91.15,4.2,4.2,0,0,0-.86.27,1.1,1.1,0,0,0-.43.4,1.35,1.35,0,0,0-.2.76,6.81,6.81,0,0,0,.23,1.39l.2.88a4.75,4.75,0,0,0,.15.56,1.54,1.54,0,0,0,.16.36c.06.09.13.19.21.29a1.82,1.82,0,0,0,.48.37,4.2,4.2,0,0,0,.88.25A13.75,13.75,0,0,0,25,35c.69.08,1.35.18,2,.31a8.71,8.71,0,0,1,1.11.28,2.48,2.48,0,0,1,.74.43,3.05,3.05,0,0,1,.36.36,1.85,1.85,0,0,1,.3.53,8.53,8.53,0,0,1,.29.89c.1.36.21.84.35,1.42a14.78,14.78,0,0,1,.29,1.58A8,8,0,0,1,30.42,42a3.35,3.35,0,0,1-.14.85,4.59,4.59,0,0,1-.27.7,2.85,2.85,0,0,1-1.22,1.15,10.71,10.71,0,0,1-2.69.92,11.2,11.2,0,0,1-2.46.35,2.69,2.69,0,0,1-1.59-.5c-.18-.14-.36-.29-.53-.45a2.24,2.24,0,0,1-.45-.58,5.93,5.93,0,0,1-.38-.86c-.11-.33-.23-.75-.35-1.26a8.84,8.84,0,0,1-.19-1.08,6.39,6.39,0,0,1,0-.82Zm.78,12,0-.11,1-5,2.94-.69,0,.12L26.1,51.19Z"/><path class="cls-169" d="M39.85,42.09l-1.76-4.7-3,.71.49,5-3.31.77L30.9,25.41l5.59-1.3L43.24,41.3ZM35,28.91l-.4-1c-.13-.34-.26-.68-.4-1l-.26.06c0,.38.07.74.1,1.1s.06.72.1,1.09l.58,6.9,2.72-.63Z"/><path class="cls-169" d="M54,38.8c-1.22-1.54-2.28-2.85-3.16-3.95s-1.63-2-2.24-2.8-1.11-1.4-1.48-1.89L46.2,29l-.56-.72-.33-.48-.19,0c.15.5.28,1,.41,1.57L46,31.18l2.09,9-3,.71L40.89,23.08l3.8-.88c.85,1.19,1.58,2.2,2.2,3l1.53,2.13,1,1.38c.25.35.45.62.59.83s.24.36.3.47.12.21.17.3l.19,0a9.41,9.41,0,0,1-.25-.91l-.3-1.27-1.59-6.82,3.06-.71,4.14,17.8Z"/><path class="cls-169" d="M59.33,31.29a2.64,2.64,0,0,0,0,.61c0,.22.1.5.17.83A11.71,11.71,0,0,0,60,34.2a1.58,1.58,0,0,0,.51.69,1.19,1.19,0,0,0,.61.24A2.84,2.84,0,0,0,62,35a4.06,4.06,0,0,0,1-.35,1.38,1.38,0,0,0,.48-.55,1.81,1.81,0,0,0,.14-.92,13.87,13.87,0,0,0-.32-1.71l-.17-.76a2.56,2.56,0,0,0-.16-.49l-.16-.34a2.9,2.9,0,0,0-.19-.31,1.26,1.26,0,0,0-.5-.41,6.24,6.24,0,0,0-.9-.23c-.33-.08-.7-.14-1.11-.2L59,28.55l-1.2-.23a9.79,9.79,0,0,1-1-.28,2.85,2.85,0,0,1-.76-.38,2.17,2.17,0,0,1-.59-.67,6.12,6.12,0,0,1-.5-1.15c-.16-.47-.33-1.08-.51-1.84a6.54,6.54,0,0,1-.23-2.28,2.65,2.65,0,0,1,.66-1.44,4.08,4.08,0,0,1,1.25-.88,12.36,12.36,0,0,1,2.2-.69,11.19,11.19,0,0,1,2.64-.36,3.53,3.53,0,0,1,1.51.32,2.19,2.19,0,0,1,1,.92A7.32,7.32,0,0,1,64,21.4a11,11,0,0,1,.23,1.24,4,4,0,0,1,0,.83l-2.8.65a2.62,2.62,0,0,0,0-.6c0-.23-.1-.52-.19-.88a5.28,5.28,0,0,0-.42-1.31,1.31,1.31,0,0,0-.57-.59,1.15,1.15,0,0,0-.58-.13,5.76,5.76,0,0,0-.91.15,3.87,3.87,0,0,0-.85.27,1.13,1.13,0,0,0-.44.4,1.38,1.38,0,0,0-.2.77,7.53,7.53,0,0,0,.23,1.38l.2.88c.06.23.1.42.15.57a1.65,1.65,0,0,0,.16.35c.07.1.13.19.21.29a1.63,1.63,0,0,0,.48.37,4.23,4.23,0,0,0,.88.26,15.6,15.6,0,0,0,1.78.28,17.24,17.24,0,0,1,2,.31,10.69,10.69,0,0,1,1.11.27,2.7,2.7,0,0,1,.75.44,4.08,4.08,0,0,1,.36.36,2,2,0,0,1,.29.52,7.19,7.19,0,0,1,.29.89c.1.37.21.84.35,1.42a14.78,14.78,0,0,1,.29,1.58,6.91,6.91,0,0,1,0,1.16,3.34,3.34,0,0,1-.14.84,3.91,3.91,0,0,1-.27.7,2.85,2.85,0,0,1-1.22,1.15,10.65,10.65,0,0,1-2.69.93,11.08,11.08,0,0,1-2.45.34,2.58,2.58,0,0,1-1.59-.5,4.51,4.51,0,0,1-.54-.44,2.48,2.48,0,0,1-.45-.59,5.77,5.77,0,0,1-.38-.85c-.11-.34-.23-.76-.35-1.26a9.55,9.55,0,0,1-.19-1.08c0-.32,0-.59,0-.82Z"/><path class="cls-169" d="M34.24,63.19a5.13,5.13,0,0,1,.27.78l.2.79a11.06,11.06,0,0,1,.36,2.48,4.17,4.17,0,0,1-.39,1.92,3.56,3.56,0,0,1-1.29,1.42,7.86,7.86,0,0,1-2.36,1A10.84,10.84,0,0,1,28,72a2.74,2.74,0,0,1-1.8-.76,3.5,3.5,0,0,1-.67-.78,6.82,6.82,0,0,1-.64-1.3q-.33-.84-.72-2.16c-.26-.89-.56-2-.9-3.39q-.59-2.37-.84-3.78a19.68,19.68,0,0,1-.3-2.23,4,4,0,0,1,.06-1.18c.07-.25.13-.47.19-.65a2.91,2.91,0,0,1,1.16-1.46,9.51,9.51,0,0,1,2.79-1,12.32,12.32,0,0,1,2.23-.39,4,4,0,0,1,1.54.17,3.15,3.15,0,0,1,1.56,1.35,9,9,0,0,1,1.13,2.81c.08.31.14.59.19.82s.09.5.13.77L30,59.52q-.06-.37-.12-.66L29.63,58a10.21,10.21,0,0,0-.56-1.7,2.43,2.43,0,0,0-.64-.89,1.09,1.09,0,0,0-.65-.26,3.94,3.94,0,0,0-1,.14,2.73,2.73,0,0,0-1,.43,1.19,1.19,0,0,0-.37.72,4.57,4.57,0,0,0-.05.67,5,5,0,0,0,.1,1q.11.67.36,1.77c.16.73.39,1.67.68,2.82s.54,2.14.74,2.88.37,1.34.52,1.79a8.47,8.47,0,0,0,.41,1c.13.23.25.43.37.6a1.19,1.19,0,0,0,.68.44,3,3,0,0,0,1.25-.12,1.88,1.88,0,0,0,1-.5A1.68,1.68,0,0,0,31.8,68a5,5,0,0,0,0-1.16,9.68,9.68,0,0,0-.27-1.47l-.18-.72a4.68,4.68,0,0,0-.21-.67ZM28.63,77.72l0-.11,1-5,2.93-.73,0,.12L31,77.13Z"/><path class="cls-169" d="M44.58,67.83l-1.84-4.67-3,.75.57,5L37,69.72,35.37,51.29l5.57-1.39L48,67Zm-5-13.1-.41-1c-.14-.33-.27-.67-.41-1l-.26.07c0,.37.07.73.11,1.09s.07.72.12,1.09l.69,6.89,2.71-.67Z"/><path class="cls-169" d="M57.16,64.7a2.06,2.06,0,0,1-.26-.25,2.44,2.44,0,0,1-.24-.4c-.08-.18-.18-.42-.3-.73s-.26-.73-.45-1.25-.4-1.16-.61-1.75a17.33,17.33,0,0,0-.72-1.72,1.63,1.63,0,0,0-.74-.82,2.07,2.07,0,0,0-1.11.06l-1.56.39L53,65.72l-3.27.82L45.36,48.8l5.93-1.48a8.64,8.64,0,0,1,2.06-.3,3.49,3.49,0,0,1,1.38.32,3.65,3.65,0,0,1,.73.47,3.07,3.07,0,0,1,.59.72,5,5,0,0,1,.47,1c.15.41.28.88.42,1.43s.24,1,.32,1.43a7.16,7.16,0,0,1,.11,1,4.33,4.33,0,0,1,0,.75,3.51,3.51,0,0,1-.13.58,2,2,0,0,1-.46.76,3.5,3.5,0,0,1-.68.52l0,.11a2,2,0,0,1,.83.26,1.93,1.93,0,0,1,.76.91c.37.77.72,1.56,1,2.37s.63,1.66.93,2.54c.14.35.27.64.39.88a3.65,3.65,0,0,0,.46.65l0,.1Zm-5-8.74a4.24,4.24,0,0,0,1.09-.4,1.32,1.32,0,0,0,.61-.7,1.5,1.5,0,0,0,.13-.43,2.91,2.91,0,0,0,0-.53,6.76,6.76,0,0,0-.13-.82c-.07-.32-.16-.74-.29-1.26s-.19-.71-.26-1a5.2,5.2,0,0,0-.22-.62,1.17,1.17,0,0,0-.22-.37,1.42,1.42,0,0,0-.28-.22,1.83,1.83,0,0,0-1.41-.12l-2.07.52,1.56,6.28Z"/><path class="cls-169" d="M70.34,61.42l-2.55-3L66,56.41l-1.13-1.32q-.42-.5-.63-.78l-.3-.4-.14-.2-.26.07a4.75,4.75,0,0,1,.18.57l.24,1,1.8,7.24-3.34.83L58,45.65l3.34-.83L62.89,51l.24.94a3.82,3.82,0,0,1,.1.57l.26-.06a2.23,2.23,0,0,1,.08-.39c0-.17.15-.53.3-1.1s.38-1.42.69-2.55.75-2.7,1.32-4.72l3.42-.85,0,.11-2.68,9.18,7.26,8.3,0,.09Z"/><path class="cls-169" d="M75.68,60.08,71.26,42.35l3.38-.84,4.42,17.73Z"/></g></g></g></svg>