<svg xmlns="http://www.w3.org/2000/svg" viewBox="0 0 169.97 29.37"><defs><style>.cls-1{fill:#fff;}</style></defs><title>neteller</title><g id="Layer_2" data-name="Layer 2"><g id="Layer_1-2" data-name="Layer 1"><path class="cls-1" d="M158.92,12.82a7.45,7.45,0,0,1-4.29,1h-1.9l1.46-7.88h1.4a6.54,6.54,0,0,1,3.56.78,3.08,3.08,0,0,1,1.37,2.75,3.84,3.84,0,0,1-1.6,3.35M45.38,22.71H30.65l1-5.15h9.24l1-5.8H32.74l.88-5.1h14.7ZM166.86,2.23C164.69.75,161.41,0,157.12,0H145.86l-4.18,22.71H126.94l.95-5.15h8.88l1.06-5.79-8.88,0,1-5.13H139L140.26,0H121.68l-4,21.55H110.9L114.9,0h-9.71l-4,21.55H94.57L98.57,0h-9.7L84.68,22.71H69.83l.94-5.15h8.92l1.05-5.75H71.83l.95-5.14H82L83.24,0H25.35L22.06,18,15.5,0H5.42L0,29.37H9.62L12.9,10.88l6.37,18.49H53.75L57.94,6.66h5.4L59.15,29.37h90.73L152.5,15l4.26,14.34h9.63L162,17.65l1-.22a8.62,8.62,0,0,0,5.16-3A9.37,9.37,0,0,0,170,8.48a7,7,0,0,0-3.11-6.25"/></g></g></svg>