<?xml version="1.0" encoding="utf-8"?>
<!-- Generator: Adobe Illustrator 19.1.0, SVG Export Plug-In . SVG Version: 6.00 Build 0)  -->
<svg version="1.1" id="Layer_1" xmlns="http://www.w3.org/2000/svg" xmlns:xlink="http://www.w3.org/1999/xlink" x="0px" y="0px"
	 viewBox="-168 259.2 274.8 274.8" style="enable-background:new -168 259.2 274.8 274.8;" xml:space="preserve">
<style type="text/css">
	.st0{fill:#39B54A;}
	.st1{fill:#FFFFFF;}
</style>
<title>Marsbet_Red</title>
<g>
	<path class="st0" d="M76.4,515.9v3h-5.8V534H67v-15.1h-5.8v-3H76.4z M95.9,534l-0.7-10.6c-0.1-1.4-0.1-3.1-0.1-5h-0.2
		c-0.5,1.6-1,3.7-1.5,5.4l-3.3,10h-3.7l-3.3-10.3c-0.3-1.4-0.9-3.5-1.3-5.1h-0.2c0,1.7-0.1,3.4-0.1,5L80.8,534h-3.5l1.3-18.1H84
		l3.1,8.8c0.4,1.4,0.7,2.7,1.2,4.6h0.1c0.5-1.7,0.9-3.2,1.3-4.5l3.1-8.9H98l1.4,18.1H95.9z"/>
	<polygon class="st0" points="70,296 106.8,359.8 106.8,433.4 70,497.2 6.2,534 -67.4,534 -131.2,497.2 -168,433.4 -168,359.8 
		-131.2,296 -67.4,259.2 6.2,259.2 	"/>
	<polygon class="st0" points="104.6,360.4 104.6,432.8 89.8,458.4 49.3,388.2 	"/>
	<polygon class="st0" points="68.4,297.6 104.6,360.4 49.3,388.2 23.1,318.8 	"/>
	<polygon class="st0" points="89.8,458.4 68.4,495.5 49.3,388.2 	"/>
	<polygon class="st0" points="49.3,388.2 68.4,495.5 5.6,531.8 -15.7,449.5 	"/>
	<polygon class="st0" points="68.4,297.6 23.1,318.8 -38.5,306.5 5.6,261.4 	"/>
	<polygon class="st0" points="23.1,318.8 49.3,388.2 -29.5,378 	"/>
	<polygon class="st0" points="49.3,388.2 -15.7,449.5 -74.1,428.5 -29.5,378 	"/>
	<polygon class="st0" points="23.1,318.8 -29.5,378 -38.5,306.5 	"/>
	<polygon class="st0" points="5.6,261.4 -38.5,306.5 -66.8,261.4 	"/>
	<polygon class="st0" points="-15.7,449.5 5.6,531.8 -62.3,492.5 	"/>
	<polygon class="st0" points="-62.3,492.5 5.6,531.8 -66.8,531.8 -129.5,495.5 -106.1,467.2 	"/>
	<polygon class="st0" points="-15.7,449.5 -62.3,492.5 -106.1,467.2 -74.1,428.5 	"/>
	<polygon class="st0" points="-38.5,306.5 -29.5,378 -99.4,369 -99.4,368.8 	"/>
	<polygon class="st0" points="-29.5,378 -74.1,428.5 -99.4,369 	"/>
	<polygon class="st0" points="-66.8,261.4 -38.5,306.5 -99.4,368.8 -129.5,297.6 	"/>
	<polygon class="st0" points="-99.4,369 -74.1,428.5 -106.1,467.2 -165.8,432.8 -165.8,360.4 	"/>
	<polygon class="st0" points="-99.4,368.8 -99.4,369 -165.8,360.4 -129.5,297.6 	"/>
	<polygon class="st0" points="-106.1,467.2 -129.5,495.5 -165.8,432.8 	"/>
</g>
<path class="st1" d="M-71.5,333.2H-99v126.7h31.7v-79.1l34.4,39.7h4.8l34.4-39.7v79.1H38V333.2H10.5l-40.9,47L-71.5,333.2z"/>
</svg>
