<svg width="114" height="30" xmlns="http://www.w3.org/2000/svg">
    <g fill="none" fill-rule="evenodd">
        <path d="M84.688 21.664c.87 0 1.572-.253 2.08-.752.516-.507.768-1.4.768-2.72 0-2.658-.702-4.731-2.095-6.173-1.394-1.442-3.497-2.171-6.252-2.171h-.004c-1.34 0-2.566.23-3.64.682a7.571 7.571 0 0 0-2.79 2.015c-.77.88-1.37 1.964-1.782 3.219-.412 1.247-.617 2.689-.617 4.283 0 3.414.757 5.955 2.247 7.545C74.097 29.189 76.418 30 79.499 30c.982 0 2.06-.129 3.202-.382 1.156-.257 2.185-.682 3.058-1.266.225-.149.376-.297.454-.46.093-.191.078-.421-.047-.714l-1.11-2.587c-.124-.257-.267-.41-.438-.468-.163-.054-.388-.027-.734.09l-.019.008c-.582.257-1.222.467-1.898.63a8.534 8.534 0 0 1-1.979.243h-.004a6.661 6.661 0 0 1-1.548-.172 2.88 2.88 0 0 1-1.196-.592c-.337-.285-.609-.663-.815-1.127-.178-.413-.29-.927-.33-1.543l8.593.004zm-8.472-3.835c.12-.892.438-1.64.947-2.229.555-.639 1.25-.95 2.127-.95.582 0 1.055.089 1.412.26.353.172.637.406.838.69.21.292.365.655.462 1.072.082.358.132.748.144 1.157h-5.93zM50.928 29.883h-5.297V2.366A2.362 2.362 0 0 1 47.986 0h8.496c7.695 0 12.026 4.899 12.026 11.274 0 6.376-4.33 11.232-12.026 11.232h-3.194v5.012a2.37 2.37 0 0 1-2.36 2.365zm5.17-13.878c3.446 0 4.71-1.94 4.71-4.73 0-2.791-1.26-4.77-4.71-4.77H54.96c-.927 0-1.68.755-1.68 1.687v7.81h2.817v.003zM96.42 29.883h-5.298V2.366A2.362 2.362 0 0 1 93.478 0h8.495C109.67 0 114 4.899 114 11.274c0 6.376-4.331 11.232-12.027 11.232H98.78v5.012a2.368 2.368 0 0 1-2.36 2.365zm5.173-13.878c3.446 0 4.711-1.94 4.711-4.73 0-2.791-1.261-4.77-4.711-4.77h-1.137c-.928 0-1.68.755-1.68 1.687v7.81h2.817v.003z" fill="#433068" fill-rule="nonzero"/>
        <path d="M10.044 16.115c.01.608.01 1.212.02 1.816-.01-.604-.01-1.212-.02-1.816zM9.669 12.325c.01.03.02.05.03.08a.689.689 0 0 1-.03-.08zM9.244 11.684zM9.046 11.45c.036.03.073.069.1.1-.037-.031-.064-.062-.1-.1zM6.364 10.09C5.1 9.638 3.83 9.193 2.573 8.726h-.004.004c1.257.467 2.526.912 3.791 1.364z"/>
        <path d="M17.068 4.065c0-2.038-1.363-3.001-3.284-2.32-3.489 1.24-6.977 2.48-10.455 3.742-.562.203-1.04.343-1.645.694.05.012-.047.226-.078.312-.434 1.18-.186 1.8.963 2.233h.004c1.257.471 2.526.912 3.791 1.364.435.156.87.311 1.304.471a3.665 3.665 0 0 1 1.378.889.493.493 0 0 1 .043.05 3.407 3.407 0 0 1 .555.814c.003.013.007.02.011.032.225.472.346 1.006.35 1.582l.011 2.183c.004.604.004 1.212.008 1.816.004.666.004 1.333.008 1.999 1.482-.518 2.968-1.033 4.45-1.563 1.72-.612 2.582-1.859 2.586-3.706V4.065zM1.581 6.288c.01 0 .02-.01.03-.02-.01 0-.02.01-.03.02z" fill="#433068" fill-rule="nonzero"/>
        <path d="m10.02 16.115-.012-2.183a3.735 3.735 0 0 0-.349-1.582l-.012-.031a3.407 3.407 0 0 0-.555-.814c-.015-.016-.027-.036-.042-.051a3.573 3.573 0 0 0-1.378-.889c-.435-.16-.87-.316-1.304-.471-1.265-.453-2.534-.897-3.792-1.364h-.003c-1.15-.433-1.398-1.053-.963-2.234.031-.081.128-.3.078-.311-.008 0-.02 0-.035.011-.027.016-.05.035-.074.051-.004.004-.012.008-.015.012C.628 6.917.027 7.915.019 9.065c-.023 4.411-.027 8.823 0 13.234.008 1.158.543 2.081 1.502 2.76.015.011.035.019.054.03.272.14.559.332.804.425 1.579.597 3.147 1.2 4.746 1.742 1.358.464 2.84-.452 2.887-1.855.058-1.784-.008-3.573-.023-5.362a.44.44 0 0 1 .05-.105c-.004-.667-.004-1.333-.007-2-.008-.607-.008-1.215-.012-1.82z" fill="#23C6B0" fill-rule="nonzero"/>
        <g fill-rule="nonzero">
            <path d="M26.766 9.98h.004l.66-.237c.042-.024.097-.05.174-.078.982-.347 1.964-.698 2.946-1.048l1.47-.53v.003l1.82-.654.09-.031c1.083-.394 1.149-.955 1.094-2.109-.004-.113-.027-.226-.042-.339-.28-.156-.532-.245-.839-.378-1.575-.596-3.131-1.24-4.726-1.785-1.359-.464-2.841.452-2.888 1.855-.058 1.754.008 3.632.023 5.394l.152-.05c0-.012.062-.012.062-.012zM35.076 5.014c-.02-.01-.05-.02-.07-.04.02.02.05.03.07.04 0 .01 0 0 0 0z" fill="#23C6B0"/>
            <path d="M35.024 4.977c-.011-.008-.019-.012-.027-.02-.004-.004-.008-.008-.015-.008v.004c.015.113.038.226.042.34.055 1.153-.011 1.718-1.094 2.108l-.09.03-1.82.656v-.004l-1.47.53c-.982.35-1.964.697-2.946 1.048a1.124 1.124 0 0 0-.174.078l-.66.238h-.066l-.152.05-1.21.417c-1.157.398-2.22.795-3.357 1.2-1.72.612-2.55 1.86-2.554 3.707 0 3.53.016 7.065.016 10.596 0 2.038 1.37 3 3.29 2.319 3.49-1.24 6.978-2.479 10.46-3.738.601-.218.954-.42 1.563-.779.978-.682 1.502-1.61 1.51-2.794.023-4.412.276-8.823.248-13.235-.011-1.142-.504-2.112-1.494-2.743z" fill="#433068"/>
        </g>
    </g>
</svg>
