<?xml version="1.0" encoding="utf-8"?>
<!-- Generator: Adobe Illustrator 19.1.0, SVG Export Plug-In . SVG Version: 6.00 Build 0)  -->
<svg version="1.1" id="Layer_1" xmlns="http://www.w3.org/2000/svg" xmlns:xlink="http://www.w3.org/1999/xlink" x="0px" y="0px"
	 viewBox="-282 384.9 46.5 25.1" style="enable-background:new -282 384.9 46.5 25.1;" xml:space="preserve">
<style type="text/css">
	.st0{fill:#EA2629;}
	.st1{fill:#727272;}
</style>
<title>lightgray</title>
<g>
	<path class="st0" d="M-268.4,394.6h-1v0.1c0,0.1,0,0.2-0.1,0.3c-0.1,0.1-0.2,0.1-0.3,0.1c-0.3-0.1-0.6-0.2-0.9-0.3
		c-0.4-0.2-0.9-0.3-1.3-0.4c-0.3,0-0.6,0.1-0.9,0.3c-0.3,0.2-0.5,0.5-0.6,0.8v-0.9h-1.4v4h1.3c0-0.1,0-0.1,0-0.2v-0.3
		c0-0.4,0-0.7,0.2-1.1c0.1-0.2,0.4-0.3,0.7-0.3c0.2,0,0.4,0.1,0.7,0.1c0.3,0.1,0.6,0.1,0.9,0.1c0.2,0,0.4,0,0.5-0.1
		c0.2-0.1,0.4-0.1,0.5-0.2c-0.4,0.5-0.7,0.9-1.2,1.3c-0.4,0.4-0.7,0.8-1,1.2c-0.4,0.5-0.6,1-0.8,1.6c-0.2,0.6-0.3,1.2-0.3,1.9v0.3
		c0,0.1,0,0.1,0,0.2h2.5v-0.3c0-0.8,0.1-1.5,0.3-2.3c0.2-0.9,0.6-1.7,1-2.5l0.2-0.4c0.5-0.8,0.9-1.8,1-2.8
		C-268.4,394.8-268.4,394.8-268.4,394.6C-268.3,394.7-268.3,394.6-268.4,394.6z"/>
	<path class="st0" d="M-248,394.6L-248,394.6c0,0.2,0,0.3-0.1,0.4s-0.2,0.1-0.3,0.1c-0.3-0.1-0.6-0.2-0.9-0.3
		c-0.4-0.2-0.9-0.3-1.3-0.4c-0.3,0-0.6,0.1-0.9,0.3c-0.3,0.2-0.5,0.5-0.6,0.8v-0.9h-1.4v4h1.3c0-0.1,0-0.1,0-0.2s0-0.2,0-0.3
		c0-0.4,0-0.7,0.2-1.1c0.1-0.2,0.4-0.3,0.7-0.3c0.2,0,0.4,0.1,0.7,0.1c0.3,0.1,0.6,0.1,0.9,0.1c0.2,0,0.4,0,0.5-0.1
		c0.2-0.1,0.4-0.1,0.5-0.2c-0.4,0.4-0.8,0.9-1.2,1.3s-0.7,0.8-1,1.2c-0.3,0.5-0.6,1-0.8,1.6s-0.3,1.2-0.3,1.9v0.3c0,0.1,0,0.1,0,0.2
		h2.5v-0.3c0-0.8,0.1-1.5,0.3-2.3c0.2-0.9,0.6-1.7,1-2.5c0-0.1,0.1-0.2,0.2-0.4c0.5-0.8,0.9-1.8,1-2.8v-0.2v-0.1L-248,394.6
		L-248,394.6z"/>
	<path class="st0" d="M-258.7,394.6L-258.7,394.6c0,0.2,0,0.3-0.1,0.4s-0.2,0.1-0.3,0.1c-0.3-0.1-0.6-0.2-0.9-0.3
		c-0.4-0.2-0.9-0.3-1.3-0.4c-0.3,0-0.6,0.1-0.9,0.3c-0.3,0.2-0.5,0.5-0.6,0.8v-0.9h-1.3v4h1.3c0-0.1,0-0.1,0-0.2v-0.3
		c0-0.4,0-0.7,0.2-1.1c0.1-0.2,0.4-0.3,0.7-0.3c0.2,0,0.4,0.1,0.7,0.1c0.3,0.1,0.6,0.1,0.9,0.1c0.2,0,0.4-0.1,0.6-0.1
		c0.2-0.1,0.4-0.1,0.5-0.2c-0.4,0.5-0.7,0.9-1.2,1.3c-0.4,0.4-0.7,0.8-1,1.2c-0.4,0.5-0.6,1-0.8,1.6c-0.2,0.6-0.3,1.2-0.3,1.9v0.3
		c0,0.1,0,0.1,0,0.2h2.5v-0.3c0-0.8,0.1-1.5,0.3-2.3c0.2-0.9,0.6-1.7,1-2.5l0.2-0.4c0.5-0.8,0.9-1.8,1-2.8v-0.2v-0.1L-258.7,394.6
		L-258.7,394.6z"/>
	<g>
		<path class="st1" d="M-238.4,389v7.3c-0.1,0.5,0.3,0.9,0.8,1s0.9-0.3,1-0.8c0-0.1,0-0.1,0-0.2V389
			C-237.1,389.3-237.8,389.3-238.4,389z"/>
		<path class="st1" d="M-237.5,388.8c1.1,0,2-0.9,2-2s-0.9-2-2-2s-2,0.9-2,2S-238.6,388.8-237.5,388.8z"/>
		<path class="st1" d="M-236.2,393.9v2.4c0,0.7-0.6,1.3-1.3,1.3s-1.3-0.6-1.3-1.3v-2.4h-0.8v9.6h3.4c0.5,0,0.8-0.4,0.8-0.8l0,0v-7.9
			C-235.4,394.4-235.7,394-236.2,393.9z"/>
		<path class="st1" d="M-244.3,387.6h-33.4c-2.3,0-4.2,1.9-4.3,4.2v13.9c0,2.3,1.9,4.2,4.3,4.3h33.4c2.3,0,4.2-1.9,4.3-4.3v-13.9
			C-240,389.5-241.9,387.6-244.3,387.6z M-242.3,405.7c0,1.1-0.9,1.9-1.9,1.9h-33.4c-1.1,0-1.9-0.9-1.9-1.9v-13.9
			c0-1,0.9-1.9,1.9-1.9h33.4c1,0,1.9,0.8,1.9,1.9V405.7z"/>
		<path class="st1" d="M-244.3,390.6h-33.4c-0.6,0-1.2,0.5-1.2,1.2v13.9c0,0.6,0.5,1.1,1.2,1.1h33.4c0.7,0,1.2-0.5,1.2-1.2l0,0
			v-13.8C-243.1,391.2-243.6,390.6-244.3,390.6z M-266.7,404.2c0,0.6-0.4,1-1,1h-8c-0.6,0-1-0.4-1-1v-10.9c0-0.6,0.4-1,1-1h8
			c0.6,0,1,0.4,1,1V404.2z M-256,404.2c0,0.6-0.4,1-1,1h-7.9c-0.6,0-1-0.4-1-1v-10.9c0-0.6,0.4-1,1-1h8c0.6,0,1,0.4,1,1L-256,404.2z
			 M-245.3,404.2c0,0.6-0.4,1-1,1h-8c-0.6,0-1-0.4-1-1v-10.9c0-0.6,0.4-1,1-1h8c0.6,0,1,0.4,1,1V404.2z"/>
	</g>
</g>
</svg>
