<?xml version="1.0" encoding="utf-8"?>
<!-- Generator: Adobe Illustrator 22.1.0, SVG Export Plug-In . SVG Version: 6.00 Build 0)  -->
<svg version="1.1" id="Layer_1" xmlns="http://www.w3.org/2000/svg" xmlns:xlink="http://www.w3.org/1999/xlink" x="0px" y="0px"
	 viewBox="0 0 287.1 226.7" style="enable-background:new 0 0 287.1 226.7;" xml:space="preserve">
<style type="text/css">
	.st0{fill:#C2C1C0;}
</style>
<path class="st0" d="M187.4,93.3c4-5.3,8-10.4,11.6-15.4h62.1l24.2-31.3h-64.9c14-22.5,20-37.8,16-41.3c-0.9-0.8-2.5-0.9-4.4-0.3
	c-4.8,1.4-10.7,5.6-14.8,8.7c-4.2,3.1-9,7.2-14.3,11.8c-11.7,10.3-11.2,10-0.7,1.2c5.9-4.9,10.6-8.4,14.1-10.1
	c1.1-0.5,2-0.9,2.8-1.1c1.3-0.3,2.2-0.3,2.8,0.2c2.8,2.4-2.6,13.9-13.8,30.9c-12.9,19.7-33.6,46.9-58.2,75.9l-1.8,2.1
	c-13.4,15.7-26.4,30.3-38.4,42.8h77.7v-44.2h68.2l22.7-29.4h-90.9L187.4,93.3L187.4,93.3z"/>
<path class="st0" d="M153.3,205.7v-1.4h3.2l-3.2-15.9v-2.3h1l5.7,27h-1.9l-1.4-7.5L153.3,205.7L153.3,205.7z M181.1,213.1l0.8-27
	h1.8l5.7,24.4l5.8-24.4h1.9l0.8,27h-1.6l-0.7-22.6l-5.5,22.6h-1.3l-5.4-22.6l-0.7,22.6H181.1z M220.2,213.1v-27h9.3v1.5H222v10.8
	h6.2v1.4H222v11.9h7.6v1.5H220.2z M256.6,213.4c-3.9,0-6.1-2.4-6.5-7l1.6-0.5c0.1,0.8,0.2,1.5,0.4,2c0.1,0.6,0.3,1.1,0.6,1.7
	c0.3,0.5,0.6,1,0.9,1.3c0.4,0.3,0.8,0.6,1.3,0.8c0.5,0.2,1.2,0.3,1.8,0.3c2.8,0,4.3-1.5,4.3-4.3c0-1.1-0.3-2.2-0.9-3
	c-0.6-0.9-1.5-2-2.7-3.1l-4.9-4.9c-1.6-1.6-2.4-3.2-2.4-5.1c0-1.8,0.5-3.1,1.6-4c1.1-1,2.5-1.5,4.3-1.5h0.1c2,0,3.4,0.5,4.4,1.6
	c1.1,1.1,1.7,2.8,1.8,5.2l-1.6,0.4c-0.2-2-0.6-3.3-1.3-4.3c-0.7-0.9-1.8-1.4-3.2-1.4H256c-1.3,0-2.4,0.4-3.1,1
	c-0.8,0.7-1.2,1.7-1.2,2.9c0,0.7,0.2,1.4,0.5,2.1c0.3,0.7,0.8,1.4,1.6,2.1l4.9,4.8c1.3,1.3,2.3,2.5,2.9,3.6c0.7,1.2,1.1,2.5,1.1,3.7
	c0,2-0.6,3.4-1.7,4.4C259.8,213,258.4,213.4,256.6,213.4L256.6,213.4z M119.1,213.4c-1,0-1.9-0.1-2.7-0.4s-1.4-0.6-1.9-1.1
	c-0.5-0.5-0.9-1.1-1.2-1.8c-0.3-0.7-0.5-1.5-0.6-2.3c-0.1-0.8-0.2-1.7-0.2-2.7v-11.5c0-1,0.1-1.9,0.2-2.7c0.1-0.8,0.3-1.5,0.7-2.2
	c0.3-0.7,0.7-1.3,1.2-1.7c0.5-0.5,1.1-0.8,1.9-1.1c0.8-0.3,1.7-0.4,2.7-0.4c2.3,0,3.8,0.7,4.8,2c1,1.3,1.5,3.2,1.5,5.7v1h-1.8v-1.1
	c0-2.1-0.3-3.6-1-4.6c-0.7-1-1.9-1.5-3.5-1.5c-0.8,0-1.5,0.1-2.1,0.3c-0.6,0.2-1,0.5-1.4,0.9c-0.4,0.4-0.6,0.8-0.8,1.4
	c-0.2,0.6-0.4,1.2-0.4,1.8c-0.1,0.6-0.1,1.4-0.1,2.2v11.8c0,1.1,0.1,2,0.2,2.7c0.1,0.8,0.4,1.4,0.7,2c0.4,0.6,0.9,1.1,1.5,1.4
	c0.6,0.3,1.4,0.4,2.4,0.4c0.9,0,1.6-0.1,2.2-0.4c0.6-0.3,1.1-0.7,1.4-1.3c0.3-0.6,0.6-1.3,0.7-2c0.1-0.8,0.2-1.7,0.2-2.7v-3.9h-4.3
	v-1.4h6v12.9h-1.2l-0.3-3C123.4,212.4,121.7,213.4,119.1,213.4L119.1,213.4z M153.3,186.1v2.3v-0.1l-3.2,16h3.2v1.4h-3.5l-1.5,7.5
	h-1.8l5.7-27L153.3,186.1L153.3,186.1z"/>
<path class="st0" d="M150.3,96.8c1.5-2.1,2.8-4.5,3.7-7.3c1-2.8,1.5-6,1.5-9.5c0-5.5-1.1-10.4-3.3-14.5c-2.3-4.1-5.4-7.7-9.5-10.4
	c-4.1-2.8-9.1-4.9-14.9-6.3c-5.8-1.4-12.4-2.1-19.6-2.1l-80.9,0L3,78.1l106.8,0c2.7,0,5,0.6,7.2,1.7c2.2,1.1,3.2,3.1,3.2,6.1
	c0,3.1-1.1,5.3-3.1,6.4c-2.1,1.2-4.5,1.7-7.3,1.7H80.5v0H3v73.4h77.6v0h7.1c-2.1,2.1-4.5,4.6-7.2,7.3v0
	c-9.9,9.9-23.2,22.5-33.5,28.3c-1,0.5-1.9,1-2.7,1.3c-2,0.8-3.3,0.9-4.1,0.2c-4.4-3.8,13.9-27.3,13.9-27.3
	c-13.3,14.5-27.8,38.1-21.7,43.2c1.2,1,3.1,0.9,5.9-0.2c2.5-1,5.5-2.7,9-5.1c1.4-1,2.8-2,4.3-3.1c7.8-5.8,17.6-14,28.9-24.3v0
	c6.7-6.1,13.9-12.9,21.3-20.2c13.9-13.8,28.8-29.6,43.5-46.8c2.1-2.5,4.1-4.8,6.1-7.3c-0.6-0.6-1.2-1.3-1.8-1.8
	c-2.2-2.1-4.5-3.6-7.2-4.9c-1.2-0.5-2.3-1-3.5-1.4c2.1-0.7,4-1.8,6.1-3.1C147,100.7,148.8,98.9,150.3,96.8z M118,134.1
	c-1.8,1.5-4.7,2.2-8.8,2.2H80.5v0H40.4v-16.6h40.2v0h28.5c4.1,0,7.1,0.7,8.8,2.1c1.8,1.4,2.8,3.4,2.8,6.1
	C120.7,130.5,119.8,132.7,118,134.1z"/>
</svg>
