<?xml version="1.0" encoding="utf-8"?>
<!-- Generator: Adobe Illustrator 22.1.0, SVG Export Plug-In . SVG Version: 6.00 Build 0)  -->
<svg version="1.1" id="katman_1" xmlns="http://www.w3.org/2000/svg" xmlns:xlink="http://www.w3.org/1999/xlink" x="0px" y="0px"
	 viewBox="0 0 252.4 236.7" style="enable-background:new 0 0 252.4 236.7;" xml:space="preserve">
<style type="text/css">
	.st0{fill:none;}
	.st1{fill:url(#SVGID_1_);}
	.st2{fill:#FFFFFF;}
</style>
<path class="st0" d="M39.6,583.7c0,0,81.3,52.7,118.2,107.1c36.8,54.4,33.2,110.7-17.4,134.7c-50.8,24.1-87.8-20.7-94-27.2
	s0.1,3.9,0.1,3.9s1.3,14.5,17.6,30.9s46.8,16.5,46.8,16.5v3.7H37.7"/>
<g>
	<linearGradient id="SVGID_1_" gradientUnits="userSpaceOnUse" x1="126.4477" y1="229.2342" x2="126.4477" y2="6.5659">
		<stop  offset="0" style="stop-color:#009EE9"/>
		<stop  offset="1" style="stop-color:#0043E9"/>
		<stop  offset="1" style="stop-color:#0002FF"/>
	</linearGradient>
	<path class="st1" d="M227.2,97.9C197.5,54,132,11.5,131.7,11.3v0c0,0,0,0,0,0c0,0,0,0,0,0v0c-0.1,0.1-12.9,8.4-29.7,21.4L78.8,9.4
		c-3.8-3.8-9.9-3.8-13.7,0L8.6,65.8c-3.8,3.8-3.8,9.9,0,13.7l24,24c-25.8,42.2-21.5,84.7,17.7,103.3c41.1,19.5,71-16.7,75.9-22
		l-0.1,3.2c0,0-1.1,11.7-14.3,25C98.7,226.2,74,226.2,74,226.2v3h56.1h3.1h56.1v-3c0,0-24.6-0.1-37.8-13.3
		c-13.2-13.3-14.3-25-14.3-25l-0.1-3.2c5,5.3,34.9,41.5,75.9,22C254.1,187.3,257,141.9,227.2,97.9z"/>
	<path class="st2" d="M67.5,129.1c3.8,3.8,5.1,3.8,8.9,0L128.5,77c3.8-3.8,3.8-5.1,0-8.9L76.3,16c-3.8-3.8-5.1-3.8-8.9,0L15.4,68.1
		c-3.8,3.8-3.8,5.1,0,8.9L67.5,129.1z"/>
</g>
</svg>
