<svg xmlns="http://www.w3.org/2000/svg" viewBox="0 0 88.95 33.5"><defs><style>.cls-1{fill:#fff;}.cls-2{fill:#ff0;}.cls-3{fill:#2b2a29;}</style></defs><title>BetSoft</title><g id="Layer_2" data-name="Layer 2"><g id="Layer_1-2" data-name="Layer 1"><path d="M9.78,0H89L80.2,33.5H1L5.48,16.3,2.67,18.53,0,20.61l.74-2.82,2.08-7.71.74-3L5,9.19l1.78,2.37Z"/><path class="cls-1" d="M37.66,1.49H87.17l-6.52,24.9H31.28l3-11.86H47L44.33,24.76h35L85.1,3H50L47.3,13.34H34.69Zm-13.34,0H37.07L34,13.35H21.2Zm9.34,13L30.54,26.39H17.79L20.9,14.53Zm-22.84-13H23.57l-3,11.86H7.71Zm9.34,13-3,11.86H4.3L7.41,14.53Z"/><path class="cls-2" d="M76.05,7.12h2.23L74,23.27h2.07L80.36,7.12h2.22l.59-2.67H76.8Zm-3.85,0h3.41l.74-2.67H70.72l-4.9,18.82H67.9L70,15.57h2.67l.74-2.67H70.72ZM59.3,18.83c-.74,3-.15,4.75,1.93,4.75s3.7-1.78,4.44-4.75L68.2,9.05c.88-3,.14-4.75-1.93-4.75s-3.56,1.78-4.45,4.75ZM64.05,8.9C64.34,7.41,64.94,7,65.68,7c.59,0,.89.44.59,1.93L63.6,19c-.44,1.33-.89,1.92-1.63,1.92-.59,0-.89-.59-.59-1.92Zm-9.34.15c-1.49,5.33,2.52,6.08,1.48,9.93-.3,1.33-.89,1.78-1.64,1.78-.59,0-.89-.45-.59-1.78l.45-1.48H52.48L52,18.83c-.75,3-.15,4.75,1.92,4.75s3.56-1.78,4.3-4.75c1.48-5.34-2.37-6.08-1.48-9.93C57.23,7.42,57.67,7,58.41,7s.89.45.45,1.93l-.15.89h1.93l.15-.74c.89-3,.29-4.75-1.78-4.75S55.45,6.08,54.71,9.05Z"/><path class="cls-1" d="M39.29,6.82h2.37l-4.45,16.9h2.22l4.3-16.9H46.1L46.85,4H40Zm1.77.3H38.84L39,6.67l.74-2.81v-.3h7.56L47.14,4,46.4,6.82v.3H44l-4.3,16.75v.3H36.62l.14-.59Z"/><path class="cls-3" d="M39.29,6.82h2.37l-4.45,16.9h2.22l4.3-16.9H46.1L46.85,4H40Z"/><path class="cls-1" d="M28.61,6.82h3.86L33.21,4H27.13l-5,19.71H28l.74-2.81H24.91l1.63-5.78h3l.73-2.82h-3Zm3.86.3H28.91l-1.19,4.74h3l-.15.45-.74,2.81v.3h-3l-1.33,5h3.7l-.14.59-.75,2.82v.29H21.5l.14-.59L26.83,3.86v-.3h6.82L33.5,4l-.74,2.82v.3Z"/><path class="cls-3" d="M28.61,6.82h3.86L33.21,4H27.13l-5,19.71H28l.74-2.81H24.91l1.63-5.78h3l.73-2.82h-3Z"/><path class="cls-1" d="M16,6.82c.74,0,.89.59.59,1.93l-.3,1.19c-.44,1.48-1,2.07-1.92,2.07h-.89l1.33-5.19Zm-2.22,8c1,0,1.19.59.74,2.37L14.09,19c-.3,1.48-.89,1.92-1.64,1.92H11.27l1.48-6.08h1ZM16.75,4H13.49L8.3,23.72h3.42c2.22,0,3.7-1.63,4.59-4.75l.44-1.63c.45-2.08.45-3.56-.59-4.15,1.19-.74,1.93-1.92,2.52-4l.15-.74C19.57,5.49,19,4,16.75,4Zm-.44,3.41a.32.32,0,0,0-.3-.29h-.89l-1,4.44h.29c.3,0,.6,0,.75-.29a2.87,2.87,0,0,0,.74-1.49l.3-1A6.91,6.91,0,0,0,16.31,7.41Zm-1.93,8a.77.77,0,0,0-.59-.3H13l-1.33,5.34h.74a.83.83,0,0,0,.75-.3,6.87,6.87,0,0,0,.59-1.33l.44-1.78A3.35,3.35,0,0,0,14.38,15.42ZM13.49,3.56h3.26a2.46,2.46,0,0,1,2.52,1.33c.45.89.3,2.08-.15,3.71L19,9.34a8,8,0,0,1-1,2.52,3.56,3.56,0,0,1-1.19,1.34,1.88,1.88,0,0,1,.6,1.48,6.57,6.57,0,0,1-.3,2.81l-.45,1.63a9.37,9.37,0,0,1-1.78,3.71,4.25,4.25,0,0,1-3.11,1.33h-4l.14-.59L13,3.86l.15-.3Z"/><path class="cls-3" d="M16,6.82c.74,0,.89.59.59,1.93l-.3,1.19c-.44,1.48-1,2.07-1.92,2.07h-.89l1.33-5.19Zm-2.22,8c1,0,1.19.59.74,2.37L14.09,19c-.3,1.48-.89,1.92-1.64,1.92H11.27l1.48-6.08h1ZM16.75,4H13.49L8.3,23.72h3.42c2.22,0,3.7-1.63,4.59-4.75l.44-1.63c.45-2.08.45-3.56-.59-4.15,1.19-.74,1.93-1.92,2.52-4l.15-.74C19.57,5.49,19,4,16.75,4Z"/><path class="cls-2" d="M4,10.08l2.82,3.86L1.93,17.79Zm47.89,0-4.75,3.86L50,17.79Z"/><path class="cls-1" d="M42.84,30.54,43,30.1h1.33L44,31a3.27,3.27,0,0,1-.89.59,2.32,2.32,0,0,1-1,.14,1.78,1.78,0,0,1-1.33-.44,1.46,1.46,0,0,1-.15-1.19,2.27,2.27,0,0,1,.89-1.18A2.47,2.47,0,0,1,43,28.46a2.06,2.06,0,0,1,1,.23c.1.06.32.36.48.51l-.45.3a2.22,2.22,0,0,0-.44-.45,2.17,2.17,0,0,0-.75-.14,1.8,1.8,0,0,0-1.06.35,1.44,1.44,0,0,0-.72.83,1.06,1.06,0,0,0,.15.89,1.24,1.24,0,0,0,1,.3,2.85,2.85,0,0,0,.74-.12,1.08,1.08,0,0,0,.59-.33l.15-.3h-.89Zm34.39,0,.15-.44h1.33a5.43,5.43,0,0,1-.29.89,1.94,1.94,0,0,1-.89.59,2.34,2.34,0,0,1-1,.14,1.78,1.78,0,0,1-1.33-.44A1.46,1.46,0,0,1,75,30.09a2.27,2.27,0,0,1,.89-1.18,2.47,2.47,0,0,1,1.48-.45,2.06,2.06,0,0,1,.89.15,3.3,3.3,0,0,1,.59.59l-.44.3a2.07,2.07,0,0,0-.45-.45,2.1,2.1,0,0,0-.74-.14,1.83,1.83,0,0,0-1.07.35,1.38,1.38,0,0,0-.71.83,1.06,1.06,0,0,0,.15.89,1.22,1.22,0,0,0,1,.3,3,3,0,0,0,.75-.12,1.16,1.16,0,0,0,.59-.33l.14-.3h-.88Zm-28.16,0h1.19L50,29.35Zm-1.48,1.19L50,28.62h.3l.89,3.11h-.59l-.21-.89H48.78l-.59.89Zm7.41,0,.89-3.11h.3l.89,1.78,1.63-1.78h.45l-.75,3.11h-.59l.59-2.22-1.63,1.63L56,29.51l-.6,2.22Zm7.86,0,.89-3.11h.44l-.74,3.11Zm5,0,.89-3.11h.3l1.33,2.07.6-2.07h.44l-.74,3.11h-.3l-1.48-2.22-.45,2.22Z"/><path class="cls-2" d="M16.6,28a1,1,0,0,1,.89,1.19v.14a.93.93,0,0,1,.75,1.19,1.57,1.57,0,0,1-1.49,1.19.84.84,0,0,1-.89-.74,1.75,1.75,0,0,1-1.33.74.9.9,0,0,1-.89-1.19,1.83,1.83,0,0,1,1.48-1.19v-.14A1.77,1.77,0,0,1,16.6,28Z"/><path class="cls-2" d="M16,32.47l-.3-1.19L15,32.47ZM35.58,28c.3,0,1.78,1.48,1.48,2.52a1.44,1.44,0,0,1-1.48,1.19,1,1,0,0,1-.89-.74,1.53,1.53,0,0,1-1.19.74c-.74,0-1.18-.45-.89-1.19C32.91,29.35,35.14,28,35.58,28Z"/><path class="cls-2" d="M34.84,32.47l-.15-1.19-.89,1.19Zm-9.79-.3a2.76,2.76,0,0,1-1.78-2.81,1.8,1.8,0,0,1,1.64-1.19c.59,0,.89.3.89.74a2.07,2.07,0,0,1,1.48-.74,1,1,0,0,1,.89,1.19C27.87,30.84,25.5,32.17,25.05,32.17ZM7.56,28a7.9,7.9,0,0,0,1.63,2.22,12.19,12.19,0,0,0-2.67,2.08,5.58,5.58,0,0,0-1.63-2.08A18.4,18.4,0,0,0,7.56,28Z"/></g></g></svg>