<?xml version="1.0" encoding="utf-8"?>
<!-- Generator: Adobe Illustrator 22.1.0, SVG Export Plug-In . SVG Version: 6.00 Build 0)  -->
<svg version="1.1" id="Слой_1" xmlns="http://www.w3.org/2000/svg" xmlns:xlink="http://www.w3.org/1999/xlink" x="0px" y="0px"
	 viewBox="0 0 46.5 55.8" style="enable-background:new 0 0 46.5 55.8;" xml:space="preserve">
<style type="text/css">
	.st0{fill:#FFFFFF;}
	.st1{fill-rule:evenodd;clip-rule:evenodd;fill:#FFCC00;}
</style>
<g>
	<g>
		<rect x="5.5" y="6.3" class="st0" width="34.2" height="45.8"/>
		<path class="st1" d="M1.4,1h43.1v54.1H1.4V1L1.4,1z M11.8,46.9V10.9h10.6c3.7,0,6.6,0.8,8.7,2.5c2.1,1.6,3.1,4.1,3.1,7.4
			c0,1.7-0.4,3.2-1.1,4.6c-0.8,1.3-1.9,2.3-3.4,3c1.9,0.4,3.3,1.4,4.2,2.9c0.9,1.5,1.4,3.2,1.4,5.2c0,3.4-1,6.1-3,7.9
			c-2,1.8-4.8,2.7-8.5,2.7H11.8L11.8,46.9z M18.3,31v10.3h5c1.5,0,2.6-0.4,3.3-1.2c0.7-0.8,1.1-2.1,1.1-3.7c0-1.7-0.3-3-0.9-4
			c-0.6-0.9-1.6-1.4-3-1.4H18.3L18.3,31z M18.3,26.1h3.9c1.4,0,2.5-0.4,3.3-1.3c0.8-0.8,1.2-2,1.2-3.5c0-1.7-0.4-2.9-1.2-3.7
			c-0.8-0.8-2-1.2-3.6-1.2h-3.6V26.1L18.3,26.1z"/>
	</g>
</g>
</svg>
