<?xml version="1.0" encoding="utf-8"?>
<!-- Generator: Adobe Illustrator 22.1.0, SVG Export Plug-In . SVG Version: 6.00 Build 0)  -->
<svg version="1.1" id="Слой_1" xmlns="http://www.w3.org/2000/svg" xmlns:xlink="http://www.w3.org/1999/xlink" x="0px" y="0px"
	 viewBox="0 0 46.5 55.8" style="enable-background:new 0 0 46.5 55.8;" xml:space="preserve">
<style type="text/css">
	.st0{fill:#C2C1C0;}
</style>
<g>
	<path class="st0" d="M32.3,44.3c2-1.8,3-4.4,3-7.9c0-2-0.5-3.7-1.4-5.2c-0.9-1.5-2.3-2.5-4.2-2.9c1.5-0.7,2.7-1.7,3.4-3
		c0.8-1.3,1.1-2.9,1.1-4.6c0-3.3-1-5.7-3.1-7.4c-2.1-1.6-5-2.5-8.7-2.5H11.8v36.1h12C27.5,46.9,30.3,46,32.3,44.3z M18.3,16.5h3.6
		c1.6,0,2.8,0.4,3.6,1.2c0.8,0.8,1.2,2,1.2,3.7c0,1.5-0.4,2.7-1.2,3.5c-0.8,0.8-1.9,1.2-3.3,1.3h-3.9V16.5z M18.3,41.3V31h5.5
		c1.4,0,2.4,0.5,3,1.4c0.6,0.9,0.9,2.2,0.9,4c0,1.6-0.4,2.9-1.1,3.7c-0.7,0.8-1.8,1.2-3.3,1.2H18.3z"/>
	<path class="st0" d="M1.4,1v54.1h43.1V1H1.4z M39.7,52.1H5.5V6.3h34.2V52.1z"/>
</g>
</svg>
