<?xml version="1.0" encoding="utf-8"?>
<!-- Generator: Adobe Illustrator 22.1.0, SVG Export Plug-In . SVG Version: 6.00 Build 0)  -->
<svg version="1.1" id="Layer_1" xmlns="http://www.w3.org/2000/svg" xmlns:xlink="http://www.w3.org/1999/xlink" x="0px" y="0px"
	 viewBox="0 0 208.5 65.6" style="enable-background:new 0 0 208.5 65.6;" xml:space="preserve">
<style type="text/css">
	.st0{fill:#53B3DC;}
	.st1{fill:#9D9D9E;}
</style>
<path class="st0" d="M7.8,4v9.2c0.8-1.4,2.1-2.6,3.7-3.6c1.4-0.8,3.1-1.1,5-1.1c3.6,0,6.5,1.5,8.8,4.5s3.4,6.8,3.4,11.6
	c0,4.7-1.1,8.6-3.4,11.6c-1.1,1.5-2.7,2.5-4.6,3.1s-3.9,1-5.8,1c-3.7,0-7.1-1-10.2-2.9C1.6,35.4,0,31.7,0,26.3V0.1h3.9
	c1.1,0,2,0.4,2.7,1.1C7.4,2,7.8,2.9,7.8,4z M20.8,24.1c0-2.7-0.6-4.9-1.7-6.4c-1.1-1.6-2.7-2.4-4.7-2.4c-2.1,0-3.8,0.8-4.9,2.3
	c-1.1,1.6-1.7,3.8-1.7,6.5c0,3.2,0.5,5.5,1.6,7c1.1,1.6,2.7,2.4,4.8,2.4s3.8-0.8,4.9-2.4C20.3,29.5,20.8,27.2,20.8,24.1z"/>
<path class="st0" d="M31.9,0.2H36c1.1,0,2,0.4,2.7,1.1C39.6,2,39.9,2.9,39.9,4v35.6h-8C31.9,39.6,31.9,0.2,31.9,0.2z"/>
<path class="st0" d="M69.4,9.1V27c0,5.4-1.4,9-4.2,10.7c-2.8,1.7-5.9,2.5-9.3,2.5c-3.3-0.2-6.3-1.1-9-2.7c-2.7-1.7-4.1-5.2-4.1-10.4
	v-18h8v19.5c0,1.8,0.5,3.2,1.6,4c1.1,0.8,2.3,1.3,3.7,1.3s2.6-0.4,3.7-1.3c1.1-0.8,1.7-2.2,1.7-4V13c0-1.1,0.4-2,1.1-2.7
	c0.7-0.8,1.7-1.1,2.8-1.1L69.4,9.1L69.4,9.1z"/>
<path class="st0" d="M93.3,30.2H99c-0.8,3.2-2.4,5.7-4.8,7.3c-2.4,1.8-5.3,2.6-8.9,2.6c-4.4,0-7.8-1.4-10.2-4.2
	c-2.4-2.7-3.7-6.7-3.7-11.8c0-4.9,1.2-8.7,3.6-11.5s5.8-4.2,10.2-4.2c4.6,0,8.1,1.4,10.7,4.1c2.4,2.8,3.7,6.8,3.7,11.8
	c0,0.3,0,0.6,0,0.8s0,0.4,0,0.5c0,0.4,0,0.6-0.1,0.8h-20c0.1,2.4,0.6,4.1,1.7,5.3c1,1.2,2.5,1.8,4.5,1.8c1.3,0,2.4-0.3,3.3-0.8
	c0.2-0.1,0.4-0.2,0.6-0.4s0.4-0.4,0.6-0.6c0.1-0.2,0.4-0.5,0.9-0.9C91.6,30.4,92.4,30.2,93.3,30.2z M79.5,21.3h11.7
	c-0.2-2.1-0.7-3.6-1.6-4.6c-1-1.1-2.4-1.6-4.2-1.6c-1.7,0-3.1,0.5-4.1,1.6C80.2,17.7,79.6,19.3,79.5,21.3z"/>
<path class="st1" d="M110,46.9c0,1.1-0.4,2-1.1,2.7c-0.8,0.8-1.7,1.1-2.7,1.1h-3.9V22.3c0-5.3,1.6-9,4.7-10.9s6.5-2.9,10.2-2.9
	c1.9,0,3.8,0.4,5.8,1.1c1.9,0.7,3.5,1.8,4.6,3.1c2.3,3,3.4,6.8,3.4,11.5c0,4.8-1.1,8.7-3.4,11.7c-2.3,2.9-5.2,4.4-8.8,4.4
	c-1.9,0-3.6-0.3-5-1c-1.5-0.8-2.7-1.9-3.7-3.6L110,46.9L110,46.9z M123,24.5c0-3-0.6-5.3-1.7-6.9s-2.8-2.4-4.9-2.4s-3.7,0.8-4.8,2.4
	c-1.1,1.5-1.6,3.7-1.6,6.9c0,2.9,0.6,5.1,1.7,6.5c1.1,1.6,2.8,2.4,4.9,2.4c2,0,3.6-0.8,4.7-2.4C122.5,29.4,123,27.2,123,24.5z"/>
<path class="st1" d="M133.8,39.6V24.8c0-3,0.4-5.5,1.3-7.5c0.9-2,2.1-3.6,3.6-4.9c1.4-1.1,3.1-2,5.1-2.5c1.9-0.5,4-0.8,6-0.8
	c0.2,0,0.3,0,0.6,0c0.2,0,0.4,0,0.6,0v8.1h-2.6c-2.2,0-3.9,0.5-4.9,1.6c-1.1,1.1-1.6,2.7-1.6,5v15.7L133.8,39.6L133.8,39.6z"/>
<path class="st1" d="M153.9,0.2h4.1c1.1,0,2,0.4,2.7,1.1c0.8,0.8,1.1,1.7,1.1,2.7v2.4h-8L153.9,0.2L153.9,0.2z M153.9,9.1h4.1
	c1.1,0,2,0.4,2.7,1.1c0.8,0.8,1.1,1.7,1.1,2.7v26.6h-8L153.9,9.1L153.9,9.1z"/>
<path class="st1" d="M190.3,39.6h-4c-1.1,0-2.1-0.4-2.8-1.1c-0.7-0.7-1.1-1.7-1.1-2.8V20.1c0-1.8-0.6-3.2-1.7-4
	c-1.1-0.8-2.3-1.3-3.7-1.3s-2.6,0.4-3.7,1.3c-1.1,0.8-1.6,2.2-1.6,4v19.5h-8V21.7c0-5.2,1.4-8.7,4.1-10.4c2.7-1.8,5.7-2.7,9-2.9
	c3.4,0,6.5,0.9,9.3,2.6c2.8,1.8,4.2,5.3,4.2,10.7V39.6z"/>
<path class="st1" d="M206.5,39.6c-2.5,0.2-5.3,0.1-8.2-0.1c-2.9-0.2-4.4-2.1-4.4-5.6V0.2h4.1c1,0,1.9,0.4,2.6,1.1
	c0.8,0.8,1.1,1.7,1.1,2.7v5.2h4.7v1.6c0,1.1-0.4,2.1-1.1,2.8c-0.8,0.7-1.7,1.1-2.7,1.1h-0.8v17c0,1.3,0.8,1.9,2.3,1.9h2.4
	L206.5,39.6L206.5,39.6z"/>
<path class="st1" d="M122.9,65.6c-5.2,0-9.4-4-9.4-9.2c0-5.3,4.3-9.1,9.4-9.1c3.8,0,7.7,2.5,8.8,6.2h-5.1c-0.8-1.5-2.2-2.3-3.9-2.3
	c-2.9,0-4.8,2.3-4.8,5.1c0,2.9,1.8,5.3,4.8,5.3c1.9,0,3.7-0.9,4.2-2.8h-5.3v-3.6h10.5c0,0.3,0,0.6,0,0.9
	C132.3,61.6,128.3,65.6,122.9,65.6z"/>
<path class="st1" d="M143.1,65.2l-0.9-2.5h-6.1l-0.9,2.5h-4.8l7.1-17.6h3.5l7,17.6H143.1z M139.3,53.1L139.3,53.1L139.3,53.1l-1.9,6
	h3.7L139.3,53.1z"/>
<path class="st1" d="M162.6,65.2l0.1-13.2l0,0L159,65.2h-3L152.2,52l0,0l0.1,13.2h-4.1V47.6h5.8l3.5,11.6l0,0l3.5-11.6h5.8v17.6
	H162.6z"/>
<path class="st1" d="M168.3,65.2V47.6h4.5v17.6H168.3z"/>
<path class="st1" d="M185.3,65.2l-6.7-10.7l0,0l0.1,10.7h-4.3V47.6h3.9l6.8,11.1l0,0l-0.2-11h4.3v17.6L185.3,65.2L185.3,65.2z"/>
<path class="st1" d="M199.3,65.6c-5.2,0-9.4-4-9.4-9.2c0-5.3,4.3-9.1,9.4-9.1c3.8,0,7.7,2.5,8.8,6.2H203c-0.8-1.5-2.2-2.3-3.9-2.3
	c-2.9,0-4.8,2.3-4.8,5.1c0,2.9,1.8,5.3,4.8,5.3c1.9,0,3.7-0.9,4.2-2.8H198v-3.6h10.5c0,0.3,0,0.6,0,0.9
	C208.7,61.6,204.7,65.6,199.3,65.6z"/>
</svg>
