<svg xmlns="http://www.w3.org/2000/svg" viewBox="0 0 89.03 29.58"><defs><style>.cls-1{fill:#fff;}.cls-2{fill:#ec1c24;}</style></defs><title>BG</title><g id="Layer_2" data-name="Layer 2"><g id="Layer_1-2" data-name="Layer 1"><path class="cls-1" d="M20.57,22.66h4.65v5.52a6.82,6.82,0,0,1-2.14,1.07,8.48,8.48,0,0,1-2.37.33,8.32,8.32,0,0,1-2.94-.5,7,7,0,0,1-2.27-1.4,6.21,6.21,0,0,1-1.45-2.12,6.89,6.89,0,0,1-.51-2.66A7.31,7.31,0,0,1,14,20.21a6,6,0,0,1,1.39-2.11,6.22,6.22,0,0,1,2.18-1.39,8.05,8.05,0,0,1,2.86-.49,8.29,8.29,0,0,1,1.53.14,7.05,7.05,0,0,1,1.32.36,5.76,5.76,0,0,1,1.11.56,5.38,5.38,0,0,1,.9.7l-.88,1.34a.83.83,0,0,1-.53.38.92.92,0,0,1-.71-.16c-.24-.14-.46-.27-.68-.37a3.67,3.67,0,0,0-.65-.26,4.82,4.82,0,0,0-.7-.14,6.68,6.68,0,0,0-.82-.05,3.81,3.81,0,0,0-1.54.3,3.52,3.52,0,0,0-1.16.85,4,4,0,0,0-.74,1.32,5.38,5.38,0,0,0-.26,1.71,5.57,5.57,0,0,0,.29,1.85,3.85,3.85,0,0,0,.81,1.36A3.55,3.55,0,0,0,19,27a4.61,4.61,0,0,0,2.61.18,5.44,5.44,0,0,0,.86-.29v-2H21.18a.64.64,0,0,1-.45-.15.53.53,0,0,1-.16-.39Z"/><path class="cls-1" d="M38.79,29.44H36.44a1,1,0,0,1-.64-.18,1.27,1.27,0,0,1-.37-.48l-.77-2.28h-5l-.77,2.28a1.19,1.19,0,0,1-.36.46,1,1,0,0,1-.63.2H25.56l5.06-13.08h3.11Zm-4.82-5-1.21-3.58c-.09-.23-.19-.49-.29-.8s-.2-.64-.3-1c-.09.36-.19.7-.29,1s-.2.58-.29.81l-1.2,3.56Z"/><path class="cls-1" d="M54.52,16.36V29.44H51.85V21.92c0-.17,0-.36,0-.57s0-.41,0-.62l-3.47,6.73a1.15,1.15,0,0,1-1.06.63H47a1.15,1.15,0,0,1-1.06-.63l-3.47-6.74c0,.21,0,.42,0,.63s0,.4,0,.57v7.52H39.82V16.36h2.66a1.07,1.07,0,0,1,.27.06.64.64,0,0,1,.21.14,1.17,1.17,0,0,1,.18.26l3.37,6.63c.12.23.23.47.34.71s.22.5.32.76c.1-.27.21-.53.32-.78s.23-.49.35-.71l3.36-6.61a1.17,1.17,0,0,1,.18-.26.64.64,0,0,1,.21-.14,1.07,1.07,0,0,1,.27-.06h2.66Z"/><path class="cls-1" d="M60.1,18.7v3.05h4.11V24H60.1v3.12h5.37v2.33H57.05V16.36h8.42V18.7Z"/><path class="cls-1" d="M74.56,19a1.15,1.15,0,0,1-.29.32.56.56,0,0,1-.38.11.91.91,0,0,1-.44-.13L72.91,19a3.67,3.67,0,0,0-.69-.29,2.63,2.63,0,0,0-.88-.13,1.88,1.88,0,0,0-1.26.36,1.23,1.23,0,0,0-.42,1,.89.89,0,0,0,.25.66,2.39,2.39,0,0,0,.66.45,7.06,7.06,0,0,0,.93.34c.35.11.71.22,1.07.35a8.54,8.54,0,0,1,1.08.46,3.41,3.41,0,0,1,.93.66,3.25,3.25,0,0,1,.66,1,3.47,3.47,0,0,1,.25,1.4,4.49,4.49,0,0,1-.31,1.69,4,4,0,0,1-.91,1.38,4.35,4.35,0,0,1-1.48.93,5.55,5.55,0,0,1-2,.33,6.78,6.78,0,0,1-1.25-.12,7.15,7.15,0,0,1-1.22-.36,6.35,6.35,0,0,1-1.11-.54,4.66,4.66,0,0,1-.91-.7l.9-1.42a.76.76,0,0,1,.28-.25.73.73,0,0,1,.38-.11,1,1,0,0,1,.54.17l.62.38a5.43,5.43,0,0,0,.8.38,3.06,3.06,0,0,0,1.06.17,2,2,0,0,0,1.28-.37,1.39,1.39,0,0,0,.46-1.15,1.12,1.12,0,0,0-.25-.74,1.94,1.94,0,0,0-.66-.48,5.62,5.62,0,0,0-.93-.33c-.35-.1-.71-.2-1.07-.32a8.24,8.24,0,0,1-1.07-.43,3.61,3.61,0,0,1-.93-.67,3.31,3.31,0,0,1-.66-1,4.32,4.32,0,0,1-.25-1.54,3.65,3.65,0,0,1,.3-1.44A3.81,3.81,0,0,1,68,17.42a4.32,4.32,0,0,1,1.41-.87,5.13,5.13,0,0,1,1.91-.33,7.49,7.49,0,0,1,1.17.09,7.11,7.11,0,0,1,1.08.28,7,7,0,0,1,1,.44,4.74,4.74,0,0,1,.79.58Z"/><path class="cls-2" d="M4.81.14A9.6,9.6,0,0,1,7.12.39a4.55,4.55,0,0,1,1.55.71,2.69,2.69,0,0,1,.87,1.12,3.59,3.59,0,0,1,.28,1.46,2.7,2.7,0,0,1-.13.85,2.39,2.39,0,0,1-.39.76,3.08,3.08,0,0,1-.69.65,4.22,4.22,0,0,1-1,.51,3.59,3.59,0,0,1,1.91,1,2.59,2.59,0,0,1,.62,1.81,3.8,3.8,0,0,1-.32,1.55,3.5,3.5,0,0,1-1,1.25,4.38,4.38,0,0,1-1.54.84,6.67,6.67,0,0,1-2.09.3H0V.14ZM3,2.41V5.64H4.61a5,5,0,0,0,.91-.07,1.94,1.94,0,0,0,.69-.25,1.21,1.21,0,0,0,.43-.49A2,2,0,0,0,6.78,4a2.22,2.22,0,0,0-.11-.78,1.22,1.22,0,0,0-.36-.5,1.69,1.69,0,0,0-.62-.27,4.41,4.41,0,0,0-.88-.08Zm2.14,8.52a2.69,2.69,0,0,0,1-.15,1.58,1.58,0,0,0,.6-.4A1.29,1.29,0,0,0,7,9.84a2.21,2.21,0,0,0,.09-.62A2.16,2.16,0,0,0,7,8.57a1,1,0,0,0-.32-.48,1.46,1.46,0,0,0-.61-.31,3.59,3.59,0,0,0-.95-.11H3v3.26Z"/><path class="cls-2" d="M56,.14V13.22H53.28V5.7c0-.18,0-.36,0-.57s0-.41.05-.62l-3.47,6.73a1.25,1.25,0,0,1-.44.47,1.17,1.17,0,0,1-.62.16h-.42a1.17,1.17,0,0,1-.62-.16,1.15,1.15,0,0,1-.43-.47L43.86,4.5c0,.21,0,.42,0,.63s0,.39,0,.57v7.52H41.25V.14h2.66a1.07,1.07,0,0,1,.27.06.55.55,0,0,1,.21.14,1.17,1.17,0,0,1,.18.26l3.37,6.63c.12.23.23.47.34.71s.22.5.32.75c.1-.26.21-.52.32-.77s.23-.49.35-.72L52.63.61a1.17,1.17,0,0,1,.18-.26A.59.59,0,0,1,53,.21a.91.91,0,0,1,.26-.06H56Z"/><path class="cls-2" d="M61.53,13.22H58.48V.14h3.05Z"/><path class="cls-2" d="M75.48.14V13.22H73.9a1.44,1.44,0,0,1-.59-.11,1.5,1.5,0,0,1-.47-.39l-6.17-7.8c0,.23,0,.46,0,.68s0,.42,0,.61v7H64.06V.14h1.6l.33,0a.84.84,0,0,1,.24.07.7.7,0,0,1,.21.14,2.76,2.76,0,0,1,.23.24l6.21,7.85c0-.25,0-.49-.06-.73s0-.46,0-.67V.14Z"/><path class="cls-2" d="M84.29,6.44h4.65V12A6.93,6.93,0,0,1,86.8,13a8.5,8.5,0,0,1-2.38.33,8.18,8.18,0,0,1-2.94-.51,6.59,6.59,0,0,1-2.26-1.4,6.08,6.08,0,0,1-1.45-2.11,6.71,6.71,0,0,1-.52-2.66A7.31,7.31,0,0,1,77.74,4a6,6,0,0,1,1.38-2.11A6.26,6.26,0,0,1,81.31.49,7.82,7.82,0,0,1,84.16,0,8.34,8.34,0,0,1,85.7.13,7.9,7.9,0,0,1,87,.5a6.07,6.07,0,0,1,1.11.56,6.35,6.35,0,0,1,.9.7L88.15,3.1a.85.85,0,0,1-.54.38.91.91,0,0,1-.7-.16c-.24-.14-.47-.27-.68-.37a4,4,0,0,0-.65-.26,4.82,4.82,0,0,0-.7-.14,6.68,6.68,0,0,0-.82,0,3.81,3.81,0,0,0-1.54.3,3.39,3.39,0,0,0-1.16.85A3.87,3.87,0,0,0,80.62,5a5.38,5.38,0,0,0-.26,1.71,5.32,5.32,0,0,0,.29,1.85,3.85,3.85,0,0,0,.81,1.36,3.6,3.6,0,0,0,1.25.85,4.45,4.45,0,0,0,1.62.29,4.37,4.37,0,0,0,1-.11,5.44,5.44,0,0,0,.86-.29v-2H84.9a.64.64,0,0,1-.45-.15.5.5,0,0,1-.16-.39Z"/><path class="cls-2" d="M36.81,7.33a4.21,4.21,0,0,1-4.14,3.44h-.09a3,3,0,0,1-1.41-.33,5.52,5.52,0,0,1-1.53-1c-.33-.25-.8-.75-1.27-1.16L26.78,10a19.59,19.59,0,0,0,1.78,1.59l-.06-.05A6.5,6.5,0,0,0,31.6,13a6,6,0,0,0,1,.09,8.22,8.22,0,0,0,.89-.05A6.53,6.53,0,0,0,39,8.33Z"/><path class="cls-2" d="M29.5,3.8a4.21,4.21,0,0,1,5.83-.51l-1,.72,4.62,2.12-.48-5.06-1.19.84a6.53,6.53,0,0,0-9.63.48h0c-.05.06-3.67,4.49-5.15,5.95l-.25.22,0,0-.32.27-.07.05-.29.23-.07.06-.19.15-.08.05-.08.06-.25.18-.07,0-.24.15-.06,0-.21.13-.07,0-.19.11a5.56,5.56,0,0,1-1.1.48,2.84,2.84,0,0,1-1,.14,4.21,4.21,0,0,1-.08-8.4,4.37,4.37,0,0,1,3.35,1.32c.15.15,1.33,1.41,1.58,1.72.45-.48,1.52-1.74,1.56-1.79-.21-.27-1.1-1.21-1.16-1.28A6.79,6.79,0,0,0,18,.05a6.54,6.54,0,0,0-.35,13.06,8.4,8.4,0,0,0,1,0,7.18,7.18,0,0,0,.8-.15,3.73,3.73,0,0,0,.75-.29l.06,0,.23-.11.11,0,.25-.12.09,0c.23-.12.48-.26.73-.42l.11-.07.28-.19.13-.09.29-.2.12-.09.3-.23L23,11l.05,0,.45-.36.1-.09.35-.31.15-.13.07-.06.26-.24c.05-.05,1.37-1.34,2.26-2.42S28.51,5,29.5,3.8Z"/></g></g></svg>