<?xml version="1.0" encoding="utf-8"?>
<!-- Generator: Adobe Illustrator 22.1.0, SVG Export Plug-In . SVG Version: 6.00 Build 0)  -->
<svg version="1.1" id="Слой_1" xmlns="http://www.w3.org/2000/svg" xmlns:xlink="http://www.w3.org/1999/xlink" x="0px" y="0px"
	 viewBox="0 0 57.3 64" style="enable-background:new 0 0 57.3 64;" xml:space="preserve">
<style type="text/css">
	.st0{fill:#C2C1C0;}
	.st1{fill:url(#SVGID_1_);}
	.st2{fill:url(#SVGID_2_);}
</style>
<path class="st0" d="M-239.9-43.7c-0.3-0.4-0.7-0.7-1-1.1c-2.6-2.7-5.8-4.1-9.4-4.1s-6.9,1.3-9.5,4.1c-0.3,0.3-0.6,0.7-0.9,1.1
	c-1.7,2.1-2.6,4.4-2.9,7.1c-0.1,0.5-0.1,1.1-0.1,1.6c0,3.3,1,6.2,3,8.7c0.3,0.4,0.6,0.7,0.9,1.1c2.6,2.7,5.8,4.1,9.5,4.1
	s6.8-1.4,9.4-4.1c0.3-0.3,0.7-0.7,1-1.1c2-2.5,2.9-5.4,2.9-8.7c0-0.5,0-1.1-0.1-1.6C-237.3-39.2-238.3-41.6-239.9-43.7 M-256.8-34.9
	c0-0.6,0-1.1,0.1-1.6c0.2-1.6,0.8-3.1,1.8-4.3c1.2-1.6,2.7-2.4,4.5-2.4s3.3,0.8,4.5,2.4c1,1.2,1.6,2.7,1.8,4.3
	c0.1,0.5,0.1,1,0.1,1.6c0,2.3-0.6,4.2-1.9,5.8c-1.2,1.6-2.7,2.4-4.5,2.4s-3.3-0.8-4.5-2.4C-256.1-30.7-256.8-32.6-256.8-34.9
	 M-216.8-34.9c0-0.5,0-1.1-0.1-1.6c-0.3-3.2-1.6-5.9-3.8-8.2c-2.5-2.6-5.5-4-9-4.1h-0.3c-0.8,0-1.5,0.3-2,0.9
	c-0.6,0.6-0.9,1.3-0.9,2.1c0,0.8,0.3,1.5,0.9,2.1c0.4,0.4,0.9,0.7,1.5,0.8c0.2,0,0.4-0.1,0.6-0.1s0.4,0,0.7,0.1
	c1.4,0.2,2.6,0.9,3.7,2.3c0.9,1.2,1.5,2.5,1.8,4.1c0.1,0.5,0.1,1,0.1,1.6c0,2.2-0.6,4-1.8,5.6c-1.1,1.4-2.3,2.2-3.8,2.3
	c-0.1,0-0.3,0-0.5,0s-0.3,0-0.4,0c-0.6,0.1-1.2,0.4-1.7,0.9c-0.4,0.4-0.7,0.9-0.8,1.5c0,0.2-0.1,0.4-0.1,0.6v0.1
	c0,0.2,0,0.4,0.1,0.6c0.1,0.6,0.4,1.1,0.8,1.5c0.6,0.6,1.2,0.9,2,0.9h0.3c3.5-0.1,6.5-1.4,9-4.1C-218.1-27.9-216.8-31.1-216.8-34.9
	 M-191.4-46.2c-0.8-0.8-1.7-1.4-2.6-1.8c-1.3-0.6-2.7-0.9-4.2-0.9c-2.7,0-4.9,0.9-6.8,2.8c-0.2,0.2-0.5,0.5-0.7,0.7
	c0-0.9-0.4-1.6-1.1-2.3c-0.7-0.6-1.4-1-2.3-1c-0.9,0-1.8,0.3-2.4,1c-0.6,0.7-0.9,1.5-0.9,2.4v20.8c0,0.9,0.3,1.7,0.9,2.3
	c0.7,0.7,1.5,1,2.4,1s1.7-0.3,2.3-1c0.7-0.6,1.1-1.4,1.1-2.3v-14.1c0-1.4,0.5-2.5,1.5-3.4c1-1,2.2-1.5,3.6-1.5
	c1.4,0,2.6,0.5,3.6,1.5c0.6,0.6,1.1,1.2,1.3,2l0.2,0.7c0,0.2,0,0.5,0,0.8v14.1c0,0.9,0.3,1.7,0.9,2.3c0.7,0.7,1.5,1,2.5,1
	c0.9,0,1.7-0.3,2.3-1c0.7-0.6,1-1.4,1-2.3v-14.4c0-0.1,0-0.2,0-0.3v-0.4C-188.6-42.2-189.5-44.4-191.4-46.2 M-158.2-45.3
	c0-0.9-0.3-1.7-1-2.4c-0.7-0.6-1.5-1-2.3-1c-0.9,0-1.8,0.3-2.5,1c-0.6,0.7-0.9,1.5-0.9,2.4v0.1c-2.2-2.4-4.8-3.6-8-3.6s-6,1.3-8.3,4
	c-1.5,1.7-2.5,3.7-3,5.9c-0.2,0.8-0.3,1.6-0.4,2.4c0,0.5-0.1,0.9-0.1,1.4s0,1.1,0.1,1.6c0.1,1.6,0.5,3.1,1.1,4.4
	c0.5,1.3,1.3,2.6,2.3,3.6c0.8,0.9,1.7,1.7,2.5,2.4c1.7,1.1,3.7,1.7,5.8,1.7c3.1,0,5.7-1.2,7.9-3.5c0-0.1,0.1-0.1,0.1-0.1v3.6
	c0,0.1,0,0.2,0,0.4c-0.3,1.1-0.9,2-1.8,2.8c-1.4,1.3-3,1.9-4.9,1.9s-3.5-0.6-4.9-1.9c-0.3-0.3-0.6-0.5-0.8-0.8l-0.1-0.1
	c0,0-0.1-0.2-0.2-0.4c-0.2-0.2-0.4-0.4-0.7-0.8c-0.3-0.3-0.5-0.5-0.8-0.6c-0.2-0.2-0.6-0.3-1.3-0.3c-0.8,0-1.5,0.3-2.1,0.9
	c-0.4,0.4-0.7,0.9-0.8,1.5v0.1c0,0.2-0.1,0.4-0.1,0.6s0,0.3,0.1,0.4c0,0.1,0,0.3,0.2,0.6c0.1,0.3,0.1,0.5,0.3,0.6
	c0.1,0.1,0.2,0.3,0.4,0.5c0.4,0.5,0.9,1,1.4,1.5c2.6,2.5,5.8,3.7,9.5,3.7s6.9-1.2,9.5-3.7c1.7-1.5,2.8-3.3,3.4-5.3
	c0.2-0.8,0.4-1.6,0.5-2.4L-158.2-45.3 M-174.9-41.4C-174.9-41.4-174.9-41.5-174.9-41.4c1.2-1.4,2.4-2,3.8-2c1.7,0,3.1,0.8,4.3,2.5
	c0.9,1.3,1.5,2.7,1.8,4.4c0,0.5,0,0.9,0,1.4c0,0.3,0,0.6,0,0.9c-0.1,1.9-0.7,3.6-1.8,4.9c-0.3,0.4-0.6,0.8-0.9,1.1
	c-1,0.9-2.1,1.3-3.3,1.3c-1.4,0-2.6-0.6-3.7-1.8c-0.2-0.2-0.4-0.4-0.6-0.6c-1.1-1.5-1.7-3.3-1.8-5.4c0-0.1,0-0.3,0-0.4
	c0-0.5,0-1,0.1-1.4c0.2-1.7,0.7-3.1,1.6-4.4C-175.2-41.1-175.1-41.3-174.9-41.4 M-131.9-44.8c-0.9-1-1.9-1.8-3-2.4
	c-1.9-1.1-4.1-1.7-6.5-1.7c-3.7,0-6.9,1.4-9.5,4.1c-2.2,2.3-3.5,5.1-3.8,8.3c-0.1,0.5-0.1,1-0.1,1.6c0,3.8,1.3,7.1,3.9,9.8
	c2.6,2.7,5.8,4.1,9.5,4.1c2.4,0,4.6-0.6,6.5-1.7c1.1-0.6,2-1.4,3-2.4c2.6-2.7,3.9-5.9,3.9-9.8c0-0.5,0-1.1,0-1.6
	C-128.3-39.7-129.6-42.5-131.9-44.8 M-135-36.6c0.1,0.5,0.1,1,0.1,1.6c0,2.3-0.6,4.3-1.9,5.8c-1.2,1.6-2.7,2.5-4.5,2.5
	s-3.3-0.8-4.5-2.5c-1.2-1.6-1.9-3.6-1.9-5.8c0-0.5,0-1.1,0.1-1.6c0.2-1.6,0.8-3.1,1.8-4.4c1.2-1.6,2.7-2.4,4.5-2.4s3.3,0.8,4.5,2.4
	C-135.9-39.6-135.3-38.2-135-36.6 M-361.1-36.1c-0.2,0-0.3,0-0.4,0.1c-0.6,0.1-1.2,0.3-1.7,0.8c-0.6,0.6-0.9,1.3-0.9,2.1
	c0,0.8,0.3,1.5,0.9,2.1c0.5,0.5,1.1,0.8,1.8,0.9c0.1,0,0.3,0,0.4,0c0.8,0,1.5-0.3,2.1-0.9c0.6-0.6,0.9-1.3,0.9-2.1
	c0-0.8-0.3-1.5-0.9-2.1C-359.6-35.8-360.3-36.1-361.1-36.1 M-344.9-39.6c-0.5-0.8-1-1.5-1.7-2.1c-2.3-2.4-5.1-3.6-8.3-3.6
	c-1.9,0-3.6,0.4-5.2,1.2v-9.8c0-0.8-0.3-1.5-0.9-2.1c-0.6-0.5-1.2-0.8-2-0.8c-0.8,0-1.5,0.3-2.1,0.8c-0.5,0.6-0.8,1.3-0.8,2.1v11.4
	v0.3c0,0.6,0.3,1.2,0.8,1.7c0.1,0.1,0.3,0.3,0.4,0.4c0.4,0.3,0.8,0.4,1.3,0.5h0.3c2.9-0.2,5.8-0.2,8.6,0c1.2,0.3,2.2,0.9,3.1,1.8
	c0.1,0.1,0.2,0.2,0.3,0.3c1.1,1.2,1.7,2.7,1.7,4.4c0,1.8-0.6,3.4-1.9,4.6c-0.7,0.7-1.4,1.2-2.1,1.5l-9.6,0.4c-0.6,0-1.2,0.2-1.6,0.5
	c-0.1,0.1-0.3,0.2-0.4,0.3c-0.6,0.6-0.9,1.3-0.9,2.1c0,0.8,0.3,1.4,0.9,2c0.6,0.6,1.2,0.9,2,0.9h-0.5c4.8,0.1,7.6,0.1,8.4,0.1
	c3.4-0.1,6.2-1.3,8.5-3.8c0.3-0.3,0.6-0.7,0.9-1c0.3-0.3,0.5-0.7,0.8-1.1c0,0,0-0.1,0.1-0.1c1.2-1.9,1.8-4.1,1.8-6.5
	c0-1.6-0.2-3-0.8-4.4C-344.2-38.2-344.5-38.9-344.9-39.6 M-290.1-44.9c-2.3-2.7-5.1-4-8.3-4c-3.1,0-5.8,1.2-8,3.6v-9.6
	c0-0.9-0.3-1.7-1-2.4c-0.7-0.6-1.4-0.9-2.4-0.9c-0.9,0-1.8,0.3-2.4,0.9c-0.6,0.7-0.9,1.5-0.9,2.4v30.4c0,0.9,0.3,1.7,0.9,2.3
	c0.7,0.7,1.5,1,2.4,1s1.7-0.3,2.4-1c0.7-0.6,1-1.4,1-2.3v-0.6c2.2,2.4,4.9,3.7,8,3.7c3.2,0,6-1.4,8.3-4.1c2.3-2.7,3.5-5.9,3.5-9.7
	c0-0.5,0-0.9-0.1-1.4C-286.9-39.8-288.1-42.6-290.1-44.9 M-296-41.1c0.9,1.3,1.5,2.8,1.7,4.5c0,0.4,0.1,0.9,0.1,1.4
	c0,2.3-0.6,4.2-1.8,5.8c-1.2,1.6-2.6,2.5-4.2,2.5c-1.7,0-3.1-0.8-4.3-2.5c-1.2-1.6-1.8-3.5-1.8-5.8c0-0.5,0-0.9,0.1-1.4
	c0.2-1.7,0.7-3.2,1.7-4.5c1.1-1.6,2.5-2.4,4.3-2.4C-298.6-43.5-297.2-42.7-296-41.1 M-270.9-48.8h-0.3c-3.5,0.1-6.5,1.4-9,4.1
	c-2.2,2.3-3.4,5-3.8,8.2c-0.1,0.5-0.1,1.1-0.1,1.6c0,3.8,1.3,7.1,3.8,9.8c2.5,2.7,5.5,4,9,4.1h0.3c0.8,0,1.4-0.3,2-0.9
	c0.4-0.4,0.7-0.9,0.8-1.5c0-0.2,0.1-0.4,0.1-0.6v-0.1c0-0.2,0-0.4-0.1-0.6c-0.1-0.6-0.4-1.1-0.8-1.5c-0.5-0.5-1.1-0.8-1.7-0.9
	c-0.1,0-0.3,0-0.4,0s-0.3,0-0.4,0c-0.4-0.1-0.8-0.1-1.2-0.3c-1-0.4-1.9-1.1-2.7-2.1c-1.2-1.5-1.8-3.4-1.8-5.6c0-0.5,0-1.1,0.1-1.6
	c0.2-1.5,0.8-2.9,1.8-4.1c1-1.3,2.3-2.1,3.7-2.3c0.2,0,0.4,0.1,0.6,0.1c0.2,0,0.4,0,0.6-0.1c0.6-0.1,1.1-0.4,1.5-0.8
	c0.6-0.6,0.9-1.3,0.9-2.1c0-0.8-0.3-1.6-0.9-2.1C-269.4-48.5-270.1-48.8-270.9-48.8 M-355.5-68.7c-0.6,0-1.2-0.1-1.9-0.1
	c-4.9,0-9.3,1-13.4,3c-2.9,1.4-5.7,3.4-8.2,5.9c-0.1,0.1-0.3,0.3-0.4,0.4c-0.2,0.3-0.5,0.5-0.7,0.8c-0.3,0.5-0.5,1-0.5,1.6
	c0,0.8,0.3,1.5,0.9,2.1s1.3,0.9,2.1,0.9c0.6,0,1.1-0.1,1.5-0.4c0.4-0.4,0.8-0.9,1.2-1.3c1.3-1.3,2.7-2.4,4.1-3.4
	c3.9-2.6,8.4-3.8,13.4-3.8c0.6,0,1.3,0,1.9,0c6,0.4,11.2,2.8,15.6,7.2c4.8,4.8,7.3,10.6,7.3,17.4c0,0.3,0,0.5,0,0.8
	c-0.1,4.1-1.1,7.8-3,11.1c-1.1,2-2.5,3.8-4.3,5.5c-4.8,4.8-10.6,7.3-17.4,7.3c-6.7,0-12.5-2.3-17.3-7c-0.1-0.1-0.1-0.1-0.2-0.2
	c-0.4-0.4-0.8-0.8-1.2-1.2c-0.4-0.2-0.9-0.3-1.4-0.3c-0.8,0-1.5,0.3-2.1,0.8c-0.6,0.6-0.9,1.3-0.9,2.2c0,0.7,0.2,1.3,0.6,1.8
	c0.1,0.2,0.3,0.3,0.5,0.5c0.1,0.2,0.3,0.3,0.4,0.4c6,6,13.1,8.9,21.5,8.9c8.4,0,15.6-3,21.6-8.9c2.9-2.9,5.1-6,6.6-9.4
	c1.5-3.5,2.3-7.3,2.4-11.4c0-0.2,0-0.5,0-0.8c0-4.3-0.8-8.3-2.4-12.1c-1.5-3.5-3.7-6.6-6.6-9.6C-341.3-65.4-347.9-68.4-355.5-68.7z"
	/>
<path class="st0" d="M20.9,33.7c-0.2,0-0.3,0-0.4,0.1c-0.6,0.1-1.2,0.3-1.7,0.8c-0.6,0.6-0.9,1.3-0.9,2.1s0.3,1.5,0.9,2.1
	c0.5,0.5,1.1,0.8,1.8,0.9c0.1,0,0.3,0,0.4,0c0.8,0,1.5-0.3,2.1-0.9c0.6-0.6,0.9-1.3,0.9-2.1s-0.3-1.5-0.9-2.1
	C22.4,34,21.7,33.7,20.9,33.7 M37.1,30.2c-0.5-0.8-1-1.5-1.7-2.1c-2.3-2.4-5.1-3.6-8.3-3.6c-1.9,0-3.6,0.4-5.2,1.2v-9.8
	c0-0.8-0.3-1.5-0.9-2.1c-0.6-0.5-1.2-0.8-2-0.8s-1.5,0.3-2.1,0.8c-0.5,0.6-0.8,1.3-0.8,2.1v11.4v0.3c0,0.6,0.3,1.2,0.8,1.7
	c0.1,0.1,0.3,0.3,0.4,0.4c0.4,0.3,0.8,0.4,1.3,0.5h0.3c2.9-0.2,5.8-0.2,8.6,0c1.2,0.3,2.2,0.9,3.1,1.8c0.1,0.1,0.2,0.2,0.3,0.3
	c1.1,1.2,1.7,2.7,1.7,4.4c0,1.8-0.6,3.4-1.9,4.6c-0.7,0.7-1.4,1.2-2.1,1.5L19,43.2c-0.6,0-1.2,0.2-1.6,0.5c-0.1,0.1-0.3,0.2-0.4,0.3
	c-0.6,0.6-0.9,1.3-0.9,2.1s0.3,1.4,0.9,2s1.2,0.9,2,0.9h-0.5c4.8,0.1,7.6,0.1,8.4,0.1c3.4-0.1,6.2-1.3,8.5-3.8
	c0.3-0.3,0.6-0.7,0.9-1c0.3-0.3,0.5-0.7,0.8-1.1c0,0,0-0.1,0.1-0.1c1.2-1.9,1.8-4.1,1.8-6.5c0-1.6-0.2-3-0.8-4.4
	C37.8,31.6,37.5,30.9,37.1,30.2 M26.5,1.1c-0.6,0-1.2-0.1-1.9-0.1c-4.9,0-9.3,1-13.4,3C8.3,5.4,5.5,7.4,3,9.9
	c-0.1,0.1-0.3,0.3-0.4,0.4c-0.2,0.3-0.5,0.5-0.7,0.8c-0.3,0.5-0.5,1-0.5,1.6c0,0.8,0.3,1.5,0.9,2.1s1.3,0.9,2.1,0.9
	c0.6,0,1.1-0.1,1.5-0.4c0.4-0.4,0.8-0.9,1.2-1.3c1.3-1.3,2.7-2.4,4.1-3.4c3.9-2.6,8.4-3.8,13.4-3.8c0.6,0,1.3,0,1.9,0
	c6,0.4,11.2,2.8,15.6,7.2c4.8,4.8,7.3,10.6,7.3,17.4c0,0.3,0,0.5,0,0.8c-0.1,4.1-1.1,7.8-3,11.1c-1.1,2-2.5,3.8-4.3,5.5
	c-4.8,4.8-10.6,7.3-17.4,7.3c-6.7,0-12.5-2.3-17.3-7C7.3,49,7.3,49,7.2,48.9c-0.4-0.4-0.8-0.8-1.2-1.2c-0.4-0.2-0.9-0.3-1.4-0.3
	c-0.8,0-1.5,0.3-2.1,0.8c-0.6,0.6-0.9,1.3-0.9,2.2c0,0.7,0.2,1.3,0.6,1.8c0.1,0.2,0.3,0.3,0.5,0.5C2.8,52.9,3,53,3.1,53.1
	c6,6,13.1,8.9,21.5,8.9s15.6-3,21.6-8.9c2.9-2.9,5.1-6,6.6-9.4c1.5-3.5,2.3-7.3,2.4-11.4c0-0.2,0-0.5,0-0.8c0-4.3-0.8-8.3-2.4-12.1
	c-1.5-3.5-3.7-6.6-6.6-9.6C40.7,4.4,34.1,1.4,26.5,1.1z"/>
<linearGradient id="SVGID_1_" gradientUnits="userSpaceOnUse" x1="-552.2348" y1="3055.1287" x2="-497.9236" y2="3055.1287" gradientTransform="matrix(1 0 0 1 552.9 -3200)">
	<stop  offset="0" style="stop-color:#68F28B"/>
	<stop  offset="1" style="stop-color:#00FFDE"/>
</linearGradient>
<path class="st1" d="M20.9-142.7c-0.2,0-0.3,0-0.4,0.1c-0.6,0.1-1.2,0.3-1.7,0.8c-0.6,0.6-0.9,1.3-0.9,2.1s0.3,1.5,0.9,2.1
	c0.5,0.5,1.1,0.8,1.8,0.9c0.1,0,0.3,0,0.4,0c0.8,0,1.5-0.3,2.1-0.9c0.6-0.6,0.9-1.3,0.9-2.1s-0.3-1.5-0.9-2.1
	C22.4-142.4,21.7-142.7,20.9-142.7 M37.1-146.2c-0.5-0.8-1-1.5-1.7-2.1c-2.3-2.4-5.1-3.6-8.3-3.6c-1.9,0-3.6,0.4-5.2,1.2v-9.8
	c0-0.8-0.3-1.5-0.9-2.1c-0.6-0.5-1.2-0.8-2-0.8s-1.5,0.3-2.1,0.8c-0.5,0.6-0.8,1.3-0.8,2.1v11.4v0.3c0,0.6,0.3,1.2,0.8,1.7
	c0.1,0.1,0.3,0.3,0.4,0.4c0.4,0.3,0.8,0.4,1.3,0.5h0.3c2.9-0.2,5.8-0.2,8.6,0c1.2,0.3,2.2,0.9,3.1,1.8c0.1,0.1,0.2,0.2,0.3,0.3
	c1.1,1.2,1.7,2.7,1.7,4.4c0,1.8-0.6,3.4-1.9,4.6c-0.7,0.7-1.4,1.2-2.1,1.5l-9.6,0.4c-0.6,0-1.2,0.2-1.6,0.5
	c-0.1,0.1-0.3,0.2-0.4,0.3c-0.6,0.6-0.9,1.3-0.9,2.1c0,0.8,0.3,1.4,0.9,2c0.6,0.6,1.2,0.9,2,0.9h-0.5c4.8,0.1,7.6,0.1,8.4,0.1
	c3.4-0.1,6.2-1.3,8.5-3.8c0.3-0.3,0.6-0.7,0.9-1c0.3-0.3,0.5-0.7,0.8-1.1c0,0,0-0.1,0.1-0.1c1.2-1.9,1.8-4.1,1.8-6.5
	c0-1.6-0.2-3-0.8-4.4C37.8-144.8,37.5-145.5,37.1-146.2 M26.5-175.3c-0.6,0-1.2-0.1-1.9-0.1c-4.9,0-9.3,1-13.4,3
	C8.3-171,5.5-169,3-166.5c-0.1,0.1-0.3,0.3-0.4,0.4c-0.2,0.3-0.5,0.5-0.7,0.8c-0.3,0.5-0.5,1-0.5,1.6c0,0.8,0.3,1.5,0.9,2.1
	c0.6,0.6,1.3,0.9,2.1,0.9c0.6,0,1.1-0.1,1.5-0.4c0.4-0.4,0.8-0.9,1.2-1.3c1.3-1.3,2.7-2.4,4.1-3.4c3.9-2.6,8.4-3.8,13.4-3.8
	c0.6,0,1.3,0,1.9,0c6,0.4,11.2,2.8,15.6,7.2c4.8,4.8,7.3,10.6,7.3,17.4c0,0.3,0,0.5,0,0.8c-0.1,4.1-1.1,7.8-3,11.1
	c-1.1,2-2.5,3.8-4.3,5.5c-4.8,4.8-10.6,7.3-17.4,7.3c-6.7,0-12.5-2.3-17.3-7c-0.1-0.1-0.1-0.1-0.2-0.2c-0.4-0.4-0.8-0.8-1.2-1.2
	c-0.4-0.2-0.9-0.3-1.4-0.3c-0.8,0-1.5,0.3-2.1,0.8c-0.6,0.6-0.9,1.3-0.9,2.2c0,0.7,0.2,1.3,0.6,1.8c0.1,0.2,0.3,0.3,0.5,0.5
	c0.1,0.2,0.3,0.3,0.4,0.4c6,6,13.1,8.9,21.5,8.9s15.6-3,21.6-8.9c2.9-2.9,5.1-6,6.6-9.4c1.5-3.5,2.3-7.3,2.4-11.4c0-0.2,0-0.5,0-0.8
	c0-4.3-0.8-8.3-2.4-12.1c-1.5-3.5-3.7-6.6-6.6-9.6C40.7-172,34.1-175,26.5-175.3z"/>
<linearGradient id="SVGID_2_" gradientUnits="userSpaceOnUse" x1="-936.9061" y1="2967.1914" x2="-681.9061" y2="2967.1914" gradientTransform="matrix(1 0 0 1 552.9 -3200)">
	<stop  offset="0" style="stop-color:#68F28B"/>
	<stop  offset="1" style="stop-color:#00FFDE"/>
</linearGradient>
<path class="st2" d="M-239.9-238.2c-0.3-0.4-0.7-0.7-1-1.1c-2.6-2.7-5.8-4.1-9.4-4.1s-6.9,1.3-9.5,4.1c-0.3,0.3-0.6,0.7-0.9,1.1
	c-1.7,2.1-2.6,4.4-2.9,7.1c-0.1,0.5-0.1,1.1-0.1,1.6c0,3.3,1,6.2,3,8.7c0.3,0.4,0.6,0.7,0.9,1.1c2.6,2.7,5.8,4.1,9.5,4.1
	s6.8-1.4,9.4-4.1c0.3-0.3,0.7-0.7,1-1.1c2-2.5,2.9-5.4,2.9-8.7c0-0.5,0-1.1-0.1-1.6C-237.3-233.7-238.3-236.1-239.9-238.2
	 M-256.8-229.4c0-0.6,0-1.1,0.1-1.6c0.2-1.6,0.8-3.1,1.8-4.3c1.2-1.6,2.7-2.4,4.5-2.4s3.3,0.8,4.5,2.4c1,1.2,1.6,2.7,1.8,4.3
	c0.1,0.5,0.1,1,0.1,1.6c0,2.3-0.6,4.2-1.9,5.8c-1.2,1.6-2.7,2.4-4.5,2.4s-3.3-0.8-4.5-2.4C-256.1-225.2-256.8-227.1-256.8-229.4
	 M-216.8-229.4c0-0.5,0-1.1-0.1-1.6c-0.3-3.2-1.6-5.9-3.8-8.2c-2.5-2.6-5.5-4-9-4.1h-0.3c-0.8,0-1.5,0.3-2,0.9
	c-0.6,0.6-0.9,1.3-0.9,2.1s0.3,1.5,0.9,2.1c0.4,0.4,0.9,0.7,1.5,0.8c0.2,0,0.4-0.1,0.6-0.1s0.4,0,0.7,0.1c1.4,0.2,2.6,0.9,3.7,2.3
	c0.9,1.2,1.5,2.5,1.8,4.1c0.1,0.5,0.1,1,0.1,1.6c0,2.2-0.6,4-1.8,5.6c-1.1,1.4-2.3,2.2-3.8,2.3c-0.1,0-0.3,0-0.5,0s-0.3,0-0.4,0
	c-0.6,0.1-1.2,0.4-1.7,0.9c-0.4,0.4-0.7,0.9-0.8,1.5c0,0.2-0.1,0.4-0.1,0.6v0.1c0,0.2,0,0.4,0.1,0.6c0.1,0.6,0.4,1.1,0.8,1.5
	c0.6,0.6,1.2,0.9,2,0.9h0.3c3.5-0.1,6.5-1.4,9-4.1C-218.1-222.4-216.8-225.6-216.8-229.4 M-191.4-240.7c-0.8-0.8-1.7-1.4-2.6-1.8
	c-1.3-0.6-2.7-0.9-4.2-0.9c-2.7,0-4.9,0.9-6.8,2.8c-0.2,0.2-0.5,0.5-0.7,0.7c0-0.9-0.4-1.6-1.1-2.3c-0.7-0.6-1.4-1-2.3-1
	c-0.9,0-1.8,0.3-2.4,1c-0.6,0.7-0.9,1.5-0.9,2.4v20.8c0,0.9,0.3,1.7,0.9,2.3c0.7,0.7,1.5,1,2.4,1s1.7-0.3,2.3-1
	c0.7-0.6,1.1-1.4,1.1-2.3v-14.1c0-1.4,0.5-2.5,1.5-3.4c1-1,2.2-1.5,3.6-1.5c1.4,0,2.6,0.5,3.6,1.5c0.6,0.6,1.1,1.2,1.3,2l0.2,0.7
	c0,0.2,0,0.5,0,0.8v14.1c0,0.9,0.3,1.7,0.9,2.3c0.7,0.7,1.5,1,2.5,1c0.9,0,1.7-0.3,2.3-1c0.7-0.6,1-1.4,1-2.3v-14.4
	c0-0.1,0-0.2,0-0.3v-0.4C-188.6-236.7-189.5-238.9-191.4-240.7 M-158.2-239.8c0-0.9-0.3-1.7-1-2.4c-0.7-0.6-1.5-1-2.3-1
	c-0.9,0-1.8,0.3-2.5,1c-0.6,0.7-0.9,1.5-0.9,2.4v0.1c-2.2-2.4-4.8-3.6-8-3.6s-6,1.3-8.3,4c-1.5,1.7-2.5,3.7-3,5.9
	c-0.2,0.8-0.3,1.6-0.4,2.4c0,0.5-0.1,0.9-0.1,1.4s0,1.1,0.1,1.6c0.1,1.6,0.5,3.1,1.1,4.4c0.5,1.3,1.3,2.6,2.3,3.6
	c0.8,0.9,1.7,1.7,2.5,2.4c1.7,1.1,3.7,1.7,5.8,1.7c3.1,0,5.7-1.2,7.9-3.5c0-0.1,0.1-0.1,0.1-0.1v3.6c0,0.1,0,0.2,0,0.4
	c-0.3,1.1-0.9,2-1.8,2.8c-1.4,1.3-3,1.9-4.9,1.9s-3.5-0.6-4.9-1.9c-0.3-0.3-0.6-0.5-0.8-0.8l-0.1-0.1c0,0-0.1-0.2-0.2-0.4
	c-0.2-0.2-0.4-0.4-0.7-0.8c-0.3-0.3-0.5-0.5-0.8-0.6c-0.2-0.2-0.6-0.3-1.3-0.3c-0.8,0-1.5,0.3-2.1,0.9c-0.4,0.4-0.7,0.9-0.8,1.5v0.1
	c0,0.2-0.1,0.4-0.1,0.6s0,0.3,0.1,0.4c0,0.1,0,0.3,0.2,0.6c0.1,0.3,0.1,0.5,0.3,0.6c0.1,0.1,0.2,0.3,0.4,0.5c0.4,0.5,0.9,1,1.4,1.5
	c2.6,2.5,5.8,3.7,9.5,3.7s6.9-1.2,9.5-3.7c1.7-1.5,2.8-3.3,3.4-5.3c0.2-0.8,0.4-1.6,0.5-2.4L-158.2-239.8 M-174.9-235.9
	C-174.9-235.9-174.9-236-174.9-235.9c1.2-1.4,2.4-2,3.8-2c1.7,0,3.1,0.8,4.3,2.5c0.9,1.3,1.5,2.7,1.8,4.4c0,0.5,0,0.9,0,1.4
	c0,0.3,0,0.6,0,0.9c-0.1,1.9-0.7,3.6-1.8,4.9c-0.3,0.4-0.6,0.8-0.9,1.1c-1,0.9-2.1,1.3-3.3,1.3c-1.4,0-2.6-0.6-3.7-1.8
	c-0.2-0.2-0.4-0.4-0.6-0.6c-1.1-1.5-1.7-3.3-1.8-5.4c0-0.1,0-0.3,0-0.4c0-0.5,0-1,0.1-1.4c0.2-1.7,0.7-3.1,1.6-4.4
	C-175.2-235.6-175.1-235.8-174.9-235.9 M-131.9-239.3c-0.9-1-1.9-1.8-3-2.4c-1.9-1.1-4.1-1.7-6.5-1.7c-3.7,0-6.9,1.4-9.5,4.1
	c-2.2,2.3-3.5,5.1-3.8,8.3c-0.1,0.5-0.1,1-0.1,1.6c0,3.8,1.3,7.1,3.9,9.8c2.6,2.7,5.8,4.1,9.5,4.1c2.4,0,4.6-0.6,6.5-1.7
	c1.1-0.6,2-1.4,3-2.4c2.6-2.7,3.9-5.9,3.9-9.8c0-0.5,0-1.1,0-1.6C-128.3-234.2-129.6-237-131.9-239.3 M-135-231.1
	c0.1,0.5,0.1,1,0.1,1.6c0,2.3-0.6,4.3-1.9,5.8c-1.2,1.6-2.7,2.5-4.5,2.5s-3.3-0.8-4.5-2.5c-1.2-1.6-1.9-3.6-1.9-5.8
	c0-0.5,0-1.1,0.1-1.6c0.2-1.6,0.8-3.1,1.8-4.4c1.2-1.6,2.7-2.4,4.5-2.4s3.3,0.8,4.5,2.4C-135.9-234.1-135.3-232.7-135-231.1
	 M-361.1-230.6c-0.2,0-0.3,0-0.4,0.1c-0.6,0.1-1.2,0.3-1.7,0.8c-0.6,0.6-0.9,1.3-0.9,2.1c0,0.8,0.3,1.5,0.9,2.1
	c0.5,0.5,1.1,0.8,1.8,0.9c0.1,0,0.3,0,0.4,0c0.8,0,1.5-0.3,2.1-0.9c0.6-0.6,0.9-1.3,0.9-2.1c0-0.8-0.3-1.5-0.9-2.1
	C-359.6-230.3-360.3-230.6-361.1-230.6 M-344.9-234.1c-0.5-0.8-1-1.5-1.7-2.1c-2.3-2.4-5.1-3.6-8.3-3.6c-1.9,0-3.6,0.4-5.2,1.2v-9.8
	c0-0.8-0.3-1.5-0.9-2.1c-0.6-0.5-1.2-0.8-2-0.8c-0.8,0-1.5,0.3-2.1,0.8c-0.5,0.6-0.8,1.3-0.8,2.1v11.4v0.3c0,0.6,0.3,1.2,0.8,1.7
	c0.1,0.1,0.3,0.3,0.4,0.4c0.4,0.3,0.8,0.4,1.3,0.5h0.3c2.9-0.2,5.8-0.2,8.6,0c1.2,0.3,2.2,0.9,3.1,1.8c0.1,0.1,0.2,0.2,0.3,0.3
	c1.1,1.2,1.7,2.7,1.7,4.4c0,1.8-0.6,3.4-1.9,4.6c-0.7,0.7-1.4,1.2-2.1,1.5l-9.6,0.4c-0.6,0-1.2,0.2-1.6,0.5
	c-0.1,0.1-0.3,0.2-0.4,0.3c-0.6,0.6-0.9,1.3-0.9,2.1s0.3,1.4,0.9,2c0.6,0.6,1.2,0.9,2,0.9h-0.5c4.8,0.1,7.6,0.1,8.4,0.1
	c3.4-0.1,6.2-1.3,8.5-3.8c0.3-0.3,0.6-0.7,0.9-1c0.3-0.3,0.5-0.7,0.8-1.1c0,0,0-0.1,0.1-0.1c1.2-1.9,1.8-4.1,1.8-6.5
	c0-1.6-0.2-3-0.8-4.4C-344.2-232.7-344.5-233.4-344.9-234.1 M-290.1-239.4c-2.3-2.7-5.1-4-8.3-4c-3.1,0-5.8,1.2-8,3.6v-9.6
	c0-0.9-0.3-1.7-1-2.4c-0.7-0.6-1.4-0.9-2.4-0.9c-0.9,0-1.8,0.3-2.4,0.9c-0.6,0.7-0.9,1.5-0.9,2.4v30.4c0,0.9,0.3,1.7,0.9,2.3
	c0.7,0.7,1.5,1,2.4,1s1.7-0.3,2.4-1c0.7-0.6,1-1.4,1-2.3v-0.6c2.2,2.4,4.9,3.7,8,3.7c3.2,0,6-1.4,8.3-4.1c2.3-2.7,3.5-5.9,3.5-9.7
	c0-0.5,0-0.9-0.1-1.4C-286.9-234.3-288.1-237.1-290.1-239.4 M-296-235.6c0.9,1.3,1.5,2.8,1.7,4.5c0,0.4,0.1,0.9,0.1,1.4
	c0,2.3-0.6,4.2-1.8,5.8c-1.2,1.6-2.6,2.5-4.2,2.5c-1.7,0-3.1-0.8-4.3-2.5c-1.2-1.6-1.8-3.5-1.8-5.8c0-0.5,0-0.9,0.1-1.4
	c0.2-1.7,0.7-3.2,1.7-4.5c1.1-1.6,2.5-2.4,4.3-2.4C-298.6-238-297.2-237.2-296-235.6 M-270.9-243.3h-0.3c-3.5,0.1-6.5,1.4-9,4.1
	c-2.2,2.3-3.4,5-3.8,8.2c-0.1,0.5-0.1,1.1-0.1,1.6c0,3.8,1.3,7.1,3.8,9.8c2.5,2.7,5.5,4,9,4.1h0.3c0.8,0,1.4-0.3,2-0.9
	c0.4-0.4,0.7-0.9,0.8-1.5c0-0.2,0.1-0.4,0.1-0.6v-0.1c0-0.2,0-0.4-0.1-0.6c-0.1-0.6-0.4-1.1-0.8-1.5c-0.5-0.5-1.1-0.8-1.7-0.9
	c-0.1,0-0.3,0-0.4,0s-0.3,0-0.4,0c-0.4-0.1-0.8-0.1-1.2-0.3c-1-0.4-1.9-1.1-2.7-2.1c-1.2-1.5-1.8-3.4-1.8-5.6c0-0.5,0-1.1,0.1-1.6
	c0.2-1.5,0.8-2.9,1.8-4.1c1-1.3,2.3-2.1,3.7-2.3c0.2,0,0.4,0.1,0.6,0.1c0.2,0,0.4,0,0.6-0.1c0.6-0.1,1.1-0.4,1.5-0.8
	c0.6-0.6,0.9-1.3,0.9-2.1c0-0.8-0.3-1.6-0.9-2.1C-269.4-243-270.1-243.3-270.9-243.3 M-355.5-263.2c-0.6,0-1.2-0.1-1.9-0.1
	c-4.9,0-9.3,1-13.4,3c-2.9,1.4-5.7,3.4-8.2,5.9c-0.1,0.1-0.3,0.3-0.4,0.4c-0.2,0.3-0.5,0.5-0.7,0.8c-0.3,0.5-0.5,1-0.5,1.6
	c0,0.8,0.3,1.5,0.9,2.1c0.6,0.6,1.3,0.9,2.1,0.9c0.6,0,1.1-0.1,1.5-0.4c0.4-0.4,0.8-0.9,1.2-1.3c1.3-1.3,2.7-2.4,4.1-3.4
	c3.9-2.6,8.4-3.8,13.4-3.8c0.6,0,1.3,0,1.9,0c6,0.4,11.2,2.8,15.6,7.2c4.8,4.8,7.3,10.6,7.3,17.4c0,0.3,0,0.5,0,0.8
	c-0.1,4.1-1.1,7.8-3,11.1c-1.1,2-2.5,3.8-4.3,5.5c-4.8,4.8-10.6,7.3-17.4,7.3c-6.7,0-12.5-2.3-17.3-7c-0.1-0.1-0.1-0.1-0.2-0.2
	c-0.4-0.4-0.8-0.8-1.2-1.2c-0.4-0.2-0.9-0.3-1.4-0.3c-0.8,0-1.5,0.3-2.1,0.8c-0.6,0.6-0.9,1.3-0.9,2.2c0,0.7,0.2,1.3,0.6,1.8
	c0.1,0.2,0.3,0.3,0.5,0.5c0.1,0.2,0.3,0.3,0.4,0.4c6,6,13.1,8.9,21.5,8.9c8.4,0,15.6-3,21.6-8.9c2.9-2.9,5.1-6,6.6-9.4
	c1.5-3.5,2.3-7.3,2.4-11.4c0-0.2,0-0.5,0-0.8c0-4.3-0.8-8.3-2.4-12.1c-1.5-3.5-3.7-6.6-6.6-9.6
	C-341.3-259.9-347.9-262.9-355.5-263.2z"/>
</svg>
