<?xml version="1.0" encoding="utf-8"?>
<!-- Generator: Adobe Illustrator 22.1.0, SVG Export Plug-In . SVG Version: 6.00 Build 0)  -->
<svg version="1.1" id="Слой_1" xmlns="http://www.w3.org/2000/svg" xmlns:xlink="http://www.w3.org/1999/xlink" x="0px" y="0px"
	 viewBox="0 0 57.3 64" style="enable-background:new 0 0 57.3 64;" xml:space="preserve">
<style type="text/css">
	.st0{fill:#C2C1C0;}
	.st1{fill:url(#SVGID_1_);}
	.st2{fill:url(#SVGID_2_);}
</style>
<path class="st0" d="M-239.9,132.7c-0.3-0.4-0.7-0.7-1-1.1c-2.6-2.7-5.8-4.1-9.4-4.1s-6.9,1.3-9.5,4.1c-0.3,0.3-0.6,0.7-0.9,1.1
	c-1.7,2.1-2.6,4.4-2.9,7.1c-0.1,0.5-0.1,1.1-0.1,1.6c0,3.3,1,6.2,3,8.7c0.3,0.4,0.6,0.7,0.9,1.1c2.6,2.7,5.8,4.1,9.5,4.1
	s6.8-1.4,9.4-4.1c0.3-0.3,0.7-0.7,1-1.1c2-2.5,2.9-5.4,2.9-8.7c0-0.5,0-1.1-0.1-1.6C-237.3,137.2-238.3,134.8-239.9,132.7
	 M-256.8,141.5c0-0.6,0-1.1,0.1-1.6c0.2-1.6,0.8-3.1,1.8-4.3c1.2-1.6,2.7-2.4,4.5-2.4s3.3,0.8,4.5,2.4c1,1.2,1.6,2.7,1.8,4.3
	c0.1,0.5,0.1,1,0.1,1.6c0,2.3-0.6,4.2-1.9,5.8c-1.2,1.6-2.7,2.4-4.5,2.4s-3.3-0.8-4.5-2.4C-256.1,145.7-256.8,143.8-256.8,141.5
	 M-216.8,141.5c0-0.5,0-1.1-0.1-1.6c-0.3-3.2-1.6-5.9-3.8-8.2c-2.5-2.6-5.5-4-9-4.1h-0.3c-0.8,0-1.5,0.3-2,0.9
	c-0.6,0.6-0.9,1.3-0.9,2.1c0,0.8,0.3,1.5,0.9,2.1c0.4,0.4,0.9,0.7,1.5,0.8c0.2,0,0.4-0.1,0.6-0.1s0.4,0,0.7,0.1
	c1.4,0.2,2.6,0.9,3.7,2.3c0.9,1.2,1.5,2.5,1.8,4.1c0.1,0.5,0.1,1,0.1,1.6c0,2.2-0.6,4-1.8,5.6c-1.1,1.4-2.3,2.2-3.8,2.3
	c-0.1,0-0.3,0-0.5,0s-0.3,0-0.4,0c-0.6,0.1-1.2,0.4-1.7,0.9c-0.4,0.4-0.7,0.9-0.8,1.5c0,0.2-0.1,0.4-0.1,0.6v0.1
	c0,0.2,0,0.4,0.1,0.6c0.1,0.6,0.4,1.1,0.8,1.5c0.6,0.6,1.2,0.9,2,0.9h0.3c3.5-0.1,6.5-1.4,9-4.1
	C-218.1,148.5-216.8,145.3-216.8,141.5 M-191.4,130.2c-0.8-0.8-1.7-1.4-2.6-1.8c-1.3-0.6-2.7-0.9-4.2-0.9c-2.7,0-4.9,0.9-6.8,2.8
	c-0.2,0.2-0.5,0.5-0.7,0.7c0-0.9-0.4-1.6-1.1-2.3c-0.7-0.6-1.4-1-2.3-1c-0.9,0-1.8,0.3-2.4,1c-0.6,0.7-0.9,1.5-0.9,2.4v20.8
	c0,0.9,0.3,1.7,0.9,2.3c0.7,0.7,1.5,1,2.4,1s1.7-0.3,2.3-1c0.7-0.6,1.1-1.4,1.1-2.3v-14.1c0-1.4,0.5-2.5,1.5-3.4
	c1-1,2.2-1.5,3.6-1.5c1.4,0,2.6,0.5,3.6,1.5c0.6,0.6,1.1,1.2,1.3,2l0.2,0.7c0,0.2,0,0.5,0,0.8V152c0,0.9,0.3,1.7,0.9,2.3
	c0.7,0.7,1.5,1,2.5,1c0.9,0,1.7-0.3,2.3-1c0.7-0.6,1-1.4,1-2.3v-14.4c0-0.1,0-0.2,0-0.3v-0.4C-188.6,134.2-189.5,132-191.4,130.2
	 M-158.2,131.1c0-0.9-0.3-1.7-1-2.4c-0.7-0.6-1.5-1-2.3-1c-0.9,0-1.8,0.3-2.5,1c-0.6,0.7-0.9,1.5-0.9,2.4v0.1
	c-2.2-2.4-4.8-3.6-8-3.6s-6,1.3-8.3,4c-1.5,1.7-2.5,3.7-3,5.9c-0.2,0.8-0.3,1.6-0.4,2.4c0,0.5-0.1,0.9-0.1,1.4s0,1.1,0.1,1.6
	c0.1,1.6,0.5,3.1,1.1,4.4c0.5,1.3,1.3,2.6,2.3,3.6c0.8,0.9,1.7,1.7,2.5,2.4c1.7,1.1,3.7,1.7,5.8,1.7c3.1,0,5.7-1.2,7.9-3.5
	c0-0.1,0.1-0.1,0.1-0.1v3.6c0,0.1,0,0.2,0,0.4c-0.3,1.1-0.9,2-1.8,2.8c-1.4,1.3-3,1.9-4.9,1.9s-3.5-0.6-4.9-1.9
	c-0.3-0.3-0.6-0.5-0.8-0.8l-0.1-0.1c0,0-0.1-0.2-0.2-0.4c-0.2-0.2-0.4-0.4-0.7-0.8c-0.3-0.3-0.5-0.5-0.8-0.6
	c-0.2-0.2-0.6-0.3-1.3-0.3c-0.8,0-1.5,0.3-2.1,0.9c-0.4,0.4-0.7,0.9-0.8,1.5v0.1c0,0.2-0.1,0.4-0.1,0.6s0,0.3,0.1,0.4
	c0,0.1,0,0.3,0.2,0.6c0.1,0.3,0.1,0.5,0.3,0.6c0.1,0.1,0.2,0.3,0.4,0.5c0.4,0.5,0.9,1,1.4,1.5c2.6,2.5,5.8,3.7,9.5,3.7
	s6.9-1.2,9.5-3.7c1.7-1.5,2.8-3.3,3.4-5.3c0.2-0.8,0.4-1.6,0.5-2.4L-158.2,131.1 M-174.9,135C-174.9,135-174.9,134.9-174.9,135
	c1.2-1.4,2.4-2,3.8-2c1.7,0,3.1,0.8,4.3,2.5c0.9,1.3,1.5,2.7,1.8,4.4c0,0.5,0,0.9,0,1.4c0,0.3,0,0.6,0,0.9c-0.1,1.9-0.7,3.6-1.8,4.9
	c-0.3,0.4-0.6,0.8-0.9,1.1c-1,0.9-2.1,1.3-3.3,1.3c-1.4,0-2.6-0.6-3.7-1.8c-0.2-0.2-0.4-0.4-0.6-0.6c-1.1-1.5-1.7-3.3-1.8-5.4
	c0-0.1,0-0.3,0-0.4c0-0.5,0-1,0.1-1.4c0.2-1.7,0.7-3.1,1.6-4.4C-175.2,135.3-175.1,135.1-174.9,135 M-131.9,131.6
	c-0.9-1-1.9-1.8-3-2.4c-1.9-1.1-4.1-1.7-6.5-1.7c-3.7,0-6.9,1.4-9.5,4.1c-2.2,2.3-3.5,5.1-3.8,8.3c-0.1,0.5-0.1,1-0.1,1.6
	c0,3.8,1.3,7.1,3.9,9.8c2.6,2.7,5.8,4.1,9.5,4.1c2.4,0,4.6-0.6,6.5-1.7c1.1-0.6,2-1.4,3-2.4c2.6-2.7,3.9-5.9,3.9-9.8
	c0-0.5,0-1.1,0-1.6C-128.3,136.7-129.6,133.9-131.9,131.6 M-135,139.8c0.1,0.5,0.1,1,0.1,1.6c0,2.3-0.6,4.3-1.9,5.8
	c-1.2,1.6-2.7,2.5-4.5,2.5s-3.3-0.8-4.5-2.5c-1.2-1.6-1.9-3.6-1.9-5.8c0-0.5,0-1.1,0.1-1.6c0.2-1.6,0.8-3.1,1.8-4.4
	c1.2-1.6,2.7-2.4,4.5-2.4s3.3,0.8,4.5,2.4C-135.9,136.8-135.3,138.2-135,139.8 M-361.1,140.3c-0.2,0-0.3,0-0.4,0.1
	c-0.6,0.1-1.2,0.3-1.7,0.8c-0.6,0.6-0.9,1.3-0.9,2.1c0,0.8,0.3,1.5,0.9,2.1c0.5,0.5,1.1,0.8,1.8,0.9c0.1,0,0.3,0,0.4,0
	c0.8,0,1.5-0.3,2.1-0.9c0.6-0.6,0.9-1.3,0.9-2.1s-0.3-1.5-0.9-2.1C-359.6,140.6-360.3,140.3-361.1,140.3 M-344.9,136.8
	c-0.5-0.8-1-1.5-1.7-2.1c-2.3-2.4-5.1-3.6-8.3-3.6c-1.9,0-3.6,0.4-5.2,1.2v-9.8c0-0.8-0.3-1.5-0.9-2.1c-0.6-0.5-1.2-0.8-2-0.8
	c-0.8,0-1.5,0.3-2.1,0.8c-0.5,0.6-0.8,1.3-0.8,2.1v11.4v0.3c0,0.6,0.3,1.2,0.8,1.7c0.1,0.1,0.3,0.3,0.4,0.4c0.4,0.3,0.8,0.4,1.3,0.5
	h0.3c2.9-0.2,5.8-0.2,8.6,0c1.2,0.3,2.2,0.9,3.1,1.8c0.1,0.1,0.2,0.2,0.3,0.3c1.1,1.2,1.7,2.7,1.7,4.4c0,1.8-0.6,3.4-1.9,4.6
	c-0.7,0.7-1.4,1.2-2.1,1.5l-9.6,0.4c-0.6,0-1.2,0.2-1.6,0.5c-0.1,0.1-0.3,0.2-0.4,0.3c-0.6,0.6-0.9,1.3-0.9,2.1c0,0.8,0.3,1.4,0.9,2
	c0.6,0.6,1.2,0.9,2,0.9h-0.5c4.8,0.1,7.6,0.1,8.4,0.1c3.4-0.1,6.2-1.3,8.5-3.8c0.3-0.3,0.6-0.7,0.9-1c0.3-0.3,0.5-0.7,0.8-1.1
	c0,0,0-0.1,0.1-0.1c1.2-1.9,1.8-4.1,1.8-6.5c0-1.6-0.2-3-0.8-4.4C-344.2,138.2-344.5,137.5-344.9,136.8 M-290.1,131.5
	c-2.3-2.7-5.1-4-8.3-4c-3.1,0-5.8,1.2-8,3.6v-9.6c0-0.9-0.3-1.7-1-2.4c-0.7-0.6-1.4-0.9-2.4-0.9c-0.9,0-1.8,0.3-2.4,0.9
	c-0.6,0.7-0.9,1.5-0.9,2.4v30.4c0,0.9,0.3,1.7,0.9,2.3c0.7,0.7,1.5,1,2.4,1s1.7-0.3,2.4-1c0.7-0.6,1-1.4,1-2.3v-0.6
	c2.2,2.4,4.9,3.7,8,3.7c3.2,0,6-1.4,8.3-4.1c2.3-2.7,3.5-5.9,3.5-9.7c0-0.5,0-0.9-0.1-1.4C-286.9,136.6-288.1,133.8-290.1,131.5
	 M-296,135.3c0.9,1.3,1.5,2.8,1.7,4.5c0,0.4,0.1,0.9,0.1,1.4c0,2.3-0.6,4.2-1.8,5.8c-1.2,1.6-2.6,2.5-4.2,2.5
	c-1.7,0-3.1-0.8-4.3-2.5c-1.2-1.6-1.8-3.5-1.8-5.8c0-0.5,0-0.9,0.1-1.4c0.2-1.7,0.7-3.2,1.7-4.5c1.1-1.6,2.5-2.4,4.3-2.4
	C-298.6,132.9-297.2,133.7-296,135.3 M-270.9,127.6h-0.3c-3.5,0.1-6.5,1.4-9,4.1c-2.2,2.3-3.4,5-3.8,8.2c-0.1,0.5-0.1,1.1-0.1,1.6
	c0,3.8,1.3,7.1,3.8,9.8c2.5,2.7,5.5,4,9,4.1h0.3c0.8,0,1.4-0.3,2-0.9c0.4-0.4,0.7-0.9,0.8-1.5c0-0.2,0.1-0.4,0.1-0.6v-0.1
	c0-0.2,0-0.4-0.1-0.6c-0.1-0.6-0.4-1.1-0.8-1.5c-0.5-0.5-1.1-0.8-1.7-0.9c-0.1,0-0.3,0-0.4,0s-0.3,0-0.4,0c-0.4-0.1-0.8-0.1-1.2-0.3
	c-1-0.4-1.9-1.1-2.7-2.1c-1.2-1.5-1.8-3.4-1.8-5.6c0-0.5,0-1.1,0.1-1.6c0.2-1.5,0.8-2.9,1.8-4.1c1-1.3,2.3-2.1,3.7-2.3
	c0.2,0,0.4,0.1,0.6,0.1c0.2,0,0.4,0,0.6-0.1c0.6-0.1,1.1-0.4,1.5-0.8c0.6-0.6,0.9-1.3,0.9-2.1s-0.3-1.6-0.9-2.1
	C-269.4,127.9-270.1,127.6-270.9,127.6 M-355.5,107.7c-0.6,0-1.2-0.1-1.9-0.1c-4.9,0-9.3,1-13.4,3c-2.9,1.4-5.7,3.4-8.2,5.9
	c-0.1,0.1-0.3,0.3-0.4,0.4c-0.2,0.3-0.5,0.5-0.7,0.8c-0.3,0.5-0.5,1-0.5,1.6c0,0.8,0.3,1.5,0.9,2.1s1.3,0.9,2.1,0.9
	c0.6,0,1.1-0.1,1.5-0.4c0.4-0.4,0.8-0.9,1.2-1.3c1.3-1.3,2.7-2.4,4.1-3.4c3.9-2.6,8.4-3.8,13.4-3.8c0.6,0,1.3,0,1.9,0
	c6,0.4,11.2,2.8,15.6,7.2c4.8,4.8,7.3,10.6,7.3,17.4c0,0.3,0,0.5,0,0.8c-0.1,4.1-1.1,7.8-3,11.1c-1.1,2-2.5,3.8-4.3,5.5
	c-4.8,4.8-10.6,7.3-17.4,7.3c-6.7,0-12.5-2.3-17.3-7c-0.1-0.1-0.1-0.1-0.2-0.2c-0.4-0.4-0.8-0.8-1.2-1.2c-0.4-0.2-0.9-0.3-1.4-0.3
	c-0.8,0-1.5,0.3-2.1,0.8c-0.6,0.6-0.9,1.3-0.9,2.2c0,0.7,0.2,1.3,0.6,1.8c0.1,0.2,0.3,0.3,0.5,0.5c0.1,0.2,0.3,0.3,0.4,0.4
	c6,6,13.1,8.9,21.5,8.9c8.4,0,15.6-3,21.6-8.9c2.9-2.9,5.1-6,6.6-9.4c1.5-3.5,2.3-7.3,2.4-11.4c0-0.2,0-0.5,0-0.8
	c0-4.3-0.8-8.3-2.4-12.1c-1.5-3.5-3.7-6.6-6.6-9.6C-341.3,111-347.9,108-355.5,107.7z"/>
<path class="st0" d="M20.9,210.1c-0.2,0-0.3,0-0.4,0.1c-0.6,0.1-1.2,0.3-1.7,0.8c-0.6,0.6-0.9,1.3-0.9,2.1s0.3,1.5,0.9,2.1
	c0.5,0.5,1.1,0.8,1.8,0.9c0.1,0,0.3,0,0.4,0c0.8,0,1.5-0.3,2.1-0.9c0.6-0.6,0.9-1.3,0.9-2.1s-0.3-1.5-0.9-2.1
	C22.4,210.4,21.7,210.1,20.9,210.1 M37.1,206.6c-0.5-0.8-1-1.5-1.7-2.1c-2.3-2.4-5.1-3.6-8.3-3.6c-1.9,0-3.6,0.4-5.2,1.2v-9.8
	c0-0.8-0.3-1.5-0.9-2.1c-0.6-0.5-1.2-0.8-2-0.8s-1.5,0.3-2.1,0.8c-0.5,0.6-0.8,1.3-0.8,2.1v11.4v0.3c0,0.6,0.3,1.2,0.8,1.7
	c0.1,0.1,0.3,0.3,0.4,0.4c0.4,0.3,0.8,0.4,1.3,0.5h0.3c2.9-0.2,5.8-0.2,8.6,0c1.2,0.3,2.2,0.9,3.1,1.8c0.1,0.1,0.2,0.2,0.3,0.3
	c1.1,1.2,1.7,2.7,1.7,4.4c0,1.8-0.6,3.4-1.9,4.6c-0.7,0.7-1.4,1.2-2.1,1.5l-9.6,0.4c-0.6,0-1.2,0.2-1.6,0.5
	c-0.1,0.1-0.3,0.2-0.4,0.3c-0.6,0.6-0.9,1.3-0.9,2.1c0,0.8,0.3,1.4,0.9,2c0.6,0.6,1.2,0.9,2,0.9h-0.5c4.8,0.1,7.6,0.1,8.4,0.1
	c3.4-0.1,6.2-1.3,8.5-3.8c0.3-0.3,0.6-0.7,0.9-1c0.3-0.3,0.5-0.7,0.8-1.1c0,0,0-0.1,0.1-0.1c1.2-1.9,1.8-4.1,1.8-6.5
	c0-1.6-0.2-3-0.8-4.4C37.8,208,37.5,207.3,37.1,206.6 M26.5,177.5c-0.6,0-1.2-0.1-1.9-0.1c-4.9,0-9.3,1-13.4,3
	c-2.9,1.4-5.7,3.4-8.2,5.9c-0.1,0.1-0.3,0.3-0.4,0.4c-0.2,0.3-0.5,0.5-0.7,0.8c-0.3,0.5-0.5,1-0.5,1.6c0,0.8,0.3,1.5,0.9,2.1
	s1.3,0.9,2.1,0.9c0.6,0,1.1-0.1,1.5-0.4c0.4-0.4,0.8-0.9,1.2-1.3c1.3-1.3,2.7-2.4,4.1-3.4c3.9-2.6,8.4-3.8,13.4-3.8
	c0.6,0,1.3,0,1.9,0c6,0.4,11.2,2.8,15.6,7.2c4.8,4.8,7.3,10.6,7.3,17.4c0,0.3,0,0.5,0,0.8c-0.1,4.1-1.1,7.8-3,11.1
	c-1.1,2-2.5,3.8-4.3,5.5c-4.8,4.8-10.6,7.3-17.4,7.3c-6.7,0-12.5-2.3-17.3-7c-0.1-0.1-0.1-0.1-0.2-0.2c-0.4-0.4-0.8-0.8-1.2-1.2
	c-0.4-0.2-0.9-0.3-1.4-0.3c-0.8,0-1.5,0.3-2.1,0.8c-0.6,0.6-0.9,1.3-0.9,2.2c0,0.7,0.2,1.3,0.6,1.8c0.1,0.2,0.3,0.3,0.5,0.5
	c0.1,0.2,0.3,0.3,0.4,0.4c6,6,13.1,8.9,21.5,8.9s15.6-3,21.6-8.9c2.9-2.9,5.1-6,6.6-9.4c1.5-3.5,2.3-7.3,2.4-11.4c0-0.2,0-0.5,0-0.8
	c0-4.3-0.8-8.3-2.4-12.1c-1.5-3.5-3.7-6.6-6.6-9.6C40.7,180.8,34.1,177.8,26.5,177.5z"/>
<linearGradient id="SVGID_1_" gradientUnits="userSpaceOnUse" x1="-552.2348" y1="3231.5" x2="-497.9236" y2="3231.5" gradientTransform="matrix(1 0 0 1 552.9 -3200)">
	<stop  offset="0" style="stop-color:#68F28B"/>
	<stop  offset="1" style="stop-color:#00FFDE"/>
</linearGradient>
<path class="st1" d="M20.9,33.7c-0.2,0-0.3,0-0.4,0.1c-0.6,0.1-1.2,0.3-1.7,0.8c-0.6,0.6-0.9,1.3-0.9,2.1s0.3,1.5,0.9,2.1
	c0.5,0.5,1.1,0.8,1.8,0.9c0.1,0,0.3,0,0.4,0c0.8,0,1.5-0.3,2.1-0.9c0.6-0.6,0.9-1.3,0.9-2.1s-0.3-1.5-0.9-2.1
	C22.4,34,21.7,33.7,20.9,33.7 M37.1,30.2c-0.5-0.8-1-1.5-1.7-2.1c-2.3-2.4-5.1-3.6-8.3-3.6c-1.9,0-3.6,0.4-5.2,1.2v-9.8
	c0-0.8-0.3-1.5-0.9-2.1c-0.6-0.5-1.2-0.8-2-0.8s-1.5,0.3-2.1,0.8c-0.5,0.6-0.8,1.3-0.8,2.1v11.4v0.3c0,0.6,0.3,1.2,0.8,1.7
	c0.1,0.1,0.3,0.3,0.4,0.4c0.4,0.3,0.8,0.4,1.3,0.5h0.3c2.9-0.2,5.8-0.2,8.6,0c1.2,0.3,2.2,0.9,3.1,1.8c0.1,0.1,0.2,0.2,0.3,0.3
	c1.1,1.2,1.7,2.7,1.7,4.4c0,1.8-0.6,3.4-1.9,4.6c-0.7,0.7-1.4,1.2-2.1,1.5L19,43.2c-0.6,0-1.2,0.2-1.6,0.5c-0.1,0.1-0.3,0.2-0.4,0.3
	c-0.6,0.6-0.9,1.3-0.9,2.1s0.3,1.4,0.9,2s1.2,0.9,2,0.9h-0.5c4.8,0.1,7.6,0.1,8.4,0.1c3.4-0.1,6.2-1.3,8.5-3.8
	c0.3-0.3,0.6-0.7,0.9-1c0.3-0.3,0.5-0.7,0.8-1.1c0,0,0-0.1,0.1-0.1c1.2-1.9,1.8-4.1,1.8-6.5c0-1.6-0.2-3-0.8-4.4
	C37.8,31.6,37.5,30.9,37.1,30.2 M26.5,1.1c-0.6,0-1.2-0.1-1.9-0.1c-4.9,0-9.3,1-13.4,3C8.3,5.4,5.5,7.4,3,9.9
	c-0.1,0.1-0.3,0.3-0.4,0.4c-0.2,0.3-0.5,0.5-0.7,0.8c-0.3,0.5-0.5,1-0.5,1.6c0,0.8,0.3,1.5,0.9,2.1s1.3,0.9,2.1,0.9
	c0.6,0,1.1-0.1,1.5-0.4c0.4-0.4,0.8-0.9,1.2-1.3c1.3-1.3,2.7-2.4,4.1-3.4c3.9-2.6,8.4-3.8,13.4-3.8c0.6,0,1.3,0,1.9,0
	c6,0.4,11.2,2.8,15.6,7.2c4.8,4.8,7.3,10.6,7.3,17.4c0,0.3,0,0.5,0,0.8c-0.1,4.1-1.1,7.8-3,11.1c-1.1,2-2.5,3.8-4.3,5.5
	c-4.8,4.8-10.6,7.3-17.4,7.3c-6.7,0-12.5-2.3-17.3-7C7.3,49,7.3,49,7.2,48.9c-0.4-0.4-0.8-0.8-1.2-1.2c-0.4-0.2-0.9-0.3-1.4-0.3
	c-0.8,0-1.5,0.3-2.1,0.8c-0.6,0.6-0.9,1.3-0.9,2.2c0,0.7,0.2,1.3,0.6,1.8c0.1,0.2,0.3,0.3,0.5,0.5C2.8,52.9,3,53,3.1,53.1
	c6,6,13.1,8.9,21.5,8.9s15.6-3,21.6-8.9c2.9-2.9,5.1-6,6.6-9.4c1.5-3.5,2.3-7.3,2.4-11.4c0-0.2,0-0.5,0-0.8c0-4.3-0.8-8.3-2.4-12.1
	c-1.5-3.5-3.7-6.6-6.6-9.6C40.7,4.4,34.1,1.4,26.5,1.1z"/>
<linearGradient id="SVGID_2_" gradientUnits="userSpaceOnUse" x1="-936.9061" y1="3143.5627" x2="-681.9061" y2="3143.5627" gradientTransform="matrix(1 0 0 1 552.9 -3200)">
	<stop  offset="0" style="stop-color:#68F28B"/>
	<stop  offset="1" style="stop-color:#00FFDE"/>
</linearGradient>
<path class="st2" d="M-239.9-61.8c-0.3-0.4-0.7-0.7-1-1.1c-2.6-2.7-5.8-4.1-9.4-4.1s-6.9,1.3-9.5,4.1c-0.3,0.3-0.6,0.7-0.9,1.1
	c-1.7,2.1-2.6,4.4-2.9,7.1c-0.1,0.5-0.1,1.1-0.1,1.6c0,3.3,1,6.2,3,8.7c0.3,0.4,0.6,0.7,0.9,1.1c2.6,2.7,5.8,4.1,9.5,4.1
	s6.8-1.4,9.4-4.1c0.3-0.3,0.7-0.7,1-1.1c2-2.5,2.9-5.4,2.9-8.7c0-0.5,0-1.1-0.1-1.6C-237.3-57.3-238.3-59.7-239.9-61.8 M-256.8-53
	c0-0.6,0-1.1,0.1-1.6c0.2-1.6,0.8-3.1,1.8-4.3c1.2-1.6,2.7-2.4,4.5-2.4s3.3,0.8,4.5,2.4c1,1.2,1.6,2.7,1.8,4.3
	c0.1,0.5,0.1,1,0.1,1.6c0,2.3-0.6,4.2-1.9,5.8c-1.2,1.6-2.7,2.4-4.5,2.4s-3.3-0.8-4.5-2.4C-256.1-48.8-256.8-50.7-256.8-53
	 M-216.8-53c0-0.5,0-1.1-0.1-1.6c-0.3-3.2-1.6-5.9-3.8-8.2c-2.5-2.6-5.5-4-9-4.1h-0.3c-0.8,0-1.5,0.3-2,0.9
	c-0.6,0.6-0.9,1.3-0.9,2.1c0,0.8,0.3,1.5,0.9,2.1c0.4,0.4,0.9,0.7,1.5,0.8c0.2,0,0.4-0.1,0.6-0.1s0.4,0,0.7,0.1
	c1.4,0.2,2.6,0.9,3.7,2.3c0.9,1.2,1.5,2.5,1.8,4.1c0.1,0.5,0.1,1,0.1,1.6c0,2.2-0.6,4-1.8,5.6c-1.1,1.4-2.3,2.2-3.8,2.3
	c-0.1,0-0.3,0-0.5,0s-0.3,0-0.4,0c-0.6,0.1-1.2,0.4-1.7,0.9c-0.4,0.4-0.7,0.9-0.8,1.5c0,0.2-0.1,0.4-0.1,0.6v0.1
	c0,0.2,0,0.4,0.1,0.6c0.1,0.6,0.4,1.1,0.8,1.5c0.6,0.6,1.2,0.9,2,0.9h0.3c3.5-0.1,6.5-1.4,9-4.1C-218.1-46-216.8-49.2-216.8-53
	 M-191.4-64.3c-0.8-0.8-1.7-1.4-2.6-1.8c-1.3-0.6-2.7-0.9-4.2-0.9c-2.7,0-4.9,0.9-6.8,2.8c-0.2,0.2-0.5,0.5-0.7,0.7
	c0-0.9-0.4-1.6-1.1-2.3c-0.7-0.6-1.4-1-2.3-1c-0.9,0-1.8,0.3-2.4,1c-0.6,0.7-0.9,1.5-0.9,2.4v20.8c0,0.9,0.3,1.7,0.9,2.3
	c0.7,0.7,1.5,1,2.4,1s1.7-0.3,2.3-1c0.7-0.6,1.1-1.4,1.1-2.3v-14.1c0-1.4,0.5-2.5,1.5-3.4c1-1,2.2-1.5,3.6-1.5
	c1.4,0,2.6,0.5,3.6,1.5c0.6,0.6,1.1,1.2,1.3,2l0.2,0.7c0,0.2,0,0.5,0,0.8v14.1c0,0.9,0.3,1.7,0.9,2.3c0.7,0.7,1.5,1,2.5,1
	c0.9,0,1.7-0.3,2.3-1c0.7-0.6,1-1.4,1-2.3v-14.4c0-0.1,0-0.2,0-0.3v-0.4C-188.6-60.3-189.5-62.5-191.4-64.3 M-158.2-63.4
	c0-0.9-0.3-1.7-1-2.4c-0.7-0.6-1.5-1-2.3-1c-0.9,0-1.8,0.3-2.5,1c-0.6,0.7-0.9,1.5-0.9,2.4v0.1c-2.2-2.4-4.8-3.6-8-3.6s-6,1.3-8.3,4
	c-1.5,1.7-2.5,3.7-3,5.9c-0.2,0.8-0.3,1.6-0.4,2.4c0,0.5-0.1,0.9-0.1,1.4s0,1.1,0.1,1.6c0.1,1.6,0.5,3.1,1.1,4.4
	c0.5,1.3,1.3,2.6,2.3,3.6c0.8,0.9,1.7,1.7,2.5,2.4c1.7,1.1,3.7,1.7,5.8,1.7c3.1,0,5.7-1.2,7.9-3.5c0-0.1,0.1-0.1,0.1-0.1v3.6
	c0,0.1,0,0.2,0,0.4c-0.3,1.1-0.9,2-1.8,2.8c-1.4,1.3-3,1.9-4.9,1.9s-3.5-0.6-4.9-1.9c-0.3-0.3-0.6-0.5-0.8-0.8l-0.1-0.1
	c0,0-0.1-0.2-0.2-0.4c-0.2-0.2-0.4-0.4-0.7-0.8c-0.3-0.3-0.5-0.5-0.8-0.6c-0.2-0.2-0.6-0.3-1.3-0.3c-0.8,0-1.5,0.3-2.1,0.9
	c-0.4,0.4-0.7,0.9-0.8,1.5v0.1c0,0.2-0.1,0.4-0.1,0.6c0,0.2,0,0.3,0.1,0.4c0,0.1,0,0.3,0.2,0.6c0.1,0.3,0.1,0.5,0.3,0.6
	c0.1,0.1,0.2,0.3,0.4,0.5c0.4,0.5,0.9,1,1.4,1.5c2.6,2.5,5.8,3.7,9.5,3.7s6.9-1.2,9.5-3.7c1.7-1.5,2.8-3.3,3.4-5.3
	c0.2-0.8,0.4-1.6,0.5-2.4L-158.2-63.4 M-174.9-59.5C-174.9-59.5-174.9-59.6-174.9-59.5c1.2-1.4,2.4-2,3.8-2c1.7,0,3.1,0.8,4.3,2.5
	c0.9,1.3,1.5,2.7,1.8,4.4c0,0.5,0,0.9,0,1.4c0,0.3,0,0.6,0,0.9c-0.1,1.9-0.7,3.6-1.8,4.9c-0.3,0.4-0.6,0.8-0.9,1.1
	c-1,0.9-2.1,1.3-3.3,1.3c-1.4,0-2.6-0.6-3.7-1.8c-0.2-0.2-0.4-0.4-0.6-0.6c-1.1-1.5-1.7-3.3-1.8-5.4c0-0.1,0-0.3,0-0.4
	c0-0.5,0-1,0.1-1.4c0.2-1.7,0.7-3.1,1.6-4.4C-175.2-59.2-175.1-59.4-174.9-59.5 M-131.9-62.9c-0.9-1-1.9-1.8-3-2.4
	c-1.9-1.1-4.1-1.7-6.5-1.7c-3.7,0-6.9,1.4-9.5,4.1c-2.2,2.3-3.5,5.1-3.8,8.3c-0.1,0.5-0.1,1-0.1,1.6c0,3.8,1.3,7.1,3.9,9.8
	c2.6,2.7,5.8,4.1,9.5,4.1c2.4,0,4.6-0.6,6.5-1.7c1.1-0.6,2-1.4,3-2.4c2.6-2.7,3.9-5.9,3.9-9.8c0-0.5,0-1.1,0-1.6
	C-128.3-57.8-129.6-60.6-131.9-62.9 M-135-54.7c0.1,0.5,0.1,1,0.1,1.6c0,2.3-0.6,4.3-1.9,5.8c-1.2,1.6-2.7,2.5-4.5,2.5
	s-3.3-0.8-4.5-2.5c-1.2-1.6-1.9-3.6-1.9-5.8c0-0.5,0-1.1,0.1-1.6c0.2-1.6,0.8-3.1,1.8-4.4c1.2-1.6,2.7-2.4,4.5-2.4s3.3,0.8,4.5,2.4
	C-135.9-57.7-135.3-56.3-135-54.7 M-361.1-54.2c-0.2,0-0.3,0-0.4,0.1c-0.6,0.1-1.2,0.3-1.7,0.8c-0.6,0.6-0.9,1.3-0.9,2.1
	s0.3,1.5,0.9,2.1c0.5,0.5,1.1,0.8,1.8,0.9c0.1,0,0.3,0,0.4,0c0.8,0,1.5-0.3,2.1-0.9c0.6-0.6,0.9-1.3,0.9-2.1s-0.3-1.5-0.9-2.1
	C-359.6-53.9-360.3-54.2-361.1-54.2 M-344.9-57.7c-0.5-0.8-1-1.5-1.7-2.1c-2.3-2.4-5.1-3.6-8.3-3.6c-1.9,0-3.6,0.4-5.2,1.2V-72
	c0-0.8-0.3-1.5-0.9-2.1c-0.6-0.5-1.2-0.8-2-0.8c-0.8,0-1.5,0.3-2.1,0.8c-0.5,0.6-0.8,1.3-0.8,2.1v11.4v0.3c0,0.6,0.3,1.2,0.8,1.7
	c0.1,0.1,0.3,0.3,0.4,0.4c0.4,0.3,0.8,0.4,1.3,0.5h0.3c2.9-0.2,5.8-0.2,8.6,0c1.2,0.3,2.2,0.9,3.1,1.8c0.1,0.1,0.2,0.2,0.3,0.3
	c1.1,1.2,1.7,2.7,1.7,4.4c0,1.8-0.6,3.4-1.9,4.6c-0.7,0.7-1.4,1.2-2.1,1.5l-9.6,0.4c-0.6,0-1.2,0.2-1.6,0.5
	c-0.1,0.1-0.3,0.2-0.4,0.3c-0.6,0.6-0.9,1.3-0.9,2.1s0.3,1.4,0.9,2c0.6,0.6,1.2,0.9,2,0.9h-0.5c4.8,0.1,7.6,0.1,8.4,0.1
	c3.4-0.1,6.2-1.3,8.5-3.8c0.3-0.3,0.6-0.7,0.9-1s0.5-0.7,0.8-1.1c0,0,0-0.1,0.1-0.1c1.2-1.9,1.8-4.1,1.8-6.5c0-1.6-0.2-3-0.8-4.4
	C-344.2-56.3-344.5-57-344.9-57.7 M-290.1-63c-2.3-2.7-5.1-4-8.3-4c-3.1,0-5.8,1.2-8,3.6V-73c0-0.9-0.3-1.7-1-2.4
	c-0.7-0.6-1.4-0.9-2.4-0.9c-0.9,0-1.8,0.3-2.4,0.9c-0.6,0.7-0.9,1.5-0.9,2.4v30.4c0,0.9,0.3,1.7,0.9,2.3c0.7,0.7,1.5,1,2.4,1
	s1.7-0.3,2.4-1c0.7-0.6,1-1.4,1-2.3v-0.6c2.2,2.4,4.9,3.7,8,3.7c3.2,0,6-1.4,8.3-4.1c2.3-2.7,3.5-5.9,3.5-9.7c0-0.5,0-0.9-0.1-1.4
	C-286.9-57.9-288.1-60.7-290.1-63 M-296-59.2c0.9,1.3,1.5,2.8,1.7,4.5c0,0.4,0.1,0.9,0.1,1.4c0,2.3-0.6,4.2-1.8,5.8
	c-1.2,1.6-2.6,2.5-4.2,2.5c-1.7,0-3.1-0.8-4.3-2.5c-1.2-1.6-1.8-3.5-1.8-5.8c0-0.5,0-0.9,0.1-1.4c0.2-1.7,0.7-3.2,1.7-4.5
	c1.1-1.6,2.5-2.4,4.3-2.4C-298.6-61.6-297.2-60.8-296-59.2 M-270.9-66.9h-0.3c-3.5,0.1-6.5,1.4-9,4.1c-2.2,2.3-3.4,5-3.8,8.2
	c-0.1,0.5-0.1,1.1-0.1,1.6c0,3.8,1.3,7.1,3.8,9.8s5.5,4,9,4.1h0.3c0.8,0,1.4-0.3,2-0.9c0.4-0.4,0.7-0.9,0.8-1.5
	c0-0.2,0.1-0.4,0.1-0.6v-0.1c0-0.2,0-0.4-0.1-0.6c-0.1-0.6-0.4-1.1-0.8-1.5c-0.5-0.5-1.1-0.8-1.7-0.9c-0.1,0-0.3,0-0.4,0
	s-0.3,0-0.4,0c-0.4-0.1-0.8-0.1-1.2-0.3c-1-0.4-1.9-1.1-2.7-2.1c-1.2-1.5-1.8-3.4-1.8-5.6c0-0.5,0-1.1,0.1-1.6
	c0.2-1.5,0.8-2.9,1.8-4.1c1-1.3,2.3-2.1,3.7-2.3c0.2,0,0.4,0.1,0.6,0.1c0.2,0,0.4,0,0.6-0.1c0.6-0.1,1.1-0.4,1.5-0.8
	c0.6-0.6,0.9-1.3,0.9-2.1c0-0.8-0.3-1.6-0.9-2.1C-269.4-66.6-270.1-66.9-270.9-66.9 M-355.5-86.8c-0.6,0-1.2-0.1-1.9-0.1
	c-4.9,0-9.3,1-13.4,3c-2.9,1.4-5.7,3.4-8.2,5.9c-0.1,0.1-0.3,0.3-0.4,0.4c-0.2,0.3-0.5,0.5-0.7,0.8c-0.3,0.5-0.5,1-0.5,1.6
	c0,0.8,0.3,1.5,0.9,2.1s1.3,0.9,2.1,0.9c0.6,0,1.1-0.1,1.5-0.4c0.4-0.4,0.8-0.9,1.2-1.3c1.3-1.3,2.7-2.4,4.1-3.4
	c3.9-2.6,8.4-3.8,13.4-3.8c0.6,0,1.3,0,1.9,0c6,0.4,11.2,2.8,15.6,7.2c4.8,4.8,7.3,10.6,7.3,17.4c0,0.3,0,0.5,0,0.8
	c-0.1,4.1-1.1,7.8-3,11.1c-1.1,2-2.5,3.8-4.3,5.5c-4.8,4.8-10.6,7.3-17.4,7.3c-6.7,0-12.5-2.3-17.3-7c-0.1-0.1-0.1-0.1-0.2-0.2
	c-0.4-0.4-0.8-0.8-1.2-1.2c-0.4-0.2-0.9-0.3-1.4-0.3c-0.8,0-1.5,0.3-2.1,0.8c-0.6,0.6-0.9,1.3-0.9,2.2c0,0.7,0.2,1.3,0.6,1.8
	c0.1,0.2,0.3,0.3,0.5,0.5c0.1,0.2,0.3,0.3,0.4,0.4c6,6,13.1,8.9,21.5,8.9c8.4,0,15.6-3,21.6-8.9c2.9-2.9,5.1-6,6.6-9.4
	c1.5-3.5,2.3-7.3,2.4-11.4c0-0.2,0-0.5,0-0.8c0-4.3-0.8-8.3-2.4-12.1c-1.5-3.5-3.7-6.6-6.6-9.6C-341.3-83.5-347.9-86.5-355.5-86.8z"
	/>
</svg>
