<?xml version="1.0" encoding="utf-8"?>
<!-- Generator: Adobe Illustrator 22.1.0, SVG Export Plug-In . SVG Version: 6.00 Build 0)  -->
<svg version="1.1" id="katman_1" xmlns="http://www.w3.org/2000/svg" xmlns:xlink="http://www.w3.org/1999/xlink" x="0px" y="0px"
	 viewBox="0 0 46.8 48.2" style="enable-background:new 0 0 46.8 48.2;" xml:space="preserve">
<style type="text/css">
	.st0{fill:#C2C1C0;}
</style>
<g>
	<path class="st0" d="M7.4,17.3c1.8,0,3.6,0.1,5.4,0c1.4-0.1,2.8-0.2,4.2-0.6c1.9-0.5,3.1-1.8,3.6-3.8c-2.9,0-5.7,0-8.7,0
		c0.2-0.3,0.4-0.4,0.5-0.6c2.8-2.8,5.6-5.6,8.5-8.5c1.5-1.5,3.1-1.5,4.6,0c2.8,2.8,5.7,5.7,8.5,8.5c0.1,0.1,0.2,0.3,0.5,0.5
		c-1.6,0-3.1,0-4.6,0c-1.3,0-2.6,0.1-3.9,0.3c-3.2,0.5-5,2.4-5.1,5.6c-0.1,3.8-0.1,7.6,0,11.4c0.1,3.5,2.2,5.5,5.9,5.8
		c2.5,0.2,5,0.2,7.6,0.3c-0.1,0.1-0.2,0.3-0.3,0.4c-2.9,2.9-5.8,5.8-8.7,8.7c-1.3,1.3-2.9,1.3-4.2,0C15,39.1,8.7,32.9,2.5,26.6
		c-1.3-1.3-1.3-3,0-4.4C4,20.7,5.7,19,7.4,17.3z"/>
	<path class="st0" d="M38.9,31.8c-3.4,0-6.8,0-10.1,0c-1.9,0-2.8-0.8-2.9-2.7c-0.1-1.9-0.1-3.8-0.1-5.7c0-1,0-2,0-3
		c0.2-2.2,1-3,3.2-3c2.3-0.1,4.6,0,6.9,0c1,0,1.9,0,2.8,0c1.9,1.9,3.8,3.6,5.5,5.5c1,1,0.9,2.7-0.2,3.8C42.4,28.3,40.6,30,38.9,31.8
		z"/>
</g>
</svg>
