<?xml version="1.0" encoding="utf-8"?>
<!-- Generator: Adobe Illustrator 22.1.0, SVG Export Plug-In . SVG Version: 6.00 Build 0)  -->
<svg version="1.1" id="katman_1" xmlns="http://www.w3.org/2000/svg" xmlns:xlink="http://www.w3.org/1999/xlink" x="0px" y="0px"
	 viewBox="0 0 277.9 101.7" style="enable-background:new 0 0 277.9 101.7;" xml:space="preserve">
<style type="text/css">
	.st0{fill:#C1C1C1;}
</style>
<g>
	<path class="st0" d="M103.9,95.8c0-11.7,0-23.5,0-35.2c-0.1-0.1-0.3-0.1-0.4-0.2c-8.2,12-16.4,24-24.6,35.9c-4.1,0-8.1,0-12.5,0
		C79.3,78.1,92,60.1,104.7,42c3.1,0,6.1,0,9.4,0c0,7.3,0,14.4,0,21.6c0.1,0,0.3,0.1,0.4,0.1c5.1-7.2,10.1-14.4,15.2-21.7
		c3.1,0,6.2,0,9.4,0c0,18.1,0,36.2,0,54.3c-3.4,0-6.7,0-10.2,0c0-11.9,0-23.7,0-35.5c-0.1-0.1-0.3-0.1-0.4-0.2
		c-8,11.8-16.1,23.5-24.1,35.3C104.2,95.9,104,95.9,103.9,95.8z"/>
	<path class="st0" d="M207.8,80.9c0-0.8,0.1-1.6,0.1-2.5c0-11.3,0-22.7,0-34c0-0.7,0-1.5,0-2.4c3.4,0,6.6,0,10,0
		c0,18.1,0,36.1,0,54.3c-3.7,0-7.4,0-11.2,0c-7.4-12.8-14.8-25.8-22.2-38.8c-0.1,0-0.2,0-0.3,0c0,12.8,0,25.7,0,38.7
		c-3.5,0-6.9,0-10.3,0c0-18.1,0-36.1,0-54.3c3.9,0,7.7,0,11.6,0c2.3,4,4.6,8.1,6.9,12.2c4.9,8.6,9.7,17.2,14.6,25.7
		C207.2,80.3,207.6,80.6,207.8,80.9C207.9,80.8,207.8,80.9,207.8,80.9L207.8,80.9z"/>
	<path class="st0" d="M58.7,68.7C52.7,77.4,46.8,86,41,94.5C28,100,10.7,93.7,4.9,79c-5.6-14,1.7-29.8,16.3-35.3
		c15.3-5.8,31.4,3.7,35.1,14.7c-3.8,0-7.6,0-11.6,0c-2.8-4-6.9-6.5-12.1-7.1c-4.1-0.5-8,0.5-11.5,2.7c-6.4,4-10.3,12.9-7,21.7
		c3.2,8.3,10.8,12.6,20.6,11.3c2-2.9,4.1-5.8,6.3-9.1c-3,0-5.6,0-8.3,0c-2.6,0-5.2,0-7.9,0c0-3.2,0-6.1,0-9.2
		C36.1,68.7,47.2,68.7,58.7,68.7z"/>
	<path class="st0" d="M274.6,68.7c-0.3,0.5-0.5,0.9-0.8,1.3c-5.3,7.8-10.7,15.7-16.1,23.5c-0.4,0.6-1.1,1.3-1.8,1.5
		c-14.3,5.1-31.6-3-35.9-18.4c-4.6-16.5,6.8-31.8,22.2-34.2c11-1.7,20.2,2.1,27.2,10.7c1.2,1.5,2,3.3,3.1,5.3c-4.2,0-8,0-11.8,0
		c-6.7-7.6-15.2-9.4-22.9-4.8c-7.5,4.4-10.7,13.2-7.8,21.7c2.9,8.5,10.7,13,20.7,11.7c2-2.8,4.1-5.8,6.3-9c-5.5,0-10.8,0-16.1,0
		c0-3.2,0-6.1,0-9.2C252.1,68.7,263.2,68.7,274.6,68.7z"/>
	<path class="st0" d="M161.6,51.5c0,11.9,0,23.5,0,35.3c3.1,0,6.1,0,9.2,0c0,3.3,0,6.4,0,9.6c-9.6,0-19,0-28.7,0c0-3.1,0-6.2,0-9.5
		c3,0,6,0,9,0c0-11.8,0-23.4,0-35.2c-3,0-6,0-9.1,0c0-3.3,0-6.3,0-9.5c9.6,0,19.1,0,28.7,0c0,3.1,0,6.1,0,9.4
		C167.9,51.5,164.8,51.5,161.6,51.5z"/>
	<path class="st0" d="M78.1,74.6c0-4.6,0-9.1,0-13.7c-0.1-0.1-0.3-0.1-0.4-0.2c-8.1,11.8-16.3,23.7-24.4,35.6c-4,0-7.9,0-12.3,0
		C53.7,78.1,66.4,60.1,79,42.1c3.1,0,6.1,0,9.2,0c0,6.8,0,13.5,0,20.4c-3.2,4-6.4,8.1-9.7,12.3C78.4,74.7,78.2,74.7,78.1,74.6z"/>
	<path class="st0" d="M61,35.7c-8.6,0-15.5-6.8-15.5-15.1c0.1-8.5,6.9-15.2,15.4-15.2c8.7,0,15.6,6.7,15.6,15
		C76.5,29,69.6,35.8,61,35.7z M49.3,20.8c0,6.5,5.3,11.6,12,11.5c6.4-0.1,11.4-5.3,11.5-11.9c0-6.5-5.2-11.6-11.9-11.6
		C54.3,8.8,49.3,14,49.3,20.8z"/>
	<path class="st0" d="M108.5,6.5c1.2,0,2.2,0,3.4,0c0,9.7,0,19.3,0,29c-0.2,0.1-0.3,0.2-0.5,0.3c-7-7.4-13.6-15-20.8-22.7
		c0,7.5,0,14.6,0,21.8c-1.2,0-2.2,0-3.3,0c0-9.7,0-19.4,0-29.6c3,2.4,4.9,5.1,7.2,7.5c2.4,2.5,4.6,5.1,6.9,7.7
		c2.2,2.5,4.5,5,7.1,7.4C108.5,20.7,108.5,13.7,108.5,6.5z"/>
	<path class="st0" d="M183.3,31.7c0,1.3,0,2.2,0,3.2c-5.2,0-10.2,0-15.4,0c0-9.5,0-18.8,0-28.3c5.1,0,10.2,0,15.4,0c0,1,0,2,0,3.1
		c-3.9,0-7.7,0-11.7,0c0,2.8,0,5.4,0,8.2c3.8,0,7.7,0,11.7,0c0,1.1,0,1.9,0,3c-3.8,0-7.7,0-11.7,0c0,3.7,0,7.1,0,10.9
		C175.4,31.7,179.3,31.7,183.3,31.7z"/>
	<path class="st0" d="M32.6,29.5c0,1.6,0,2.8,0,4c-5.9,3.1-15.5,2.7-20.3-3.7c-3.8-5.1-4.9-13.1,1.2-19.7c4.6-5,13.3-6.2,19.1-2.5
		c0,1.1,0,2.2,0,3.5c-6.7-3.3-13-3.7-17.7,3c-2.9,4.1-2.3,10.3,0.9,14.1c2.1,2.5,5,3.7,8.2,4.1C27.1,32.7,29.9,31.5,32.6,29.5z"/>
	<path class="st0" d="M147.9,29.5c0,1.6,0,2.8,0,4c-6.1,3.6-15.3,2.2-19.7-2.8c-4.2-4.8-5.8-13.3,0.2-20.2
		c4.5-5.2,12.9-6.6,19.5-2.9c0,1.1,0,2.3,0,3.7c-3.8-2.4-7.8-3.1-11.9-1.8c-2.3,0.7-4.2,2.1-5.6,4.1c-3,4.2-2.7,10.4,0.5,14.4
		c2.1,2.6,4.9,3.8,8.1,4.2C142.2,32.7,145.1,31.5,147.9,29.5z"/>
	<path class="st0" d="M206.9,6.4c3.2,0,6.3-0.2,9.3,0c4.7,0.3,7.4,3.6,7.2,8.4c-0.2,4.3-3.4,7.2-8,7.3c-1.6,0-3.2,0-4.9,0
		c0,4.3,0,8.4,0,12.7c-1.3,0-2.4,0-3.6,0C206.9,25.4,206.9,16,206.9,6.4z M210.6,19.1c1.5,0,3,0,4.4,0c2.6,0,4.4-1.8,4.7-4.5
		c0.2-2.4-1.3-4.4-3.7-4.8c-1.7-0.2-3.5,0-5.4,0C210.6,12.8,210.6,15.8,210.6,19.1z"/>
	<path class="st0" d="M254.5,34.8c-1.3,0-2.4,0-3.8,0c0-8.5,0-16.8,0-25.3c-2.8,0-5.3,0-8,0c0-1.1,0-2,0-3c6.6,0,13.1,0,19.8,0
		c0,0.9,0,1.8,0,2.9c-2.6,0-5.3,0-8.1,0C254.5,18,254.5,26.4,254.5,34.8z"/>
	<polygon class="st0" points="207.8,80.9 207.8,80.9 207.9,80.8 	"/>
</g>
</svg>
