<?xml version="1.0" encoding="utf-8"?>
<!-- Generator: Adobe Illustrator 24.1.0, SVG Export Plug-In . SVG Version: 6.00 Build 0)  -->
<svg version="1.1" id="Layer_1" xmlns="http://www.w3.org/2000/svg" xmlns:xlink="http://www.w3.org/1999/xlink" x="0px" y="0px"
	 viewBox="0 0 80.5 81" style="enable-background:new 0 0 80.5 81;" xml:space="preserve">
<style type="text/css">
	.st0{fill:#383838;}
	.st1{fill:#494949;}
	.st2{fill:#525252;}
	.st3{fill:#393939;}
	.st4{fill:#565656;}
	.st5{fill:#A5A5A5;}
	.st6{fill:#6C6C6C;}
	.st7{fill:#757575;}
	.st8{fill:#9D9D9D;}
	.st9{fill:#606060;}
	.st10{fill:#848484;}
	.st11{fill:#C1C1C1;}
	.st12{fill:#B2B2B2;}
	.st13{fill:#373737;}
	.st14{fill:#A7A7A7;}
	.st15{fill:#959595;}
	.st16{fill:#4E4E4E;}
	.st17{fill:#7D7D7D;}
	.st18{fill:#313131;}
	.st19{fill:#424242;}
	.st20{fill:#242424;}
	.st21{fill:#6E6E6E;}
	.st22{fill:#545454;}
	.st23{fill:#505050;}
	.st24{fill:#888888;}
	.st25{fill:#666666;}
	.st26{fill:#ADADAD;}
	.st27{fill:#F3F3F3;}
	.st28{fill:#D9D9D9;}
	.st29{fill:#D0D0D0;}
	.st30{fill:#474747;}
	.st31{fill:#D4D4D4;}
	.st32{fill:#EBEBEB;}
	.st33{fill:#BEBEBE;}
	.st34{fill:#626262;}
	.st35{fill:#BCBCBC;}
	.st36{fill:#C5C5C5;}
	.st37{fill:#B3B3B3;}
	.st38{fill:#D2D2D2;}
	.st39{fill:#5C5C5C;}
	.st40{fill:#5F5F5F;}
	.st41{fill:#3C3C3C;}
	.st42{fill:#9A9A9A;}
	.st43{fill:#515151;}
	.st44{fill:#949494;}
	.st45{fill:#EAEAEA;}
	.st46{fill:#A8A8A8;}
	.st47{fill:#D7D7D7;}
	.st48{fill:#B7B7B7;}
	.st49{fill:#6A6A6A;}
	.st50{fill:#727272;}
	.st51{fill:#F0F0F0;}
	.st52{fill:#C9C9C9;}
	.st53{fill:#CACACA;}
	.st54{fill:#717171;}
	.st55{fill:#5A5A5A;}
	.st56{fill:#8A8A8A;}
	.st57{fill:#F1F1F1;}
	.st58{fill:#4F4F4F;}
	.st59{fill:#DDDDDD;}
	.st60{fill:#929292;}
	.st61{fill:#787878;}
	.st62{fill:#898989;}
	.st63{fill:#9C9C9C;}
	.st64{fill:#A4A4A4;}
	.st65{fill:#969696;}
	.st66{fill:#636363;}
	.st67{fill:#484848;}
	.st68{fill:#A0A0A0;}
	.st69{fill:#D6D6D6;}
	.st70{fill:#E0E0E0;}
	.st71{fill:#A9A9A9;}
	.st72{fill:#808080;}
	.st73{fill:#C0C0C0;}
	.st74{fill:#ABABAB;}
	.st75{fill:#676767;}
	.st76{fill:#CCCCCC;}
	.st77{fill:#D1D1D1;}
	.st78{fill:#E3E3E3;}
	.st79{fill:#F4F4F4;}
	.st80{fill:#E7E7E7;}
	.st81{fill:#D5D5D5;}
	.st82{fill:#CECECE;}
	.st83{fill:#767676;}
	.st84{fill:#C6C6C6;}
	.st85{fill:#9F9F9F;}
	.st86{fill:#828282;}
	.st87{fill:#616161;}
	.st88{fill:#C2C2C2;}
	.st89{fill:#C4C4C4;}
	.st90{fill:#838383;}
	.st91{fill:#818181;}
	.st92{fill:#A1A1A1;}
	.st93{fill:#A2A2A2;}
	.st94{fill:#7F7F7F;}
	.st95{fill:#868686;}
	.st96{fill:#999999;}
	.st97{fill:#6D6D6D;}
	.st98{fill:#F2F2F2;}
	.st99{fill:#CFCFCF;}
	.st100{fill:#CBCBCB;}
</style>
<g>
	<path class="st0" d="M8,59.6c-1.9-1.7-3-4.1-4.3-6.2C0.9,48.8,0,43.8,0.4,38.5c1.2-0.4,1.2,0.5,1.2,1.2c0,0.6,0,1.2,0.4,1.7
		c0.5,0.8,0.4,2.2,1.8,2.3c0.8,0.4,1.1,1.3,1.7,1.9c0.3,1.1,0.8,1.6,1.6,1.9c0.6,0.2,1.2,0.5,1.8,0.9c0.9,0.6,1.6,0.6,1.8-0.7
		c0-0.3,0.2-0.5,0.4-0.6c0.6-0.3,1.2-0.2,1.9-0.1c2.3,0.5,4.6,1,6.7,2c0.8,0.8,1.5,1.7,2.2,2.5c0.7,2.1,2.8,2.2,4.4,3
		c0.4,0.2,0.7-0.1,0.7-0.6c0.1-0.9-1.2-1.2-1.1-2.1c-0.1-0.4,0-0.8,0.3-1.2c0.6-0.5,1.1-0.3,1.7,0c0.9,0.5,1.9,0.9,3,0.9
		c2.3,1.4,4,3.4,5.7,5.5c0.9,1.2,2,2.3,2.7,3.7c0.3,0.6,0.6,1,0.2,1.6c-0.7,0.8-1.5,0.9-2.4,0.6c-6-1.8-12.1-3.5-18.2-5.1
		c-3.2-0.9-6.5-1.6-9.7-2.5C8.8,55.2,8.3,55,8,55.4c-0.4,0.5,0.1,0.9,0.2,1.3C8.5,57.5,9.4,58,9.1,59C8.8,59.3,8.4,59.5,8,59.6z"/>
	<path class="st1" d="M75.5,60.2c-1.1,2.1-1.9,4.3-3.8,5.8c-0.6,0.1-0.9,0.6-1.2,1c-2.2,2.5-4.5,4.9-7.7,5.8
		c-3.3,0.9-6.7,1.6-10.1,0.2c-0.2-0.1-0.5-0.1-0.8-0.1c-1.1,0.1-2-0.4-2.8-1c-2.1-1.6-4-3.3-5-5.8c-0.4-0.9-0.5-1.7,0-2.5
		c1.1-0.7,2.4-0.9,3.6-1c1.6-0.2,3.1-0.5,4.7-0.7c0.9-0.1,1.7,0,1.9,1.1c0,0.3,0.1,0.5,0.1,0.8c0.1,1.1-0.2,2.3,0.6,3.3
		c0.1,0.3,0.2,0.7,0.5,0.9c0.2,0.3,0.4,0.5,0.7,0.7c0.9,0.4,1.7,0.5,2.5-0.1c0.6-0.7,1.5-1.1,1.6-2.2c0-0.2,0-0.3,0.1-0.5
		c0.7-0.7,0.3-1.6,0.5-2.4c0.1-0.6,0.1-1.2,0.2-1.8c-0.1-1.1,0.5-1.6,1.6-1.8c2.8-0.3,5.5-1.1,8.2-1.7c1.2-0.3,2.3-0.3,3.5-0.2
		C75.8,58.4,76,58.7,75.5,60.2z"/>
	<path class="st2" d="M1.6,42.1c-0.7-0.4-0.6-1-0.6-1.6c0-0.7,0.1-1.4-0.6-1.8c-0.1-2.4-0.3-4.7,0.6-7c0.7-0.4,1.1,0.1,1.3,0.6
		c0.3,0.7,0.8,1.2,1.6,1.1c2.1-0.3,4.2,0,6.2-0.6c1,0,2.1,0,3.1,0.1c3.1,1.6,6.1,0.3,9.2-0.4c1.7,0.1,3.2-0.9,4.9-0.8
		c2.2-0.9,4.4-1.5,6.5-2.5c1.5-0.1,2.4-1.3,3.6-2c0.9-0.5,1.7-0.8,2.6-0.7c2.3-0.1,4.4-0.9,6.7-1c1-0.1,2-0.4,2.8,0.5
		c0.5,1.3-0.5,2.2-1,3.2c-1.1,1-1.1,2.7-2.4,3.4c-0.3,0.1-0.5,0.1-0.8,0.1c-2.4-0.4-4.7,0.5-7,0.9C29.9,35.1,21.4,36.5,13,38
		c-1.4,0.2-2.8,0.1-4.2,0.6c-1.1,0.3-2.4,0.1-3.5,0.7c-1,0.6-2.1,1-2.6,2.1C2.6,41.8,2.2,42.1,1.6,42.1z"/>
	<path class="st3" d="M52,72.3c1.4-0.3,2.6,0.6,4,0.7c5.7,0.1,10.4-2.1,14.2-6.3c0.3-0.4,0.7-1.6,1.6-0.6c-1.2,2.6-3.3,4.3-5.3,6.2
		c-4.8,4.4-10.5,7.1-16.8,8.3c-3.9,0.7-7.8,1.2-11.7-0.1c-1-0.3-2.1,0.1-3.1-0.4c-0.2-0.2-0.2-0.4-0.1-0.7c1-1,2.4-0.7,3.6-0.6
		c2,0,3.4-0.8,4.2-2.6c0.3-0.4,0.6-0.8,1-1.1c2.3-1.1,4.7-1.4,7.1-1.9C51.1,72.8,51.6,72.8,52,72.3z"/>
	<path class="st4" d="M75.5,60.2c0-1-0.6-1.2-1.4-1.3c-2-0.2-3.8,0.5-5.6,0.9c-1.9,0.4-3.7,0.9-5.6,1.1c-0.8,0.1-1.3,0.4-1.3,1.3
		c-2.2,0.2-4.3,1-6.5,1.5c-0.4,0.1-0.8,0.1-1.2-0.3c-0.3-1.1-1.2-0.7-1.8-0.6c-2.6,0.4-5.2,0.8-7.8,1.2c-0.4,0.2-0.8,0.1-1.1-0.1
		c-1.2-0.9-0.9-2-0.5-3.2c0.3-0.7,1-0.9,1.7-1.1c5-1,10-1.8,15-2.7c3.8-0.7,7.7-1.3,11.5-2.1c2.1-0.5,4.3-0.4,6.3-1.3
		c0.6,0.1,0.6,0.6,0.9,1C77.4,56.5,76.7,58.5,75.5,60.2z"/>
	<path class="st5" d="M78.7,29.7c0.3,0.4,0.7,0.7,0.6,1.3c-0.6,0.9,0,1.9-0.2,2.8c-0.2,1.1-1.1,1.3-2,1.5c-4.7,1-9.4,1.5-14.1,2.5
		c-4,0.8-8.2,1.2-12.2,2.2c-1.7-0.1-3.2,0.6-4.6,1.6c-0.5,0.1-0.9,0.1-1.4,0.2c-1.6,0.4-2,0-2.5-1.6c-0.4-1.5,0.1-2.8,1.2-3.8
		c0.1-0.1,0.3-0.2,0.5-0.3c5.4-1,10.9-2,16.4-2.9c1-0.2,2-0.4,3-0.1c1,0.2,1.8-0.3,2.6-0.8c0.6-0.2,1.1-0.6,1.8-0.5
		c3.3-0.4,6.6-0.9,9.8-1.9C78,29.5,78.3,29.5,78.7,29.7z"/>
	<path class="st6" d="M71.8,16.2c1.1,0.5,1.3,1.6,1.9,2.4c1.4,2,2.5,4.1,3.5,6.2c0.2,0.5,0.2,1.1,0.3,1.7c-0.9,0.6-1.3-0.3-1.9-0.6
		c-0.9-1.6-1.8-3.1-3.1-4.3c-3.9-2.6-8-3.4-12.5-1.8c-0.8,0.3-1.5,0.5-2.1,1c-0.7,0.6-1.4,0.7-2.2,0.5c-0.5-0.3-1-0.3-1.6-0.2
		c-1.6,0.5-3.3,0.5-4.9,0.9c-0.8,0.2-1.7,0.2-2.4-0.4c-0.2-0.2-0.2-0.5-0.2-0.8c0.9-1.2,1.9-2.3,2.9-3.5c0.5-0.6,1.2-1.1,2-0.9
		c2.9-0.5,5.8-1,8.7-1.6c2.4-0.5,4.9-0.7,7.3-1.2c1.1-0.2,2.1,0.1,3,0.7l0,0C70.9,15,71.2,15.7,71.8,16.2z"/>
	<path class="st7" d="M70.5,14.3c-4.2,0-8.3,1.2-12.5,1.7c-2.2,0.3-4.4,1.3-6.7,0.8c-0.4-0.3-0.5-0.7-0.3-1.1
		c0.9-1.6,1.7-3.3,3.5-4.2c3.4-0.9,6.9-1.3,10.3-1.9c1.5-0.3,2,1,3.1,1.5C69.1,11.9,69.7,13.2,70.5,14.3z"/>
	<path class="st8" d="M54.5,12.1c-0.9,1.7-2.5,2.9-3.2,4.8c-1.6,1.1-2.7,2.8-4.4,3.9c-0.8-0.4-0.7-1-0.4-1.7c1.9-4,3.6-8.1,5.4-12.2
		c1.3-2.9,1-3.5-2.1-4.5c-1.6-0.3-3.1-0.6-4.7-0.6c-0.9-0.1-1.9,0.2-2.8-0.1c-0.5-0.2-1.5-0.1-1.1-1.2c3.5,0.1,7-0.6,10.4,0.6
		c2.2,0.8,4.5,1.3,6.6,2.5c0.3,0.2,0.7,0.3,0.7,0.7c-0.1,0.4-0.4,0.6-0.8,0.7c-1.4,0.1-1.7,1-1.5,2.2C56.8,9.1,56,10.8,54.5,12.1z"
		/>
	<path class="st9" d="M79.3,50c0,0.5,0.1,1.1-0.5,1.4c-0.7,0.5-0.1,1.8-1.3,1.9C74,55,70,55,66.3,55.8c-4.4,0.9-8.8,1.6-13.3,2.3
		c-2.7,0.5-5.5,0.9-8.2,1.5c-0.9,0.2-1.8,0.1-2.6-0.4c-0.5-0.5-0.6-1-0.3-1.6c0.7-0.9,1.8-1.1,2.8-1.3c8.5-1.4,17.1-2.9,25.6-4.5
		c0.8-0.3,1.5,0,2.3,0c0.5,0,1,0.2,1.4-0.3c0.3-0.6,0.7-1.3,1.5-1.4c0.8-0.2,1.5-0.5,2-1.2c0.3-0.5,0.8-0.6,1.3-0.4
		C79.2,48.9,78.9,49.6,79.3,50z"/>
	<path class="st10" d="M54.5,12.1c0-0.6,0.1-1.2,0.4-1.8c0.8-1.4,1.2-2.9,0.4-4.5c-0.4-0.9,0.1-1.4,1-1.6c0.8-0.1,1.7,0,2.5-0.1
		c3.3,1.6,6.1,3.7,8.6,6.3c0.2,0.2,0.3,0.4,0.4,0.6c-2.7-1.4-5.4-0.1-8,0.2C58.1,11.6,56.3,11.9,54.5,12.1z"/>
	<path class="st11" d="M41.2,0.4c1.2,1.2,2.7,0.3,4.1,0.6c0.7,0.6,0.4,1.3,0.2,2c-0.8,2.1-1.6,4.3-2.8,6.2c-0.4,0.5-0.4,0.9-0.5,1.3
		c-0.1,0.3-0.4,0.7-0.6,0.9c-1,0.9-1.2,1.9-0.7,3.1c-0.3,1.1-1.4,1.1-2.1,1.7c-0.8,0.1-1.4,0.5-2.2,0.7c-0.4,0.2-0.8,0-1.2-0.2
		c-1-0.7-0.4-1.5-0.1-2.3c1.4-3.4,3.1-6.7,4.4-10.2c0.2-0.7,0.6-1.3,0-1.9c-0.3-0.6-1-0.8-1.2-1.4C39.3,0,40.3,0.4,41.2,0.4z"/>
	<path class="st12" d="M76.2,25.3c0.7,0.1,0.6,1.1,1.4,1.2c0.6,1,0.9,2,1.2,3.1c-0.7,0.8-1.6,1.2-2.7,1.4c-2.7,0.4-5.3,1.3-8.1,1.2
		c-0.5-0.8-1.5-0.4-2.1-0.7c-0.7-0.4-1.5-0.5-2-1.2c-0.1-0.2,0-0.5,0.1-0.7c0.2-0.2,0.4-0.3,0.6-0.3c1.4,0,2.7-0.1,4-0.7
		c0.4-0.2,0.7-0.4,0.8-0.8c0.1-0.1,0.2-0.2,0.3-0.3c1.4-0.6,2.7-1,4.2-1.1C74.8,26.3,75.4,25.6,76.2,25.3z"/>
	<path class="st9" d="M10,33.4c-2.1,0-4.1,0.4-6.1,0.8c-1.4,0.3-2.3,0.1-2.3-1.6c0-0.4-0.2-0.8-0.6-1.1c0.2-1.7,0.3-3.5,1.3-5
		c0.5-0.7,0-1.5,0.5-2.1c1.1-0.4,1.1,0.4,1.1,1.1c0,1,0.1,1.9,0.8,2.6c0.9,1.7,2.1,3.1,3.9,3.8C9.5,32.2,10.3,32.3,10,33.4z"/>
	<path class="st13" d="M8,59.6c0.1-0.3,0.3-0.5,0.6-0.7c1.3-0.1,1.8,1.1,2.6,1.7c0.5,0.4,0.7,1,1.2,1.4c1.3,2.6,3.8,4.2,5.8,6.2
		c0.7,0.7,1.4,1.3,2.3,1.7c0.7,1.4,2.3,1.7,3.5,2.6c0.8,0.6,1.6,1.2,2.5,1.7c0.7,0.4,1.4,1,0.6,2c-0.3,0.1-0.5,0-0.7-0.1
		c-1.8-0.4-3.2-1.7-4.6-2.7C16.6,69.5,12,65,8.1,59.8C8,59.8,8,59.7,8,59.6z"/>
	<path class="st14" d="M13.1,12.4c2.7-2.6,6-4.4,9.3-6.3c3.4-2,7.2-3.3,11-4.4c1.1-0.3,2.3-0.4,3.4-0.7c0.2,0.2,0.4,0.4,0.4,0.7
		s0,0.5-0.2,0.8c-1,0.7-2.1,0.7-3.2,1c-2.4,0.8-5,1.2-7.2,2.6c-3.3,1.2-6,3.2-8.9,5.1c-0.7,0.5-1.6,0.9-2.2,1.5
		c-0.5,0.5-1.2,0.3-1.8,0.1C13.4,12.8,13.2,12.7,13.1,12.4z"/>
	<path class="st15" d="M13.1,12.4c0.3,0,0.5,0,0.8,0.1c0.5,0.8-0.1,1.3-0.5,1.8c-1.3,1.4-2.7,2.7-4,4c-0.7,0.7-1.5,1.5-2,2.4
		c-0.4,0.7-0.9,1.2-1.8,0.9c-0.4-0.2-0.4-0.7-0.7-1C7.1,17.5,9.9,14.8,13.1,12.4z"/>
	<path class="st16" d="M26.4,76.2c0.2,0,0.5,0,0.7,0c0.5-0.5,1-0.7,1.7-0.4c1.7,0.8,3.6,1.3,5.2,2.2c0.6,0.3,1.2,0.6,0.7,1.4
		c0,0.2,0,0.4,0,0.6C31.8,79.1,28.9,78.1,26.4,76.2z"/>
	<path class="st17" d="M4.9,20.7c0.3,0.1,0.5,0.4,0.6,0.7C6,21.8,6.2,22.3,5.9,23c-0.8,1.5-1,3.1-1,4.8c0,0.5-0.1,1.1-0.7,1.3
		c-0.9-0.6-0.6-1.6-0.6-2.4C3.5,26,3.8,25.1,3,24.6C3.4,23.2,4.1,21.9,4.9,20.7z"/>
	<path class="st8" d="M36.7,1.6c0-0.2,0-0.4,0-0.6c0.6,0,1.2-0.1,1.8-0.1c0.7,0.2,1.5-0.2,1.9,0.7C39.2,2.8,37.9,2.2,36.7,1.6z"/>
	<path class="st7" d="M71.8,16.2c-1-0.2-1.4-0.9-1.4-1.9C71.2,14.7,71.8,15.3,71.8,16.2z"/>
	<path class="st18" d="M1.6,42.1c1.3-3.2,2.9-4.1,7-4.1c1,0.7,2,0.1,3,0.2c2.3,0.4,4.3,1.4,6.3,2.5c1.2,0.7,2.4,1.4,3.6,2.2
		s2.5,0.8,3.8,0.5c3.9-0.7,7.8-1.3,11.7-2.1c0.9-0.2,1.8-0.2,2.7-0.4c1.4-0.3,2.2,0.2,2.8,1.4c0.4,1.1-0.2,2.2-0.1,3.3
		c0,0.7,0.1,1.3-0.3,1.9c-0.2,0.2-0.4,0.3-0.7,0.4c-2.7,0.9-5.5,1.5-8.3,1.7c-1.6,0.1-1.8,1.3-2.3,2.3c-1.7,0.3-3.1-0.6-4.5-1.2
		c-0.7,0.6-1.2,0.1-1.6-0.4c-0.4-0.4-0.6-0.8-1.2-1c-0.6-0.5-1.3-1-1.9-1.4c-0.4-0.2-0.8-0.3-1.2,0c-0.4,0.3-0.2,0.8-0.4,1.2
		c-0.1,0.1-0.2,0.2-0.3,0.2c-2.3-0.5-4.5-1.1-6.8-1.6c-0.6-0.1-1.1-0.2-1.7-0.3c-0.4,0-0.7-0.1-1.1-0.3c-0.5-0.4-0.7-0.9-1.2-1.3
		c-0.3-0.5-0.7-0.9-1.2-1.2c-0.2-0.3-0.6-0.4-0.9-0.5c-0.6-0.6-1.2-1.2-2.2-0.9c-0.4,0.3-0.7,0.7-1,1C2,44.3,1.6,43.3,1.6,42.1z"/>
	<path class="st19" d="M11.8,62.8c-1.1-1.3-2.1-2.5-3.2-3.8c-0.6-1-1.3-1.9-1.9-2.9c-0.4-0.6-0.8-1.1-0.4-1.8c0.4-0.6,1-0.3,1.5-0.2
		c2.2,0.5,4.4,1,6.6,1.6c5,1.3,10.1,2.6,15,4.1c2.5,0.8,5,1.3,7.5,2.2c0.8,0.3,1.5,0.3,2.3,0.1c1.3-0.1,1.4,1.1,2,1.7
		c0.1,0.8,0.3,1.5,0.8,2.1s0.7,1.4,0.4,2.2c-0.7,1-1.7,0.8-2.6,0.5c-6.5-1.9-13-3.4-19.5-5.2c-0.9-0.2-1.6-0.9-2.6-0.8
		c-0.7,0-1.3-0.1-1.9-0.4c-0.6-0.3-1.2-0.3-1.8,0C13.4,62.7,12.6,62.5,11.8,62.8z"/>
	<path class="st20" d="M40.5,64.1c-0.6-0.5-0.9-1.2-1.3-1.9c-1.9-2.9-4-5.8-6.6-8.2c-0.6-0.6-1.4-1.2-1.7-2
		c-0.2-0.3-0.3-0.5-0.5-0.8c-1-1-0.4-1.4,0.6-1.8c1.5-0.5,3-0.6,4.5-0.8c1.9-0.3,3.8-0.7,5.7-1.1c0.5,2.1,1.6,4.1,1.3,6.3
		c0,1.3,0.3,2.6-0.3,3.9c0.1,0.4,0.2,0.9,0.3,1.3c0.7,0.5,0.6,1.2,0.6,1.9c0,1,0,2,0.7,2.9c0.4,0.8,0.1,1.3-0.6,1.7
		c-0.6,0.4-1.2,0.2-1.7-0.3C41,64.8,40.7,64.4,40.5,64.1z"/>
	<path class="st7" d="M3.6,44.3c0.1-0.7-0.3-1.5,0.6-1.9c0.6,0.6,1.3,1.1,2.1,1.5c0.3,0.2,0.6,0.4,0.9,0.5c0.7,0.5,1.3,1,2.1,1.2
		c0.6,0.2,1,0.7,1.2,1.3c0.4,0.5,0.4,1.1-0.1,1.6c-0.5,0.4-1,0.3-1.6,0c-1.4-0.7-2.8-1.4-4.1-2.2C4.4,45.6,4.3,44.7,3.6,44.3z"/>
	<path class="st21" d="M26.5,51.9c0.8,0.4,1.2,1,1.2,1.9c-0.5,0.9-1.3,0.8-2,0.4c-1.4-0.8-3.1-1.3-4.3-2.3c-0.7-0.7-1.3-1.6-1.7-2.6
		h0.1c0.8-1,1.4,0.1,2.1,0.2c0.2,0,0.3,0.1,0.4,0.2C23.8,50.4,25.4,50.7,26.5,51.9z"/>
	<path class="st22" d="M4.9,46.2c1.6-0.1,2.9,0.9,4.2,1.5c1,0.5,1.5,0.2,1.5-0.9c0.3,0.1,0.5,0.3,0.6,0.6c0,2.5-0.2,2.7-2.6,1.6
		C7.2,48.4,5.5,47.9,4.9,46.2z"/>
	<path class="st23" d="M21.4,52c1.4,0.2,2.7,0.7,4,1.3c0.8,0.4,1.5,0.6,2.4,0.6c0.5,0.3,0.7,0.7,0.3,1.2c-0.3,0.4-0.7,0.8-1.2,0.6
		C25,54.5,22.6,54.2,21.4,52z"/>
	<path class="st24" d="M26.5,51.9c-1.7-0.1-3.2-1-4.5-1.9c0.1-0.2,0.2-0.4,0.5-0.4c0.5-0.1,0.9-0.2,1.1-0.7c0.1-0.1,0.2-0.2,0.4-0.2
		c1,0.4,1.4,1.6,2.4,2C26.4,51.1,26.5,51.5,26.5,51.9z"/>
	<path class="st18" d="M40.5,64.1c1.9,1.2,2.3,1.2,3.2-0.3c0.2,0.1,0.4,0.2,0.6,0.3c1.2,4,3.7,6.8,7.7,8.3c0,0.8-0.5,1.1-1.3,1.3
		c-2.3,0.5-4.6,1-6.9,1.6c-0.6-0.2-0.7-0.7-0.7-1.2C43,73,42.6,72,42.2,71c-0.3-1-0.2-2,0-3C41.6,66.6,40.6,65.5,40.5,64.1z"/>
	<path class="st10" d="M61.5,64.1c-0.1,0.9,0.4,1.9-0.6,2.6c-0.6-0.4-1.2-0.8-2.1-0.2C58.1,67,57,66.7,56.1,67
		c-0.6,0.2-1.2,0.6-1.7,0.9c-1.2-1.1-0.4-2.5-0.6-3.8c1.9-0.9,4.1-1.1,6.1-1.8C61.2,61.9,61.1,63.4,61.5,64.1z"/>
	<path class="st25" d="M61.5,64.1c-0.6-1-1.3-1.2-2.4-0.7c-0.9,0.4-2.1,0.5-3,0.9c-0.8,0.4-1.5,0.2-2.2-0.2c0-0.2,0-0.4,0-0.7
		c1.9-1,4-1.1,5.9-1.9c0.7-0.3,1.1,0.5,1.7,0.6C61.5,62.8,61.5,63.4,61.5,64.1z"/>
	<path class="st26" d="M54.5,67.9c0.2-1.8,1.9-1.4,2.9-1.9c0.5-0.2,1.1-0.2,1.7-0.4c1.1-0.5,1.7-0.2,1.9,1l-0.1-0.1
		c-0.8,0.9-1.7,1.5-2.9,1.4c-0.4,0.2-0.8,0.2-1.2,0.2c-0.6,0-1.1,0.3-1.7,0.4C54.7,68.5,54.6,68.2,54.5,67.9z"/>
	<path class="st27" d="M56.4,67.3c0.4,0,0.8,0,1.2,0c0.6,0.6,2.1,0.5,1.3,1.9c-1.3,1.3-2,1.3-3.2,0C55.2,68.3,56.2,67.9,56.4,67.3z"
		/>
	<path class="st28" d="M59,69.2c-0.4-0.6-0.9-1.3-1.3-1.9c1.1,0.2,2.1-0.6,3.2-0.6C60.6,67.7,60.2,68.8,59,69.2z"/>
	<path class="st29" d="M56.4,67.3c0,0.7-0.4,1.3-0.7,1.9c-0.4,0-0.6-0.2-0.7-0.6C55.4,67.9,55.8,67.5,56.4,67.3z"/>
	<path class="st30" d="M17.6,41.1c-2.7-1-5.4-2.3-8.3-2.7c-0.2,0-0.4-0.3-0.6-0.5c4.4-0.8,8.8-1.6,13.3-2.4
		c7.2-1.3,14.5-2.6,21.7-3.9c0.7-0.1,1.5-0.3,2,0.5c0.3,0.3,0.5,0.7,0.5,1.2c-0.3,1.2-1,2.3-2,3l-0.1-0.1c-0.8,0.7-1.8,0.8-2.8,1
		c-7.6,1.3-15.1,2.8-22.7,3.9C18.1,41.2,17.8,41.2,17.6,41.1z"/>
	<path class="st31" d="M33.5,2.9c1-0.7,2.1-0.7,3.2-0.7c1.5-0.4,1.9-0.1,1.6,1.3c-0.4,1.5-1.1,2.8-1.8,4.2
		c-1.5,3.4-3.1,6.7-4.6,10.1c-0.7,1.6-1.3,3.4-2.3,4.9c-0.1,0.2-0.2,0.5-0.3,0.7c-0.8,0.6-1.9,0.6-2.5,1.4c-0.6,0.4-1.4,0.7-1.9,1.3
		c-0.3,0.2-0.5,0.4-0.7,0.7c-0.6,1,0,1.9,0.2,2.8c0.2,1.6-0.7,2.7-1.8,3.6c-2.6,0.4-5.2,0.9-7.9,0.6c-0.6-0.1-1.3,0.1-1.7-0.5
		c0.2-0.6,0.7-0.7,1.3-0.7c1.2,0.1,2.3-0.2,3.5-0.2c1.1,0,1.6-0.7,2.1-1.7c2.4-5.3,5-10.6,7.1-16.1c0.7-1.9,2.1-3.5,2.2-5.6
		c0-0.8,0.4-1.1,1.2-1.2C31,7.7,31.5,7.6,31.8,7c0.1-0.3,0-0.6-0.3-0.8c-0.3-0.3-0.3-0.7-0.3-1C32,4.6,32.8,3.8,33.5,2.9z"/>
	<path class="st32" d="M14.7,33.4c-0.5,0-1.1,0.1-1.6,0.1c-1,0-2-0.1-3-0.1c-0.4-0.9-1.4-0.3-1.8-0.9c-0.4-0.7-0.4-1.4,0-2.1
		c0.4-0.7,0.7-1.5,1-2.3c0.4-0.9,0.3-1.4-0.7-1.6c-0.7-0.1-1.1-0.6-1-1.4c0.4-0.7,1.1-1,1.8-1.2c0.6-0.2,1.1-0.6,1.6-1
		c0.2-0.1,0.4-0.1,0.7-0.1c1.3-0.1,2.8,0.3,3.6-1.3c0.3-0.3,0.5-0.6,0.1-1c-0.4-0.6-1.4-0.2-1.7-1c-0.2-1.3,0.4-2.2,1.6-2.7
		c1.2,0.7,2.3,0.7,3.2-0.5c0.5-0.3,1-0.5,1.7-0.5c0.4,0,0.9,0,1.3,0.1c1.2,0.8,1.1,1.5,0.5,2.8c-2,4-3.7,8.1-5.5,12.2
		C15.9,31.8,15.7,32.8,14.7,33.4z"/>
	<path class="st12" d="M38.6,15.6c0.4-0.8,1.5-0.4,1.9-1.2c0.1-0.3,0.4-0.4,0.6-0.4c1.3,0.1,2.6-0.5,4,0c0.7,0.8,0.5,1.6,0.2,2.5
		c-1.3,3.5-3,6.8-5,10.1c-0.1,0.2-0.3,0.4-0.5,0.5c-1.6,0.3-2.7,1.7-4.3,2.2c-0.5,0.2-0.9,0.4-1.4,0.7c-0.7-0.6-0.4-1.2-0.1-1.8
		c1.1-2.2,2.3-4.4,2.8-6.9c0-0.4,0.4-0.7,0.7-0.9c0.2-0.2,0.2-0.3-0.1-0.4c-0.5-0.1-1.1,0-1.6,0c-0.4,0-0.8,0-1.1-0.2
		c-0.6-0.8-0.2-1.3,0.7-1.4c1.3-0.2,2.5-0.9,3.8-0.7c0.6,0.1,1-0.2,1.1-0.9c-0.1-0.2-0.2-0.4-0.5-0.5C39.4,16.1,38.8,16.2,38.6,15.6
		z"/>
	<path class="st33" d="M37.3,21.3c0.1,2.7-1.5,4.8-2.6,7.2c-0.2,0.5-0.6,0.9-0.6,1.4c-2.1,1-4.3,1.9-6.7,2.3
		c-0.7-1.5-2.4-1.7-3.5-2.6c-0.5-1.1-1.2-2.1,0-3.2c1,0.3,2.1-0.2,3.1,0.3c0.4,0.5,0.6,1,0,1.6c0.7-0.2,0.7-0.7,0.3-1.2
		c-0.3-0.6-0.2-1.1,0.5-1.2c1.2,0,2.3-0.8,3.5-0.7c0.5,0,1.2,0,0.9-0.8c-0.2-0.3-0.5-0.5-0.8-0.5c-0.8-0.4-1.9,0.4-2.5-0.7
		c0-0.2,0-0.4,0-0.6c0.7-0.5,1.4-0.8,2.3-0.7c0.6,0.1,1-0.2,1.4-0.4c1.1-0.4,2.3,0,3.3-0.6C36.5,20.8,37,20.9,37.3,21.3z"/>
	<path class="st34" d="M39.8,27.1c0-0.2,0-0.4,0.1-0.6c1.5-2,3.6-3.4,5.5-5c0.5-0.4,1-0.7,1.5-0.1c2.3,0.1,4.5-0.7,6.8-0.9
		c0.7-0.1,1.4-0.3,2.1,0.2c0.2,1.3-0.9,1.7-1.5,2.5C53,24,52.2,25.4,51,26.3c-0.5,0.3-1,0.8-1.5,0.1c-2.2-0.6-4.2,0.2-6.2,0.5
		C42.1,27,41,27.1,39.8,27.1z"/>
	<path class="st35" d="M46.2,32.1c0.3-1.2,0.7-2.4,1.9-3.2c3.7-0.4,7.2-1.3,10.9-1.8c1-0.1,1.9-0.7,2.8,0.2c0.2,0.4,0.2,0.9,0.2,1.4
		c0,1.8-0.1,2-1.8,2.3c-4.1,0.8-8.2,1.4-12.2,2.3C47.1,33.5,45.9,33.7,46.2,32.1z"/>
	<path class="st36" d="M61.5,27.4c-3.7,1.1-7.6,1.1-11.3,2.2c-0.7,0.2-1.6,0.3-2.1-0.6c0-1.1,0.9-1.7,1.3-2.6
		c0.4-0.2,0.8-0.4,1.2-0.6c3.6-0.1,7-1.2,10.6-1.6c0.6-0.1,1.1-0.3,1.7,0.1c0.2,0.2,0.3,0.4,0.3,0.7c0,0.6-0.5,1-0.6,1.6
		C62.3,26.9,62,27.3,61.5,27.4z"/>
	<path class="st37" d="M61.5,27.4c0-0.4,0.2-0.8,0.6-1c0.8,0.3,0.7,1.1,0.7,1.8c0,0.5,0,1,0,1.4c0,0.5-0.1,1-0.2,1.4
		c-0.1,0.9-0.8,1.3-1.5,1.4c-4.7,1.1-9.5,1.8-14.2,2.5c-1.3,0.2-1.6-0.3-1.4-1.6c0-0.4,0-0.8,0-1.2c0.2,0,0.4,0,0.6-0.1
		c0.4,0.8,1.1,0.6,1.8,0.5c1.7-0.4,3.5-0.6,5.1-1.1c1.9-0.6,4-0.4,5.9-0.9C61.5,30,61.5,30,61.5,27.4z"/>
	<path class="st38" d="M23.9,29.6c0.4,0,0.8,0,1.3,0c2.6,0,2.6,0,2.3,2.6c-1.6,0.4-3.2,0.8-4.8,1.2C23,32.1,23.8,31,23.9,29.6z"/>
	<path class="st39" d="M34.8,79.4c-0.6-0.9-1.7-0.9-2.6-1.3c-1.6-0.7-3.3-1.6-5.1-1.9c-0.6-1.3-2.1-1.7-3.2-2.5
		C22.6,72.6,21,72,20,70.5c0.6-1.2,1.7-0.9,2.5-0.6c3.1,1.1,6.5,1.4,9.6,2.7c1,0.4,1.5,1.3,2.6,1.6c-1-0.3-1.7-1.3-2.8-1.6
		c-0.7-0.2-1-0.8-0.7-1.5c1.2-1,2.1,0.2,3.2,0.3c0.8,0.1,1.5,0.4,2.3,0c0.3,0,0.7,0,0.9,0.3c1.1,1.6,2.8,2,4.4,2.6
		c1,0.3,1.6,0.9,1,2c-0.4,1.9-1.8,3.2-3.7,3.2C37.8,79.4,36.3,79.3,34.8,79.4z"/>
	<path class="st1" d="M43,76.2c-0.1-0.7-0.5-1.1-1.2-1.3c-2-0.6-4-1.2-5.1-3.2c-1.3,0.2-1.6-1-2.3-1.6c-0.2-0.4-0.6-0.6-0.6-1.1
		c0-0.3,0.1-0.5,0.3-0.8c0.6-0.5,1.3-0.5,1.9-0.4c2.5,0.5,5.1,0.8,7.1,2.6c0.5,1.6,0.8,3.1,0.7,4.8C43.6,75.6,43.5,76,43,76.2z"/>
	<path class="st40" d="M43,60.9c-0.8-0.5-0.6-1.2-0.6-1.9c3.3-0.1,6.4-1.1,9.7-1.5c3.3-0.5,6.5-1.1,9.8-1.7c2.9-0.5,5.9-1.1,8.8-1.7
		c1.6-0.3,3.3-0.1,4.8-0.8c0.6-0.3,1.3-0.5,1.9-0.7c0,0.4,0,0.8,0,1.3c-1.1,1.3-2.8,1.2-4.2,1.4c-6.6,1.2-13.2,2.4-19.9,3.5
		C49.8,59.3,46.4,59.9,43,60.9z"/>
	<path class="st19" d="M56,61.4c-0.3,0-0.5-0.1-0.5-0.4c0-0.5,1.8-2,2.4-1.8c0.5,0.2,1.3,0.2,1.3,0.9c0,0.6-0.7,0.7-1.2,0.8
		C57.3,61,56.7,61.2,56,61.4z"/>
	<path class="st41" d="M17.6,41.1c1.8-1.3,4-1.1,6.1-1.5c5.7-1.1,11.6-2.1,17.4-3.1c0.9-0.2,1.9-0.1,2.8-0.2
		c-0.5,1.1-1.1,2.2-0.9,3.5c-0.3,0.4-0.3,0.9-0.2,1.4c0.1,0.6,0.1,1.1-0.7,1.1c-0.4-0.6-1-0.8-1.8-0.7c-4.4,0.8-8.9,1.3-13.3,2.3
		C23.2,44.9,20.2,43.7,17.6,41.1z"/>
	<path class="st42" d="M78.7,33.4c0.2,0,0.4,0,0.6,0c0,1.1,0,2.1,0,3.2c-1.6,1.5-3.7,1.8-5.7,2c-1.7,0.2-3.5,0.4-5.2,0.8
		c-2.3,0.6-4.6,0.7-7,1.1c-1.8,0.3-3.5,0.6-5.3,1c-1.2,0.3-2.3,0.4-3.5,0.1c-0.7,0.1-1.2-0.5-1.8-0.8c-0.5-0.5-0.8-1-0.3-1.7
		c6.5-1.6,13.1-2.3,19.7-3.6c2.2-0.4,4.5-0.7,6.7-1.2C77.8,34.3,78.4,34.2,78.7,33.4z"/>
	<path class="st12" d="M45.6,33.4c0.1,0.8,0.6,1,1.3,0.9c4.7-0.8,9.3-1.7,14-2.5c0.5-0.1,1-0.3,1.3-0.9c0.2-0.2,0.4-0.2,0.6-0.2
		c0.5,0.2,0.7,0.8,1.1,1.1c0.8,0.5,2.2-0.3,2.7,1c-0.3,0.7-0.9,0.7-1.5,0.7c-4,0.1-7.9,0.9-11.8,1.7c-2.7,0.5-5.4,1-8.1,1.4
		c-0.3,0.1-0.7-0.1-1.1-0.2C44.1,35.2,44.9,34.3,45.6,33.4z"/>
	<path class="st43" d="M50.7,39.2c0.2,0.4,0.5,0.8,0.7,1.2c0.6,1.1,0.2,1.7-0.9,2.1c-1.1,0.4-2.2,0.7-3.3,1c-0.9,0.3-1.7,0.1-2-0.9
		c-0.4-1.1,0.4-1.6,1.1-2.1C47.5,39.2,49,39,50.7,39.2z"/>
	<path class="st44" d="M46.2,40.5c-0.2,0.6-0.7,1.2-0.7,1.9c-0.4,1,0.4,2-0.3,3c-1.5,1.1-2.3,1.1-3.5,0.2c-0.2-1.1,0.2-2.1,0.3-3.2
		c0.7-0.7-0.1-2,0.9-2.6c0,1.2,0.7,1.5,1.7,1.2C45.2,40.8,45.7,40.6,46.2,40.5z"/>
	<path class="st45" d="M66.6,32.9c-1.1-0.2-2.3,0.4-3.2-0.7c-0.6-0.7,0.2-1.1,0.3-1.7c0.1-0.1,0.2-0.2,0.4-0.2
		c1.3-0.3,2.4,0.9,3.7,0.1c0.2-0.1,0.4,0.2,0.3,0.5c-0.1,0.4-0.2,0.8-0.3,1.2C67.5,32.4,67,32.6,66.6,32.9z"/>
	<path class="st46" d="M46.9,21.4c-2.2,1.6-4.1,3.5-6.4,4.8c-0.2,0.1-0.4,0.2-0.6,0.3c1.4-3.5,3.4-6.6,4.6-10.1
		c0.2-0.7,0.5-1.3,0.5-2c-0.2-1.5,1.5-1,1.9-1.8c-1-0.6-1.9,0-2.8,0.4c-0.1,0-0.3,0-0.4,0c-0.8,0.2-1.7-0.2-2.1,0.9
		c-0.1,0.2-0.2,0.3-0.4,0.5c-0.2,0-0.5,0-0.7,0c-1-1.3-0.6-2.5,1.3-3.9c0.1,0,0.1,0,0.2,0c1.8,0.3,3.5-0.6,5.3-0.6
		c0.4,0,0.4-0.4,0.4-0.7c0-0.7-0.9-0.6-0.9-1.3c0.6-2.3,1-4.8,3.3-6.3c0.8-0.1,1.4,0.4,2.1,0.7c1.7,0.9,1.9,1.7,1.1,3.5
		c-1.8,4-3.5,8-5.2,12.1c-0.4,1-1.3,1.7-1.1,2.9C46.9,21,46.9,21.2,46.9,21.4z"/>
	<path class="st47" d="M53.8,22.6c0.6-0.6,1.3-1.3,1.9-1.9c0.8,0.2,1.3-0.4,1.9-0.7c4.9-2.3,9.7-2.6,14.4,0.3c0.4,0.2,0.8,0.5,0.9,1
		c0.2,0.9-0.3,1.2-1.1,1.4c-1.3,0.3-2.6,0.7-4,0.7c-0.9,0.1-1.7-0.2-2.5-0.1c-0.9-0.6-1.8-0.5-2.8-0.2c-2.6,0.6-5.2,1-7.8,1.3
		C53.6,24.3,53.4,23.9,53.8,22.6z"/>
	<path class="st36" d="M67.8,22.7c1.8-0.3,3.6-0.4,5.2-1.4c1.6,0.8,2.4,2.4,3.1,4c0.4,1-0.1,1.6-1,1.7c-1.8,0.3-3.6,0.5-5.3,0.7
		c-0.9-0.4-0.6-1.6-1.2-2.1c-0.1-0.5-0.2-1.1-0.5-1.5C67.6,23.7,67.4,23.2,67.8,22.7z"/>
	<path class="st48" d="M50,1.6c-0.9,2.1-1.9,4.3-2.8,6.4c-0.1,0.8-0.7,0.9-1.3,1c-0.7,0.1-1.3,0.4-1.8,0.8c-0.7,0.5-1.3,1.2-2.3,0.6
		v-0.1c0.4-2.7,2-4.9,2.8-7.4c0.2-0.7,0.5-1.4,0.7-2.1C46.9,0.8,48.5,1.2,50,1.6z"/>
	<path class="st49" d="M42.1,57.7c-0.6-1.2-0.3-2.5-0.4-3.8c0.3-0.4,0.7-0.6,1.2-0.7c4.5-0.8,9-1.6,13.5-2.5
		c0.8-0.2,1.6,0.2,2.4,0.1c0.4,0,0.9-0.1,1.3,0c1.1,0,2.2-0.1,3.3-0.1c1.3-0.2,2.5-0.8,3.9-0.8c0.6,0,1.2-0.1,1.7,0.1
		c0.6,0.3,0.9,0.7,1.3,1.1c0.3,0.4,0.3,0.8,0,1.2c-2.6,1.1-5.3,1.4-8,1.8C55.7,55.2,48.9,56.5,42.1,57.7z"/>
	<path class="st50" d="M69.2,50.4c-1.9,0.3-3.9,0.6-5.8,0.9c-0.2-0.2-0.2-0.4-0.2-0.6c0.2-0.8,0.6-1.6,1.2-2.2
		c0.3-0.3,0.4-0.9,0.9-1.1c1.7-0.8,3.5-1.3,5.1-2.2c2,0.5,3.6-0.4,5.3-1.3c1.3-0.2,2.6-0.7,3.7,0.5c0.4,1.6-0.7,2.9-0.6,4.5
		C78,50,77,50.6,75.7,50.8c-0.2-0.2-0.3-0.4-0.3-0.6c0.4-1.9-0.4-2.6-2.5-1.9C71.4,48.7,69.8,48.8,69.2,50.4z"/>
	<path class="st51" d="M70.4,52.2c-0.1-0.3-0.2-0.6-0.4-0.9c-0.1-0.2-0.1-0.3,0-0.5c0.3-0.4,0.7-0.6,1.2-0.6c0.9-0.1,1.8,0,2.6,0.5
		c0.5,0.3,0.9,0.6,0.5,1.2C73.1,53.1,71.8,52.8,70.4,52.2z"/>
	<path class="st52" d="M74.2,51.9c-0.8-1-2-1.3-3.2-1.3c-0.2-0.5,0.1-0.9,0.5-1c1.3-0.2,2.6-0.6,3.8,0.1c0.1,0.1,0.1,0.2,0.2,0.3
		c0,0.2,0,0.4,0,0.7C74.9,50.9,75,51.8,74.2,51.9z"/>
	<path class="st53" d="M32.8,22c-1.1,1.2-2.6,0.4-3.8,0.6c2.7-6.1,5.4-12.1,8-18.2c0.3-0.6,1.6-1.9-0.4-2.2c0-0.2,0-0.4,0-0.6
		c1.3,0,2.5,0,3.8,0c1.4,0.3,0.8,1.2,0.5,1.8c-1.6,3.7-3.3,7.4-4.9,11.1c-0.3,0.6-0.4,1.2-0.7,1.8c0.6,1-0.3,1.3-0.8,1.7
		c-0.6,0.6-1.6,0.8-2,1.7c-0.3,0.4-0.3,0.9,0,1.3C32.9,21.3,33.1,21.6,32.8,22z"/>
	<path class="st54" d="M34.1,17.5c0.5-0.3,1-0.7,1.3-1.2c0.4,0,0.8,0,1.2-0.1c0.4,0.4,0.9,0.1,1.3,0c0.6-0.1,1.1,0.1,1.4,0.7
		c0,0.3-0.1,0.6-0.3,0.6c-1.4,0-2.6,1-4,0.8C34.5,18.4,33.8,18.5,34.1,17.5z"/>
	<path class="st55" d="M39.2,16.9c-0.9-0.2-1.9,0.4-2.5-0.6c0.6-0.2,1.2-0.7,1.9-0.7c0.6,0,1.3,0.1,1.9,0.1c0.6,1.2-0.5,0.9-1,1.2
		C39.4,16.9,39.3,16.9,39.2,16.9z"/>
	<path class="st56" d="M69.2,25.1c0.9,0.7,0.5,1.7,0.6,2.6l0,0c-1,1.1-2.4,1.2-3.8,1.6c-0.4,0.1-0.9,0-1.3,0.3c-0.2,0-0.4,0-0.6,0
		c-0.6,0.6-1.3,0.6-1.9,0c0-0.4,0-0.8,0-1.3c0.8-0.8,1.9-1.2,2.9-1.5C66.5,26.5,67.9,25.8,69.2,25.1z"/>
	<path class="st8" d="M64.7,29.6c1.5-1.1,3.3-1.4,5.1-1.9c-0.2,2-1.9,1.4-3,1.9C66.2,29.8,65.4,29.6,64.7,29.6z"/>
	<path class="st8" d="M62.2,29.6c0.6,0,1.3,0,1.9,0c0,0.2,0,0.4,0,0.7l0,0c-0.4,0.3-0.5,1.2-1.3,0.6c-0.2,0-0.4,0-0.6,0
		C62.2,30.5,62.2,30.1,62.2,29.6z"/>
	<path class="st57" d="M8,25.2c0.3,0.6,0.9,0.7,1.5,0.6c1.5-0.2,1.5,0.6,1,1.6c-0.7,1.7-1.5,3.4-2.2,5.1c-2-0.4-3-2-4.2-3.5
		c-0.3-2.7,0.2-5.2,1.3-7.6c1.7-1.8,3.2-3.9,5.1-5.6c1.2-1.1,2.4-2,3.3-3.3c1.8-0.5,3.2-1.9,4.7-2.8c2.5-1.6,4.9-3.2,7.6-4.2
		c0.8,0.5,0.5,1.1,0.2,1.8c0,0.2-0.1,0.4-0.2,0.6c-0.3,0.6-0.8,1.1-1.2,1.6c-0.2,0.2-0.4,0.5-0.5,0.7c-0.8,0.7-0.7,1.7-1.1,2.5
		c-0.9,0.7-2,1.3-3.1,1.5c-0.9,0.2-1.5,0.9-2.2,1.3c-0.5,0.5-1.2,0.8-1.5,1.5c-0.3,0.2-0.6,0.1-0.9,0.1c-0.9,0.4-1.2,1.3-1.6,2.2
		c-0.1,0.9-0.8,1.3-1.5,1.3c-0.6,0-1,0.3-1.5,0.5c-0.6,0.6-1.6,0.8-1.9,1.7c-0.2,0.3-0.6,0.3-0.8,0.7C8.1,24.1,8,24.6,8,25.2z"/>
	<path class="st58" d="M31.6,71.1c0.9,1.6,2.6,1.9,4.1,2.5c0.5,0.2,1.4,0.3,1.2,0.9c-0.2,0.7-1.1,0.9-1.9,0.5
		c-0.8-0.4-1.6-0.7-2.2-1.5c-0.7-0.9-1.9-0.8-2.9-1c-2.4-0.6-4.8-1.1-7.2-1.9c-0.8-0.3-1.7-0.2-2.5-0.2s-1.4-0.4-1.9-1
		c-2.1-2.2-4.5-4.2-6.4-6.7c0.6-0.4,1.3-0.8,1.9-1.3c0.2,0.2,0.3,0.3,0.4,0.5c0.1,0.7,0.7,1.1,1,1.7c0.2,0.8,0.9,1.2,1.6,1.4
		c0.9,0.4,1.9,0.5,2.8,1c0.6,0.3,0.8-0.2,1.2-0.4c0.6-0.3,1.3,0,1.9,0.1c2.4,0.5,4.6,1.4,7.1,1.5c0.5,0.3,0.8,0.8,1,1.4
		C30.6,69.7,31.7,70.2,31.6,71.1z"/>
	<path class="st59" d="M25.8,7.3c0.1-0.6,0.2-1.2,0.3-1.8c2.2-1.7,4.8-1.9,7.3-2.6c0,1.4-0.3,2.5-2,2.6c-1.3,1.4-3.2,1.4-4.8,2.3
		C26.4,7.9,26,7.7,25.8,7.3z"/>
	<path class="st60" d="M52.6,41.1c3.7-0.3,7.4-1.1,11.1-1.6c3.2-0.4,6.2-1.8,9.5-1.7c1.3,0,2.7-0.5,4-0.9c0.7-0.2,1.4-0.4,2.2-0.4
		c0,1,0,1.9,0,2.9c-1.2,1.5-3.1,1.4-4.7,1.7c-1.4,0.2-2.8,0.2-4.2,0.7c-1.8,0.6-3.6,0.8-5.4,0.6c-0.3,0-0.7,0-1-0.1
		c-1.8-0.8-3.4-0.4-5,0.7c-1.5,0.6-3,1.1-4.5,1.4c-1.6,0.3-2,0.1-2.5-1.6C51.8,42.2,52,41.6,52.6,41.1z"/>
	<path class="st24" d="M64.7,42.1c3.3-0.1,6.3-1.5,9.7-1.6c1.7-0.1,3.3-0.6,5-0.9c0,1,0,1.9,0,2.9c0,0.6,0,1.2-0.1,1.9
		c-1.2-0.1-2.5,0.4-3.7,0c-1.4-0.4-2.7-0.1-4.1-0.1c-1.1-0.1-2.2,0.2-3.2,0.5c-1.3,0.4-2.4,0.3-3.5-0.7
		C64.4,43.4,63.9,42.8,64.7,42.1z"/>
	<path class="st61" d="M59,51.3c-4.4,0.2-8.6,1.5-12.9,2.2c-1.5,0.2-2.9,0.5-4.4,0.4c0-2.1-0.9-4.2-0.6-6.4c0.2,0,0.4,0,0.6-0.1
		c1.1,1.3,2.6,0.9,4.1,0.9c0.1,0,0.3,0,0.4,0c0.4,0.1,0.7,0.3,1,0.5c1,0.4,1.9-0.2,2.9-0.2c1.7-0.4,3.5-0.6,5.2-1
		c1.5-0.3,2.7-0.3,3.4,1.3c0.1,0.6,0.4,1.1,0.6,1.6C59.3,50.9,59.2,51.1,59,51.3z"/>
	<path class="st62" d="M45.9,48.8c-0.6,0.4-1.2,0.3-1.8,0.5c-2.2,0.5-2.2,0.5-2.3-1.8c0-0.6,0-1.2,0.1-1.9c1.1,0,2.2-0.3,3.2-0.6
		c2.1-1.5,4.6-1.9,7.1-2.2c0.2,0,0.4,0.2,0.5,0.3c0.2,0.7,0.7,1,1.4,0.8c1.6-0.5,3.4-0.6,4.9-1.5c1.4,1-0.1,1.8-0.1,2.7
		c-0.1,0.5-0.5,0.8-0.9,0.9c-1.6,0.7-3.5,0.7-5,1.7c-0.3,0.2-0.7,0.1-1-0.1c-0.3-0.3-0.4-0.7-0.6-1c-0.1-0.1-0.1-0.2-0.2-0.2
		C49.3,45.6,46.4,47,45.9,48.8z"/>
	<path class="st63" d="M6.1,44.3c-1.2-0.1-1.9-0.7-1.9-1.9c1.3-0.2,2.4,0.2,3.2,1.2C7.2,44.4,6.6,44.2,6.1,44.3z"/>
	<path class="st64" d="M22.7,50c-0.2,0-0.4,0-0.7,0l0,0c-0.5-0.5-0.9-1-1.5-1.3c-0.7-0.4-0.9-0.8-0.3-1.4c0.6-0.1,1.3-0.2,1.8,0.2
		c0.7,0.4,1.5,0.6,2,1.3c-0.1,0-0.1,0-0.2,0.1C23.5,49.2,23.1,49.6,22.7,50z"/>
	<path class="st24" d="M20.1,47.5c0.6,0.9,2.1,1.1,1.9,2.5c-0.8,0.1-1.4-0.6-2.2-0.6c-0.4-0.6-0.4-1.2-0.3-1.9
		C19.7,47.3,19.9,47.3,20.1,47.5z"/>
	<path class="st65" d="M9.3,45.5c-1,0.6-1.8,0.1-2.6-0.5c0.2-0.7,0.8-0.8,1.4-0.8C8.7,44.4,9.1,44.9,9.3,45.5z"/>
	<path class="st52" d="M8,44.2c-0.2,0.6-0.8,0.7-1.4,0.8c-0.2-0.2-0.4-0.5-0.6-0.7c0.3-0.6,0.8-0.7,1.4-0.7C7.8,43.7,8,43.9,8,44.2z
		"/>
	<path class="st66" d="M20.1,47.5c-0.2,0-0.4,0-0.6,0c0.8-1,1.7-0.9,2.5-0.1C21.4,47.5,20.8,47.5,20.1,47.5z"/>
	<path class="st67" d="M29.6,67.9c-1.1,0.4-2.1,0.3-3.2-0.1c-1.9-0.6-3.8-1-5.6-1.5c-0.3,0.1-0.6,0.1-0.9-0.1
		c-0.5-0.9-1.3-1.6-2-2.4c-0.2-0.3-0.5-0.6-0.6-1c0-0.3,0.1-0.5,0.3-0.6c3.2,0.2,6.1,1.5,9.2,2.3c4.4,1,8.7,2.3,13,3.5
		c0.8,0.2,1.5,0.4,2.3,0c0.3,0.8,0.6,1.7,0.9,2.5c-3-0.6-5.8-2.1-9-1.9c-0.3,0.2-0.6,0.2-0.8,0C32.1,67.7,30.8,68,29.6,67.9z"/>
	<path class="st68" d="M17.5,62.1c0,0.2,0,0.4,0,0.6c0.1,0.9-0.7,0.8-1.2,1.1c-1.3,0-1.8-1-2.6-1.7c0-0.2,0-0.4,0-0.6
		C15.1,61.1,16.4,61.5,17.5,62.1z"/>
	<path class="st69" d="M22.7,50c-0.1-0.8,0.2-1.3,1.1-1.2C24.1,49.8,23.6,50.1,22.7,50z"/>
	<path class="st70" d="M23,12.4c0.1-1,0.1-2.1,0.9-2.8c1.2,0.7,2.3,0.5,3-0.8c0.3-0.3,0.7-0.4,1.2-0.3c0.6,0.2,1.2,0.3,1.6,0.8
		c0.5,0.1,1.3-0.1,0.7,0.8c-2.2,3.4-3.4,7.3-5.1,10.9c-1.7,3.8-3.4,7.5-5.1,11.3c-0.3,0.8-0.9,1.2-1.7,1.2c-1.3,0-2.5,0-3.8,0
		c0.4-1.9,1.2-3.8,2-5.5c1.8-3.4,2.8-7.1,4.8-10.3c0.3-0.5-0.1-0.9-0.2-1.3c0.1-0.5,0.5-0.8,0.8-1.2c0.5-0.4,1.7,0,1.5-1.2
		C23.7,13.3,22.9,13,23,12.4z"/>
	<path class="st71" d="M27.1,27.1c-1.1-0.2-2.3,0.5-3.2-0.7c0.1-0.3,0.4-0.5,0.7-0.6c2.7-0.9,5.6-1.2,8.3-2c0.7,0.5,0.7,1.1,0.3,1.8
		c-0.3,0.6-0.8,0.3-1.4,0.3c-1.6-0.1-3,0.2-4.4,1.1C27.3,27.2,27.2,27.2,27.1,27.1z"/>
	<path class="st8" d="M28.1,8.9c-0.3,0.1-0.6,0.2-0.9,0.4c-0.5,0.4-1.1,0.6-1.7,0.7c-0.7,0.2-1.1,0-0.9-0.8c0.3-0.5,0.7-1,1-1.6
		c1.1,0.2,2-0.2,3-0.7C29.7,6.4,31,6.2,32.2,6c0.7,0.2,0.6,0.7,0.6,1.2C31.5,8.6,29.6,8.3,28.1,8.9z"/>
	<path class="st72" d="M32.9,23.9c-0.4,0.7-1.2,1-1.8,1.1c-1.9,0.3-3.8,0.7-5.7,1.3c-0.4,0.1-0.6-0.1-0.8-0.4
		c0.5-0.6,1.1-1.2,1.9-1.3c1.8-0.7,3.8-0.8,5.7-1.3C32.5,23.4,32.8,23.6,32.9,23.9z"/>
	<path class="st6" d="M32.2,6.1c-1.8,1.2-3.9,1.6-6,2.2c-0.3,0.1-0.4-0.4-0.6-0.6c0.1-0.1,0.2-0.2,0.3-0.4c1.6-0.1,2.8-1.5,4.5-1.6
		c0.4,0,0.8-0.2,1.2-0.3C31.6,5.8,31.9,6,32.2,6.1z"/>
	<path class="st9" d="M32.2,23.3c-1.5,1.3-3.5,1.2-5.3,1.7c-0.1,0-0.3-0.3-0.4-0.4c0.7-0.7,1.5-1.2,2.5-1.4
		C30.1,23.2,31.1,23.3,32.2,23.3z"/>
	<path class="st73" d="M28.1,8.9c1.4-1.1,3.2-1,4.8-1.6c-0.3,0.8-0.9,1.2-1.7,1.3c-0.6,0-1.1,0-1.5,0.6C29.1,9.2,28.5,9.3,28.1,8.9z
		"/>
	<path class="st74" d="M8,23.2c0.1-0.3,0.2-0.6,0.6-0.6c1.3-0.7,2.9-0.9,4.1-1.9c1.1-0.3,2.1-1,3.3-0.7c1.7,0.4,0.5,1.2,0.3,1.9
		c-1.3,0.9-3,0.9-4.5,1.3c-0.2,0-0.4,0-0.6,0.1c-0.7,0.4-1.4,1.1-2.4,1C8.2,24.2,7.7,24.1,8,23.2z"/>
	<path class="st74" d="M24.6,13.7c0.1,1.4-1.2,1.3-1.9,1.9c-0.7,0.7-1.8,0-2.5,0.6c-0.5,0-1,0.2-1.3,0.6c-0.9,0.3-1.7,0.9-2.6,0
		c0-0.9,0.4-1.6,1.3-1.9c0.4,0.4,0.9,0.3,1.2,0c1.2-1,2.7-1,4-1.6C23.4,13,24,13.3,24.6,13.7z"/>
	<path class="st75" d="M16,20.1c-0.8,0.7-1.9,0.9-2.9,1.3c-0.6,0.5-1.3,0.3-1.9,0.3c-0.5,0-0.9-0.2-0.6-0.9c1.2-0.5,2.3-0.9,3.5-1.4
		C14.7,19.5,15.6,19.2,16,20.1z"/>
	<path class="st52" d="M8,23.2c0.4,0.8,1.1,0.7,1.7,0.4c0.5-0.2,1-0.4,1.5-0.4C10.7,24.7,9,24.3,8,25.1C7.2,24.6,7.1,23.9,8,23.2z"
		/>
	<path class="st76" d="M11.8,23.2c1.4-0.9,2.9-1.1,4.5-1.3C15.1,23.6,13.4,23.3,11.8,23.2z"/>
	<path class="st77" d="M16.3,16.9c0.9,0,1.7,0,2.6,0c-1.4,1.4-1.8,1.5-3.2,0.3C15.8,17.1,16,17,16.3,16.9z"/>
	<path class="st52" d="M20.1,16.2c0.7-0.9,1.7-0.5,2.5-0.6c-0.2,0.6-0.7,0.6-1.3,0.7C20.9,16.3,20.5,16.2,20.1,16.2z"/>
	<path class="st8" d="M34.1,17.5c0.2,0.4,0.5,0.6,0.9,0.6c1.5-0.2,3-0.3,4.2-1.2l0,0c0.5-0.5,1.3-0.3,1.9-0.7
		c0.7,0.8,1.2,1.4-0.5,1.6c-1.6,0.2-3.3,0.6-4.9,0.9c-0.4,0.1-0.8,0.2-1,0.6c-0.5,0.8-1.3,0.7-2.1,0.8c-0.5,0.1-0.7-0.3-0.5-0.8
		C32.6,18.6,33.2,17.9,34.1,17.5z"/>
	<path class="st78" d="M41.2,14.3c0-0.2,0-0.4,0-0.6c0.6-1,1.9-0.5,2.6-1.3l0,0c1.1-0.6,2.2-0.3,3.3-0.3c0.4,0,0.8,0.3,0.4,0.9
		c-0.8,0.4-1.7,0.9-2.5,1.3C43.7,14.7,42.4,14.2,41.2,14.3z"/>
	<path class="st33" d="M32.2,19.4c0.9,0.7,1.7-0.3,2.5,0c0.4,0,0.9,0,1.3,0c0.2,0.2,0.2,0.4,0.2,0.7c-0.1,0.2-0.2,0.3-0.3,0.4
		c-1,1.1-2.4,0.8-3.7,0.9C31.4,20.7,31.4,20.1,32.2,19.4z"/>
	<path class="st31" d="M36,20.1c0-0.2,0-0.4,0-0.6c0.8,0,1.7-0.1,2.5-0.1c0.4,0,0.9-0.6,1.1,0c0.2,0.6-0.4,0.9-0.8,1.2
		c-0.3,0.1-0.6,0.1-0.9,0.1C37.3,20.4,36.4,21.1,36,20.1z"/>
	<path class="st79" d="M36,20.1c0.7,0.1,1.5-0.2,1.9,0.6c-0.2,0.2-0.4,0.4-0.6,0.6c-0.4,0-0.8,0-1.2,0.1c-0.3,0.2-0.6,0.1-0.8-0.2
		C35.1,20.5,35.7,20.4,36,20.1L36,20.1z"/>
	<path class="st54" d="M41.2,16.3c-0.4,0.8-1.2,0.6-1.9,0.7c0.2-0.6,1-0.6,1.2-1.2C40.8,15.7,41,16,41.2,16.3z"/>
	<path class="st80" d="M27.1,27.1c0.1,0,0.2,0,0.3,0c0.1,0,0.2,0,0.3,0c0.7,0.1,2-0.4,2.1,0.4c0.1,0.9-1.2,1.1-1.9,1.3
		C27,29.1,26,29,25,28.7C25.8,28.2,26.8,28.1,27.1,27.1z"/>
	<path class="st81" d="M36,20.1c0,0.4-0.8,0.9,0,1.3c-0.9,1.1-2.1,0.4-3.2,0.6c-0.2-0.2-0.4-0.4-0.6-0.6
		C33.3,20.4,34.8,20.6,36,20.1z"/>
	<path class="st82" d="M53.8,22.6c-0.1,0.8,0.2,1.1,1,0.9c2.5-0.4,5.1-0.8,7.6-1.3c1.1-0.2,2.2-0.4,3.2,0.1
		c-0.2,1.5-1.5,2.5-2.9,2.2c-3.5,0.9-7.1,1.4-10.6,1.9c-0.7,0.1-1.3,0.1-1.5-0.7C51.2,24.2,52.5,23.3,53.8,22.6z"/>
	<path class="st54" d="M69.2,25.1c0,0.7-0.3,1.4-1,1.6c-2,0.6-3.9,1.7-6,1.6c0-0.6,0-1.3,0-1.9c0.1-0.5,0.1-1,0.7-1.3
		c1.5,0.1,2.7-0.6,4.1-1c0.6-0.2,1.1-0.3,1.7-0.3C69.2,24.1,69.2,24.6,69.2,25.1z"/>
	<path class="st2" d="M68.5,23.9c-1.3,1.7-3.4,1.6-5.2,2.2c-0.6,0.2-0.4-0.5-0.6-0.9c0-0.2,0-0.4,0-0.6c0.8-1,1.8-1.7,2.9-2.2
		c0.8-0.2,1.4,0.3,2.2,0.3C68.1,23.1,68.3,23.5,68.5,23.9z"/>
	<path class="st83" d="M31.6,71.1c-0.8-0.4-1.3-1-1.3-1.9c0.6-1,1.3-0.5,2-0.2c0.2,0,0.3,0.1,0.4,0.1c0.6,0.5,1.3,0.8,2.1,0.6
		c0.9,0.4,1.4,1.1,1.9,1.9c0,0.7-0.1,1-1,0.8C34.2,72.2,33.1,71.1,31.6,71.1z"/>
	<path class="st84" d="M33.5,68.2c0.2,0.1,0.4,0.2,0.6,0.3c0,0.2,0.1,0.4,0.1,0.6c-0.2,1.1-0.4,1.2-1.9,0.7l0,0
		C31.7,68.4,31.9,68.2,33.5,68.2z"/>
	<path class="st85" d="M32.2,69.8c0.7,0,1.5,0.2,1.9-0.7c0.4,0.1,0.6,0.3,0.7,0.6C34,70.7,33.1,70.8,32.2,69.8z"/>
	<path class="st54" d="M52.6,43c-2.5,0.8-4.9,1.9-7.6,1.9c0.1-0.9-0.4-1.9,0.6-2.6c1.2,1.1,2.3-0.1,3.4-0.3c0.9-0.2,2.4,0.1,2.4-1.6
		c0.4,0.2,0.8,0.5,1.2,0.7C52.6,41.8,52.6,42.4,52.6,43z"/>
	<path class="st37" d="M62.8,30.9c0.4-0.2,0.9-0.4,1.3-0.6c0,0.7-0.4,1.3-0.7,1.9C62.9,31.9,62.8,31.4,62.8,30.9z"/>
	<path class="st86" d="M41.8,10.5c0.7-0.3,1.1-1.1,1.9-1.2c0.2,0.1,0.4,0.3,0.6,0.2c1.5-0.6,3-0.8,4.5-0.9c0.7,0.3,0.8,0.9,0.1,1.2
		c-2.1,0.9-4.3,1.4-6.6,1.3C42.1,11,42,10.7,41.8,10.5z"/>
	<path class="st87" d="M48.8,8.6c-1.6,1.4-3.8,1.7-5.1,0.7c1-0.8,2.2-1.1,3.5-1.3C47.7,8.2,48.3,8.4,48.8,8.6z"/>
	<path class="st88" d="M47.4,13c-1.1-1.1-2.5-0.4-3.8-0.6c1.3-1,3-0.7,4.4-1.2c0.2-0.1,0.5,0.2,0.5,0.5C48.6,12.5,48.1,12.8,47.4,13
		z"/>
	<path class="st89" d="M43.7,12.5c-0.5,1.2-1.5,1.3-2.6,1.3c-0.8-0.8,0.1-1,0.5-1.1C42.3,12.4,43,12.5,43.7,12.5z"/>
	<path class="st90" d="M70.2,51c0,0.1,0,0.2-0.1,0.3c-0.6-0.1-0.9-0.4-0.9-1c0.2-1.9,1-2.5,4-2.8c0.4,0,0.9-0.1,1.3,0
		c0.6,0.1,1.3-0.9,1.6,0.1c0.3,0.8,0.5,1.8-0.5,2.5h-0.1C74,48.8,70.9,49.4,70.2,51z"/>
	<path class="st79" d="M63.4,50.6c0,0.2-0.1,0.4-0.1,0.6c-1.1-0.1-2.1,0.8-3.1,0.1c-0.5-0.6-0.7-1.2-0.4-2c0.2-0.8,0.7-1.2,1.6-1.1
		c0.8,0.2,1.1,1,1.9,1.3C63.6,49.8,63.7,50.2,63.4,50.6z"/>
	<path class="st53" d="M60.2,49.4c0,0.7,0,1.3-0.1,2c-0.4,0-0.8-0.1-1.1-0.1c0-0.2,0-0.4-0.1-0.6C58.6,49.2,58.8,49,60.2,49.4z"/>
	<path class="st91" d="M51.9,47.5c1.6-1.7,3.7-1.6,5.8-1.9c2.4,0.2,4.6-0.9,6.8-1.6c0.3-0.1,0.5-0.3,0.9-0.3
		c0.7,0.6,1.5,0.6,2.3,0.4c1.3-0.4,2.6-0.6,4-0.4c0.4,1.3,0.2,1.6-1.3,1.9c-1.1,2-3.3,1.6-5.1,2.2c-1.7-0.8-3.2,0.3-4.7,0.6
		c-0.8,0.1-1.7,0.4-2.3,1c-0.8-1.3-1.8-1.1-3.1-0.9c-1.7,0.3-3.4,0.4-5.1,0.9c-0.7-1.3,0.5-1.5,1.1-2.1
		C51.5,47.2,51.7,47.3,51.9,47.5z"/>
	<path class="st16" d="M70.4,45.6c0.4-0.6,0.8-1.3,1.3-1.9c2.1-1,2.8-0.9,3.9,0.6c0,0.2,0,0.4-0.1,0.6
		C74.9,45.8,71.4,46.3,70.4,45.6z"/>
	<path class="st92" d="M58.3,49.4c0.5-1.6,5.5-3.2,6.8-2.2c0.1,0.1,0.2,0.4,0.2,0.6c-0.1,0.4-0.2,0.8-0.7,0.9c-1.1,0.3-2.1,1-3.2,0
		c-0.5-0.1-0.9,0.3-1.3,0.6c-0.9,0-1.3,0.4-1.3,1.3C58.4,50.4,58.3,49.9,58.3,49.4z"/>
	<path class="st76" d="M61.5,48.8c0.7-0.1,1.4,0,2.1-0.4c0.5-0.3,0.9-0.1,1.1,0.4c-0.4,0.7-0.5,1.5-1.3,1.9
		C63,49.8,61.8,49.8,61.5,48.8z"/>
	<path class="st93" d="M70.2,51c-0.6-0.9-0.3-1.5,0.8-1.6c1.1-0.1,2.1-0.8,3.2-0.7c0.9,0.1,1.4,0.3,1.3,1.3
		c-1.5,0.2-3.1-0.6-4.4,0.6C70.8,50.8,70.5,50.9,70.2,51z"/>
	<path class="st94" d="M24.6,13.7c-1.7,0.5-3.5,1.1-5.2,1.7c-0.7,0.2-1.3,0.5-1.8-0.4c1.5-1.4,3.5-2,5.4-2.6
		C23.7,12.6,24.4,12.9,24.6,13.7z"/>
	<path class="st95" d="M10.6,20.8c0.7,1,1.7,0.4,2.5,0.6c-1.3,1.1-2.9,1.3-4.6,1.3C9,21.8,9.7,21.2,10.6,20.8z"/>
	<path class="st33" d="M24.5,9.2c0.9,0.8,1.8-0.3,2.6,0.1c-0.4,1.2-1.6,1.3-2.5,1.5c-1,0.2-0.5-0.7-0.7-1.2
		C24.1,9.4,24.3,9.3,24.5,9.2z"/>
	<path class="st94" d="M13.8,62.1c1.1-0.1,1.6,1,2.5,1.3c0.7,0.4,1.3,0,2-0.1c1.1,0.5,1.4,1.6,1.9,2.6c-0.3,0.4-0.8,0.5-1.1,0.2
		c-1.4-0.9-3.3-1-4.6-2.2C14.1,63.4,13.6,62.9,13.8,62.1z"/>
	<path class="st75" d="M14.4,64c2,0.3,3.7,1.6,5.7,1.9c0.2,0.1,0.4,0.2,0.6,0.3c0,1.2-0.3,1.6-1.3,0.7c-1-0.8-2.3-0.9-3.5-1.5
		C15.3,65.1,14.6,64.8,14.4,64z"/>
	<path class="st96" d="M33.5,68.2c-0.7,0.3-1.4,0.6-1.2,1.5c-0.6-0.2-1.2-0.7-2-0.6c-0.5-0.3-0.6-0.8-0.6-1.3
		C30.9,66.5,31.4,66.6,33.5,68.2z"/>
	<path class="st97" d="M65.3,43.7c0,1.7-1.7,1.4-2.6,1.8c-1.1,0.5-2.5,0.6-3.6,1s-1.4,0-1.4-0.9c0.1-0.3,0.3-0.5,0.6-0.6
		c0.8-1.3,2.3-1.5,3.6-1.9c0.8-0.3,1.6-0.6,2.2-1.2c0.2,0.1,0.4,0.2,0.7,0.3C64.9,42.6,65.1,43.1,65.3,43.7z"/>
	<path class="st2" d="M64,41.8c0.1,1.1-0.3,1.7-1.5,2c-1.4,0.3-2.8,0.8-4.2,1.2c-0.1-0.9,0.7-1.6,0.6-2.6C60.8,40.8,62,40.7,64,41.8
		z"/>
	<path class="st46" d="M45.9,48.8c-0.6-1.1-0.2-1.8,0.9-2.2c1.3-0.5,2.7-0.9,4-1.4c1-0.3,1,0.4,1.1,1c-0.7,0.9-1.7,1.2-2.7,1.3
		c-0.4,0.3-0.9,0.5-1.4,0.6c-0.6,0.1-1,0.5-1.6,0.6C46.1,48.8,46,48.8,45.9,48.8z"/>
	<path class="st98" d="M47.5,47.5c0.4-0.3,0.7-0.6,1.3-0.6c0.7,0.9,1.9-0.2,2.6,0.6c-0.1,0.8-1,1.2-1.3,1.9C49,49.5,48,50,46.9,49.3
		C46.3,48.5,47.3,48.1,47.5,47.5z"/>
	<path class="st99" d="M47.5,47.5c0.1,0.7-0.3,1.2-0.6,1.8c-0.3-0.1-0.5-0.3-0.7-0.6C46.5,48.1,46.9,47.7,47.5,47.5z"/>
	<path class="st100" d="M51.3,47.5c-1,0.3-2,0.9-2.6-0.6c1.1,0.2,2.1-0.6,3.2-0.7c0,0.4,0,0.8,0,1.2C51.7,47.5,51.5,47.5,51.3,47.5z
		"/>
	<path class="st14" d="M18.2,63.4c-0.6,0.9-1.3,1-2,0.1c0.4-0.2,0.9-0.4,1.3-0.7C17.9,62.8,18.1,63,18.2,63.4z"/>
</g>
</svg>
