<?xml version="1.0" encoding="utf-8"?>
<!-- Generator: Adobe Illustrator 24.1.0, SVG Export Plug-In . SVG Version: 6.00 Build 0)  -->
<svg version="1.1" id="Layer_1" xmlns="http://www.w3.org/2000/svg" xmlns:xlink="http://www.w3.org/1999/xlink" x="0px" y="0px"
	 viewBox="0 0 80.5 81" style="enable-background:new 0 0 80.5 81;" xml:space="preserve">
<style type="text/css">
	.st0{fill:#233668;}
	.st1{fill:#1E4C80;}
	.st2{fill:#5172A3;}
	.st3{fill:#679AC7;}
	.st4{fill:#345391;}
	.st5{fill:#E2A129;}
	.st6{fill:#BD6329;}
	.st7{fill:#C87D2E;}
	.st8{fill:#F2C72A;}
	.st9{fill:#D78B29;}
	.st10{fill:#FEFEFE;}
	.st11{fill:#F8E790;}
	.st12{fill:#98C1E4;}
	.st13{fill:#F4D360;}
	.st14{fill:#CB984E;}
</style>
<path class="st0" d="M18,70.2c-1.1-0.1-1.5-1.1-2.2-1.8C11,64,6.8,59.2,3.7,53.5c-1.3-2.3-2.4-4.7-3-7.4c-0.5-2.4-0.3-4.7-0.5-7.1
	c1.3,0.7,0,2.2,0.9,3c1.4-2.9,3.8-4.7,6.3-4.2c1.9,0.3,3.9,0.7,5.6,1.4c2.2,1,4.2,1.4,6.6,0.8c4.5-1,9.1-1.7,13.6-2.4
	c3.5-0.4,6.8-1.5,10.2-1.4c-0.4,1.9-0.9,3.8-1.3,5.7c-0.6,0.5-0.7,1.1-0.7,1.8s0,1.5-0.1,2.2c-0.6,2.8-0.7,5.6,0.2,8.4
	c-0.2,1.5,0.1,3,0.6,4.4c0,0.5-0.1,1,0,1.4c0.6,1.8,1.3,3.6,2.1,5.3c0.5,1.1,1.1,2.5,2.1,3.2c1.9,1.5,3.7,3,6.2,3.6
	c3.5,0.9,6.8,0.6,10.1-0.7c2.4-0.9,4.6-2.2,6.3-4.3c0.4-0.5,0.9-0.4,1.1,0.4c-1.7,2.5-3.9,4.4-6.3,6.2c-2.7,2.1-5.6,3.7-8.9,4.8
	c-5,1.7-10,2.7-15.2,1.9c-1.7-0.3-3.6-0.1-5.2-1c0-0.2,0-0.4,0-0.6c1.3,0,2.6,0.1,4,0s3-0.3,3.7-1.9c0.4,0,0.6-0.2,0.6-0.7
	c0.1-0.2,0.2-0.4,0.3-0.6c0.7-1.7,0.1-3.4-0.2-5.1c-0.3-2.3-1.2-3-3.4-3.5c-4.7-1-9.3-2.4-14-3.7c-3-0.8-5.9-1.5-8.9-2.3
	c-0.4-0.1-0.9,0-1-0.2c-0.6-0.6-1.3-0.6-1.8-0.2c-0.6,0.5-0.5,1.3-0.2,2c0.2,0.7,0.6,1.3,1.2,1.6c0,0.5,0.1,0.9,0.6,1.2
	c0.7,0.6,1.4,1.3,2,1.9c-0.4,0.1-0.7,0.2-0.3,0.7c0.4,0.4,0.8,0.8,1.2,1.2C18.7,70,18.4,70.1,18,70.2z M23.7,48.6
	c-0.6-1.1-1.8-1.5-2.9-1.8c-0.8-0.2-1.6,0-1.5,1.1c-0.1,1.3-0.1,2.5,1.2,3.2c1.1,2.1,2.9,3.4,4.9,4.3c1.5,0.6,2.1,0,2-1.8
	c-0.5-1.9-1.4-3.5-3.1-4.5C24.3,48.7,24.2,48.5,23.7,48.6z M10.9,49.2c0-0.7,0.5-1.5-0.5-2C10,45.6,9,44.5,7.8,43.5l0,0
	c-0.7-0.9-1.7-1.3-2.7-1.6C4.2,41.6,3.6,42,3.5,43c-0.1,0.9,0.4,1.6,0.8,2.3c0.6,1,1.3,2,2.4,2.6c0.3,0.9,1.1,1.4,1.9,1.7
	C9.1,49.9,10.2,50.5,10.9,49.2z"/>
<path class="st1" d="M70.1,67.6c-0.2-0.7-0.7-0.9-1.1-0.4c-1.7,2.1-3.8,3.4-6.3,4.3c-3.3,1.3-6.6,1.6-10.1,0.7
	c-2.5-0.6-4.4-2.1-6.2-3.6c-1-0.8-1.6-2.1-2.1-3.2c-0.8-1.7-1.5-3.5-2.1-5.3c-0.1-0.4,0-0.9,0-1.4c0.5,0.1,1.1,0.3,1.5,0.2
	c2.7-0.8,5.5-0.9,8.2-1.5c3.2-0.8,6.5-1,9.8-1.7c4.4-1,8.9-1.6,13.3-2.3c1-0.2,1.9-0.9,3-1c0.5,1.6-0.6,2.9-1.1,4.1
	c-1.6,3.9-3.7,7.5-6.3,10.9C70.4,67.6,70.3,67.5,70.1,67.6z M59.3,68.3c0.8-0.4,1.2-1,1.2-1.9l0.1-0.1c1.1-0.9,0.5-2,0.5-3.1
	c0.2-1,0-1.8-0.6-2.5c-0.4-1.4-1.7-1.7-2.8-1.6c-1.7,0.2-3.2,1.9-3.5,3.5c-0.7,0.3-0.6,1-0.6,1.6c0.1,1.2-0.6,2.5,0.6,3.4
	c-0.1,0.6,0.4,0.7,0.7,1C56.7,70.1,58.2,69.9,59.3,68.3z"/>
<path class="st2" d="M41.5,54.3c-0.9-2.8-0.8-5.6-0.2-8.4c0.2-0.7,0.1-1.5,0.1-2.2s0.1-1.4,0.7-1.8c0.9,0.5,1.9,0.1,2.8,0
	c0,0.5-0.4,1-0.2,1.6c0,0.4,0,0.8,0,1.3c0,0.4,0,0.9,0,1.3c0,1.1,0.4,2,1.3,2.6c0.9,1.2,2,1.4,3.4,0.7c1.1-0.6,1.6-1.5,2.2-2.4
	c0.2-0.7,0.9-1.2,0.6-2.1c0-0.6,0-1.3,0-1.9c0-0.2,0-0.4,0-0.6c0.3-1.1-0.9-1.6-1.2-2.5c0.6,0,1.1-0.1,1.7-0.2
	c5.4-1,10.7-2.1,16.1-2.9c2.8-0.4,5.5-1.3,8.4-1.4c0.8,0,1.1-0.6,1.1-1.4c0.1-2.9-1-5.6-2.3-8.1c-0.7-1.4-1.3-2.9-2.8-3.8l0,0
	c0-0.4-0.2-0.6-0.6-0.7c-0.4-0.9-1.8-0.7-1.9-1.9c0.9,0.1,1.9-0.2,2.8,0.4c0.3,0.2,0.3-0.2,0.4-0.4c0.7,0.2,0.6,0.7,0.7,1.3
	c-0.2,0-0.6,0.1-0.5,0.4c0.2,0.4,0.5,0.9,1.2,0.9c1.3,1.2,1.8,2.9,2.4,4.5c2.3,5.9,3,12.2,2.5,18.5c0,0.4-0.1,0.8-0.4,1.1
	c-0.2-1.2,0.2-2.4-0.4-3.6c0.1,2.1-1,4.1-0.9,6.2c-0.9-0.1-1.7,0.2-2.4,0.6c0-0.4,0-0.8-0.1-1.2c0-0.4,0-0.9,0-1.3
	c0.1-0.6,0.1-1.3-0.1-1.9c-0.4-1.2-1.2-2-2.5-1.8c-1.5,0.2-2.5,1.1-3.1,2.5c-0.4,0.6-0.9,1.1-0.7,1.9c-0.8,0.1-0.3,0.9-0.6,1.3
	c-1.5,0.3-2.9,0.7-4.4,0.7c0.4-1,0.9-2,0.6-3.2c-0.1-1.1,0.6-2.3-0.6-3.2c-0.1-0.2-0.1-0.4-0.2-0.7c-0.8-1.5-2.3-1.6-3.5-1.1
	c-1.3,0.4-2.5,1.4-2.6,3c0,0.2-0.1,0.4-0.1,0.6c-1.1,0.9-0.4,2.2-0.5,3.3c-0.2,0.8,0.6,1.3,0.8,1.9c0.3,0.5,0.5,1,1.2,1.1
	c0.1,0.1,0.2,0.2,0.3,0.3c-0.3,0.1-0.6,0.3-0.9,0.3c-2.8,0.5-5.7,0.8-8.5,1.3C47.3,53.6,44.5,54.4,41.5,54.3z"/>
<path class="st3" d="M17.3,9.1c0.3-1.1,1.4-1.2,2.1-1.6c2.9-1.6,5.7-3.6,9-4.5c2-0.6,4.1-1.1,6.1-1.7c4.4-1.4,8.9-1.1,13.4-1.1
	c1,0,2.2-0.3,3.2,0.6c-0.3,0.1-0.8-0.1-0.8,0.5c0.3,0,0.5,0.1,0.8,0.1c1.4,0.4,2.8,2.3,2.3,3.3c-1.7,3.9-3.5,7.7-5.1,11.6
	c-0.6,1.3-1.8,2.5-1.6,4.1c-0.1,0.6-0.7,0.8-1.1,1.3c-1,1.2-2.8,1.5-3.5,3.1c-1.4,0.9-2.8,1.8-4.3,2.7c-2.8,1.7-5.6,3.4-9,3.8
	c-0.1-0.6,0.2-1.2,0.4-1.8c0.2-0.5,0.1-0.8-0.5-0.8c0.6-1,2.1-0.7,2.6-1.9c1.1-0.3,1.3-1.3,1.8-2.1c0.2-0.3,0.4-1.1-0.5-1.2
	c0-0.5-0.3-0.6-0.7-0.5c-1,0-2.1-0.1-3.1-0.1c0.7-0.6,1.4-1.2,1.6-2.2c0.1-0.4,0.6-0.6,1-0.7c0.6,1.8,3.4,2.4,5.3,1
	c0.6,0.1,0.9-0.4,1.4-0.6c1.2-0.4,2.2-1.1,3-2c1-1.2,0.6-2.7-0.7-3c-2.8-0.3-5.1,0.6-7,2.5c-0.7,0.2-1.1,0.7-1.4,1.3
	c-0.3-0.4-0.2-0.9-0.1-1.4c0.8-2.5,2.1-4.8,3.1-7.2s2.1-4.8,3.2-7.2c0.4-0.9,0.1-1.3-0.9-1.4c-1.7-0.2-3.3,0.5-4.9,0.9
	c-1,0.3-2,0.3-2.8,0.7c-2.6,1.6-5.5,2.5-8.2,4.1c-1.3,0.8-2.4,2-4.1,2.1C17.3,9.6,17.3,9.4,17.3,9.1z M41,11.1
	c-0.1,0.2-0.2,0.4-0.3,0.6c-1.4,1.2-1.4,1.7,0.2,2.5c0.1,0.5,0.5,0.6,1,0.6c1.6-0.2,3.2-0.5,4.7-1.4c0.1-0.1,0.1-0.3,0.1-0.4
	c1.5-0.3,2.9-1.7,3.1-3.1c0-0.2,0-0.5,0-0.7s0-0.4-0.2-0.5c-1.9-1.2-4.9-0.7-6.9,1.1C42,10.1,41.4,10.4,41,11.1z"/>
<path class="st1" d="M28.8,31.4c3.4-0.4,6.2-2.1,9-3.8c1.4-0.8,2.9-1.8,4.3-2.7c1.9,0.2,3.7-0.4,5.5-0.8c0.9-0.2,2.2-0.9,2.8,0.7
	l0,0c-0.4,0-0.6,0.2-0.6,0.6c-2,2.5-3.7,5.2-5,8.1c-0.4,0.8-0.6,1.7-1.3,2.4c-3.5-0.1-6.7,1-10.1,1.5c-4.6,0.7-9.1,1.4-13.6,2.4
	c-2.4,0.5-4.3,0.1-6.6-0.8c-1.7-0.7-3.7-1.1-5.6-1.4c-2.5-0.4-4.9,1.3-6.3,4.2c-1-0.8,0.4-2.4-0.9-3c-0.1-2.6-0.3-5.2,0.6-7.6
	c1,0.4,0.6,1.2,0.6,1.9c0,1.8-0.1,1.8,1.8,1.4c2.3-0.5,4.7-0.9,7-1.3c0.2,0,0.5,0,0.7,0c0.1,0.5,0.5,0.6,1,0.6c3,0,5.9,0,8.9,0
	c0.4,0,0.9-0.1,1-0.6c1.6,0,3-0.7,4.6-0.9C27.1,32.3,28.3,32.5,28.8,31.4z"/>
<path class="st4" d="M50.3,25c-0.6-1.6-1.8-0.9-2.8-0.7c-1.8,0.3-3.6,1-5.5,0.8c0.7-1.6,2.5-1.9,3.5-3.1c0.3-0.4,0.9-0.7,1.1-1.3
	c2-1.5,3.8-3.3,5.2-5.4c1.2-1.8,2.1-3.8,5-3.8c3.4,0,6.6-1.6,10.1-1l0,0c0,0.4,0.2,0.6,0.6,0.6c0.9,0.7,1.5,1.5,2.1,2.5
	c0.7,1.1,1.9,2,2.7,3.2c0.5,0.9,1.1,1.7,1.6,2.6c-0.1,0.2-0.1,0.7-0.4,0.4c-0.9-0.7-1.8-0.3-2.8-0.4c-0.2,0-0.4,0-0.6-0.1
	c-2.9-1.3-5.8-1.5-8.9-0.7c-3.8,1-7,2.6-9.6,5.5C51.2,24.4,51,25,50.3,25z"/>
<path class="st1" d="M34.5,79.1c0,0.2,0,0.4,0,0.6c-2.2-0.2-4.1-1.2-6-2.1c-3.6-1.9-7.1-4-10.2-6.7c-0.2-0.2-0.3-0.4-0.3-0.6
	c0.4-0.1,0.7-0.2,0.3-0.7c-0.4-0.4-0.8-0.8-1.2-1.2c-0.5-0.5-0.1-0.6,0.3-0.7c0.6-0.1,0.8,0.6,1.3,0.6c0.9,0,2,0.4,1.7-1.2
	c-0.3-2-1.1-3.6-3.1-4.4c-0.2-0.2-0.5-0.4-0.7-0.6c0-0.2,0-0.4,0-0.7c3,0.8,5.9,1.5,8.9,2.3c4.7,1.2,9.3,2.6,14,3.7
	c2.1,0.5,3.1,1.2,3.4,3.5c0.2,1.7,0.8,3.4,0.2,5.1c-2-0.6-4-1-6-1.3c0-0.4,0-0.8,0-1.2c0.2-0.6-0.4-0.9-0.6-1.3
	c-0.1-1.7-1.3-2.5-2.5-3.4c0.1-0.5-0.2-0.5-0.6-0.5c-0.7-1.4-1.9-1.5-3.3-1.2c-1.2,0.8-0.8,1.7,0,2.5c0,0.9,0.4,1.6,1.3,1.9
	c0,0.2,0,0.4,0,0.6c-1,0.3-2,0.1-2.9-0.2c-2.6-0.7-5.2-1.4-7.9-2.2c-0.4-0.1-0.8-0.3-1,0.1s0.3,0.7,0.5,0.8c1.6,1,2.9,2.4,4.5,3.4
	c2.4,1.4,4.6,3,7.4,3.9C32.8,78.1,34,77.9,34.5,79.1z"/>
<path class="st4" d="M64.3,49.2c1.5,0,3-0.3,4.4-0.7c0.2,0.7-0.3,1.5,0.4,2.2c0,0.2,0.1,0.3,0.3,0.4c0,0.5,0.3,0.7,0.7,0.8
	c1.5,1.5,3.8,0.9,4.5-1.2c0.6-0.3,0.9-0.9,1.2-1.5c0.7-0.4,1.5-0.8,2.4-0.6c0.4,1.1-1.2,2-0.3,3.2c0,0.2,0,0.4,0,0.7
	c-1.1,0-1.9,0.8-3,1c-4.4,0.7-8.9,1.3-13.3,2.3c-3.2,0.7-6.6,0.9-9.8,1.7c-2.7,0.7-5.5,0.7-8.2,1.5c-0.5,0.1-1-0.1-1.5-0.2
	c-0.5-1.4-0.8-2.9-0.6-4.4c3,0.1,5.8-0.7,8.7-1.2c2.8-0.6,5.7-0.9,8.5-1.3c0.3,0,0.6-0.2,0.9-0.3c1.8,0.6,3.3-0.1,4.4-2
	C64.1,49.3,64.2,49.2,64.3,49.2z"/>
<path class="st2" d="M66.9,10.4c-3.5-0.7-6.7,0.9-10.1,1c-2.9,0-3.8,2-5,3.8c-1.4,2.1-3.2,3.8-5.2,5.4c-0.2-1.6,1-2.8,1.6-4.1
	c1.7-3.9,3.4-7.7,5.1-11.6c0.4-1-0.9-2.9-2.3-3.3c-0.2-0.1-0.5-0.1-0.8-0.1C50.3,0.8,50.8,1.1,51,1c2.6,0.2,4.9,1.5,7.2,2.7
	c3.1,1.6,5.9,3.7,8.3,6.2C66.8,10,66.8,10.2,66.9,10.4z"/>
<path class="st4" d="M10.2,33.3c-2.3,0.4-4.7,0.9-7,1.3C1.3,35,1.4,35,1.4,33.2c0-0.6,0.5-1.5-0.6-1.9c-0.2-1.8,0.6-3.4,1.2-5.1
	c0.5,0,0.7,0.3,0.6,0.7c-0.5,1.3,0.3,1.6,1.3,1.8c0.7,0.9,1.3,2.1,2.5,2.5c0,0.5,0.2,0.7,0.7,0.6c0.2,0,0.4,0,0.5,0.1
	c0.1,0.7,0.6,0.6,1,0.6C9.3,32.8,10,32.7,10.2,33.3z"/>
<path class="st2" d="M4,28.9c-1-0.2-1.8-0.6-1.3-1.9c0.1-0.4-0.1-0.7-0.6-0.7c0-2.1,1.2-3.7,2.2-5.3c2.6-4,6.2-7.2,10.1-9.9
	c1-0.7,1.7-1.7,2.9-1.9c0,0.2,0,0.4,0,0.7l0,0c-0.4,0-0.6,0.2-0.7,0.6c0,0.2-0.1,0.4-0.1,0.6c-0.2,0-0.3,0.1-0.5,0.1
	c-0.5-0.1-0.7,0.1-0.7,0.6c-0.2,0-0.3,0-0.5,0c-0.7-0.1-0.7,0.5-0.8,0.9c-1.2,0.7-2,1.9-3.1,2.7C6.8,18.9,3.3,22.8,4,28.9z"/>
<path class="st1" d="M78,51.7c-1-1.1,0.6-2.1,0.3-3.2c0-2.1,1.1-4,0.9-6.2c0.6,1.2,0.2,2.4,0.4,3.6c0.2,1.7-0.8,3.2-0.8,4.9
	C78.8,51.3,78.3,51.4,78,51.7z"/>
<path class="st4" d="M75.2,21.9c-0.6,0-0.9-0.4-1.2-0.9c-0.2-0.3,0.2-0.3,0.5-0.4C75,20.9,75.2,21.3,75.2,21.9z"/>
<path class="st2" d="M67.5,11.1c-0.4,0-0.7-0.2-0.6-0.6C67.3,10.4,67.6,10.6,67.5,11.1z"/>
<path class="st3" d="M43.4,36.2c0.7-0.7,0.9-1.6,1.3-2.4c1.3-2.9,3-5.6,5-8.1c0.2,0,0.4,0,0.6,0c0.4,0.9,1.2,0.9,1.9,0.6
	c1.7-0.7,3.6-0.7,5.4-1c1.6-0.3,3.1-1.1,4.8-0.7c0,0.2,0,0.4,0,0.6c-0.9,0.4-0.6,1.2-0.6,1.9c-0.8,0.8-0.8,1.7,0,2.5
	c-0.3,0.9,0.5,1.4,0.7,2.1c1.5,1.6,3.8,1.5,5-0.2c0.7-0.4,1.4-0.9,1.3-1.9c0.4-0.3,0.7-0.8,0.5-1.3c0-1.1,0.6-2.3-0.5-3.2
	c0-0.5,0.2-1.2-0.7-1.3c0-0.2,0-0.4,0-0.6c1.3,0.3,2.6-0.1,3.9-0.1c0.7,0,1.1-0.5,1.2-1.2c1.5,0.8,2.1,2.4,2.8,3.8
	c1.3,2.5,2.4,5.2,2.3,8.1c0,0.8-0.3,1.4-1.1,1.4c-2.8,0.1-5.6,1-8.4,1.4c-5.4,0.8-10.7,1.9-16.1,2.9c-0.6,0.1-1.1,0.2-1.7,0.2
	l-0.1,0.1c-1.6-1.4-3.9-0.8-5,1.2c-0.6,0-0.6,0.6-1,0.9c-0.9,0.1-1.9,0.5-2.8,0C42.6,40,43,38.1,43.4,36.2z"/>
<path class="st4" d="M34.5,79.1C34,78,32.8,78.2,32,77.9c-2.7-0.9-5-2.5-7.4-3.9c-1.6-1-2.9-2.4-4.5-3.4c-0.3-0.2-0.8-0.4-0.5-0.8
	c0.2-0.4,0.6-0.2,1-0.1c2.6,0.7,5.2,1.5,7.9,2.2c1,0.3,1.9,0.5,2.9,0.2c1.5,1.2,2.9,2.6,4.9,3.1c0.5,0.1,0.8,0,0.8-0.6l0,0
	c2,0.2,4,0.7,6,1.3c-0.1,0.2-0.2,0.4-0.3,0.6c-0.4,0-0.6,0.2-0.6,0.7c-0.7,1.6-2.3,1.7-3.7,1.9C37.1,79.2,35.8,79.1,34.5,79.1z"/>
<path class="st5" d="M16.6,61.3c0,0.2,0,0.4,0,0.7c-0.7,0.1-1,0.5-0.8,1.1c0.1,0.3,0.4,0.7,0.9,0.7c0.8-0.1,0.6-0.7,0.6-1.2
	c2,0.8,2.8,2.4,3.1,4.4c-0.4,0-0.8-0.1-1.2-0.3c-1.5-0.8-3-1.5-4.5-2.2c-0.6-0.4-1-0.9-1.2-1.6c-0.3-0.7-0.4-1.5,0.2-2
	c0.5-0.4,1.2-0.4,1.8,0.2C15.7,61.3,16.2,61.2,16.6,61.3z"/>
<path class="st5" d="M24.3,49.2c1.7,1,2.7,2.6,3.1,4.5c-1.5-0.3-3-0.9-4.4-1.6c-0.8-0.4-1.5-1.1-2.5-1c-1.4-0.7-1.3-1.9-1.2-3.2
	c0.8,0.4,1.7,0.9,2.5,1.3C23.2,50.6,23.3,50.6,24.3,49.2L24.3,49.2z"/>
<path class="st5" d="M7.7,43.6c1.3,0.9,2.3,2.1,2.6,3.7c-0.1,0.2-0.2,0.4-0.3,0.5c-0.6-0.6-1.5-0.5-2.3-0.8
	c-1.2-0.6-2.3-1.5-3.6-1.6c-0.3-0.8-0.9-1.4-0.8-2.3c0.1-1,0.7-1.4,1.6-1.1C6,42.2,7,42.6,7.7,43.6C7.1,43.7,6.3,43,5.9,44
	c-0.2,0.6,0.4,0.8,0.7,1.1c0.2,0.3,0.6,0.3,0.9,0.1C8,44.7,7.7,44.1,7.7,43.6z"/>
<path class="st6" d="M20.5,51.1c1-0.1,1.7,0.6,2.5,1c1.4,0.7,2.9,1.3,4.4,1.6c0.1,1.8-0.5,2.4-2,1.8C23.4,54.5,21.6,53.2,20.5,51.1z
	"/>
<path class="st7" d="M4.1,45.4c1.4,0.1,2.4,1.1,3.6,1.6c0.8,0.4,1.7,0.2,2.3,0.8c0.1-0.2,0.2-0.4,0.3-0.5c1,0.4,0.4,1.3,0.5,2
	C9.3,49.2,8,48.1,6.4,48C5.4,47.4,4.7,46.4,4.1,45.4z"/>
<path class="st6" d="M14.7,64.5c1.5,0.7,3,1.4,4.5,2.2c0.4,0.2,0.8,0.3,1.2,0.3c0.3,1.6-0.8,1.2-1.7,1.2c-0.6,0-0.7-0.8-1.3-0.6
	c-0.7-0.6-1.3-1.3-2-1.9C14.9,65.4,14.7,65,14.7,64.5z"/>
<path class="st8" d="M21.8,49.2c-0.8-0.4-1.7-0.9-2.5-1.3c0-1.1,0.8-1.4,1.5-1.1c1.1,0.3,2.2,0.7,2.9,1.8l0,0
	C23,48.6,22.1,48.1,21.8,49.2z"/>
<path class="st6" d="M6.5,47.9c1.6,0,2.8,1.2,4.4,1.3c-0.6,1.3-1.7,0.7-2.5,0.4C7.6,49.3,6.8,48.8,6.5,47.9z"/>
<path class="st1" d="M42.1,77.2c0-0.4,0.2-0.6,0.6-0.7C42.7,76.9,42.5,77.1,42.1,77.2z"/>
<path class="st5" d="M23.7,48.6c0.5-0.1,0.7,0.2,0.6,0.6l-0.1,0.1C23.8,49.2,23.7,48.9,23.7,48.6L23.7,48.6z"/>
<path class="st5" d="M61.1,63.2c-0.1,1,0.5,2.2-0.5,3.1c-0.3-0.5,0.4-1.7-0.6-1.5c-1.7,0.4-3.4,0.7-5.1,1.5
	c-0.7,0.3-0.7,0.7-0.8,1.3c-1.2-1-0.5-2.3-0.6-3.4c0.7,0.1,1.3,0.5,2,0.2C57.3,63.5,59.1,63,61.1,63.2z"/>
<path class="st9" d="M61.1,63.2c-2-0.2-3.8,0.3-5.5,1.1c-0.7,0.3-1.3-0.1-2-0.2c0-0.6-0.1-1.3,0.6-1.6c2.1-0.7,4.3-1,6.3-1.9
	C61,61.4,61.3,62.2,61.1,63.2z"/>
<path class="st6" d="M60.4,60.6c-2,1-4.2,1.3-6.3,1.9c0.2-1.6,1.8-3.4,3.5-3.5C58.8,58.9,60,59.3,60.4,60.6z"/>
<path class="st8" d="M54.2,67.6c0-0.6,0-1,0.8-1.3c1.6-0.8,3.4-1.1,5.1-1.5c1-0.2,0.3,1,0.6,1.5l-0.1,0.1c-1.1-0.1-2,0.9-3.2,0.6
	c-1.4-0.4-1.7,1.1-2.5,1.6C54.6,68.3,54,68.1,54.2,67.6z"/>
<path class="st10" d="M54.8,68.6c0.9-0.5,1.1-2,2.5-1.6c0,0.6,0.5,0.7,1,0.7c0.4,0,0.8,0.1,0.9,0.6C58.2,69.9,56.7,70.1,54.8,68.6z"
	/>
<path class="st11" d="M59.3,68.3c-0.1-0.5-0.5-0.6-0.9-0.6c-0.5,0-1-0.1-1-0.7c1.1,0.3,2-0.7,3.2-0.6C60.5,67.3,60.1,67.9,59.3,68.3
	z"/>
<path class="st12" d="M62.4,24.4c-1.7-0.4-3.2,0.4-4.8,0.7c-1.8,0.3-3.7,0.3-5.4,1c-0.7,0.3-1.5,0.3-1.9-0.6c0-0.2,0-0.4,0-0.6l0,0
	c0.6,0,0.9-0.6,1.2-0.9c2.6-2.9,5.8-4.5,9.6-5.5c3.2-0.8,6-0.6,8.9,0.7c0.2,0.1,0.4,0.1,0.6,0.1c0.2,1.1,1.6,0.9,1.9,1.9
	c0,0.4,0.2,0.6,0.6,0.7l0,0c-0.1,0.7-0.5,1.3-1.2,1.2c-1.3,0-2.6,0.4-3.9,0.1C65.7,21.8,63.8,22.4,62.4,24.4z"/>
<path class="st5" d="M57.4,47.9c0.1-1.1-0.6-2.3,0.5-3.3c0.5,1.2,1.4,0.8,2.2,0.5c1.1-0.4,2.1-1.1,3.3-1c1,0,0.9-0.6,0.9-1.3
	c1.2,0.9,0.5,2.1,0.6,3.2c-0.7,0-1.4,0.2-2.1,0.4C61,46.7,59.3,47.6,57.4,47.9z"/>
<path class="st8" d="M57.4,47.9c1.9-0.4,3.6-1.2,5.5-1.6c0.7-0.1,1.4-0.3,2.1-0.4c0.2,1.3-0.3,2.3-0.7,3.3c-0.1,0-0.2,0.1-0.3,0.1
	c-0.9-0.2-1.9,0-2.8-0.6c-0.4-0.3-1-0.2-1.3,0.5c-0.6,0.1-1,0.8-1.7,0.7C58,49.2,57.2,48.8,57.4,47.9z"/>
<path class="st10" d="M51.6,46.8c-0.6,0.9-1.1,1.9-2.2,2.4C48,49.9,47,49.7,46,48.5c0.6-0.8,1-1.9,2.2-1.9
	C49.4,46.7,50.5,46.8,51.6,46.8z"/>
<path class="st7" d="M44.9,41.9c0.3-0.3,0.3-1,1-0.9c1.8,0.1,3.4-0.6,5-1.2l0.1-0.1c0.3,0.9,1.4,1.4,1.2,2.5c-1-1.1-2.1-0.3-3.1,0
	c-1.4,0.5-3,0.5-4.4,1.3C44.5,42.9,44.9,42.4,44.9,41.9z"/>
<path class="st6" d="M58,44.1c0.1-1.7,1.3-2.6,2.6-3s2.7-0.4,3.5,1.1C62.3,43.4,60.2,43.9,58,44.1z"/>
<path class="st9" d="M44.7,43.5c1.4-0.8,2.9-0.7,4.4-1.3c1-0.4,2.1-1.1,3.1,0c0,0.2,0,0.4,0,0.6c-2.5,0.8-4.8,2.1-7.5,1.9
	C44.7,44.3,44.7,43.9,44.7,43.5z"/>
<path class="st5" d="M69.1,50.7c-0.6-0.7-0.1-1.5-0.4-2.2c0.3-0.4-0.2-1.1,0.6-1.3c2.2,0.3,4.2-1.1,6.4-0.6c0,0.4,0,0.9,0,1.3
	c-1.2-0.4-2.1,0.8-3.3,0.6C70.8,48.4,69.5,49,69.1,50.7z"/>
<path class="st8" d="M69.1,50.7c0.4-1.8,1.7-2.4,3.3-2.2c1.2,0.2,2.1-1,3.3-0.6c0,0.4,0,0.8,0.1,1.2c-0.3,0.6-0.6,1.2-1.2,1.5
	c-1.3,0.2-2.6-1-3.9-0.1c-0.5,0-0.8,0.1-0.6,0.7l0,0c-0.3,0-0.5,0-0.8-0.1C69.2,51.1,69.1,50.9,69.1,50.7z"/>
<path class="st8" d="M51.6,46.8c-1.1,0-2.2-0.1-3.3-0.1c-1.2,0-1.7,1-2.2,1.9c-0.9-0.6-1.3-1.5-1.3-2.6c1-0.1,2,0.2,2.9-0.2
	c1.5-0.6,2.9-1.3,4.6-1.1C52.5,45.6,51.7,46.1,51.6,46.8z"/>
<path class="st9" d="M75.8,46.7c-2.2-0.5-4.2,1-6.4,0.6c-0.2-0.8,0.3-1.3,0.7-1.9c1.9,0.3,3.7-0.5,5.6-0.7
	C75.9,45.4,75.9,46,75.8,46.7z"/>
<path class="st10" d="M59.9,49.2c0.2-0.7,0.9-0.7,1.3-0.5c0.9,0.6,1.9,0.4,2.8,0.6c-1,2-2.5,2.7-4.4,2c-0.1-0.1-0.2-0.2-0.3-0.3
	C59.6,50.4,60.1,49.9,59.9,49.2z"/>
<path class="st5" d="M52.2,44.7c-1.6-0.2-3.1,0.5-4.6,1.1c-1,0.4-2,0.1-2.9,0.2c0-0.4,0-0.9,0-1.3c2.7,0.2,5.1-1.1,7.5-1.9
	C52.2,43.5,52.2,44.1,52.2,44.7z"/>
<path class="st6" d="M75.7,44.8c-1.9,0.1-3.7,1-5.6,0.7c0.6-1.4,1.5-2.3,3.1-2.5C74.5,42.8,75.3,43.6,75.7,44.8z"/>
<path class="st9" d="M58,44.1c2.2-0.2,4.3-0.7,6.2-1.9c0.1,0.2,0.1,0.4,0.2,0.7c0,0.6,0.1,1.3-0.9,1.3c-1.2,0-2.2,0.7-3.3,1
	c-0.8,0.3-1.7,0.7-2.2-0.5C57.9,44.5,58,44.3,58,44.1z"/>
<path class="st11" d="M59.9,49.2c0.2,0.7-0.3,1.2-0.5,1.8c-0.7-0.1-0.9-0.6-1.2-1.1C58.9,50,59.2,49.2,59.9,49.2z"/>
<path class="st3" d="M73.2,21.9c-0.4,0-0.6-0.2-0.6-0.7C73,21.2,73.2,21.4,73.2,21.9z"/>
<path class="st12" d="M16.6,11c0-0.2,0.1-0.4,0.1-0.6c0.4,0,0.7-0.2,0.7-0.6l0,0c1.6-0.1,2.8-1.4,4.1-2.1c2.6-1.5,5.6-2.5,8.2-4.1
	c0.7-0.4,1.7-0.4,2.6-0.6c1.6-0.4,3.2-1.1,4.9-0.9c1.1,0.1,1.3,0.4,0.9,1.4C37,5.9,36,8.3,34.9,10.7c-1,2.4-2.4,4.7-3.1,7.2
	c-0.1,0.5-0.3,0.9,0.1,1.3c0,0.2,0,0.4,0,0.7c-0.2,0.1-0.3,0.1-0.5,0.2c-0.4,0.1-0.9,0.2-1,0.7c-0.2,1-1,1.6-1.6,2.2
	c-1.4,0.4-2.6,1.1-3.7,2c-0.6,0.3-1.1,0.6-1.3,1.2c-0.1,0.2-0.1,0.4-0.2,0.6c-0.9,0.2-0.6,0.9-0.4,1.4c0.2,0.6,0.7,1.1,1.5,1.1
	c0.9,0,1.8,0,2.7,0c0.4,0,0.8-0.1,0.8-0.6c0.2,0,0.4,0,0.6,0c0.6,0,0.7,0.3,0.5,0.8c-0.2,0.6-0.5,1.1-0.4,1.8c-0.5,1-1.7,0.8-2.4,1
	c-1.5,0.3-3,0.9-4.6,0.9c-3.6,0-7.2,0-10.8,0c-0.2,0-0.5,0-0.7,0c-0.3-0.7-0.9-0.6-1.5-0.6c-0.4-0.1-1,0.1-1-0.6
	c1.4-0.6,1.2-2.1,1.9-3.1c1.1-1.8,1-4.4,3.8-4.8c0.3,0,0.7-0.4,0.8-0.9c0.4-0.3,0.9-0.5,1.3-0.8c1.1-0.7,1.4-1.9,0.5-2.6
	c-0.4-1-1.3-0.3-1.9-0.6c0.3-0.8,0.4-1.7,1.4-2c0.2,0,0.3,0.1,0.5,0.1c0.1,0.2,0.1,0.5,0.2,0.5c1.4,0.6,4.9-0.4,6.1-1.8
	c0.7-0.2,1.1-0.5,1.3-1.2c1-0.4,0.7-1.2,0.5-1.9c-0.4-1-1.3-0.7-1.9-0.5c-1.8,0.4-3.6,1.1-5,2.4c-0.5,0-0.3,0.6-0.6,0.7
	c-0.2,0-0.4,0-0.7,0.1c-0.2-1.2,0.3-2.1,0.8-3.1C17.2,11.9,17.4,11.4,16.6,11z M24.3,9.1C24.3,9.1,24.2,9.1,24.3,9.1
	c-0.9,0.2-0.6,0.8-0.6,1.3c0.1,0.6,0.6,0.6,1,0.6c0.5,0,1,0,1.6,0c1.7,0.1,3.1-0.8,4.3-1.9c0.8-0.5,1.6-1,1.9-2
	c0-0.5,0.5-1.2-0.6-1.2c-1.5-1-5,0.1-6.4,1.9C24.9,8,24.4,8.5,24.3,9.1z"/>
<path class="st13" d="M31.9,20c0-0.2,0-0.4,0-0.7c0.3-0.6,0.7-1.1,1.4-1.3c2,0.5,3.9-0.8,5.9-0.8c0.4,0,2.3-0.2,1.2-1.7
	c1.4,0.3,1.8,1.8,0.7,3c-0.8,0.9-1.8,1.6-2.9,2c-0.6-1.4-1.1-1.5-2.8-0.6c-0.3-0.1-0.6,0.2-0.8,0.3C33.5,20.6,32.6,21.1,31.9,20z"/>
<path class="st13" d="M40.8,14.2c-1.5-0.8-1.6-1.3-0.2-2.5c1.9,0.4,3.6-0.5,5.4-0.8c1.1-0.2,2.6,0,3.6-1.1c-0.2,1.4-1.6,2.8-3.1,3.1
	c0-0.3-0.2-0.6-0.6-0.6C43.9,11.9,42.5,13.3,40.8,14.2z"/>
<path class="st13" d="M23.6,26.9c0.1-0.2,0.1-0.4,0.2-0.6c0.5,0,1,0.1,1.4-0.1c1.9-0.6,3.8-1.1,5.8-1.2c0.9-0.1,1.4-0.5,1.7-1.3
	c0.8,0.1,0.7,0.8,0.5,1.2c-0.5,0.8-0.7,1.8-1.8,2.1c-1.9,0.2-3.8-0.4-5.7,0.6C25.1,27.8,24,28.1,23.6,26.9z"/>
<path class="st11" d="M23.6,26.9c0.4,1.1,1.5,0.8,2,0.6c1.9-1,3.8-0.4,5.7-0.6c-0.5,1.2-2,0.9-2.6,1.9c-0.2,0-0.4,0-0.6,0
	c-0.5-0.1-0.7,0.2-0.8,0.6c-0.9,0-1.8,0-2.7,0c-0.8,0-1.3-0.5-1.5-1.1C23,27.9,22.7,27.2,23.6,26.9z"/>
<path class="st9" d="M40.3,15.5c1.1,1.6-0.7,1.7-1.2,1.7c-2,0-3.8,1.2-5.9,0.8C35.2,16.2,37.5,15.2,40.3,15.5z"/>
<path class="st11" d="M40.8,14.2c1.6-0.9,3-2.3,5.2-1.9c0.4,0.1,0.5,0.3,0.6,0.6c0,0.2,0,0.4-0.1,0.4c-1.4,0.9-3,1.1-4.7,1.4
	C41.4,14.8,41,14.7,40.8,14.2z"/>
<path class="st7" d="M42.7,9.8c1.9-1.8,5-2.4,6.7-1.2c0.2,0.2,0.2,0.3,0.2,0.5c-1.3-0.2-2.4,0.6-3.7,0.7c-0.8,0.2-2-0.6-2.6,0.6
	c-0.2,0-0.4,0-0.6,0C42.7,10.2,42.7,10,42.7,9.8z"/>
<path class="st5" d="M32.6,23.7c-0.2,0.8-0.8,1.3-1.7,1.3c-2,0.1-3.9,0.6-5.8,1.2c-0.4,0.1-0.9,0-1.4,0.1c0.2-0.6,0.8-1,1.3-1.2
	c1.6,0.3,3-0.6,4.5-0.8c0.6-0.1,1.9,0.1,2.3-1C32.3,23.1,32.6,23.1,32.6,23.7z"/>
<path class="st8" d="M42.7,10.4c0.2,0,0.4,0,0.6,0c0.8-0.2,2,0.6,2.6-0.6c1.3-0.1,2.4-1,3.7-0.7c0,0.2,0,0.5,0,0.7
	c-1,1-2.5,0.9-3.6,1.1c-1.8,0.3-3.5,1.2-5.4,0.8c0.1-0.2,0.2-0.4,0.3-0.6C41.6,10.9,42.5,11.5,42.7,10.4z"/>
<path class="st7" d="M31.9,23.2c-0.4,1.2-1.7,0.9-2.3,1c-1.5,0.3-2.9,1.1-4.5,0.8c1.1-0.9,2.3-1.6,3.7-2
	C29.8,23.1,30.8,23.1,31.9,23.2z"/>
<path class="st11" d="M31.9,20c0.7,1.1,1.6,0.5,2.5,0.3c0.3-0.1,0.5-0.3,0.8-0.3c-0.3,1.4,0.7,1.2,1.5,1.2c-1.9,1.4-4.7,0.8-5.3-1
	C31.6,20.1,31.7,20.1,31.9,20z"/>
<path class="st10" d="M36.7,21.2c-0.8,0-1.8,0.2-1.5-1.2c1.8-0.9,2.2-0.9,2.8,0.6C37.6,20.9,37.3,21.4,36.7,21.2z"/>
<path class="st5" d="M42.7,10.4c-0.3,1.1-1.1,0.5-1.7,0.6c0.4-0.7,1-1,1.7-1.3C42.7,10,42.7,10.2,42.7,10.4z"/>
<path class="st2" d="M10.9,33.3c3.6,0,7.2,0,10.8,0c-0.1,0.5-0.5,0.6-1,0.6c-3,0-5.9,0-8.9,0C11.5,33.9,11.1,33.9,10.9,33.3z"/>
<path class="st4" d="M50.3,25c0,0.2,0,0.4,0,0.6c-0.2,0-0.4,0-0.6,0C49.7,25.2,49.9,25,50.3,25z"/>
<path class="st6" d="M36.2,75.2c-1.9-0.6-3.4-1.9-4.9-3.1c0-0.2,0-0.4,0-0.6c0.5,0,0.9,0.1,1.3,0.3c1.4,0.6,2.7,1.8,4.4,1.6
	c0,0.4,0,0.8,0,1.2l0,0C36.6,74.6,36.3,74.7,36.2,75.2z"/>
<path class="st7" d="M37,73.4c-1.7,0.2-3-1-4.4-1.6c-0.5-0.2-0.9-0.3-1.3-0.3c-0.8-0.4-1.3-1-1.3-1.9c0.8,0.4,1.6,0.8,2.5,0.7
	c1.1,1,2.4,1.6,3.9,1.9C36.6,72.5,37.2,72.8,37,73.4z"/>
<path class="st5" d="M36.4,72.1c-1.5-0.3-2.8-0.9-3.9-1.9l0.1-0.1c1.1,0.2,1.3-0.5,1.2-1.4C35.1,69.5,36.3,70.4,36.4,72.1z"/>
<path class="st5" d="M32.5,70.2c-0.9,0.1-1.7-0.2-2.5-0.7c-0.8-0.8-1.2-1.7,0-2.5c-0.2,1.5,1.2,1.3,1.9,1.9
	c-0.1,0.6,0.7,0.6,0.7,1.2L32.5,70.2z"/>
<path class="st8" d="M31.9,68.9c-0.7-0.6-2.1-0.4-1.9-1.9c1.3-0.2,2.6-0.2,3.3,1.2C32.7,68.3,32.1,68,31.9,68.9z"/>
<path class="st11" d="M31.9,68.9c0.2-0.9,0.9-0.6,1.4-0.6c0.4-0.1,0.6,0,0.6,0.5c0.1,0.9-0.1,1.5-1.2,1.4
	C32.6,69.5,31.8,69.5,31.9,68.9z"/>
<path class="st11" d="M17.3,62.6c-0.1,0.5,0.2,1.1-0.6,1.2c-0.5,0-0.8-0.4-0.9-0.7c-0.2-0.6,0.2-1,0.8-1.1
	C16.9,62.2,17.1,62.4,17.3,62.6z"/>
<path class="st10" d="M70.7,50.5c1.3-0.8,2.6,0.4,3.9,0.1c-0.8,2.2-3,2.8-4.5,1.2c0-0.2,0-0.5,0-0.7l0,0
	C70.7,51.2,70.7,50.9,70.7,50.5z"/>
<path class="st11" d="M70.1,51.2c0,0.2,0,0.5,0,0.7c-0.4-0.1-0.7-0.2-0.7-0.8C69.6,51.1,69.9,51.2,70.1,51.2z"/>
<path class="st10" d="M16.6,11c0.8,0.4,0.7,0.9,0.3,1.5c-0.5,1-1.1,1.9-0.8,3.1c0,0.2,0,0.3-0.1,0.5c-0.5,0.1-0.6,0.4-0.6,0.9
	c0,0.1,0.1,0.2,0.1,0.3c-1,0.3-1.2,1.2-1.4,2c-1.8,0.5-3.9,0.7-5,2.6c-0.5-0.1-0.7,0.2-0.7,0.6c-0.5-0.1-0.6,0.2-0.6,0.6
	c-1,0.4-0.7,1.1-0.4,1.7c0.3,0.4,0.9,0.6,1.1-0.2l0,0c0.7-0.1,1.6,0.4,1.9-0.6c1.1-1.3,2.5-0.4,3.7-0.6c0,0.5-0.5,0.9-0.8,0.9
	c-2.8,0.4-2.7,3-3.8,4.8c-0.6,1-0.5,2.6-1.9,3.1c-0.2,0-0.4,0-0.5-0.1c0-0.5-0.3-0.6-0.7-0.6C5.2,31,4.6,29.9,3.9,29
	C3.2,22.9,6.7,19,11,15.5c1.1-0.9,1.9-2,3.1-2.7c0.5-0.1,0.7-0.5,0.8-0.9c0.2,0,0.3,0,0.5,0c0.5,0.1,0.7-0.2,0.7-0.6
	C16.3,11.1,16.4,11,16.6,11z M10.2,25.3c-0.1,0-0.2-0.1-0.3-0.1s-0.1,0.2-0.1,0.2c0.1,0,0.2,0.1,0.3,0.1
	C10.1,25.5,10.2,25.4,10.2,25.3z"/>
<path class="st12" d="M6.5,31.4c0.4-0.1,0.7,0.1,0.7,0.6C6.7,32.1,6.5,31.9,6.5,31.4z"/>
<path class="st3" d="M14.9,11.7c-0.1,0.5-0.2,0.9-0.8,0.9C14.2,12.2,14.1,11.6,14.9,11.7z"/>
<path class="st12" d="M16.1,11.1c0,0.4-0.3,0.7-0.7,0.6C15.4,11.2,15.6,11,16.1,11.1z"/>
<path class="st3" d="M17.3,9.8c0,0.4-0.2,0.6-0.7,0.6C16.7,10,16.9,9.8,17.3,9.8z"/>
<path class="st6" d="M62.4,24.4c1.4-2.1,3.3-2.7,5.7-1.3c0,0.2,0,0.4,0,0.6c0,0.3-0.1,0.5-0.4,0.6c-1.4,0.8-3,0.8-4.3,1.4
	c-1.2,0.6-1-0.1-1-0.8C62.4,24.8,62.4,24.6,62.4,24.4z"/>
<path class="st9" d="M62.4,25c0,0.7-0.2,1.3,1,0.8c1.3-0.6,3-0.7,4.3-1.4c0.3-0.1,0.3-0.4,0.4-0.6c0.8,0.1,0.7,0.7,0.7,1.3
	c0,0.7-0.1,1.2-1.1,1.4c-1.5,0.3-3.1,0.7-4.5,1.4c-1.3,0.7-1.4,0.2-1.4-0.9C61.8,26.2,61.6,25.4,62.4,25z"/>
<path class="st5" d="M61.8,26.9c0,1.1,0.1,1.6,1.4,0.9c1.4-0.7,3-1.2,4.5-1.4c1-0.2,1.1-0.6,1.1-1.4c1,0.9,0.5,2.1,0.5,3.2
	c-0.6-0.3-1-0.6-1.9-0.3c-1.8,0.6-3.5,1.7-5.6,1.6C61,28.6,61,27.8,61.8,26.9z"/>
<path class="st8" d="M61.8,29.5c2,0.1,3.8-0.9,5.6-1.6c0.9-0.3,1.3,0,1.9,0.3c0.2,0.6-0.1,1-0.5,1.3c-1.3,0.2-2.5,0.9-3.8,0.6
	c-0.5-0.1-0.9,0.1-1.1,0.6c-0.3,0.6-0.8,0.7-1.3,0.9C62.3,30.9,61.5,30.4,61.8,29.5z"/>
<path class="st10" d="M62.5,31.6c0.6-0.1,1.1-0.3,1.3-0.9c0.2-0.5,0.6-0.7,1.1-0.6c0,0.4,0.4,0.4,0.6,0.6c0.5,0.7,1.5-0.1,2,0.7
	C66.3,33.1,64.1,33.2,62.5,31.6z"/>
<path class="st6" d="M50.9,39.7c-1.6,0.7-3.2,1.3-5,1.2C47,38.8,49.2,38.3,50.9,39.7z"/>
<path class="st11" d="M67.5,31.4c-0.5-0.7-1.4,0-2-0.7c-0.2-0.2-0.5-0.3-0.6-0.6c1.3,0.2,2.5-0.5,3.8-0.6
	C68.9,30.5,68.2,31,67.5,31.4z"/>
<path class="st1" d="M36.2,75.2c0.1-0.5,0.4-0.6,0.8-0.6C37,75.2,36.7,75.3,36.2,75.2z"/>
<path class="st11" d="M23.6,48.6c0.1,0.3,0.2,0.6,0.6,0.7c-0.9,1.4-1.1,1.4-2.5,0C22.1,48.1,23,48.6,23.6,48.6z"/>
<path class="st11" d="M7.7,43.6c0,0.6,0.3,1.2-0.3,1.6c-0.2,0.2-0.6,0.1-0.9-0.1c-0.3-0.3-0.9-0.6-0.7-1.1C6.3,43,7.1,43.6,7.7,43.6
	C7.7,43.5,7.7,43.6,7.7,43.6z"/>
<path class="st11" d="M70.7,50.5c0,0.4-0.1,0.7-0.6,0.7C70,50.6,70.3,50.5,70.7,50.5z"/>
<path class="st13" d="M14.2,23.2c-1.3,0.2-2.7-0.7-3.7,0.6c-0.7,0.1-1.6-0.6-1.9,0.6l0,0c-0.9-0.1-0.8-0.7-0.9-1.3
	c0-0.4,0.1-0.7,0.6-0.6c1.6,0.3,3.1-0.3,4.5-1c0.6-0.3,1.7,0.3,1.9-0.9c0.6,0,0.7-0.6,1.2-0.7c0.8,0.7,0.6,1.9-0.5,2.6
	C15.1,22.7,14.6,23,14.2,23.2z"/>
<path class="st13" d="M32.5,7.2c-0.3,1-1.1,1.5-1.9,2c-1.2,0.1-2.6-0.3-3.7,0.6c-0.4,0-0.9-0.1-1.2,0.2c-1.3,1-1.4,0.1-1.5-0.9l0,0
	c1.5,0.1,2.7-0.4,3.8-1.3l0,0C29.7,8.3,31,7.1,32.5,7.2z"/>
<path class="st8" d="M16.7,15.6c0.4-0.1,0.2-0.7,0.6-0.7c2.5,0.1,4.6-1,6.9-1.9c0.2,0.7,0.5,1.5-0.5,1.9c-1.7-0.2-3.2,0.1-4.5,1.2
	l0,0C18.4,15.9,17.3,16.7,16.7,15.6z"/>
<path class="st9" d="M25.5,7.9C26.9,6.1,30.4,5,31.9,6c-0.1,0.6-0.5,0.5-0.9,0.6c-1,0.4-2.2,0.2-2.9,1.2l0,0
	C27.3,7.9,26.4,7.9,25.5,7.9z"/>
<path class="st14" d="M24.2,13c-2.2,0.9-4.4,2-6.9,1.9c1.4-1.4,3.1-2,5-2.4C22.9,12.3,23.8,12,24.2,13z"/>
<path class="st7" d="M16,19.9c-0.5,0.1-0.6,0.8-1.2,0.7c-1,0.1-1.9,0-2.8,0.4c-0.9,0.3-1.8,0.9-2.9,0.8c1.2-1.9,3.2-2,5-2.6
	C14.7,19.6,15.6,18.8,16,19.9z"/>
<path class="st11" d="M22.4,16.1c-1.2,1.4-4.7,2.4-6.1,1.8c-0.1-0.1-0.2-0.3-0.2-0.5c1.2,0,2.4-0.1,3.1-1.3l0,0
	C20.3,16.1,21.3,16.1,22.4,16.1z"/>
<path class="st10" d="M26.9,9.8c1.1-1,2.5-0.5,3.7-0.6c-1.3,1.1-2.6,1.9-4.3,1.9C26.2,10.5,27,10.4,26.9,9.8z"/>
<path class="st13" d="M19.2,16.1c-0.7,1.2-1.9,1.3-3.1,1.3c-0.2,0-0.3-0.1-0.5-0.1c0-0.1-0.1-0.2-0.1-0.3c0.5-0.1,0.6-0.4,0.6-0.9
	c0-0.2,0-0.3,0.1-0.5c0.2,0,0.4,0,0.7-0.1C17.3,16.7,18.4,15.9,19.2,16.1z"/>
<path class="st13" d="M22.4,16.1c-1.1,0-2.1,0-3.2,0c1.3-1.1,2.9-1.4,4.5-1.2C23.5,15.6,23.1,16,22.4,16.1z"/>
<path class="st8" d="M28.1,7.9c0.7-1,1.9-0.8,2.9-1.2c0.4-0.2,0.8-0.1,0.9-0.6c1,0,0.5,0.7,0.6,1.2C31,7.1,29.7,8.3,28.1,7.9z"/>
<path class="st11" d="M26.9,9.8c0.1,0.6-0.7,0.7-0.6,1.2c-0.5,0-1,0-1.6,0c-0.4,0-0.9,0-1-0.6c-0.1-0.5-0.4-1.2,0.5-1.4
	c0.1,1,0.2,1.9,1.5,0.9C26,9.7,26.5,9.8,26.9,9.8z"/>
<path class="st8" d="M25.5,7.9c0.9,0,1.7,0,2.6,0c-1.1,0.9-2.4,1.4-3.8,1.3C24.4,8.5,24.9,8,25.5,7.9z"/>
<path class="st3" d="M27.3,29.5c0.1-0.4,0.3-0.7,0.8-0.6C28.1,29.4,27.7,29.5,27.3,29.5z"/>
<path class="st5" d="M45.9,9.8c-0.6,1.2-1.7,0.4-2.6,0.6C44,9.2,45.1,10,45.9,9.8z"/>
<path class="st5" d="M9.1,21.8c1.1,0.1,2-0.5,2.9-0.8c1-0.4,1.9-0.3,2.8-0.4c-0.2,1.2-1.3,0.6-1.9,0.9c-1.4,0.7-2.9,1.3-4.5,1
	C8.4,22,8.6,21.8,9.1,21.8z"/>
<path class="st11" d="M7.7,23.1c0.1,0.6,0,1.3,0.8,1.4c-0.2,0.8-0.9,0.6-1.1,0.2C7,24.2,6.8,23.5,7.7,23.1z"/>
<path class="st11" d="M8.5,24.5c0.3-1.3,1.2-0.5,1.9-0.6C10.1,24.9,9.2,24.4,8.5,24.5z"/>
<path class="st12" d="M16,16.1c0,0.4-0.1,0.8-0.6,0.9C15.4,16.5,15.5,16.2,16,16.1z"/>
<path class="st12" d="M10.2,25.3c0,0.1-0.1,0.2-0.1,0.2c-0.1,0-0.2-0.1-0.3-0.1c0-0.1,0.1-0.2,0.1-0.2C10,25.2,10.1,25.2,10.2,25.3z
	"/>
</svg>
