<?xml version="1.0" encoding="utf-8"?>
<!-- Generator: Adobe Illustrator 22.1.0, SVG Export Plug-In . SVG Version: 6.00 Build 0)  -->
<svg version="1.1" id="Layer_1" xmlns="http://www.w3.org/2000/svg" xmlns:xlink="http://www.w3.org/1999/xlink" x="0px" y="0px"
	 viewBox="0 0 84.9 56" style="enable-background:new 0 0 84.9 56;" xml:space="preserve">
<style type="text/css">
	.st0{fill:#C1C1C1;}
	.st1{clip-path:url(#SVGID_2_);fill:#C1C1C1;}
	.st2{opacity:0.36;clip-path:url(#SVGID_4_);fill:#C1C1C1;enable-background:new    ;}
	.st3{opacity:0.71;clip-path:url(#SVGID_6_);fill:#C1C1C1;enable-background:new    ;}
</style>
<g>
	<path class="st0" d="M17.1,29.1c0-7.1,6.7-16.3,18.2-21.2c20-8.7,31.5-0.7,34.5,6.9c2.8,7.1-2.8,19.7-12.2,28.9
		c6.7-4.9,12.3-10,16.1-15.1c5.1-6.7,7.2-13.1,5.3-18.2C76.3,3,64.9,0.5,50.8,2.5s-25,5.6-33.7,10.2C7.3,17.6,2.3,23.4,1.5,30.1
		c-1,9.7,9.5,22.8,33.4,24.5c12.5,0.8,24.6,1.2,47.8-4.6C79.9,50.2,17,58.1,17.1,29.1z"/>
	<path class="st0" d="M40.3,40.5c7.4,0,13.6-6.1,13.6-13.6c0-7.4-6.1-13.6-13.6-13.6c-7.4,0-13.6,6.1-13.6,13.6
		C26.8,34.4,32.9,40.5,40.3,40.5L40.3,40.5z"/>
	<g>
		<g>
			<g>
				<defs>
					<path id="SVGID_1_" d="M40.3,40.5c7.6,0,13.6-6.1,13.6-13.6s-6.1-13.6-13.6-13.6s-13.6,6.1-13.6,13.6
						C26.8,34.4,32.9,40.5,40.3,40.5L40.3,40.5z"/>
				</defs>
				<use xlink:href="#SVGID_1_"  style="overflow:visible;fill:#C1C1C1;"/>
				<clipPath id="SVGID_2_">
					<use xlink:href="#SVGID_1_"  style="overflow:visible;"/>
				</clipPath>
				<path class="st1" d="M40.3,40.1c7.6,0,13.6-6.1,13.6-13.6s-6.1-13.6-13.6-13.6S26.7,19,26.7,26.5C26.8,34.1,32.9,40.1,40.3,40.1
					L40.3,40.1z"/>
			</g>
		</g>
		<g>
			<g>
				<defs>
					<path id="SVGID_3_" d="M40.3,40.5c7.6,0,13.6-6.1,13.6-13.6s-6.1-13.6-13.6-13.6s-13.6,6.1-13.6,13.6
						C26.8,34.4,32.9,40.5,40.3,40.5L40.3,40.5z"/>
				</defs>
				<use xlink:href="#SVGID_3_"  style="overflow:visible;fill:#C1C1C1;"/>
				<clipPath id="SVGID_4_">
					<use xlink:href="#SVGID_3_"  style="overflow:visible;"/>
				</clipPath>
				<path class="st2" d="M34.2,33.9c8.7,0,15.9-7.2,15.9-15.9S42.9,2,34.2,2S18.3,9.3,18.3,18S25.3,33.9,34.2,33.9L34.2,33.9z"/>
			</g>
		</g>
		<g>
			<g>
				<defs>
					<path id="SVGID_5_" d="M40.3,40.5c7.6,0,13.6-6.1,13.6-13.6s-6.1-13.6-13.6-13.6s-13.6,6.1-13.6,13.6
						C26.8,34.4,32.9,40.5,40.3,40.5L40.3,40.5z"/>
				</defs>
				<use xlink:href="#SVGID_5_"  style="overflow:visible;fill:#C1C1C1;"/>
				<clipPath id="SVGID_6_">
					<use xlink:href="#SVGID_5_"  style="overflow:visible;"/>
				</clipPath>
				<path class="st3" d="M44.1,34.6c6.9,0,12.5-5.6,12.5-12.7S51,9.3,44.1,9.3S31.6,14.9,31.6,22S37.2,34.6,44.1,34.6L44.1,34.6z"/>
			</g>
		</g>
	</g>
</g>
</svg>
