<?xml version="1.0" encoding="utf-8"?>
<!-- Generator: Adobe Illustrator 22.1.0, SVG Export Plug-In . SVG Version: 6.00 Build 0)  -->
<svg version="1.1" id="Layer_1" xmlns="http://www.w3.org/2000/svg" xmlns:xlink="http://www.w3.org/1999/xlink" x="0px" y="0px"
	 viewBox="0 0 184.7 56" style="enable-background:new 0 0 184.7 56;" xml:space="preserve">
<style type="text/css">
	.st0{fill:url(#SVGID_1_);}
	.st1{fill:#A5CD39;}
	.st2{fill:#40AA8B;}
	.st3{clip-path:url(#SVGID_3_);fill:#A5CD39;}
	.st4{opacity:0.36;clip-path:url(#SVGID_5_);fill:url(#SVGID_6_);enable-background:new    ;}
	.st5{opacity:0.71;clip-path:url(#SVGID_8_);fill:url(#SVGID_9_);enable-background:new    ;}
	.st6{opacity:0.79;clip-path:url(#SVGID_11_);fill:url(#SVGID_12_);enable-background:new    ;}
	.st7{opacity:0.47;clip-path:url(#SVGID_14_);fill:url(#SVGID_15_);enable-background:new    ;}
	.st8{opacity:0.61;clip-path:url(#SVGID_17_);fill:url(#SVGID_18_);enable-background:new    ;}
	.st9{opacity:0.66;clip-path:url(#SVGID_20_);fill:url(#SVGID_21_);enable-background:new    ;}
	.st10{opacity:0.39;clip-path:url(#SVGID_23_);fill:url(#SVGID_24_);enable-background:new    ;}
</style>
<g>
	
		<linearGradient id="SVGID_1_" gradientUnits="userSpaceOnUse" x1="64.7445" y1="40.3599" x2="30.6504" y2="-18.693" gradientTransform="matrix(1 0 0 -1 0 39.9278)">
		<stop  offset="0" style="stop-color:#00A48B"/>
		<stop  offset="0.9995" style="stop-color:#A5CD39"/>
	</linearGradient>
	<path class="st0" d="M17.1,29.1c0-7.1,6.7-16.3,18.2-21.2c20-8.7,31.5-0.7,34.5,6.9c2.8,7.1-2.8,19.7-12.2,28.9
		c6.7-4.9,12.3-10,16.1-15.1c5.1-6.7,7.2-13.1,5.3-18.2C76.3,3,64.9,0.5,50.8,2.5s-25,5.6-33.7,10.2C7.3,17.6,2.3,23.4,1.5,30.1
		c-1,9.7,9.5,22.8,33.4,24.5c12.5,0.8,24.6,1.2,47.8-4.6C79.9,50.2,17,58.1,17.1,29.1z"/>
	<g>
		<path class="st1" d="M114.2,4.5v6.6H98v6.7h14.6V24H98v6.7h16.8v6.4H90.6V4.5H114.2z"/>
		<path class="st1" d="M144.8,20.4h7.4v11.7c-3.3,3.6-7.7,5.4-13.5,5.4c-4.8,0-8.9-1.6-12.2-4.8s-4.9-7.2-4.9-12
			c0-4.9,1.6-8.9,4.9-12.2s7.4-4.9,12-4.9c4.8,0,8.7,1.5,12.2,4.6l-3.8,5.4c-1.5-1.3-2.8-2.1-4.1-2.6c-1.2-0.5-2.6-0.7-3.9-0.7
			c-2.8,0-5.1,1-7.1,2.8c-2,1.8-2.8,4.4-2.8,7.4s1,5.6,2.8,7.4c1.8,1.8,3.9,2.8,6.6,2.8c2.5,0,4.6-0.5,6.2-1.5v-8.9H144.8z"/>
		<path class="st1" d="M174.2,10.7v26.5H167V10.7h-9.2V4.5h25.8v6.2H174.2z"/>
	</g>
	<g>
		<path class="st2" d="M90.7,45.2h1.3v8.2h-1.3V45.2z"/>
		<path class="st2" d="M101.7,45.2h1.3v8.2h-1.5L97,47.5v5.9h-1.3v-8.2H97l4.8,6.1V45.2z"/>
		<path class="st2" d="M109.6,46.6v6.9h-1.3v-6.9h-2.5v-1.3h6.4v1.3C112.3,46.6,109.6,46.6,109.6,46.6z"/>
		<path class="st2" d="M120.5,45.2v1.3H116v2.1h3.9v1.2H116V52h4.6v1.3h-5.9v-8.2h5.8V45.2z"/>
		<path class="st2" d="M130.2,48c0,1.3-0.7,2.1-1.8,2.6l2.1,3h-1.8l-2-2.8h-1.8v2.8h-1.3v-8.2h3.1c1.3,0,2.1,0.2,2.6,0.7
			C129.8,46.4,130.2,47,130.2,48z M128.4,49.2c0.3-0.2,0.5-0.7,0.5-1.2c0-0.5-0.2-0.8-0.5-1.2c-0.3-0.2-0.8-0.3-1.5-0.3h-1.8v3h1.6
			C127.5,49.5,128,49.3,128.4,49.2z"/>
		<path class="st2" d="M134.4,51.6l-0.8,1.8h-1.5l3.6-8.2h1.5l3.6,8.2h-1.5l-0.8-1.8H134.4z M138.1,50.3l-1.5-3.5l-1.5,3.5H138.1z"
			/>
		<path class="st2" d="M146.9,52.3c0.5,0,0.8,0,1.2-0.2c0.3-0.2,0.7-0.5,1.2-0.8l0.8,1c-0.8,1-2,1.5-3.1,1.5c-1.3,0-2.3-0.3-3.1-1.2
			c-0.8-0.8-1.2-1.8-1.2-3s0.5-2.3,1.3-3.1c0.8-0.8,1.8-1.2,3.1-1.2c1.3,0,2.3,0.5,3.1,1.5l-0.8,1c-0.3-0.3-0.8-0.7-1.2-0.8
			s-0.8-0.2-1.2-0.2c-0.8,0-1.5,0.3-2.1,0.8c-0.5,0.5-0.8,1.2-0.8,2s0.3,1.5,0.8,2.1C145.5,52,146.1,52.3,146.9,52.3z"/>
		<path class="st2" d="M156.1,46.6v6.9h-1.3v-6.9h-2.5v-1.3h6.4v1.3C158.8,46.6,156.1,46.6,156.1,46.6z"/>
		<path class="st2" d="M161.2,45.2h1.3v8.2h-1.3V45.2z"/>
		<path class="st2" d="M169.8,53.5h-1.5l-3.3-8.2h1.5l2.5,6.1l2.5-6.1h1.5L169.8,53.5z"/>
		<path class="st2" d="M181.3,45.2v1.3h-4.4v2.1h3.9v1.2h-3.9V52h4.4v1.3h-5.9v-8.2h5.9V45.2z"/>
	</g>
	<path class="st1" d="M40.3,40.5c7.4,0,13.6-6.1,13.6-13.6c0-7.4-6.1-13.6-13.6-13.6c-7.4,0-13.6,6.1-13.6,13.6
		C26.8,34.4,32.9,40.5,40.3,40.5L40.3,40.5z"/>
	<g>
		<g>
			<defs>
				<path id="SVGID_2_" d="M40.3,40.5c7.6,0,13.6-6.1,13.6-13.6s-6.1-13.6-13.6-13.6s-13.6,6.1-13.6,13.6
					C26.8,34.4,32.9,40.5,40.3,40.5L40.3,40.5z"/>
			</defs>
			<clipPath id="SVGID_3_">
				<use xlink:href="#SVGID_2_"  style="overflow:visible;"/>
			</clipPath>
			<path class="st3" d="M40.3,40.1c7.6,0,13.6-6.1,13.6-13.6s-6.1-13.6-13.6-13.6s-13.6,6.1-13.6,13.6
				C26.8,34.1,32.9,40.1,40.3,40.1L40.3,40.1z"/>
		</g>
		<g>
			<defs>
				<path id="SVGID_4_" d="M40.3,40.5c7.6,0,13.6-6.1,13.6-13.6s-6.1-13.6-13.6-13.6s-13.6,6.1-13.6,13.6
					C26.8,34.4,32.9,40.5,40.3,40.5L40.3,40.5z"/>
			</defs>
			<clipPath id="SVGID_5_">
				<use xlink:href="#SVGID_4_"  style="overflow:visible;"/>
			</clipPath>
			
				<linearGradient id="SVGID_6_" gradientUnits="userSpaceOnUse" x1="18.2836" y1="21.9643" x2="50.1583" y2="21.9643" gradientTransform="matrix(1 0 0 -1 0 39.9278)">
				<stop  offset="0" style="stop-color:#0092C0"/>
				<stop  offset="0.9995" style="stop-color:#A5CD39"/>
			</linearGradient>
			<path class="st4" d="M34.2,33.9c8.7,0,15.9-7.2,15.9-15.9S42.9,2,34.2,2S18.3,9.3,18.3,18S25.3,33.9,34.2,33.9L34.2,33.9z"/>
		</g>
		<g>
			<defs>
				<path id="SVGID_7_" d="M40.3,40.5c7.6,0,13.6-6.1,13.6-13.6s-6.1-13.6-13.6-13.6s-13.6,6.1-13.6,13.6
					C26.8,34.4,32.9,40.5,40.3,40.5L40.3,40.5z"/>
			</defs>
			<clipPath id="SVGID_8_">
				<use xlink:href="#SVGID_7_"  style="overflow:visible;"/>
			</clipPath>
			
				<linearGradient id="SVGID_9_" gradientUnits="userSpaceOnUse" x1="50.3931" y1="7.0848" x2="37.8222" y2="28.8585" gradientTransform="matrix(1 0 0 -1 0 39.9278)">
				<stop  offset="0" style="stop-color:#91C73E"/>
				<stop  offset="1" style="stop-color:#0092C0"/>
			</linearGradient>
			<path class="st5" d="M44.1,34.6c6.9,0,12.5-5.6,12.5-12.7S51,9.3,44.1,9.3s-12.5,5.6-12.5,12.7S37.2,34.6,44.1,34.6L44.1,34.6z"
				/>
		</g>
	</g>
	<g>
		<g>
			<defs>
				<path id="SVGID_10_" d="M114.2,4.5v6.6H98v6.7h14.6V24H98v6.7h16.8v6.4H90.6V4.5H114.2z M144.8,20.4h7.4v11.7
					c-3.3,3.6-7.7,5.4-13.5,5.4c-4.8,0-8.9-1.6-12.2-4.8s-4.9-7.2-4.9-12c0-4.9,1.6-8.9,4.9-12.2s7.4-4.9,12-4.9
					c4.8,0,8.7,1.5,12.2,4.6l-3.8,5.4c-1.5-1.3-2.8-2.1-4.1-2.6c-1.2-0.5-2.6-0.7-3.9-0.7c-2.8,0-5.1,1-7.1,2.8
					c-2,1.8-2.8,4.4-2.8,7.4s1,5.6,2.8,7.4c1.8,1.8,3.9,2.8,6.6,2.8c2.5,0,4.6-0.5,6.2-1.5v-8.9H144.8z M174.2,10.7v26.5H167V10.7
					h-9.2V4.5h25.8v6.2H174.2z"/>
			</defs>
			<clipPath id="SVGID_11_">
				<use xlink:href="#SVGID_10_"  style="overflow:visible;"/>
			</clipPath>
			
				<linearGradient id="SVGID_12_" gradientUnits="userSpaceOnUse" x1="87.7836" y1="12.1883" x2="148.2469" y2="12.1883" gradientTransform="matrix(1 0 0 -1 0 39.9278)">
				<stop  offset="0" style="stop-color:#0092C0"/>
				<stop  offset="0.9995" style="stop-color:#A5CD39"/>
			</linearGradient>
			<path class="st6" d="M148.2,37.7c-1.6-11.2-14.6-19.9-30.2-19.9s-28.6,8.7-30.2,19.9H148.2z"/>
		</g>
		<g>
			<defs>
				<path id="SVGID_13_" d="M114.2,4.5v6.6H98v6.7h14.6V24H98v6.7h16.8v6.4H90.6V4.5H114.2z M144.8,20.4h7.4v11.7
					c-3.3,3.6-7.7,5.4-13.5,5.4c-4.8,0-8.9-1.6-12.2-4.8s-4.9-7.2-4.9-12c0-4.9,1.6-8.9,4.9-12.2s7.4-4.9,12-4.9
					c4.8,0,8.7,1.5,12.2,4.6l-3.8,5.4c-1.5-1.3-2.8-2.1-4.1-2.6c-1.2-0.5-2.6-0.7-3.9-0.7c-2.8,0-5.1,1-7.1,2.8
					c-2,1.8-2.8,4.4-2.8,7.4s1,5.6,2.8,7.4c1.8,1.8,3.9,2.8,6.6,2.8c2.5,0,4.6-0.5,6.2-1.5v-8.9H144.8z M174.2,10.7v26.5H167V10.7
					h-9.2V4.5h25.8v6.2H174.2z"/>
			</defs>
			<clipPath id="SVGID_14_">
				<use xlink:href="#SVGID_13_"  style="overflow:visible;"/>
			</clipPath>
			
				<linearGradient id="SVGID_15_" gradientUnits="userSpaceOnUse" x1="187.8865" y1="5.2338" x2="162.4981" y2="37.7294" gradientTransform="matrix(1 0 0 -1 0 39.9278)">
				<stop  offset="0" style="stop-color:#0092C0"/>
				<stop  offset="0.9995" style="stop-color:#A5CD39"/>
			</linearGradient>
			<path class="st7" d="M159.9,4.2c-3.6,6.7-2.5,16.4,3.5,24.2c5.4,6.9,13.3,10.4,20.2,9.7V4.2H159.9z"/>
		</g>
		<g>
			<defs>
				<path id="SVGID_16_" d="M114.2,4.5v6.6H98v6.7h14.6V24H98v6.7h16.8v6.4H90.6V4.5H114.2z M144.8,20.4h7.4v11.7
					c-3.3,3.6-7.7,5.4-13.5,5.4c-4.8,0-8.9-1.6-12.2-4.8s-4.9-7.2-4.9-12c0-4.9,1.6-8.9,4.9-12.2s7.4-4.9,12-4.9
					c4.8,0,8.7,1.5,12.2,4.6l-3.8,5.4c-1.5-1.3-2.8-2.1-4.1-2.6c-1.2-0.5-2.6-0.7-3.9-0.7c-2.8,0-5.1,1-7.1,2.8
					c-2,1.8-2.8,4.4-2.8,7.4s1,5.6,2.8,7.4c1.8,1.8,3.9,2.8,6.6,2.8c2.5,0,4.6-0.5,6.2-1.5v-8.9H144.8z M174.2,10.7v26.5H167V10.7
					h-9.2V4.5h25.8v6.2H174.2z"/>
			</defs>
			<clipPath id="SVGID_17_">
				<use xlink:href="#SVGID_16_"  style="overflow:visible;"/>
			</clipPath>
			
				<linearGradient id="SVGID_18_" gradientUnits="userSpaceOnUse" x1="125.2806" y1="14.197" x2="149.9097" y2="34.1414" gradientTransform="matrix(1 0 0 -1 0 39.9278)">
				<stop  offset="0" style="stop-color:#0092C0"/>
				<stop  offset="0.9995" style="stop-color:#A5CD39"/>
			</linearGradient>
			<path class="st8" d="M148.1,3.5h-20c-6.4,6.1-8.7,14.8-2.8,22c5.4,6.7,15.4,7.6,22.3,2.1c7.1-5.6,6.6-16.6,1.2-23.3
				C148.6,4,148.2,3.8,148.1,3.5z"/>
		</g>
		<g>
			<defs>
				<path id="SVGID_19_" d="M114.2,4.5v6.6H98v6.7h14.6V24H98v6.7h16.8v6.4H90.6V4.5H114.2z M144.8,20.4h7.4v11.7
					c-3.3,3.6-7.7,5.4-13.5,5.4c-4.8,0-8.9-1.6-12.2-4.8s-4.9-7.2-4.9-12c0-4.9,1.6-8.9,4.9-12.2s7.4-4.9,12-4.9
					c4.8,0,8.7,1.5,12.2,4.6l-3.8,5.4c-1.5-1.3-2.8-2.1-4.1-2.6c-1.2-0.5-2.6-0.7-3.9-0.7c-2.8,0-5.1,1-7.1,2.8
					c-2,1.8-2.8,4.4-2.8,7.4s1,5.6,2.8,7.4c1.8,1.8,3.9,2.8,6.6,2.8c2.5,0,4.6-0.5,6.2-1.5v-8.9H144.8z M174.2,10.7v26.5H167V10.7
					h-9.2V4.5h25.8v6.2H174.2z"/>
			</defs>
			<clipPath id="SVGID_20_">
				<use xlink:href="#SVGID_19_"  style="overflow:visible;"/>
			</clipPath>
			
				<linearGradient id="SVGID_21_" gradientUnits="userSpaceOnUse" x1="162.7675" y1="4.6352" x2="188.6124" y2="25.5639" gradientTransform="matrix(1 0 0 -1 0 39.9278)">
				<stop  offset="0" style="stop-color:#0092C0"/>
				<stop  offset="0.9995" style="stop-color:#A5CD39"/>
			</linearGradient>
			<path class="st9" d="M183.7,8.3c-4.9-1-10.8,0.5-15.8,4.4c-7.9,6.2-10.2,16.3-5.3,22.5c4.4,5.6,13.5,6.1,21,1.5
				C183.7,36.7,183.7,8.3,183.7,8.3z"/>
		</g>
		<g>
			<defs>
				<path id="SVGID_22_" d="M114.2,4.5v6.6H98v6.7h14.6V24H98v6.7h16.8v6.4H90.6V4.5H114.2z M144.8,20.4h7.4v11.7
					c-3.3,3.6-7.7,5.4-13.5,5.4c-4.8,0-8.9-1.6-12.2-4.8s-4.9-7.2-4.9-12c0-4.9,1.6-8.9,4.9-12.2s7.4-4.9,12-4.9
					c4.8,0,8.7,1.5,12.2,4.6l-3.8,5.4c-1.5-1.3-2.8-2.1-4.1-2.6c-1.2-0.5-2.6-0.7-3.9-0.7c-2.8,0-5.1,1-7.1,2.8
					c-2,1.8-2.8,4.4-2.8,7.4s1,5.6,2.8,7.4c1.8,1.8,3.9,2.8,6.6,2.8c2.5,0,4.6-0.5,6.2-1.5v-8.9H144.8z M174.2,10.7v26.5H167V10.7
					h-9.2V4.5h25.8v6.2H174.2z"/>
			</defs>
			<clipPath id="SVGID_23_">
				<use xlink:href="#SVGID_22_"  style="overflow:visible;"/>
			</clipPath>
			
				<linearGradient id="SVGID_24_" gradientUnits="userSpaceOnUse" x1="82.6862" y1="37.1811" x2="117.677" y2="8.8461" gradientTransform="matrix(1 0 0 -1 0 39.9278)">
				<stop  offset="0" style="stop-color:#0092C0"/>
				<stop  offset="0.9995" style="stop-color:#A5CD39"/>
			</linearGradient>
			<path class="st10" d="M81.5,4.2c-4.9,8.1-2.1,19.7,6.7,27.1c9.5,7.9,22.7,7.9,29.2,0c6.1-7.4,4.4-19.1-3.5-27.1
				C114.1,4.2,81.5,4.2,81.5,4.2z"/>
		</g>
	</g>
</g>
</svg>
