<?xml version="1.0" encoding="utf-8"?>
<!-- Generator: Adobe Illustrator 22.1.0, SVG Export Plug-In . SVG Version: 6.00 Build 0)  -->
<svg version="1.1" id="katman_1" xmlns="http://www.w3.org/2000/svg" xmlns:xlink="http://www.w3.org/1999/xlink" x="0px" y="0px"
	 viewBox="0 0 249.5 62" style="enable-background:new 0 0 249.5 62;" xml:space="preserve">
<style type="text/css">
	.st0{fill:#C2C1C0;}
</style>
<title>ELK_White</title>
<g id="Layer_2">
	<g id="Layer_1-2">
		<path class="st0" d="M209.1,30.3l27.7-23l8.8-7.3h-34.7l-1.1,0.9l-24.9,18.9V0h-25.8v39.7h-53.7V0h-90C6.9,0,0,7,0,15.5v30.9
			C0,55,7,61.9,15.5,62h169.4V40.1l24.8,20.5l1.1,1h34.4l-8.4-7.3L209.1,30.3z M78.9,18.1H25.6c-2.2,0-4,1.8-4,4V24h57.3v14H21.6
			v1.9c0,2.2,1.8,4,4,4h53.3v14H15.5c-6.3,0-11.4-5.1-11.4-11.4l0,0v-31c0-6.3,5.1-11.4,11.4-11.4h63.4V18.1z M158.6,57.8H83.9V4.1
			h17.5v39.7h57.3L158.6,57.8L158.6,57.8z M212.3,57.4l-31.6-26.1v26.5h-17.5V4.1h17.5v24l31.6-24h21.8l-31.4,26.1l31.4,27.2H212.3z
			"/>
	</g>
</g>
</svg>
