<svg xmlns="http://www.w3.org/2000/svg" xmlns:xlink="http://www.w3.org/1999/xlink" viewBox="0 0 26.42 33.7"><defs><style>.cls-1{fill:url(#linear-gradient);}.cls-2{fill:url(#linear-gradient-2);}.cls-3{fill:url(#linear-gradient-3);}.cls-4{fill:url(#linear-gradient-4);}.cls-5{fill:url(#linear-gradient-5);}.cls-6{fill:url(#linear-gradient-6);}</style><linearGradient id="linear-gradient" x1="-5877.65" y1="-2700.92" x2="-5877.65" y2="-2701.04" gradientTransform="translate(1260792.79 315436.63) scale(214.5 116.79)" gradientUnits="userSpaceOnUse"><stop offset="0.14" stop-color="#2b3990"/><stop offset="0.16" stop-color="#184898"/><stop offset="0.21" stop-color="#005ea8"/><stop offset="0.26" stop-color="#0071b6"/><stop offset="0.32" stop-color="#0081c4"/><stop offset="0.38" stop-color="#008ed1"/><stop offset="0.45" stop-color="#0099db"/><stop offset="0.53" stop-color="#00a2e3"/><stop offset="0.62" stop-color="#00a8e9"/><stop offset="0.74" stop-color="#00aced"/><stop offset="0.99" stop-color="#00aeef"/></linearGradient><linearGradient id="linear-gradient-2" x1="-5877.65" y1="-2700.92" x2="-5877.65" y2="-2701.04" gradientTransform="translate(1260792.79 315436.63) scale(214.5 116.79)" gradientUnits="userSpaceOnUse"><stop offset="0.14" stop-color="#181c62"/><stop offset="0.2" stop-color="#0d2c6c" stop-opacity="0.93"/><stop offset="0.36" stop-color="#00508b" stop-opacity="0.74"/><stop offset="0.52" stop-color="#006ea9" stop-opacity="0.55"/><stop offset="0.67" stop-color="#0087c4" stop-opacity="0.38"/><stop offset="0.8" stop-color="#009ad9" stop-opacity="0.22"/><stop offset="0.91" stop-color="#00a7e7" stop-opacity="0.09"/><stop offset="0.99" stop-color="#00aeef" stop-opacity="0"/></linearGradient><linearGradient id="linear-gradient-3" x1="-5877.65" y1="-2702.11" x2="-5877.65" y2="-2701.98" gradientTransform="translate(1260792.8 315601.83) scale(214.5 116.79)" gradientUnits="userSpaceOnUse"><stop offset="0.06" stop-color="#905501"/><stop offset="0.11" stop-color="#9e6007"/><stop offset="0.22" stop-color="#b97411"/><stop offset="0.33" stop-color="#d08516"/><stop offset="0.45" stop-color="#e19218"/><stop offset="0.58" stop-color="#ed9b19"/><stop offset="0.73" stop-color="#f6a11a"/><stop offset="0.97" stop-color="#faa41a"/></linearGradient><linearGradient id="linear-gradient-4" x1="-5877.65" y1="-2702.11" x2="-5877.65" y2="-2701.98" gradientTransform="translate(1260792.8 315601.83) scale(214.5 116.79)" gradientUnits="userSpaceOnUse"><stop offset="0.06" stop-color="#400000"/><stop offset="0.23" stop-color="#702a00" stop-opacity="0.81"/><stop offset="0.42" stop-color="#9c5009" stop-opacity="0.6"/><stop offset="0.6" stop-color="#c37115" stop-opacity="0.41"/><stop offset="0.76" stop-color="#df8b19" stop-opacity="0.23"/><stop offset="0.89" stop-color="#f19c1a" stop-opacity="0.09"/><stop offset="0.97" stop-color="#faa41a" stop-opacity="0"/></linearGradient><linearGradient id="linear-gradient-5" x1="-5857.73" y1="-2709.36" x2="-5857.61" y2="-2709.36" gradientTransform="translate(728090.68 450407.91) scale(124.3 166.24)" gradientUnits="userSpaceOnUse"><stop offset="0" stop-color="#560003"/><stop offset="0.03" stop-color="#64010a"/><stop offset="0.11" stop-color="#7f0c14"/><stop offset="0.2" stop-color="#9a131a"/><stop offset="0.29" stop-color="#b1171e"/><stop offset="0.39" stop-color="#c41920"/><stop offset="0.52" stop-color="#d11a21"/><stop offset="0.68" stop-color="#da1a22"/><stop offset="1" stop-color="#dd1a22"/></linearGradient><linearGradient id="linear-gradient-6" x1="-5699.96" y1="-2651.53" x2="-5699.88" y2="-2651.61" gradientTransform="translate(161742.07 107062.54) scale(28.37 40.37)" gradientUnits="userSpaceOnUse"><stop offset="0.05" stop-color="#dd1a22" stop-opacity="0.7"/><stop offset="0.07" stop-color="#dd2023" stop-opacity="0.7"/><stop offset="0.15" stop-color="#df3027" stop-opacity="0.7"/><stop offset="0.23" stop-color="#e14531" stop-opacity="0.7"/><stop offset="0.31" stop-color="#e45d42" stop-opacity="0.7"/><stop offset="0.39" stop-color="#e8785b" stop-opacity="0.7"/><stop offset="0.48" stop-color="#ee967b" stop-opacity="0.7"/><stop offset="0.56" stop-color="#f4bea9" stop-opacity="0.7"/><stop offset="0.65" stop-color="#fdeee7" stop-opacity="0.7"/><stop offset="0.75" stop-color="#fff" stop-opacity="0.7"/></linearGradient></defs><title>Endorphina</title><g id="Layer_2" data-name="Layer 2"><g id="Layer_1-2" data-name="Layer 1"><path class="cls-1" d="M4.9,10.58l8,3.76c-.18-.13-4-2.71-5.2-4.75S6.63,6,7.66,4.45,11.22,2,15.08,2.26A18.58,18.58,0,0,1,26.37,6.54,14.42,14.42,0,0,0,16.74.36,17.43,17.43,0,0,0,1.44,4.53,4.17,4.17,0,0,0,.05,6.66C.11,8.72,4.9,10.58,4.9,10.58Z"/><path class="cls-2" d="M4.94,10.58,13,14.34c-.18-.13-4-2.71-5.2-4.75S6.67,6,7.7,4.45,11.27,2,15.12,2.26a18.58,18.58,0,0,1,11.3,4.28A14.42,14.42,0,0,0,16.79.36,17.46,17.46,0,0,0,1.48,4.53,4.08,4.08,0,0,0,.1,6.66C.16,8.72,4.94,10.58,4.94,10.58Z"/><path class="cls-3" d="M7.64,29.26c-1-1.49-1.11-3,.1-5.14S13,19.38,13,19.38l-8,3.75S.11,25,.05,27.05a4,4,0,0,0,1.38,2.13,17.44,17.44,0,0,0,15.3,4.17,14.42,14.42,0,0,0,9.64-6.18,18.58,18.58,0,0,1-11.29,4.28c-3.87.25-6.41-.69-7.44-2.19Z"/><path class="cls-4" d="M7.64,29.26c-1-1.49-1.11-3,.1-5.14S13,19.38,13,19.38l-8,3.75S.11,25,.05,27.05a4,4,0,0,0,1.38,2.13,17.44,17.44,0,0,0,15.3,4.17,14.42,14.42,0,0,0,9.64-6.18,18.58,18.58,0,0,1-11.29,4.28c-3.87.25-6.41-.69-7.44-2.19Z"/><path class="cls-5" d="M4.9,23.13l8-3.75a7.68,7.68,0,0,0,.8-.51A4.61,4.61,0,0,0,15,17.7a1.35,1.35,0,0,0,.26-.84,2,2,0,0,0-.75-1.41,7.66,7.66,0,0,0-1.25-.93l-.3-.17h0l-8-3.77S.13,8.72.05,6.67c-.38,1.87,1.39,3.49,2.86,4.87,2,1.84,2.82,3.68,2.81,5.32s-.86,3.49-2.81,5.34c-1.46,1.38-3.24,3-2.86,4.87C.11,25,4.9,23.13,4.9,23.13Z"/><path class="cls-6" d="M14.84,16.94a1.87,1.87,0,0,1-.61,1.14,5.15,5.15,0,0,1-1.18.89c-.24.14-.59.35-.88.22s.07-.61.17-.76A3.06,3.06,0,0,0,13,16.85c0-.94-2.44-2.57-1.33-2.57C12.1,14.28,14.84,15.92,14.84,16.94Z"/></g></g></svg>