<svg xmlns="http://www.w3.org/2000/svg" viewBox="0 0 16.15 22.34"><defs><style>.cls-1{fill:#9b9b9b;}</style></defs><title>evo</title><g id="Layer_2" data-name="Layer 2"><g id="Layer_1-2" data-name="Layer 1"><path class="cls-1" d="M14.8,20.88h-.27v-.45h.12a.66.66,0,0,1,.28,0,.2.2,0,0,1,.11.19.22.22,0,0,1-.25.22m.53-.22a.43.43,0,0,0-.16-.35.64.64,0,0,0-.44-.1h-.46v1.44h.27V21.1h.24l.28.53h.31L15,21.05a.39.39,0,0,0,.28-.39m-.57,1.4a1.11,1.11,0,1,1,1.11-1.11,1.11,1.11,0,0,1-1.11,1.11m0-2.5a1.39,1.39,0,1,0,1.39,1.39,1.39,1.39,0,0,0-1.39-1.39"/><path class="cls-1" d="M0,1.33c6.68-3.57,15.3.2,16,9.27C3.59,11.58,2.1,6,0,1.33Z"/><path class="cls-1" d="M0,20.8c6.68,3.57,15.3-.19,16-9.27C3.59,10.55,2.1,16.13,0,20.8Z"/><path class="cls-1" d="M13.66,4.2A10.66,10.66,0,0,0,0,1.34c1.86,4.18,3.25,9.09,12.42,9.37a10.65,10.65,0,0,0,1.34-5.18A10.77,10.77,0,0,0,13.66,4.2Zm-11.41,12c.26,0,.53,0,.8,0A10.69,10.69,0,0,0,12,11.46C6.46,11.72,3.87,13.72,2.25,16.19Z"/></g></g></svg>