<?xml version="1.0" encoding="utf-8"?>
<!-- Generator: Adobe Illustrator 22.1.0, SVG Export Plug-In . SVG Version: 6.00 Build 0)  -->
<svg version="1.1" id="katman_1" xmlns="http://www.w3.org/2000/svg" xmlns:xlink="http://www.w3.org/1999/xlink" x="0px" y="0px"
	 viewBox="0 0 240.3 63.7" style="enable-background:new 0 0 240.3 63.7;" xml:space="preserve">
<style type="text/css">
	.st0{fill:#03A3FA;}
	.st1{fill:#FFFFFF;}
	.st2{fill:#02A3FA;}
</style>
<g>
	<path class="st0" d="M3.4,33.3c0.2-1.1,0.3-2,0.5-3.1c1.4-6.9,6.4-12,13.2-13.1c7.5-1.2,14.2,1.5,17.1,8.4c1.3,3.2,1.7,6.5,1.6,10
		c0,0.9-0.1,1.7-0.1,2.7c-7.4,0-14.8,0-22.2,0c0.1,2.2,1.1,3.6,2.7,4.8c1.5,1.1,3.2,1.6,5,1.8c3.6,0.3,7.6-0.2,11.4-1.6
		c0.4,2.6,0.9,5.1,1.3,8c-1.5,0.4-3.1,0.9-4.6,1.3c-3.9,0.8-7.9,1.2-11.8,0.4C9.2,51.3,4.7,46.5,3.6,38.1c0-0.3-0.1-0.6-0.2-1
		C3.4,35.8,3.4,34.6,3.4,33.3z M26.4,31.5c0.1-3.9-2.6-6.7-6.3-6.6c-3.7,0-6.6,2.9-6.5,6.6C17.9,31.5,22.1,31.5,26.4,31.5z"/>
	<path class="st1" d="M162.6,3.4c0,0.1,0,0.2,0,0.2c-0.1,0-0.1,0-0.2,0c-3,0-5.9,0-8.9,0c-0.1,0-0.1,0-0.2,0c-0.1,0-0.2,0-0.2,0
		c0-0.1,0-0.2,0-0.2C156.2,3.4,159.4,3.4,162.6,3.4z"/>
	<path class="st1" d="M123.7,60.8c-3,0-6.1,0-9.1,0h-0.2c0-0.4,0-1,0-1.4c0-13.1,0-26.2,0-39.3c0-0.3,0-0.7,0-1.1
		c3.9-1.1,7.9-1.6,11.9-1.9c2.8-0.2,5.6-0.1,8.3,0.7c6.8,2,10.6,6.7,11.6,13.6c0.7,4.5,0.3,8.9-1.5,13.2c-2.7,6.3-8.5,9-14.8,8.3
		c-1.9-0.2-3.8-0.7-5.9-1.2c0,2.9,0,6.1,0,9.1L123.7,60.8z M124,43.4c1.6,1,3.5,1.4,5.3,1.4c3.6,0,5.8-1.7,6.7-5.2
		c0.6-2.6,0.7-5.2,0.1-7.9c-1.4-5.8-5.7-7.6-12.1-6C124,31.6,124,37.5,124,43.4z"/>
	<path class="st1" d="M189.4,29.3c-0.3-2.2-1.8-3.8-4.4-4.1c-3.9-0.5-7.6,0.1-11.5,1.1c-0.4-2.6-0.8-5.1-1.3-8
		c3.2-0.5,6.3-1,9.3-1.3c2.2-0.2,4.4-0.1,6.5,0.2c6.7,0.9,10.3,4.6,10.6,11.3c0.3,7.6,0.1,15.3,0.1,23.2c-3.1,0.4-6.2,1-9.4,1.3
		c-4,0.4-8.1,0.4-12.1-0.7c-7.8-2.2-11-11.7-6.1-18c2.1-2.7,5.1-4,8.4-4.4C182.8,29.5,186.1,29.5,189.4,29.3z M189.7,44.6
		c0-2.6,0-5.3,0-8.1c-1.9,0-3.7-0.1-5.5,0c-1,0.1-2,0.4-2.9,0.9c-1.4,0.7-1.9,2-1.9,3.5c0.1,1.4,0.5,2.7,1.9,3.4
		c2.7,1.2,5.5,1.4,8.3,0.5c0.1,0,0.1-0.1,0.2-0.1C189.8,44.7,189.7,44.7,189.7,44.6z"/>
	<path class="st2" d="M108.3,34.6c-0.1,5.3-1.1,9.8-4.5,13.4c-3.7,4.1-8.4,5.5-13.7,5.2c-9.8-0.6-14.9-7.9-15.6-15.7
		c-0.3-3.5,0-6.9,1.3-10.2C78.3,20.8,84,17,91.2,16.9c9-0.1,15.8,5.9,16.9,14.8C108.2,32.9,108.2,34,108.3,34.6z M84,35
		c0.1,0,0.1,0,0.2,0c0,0.8,0.1,1.6,0.2,2.4c0.3,2.2,1,4.4,2.7,5.9c3.4,3,8.6,1.6,10.3-2.8c1.3-3.4,1.3-6.9,0.2-10.4
		c-1-3.2-3.2-4.9-6.2-4.9c-3.1-0.1-5.3,1.5-6.4,4.8C84.5,31.6,84.4,33.3,84,35z"/>
	<path class="st1" d="M237.3,18.3c-1.3,4.1-2.7,8.8-4.1,12.9c-3.3,9.6-7.1,19.1-11.9,28.1c-0.2,0.3-0.4,0.7-0.6,1l-0.1,0.2
		c-2.9,0-6,0-8.9,0c0-0.3,0-0.6,0-0.8c1.5-3,2.9-6,4.3-8.9c-1.9-4.2-3.9-8.1-5.5-12.2c-2.5-6.3-4.6-12.7-6.9-19
		c-0.1-0.1,0-0.3,0-0.5c0.1-0.3,0.2-0.6,0.2-0.9c3.2,0,6.4,0,9.6,0c1.1,3.6,2.1,7.1,3.3,10.7c1,3.2,2.2,6.4,3.3,9.6
		c0.1,0.4,0.3,0.8,0.6,1.5c1.2-3.6,2.4-6.9,3.5-10.2c1.2-3.8,2.3-7.6,3.4-11.4"/>
	<path class="st0" d="M38,17.8c3.5,0,6.8,0,10.1,0c2.4,7.5,4.7,15.1,7.1,22.6c0.2,0,0.4,0,0.6,0c2.4-7.5,4.7-15,7.2-22.6
		c3.2,0,6.5,0,9.9,0C69.3,29.7,65,41.2,59.5,52.3c-2.7,0-5.4,0-8.1,0C45.8,41.3,41.6,29.8,38,17.8z"/>
	<path class="st1" d="M153,3.7c0.1,0,0.2,0,0.2,0c0.1,0,0.1,0,0.2,0c3,0,5.9,0,8.9,0c0.1,0.1,0.1,0.1,0.2,0.2c0,0.3,0,0.5,0,0.8
		c0,15.9,0,31.8,0,47.6c0,0.3,0,0.5,0,0.8c-5.6-0.2-9-3.6-9.6-9.3c-0.1-0.7-0.1-1.4-0.1-2.1c0-12.5,0-25,0-37.5
		C152.9,4,153,3.9,153,3.7z"/>
	<path class="st1" d="M213.2,18.4c-3.2,0-6.4,0-9.6,0c-0.1,0.3,0,0.7-0.1,1c-0.2-0.4-0.4-0.8-0.6-1.4c3.4,0,6.7,0,10,0
		C212.9,18.1,213,18.3,213.2,18.4z"/>
	<path class="st1" d="M211.6,59.6c0,0.3,0,0.6,0,0.9l-0.5,0L211.6,59.6z"/>
	<path class="st1" d="M162.6,3.9c-0.1-0.1-0.1-0.1-0.2-0.2c0.1,0,0.1,0,0.2,0C162.6,3.7,162.6,3.8,162.6,3.9z"/>
	<path class="st1" d="M153.4,3.7c-0.1,0-0.1,0-0.2,0C153.3,3.7,153.4,3.6,153.4,3.7z"/>
	<path class="st1" d="M189.7,44.9c0-0.1,0-0.2,0-0.3c0,0,0.1,0.1,0.1,0.1C189.8,44.8,189.7,44.8,189.7,44.9z"/>
</g>
</svg>
