<?xml version="1.0" encoding="utf-8"?>
<!-- Generator: Adobe Illustrator 22.1.0, SVG Export Plug-In . SVG Version: 6.00 Build 0)  -->
<svg version="1.1" id="katman_1" xmlns="http://www.w3.org/2000/svg" xmlns:xlink="http://www.w3.org/1999/xlink" x="0px" y="0px"
	 viewBox="0 0 55.5 55.4" style="enable-background:new 0 0 55.5 55.4;" xml:space="preserve">
<style type="text/css">
	.st0{fill:#C2C1C0;}
</style>
<g id="グループ_2068" transform="translate(-1947.263 -843.412)">
	<path id="パス_1934" class="st0" d="M1980.6,855.7c-3.6-1.3-7.5-1.3-11.1,0l5.6,13.4L1980.6,855.7z"/>
	<path id="パス_1935" class="st0" d="M1989.8,864.1c-1.6-3.5-4.4-6.2-7.8-7.8l-5.5,13.4L1989.8,864.1z"/>
	<path id="パス_1936" class="st0" d="M1968.1,856.3c-3.5,1.6-6.2,4.4-7.8,7.8l13.4,5.5L1968.1,856.3z"/>
	<path id="パス_1937" class="st0" d="M1969.4,886.5c3.6,1.3,7.5,1.3,11.1,0L1975,873L1969.4,886.5z"/>
	<path id="パス_1938" class="st0" d="M1990.4,865.5l-13.4,5.6l13.4,5.6C1991.7,873.1,1991.7,869.1,1990.4,865.5"/>
	<path id="パス_1939" class="st0" d="M1981.9,885.8c3.5-1.6,6.2-4.4,7.8-7.8l-13.4-5.5L1981.9,885.8z"/>
	<path id="パス_1940" class="st0" d="M1960.2,878c1.6,3.5,4.4,6.2,7.8,7.8l5.5-13.4L1960.2,878z"/>
	<path id="パス_1941" class="st0" d="M1959.6,865.5c-1.3,3.6-1.3,7.5,0,11.1l13.4-5.6L1959.6,865.5z"/>
	<path id="パス_1942" class="st0" d="M1975,892c-11.6,0-21-9.4-21-21c0-11.6,9.4-21,21-21c11.6,0,21,9.4,21,21
		C1996,882.7,1986.6,892,1975,892 M1975,852.4c-10.3,0-18.7,8.3-18.7,18.6c0,10.3,8.3,18.7,18.6,18.7c10.3,0,18.7-8.3,18.7-18.6
		c0,0,0,0,0,0C1993.6,860.8,1985.3,852.4,1975,852.4"/>
	<path id="パス_1943" class="st0" d="M2000.4,871.1V871l0,0c0-0.7,0-1.4-0.1-2.1c-0.1-0.7-0.2-1.5-0.3-2.2
		c-0.1-0.7-0.3-1.4-0.5-2.2l2.3-0.6c-0.2-0.8-0.4-1.6-0.7-2.3c-0.3-0.8-0.6-1.5-0.9-2.2c-0.3-0.7-0.7-1.5-1.1-2.2l-2,1.2
		c-0.4-0.6-0.8-1.3-1.2-1.9c-0.4-0.6-0.9-1.2-1.4-1.8c-0.5-0.6-1-1.1-1.5-1.6c-0.5-0.5-1.1-1-1.6-1.5l1.5-1.8
		c-0.6-0.5-1.3-1-1.9-1.5c-0.7-0.5-1.7-1.1-2.4-1.5c-0.6-0.3-1.2-0.7-1.8-0.9l-1,2.1c-0.7-0.3-1.4-0.6-2-0.9
		c-0.7-0.3-1.4-0.5-2.1-0.7l0.6-2.3c-0.8-0.2-1.6-0.4-2.4-0.5c-0.8-0.1-1.6-0.2-2.4-0.3l-0.2,2.3c-0.7-0.1-1.4-0.1-2.1-0.1h-0.1
		c-0.7,0-1.4,0-2.2,0.1c-0.7,0.1-1.5,0.2-2.2,0.3s-1.5,0.3-2.2,0.5s-1.4,0.4-2.1,0.7l-0.8-2.2c-0.8,0.3-1.5,0.6-2.2,0.9
		c-0.7,0.3-1.5,0.7-2.1,1.1l1.2,2c-0.6,0.4-1.3,0.8-1.9,1.2s-1.2,0.9-1.8,1.4c-0.6,0.5-1.1,1-1.6,1.5s-1,1.1-1.5,1.6
		c-0.5,0.6-0.9,1.2-1.4,1.8l-1.9-1.3c-0.5,0.7-0.9,1.3-1.3,2c-0.4,0.7-0.8,1.4-1.1,2.1c-0.3,0.7-0.7,1.5-0.9,2.2l2.2,0.8
		c-0.3,0.7-0.5,1.4-0.7,2.1c-0.2,0.7-0.3,1.4-0.5,2.2l-2.3-0.4c-0.1,0.8-0.2,1.6-0.3,2.4c-0.1,0.8-0.1,1.6-0.1,2.4h2.3
		c0,0.7,0,1.5,0.1,2.2c0.1,0.7,0.2,1.5,0.3,2.2c0.1,0.7,0.3,1.5,0.5,2.2l-2.3,0.6c0.2,0.8,0.4,1.6,0.7,2.3c0.3,0.8,0.6,1.5,0.9,2.2
		c0.3,0.7,0.7,1.5,1.1,2.1l2-1.2c0.4,0.6,0.8,1.3,1.2,1.9c0.4,0.6,0.9,1.2,1.4,1.8c0.5,0.6,1,1.1,1.5,1.6c0.5,0.5,1.1,1,1.6,1.5
		l-1.5,1.8c0.6,0.5,1.3,1,1.9,1.5c0.7,0.5,1.3,0.9,2,1.3c0.7,0.4,1.4,0.8,2.1,1.1l1-2.1c0.7,0.3,1.3,0.6,2,0.9
		c0.7,0.3,1.4,0.5,2.1,0.7l-0.6,2.3c0.8,0.2,1.6,0.4,2.4,0.5c0.8,0.1,1.6,0.2,2.4,0.3l0.2-2.3c0.7,0.1,1.4,0.1,2.2,0.1h0.1
		c0.7,0,1.4,0,2.2-0.1c0.7-0.1,1.5-0.2,2.2-0.3c0.7-0.1,1.5-0.3,2.2-0.5c0.7-0.2,1.4-0.4,2.1-0.7l0.8,2.2c0.8-0.3,1.5-0.6,2.2-0.9
		c0.7-0.3,1.5-0.7,2.1-1.1l-1.2-2c0.6-0.4,1.3-0.8,1.9-1.2c0.6-0.4,1.2-0.9,1.8-1.4c0.6-0.5,1.1-1,1.6-1.5c0.5-0.5,1-1.1,1.5-1.6
		c0.5-0.6,0.9-1.2,1.4-1.8l1.9,1.3c0.5-0.7,0.9-1.3,1.3-2c0.4-0.7,0.8-1.4,1.1-2.1c0.3-0.7,0.7-1.5,0.9-2.2l-2.2-0.8
		c0.3-0.7,0.5-1.4,0.7-2.1c0.2-0.7,0.3-1.4,0.5-2.2l2.3,0.4c0.1-0.8,0.2-1.6,0.3-2.4c0.1-0.8,0.1-1.6,0.1-2.4L2000.4,871.1
		L2000.4,871.1z M1998.7,877.4l-1.8-0.5c-0.2,0.6-0.4,1.3-0.6,1.9c-0.2,0.6-0.5,1.2-0.8,1.8s-0.6,1.2-0.9,1.8l1.6,0.9
		c-0.4,0.6-0.7,1.2-1.2,1.8c-0.4,0.6-0.8,1.2-1.3,1.7c-0.5,0.5-0.9,1.1-1.4,1.6l-1.3-1.3c-0.5,0.5-1,0.9-1.5,1.3
		c-0.5,0.4-1,0.8-1.6,1.2c-0.5,0.4-1.1,0.7-1.7,1.1l0.9,1.6c-0.6,0.4-1.2,0.7-1.9,1c-0.6,0.3-1.3,0.6-2,0.8c-0.7,0.2-1.3,0.5-2,0.6
		l-0.5-1.8c-0.6,0.2-1.3,0.3-1.9,0.4c-0.7,0.1-1.3,0.2-2,0.3c-0.7,0.1-1.3,0.1-2,0.1v1.8l0,0v-1.8l0,0v1.8c-0.7,0-1.4,0-2.1-0.1
		s-1.4-0.2-2.1-0.3l0.3-1.8c-0.7-0.1-1.3-0.3-1.9-0.4c-0.6-0.2-1.3-0.4-1.9-0.6c-0.6-0.2-1.2-0.5-1.8-0.8l-0.8,1.7
		c-0.6-0.3-1.3-0.6-1.9-1c-0.6-0.4-1.2-0.7-1.8-1.2s-1.2-0.8-1.7-1.3c-0.5-0.5-1.1-0.9-1.6-1.4l1.3-1.3c-0.5-0.5-0.9-1-1.3-1.5
		c-0.4-0.5-0.8-1-1.2-1.6c-0.4-0.5-0.7-1.1-1.1-1.7c-0.3-0.6-0.6-1.2-0.9-1.8l-1.7,0.8c-0.3-0.6-0.6-1.3-0.8-2
		c-0.2-0.7-0.4-1.3-0.6-2c-0.2-0.7-0.3-1.4-0.5-2.1l1.8-0.3c-0.1-0.6-0.2-1.3-0.3-2s-0.1-1.3-0.1-2v0l0,0c0-0.7,0-1.3,0.1-2
		s0.1-1.3,0.3-2l-1.8-0.3c0.1-0.7,0.3-1.4,0.5-2.1l1.8,0.5c0.2-0.6,0.4-1.3,0.6-1.9c0.2-0.6,0.5-1.2,0.8-1.8
		c0.3-0.6,0.6-1.2,0.9-1.8l-1.6-0.9c0.4-0.6,0.7-1.2,1.2-1.8c0.4-0.6,0.8-1.1,1.3-1.7c0.5-0.5,0.9-1.1,1.4-1.6l1.3,1.3
		c0.5-0.5,1-0.9,1.5-1.3s1-0.8,1.6-1.2c0.5-0.4,1.1-0.7,1.7-1.1l-0.9-1.6c0.6-0.4,1.3-0.7,1.9-1c0.6-0.3,1.3-0.6,2-0.8
		s1.3-0.5,2-0.6l0.5,1.8c0.6-0.2,1.3-0.3,1.9-0.4c0.7-0.1,1.3-0.2,2-0.3c0.7-0.1,1.3-0.1,2-0.1v-1.8l0,0v1.8l0,0v-1.8l0,0
		c0.7,0,1.4,0,2.1,0.1c0.7,0.1,1.4,0.2,2.1,0.3l-0.3,1.8c0.7,0.1,1.3,0.3,1.9,0.4c0.6,0.2,1.3,0.4,1.9,0.6s1.2,0.5,1.8,0.8l0.8-1.7
		c0.6,0.3,1.3,0.6,1.9,1c0.6,0.4,1.2,0.7,1.8,1.2c0.6,0.4,1.2,0.8,1.7,1.3l-1.2,1.4c0.5,0.4,1,0.9,1.5,1.3c0.5,0.5,0.9,1,1.3,1.5
		c0.4,0.5,0.8,1,1.2,1.6c0.4,0.5,0.7,1.1,1.1,1.7c0.3,0.6,0.6,1.2,0.9,1.8l1.7-0.8c0.3,0.6,0.6,1.3,0.8,2c0.2,0.7,0.4,1.4,0.6,2
		c0.2,0.7,0.3,1.4,0.5,2.1l-1.8,0.3c0.1,0.6,0.2,1.3,0.3,2c0.1,0.7,0.1,1.3,0.1,2v0l0,0c0,0.7,0,1.3-0.1,2c-0.1,0.6-0.1,1.3-0.3,2
		l1.8,0.3C1999,876,1998.9,876.7,1998.7,877.4"/>
</g>
</svg>
