<svg xmlns="http://www.w3.org/2000/svg" xmlns:xlink="http://www.w3.org/1999/xlink" viewBox="0 0 22.87 34.67"><defs><style>.cls-1,.cls-2,.cls-3,.cls-4,.cls-5{fill-rule:evenodd;}.cls-1{fill:url(#linear-gradient);}.cls-2{fill:url(#linear-gradient-2);}.cls-3{fill:url(#linear-gradient-3);}.cls-4{fill:url(#linear-gradient-4);}.cls-5{fill:url(#linear-gradient-5);}</style><linearGradient id="linear-gradient" x1="0.35" y1="2.72" x2="22.94" y2="2.72" gradientUnits="userSpaceOnUse"><stop offset="0" stop-color="#ed334d"/><stop offset="1" stop-color="#f79826"/></linearGradient><linearGradient id="linear-gradient-2" x1="1.17" y1="4.74" x2="23.56" y2="4.74" xlink:href="#linear-gradient"/><linearGradient id="linear-gradient-3" x1="0.66" y1="0.75" x2="23.14" y2="0.75" xlink:href="#linear-gradient"/><linearGradient id="linear-gradient-4" x1="0.54" y1="6.43" x2="22.82" y2="6.43" xlink:href="#linear-gradient"/><linearGradient id="linear-gradient-5" x1="0" y1="20.29" x2="22.87" y2="20.29" xlink:href="#linear-gradient"/></defs><title>Habanero_1</title><g id="Layer_2" data-name="Layer 2"><g id="Layer_1-2" data-name="Layer 1"><path class="cls-1" d="M13,4.58a.76.76,0,0,0,.76-.76V1.62A.76.76,0,0,0,13,.85a.77.77,0,0,0-.77.77v2.2A.77.77,0,0,0,13,4.58Z"/><path class="cls-2" d="M9.92,6.61a.77.77,0,0,0,.76-.77V3.64a.76.76,0,1,0-1.52,0v2.2A.77.77,0,0,0,9.92,6.61Z"/><path class="cls-3" d="M9.92,1.51a.76.76,0,0,0,.76-.76h0a.76.76,0,0,0-1.52,0h0A.76.76,0,0,0,9.92,1.51Z"/><path class="cls-4" d="M16,7.19a.76.76,0,0,0,.77-.76h0a.77.77,0,0,0-1.53,0h0A.76.76,0,0,0,16,7.19Z"/><path class="cls-5" d="M22.11,12.84a.76.76,0,0,0-.76.76V14a.77.77,0,0,1-1.53-.05V12a.76.76,0,1,0-1.52,0v.05a.76.76,0,1,1-1.52,0V8.89A.77.77,0,0,0,16,8.13a.76.76,0,0,0-.76.76V10.1a.78.78,0,0,1-.76.77.76.76,0,0,1-.76-.76V6.67a.77.77,0,0,0-1.53,0v3a.76.76,0,0,1-1.52,0V8.59a.76.76,0,1,0-1.52,0v2.29a.77.77,0,0,1-1.53,0V7.69a.76.76,0,0,0-1.52,0v4.88a.76.76,0,0,1-.76.76.77.77,0,0,1-.77-.76V11.28a.76.76,0,0,0-1.52,0v3.59a.76.76,0,1,1-1.52,0V13.69a.76.76,0,0,0-.77-.76.76.76,0,0,0-.76.76V28.07l11.43,6.6,11.44-6.6V13.6A.76.76,0,0,0,22.11,12.84Zm-5.29,13H13.23V23.05H9.64v2.74H6.05V17.23H9.64V20.1h3.59V17.23h3.59Z"/></g></g></svg>