<svg xmlns="http://www.w3.org/2000/svg" xmlns:xlink="http://www.w3.org/1999/xlink" viewBox="0 0 33.82 33.82"><defs><style>.cls-1{fill:url(#linear-gradient);}</style><linearGradient id="linear-gradient" x1="22.7" y1="1.02" x2="11.13" y2="32.8" gradientUnits="userSpaceOnUse"><stop offset="0" stop-color="#30b7e2"/><stop offset="0.92" stop-color="#22e21f"/></linearGradient></defs><title>Microgaming_2</title><g id="Layer_2" data-name="Layer 2"><g id="Layer_1-2" data-name="Layer 1"><path class="cls-1" d="M33.82,16.91A16.91,16.91,0,1,0,.65,21.55s0,.23.12.2.32-.39.34-.42c.29-.37.56-.75.82-1.13A129.83,129.83,0,0,0,11.05,4.89c.57-1.16,1.24-1.6,2-1.41a1.87,1.87,0,0,1,1.21,2c-.11,2-.23,3.92-.4,5.87-.33,3.73.23,12.79,1.78,13.23.51.15,1.27-.91,1.75-1.55a56.49,56.49,0,0,0,5.28-9.81c.31-.65.58-1.32.91-2a1.38,1.38,0,0,1,1.61-.9,1.53,1.53,0,0,1,1.21,1.44c.11.87.17,1.75.34,2.61.52,2.64,1.08,5.27,2.73,7.51.11.16.25.44.14.63-.66,1.17-4.28-4.67-4.95-6.71-.33.6-2.74,5.58-3.88,7.43A15.93,15.93,0,0,1,18,26.71a3.29,3.29,0,0,1-5.43-1.06,11.26,11.26,0,0,1-1-2.76c-.64-2.78-.76-9.4-.8-10.07L3.43,25C3,25.82,2.79,26.1,3,26.51a12,12,0,0,0,.74,1A20.55,20.55,0,0,0,6,29.85a16.88,16.88,0,0,0,10.89,4c.56,0,1.11,0,1.66-.08s1.2-.16,1.82-.28A16.91,16.91,0,0,0,33.82,16.91Z"/></g></g></svg>