<?xml version="1.0" encoding="utf-8"?>
<!-- Generator: Adobe Illustrator 19.1.0, SVG Export Plug-In . SVG Version: 6.00 Build 0)  -->
<svg version="1.1" id="Layer_1" xmlns="http://www.w3.org/2000/svg" xmlns:xlink="http://www.w3.org/1999/xlink" x="0px" y="0px"
	 viewBox="-250 384.7 109.2 24.3" style="enable-background:new -250 384.7 109.2 24.3;" xml:space="preserve">
<style type="text/css">
	.st0{fill:#00599B;}
	.st1{fill:#9B9B9B;}
</style>
<title>mrslotty</title>
<path class="st0" d="M-231.8,385.1v18.8c0,0.2-0.1,0.3-0.3,0.3h-4.6c-0.2,0-0.3-0.1-0.3-0.3v-9.3l-3.6,6.4c-0.1,0.1-0.3,0.2-0.4,0.1
	c-0.1,0-0.1-0.1-0.1-0.1l-3.6-6.4v14c0,0.2-0.1,0.3-0.3,0.3h-4.6c-0.2,0-0.3-0.1-0.3-0.3c0,0,0,0,0,0v-23.5c0-0.2,0.1-0.3,0.3-0.3
	c0,0,0,0,0,0h4.6c0.1,0,0.2,0.1,0.3,0.1l3.9,7l3.9-7c0.1-0.1,0.2-0.2,0.3-0.2h4.6C-231.9,384.8-231.8,385-231.8,385.1z
	 M-221.9,394.6c0.1,0.1,0.1,0.1,0.2,0.1c0.1,0,0.2,0,0.2-0.1l3.3-3.3c0.1-0.1,0.1-0.1,0.1-0.2c0-0.1,0-0.2-0.1-0.2
	c-0.4-0.5-0.9-0.8-1.5-1.1c-0.6-0.2-1.3-0.3-1.9-0.3c-1.1,0-2.2,0.3-3.1,1v-0.5c0-0.2-0.1-0.3-0.3-0.3h-4.2c-0.2,0-0.3,0.1-0.3,0.3
	v14.1c0,0.2,0.1,0.3,0.3,0.3c0,0,0,0,0,0h4.3c0.2,0,0.3-0.1,0.3-0.3c0,0,0,0,0,0v-8.4c-0.1-0.8,0.4-1.5,1.2-1.6c0.1,0,0.1,0,0.2,0
	C-222.7,393.9-222.2,394.2-221.9,394.6z"/>
<path class="st1" d="M-201.9,398.1c0,3.9-3,6.3-7.9,6.3c-1.5,0-3-0.3-4.4-0.8c-1-0.4-1.8-1-2.6-1.8c-0.1-0.1-0.1-0.3,0-0.4
	c0,0,0,0,0,0l3-3c0.1-0.1,0.1-0.1,0.2-0.1c0.1,0,0.1,0,0.2,0.1c0.3,0.3,0.7,0.6,1.2,0.7c0.9,0.3,1.9,0.5,2.8,0.5
	c2.4,0,2.4-1,2.4-1.4c0-0.6-0.2-1.1-1.4-1.3l-2.3-0.3c-3.5-0.5-5.4-2.4-5.4-5.7c0-3.9,2.9-6.3,7.4-6.3c1.3,0,2.7,0.2,3.9,0.7
	c0.9,0.4,1.7,0.9,2.4,1.6c0.1,0.1,0.1,0.1,0.1,0.2c0,0.1,0,0.2-0.1,0.2l-2.9,2.9c-0.1,0.1-0.3,0.1-0.4,0c-0.3-0.3-0.7-0.5-1.1-0.7
	c-0.6-0.2-1.3-0.4-2-0.3c-0.7,0-2.3,0.1-2.3,1.4c0,0.8,0.8,1,1.4,1.1l2.3,0.3C-203.6,392.7-201.9,394.6-201.9,398.1z M-140.9,389.5
	c-0.1-0.1-0.2-0.1-0.3-0.1h-4.6c-0.1,0-0.3,0.1-0.3,0.2l-2,6.5l-2-6.4c0-0.1-0.2-0.2-0.3-0.2h-4.6c-0.1,0-0.2,0-0.3,0.1
	c0,0.1,0,0.2,0,0.3l4.7,12.7l-0.4,1.1c-0.2,0.7-0.5,0.9-1.2,0.9h-0.9c-0.2,0-0.3,0.1-0.3,0.3v3.8c0,0.2,0.1,0.3,0.3,0.3h1.6
	c2.1,0.2,4.1-1.2,4.6-3.3l5.9-15.9C-140.8,389.7-140.8,389.6-140.9,389.5L-140.9,389.5z M-156.8,390h-1.9v-3.8
	c0-0.2-0.1-0.3-0.3-0.3c0,0,0,0-0.1,0h-4.3c-0.2,0-0.3,0.1-0.3,0.3v3.8h-1c-0.2,0-0.3,0.1-0.3,0.3v3.3c0,0.2,0.1,0.3,0.3,0.3h1v5.8
	c-0.1,2.4,1.8,4.4,4.2,4.5c0.2,0,0.3,0,0.5,0h2.2c0.2,0,0.3-0.1,0.3-0.3v-3.7c0-0.2-0.1-0.3-0.3-0.3h-1.4c-0.4,0-0.6-0.1-0.6-0.6
	v-5.5h1.9c0.2,0,0.3-0.1,0.3-0.3c0,0,0,0,0,0v-3.3C-156.4,390.1-156.5,390-156.8,390L-156.8,390z M-195.1,384.7h-4.3
	c-0.2,0-0.3,0.1-0.3,0.3c0,0,0,0,0,0v19c0,0.2,0.1,0.3,0.3,0.3c0,0,0,0,0,0h4.3c0.2,0,0.3-0.1,0.3-0.3l0,0v-19
	C-194.8,384.8-195,384.7-195.1,384.7C-195.1,384.7-195.1,384.7-195.1,384.7z M-177.6,396.8c0,4.2-3.4,7.5-7.5,7.5
	c-4.2,0-7.5-3.4-7.5-7.5c0-4.2,3.4-7.5,7.5-7.5l0,0C-181,389.3-177.7,392.6-177.6,396.8z M-182.2,396.8c0-1.7-1.3-3-3-3
	c-1.7,0-3,1.3-3,3s1.3,3,3,3C-183.6,399.8-182.2,398.5-182.2,396.8C-182.2,396.8-182.2,396.8-182.2,396.8L-182.2,396.8z M-167.4,390
	h-1.9v-3.8c0-0.2-0.1-0.3-0.3-0.3c0,0,0,0,0,0h-4.3c-0.2,0-0.3,0.1-0.3,0.3v3.8h-1c-0.2,0-0.3,0.1-0.3,0.3v3.3
	c0,0.2,0.1,0.3,0.3,0.3h1v5.8c-0.1,2.4,1.8,4.4,4.2,4.5c0.2,0,0.3,0,0.5,0h2.2c0.2,0,0.3-0.1,0.3-0.3c0,0,0,0,0,0v-3.7
	c0-0.2-0.1-0.3-0.3-0.3c0,0,0,0,0,0h-1.4c-0.4,0-0.6-0.1-0.6-0.6v-5.5h1.9c0.2,0,0.3-0.1,0.3-0.3c0,0,0,0,0,0v-3.3
	C-167,390.1-167.2,390-167.4,390C-167.3,390-167.4,390-167.4,390z"/>
</svg>
