<svg xmlns="http://www.w3.org/2000/svg" viewBox="0 0 109.23 24.34"><defs><style>.cls-1{fill:#9b9b9b;}</style></defs><title>mrslotty-g</title><g id="Layer_2" data-name="Layer 2"><g id="Layer_1-2" data-name="Layer 1"><path class="cls-1" d="M18.16.46V19.28a.31.31,0,0,1-.31.31H13.23a.31.31,0,0,1-.31-.31V10L9.35,16.44a.3.3,0,0,1-.53,0L5.24,10V24a.31.31,0,0,1-.31.3H.31A.3.3,0,0,1,0,24V.46A.3.3,0,0,1,.31.16H4.93A.31.31,0,0,1,5.2.31l3.88,7L13,.31a.31.31,0,0,1,.27-.16h4.63A.31.31,0,0,1,18.16.46Zm9.93,9.47a.3.3,0,0,0,.21.09.3.3,0,0,0,.22-.09L31.79,6.6a.31.31,0,0,0,.09-.22.31.31,0,0,0-.1-.22A4.7,4.7,0,0,0,30.26,5.1a5.28,5.28,0,0,0-1.94-.34,5.11,5.11,0,0,0-3.13,1V5.22a.31.31,0,0,0-.3-.31H20.66a.31.31,0,0,0-.3.31V19.28a.3.3,0,0,0,.3.31H25a.3.3,0,0,0,.31-.31V10.93a1.45,1.45,0,0,1,1.46-1.65A1.72,1.72,0,0,1,28.09,9.93Z"/><path class="cls-1" d="M48.13,13.41c0,3.9-3,6.33-7.94,6.33a11.89,11.89,0,0,1-4.4-.79,7.93,7.93,0,0,1-2.57-1.77.31.31,0,0,1,0-.44l3-3a.3.3,0,0,1,.22-.09.29.29,0,0,1,.2.07,3.67,3.67,0,0,0,1.17.74,7.61,7.61,0,0,0,2.84.51C43,15,43,13.95,43,13.6c0-.65-.23-1.12-1.35-1.28L39.35,12C35.81,11.5,34,9.59,34,6.33,34,2.43,36.85,0,41.43,0a10.4,10.4,0,0,1,3.9.71,7.45,7.45,0,0,1,2.41,1.61.3.3,0,0,1,.1.22.3.3,0,0,1-.09.22L44.84,5.67a.3.3,0,0,1-.42,0A3,3,0,0,0,43.35,5a5,5,0,0,0-2-.32c-.7,0-2.31.14-2.31,1.41,0,.78.76,1.05,1.4,1.15l2.27.32C46.42,8,48.13,9.9,48.13,13.41Zm61-8.53a.31.31,0,0,0-.25-.13h-4.55a.31.31,0,0,0-.29.22l-2,6.46L100,5a.31.31,0,0,0-.29-.21H95.13a.31.31,0,0,0-.25.13.3.3,0,0,0,0,.28l4.69,12.72L99.17,19c-.23.68-.46.85-1.16.85h-.93a.31.31,0,0,0-.3.31V24a.31.31,0,0,0,.3.31h1.64a4.41,4.41,0,0,0,4.6-3.26l5.89-15.91A.31.31,0,0,0,109.17,4.89Zm-15.89.42H91.34V1.55A.3.3,0,0,0,91,1.24H86.7a.31.31,0,0,0-.3.31V5.31h-1a.31.31,0,0,0-.31.31V8.95a.31.31,0,0,0,.31.31h1v5.83a4.37,4.37,0,0,0,4.72,4.51h2.17a.31.31,0,0,0,.31-.31V15.63a.31.31,0,0,0-.31-.3H91.91c-.41,0-.57-.15-.57-.57V9.25h1.94a.3.3,0,0,0,.31-.31V5.62A.31.31,0,0,0,93.29,5.31ZM54.87,0H50.54a.3.3,0,0,0-.31.3v19a.3.3,0,0,0,.31.31h4.33a.31.31,0,0,0,.31-.31V.31A.31.31,0,0,0,54.87,0ZM72.35,12.13A7.53,7.53,0,1,1,64.82,4.6,7.54,7.54,0,0,1,72.35,12.13Zm-4.58,0a3,3,0,1,0-3,3A3,3,0,0,0,67.78,12.13ZM82.64,5.31H80.7V1.55a.3.3,0,0,0-.31-.31H76.06a.31.31,0,0,0-.3.31V5.31h-1a.31.31,0,0,0-.31.31V8.95a.31.31,0,0,0,.31.31h1v5.83a4.37,4.37,0,0,0,4.72,4.51h2.17a.3.3,0,0,0,.31-.31V15.63a.3.3,0,0,0-.31-.3H81.27c-.41,0-.57-.15-.57-.57V9.25h1.94a.3.3,0,0,0,.31-.31V5.62A.3.3,0,0,0,82.64,5.31Z"/></g></g></svg>