<?xml version="1.0" encoding="utf-8"?>
<!-- Generator: Adobe Illustrator 19.1.0, SVG Export Plug-In . SVG Version: 6.00 Build 0)  -->
<svg version="1.1" id="Layer_1" xmlns="http://www.w3.org/2000/svg" xmlns:xlink="http://www.w3.org/1999/xlink" x="0px" y="0px"
	 viewBox="-263 382.6 83.3 29.4" style="enable-background:new -263 382.6 83.3 29.4;" xml:space="preserve">
<style type="text/css">
	.st0{fill:#77BC1F;}
	.st1{fill:#9B9B9B;}
</style>
<title>netent</title>
<g>
	<polygon class="st0" points="-219.4,382.6 -220.3,382.6 -220.3,412 -219.4,412 -219.4,406.3 -208.7,406.3 -208.7,402.9 -217,402.9 
		-217,399 -209.9,399 -209.9,395.5 -217,395.5 -217,391.7 -208.7,391.7 -208.7,388.3 -219.4,388.3 	"/>
	<polygon class="st1" points="-252.8,399.3 -255.8,394.4 -259.7,388.3 -259.8,388.3 -263,388.3 -263,406.3 -259.4,406.3 
		-259.4,395.2 -256.7,399.6 -252.4,406.3 -249.2,406.3 -249.2,388.3 -252.8,388.3 	"/>
	<polygon class="st1" points="-247.1,406.3 -235.3,406.3 -235.3,402.9 -243.5,402.9 -243.5,399 -236.5,399 -236.5,395.5 
		-243.5,395.5 -243.5,391.7 -235.3,391.7 -235.3,388.3 -247.1,388.3 	"/>
	<polygon class="st1" points="-233.8,391.7 -229.7,391.7 -229.7,406.3 -226.1,406.3 -226.1,391.7 -222,391.7 -222,388.3 
		-233.8,388.3 	"/>
	<polygon class="st0" points="-196.7,399.4 -199.8,394.5 -203.6,388.4 -203.7,388.3 -206.9,388.3 -206.9,406.4 -203.3,406.4 
		-203.3,395.3 -200.7,399.6 -196.4,406.4 -193.1,406.4 -193.1,388.3 -196.7,388.3 	"/>
	<polygon class="st0" points="-191.6,388.3 -191.6,391.8 -187.5,391.8 -187.5,406.4 -183.9,406.4 -183.9,391.8 -179.8,391.8 
		-179.8,388.3 	"/>
</g>
</svg>
