<svg xmlns="http://www.w3.org/2000/svg" viewBox="0 0 83.25 29.39"><defs><style>.cls-1{fill:#9b9b9b;}</style></defs><title>netent-g</title><g id="Layer_2" data-name="Layer 2"><g id="Layer_1-2" data-name="Layer 1"><polygon class="cls-1" points="43.55 0 42.71 0 42.71 29.39 43.55 29.39 43.55 23.74 54.27 23.74 54.27 20.31 46.02 20.31 46.02 16.37 53.07 16.37 53.07 12.92 46.02 12.92 46.02 9.11 54.27 9.11 54.27 5.66 43.55 5.66 43.55 0"/><polygon class="cls-1" points="10.22 16.74 7.17 11.82 3.27 5.72 3.23 5.66 0 5.66 0 23.74 3.59 23.74 3.59 12.62 6.26 16.95 10.57 23.74 13.83 23.74 13.83 5.66 10.22 5.66 10.22 16.74"/><polygon class="cls-1" points="15.85 23.74 27.7 23.74 27.7 20.31 19.46 20.31 19.46 16.37 26.5 16.37 26.5 12.92 19.46 12.92 19.46 9.11 27.7 9.11 27.7 5.66 15.85 5.66 15.85 23.74"/><polygon class="cls-1" points="29.16 9.13 33.3 9.13 33.3 23.74 36.91 23.74 36.91 9.13 41.03 9.13 41.03 5.66 29.16 5.66 29.16 9.13"/><polygon class="cls-1" points="66.29 16.77 63.25 11.85 59.35 5.75 59.3 5.68 56.07 5.68 56.07 23.77 59.66 23.77 59.66 12.65 62.34 16.98 66.64 23.77 69.9 23.77 69.9 5.68 66.29 5.68 66.29 16.77"/><polygon class="cls-1" points="71.38 5.68 71.38 9.16 75.52 9.16 75.52 23.77 79.13 23.77 79.13 9.16 83.25 9.16 83.25 5.68 71.38 5.68"/></g></g></svg>