<?xml version="1.0" encoding="utf-8"?>
<!-- Generator: Adobe Illustrator 22.1.0, SVG Export Plug-In . SVG Version: 6.00 Build 0)  -->
<svg version="1.1" id="katman_1" xmlns="http://www.w3.org/2000/svg" xmlns:xlink="http://www.w3.org/1999/xlink" x="0px" y="0px"
	 viewBox="0 0 99.4 84.8" style="enable-background:new 0 0 99.4 84.8;" xml:space="preserve">
<style type="text/css">
	.st0{fill:#AAAAAA;}
	.st1{fill:#C2C1C0;}
	.st2{fill:#939393;}
	.st3{fill:#5BBE67;}
	.st4{fill:#73C05D;}
	.st5{fill:#7F7F7F;}
	.st6{fill:#27B374;}
</style>
<g>
	<path class="st0" d="M78.3,28.6c-2.5,2.5-4.9,5-7.4,7.5c-6.8,6.8-13.5,13.7-20.3,20.5c-0.2,0.2-0.5,0.3-0.7,0.4
		c0-0.3,0.1-0.6,0.1-0.8c0-3.2,0-6.4,0-9.7c0.2-0.2,0.4-0.3,0.5-0.5c2.7-2.7,5.4-5.3,8-8c3.2-3.2,6.4-6.4,9.6-9.6
		c3.4,0,6.8,0,10.2,0c0,0,0,0,0,0C78.4,28.5,78.4,28.6,78.3,28.6z"/>
	<path class="st0" d="M21.8,28.5c1.5-1.5,2.9-3,4.4-4.5C34,16.1,41.8,8.2,49.6,0.3C49.7,0.2,50,0.1,50.3,0c-0.1,0.3-0.2,0.5-0.2,0.8
		c0,3.1,0,6.2,0,9.3c0,0.1,0,0.2,0,0.3c-6,6-12,12.1-18,18.1C28.6,28.5,25.2,28.5,21.8,28.5z"/>
	<path class="st1" d="M50.1,10.1c0-3.1,0-6.2,0-9.3c0-0.3,0.1-0.5,0.2-0.8c1.2,1.2,2.5,2.5,3.7,3.7c8,8.1,16,16.1,23.9,24.2
		c0.2,0.2,0.3,0.4,0.4,0.5c-3.4,0-6.8,0-10.2,0c-2.7-2.7-5.5-5.5-8.2-8.2c-3.3-3.3-6.5-6.6-9.8-9.8C50.2,10.3,50.1,10.2,50.1,10.1z"
		/>
	<path class="st2" d="M21.8,28.5c3.4,0,6.8,0,10.2,0c0.1,0.1,0.2,0.2,0.3,0.3c5.9,5.9,11.9,11.9,17.8,17.8c0,3.2,0,6.4,0,9.7
		c0,0.3-0.1,0.6-0.1,0.8c-3.3-3.3-6.6-6.7-9.9-10C35,42,30,37,25.1,31.9C24,30.8,22.9,29.6,21.8,28.5z"/>
	<path class="st0" d="M0,62.4c4.8-4.8,9.5-9.7,14.3-14.5c2.3-2.3,4.6-4.6,6.8-6.9c0.2-0.2,0.4-0.3,0.6-0.5c0,2.5,0,5,0,7.4
		c-0.2,0.1-0.4,0.3-0.5,0.4c-2.2,2.2-4.4,4.4-6.6,6.6c-2.5,2.5-4.9,5-7.4,7.4C4.9,62.4,2.4,62.4,0,62.4z"/>
	<path class="st1" d="M77.9,40.6c2.8,2.8,5.5,5.5,8.3,8.3c4.2,4.2,8.4,8.5,12.6,12.8c0.1,0.1,0.3,0.3,0.4,0.5c0,0.1,0,0.2,0,0.3
		c-2.2,0-4.5,0-6.7,0c-0.1,0-0.2-0.1-0.3-0.1c-0.1-0.1-0.3-0.2-0.4-0.4c-4.5-4.5-8.9-8.9-13.4-13.4c-0.2-0.2-0.4-0.4-0.6-0.6
		c0,0,0-0.1,0-0.1c0,0,0.1,0,0-0.1c0,0,0-0.1-0.1-0.1c0-2.4,0-4.7,0-7.1C77.8,40.6,77.8,40.6,77.9,40.6z"/>
	<path class="st2" d="M77.9,84.1c-0.2-0.1-0.5-0.1-0.6-0.3C70.9,77.4,64.5,71,58.2,64.5c-0.6-0.6-1.2-1.2-1.8-1.8
		c-0.1-0.1-0.1-0.3-0.1-0.5c0.3,0.1,0.6,0.1,0.9,0.1c2.1,0,4.1,0,6.2,0c0.2,0.2,0.4,0.3,0.6,0.5c4.4,4.4,8.9,8.9,13.3,13.3
		c0.2,0.2,0.5,0.4,0.7,0.5C77.9,79.2,77.9,81.7,77.9,84.1z"/>
	<path class="st0" d="M50.5,84.7c-0.1,0-0.2,0.1-0.2,0.1c-5.3,0-10.6,0-16,0c0.4-0.4,0.7-0.8,1.1-1.1c4.9-4.9,9.7-9.9,14.6-14.8
		c0.2-0.2,0.4-0.2,0.6-0.4C50.5,73.9,50.5,79.3,50.5,84.7z"/>
	<path class="st2" d="M0,62.4c2.4,0,4.9,0,7.3,0c3.7,3.7,7.4,7.4,11.1,11.1c1.1,1.1,2.3,2.2,3.4,3.3c0,2.5,0,4.9,0,7.4
		c-0.2-0.2-0.5-0.3-0.7-0.5C16,78.5,10.9,73.4,5.8,68.2c-1.4-1.5-2.9-2.9-4.3-4.4C1,63.4,0.5,62.9,0,62.4z"/>
	<path class="st0" d="M21.8,84.2c0-2.5,0-4.9,0-7.4c4.8-4.8,9.6-9.6,14.4-14.4c2.4,0,4.8,0,7.1,0c-1.1,1.2-2.2,2.3-3.4,3.5
		c-5.9,6-11.9,12-17.8,18C22.1,84,21.9,84.1,21.8,84.2z"/>
	<path class="st1" d="M43.4,62.3c-2.4,0-4.8,0-7.1,0c-0.1-0.1-0.2-0.3-0.4-0.4c-4.7-4.7-9.4-9.4-14.1-14.1c0-2.5,0-5,0-7.4
		c2,2,4.1,4,6.1,6.1c5,5,10,10.1,14.9,15.1C43,61.9,43.2,62.1,43.4,62.3z"/>
	<path class="st0" d="M63.3,62.4c-2.1,0-4.1,0-6.2,0c-0.3,0-0.6-0.1-0.9-0.1c1.9-1.9,3.8-3.9,5.7-5.8c5.2-5.3,10.5-10.6,15.7-15.8
		c0,0,0.1,0,0.1,0c0,2.4,0,4.7,0,7.1c0,0.1,0,0.1,0,0.2c0,0,0,0.1,0,0.1c-1.7,1.7-3.4,3.4-5.2,5.2C69.4,56.1,66.4,59.3,63.3,62.4z"
		/>
	<path class="st1" d="M50.5,84.7c0-5.4,0-10.8,0-16.2c1.9,1.9,3.8,3.7,5.7,5.6c3.3,3.3,6.5,6.6,9.8,9.9c0.2,0.2,0.4,0.4,0.6,0.6
		c-0.2,0-0.3,0.1-0.4,0.1c-5,0-10,0-15.1,0C50.9,84.8,50.7,84.7,50.5,84.7z"/>
	<path class="st0" d="M77.9,84.1c0-2.5,0-4.9,0-7.4c4.8-4.8,9.6-9.6,14.3-14.4c0.1,0,0.2,0,0.3,0c2.2,0,4.5,0,6.7,0
		c0.1,0,0.1,0,0.2,0c-1.5,1.6-3,3.1-4.5,4.7c-5.5,5.6-11,11.1-16.5,16.7C78.2,83.9,78,84,77.9,84.1z"/>
	<path class="st3" d="M99.4,62.4c-0.1,0-0.1,0-0.2,0c0-0.1,0-0.2,0-0.3C99.3,62.2,99.3,62.3,99.4,62.4z"/>
	<path class="st3" d="M77.7,40.6c0,0-0.1,0-0.1,0c0.1,0,0.2,0,0.3,0C77.8,40.6,77.8,40.6,77.7,40.6z"/>
	<path class="st4" d="M78.3,28.6c0-0.1,0-0.1,0-0.2C78.4,28.5,78.4,28.6,78.3,28.6z"/>
	<path class="st5" d="M50.1,46.6c-5.9-5.9-11.9-11.9-17.8-17.8c-0.1-0.1-0.2-0.2-0.3-0.3c6-6,12-12.1,18-18.1c0,0,0.1,0,0.1,0
		c3.3,3.3,6.5,6.6,9.8,9.8c2.7,2.7,5.5,5.5,8.2,8.2c-3.2,3.2-6.4,6.4-9.6,9.6c-2.7,2.7-5.4,5.4-8,8C50.4,46.3,50.2,46.4,50.1,46.6z
		 M50.1,41c0.2-0.1,0.4-0.3,0.6-0.5c3.1-3.1,6.2-6.2,9.3-9.3c0.9-0.9,1.8-1.9,2.7-2.8c-0.1-0.1-0.1-0.3-0.3-0.4
		c-3.9-3.9-7.9-7.9-11.9-11.8c-0.1-0.1-0.3-0.2-0.5-0.3C50,16,49.9,16,49.8,16.1c-4,4-8,7.9-11.9,11.9c-0.1,0.1-0.2,0.3-0.3,0.4
		c1.8,1.8,3.6,3.6,5.4,5.4C45.3,36.3,47.7,38.7,50.1,41z"/>
	<path class="st5" d="M21.8,47.9c4.7,4.7,9.4,9.4,14.1,14.1c0.1,0.1,0.2,0.3,0.4,0.4c-4.8,4.8-9.6,9.6-14.4,14.4
		c-1.1-1.1-2.3-2.2-3.4-3.3c-3.7-3.7-7.4-7.4-11.1-11.1c2.5-2.5,4.9-5,7.4-7.4c2.2-2.2,4.4-4.4,6.6-6.6C21.4,48.2,21.6,48,21.8,47.9
		z M30.7,62.4c-0.2-0.2-0.3-0.4-0.5-0.6c-2.2-2.2-4.3-4.4-6.5-6.5c-0.6-0.6-1.3-1.2-1.9-1.8c-0.1,0.1-0.3,0.1-0.4,0.2
		c-2.9,2.9-5.7,5.7-8.6,8.6c0,0.2,0,0.4,0.1,0.5c0.5,0.5,1,1,1.5,1.6c2.4,2.4,4.8,4.7,7.1,7.1c0.2-0.1,0.4-0.2,0.6-0.3
		c2.7-2.7,5.5-5.5,8.2-8.2C30.6,62.7,30.6,62.5,30.7,62.4z"/>
	<path class="st5" d="M92.2,62.4c-4.8,4.8-9.6,9.6-14.3,14.4c-0.2-0.2-0.5-0.3-0.7-0.5c-4.4-4.4-8.9-8.9-13.3-13.3
		c-0.2-0.2-0.4-0.4-0.6-0.5c3.1-3.1,6.2-6.2,9.3-9.3c1.7-1.7,3.4-3.4,5.2-5.2c0.2,0.2,0.4,0.4,0.6,0.6c4.5,4.5,8.9,8.9,13.4,13.4
		c0.1,0.1,0.3,0.2,0.4,0.4C92.2,62.3,92.2,62.3,92.2,62.4z M77.9,71.2C77.9,71.2,77.9,71.2,77.9,71.2c0.2-0.1,0.4-0.2,0.6-0.4
		c2.6-2.6,5.3-5.3,7.9-7.9c0.2-0.2,0.3-0.4,0.4-0.5c-0.1-0.1-0.1-0.2-0.2-0.3c-2.8-2.8-5.6-5.6-8.4-8.4c-0.1-0.1-0.3-0.2-0.4-0.3
		c-1.9,1.9-3.9,3.8-5.8,5.7c-1.1,1.1-2.1,2.2-3.2,3.2c0.2,0.2,0.3,0.4,0.5,0.6c1.8,1.8,3.5,3.6,5.3,5.3c1,1,2.1,2,3.1,3.1
		C77.8,71.3,77.8,71.2,77.9,71.2z"/>
	<path class="st3" d="M92.2,62.4c0-0.1,0-0.1,0-0.2c0.1,0,0.2,0.1,0.3,0.1C92.4,62.4,92.3,62.4,92.2,62.4z"/>
	<path class="st3" d="M77.7,47.8c0-0.1,0-0.1,0-0.2C77.7,47.7,77.8,47.7,77.7,47.8C77.8,47.7,77.7,47.8,77.7,47.8z"/>
	<path class="st1" d="M50.1,15.9c0.2,0.1,0.4,0.2,0.5,0.3c4,3.9,7.9,7.9,11.9,11.8c0.1,0.1,0.2,0.3,0.3,0.4c-1.9,0-3.8,0-5.7,0
		c-0.6-0.3-1.3-0.6-1.8-1c-2.3-1.4-3.9-3.5-5.1-5.9C50.1,19.7,50.1,17.8,50.1,15.9z"/>
	<path class="st2" d="M50.1,41c-2.4-2.4-4.8-4.7-7.2-7.1c-1.8-1.8-3.6-3.6-5.4-5.4c1.9,0,3.7,0,5.6,0c0.4,0.2,0.8,0.4,1.2,0.6
		c2.7,1.4,4.4,3.7,5.7,6.3C50.1,37.3,50.1,39.1,50.1,41z"/>
	<path class="st0" d="M43.1,28.5c-1.9,0-3.7,0-5.6,0c0.1-0.1,0.2-0.3,0.3-0.4c4-4,8-7.9,11.9-11.9c0.1-0.1,0.2-0.2,0.3-0.2
		c0,1.9,0,3.8,0,5.7C48.6,24.8,46.3,27.1,43.1,28.5z"/>
	<path class="st0" d="M50.1,41c0-1.9,0-3.8,0-5.6c0.1-0.1,0.1-0.2,0.2-0.2c1.5-3,3.6-5.4,6.8-6.7c1.9,0,3.8,0,5.7,0
		c-0.9,0.9-1.8,1.9-2.7,2.8c-3.1,3.1-6.2,6.2-9.3,9.3C50.5,40.7,50.3,40.9,50.1,41z"/>
	<path class="st2" d="M21.7,71.3c-2.4-2.4-4.8-4.7-7.1-7.1c-0.5-0.5-1-1-1.5-1.6c-0.1-0.1-0.1-0.3-0.1-0.5c0.2,0.1,0.5,0.2,0.7,0.2
		c1,0,1.9,0,2.9,0c1.5,0.6,2.8,1.5,3.7,2.8c0.6,0.8,1.1,1.6,1.6,2.5C21.7,68.9,21.7,70.1,21.7,71.3z"/>
	<path class="st0" d="M16.4,62.4c-1,0-1.9,0-2.9,0c-0.2,0-0.5-0.1-0.7-0.2c2.9-2.9,5.7-5.7,8.6-8.6c0.1-0.1,0.3-0.1,0.4-0.2
		c0,1.2,0,2.4,0,3.6c-0.6,0.9-1.1,1.9-1.8,2.7C18.9,60.7,17.6,61.5,16.4,62.4z"/>
	<path class="st0" d="M21.7,71.3c0-1.2,0.1-2.5,0.1-3.7c1.2-2.3,2.7-4.3,5.2-5.3c1.2,0,2.5,0,3.7,0c-0.1,0.1-0.2,0.3-0.3,0.4
		c-2.7,2.7-5.5,5.5-8.2,8.2C22.1,71.1,21.8,71.2,21.7,71.3z"/>
	<path class="st1" d="M30.7,62.4c-1.2,0-2.5,0-3.7,0c-0.1-0.1-0.1-0.1-0.2-0.2c-2.3-1.1-4-2.8-5-5.2c0-1.2,0-2.4,0-3.6
		c0.6,0.6,1.3,1.2,1.9,1.8c2.2,2.2,4.4,4.4,6.5,6.5C30.4,62,30.6,62.2,30.7,62.4z"/>
	<path class="st2" d="M77.7,71.3c-1-1-2.1-2-3.1-3.1c-1.8-1.8-3.6-3.5-5.3-5.3c-0.2-0.2-0.3-0.4-0.5-0.6c1.2,0,2.5,0,3.7,0
		c0.2,0.1,0.5,0.2,0.7,0.3c2,1,3.5,2.6,4.4,4.7c0,0.1,0.2,0.1,0.3,0.2c0,1.2,0,2.4,0,3.6c0,0,0,0,0,0C77.8,71.2,77.8,71.3,77.7,71.3
		z"/>
	<path class="st1" d="M77.7,53.4c0.1,0.1,0.3,0.2,0.4,0.3c2.8,2.8,5.6,5.6,8.4,8.4c0.1,0.1,0.1,0.2,0.2,0.3c-1.2,0-2.5,0-3.7,0
		c-0.2-0.1-0.5-0.3-0.7-0.4c-2-1.1-3.6-2.7-4.5-4.9C77.8,55.8,77.7,54.6,77.7,53.4z"/>
	<path class="st0" d="M83,62.4c1.2,0,2.5,0,3.7,0c-0.1,0.2-0.3,0.4-0.4,0.5c-2.6,2.6-5.3,5.3-7.9,7.9c-0.2,0.2-0.4,0.3-0.5,0.4
		c0-1.2,0-2.4,0-3.6C79,65.2,80.5,63.3,83,62.4z"/>
	<path class="st0" d="M77.7,53.4c0,1.2,0.1,2.4,0.1,3.6c-0.1,0.2-0.3,0.4-0.4,0.6c-0.7,1-1.4,2.1-2.2,2.9c-0.8,0.8-1.8,1.3-2.7,1.9
		c-1.2,0-2.5,0-3.7,0c1.1-1.1,2.1-2.2,3.2-3.2C73.8,57.2,75.8,55.3,77.7,53.4z"/>
	<path class="st6" d="M77.7,71.3c0.1-0.1,0.1-0.1,0.2-0.2C77.8,71.2,77.8,71.3,77.7,71.3z"/>
</g>
</svg>
