<?xml version="1.0" encoding="utf-8"?>
<!-- Generator: Adobe Illustrator 22.1.0, SVG Export Plug-In . SVG Version: 6.00 Build 0)  -->
<svg version="1.1" id="NL_WHITE" xmlns="http://www.w3.org/2000/svg" xmlns:xlink="http://www.w3.org/1999/xlink" x="0px" y="0px"
	 viewBox="0 0 241.4 51.3" style="enable-background:new 0 0 241.4 51.3;" xml:space="preserve">
<style type="text/css">
	.st0{display:none;}
	.st1{fill:#C2C1C0;}
</style>
<g id="BG" class="st0">
</g>
<g id="NOLIMIT-White">
	<g>
		<path class="st1" d="M185.6,25.6c-1,0-2,0-2.9,0c-0.5,0-0.6,0-0.7-0.6c-0.1-1.2-0.4-2.3-0.9-3.4c-1.2-2.5-3.2-3.9-5.9-4.2
			c-1.5-0.2-3-0.1-4.5,0.4c-2.1,0.7-3.6,2.1-4.5,4.1c-0.4,0.9-0.7,2-0.8,3c0,0.1,0,0.2,0,0.3c0,0.2-0.1,0.3-0.3,0.3
			c-0.1,0-0.3,0-0.4,0c-1.9,0-3.8,0-5.7,0c-0.1,0-0.3,0-0.4,0c-0.2,0-0.3-0.1-0.3-0.3c-0.1-0.4-0.1-0.8-0.2-1.1
			c-0.3-1.3-0.8-2.5-1.5-3.6c-1.4-2-3.3-3-5.7-3.2c-1-0.1-2.1,0-3.1,0.2c-2.6,0.6-4.4,2.2-5.4,4.7c-0.4,0.9-0.6,1.7-0.7,2.7
			c-0.1,0.6-0.1,0.6-0.7,0.6c-1.8,0-3.6,0-5.4,0c-0.2,0-0.4,0-0.7,0c-0.4,0-0.4-0.1-0.4-0.5s0.1-0.8,0.2-1.2
			c0.5-2.6,1.3-5.1,2.8-7.3c2.2-3.3,5.3-5.3,9.1-6c1.2-0.2,2.4-0.3,3.7-0.3c3,0,5.7,1,8.1,2.9c1.1,0.9,2,1.9,2.9,3
			c0.2,0.2,0.3,0.4,0.5,0.6c0.1,0.1,0.2,0.1,0.3,0c0.2-0.2,0.3-0.4,0.5-0.6c0.9-1.1,1.9-2.1,3-3c2.4-1.8,5.1-2.8,8.1-2.8
			c1.9,0,3.7,0.2,5.5,0.8c3,1,5.3,2.9,7,5.6c1.4,2.1,2.2,4.5,2.7,7c0.1,0.5,0.1,1,0.2,1.5c0.1,0.6,0.1,0.6-0.5,0.6s-1.1,0-1.7,0
			C186.4,25.6,186,25.6,185.6,25.6z"/>
		<path class="st1" d="M45.8,27.5c1,0,2.1,0,3.1,0c0.4,0,0.4,0.1,0.4,0.4c0,0.6,0,1.1,0,1.7c0.1,1.3,0.2,2.5,0.7,3.7
			c0.9,2.1,2.2,3.8,4.2,4.9c1.2,0.7,2.6,1.1,4,1.2c1.7,0.2,3.3,0.1,4.9-0.3c3.8-0.9,6.3-3.3,7.4-7.1c0.2-0.8,0.3-1.4,0.3-2.3
			c0-0.6,0-1.3,0-1.9c0-0.3,0.1-0.4,0.3-0.4c2.2,0,4.3,0,6.5,0c0.3,0,0.3,0.1,0.3,0.4c0.1,2.1,0,4.2-0.6,6.2
			c-0.6,2.3-1.6,4.5-3.1,6.4C72.5,43,70,44.7,67,45.6c-2,0.6-4,0.9-6,1c-2.1,0.1-4.2-0.1-6.3-0.6c-5.2-1.3-8.8-4.5-10.9-9.4
			C43,34.8,42.5,33,42.3,31c-0.1-1.1,0-2.2,0-3.3c0-0.2,0.1-0.3,0.3-0.3c0.5,0,1,0,1.5,0C44.6,27.5,45.2,27.5,45.8,27.5L45.8,27.5z"
			/>
		<path class="st1" d="M71,25.5c-0.1-0.2-0.2-0.4-0.2-0.6c-0.7-3.3-2.6-5.5-5.7-6.7c-1.3-0.5-2.6-0.7-3.9-0.8
			c-1.8-0.1-3.5,0-5.3,0.5c-2.3,0.7-4.1,1.9-5.3,3.9c-0.6,1-1,2.2-1.2,3.3c-0.1,0.4-0.1,0.4-0.4,0.4c-2.1,0-4.2,0-6.3,0
			c-0.4,0-0.5-0.1-0.4-0.4c0.1-0.5,0.2-1,0.3-1.5c0.5-2.5,1.5-4.8,3-6.8c2.1-2.9,4.9-4.7,8.3-5.7c1.7-0.5,3.3-0.7,5.1-0.8
			c2.3-0.1,4.6,0.1,6.9,0.6c3,0.8,5.6,2.2,7.7,4.5c1.8,1.9,3,4.1,3.8,6.6c0.3,0.8,0.5,1.6,0.6,2.5c0,0.2,0.1,0.5,0.1,0.7
			c0,0.3-0.1,0.4-0.4,0.4c-0.9,0-1.7,0-2.6,0c-1.1,0-2.3,0-3.4,0C71.4,25.6,71.2,25.5,71,25.5z"/>
		<path class="st1" d="M13.6,10.4c2,0,3.9,0,5.9,0c1.3,0,2.6,0.2,3.9,0.5c2.3,0.6,4.4,1.6,6.3,3.1c2.7,2.1,4.3,4.9,5,8.3
			c0.1,0.7,0.2,1.5,0.3,2.3c0,0.2,0,0.4,0,0.6c0,0.4,0,0.5-0.4,0.5c-0.1,0-0.2,0-0.2,0c-1.9,0-3.8,0-5.7,0c-0.1,0-0.3,0-0.4,0
			c-0.2,0-0.3-0.1-0.3-0.3c0-0.5-0.1-1.1-0.2-1.6c-0.2-1.2-0.7-2.4-1.4-3.4c-1.2-1.5-2.7-2.4-4.6-2.7c-0.6-0.1-1.3-0.2-1.9-0.2
			c-2,0-4,0-6,0c-0.1,0-0.3,0-0.4,0c-0.2,0-0.2,0.1-0.2,0.3c0,0.2,0,0.4,0,0.7c0,2.2,0,4.4,0,6.5c0,0.7,0,0.7-0.7,0.7
			c-1.9,0-3.8,0-5.7,0c-0.2,0-0.3,0-0.5,0c-0.1,0-0.2-0.1-0.2-0.2c0-0.2,0-0.4,0-0.6c0-4.5,0-9,0-13.6c0-0.9,0-0.8,0.9-0.8
			C9.1,10.4,11.3,10.4,13.6,10.4z"/>
		<path class="st1" d="M97.1,46.6c-3.3,0-6.6,0-10,0c-0.2,0-0.5,0-0.7,0s-0.3-0.1-0.3-0.2c0-0.2,0-0.4,0-0.6c0-5.8,0-11.6,0-17.4
			c0-1-0.1-0.9,0.9-0.9c1.8,0,3.5,0,5.3,0c0.2,0,0.4,0,0.6,0s0.3,0.1,0.3,0.2c0,0.3,0,0.5,0,0.8c0,3.3,0,6.6,0,10c0,1-0.1,1,1,1
			c4.4,0,8.8,0,13.1,0c1,0,0.9-0.1,0.9,0.9c0,1.8,0,3.5,0,5.3c0,0.2,0,0.4,0,0.7c0,0.2-0.1,0.2-0.3,0.2c-0.2,0-0.5,0-0.7,0
			C103.8,46.6,100.5,46.6,97.1,46.6z"/>
		<path class="st1" d="M225.1,10.2c3.6,0,7.2,0,10.9,0c0.2,0,0.5,0,0.7,0s0.3,0.1,0.3,0.2c0,0.2,0,0.3,0,0.5c0,1.9,0,3.8,0,5.6
			c0,0.2,0,0.3,0,0.5c0,0.1-0.1,0.2-0.3,0.3c-0.2,0-0.4,0-0.7,0c-2.2,0-4.4,0-6.5,0c-0.7,0-0.7,0-0.7,0.7c0,2.2,0,4.3,0,6.5
			c0,0.2,0,0.4,0,0.7c0,0.3-0.1,0.4-0.4,0.4c-1.4,0-2.7,0-4.1,0c-0.8,0-1.5,0-2.3,0c-0.2,0-0.3-0.1-0.3-0.3c0-0.2,0-0.5,0-0.7
			c0-2,0-4,0-6c0-0.2,0-0.4,0-0.6c0-0.5,0-0.6-0.6-0.6c-2.2,0-4.5,0-6.7,0c-1.4,0-1.2,0.2-1.2-1.2c0-1.7,0-3.4,0-5.1
			c0-0.2,0-0.4,0-0.7c0-0.2,0.1-0.2,0.3-0.3c0.2,0,0.5,0,0.7,0C217.8,10.2,221.5,10.2,225.1,10.2z"/>
		<path class="st1" d="M197.9,37.1c0-3,0-5.9,0-8.9c0-0.7-0.1-0.7,0.7-0.7c1.9,0,3.8,0,5.7,0c0.1,0,0.3,0,0.4,0
			c0.2,0,0.3,0.1,0.3,0.3c0,0.2,0,0.3,0,0.5c0,5.9,0,11.8,0,17.6V46c0,0.6,0,0.6-0.6,0.6c-2,0-3.9,0-5.9,0c-0.1,0-0.2,0-0.2,0
			c-0.3,0-0.4-0.1-0.4-0.4c0-0.2,0-0.4,0-0.7C197.9,42.7,197.9,39.9,197.9,37.1L197.9,37.1z"/>
		<path class="st1" d="M182,37c0-2.9,0-5.9,0-8.8c0-0.8-0.1-0.7,0.8-0.7c1.9,0,3.7,0,5.6,0c0.2,0,0.4,0,0.6,0c0.1,0,0.2,0.1,0.2,0.2
			c0,0.2,0,0.5,0,0.7c0,4.7,0,9.3,0,14c0,1.2,0,2.3,0,3.5c0,0.1,0,0.3,0,0.4c0,0.3-0.1,0.3-0.4,0.3c-0.1,0-0.2,0-0.3,0
			c-1.9,0-3.8,0-5.7,0c-0.2,0-0.3,0-0.5,0c-0.1,0-0.2-0.1-0.2-0.2c0-0.2,0-0.5,0-0.7C182,42.8,182,39.9,182,37L182,37z"/>
		<path class="st1" d="M165.4,37.1c0,2.9,0,5.8,0,8.7c0,0.9,0,0.8-0.8,0.8c-1.9,0-3.8,0-5.6,0c-0.2,0-0.3,0-0.5,0
			c-0.1,0-0.2-0.1-0.2-0.2c0-0.2,0-0.3,0-0.5c0-5.9,0-11.8,0-17.6c0-0.8-0.1-0.8,0.8-0.8c1.9,0,3.8,0,5.6,0c0.2,0,0.3,0,0.5,0
			c0.1,0,0.2,0.1,0.2,0.2c0,0.2,0,0.5,0,0.7C165.4,31.3,165.4,34.2,165.4,37.1L165.4,37.1z"/>
		<path class="st1" d="M117.5,37.1c0-2.9,0-5.7,0-8.6c0-0.1,0-0.3,0-0.4c0-0.6,0-0.6,0.6-0.6c2,0,3.9,0,5.9,0c0.1,0,0.2,0,0.3,0
			c0.2,0,0.3,0.1,0.3,0.3c0,0.1,0,0.3,0,0.4c0,5.9,0,11.8,0,17.7c0,0.1,0,0.2,0,0.2c0,0.4-0.1,0.5-0.5,0.5c-2.1,0-4.1,0-6.2,0h-0.1
			c-0.3,0-0.4-0.1-0.4-0.4c0-0.2,0-0.4,0-0.7C117.5,42.7,117.5,39.9,117.5,37.1L117.5,37.1z"/>
		<path class="st1" d="M13,46.3c-0.2,0.1-0.4,0.1-0.6,0.1c-2,0-3.9,0-5.9,0c-0.1,0-0.2,0-0.3,0c-0.2,0-0.3-0.1-0.3-0.3s0-0.4,0-0.6
			c0-5.6,0-11.3,0-16.9c0-0.2,0-0.5,0-0.7c0-0.3,0.1-0.4,0.4-0.4c0.1,0,0.3,0,0.4,0c1.8,0,3.6,0,5.5,0c0.2,0,0.4,0,0.6,0
			c0.2,0,0.3,0.1,0.3,0.3c0,0.2,0,0.4,0,0.7c0,5.7,0,11.4,0,17.2C13.1,45.8,13.1,46,13,46.3z"/>
		<path class="st1" d="M35,37.2c0,2.8,0,5.6,0,8.4c0,0.2,0,0.4,0,0.6c0,0.4-0.1,0.5-0.5,0.5c-2.1,0-4.1,0-6.2,0c-0.1,0-0.2,0-0.2,0
			c-0.1,0-0.2-0.1-0.2-0.2c0-0.2,0-0.4,0-0.6c0-5.7,0-11.5,0-17.2c0-0.1,0-0.1,0-0.2c0-0.7,0-0.7,0.7-0.7c1.9,0,3.8,0,5.7,0
			c0.1,0,0.2,0,0.3,0c0.3,0,0.4,0.1,0.4,0.4c0,0.2,0,0.5,0,0.7C35,31.7,35,34.4,35,37.2z"/>
		<path class="st1" d="M134.5,37.1c0-2.9,0-5.7,0-8.6c0-0.2,0-0.5,0-0.7s0.1-0.3,0.2-0.3c0.1,0,0.3,0,0.4,0c1.9,0,3.8,0,5.7,0
			c0.1,0,0.2,0,0.3,0c0.3,0,0.3,0.1,0.4,0.3c0,0.2,0,0.4,0,0.6c0,5.8,0,11.7,0,17.5c0,0.2,0,0.3,0,0.5s-0.1,0.2-0.3,0.3
			c-0.1,0-0.2,0-0.3,0c-2,0-3.9,0-5.9,0c-0.1,0-0.1,0-0.2,0c-0.4,0-0.4-0.1-0.4-0.4c0-0.2,0-0.4,0-0.7
			C134.5,42.7,134.5,39.9,134.5,37.1L134.5,37.1z"/>
		<path class="st1" d="M228.8,37.2c0,2.9,0,5.8,0,8.7c0,0.9,0,0.8-0.8,0.8c-1.9,0-3.7,0-5.6,0c-0.2,0-0.3,0-0.5,0s-0.2-0.1-0.3-0.3
			c0-0.2,0-0.4,0-0.6c0-5.8,0-11.5,0-17.3c0-1.1-0.1-1,1-1c1.7,0,3.4,0,5.1,0c0.2,0,0.4,0,0.7,0c0.2,0,0.2,0.1,0.2,0.3
			c0,0.2,0,0.5,0,0.7C228.8,31.4,228.8,34.3,228.8,37.2L228.8,37.2z"/>
		<path class="st1" d="M205,17.9c0,2.2,0,4.4,0,6.6c0,0.2,0,0.4,0,0.6c0,0.4-0.1,0.5-0.5,0.5c-2.1,0-4.1,0-6.2,0
			c-0.4,0-0.4-0.1-0.4-0.4c0-0.2,0-0.3,0-0.5c0-4.5,0-9,0-13.5c0-0.2,0-0.4,0-0.6c0-0.3,0.1-0.4,0.4-0.4h0.1c2.1,0,4.1,0,6.2,0
			c0.4,0,0.4,0.1,0.4,0.4c0,0.2,0,0.4,0,0.6C205,13.4,205,15.7,205,17.9z"/>
		<path class="st1" d="M117.5,17.9c0-2.3,0-4.6,0-6.9c0-0.7,0-0.7,0.7-0.7c1.9,0,3.8,0,5.7,0c0.2,0,0.3,0,0.5,0
			c0.1,0,0.2,0.1,0.2,0.2c0,0.2,0,0.4,0,0.6c0,4.6,0,9.1,0,13.7c0,0.8,0,0.8-0.8,0.8c-1.9,0-3.7,0-5.6,0c-0.2,0-0.4,0-0.6,0
			c-0.1,0-0.2-0.1-0.2-0.2c0-0.2,0-0.4,0-0.7C117.5,22.4,117.5,20.1,117.5,17.9z"/>
		<path class="st1" d="M93.2,17.9c0,2.3,0,4.6,0,6.9c0,0.7,0,0.7-0.7,0.7c-1.9,0-3.8,0-5.7,0c-0.1,0-0.3,0-0.4,0
			c-0.2,0-0.2-0.1-0.2-0.3c0-0.2,0-0.4,0-0.7c0-4.5,0-9,0-13.5c0-1-0.1-0.9,0.9-0.9c1.8,0,3.6,0,5.4,0c0.2,0,0.3,0,0.5,0
			s0.3,0.1,0.3,0.3s0,0.4,0,0.7C93.2,13.4,93.2,15.7,93.2,17.9z"/>
	</g>
</g>
</svg>
