<?xml version="1.0" encoding="utf-8"?>
<!-- Generator: Adobe Illustrator 25.1.0, SVG Export Plug-In . SVG Version: 6.00 Build 0)  -->
<svg version="1.1" id="Layer_1" xmlns="http://www.w3.org/2000/svg" xmlns:xlink="http://www.w3.org/1999/xlink" x="0px" y="0px"
	 viewBox="0 0 121.5 119.9" style="enable-background:new 0 0 121.5 119.9;" xml:space="preserve">
<style type="text/css">
	.st0{fill:#C2C1C0;}
</style>
<g>
	<g>
		<path class="st0" d="M73.6,76.4c-1.7,1.4-2,4-0.5,5.8c1.4,1.7,4,2,5.8,0.5c6.8-5.7,10.8-14.1,10.8-23c0-16.5-13.4-29.9-29.9-29.9
			S29.8,43.3,29.8,59.8c0,9.1,4.1,17.6,11.2,23.3c1.8,1.4,4.3,1.1,5.8-0.6c1.4-1.8,1.1-4.3-0.6-5.8C30.2,63.9,39.2,38,59.7,38
			C80,38,89.1,63.5,73.6,76.4z"/>
		<path class="st0" d="M86.1,96.5c11.4-8.2,18.8-21.6,18.8-36.6c0-2.3-1.8-4.1-4.1-4.1s-4.1,1.8-4.1,4.1c0,12.4-6.1,23.3-15.3,30
			c-1.8,1.3-2.3,3.9-0.9,5.7C81.7,97.4,84.2,97.8,86.1,96.5z"/>
		<path class="st0" d="M42.6,2.5c-2.2,0.6-3.4,2.9-2.8,5.1s2.9,3.4,5.1,2.8c32.9-9.8,65.9,14.9,65.9,49.1c0,2.3,1.8,4.1,4.1,4.1
			c2.3,0,4.1-1.8,4.1-4.1C119.1,19.9,80.8-8.9,42.6,2.5z"/>
		<path class="st0" d="M88.2,24.9c-29.3-23.9-73.6-3-73.6,35c0,24.9,20.2,45.1,45.1,45.1c2.3,0,4.1-1.8,4.1-4.1
			c0-2.3-1.8-4.1-4.1-4.1c-20.3,0-36.9-16.6-36.9-36.9c0-31.1,36.3-48.1,60.2-28.6c1.8,1.4,4.3,1.2,5.8-0.6
			C90.2,28.9,90,26.3,88.2,24.9z"/>
		<path class="st0" d="M4.1,56.1c-2.3,0-4.1,1.8-4.1,4.1c0,32.9,26.8,59.7,59.7,59.7c14,0,27.6-4.9,38.3-13.9c1.7-1.5,2-4,0.5-5.8
			s-4-2-5.8-0.5c-9.2,7.7-21,12-33.1,12c-28.4,0-51.5-23.1-51.5-51.5C8.2,57.9,6.4,56.1,4.1,56.1z"/>
	</g>
</g>
</svg>
