<?xml version="1.0" encoding="utf-8"?>
<!-- Generator: Adobe Illustrator 22.1.0, SVG Export Plug-In . SVG Version: 6.00 Build 0)  -->
<svg version="1.1" id="katman_1" xmlns="http://www.w3.org/2000/svg" xmlns:xlink="http://www.w3.org/1999/xlink" x="0px" y="0px"
	 viewBox="0 0 111.2 56.8" style="enable-background:new 0 0 111.2 56.8;" xml:space="preserve">
<style type="text/css">
	.st0{fill:#C2C1C0;}
</style>
<g>
	<path class="st0" d="M107.9,23.5c0,10.7,0,21.2,0,31.8c-0.2,0-0.3,0.1-0.5,0.1c-13,0-26,0.2-39-0.1c-7.3-0.2-14.1-2.4-19.9-7.2
		c-9.1-7.4-12-19.5-7.1-30.1c0.2-0.4,0.4-0.7,0.5-1.1c2.8,0,5.6-0.1,8.3,0c2,0.1,3.8,1.1,4.7,3.1c0.3,0.8,0.5,1.9,0.2,2.6
		c-3.7,8-0.6,16,8.2,19.7c3.1,1.3,6.3,1.4,9.5,1.4c2.2,0,4.4,0,6.6,0c4.6,0,9.3,0,14,0c0-3.8,0-7.2,0-10.7c-9,0-17.9,0-27.2,0
		c2.8-3.4,5.5-6.5,8.1-9.6C85.4,23.5,96.6,23.5,107.9,23.5z"/>
	<path class="st0" d="M3,14.4c3.2-4.1,6.3-7.9,9.4-11.8c1.2,0,2.3,0,3.5,0c11,0,22.1,0,33.1,0c5.2,0,10,1.3,14.5,3.9
		c6,3.4,9,8.6,9.1,15.6c-3.6,4.3-7.2,8.6-11,13.2c1.7,0,3.3,0,4.8,0c0,0.1,0.1,0.2,0.1,0.4c-1.7,1-3.3,2-5,3
		c-4.1-2.1-6.4-7.6-5.1-11.8c0.1-0.4,0.4-0.7,0.5-1.1c1.8-3.2,1-7.1-2-9.3c-1.7-1.3-3.7-2-5.9-2c-14.8,0-29.7,0-44.5,0
		C4.2,14.4,3.7,14.4,3,14.4z"/>
	<path class="st0" d="M36.6,29.7c0.2,4.1,1.4,7.8,3.2,11.6c-7.9,0-15.6,0-23.4,0c0,4.7,0,9.3,0,14.1c-4.9,0-9.8,0-14.7,0
		c0-8.5,0-17,0-25.6C13.3,29.7,24.9,29.7,36.6,29.7z"/>
	<path class="st0" d="M99.2,14.4c-8.5,0-17,0-25.5,0C71.7,9.3,68,5.9,63.2,3.2c1.6-0.2,3.3-0.6,4.9-0.6c13.1,0,26.2,0,39.3,0
		c0.1,0,0.3,0,0.6,0C105.1,6.6,102.2,10.5,99.2,14.4z"/>
</g>
</svg>
