<?xml version="1.0" encoding="utf-8"?>
<!-- Generator: Adobe Illustrator 22.1.0, SVG Export Plug-In . SVG Version: 6.00 Build 0)  -->
<svg version="1.1" id="Слой_1" xmlns="http://www.w3.org/2000/svg" xmlns:xlink="http://www.w3.org/1999/xlink" x="0px" y="0px"
	 viewBox="0 0 313.6 120.4" style="enable-background:new 0 0 313.6 120.4;" xml:space="preserve">
<style type="text/css">
	.st0{fill:#C2C1C0;}
</style>
<g>
	<path class="st0" d="M194.2,59c-0.7-1.1-1.5-1.9-2.6-2.6c-1.1-0.6-2.4-0.9-3.8-0.9c-1.5,0-2.8,0.3-3.8,0.9
		c-1.1,0.6-1.9,1.4-2.6,2.5c-0.6,1.1-1.1,2.2-1.4,3.6c-0.3,1.3-0.4,2.7-0.4,4.3c0,1.5,0.1,2.9,0.4,4.2c0.3,1.3,0.8,2.5,1.4,3.5
		c0.7,1,1.5,1.8,2.6,2.5c1.1,0.6,2.4,0.9,3.8,0.9c1.5,0,2.8-0.3,3.9-0.9c1.1-0.6,1.9-1.4,2.6-2.4c0.6-1,1.1-2.2,1.4-3.5
		c0.3-1.3,0.4-2.7,0.4-4.2c0-1.4-0.2-2.8-0.5-4.1C195.3,61.3,194.8,60.1,194.2,59z"/>
	<path class="st0" d="M108.7,68.7c-0.9,0.1-1.7,0.2-2.3,0.3c-1.8,0.4-3.2,0.9-4.2,1.6s-1.5,1.9-1.5,3.5c0,1.7,0.5,2.8,1.6,3.5
		s2.5,1,4.3,1c1.7,0,3.2-0.3,4.2-0.9c1.1-0.6,1.9-1.3,2.4-2.2c0.5-0.9,0.8-1.7,0.9-2.6c0.1-0.8,0.2-1.6,0.2-2.4V67
		c-0.5,0.4-1.2,0.8-2.1,1C111.4,68.3,110.2,68.5,108.7,68.7z"/>
	<path class="st0" d="M294.9,19.4H14.5c-6,0-10.8,4.8-10.8,10.8v73.5c0,6,4.8,10.8,10.8,10.8h284.7c6,0,10.8-4.8,10.8-10.8V30.2V6.4
		L294.9,19.4z M70,73.8c-0.7,2.2-1.6,4.1-2.9,5.7c-1.3,1.7-2.9,3-4.8,4c-1.9,1-4.1,1.4-6.6,1.4c-2.1,0-4.1-0.4-5.9-1.3
		c-1.9-0.9-3.4-2.2-4.5-3.9h-0.1v16.5h-9.5v-47h9.1v4.4h0.1c1.1-1.8,2.6-3.1,4.4-4c1.8-0.9,3.8-1.3,6-1.3c2.6,0,5,0.5,7,1.5
		s3.6,2.3,4.9,4.1c1.3,1.7,2.3,3.7,2.9,6s1,4.7,1,7.2C71,69.4,70.7,71.7,70,73.8z M85.8,84h-9.5V36h9.5V84z M115.4,84
		c-0.4-1.3-0.6-2.4-0.7-3.4c-1.4,1.5-3.2,2.6-5.2,3.3c-2,0.7-4.2,1-6.5,1c-3.5,0-6.3-0.9-8.5-2.7c-2.2-1.8-3.3-4.4-3.3-7.8
		c0-1.9,0.3-3.5,1-4.8c0.6-1.3,1.5-2.3,2.6-3.1c1.1-0.8,2.3-1.3,3.7-1.7c1.3-0.4,2.9-0.7,4.6-0.9c0.9-0.1,1.9-0.3,3.1-0.4
		c2.9-0.4,5-0.8,6.3-1.3s1.9-1.5,1.9-2.9c0-1.9-0.5-3.1-1.6-3.8c-1.1-0.6-2.6-0.9-4.6-0.9c-1.9,0-3.4,0.4-4.4,1.2
		c-1.1,0.8-1.7,2.2-1.9,4h-9.5c0.1-2.2,0.7-4,1.6-5.5s2.2-2.7,3.7-3.6c1.5-0.9,3.2-1.6,5.1-1.9c1.9-0.4,3.8-0.6,5.9-0.6
		c1.9,0,3.8,0.1,5.5,0.4c1.8,0.3,3.4,0.8,4.8,1.5c1.5,0.7,2.6,1.7,3.5,3.1c0.9,1.3,1.3,3,1.3,4.9v18.1c0,1.7,0.1,3.3,0.3,4.7
		c0.2,1.4,0.5,2.4,0.9,3.1H115.4z M149.7,55.7h-7v17.2c0,1.6,0.3,2.7,0.8,3.2s1.6,0.8,3.2,0.8c1.1,0,2.1-0.1,3-0.3v7.5
		c-1.3,0.2-3.2,0.3-5.6,0.3c-1.6,0-3.1-0.1-4.3-0.3c-1.3-0.2-2.4-0.6-3.4-1.2s-1.8-1.5-2.4-2.6c-0.6-1.1-0.8-2.5-0.8-4.1V55.7h-5.8
		v-6.4h5.8V38.9h9.5v10.4h7V55.7z M163.4,84h-9.5V49.3h9.5V84z M163.4,43.9h-9.5V36h9.5V43.9z M204.7,73.8c-0.6,2.2-1.6,4.1-2.9,5.7
		c-1.3,1.7-2.9,3-4.8,4c-1.9,1-4.1,1.4-6.6,1.4c-2.1,0-4.1-0.4-5.9-1.3c-1.9-0.9-3.4-2.2-4.5-3.9h-0.1v16.5h-9.5v-47h9.1v4.4h0.1
		c1.1-1.8,2.6-3.1,4.4-4c1.8-0.9,3.8-1.3,6-1.3c2.6,0,5,0.5,7,1.5s3.6,2.3,4.9,4.1c1.3,1.7,2.3,3.7,2.9,6c0.6,2.3,1,4.7,1,7.2
		C205.6,69.4,205.3,71.7,204.7,73.8z M243.3,84h-9.1v-4.8H234c-1.2,1.9-2.7,3.3-4.6,4.3c-1.9,1-3.9,1.5-6,1.5c-2.5,0-4.5-0.3-6.2-1
		s-3-1.6-3.9-2.9c-1-1.3-1.6-2.7-2-4.4c-0.4-1.7-0.6-3.7-0.6-6V49.3h9.5v19.6c0,2.9,0.5,5.1,1.4,6.5c1,1.4,2.5,2.1,4.7,2.1
		c2.6,0,4.5-0.8,5.6-2.3c1.2-1.5,1.7-4.1,1.7-7.6V49.3h9.5V84H243.3z M279.1,78.5c-0.9,1.6-2.1,2.8-3.6,3.8c-1.5,0.9-3.2,1.6-5,2.1
		c-1.9,0.4-3.8,0.6-5.9,0.6c-2.2,0-4.2-0.2-6.1-0.6s-3.6-1.1-5.1-2.1s-2.7-2.2-3.7-3.8c-0.9-1.6-1.4-3.5-1.5-5.7h9.1
		c0,2,0.8,3.4,2.2,4.4c1.4,1,3.1,1.4,5.2,1.4c1.7,0,3.1-0.4,4.4-1.1s1.9-1.8,1.9-3.4c0-1.3-0.8-2.4-2.4-3.1s-4.4-1.5-8.4-2.3
		c-1.6-0.4-3-0.7-4.3-1.2c-1.2-0.4-2.4-1-3.4-1.7s-1.8-1.6-2.5-2.6c-0.6-1.1-0.9-2.3-0.9-3.8c0-2.1,0.4-3.9,1.2-5.4s2-2.6,3.4-3.5
		c1.4-0.8,3-1.4,4.8-1.8c1.8-0.4,3.7-0.5,5.7-0.5s3.9,0.2,5.6,0.6c1.7,0.4,3.3,1,4.7,1.8c1.4,0.9,2.6,2,3.4,3.4
		c0.9,1.4,1.4,3.2,1.6,5.2h-9.1c-0.1-1.7-0.8-3-1.9-3.7s-2.7-1-4.6-1c-1.5,0-2.7,0.2-3.8,0.7c-1,0.4-1.5,1.3-1.5,2.6s0.7,2.2,2,2.8
		s3.4,1.2,6.2,1.7c1.3,0.3,2.1,0.5,2.6,0.6c1.6,0.4,3,0.8,4.3,1.2c1.3,0.5,2.4,1.1,3.4,1.8c1,0.7,1.8,1.6,2.4,2.8
		c0.6,1.1,0.9,2.4,0.9,4C280.4,75.1,279.9,77,279.1,78.5z"/>
	<path class="st0" d="M59.5,59c-0.7-1.1-1.5-1.9-2.6-2.6c-1.1-0.6-2.4-0.9-3.8-0.9c-1.5,0-2.8,0.3-3.8,0.9c-1.1,0.6-1.9,1.4-2.6,2.5
		c-0.7,1.1-1.1,2.2-1.4,3.6c-0.3,1.3-0.4,2.7-0.4,4.3c0,1.5,0.1,2.9,0.4,4.2c0.3,1.3,0.8,2.5,1.4,3.5c0.7,1,1.5,1.8,2.6,2.5
		c1.1,0.6,2.4,0.9,3.8,0.9c1.5,0,2.8-0.3,3.9-0.9c1.1-0.6,1.9-1.4,2.6-2.4c0.6-1,1.1-2.2,1.4-3.5c0.3-1.3,0.4-2.7,0.4-4.2
		c0-1.4-0.2-2.8-0.5-4.1C60.7,61.3,60.2,60.1,59.5,59z"/>
</g>
</svg>
