<svg xmlns="http://www.w3.org/2000/svg" viewBox="0 0 80.37 30.92"><defs><style>.cls-1{fill:#ebebeb;}.cls-2{fill:#0086ca;}.cls-3{fill:#fff;}.cls-4{fill:#231f20;}.cls-5{fill:#ea2629;}</style></defs><title>playngo</title><g id="Layer_2" data-name="Layer 2"><g id="Layer_1-2" data-name="Layer 1"><path class="cls-1" d="M14.28,26.71H12.63v4.14h-.68V26.71H10.3V26.1h4Z"/><path class="cls-1" d="M19.11,30.86h-.68V28.78H15.77v2.07h-.68V26.1h.68v2.07h2.66V26.1h.68Z"/><path class="cls-1" d="M23.12,26.71h-2v1.44H23v.61H21.1v1.48h2.08v.61H20.42V26.1h2.7Z"/><path class="cls-1" d="M30.36,30.53a4.16,4.16,0,0,1-1.81.39A2.4,2.4,0,0,1,26,28.51,2.46,2.46,0,0,1,28.57,26a3.86,3.86,0,0,1,1.69.4v.69a3.53,3.53,0,0,0-1.71-.47,1.81,1.81,0,1,0,.09,3.62,3.34,3.34,0,0,0,1-.19v-1h-.91v-.61h1.6Z"/><path class="cls-1" d="M35.69,30.86H35l-.63-1.4h-2l-.6,1.4H31l2-4.78h.48Zm-3.09-2h1.48l-.77-1.72Z"/><path class="cls-1" d="M40.87,30.86h-.68v-3.7h0L38.7,29h-.11l-1.46-1.84h0v3.7h-.68V26.1h.64l1.58,2,1.58-2h.63Z"/><path class="cls-1" d="M42.85,30.86h-.68V26.1h.68Z"/><path class="cls-1" d="M48.54,30.86H48L44.78,27.2v3.66h-.64V26.1h.54l3.22,3.68V26.1h.64Z"/><path class="cls-1" d="M54,30.53a4.16,4.16,0,0,1-1.81.39,2.4,2.4,0,0,1-2.53-2.41A2.46,2.46,0,0,1,52.17,26a3.86,3.86,0,0,1,1.69.4v.69a3.53,3.53,0,0,0-1.71-.47,1.81,1.81,0,1,0,.09,3.62,3.34,3.34,0,0,0,1-.19v-1h-.91v-.61H54Z"/><path class="cls-1" d="M58.69,26.1a1.33,1.33,0,0,1,1.51,1.37c0,.75-.5,1.33-1.6,1.33h-.71v2.06h-.68V26.1Zm-.8,2.08h.77a.73.73,0,0,0,.84-.75c0-.35-.19-.73-.81-.73h-.8Z"/><path class="cls-1" d="M62.19,26.1c1,0,1.56.51,1.56,1.33A1.19,1.19,0,0,1,63,28.6,3.89,3.89,0,0,1,64,29.91c.2.33.32.49.65.94h-.82l-.63-1c-.63-1-.91-1.09-1.26-1.09h-.29v2.06H61V26.1Zm-.52,2.08h.44c.73,0,.94-.38.93-.77s-.27-.72-.93-.72h-.44Z"/><path class="cls-1" d="M67.51,26A2.44,2.44,0,1,1,65,28.48,2.42,2.42,0,0,1,67.51,26Zm0,4.25a1.81,1.81,0,1,0-1.85-1.81A1.78,1.78,0,0,0,67.51,30.29Z"/><path class="cls-2" d="M79.72,6.19A3.15,3.15,0,0,0,77.21,5h-2a6.56,6.56,0,0,1-.3,2.26L72.2,16.11a8,8,0,0,1-.49,1.18H74.6a4.7,4.7,0,0,0,4.3-3.41l1.34-4.83A3.25,3.25,0,0,0,79.72,6.19Z"/><path class="cls-2" d="M39.11,5H5.67a4.57,4.57,0,0,0-4.21,3.3L.12,13.37a3.19,3.19,0,0,0,.51,2.81A3.06,3.06,0,0,0,3.1,17.3H40a6.41,6.41,0,0,1,.29-2.23L43.13,6A7.53,7.53,0,0,1,43.5,5ZM8.58,12.65H6.74l-.58,1.83H4.34l2.3-7.33H10.3A1.3,1.3,0,0,1,11.56,9L11,10.82A2.73,2.73,0,0,1,8.58,12.65Zm2.07,1.83,2.3-7.33h1.83L13,12.67h1.83l.58-1.85h1.83l-1.15,3.66ZM24.17,9l-1.73,5.49H20.61l.58-1.83H19.36l-.57,1.83H17L18.68,9a2.73,2.73,0,0,1,2.41-1.83h1.83A1.3,1.3,0,0,1,24.17,9ZM30,10.82a2.73,2.73,0,0,1-2.41,1.83L27,14.48H25.19l.58-1.83a1.3,1.3,0,0,1-1.26-1.83l1.15-3.66h1.83l-1.16,3.68h1.83l1.16-3.68h1.83Zm2.23-3.46h2.41l-.72,2.13H31.52Zm6.87,3.81-1,3.32H36.31l1-3.34H35.45l-1,3.34H32.65l1-3.32A2.73,2.73,0,0,1,36,9.33h1.83A1.3,1.3,0,0,1,39.11,11.16Zm-19.18-.32h1.83L22.35,9H20.52Zm-12.61,0H9.14L9.73,9H7.9Z"/><path class="cls-3" d="M22.45,14.48,24.17,9a1.3,1.3,0,0,0-1.26-1.83H21.08A2.73,2.73,0,0,0,18.68,9L17,14.48h1.83l.57-1.83h1.83l-.58,1.83Zm-.69-3.64H19.93L20.52,9h1.83Z"/><path class="cls-3" d="M11,10.82,11.56,9A1.3,1.3,0,0,0,10.3,7.16H6.64l-2.3,7.33H6.17l.58-1.83H8.58A2.73,2.73,0,0,0,11,10.82m-1.84,0H7.31L7.9,9H9.73Z"/><polygon class="cls-3" points="10.64 14.48 12.95 7.16 14.78 7.16 13.04 12.67 14.88 12.67 15.46 10.82 17.29 10.82 16.14 14.48 10.64 14.48"/><path class="cls-3" d="M27.6,12.65,27,14.48H25.19l.58-1.83a1.3,1.3,0,0,1-1.26-1.83l1.15-3.66h1.83l-1.16,3.68h1.83l1.16-3.68h1.83L30,10.82a2.73,2.73,0,0,1-2.41,1.83"/><path class="cls-3" d="M36.31,14.48l1-3.34H35.45l-1,3.34H32.65l1-3.32A2.73,2.73,0,0,1,36,9.33h1.83a1.3,1.3,0,0,1,1.26,1.83l-1,3.32Z"/><polygon class="cls-3" points="31.52 9.49 32.24 7.36 34.65 7.36 33.93 9.49 31.52 9.49"/><path class="cls-4" d="M61.4,15.73h4.2l2.87-9.22h-4.2ZM74.25,2.11A5.39,5.39,0,0,0,69.82,0H51A8.78,8.78,0,0,0,43.5,5a7.53,7.53,0,0,0-.37.94l-2.87,9.12A6.41,6.41,0,0,0,40,17.3a5.18,5.18,0,0,0,1,2.84,5.29,5.29,0,0,0,4.35,2.08H63v0h1.18a9,9,0,0,0,7.58-4.9,7.91,7.91,0,0,0,.49-1.18l2.74-8.83A6.56,6.56,0,0,0,75.24,5,5.27,5.27,0,0,0,74.25,2.11ZM49.85,20.23H45.29c-2.51,0-3.91-2.05-3.13-4.56L45,6.55A6.79,6.79,0,0,1,51,2h8.55L58.15,6.5H49.6l-2.9,9.22h4.56L52,13.34H49.73l1.4-4.46h6.52l-2.13,6.79A6.39,6.39,0,0,1,49.85,20.23ZM73.14,6.4,70.3,15.52a7,7,0,0,1-6.17,4.69h-4.2c-2.58,0-4-2.11-3.22-4.69L59.56,6.4a7,7,0,0,1,6.17-4.69h4.19C72.5,1.71,74,3.82,73.14,6.4Z"/><path class="cls-5" d="M58.15,6.5H49.6l-2.9,9.22h4.56L52,13.34H49.73l1.4-4.46h6.52l-2.13,6.79a6.39,6.39,0,0,1-5.67,4.56H45.29c-2.51,0-3.91-2.05-3.13-4.56L45,6.55A6.79,6.79,0,0,1,51,2h8.55Z"/><path class="cls-5" d="M69.92,1.71H65.73A7,7,0,0,0,59.56,6.4l-2.84,9.12c-.81,2.58.64,4.69,3.22,4.69h4.2a7,7,0,0,0,6.17-4.69L73.14,6.4C74,3.82,72.5,1.71,69.92,1.71Zm-4.33,14H61.4l2.87-9.22h4.2Z"/><path class="cls-3" d="M77,1.49c.32,0,.52.17.52.44a.4.4,0,0,1-.26.39,1.3,1.3,0,0,1,.35.44c.07.11.11.16.22.31h-.27l-.21-.33c-.21-.33-.3-.36-.42-.36h-.1v.69h-.23V1.49Zm-.17.69H77c.24,0,.31-.13.31-.26s-.09-.24-.31-.24h-.15Z"/><path class="cls-3" d="M77.05,3.73a1.45,1.45,0,1,1,1.45-1.45A1.45,1.45,0,0,1,77.05,3.73Zm0-2.62a1.16,1.16,0,1,0,1.16,1.16A1.16,1.16,0,0,0,77.05,1.11Z"/></g></g></svg>