<svg xmlns="http://www.w3.org/2000/svg" viewBox="0 0 24.2 34.27"><defs><style>.cls-1{fill:#f59238;}</style></defs><title>PragmaticPlay</title><g id="Layer_2" data-name="Layer 2"><g id="Layer_1-2" data-name="Layer 1"><path class="cls-1" d="M12.1,34.27a12.1,12.1,0,1,1,12.1-12.1A12.12,12.12,0,0,1,12.1,34.27Zm0-22.72A10.62,10.62,0,1,0,22.72,22.17,10.64,10.64,0,0,0,12.1,11.55Z"/><path class="cls-1" d="M9,7.39s0,0,0,0C8.63,6,5.62-.12,5.31,0s.3,6.36.77,8.19a0,0,0,0,1,0,0C3.93,4.85,1.51,4.92,1,5,1,5,1,5,1,5c2.9,1.49,4.3,5.77,4.43,6.19a0,0,0,0,0,0,0A12.62,12.62,0,0,1,11,9.47s0,0,0,0c-.09-.38-.93-4.31.68-7,0,0,0-.05,0-.05C11.23,2.5,9.1,3.77,9,7.39Zm2.5,6.82C12,12.87,14,12.37,15.92,13.1S19,15.5,18.5,16.85,16,18.69,14.09,18,11,15.56,11.51,14.21Z"/></g></g></svg>