<?xml version="1.0" encoding="utf-8"?>
<!-- Generator: Adobe Illustrator 22.1.0, SVG Export Plug-In . SVG Version: 6.00 Build 0)  -->
<svg version="1.1" id="Layer_1" xmlns="http://www.w3.org/2000/svg" xmlns:xlink="http://www.w3.org/1999/xlink" x="0px" y="0px"
	 viewBox="0 0 399.7 86.7" style="enable-background:new 0 0 399.7 86.7;" xml:space="preserve">
<style type="text/css">
	.st0{fill:#C2C1C0;}
</style>
<path class="st0" d="M130.4,0.3c21.8,0,34.1,13.2,34.1,34.7c0,11.8-3.1,25.1-9.7,34.9c-8.3,12.3-18.7,16.5-33.3,16.5h-21.4
	l10.6-86.1C110.7,0.3,130.4,0.3,130.4,0.3z M125.5,65.7c12.4-0.6,15.4-18.1,15.4-27.8c0-6.7-1.3-16-9.9-16L125.5,65.7z"/>
<path class="st0" d="M327.4,41.9l15.1,44.6h-24.7l-10.2-41.2l-4.5,41.2h-22.9l10.6-86.1h22.9l-5.2,38.5l18.1-38.5h24.1L327.4,41.9z"
	/>
<path class="st0" d="M397.1,20.6h-19.6L376,33.1h17.7l-2.5,19.5h-17.6l-1.7,13.2h19.6L389,86.5h-42.6L357,0.4h42.6L397.1,20.6z"/>
<path class="st0" d="M106.1,20.6l2.6-20.3H80.4H66.1h-9.4c1.4,0.7,2.7,1.4,3.8,2.3c6.7,4.8,10,12.3,10,22.4
	c0,12.7-5.2,22.2-15.1,27.6L67,85.2l0.4,1.2h30.7l2.5-20.7H81l1.7-13.2h17.6l2.5-19.5H85l1.5-12.5h19.6V20.6z"/>
<path class="st0" d="M269.4,0.3h-28l-8.2,22.8c0,0.6,0,1.2,0,1.9c0,9.8-3.1,17.7-9.1,23.3l-3.8,10.6l9.3,26.4l0.4,1.2h4.1l3.2-11
	h15.4l0.4,11h23.6L269.4,0.3z M252.3,57.2h-9.7c2.5-8,4.5-16,6.8-24c1.2-4,1.9-8.1,3-12.1C252.3,26,252,31,252,36v11.2
	C252,50.4,252.2,53.8,252.3,57.2z"/>
<g>
	<g>
		<path class="st0" d="M36.7,0.3c16.9,0,29.7,5.8,29.7,24.7c0,11.8-4.9,21-16,25.7L63,86.5H38.2c-2.1-8.7-4.4-17.2-6.3-25.8
			c-0.8-3.4-1.4-6.6-2.2-9.9c-1,12-2.6,23.9-4.1,35.8H2.7L13.3,0.3H36.7z M32.8,40.2c6.3,0,10.7-6.3,10.7-12.3
			c0-6.5-3.9-8.3-9.7-8.3l-2.6,20.5L32.8,40.2L32.8,40.2z"/>
	</g>
</g>
<path class="st0" d="M199.8,0.3c16.9,0,29.7,5.8,29.7,24.7c0,11.8-4.9,21-16,25.7l12.7,35.8h-24.8c-2.1-8.7-4.4-17.2-6.3-25.8
	c-0.8-3.4-1.4-6.6-2.2-9.9c-1,12-2.6,23.9-4.1,35.8h-22.9l10.6-86.1h23.3V0.3z M195.9,40.2c6.3,0,10.7-6.3,10.7-12.3
	c0-6.5-3.9-8.3-9.7-8.3l-2.6,20.5L195.9,40.2L195.9,40.2z"/>
</svg>
