<?xml version="1.0" encoding="utf-8"?>
<!-- Generator: Adobe Illustrator 22.1.0, SVG Export Plug-In . SVG Version: 6.00 Build 0)  -->
<svg version="1.1" id="katman_1" xmlns="http://www.w3.org/2000/svg" xmlns:xlink="http://www.w3.org/1999/xlink" x="0px" y="0px"
	 viewBox="0 0 253.9 66" style="enable-background:new 0 0 253.9 66;" xml:space="preserve">
<style type="text/css">
	.st0{fill:#FDFDFD;}
	.st1{fill:#263285;}
	.st2{fill:#394287;}
	.st3{fill:#1E2972;}
	.st4{fill:#374185;}
	.st5{fill:#1F2A72;}
	.st6{fill:#8389B1;}
	.st7{fill:#7F86AF;}
	.st8{fill:#5F679B;}
	.st9{fill:#3D4685;}
	.st10{fill:#535B93;}
	.st11{fill:#49518C;}
	.st12{fill:#6E75A4;}
	.st13{fill:#777EAA;}
	.st14{fill:#F9F9FA;}
	.st15{fill:#F6F6F9;}
	.st16{fill:#F7F8F9;}
	.st17{fill:#FAFAFB;}
	.st18{fill:#E8E9F0;}
</style>
<g>
	<path class="st0" d="M226.8,48.9c2,0.2,3.3-1.1,4.9-1.7c0-0.1-0.1-0.2-0.1-0.3c-0.7,0-1.3,0-2,0c-0.6,0-1.3,0-1.9,0
		c-2.7,0-5.4,0-8.1,0c-0.2,0-0.5,0-0.7,0c-1.5-0.1-1,1.1-1.4,1.9c2.9,0,5.6,0,8.3,0C226.2,48.9,226.5,48.9,226.8,48.9z M216.7,29.1
		c0-0.7-0.1-1.3-0.1-2c0.3-1.8,0.4-3.7,0.9-5.5c0.4-1.5,1.6-2.1,3-2.1c1.4,0,2.3,0.8,2.9,2.3c0.2,0.5,0.3,1,0.5,1.5
		c2.4-0.2,4.8-0.5,7.1-0.7c-0.2-3.1-2.4-6.3-5.3-7.6c-4.8-2.2-11.3-0.9-14.1,3c-2,2.7-2.8,5.8-2.7,9.1c0,0.7,0.1,1.3,0.1,2
		c0.1,0.6,0.2,1.1,0.3,1.7c0.2,0.6,0.4,1.3,0.6,1.9c0.4,0.7,0.8,1.5,1.2,2.2c0.3,0.3,0.5,0.7,0.8,1c0.4,0.4,0.8,0.7,1.1,1.1
		c2,1.9,4.4,2.4,7,2.3c2.3,0,4.4-0.6,5.9-2.6c0.3,0.2,0.6,0.3,0.9,0.5c0.3,0.6,0.6,1.5,1,1.6c1,0.2,2.1,0.1,3.2,0.1
		c0-0.8-0.1-1.3-0.1-1.9c0-0.5,0-1,0-1.4c0-0.4,0-0.8,0-1.2c0-0.6,0-1.1,0-1.7c0-0.8,0-1.6,0-2.4c0-1,0-2.1,0-3.1c0-0.7,0-1.3,0-1.9
		c-3.7,0-7.3,0-10.9,0c0,0.7,0,1.3,0,1.9c0,0.8-0.1,1.7,0,2.5c0,0.3,0.5,0.8,0.8,0.8c1.1,0.1,2.1,0.1,3.2,0.1
		c-0.2,0.6-0.5,1.3-0.7,1.9c-1.8,1.3-3.6,1.3-5.3,0c-0.3-0.6-0.6-1.3-1-1.9C216.9,30,216.8,29.6,216.7,29.1z"/>
	<path class="st1" d="M199.5,39.1c0-9.6,0-19.2-0.1-28.8c0-0.5-0.1-1.1-0.2-1.6c-0.1-0.2-0.3-0.5-0.4-0.7c-0.6-0.2-1.1-0.7-1.7-0.7
		c-10.4,0-20.8,0-31.1,0c-1.7,0-2.4,0.9-2.3,2.6c0,0.1-0.1,0.2-0.1,0.2c0,11.5,0,23,0,34.5c0,0.6,0.5,1.2,0.8,1.7
		c0.6,0.2,1.2,0.4,1.8,0.4c6.7,0,13.3,0,20,0.1c-0.1,0.7-0.1,1.3-0.2,2c-7.1,0-14.1,0-21.2,0c-1.2,0-2.1-0.8-2.7-1.8
		c-0.4-0.7-0.8-0.8-1.2,0c-0.8,1.4-2.2,1.8-3.7,1.8c-6,0-12.1,0-18.1,0c-4.7,0-9.3,0-14,0c-1.5,0-3.2-1.6-3.2-3.1
		c-0.1-2.2-0.1-4.5-0.1-6.7c0-9.7,0-19.5,0-29.2c0-3.3,1.3-4.6,4.6-4.6c10,0,20.1,0,30.1,0c2.2,0,4,0.5,5,2.9
		c1.1-2.8,3.3-2.9,5.7-2.9c9.4,0,18.8,0,28.2,0c2.2,0,4.3,0,5.6,2.2c1.1-1.7,2.6-2.2,4.3-2.2c10.2,0,20.5,0,30.7,0
		c2.9,0,4.6,1.7,4.6,4.6c0,4,0,8,0.1,12c0,0.2,0,0.5,0,0.7c0,6.6,0,13.3,0,19.9c0,0.2,0,0.3,0,0.5c-0.2,1.4-0.5,2.7-0.7,4.1
		c-0.5-0.4-1-0.8-1.5-1.2c0.1-0.3,0.1-0.5,0.1-0.8c0-11.8,0-23.6,0-35.4c0-0.2,0-0.5-0.1-0.7c-0.3-1.4-1.3-1.6-2.5-1.6
		c-10.1,0-20.2,0-30.3,0c-2.2,0-2.9,0.6-2.9,2.8c0,8.9,0,17.7,0,26.6c0,0.5,0,1.1-0.1,1.5c-0.1,0.3-0.4,0.6-0.7,0.6
		C201.2,39.1,200.3,39.1,199.5,39.1z M159.2,8.2c-0.5-1-1.4-0.9-2.3-0.9c-10,0-20.1,0-30.1,0c-2.4,0-3.1,0.6-3.1,3
		c0,11.3,0,22.6,0,33.9c0,0.4,0.1,0.8,0.2,1.2c0.3,1.2,1.2,1.5,2.4,1.5c10.3,0,20.5,0,30.8,0c1.9,0,2.5-0.7,2.5-2.5
		c0-11.5,0-23,0-34.5C159.6,9.3,159.3,8.8,159.2,8.2z"/>
	<path class="st2" d="M88.6,39.3c-1.4,1.1-2.7,2.3-4.1,3.1c-1.9,1.1-4,2-5.9,2.9c-1.5,0.7-3.1,0.6-4.6,0.3c-2.6-0.5-4.7-3.3-4.9-6
		c0-0.1-0.1-0.2-0.1-0.3c-1.9,1.4-3.7,2.8-5.6,4c-2.6,1.7-5.4,2.7-8.5,2.4c-2.2-0.2-3.7-1.7-4.7-3.6c-1.7-3.5-1.3-6.9,0.4-10.3
		c1.9-3.8,5-6.5,8.8-8.3c2.3-1,4.7-1.4,7.2-1c3.6,0.6,3.6,3.7,2.4,5.9c-1.3,2.4-3.4,4.1-5.9,5.3c-2,1-4,1.8-6,2.6
		c-0.9,0.4-1.2,1.3-0.4,2.1c1.1,1.2,2.4,1,3.8,0.6c2.8-0.8,4.9-2.6,7.3-4.2c1.7-1.1,2.4-2.8,3.4-4.4c2.6-4.2,6.4-6.9,11.2-7.8
		c1.7-0.3,3.6-0.5,5.3,0.3c1.5,0.7,2,1.9,1.8,3.5c-0.5,3-2.6,4.9-4.9,6.3c-2.3,1.4-4.8,2.4-7.3,3.6c-0.4,0.2-0.9,0.5-1,0.9
		c-0.3,0.7,0,1.6,0.8,1.8c1,0.2,2.2,0.5,3.1,0.1c2.2-0.9,4.2-2.2,6.2-3.3c0.3-0.2,0.6-0.5,0.9-0.7c1.8-0.9,2.2-2.7,2.6-4.4
		c1-4,2.9-7.5,5.5-10.6c2.5-3,5.3-5.7,8-8.6c0.7-0.7,1.5-1.4,2.4-1.9c0.8-0.5,1.7-0.9,2.7-0.3c1,0.7,1.1,1.7,1,2.8
		c-0.3,3.9-1.7,7.5-4,10.6c-1.7,2.3-3.5,4.5-5.4,6.6c-1.4,1.6-3,3.1-4.5,4.7c-0.6,0.6-0.6,2.8,0,3.8c0.7,1.2,1.4,1.6,2.7,0.9
		c2.1-1,4.1-2.4,6-3.6c0.6-0.4,1.1-1,1.7-1.4c0.2-0.1,0.7-0.3,0.7-0.2c0.5,0.6,1,1.3,1.4,2c0.1,0.3-0.1,0.9-0.4,1.2
		c-2.4,2.5-4.8,5.1-7.8,6.9c-1.7,1-3.4,1.9-5.4,1.9c-3.1,0-4.8-2.2-5.4-4.6C88.8,40.5,88.8,40,88.6,39.3z M106.5,34.5
		c-0.7,0.6-1.4,1.2-2.1,1.7c-1.9,1.5-3.8,2.9-6.2,3.5c-1,0.3-2,0.2-2.8-0.6c-1.6-1.5-1.6-4.5-0.1-6.1c2.3-2.4,4.7-4.9,6.9-7.4
		c3.2-3.8,5.9-7.9,6.2-13.1c0-0.6,0-1.2-0.1-1.8c-0.2-0.8-0.8-1.2-1.5-0.7c-1,0.6-2.1,1.2-2.9,2c-2.7,2.8-5.4,5.6-8,8.6
		c-2.8,3.2-4.7,6.9-5.6,11c-0.4,1.9-1.2,3.2-2.8,4.2c-0.3,0.2-0.5,0.4-0.8,0.6c-2.1,1.2-4.2,2.5-6.4,3.4c-1.1,0.4-2.5,0.2-3.7-0.1
		c-1.1-0.3-1.4-1.3-1.5-2.5c-0.1-1.2,0.7-1.3,1.5-1.6c0.4-0.1,0.8-0.3,1.1-0.4c3.2-1.3,6.3-2.6,8.7-5.2c0.9-1,1.6-2.3,2-3.6
		c0.5-1.6-0.3-2.6-1.9-3c-0.9-0.2-1.8-0.3-2.7-0.2c-5.7,0.6-9.8,3.7-12.5,8.5c-1,1.8-2.2,3.1-3.7,4.2c-0.6,0.4-1.1,0.9-1.7,1.3
		c-1.8,0.9-3.5,1.9-5.3,2.6c-1.3,0.5-2.7,0.4-3.9-0.3c-0.9-0.5-1.1-1.4-1.1-2.5c0-1.1,0.7-1.2,1.4-1.4c1.4-0.5,2.8-1,4.1-1.7
		c2.6-1.3,5.2-2.7,6.9-5.2c0.9-1.3,1.5-2.7,0.7-4.2c-0.7-1.4-2.2-1.4-3.6-1.4c-4.2,0-7.6,1.9-10.5,4.8c-3.1,3.1-5,6.7-4.3,11.3
		c0.6,4.3,3.5,6.3,7.7,5.5c0.5-0.1,0.9-0.2,1.4-0.4c3.7-1.2,6.6-3.5,9.3-6.1c0.3-0.3,0.6-0.6,1.1-1c0.1,0.7,0.1,1.2,0.1,1.6
		c0.5,4.4,3.5,6.6,7.8,5.8c0.5-0.1,0.9-0.2,1.4-0.4c3.3-1.1,6-3,8.5-5.3c0.6-0.6,1.3-1.2,1.9-1.7c0.3,1.5,0.5,2.9,0.9,4.3
		c0.7,2.1,2.2,3.2,4.4,2.9c1.5-0.2,3.1-0.5,4.3-1.3c2.6-1.9,5-4.2,7.5-6.2C107.3,36.3,107.5,35.5,106.5,34.5z"/>
	<path class="st3" d="M170.7,27.1c0-4.2,0-8.4,0-12.8c0.7,0,1.4,0,2.1,0c4.1,0,8.2-0.1,12.3,0.1c5.6,0.3,8.6,4.9,6.9,10
		c-0.5,1.3-1.2,2.4-2.5,2.9c-0.5-0.1-0.9-0.1-1.4-0.2C182.3,27.1,176.5,27.1,170.7,27.1z M178.3,24.4c1.7-0.1,3.3-0.1,4.9-0.4
		c1.1-0.2,1.6-1.2,1.5-2.3c-0.1-1.1-0.7-1.9-1.8-1.9c-1.5-0.1-3,0-4.5,0C178.3,21.2,178.3,22.6,178.3,24.4z"/>
	<path class="st4" d="M188.5,51.1c-0.1-0.6-0.2-1.1-0.3-1.7c0.1-0.2,0.2-0.3,0.2-0.5c0.4-1.9,0.6-3.9,2.7-4.9
		c0.1,0.2,0.2,0.4,0.3,0.5c-1.7,1-2,2.7-2.3,4.4c-0.3,1.9,0.3,2.9,2.2,3.3c1.7,0.4,3.5,0.6,5.2,1c1.5,0.4,3.1,0.8,4.6,1.4
		c1,0.4,1,0.9,0.2,1.5c-0.7,0.5-1.4,0.9-2.2,1.2c-3.3,1.2-6.7,1.4-10.1,1.3c-0.1,0-0.3-0.1-0.4-0.2c0.3-0.3,0.5-0.6,1-1.2
		c-2,0.2-3.4,0.8-4.2,2.5c-0.6,1.3-0.4,2,1,2.5c0.4,0.1,0.8,0.2,1.2,0.3c4.3,0.3,8.6,0,12.7-1.6c1.3-0.5,2.5-1.4,3.5-2.4
		c1.8-2,1.3-4.4-1.2-5.7c-1.1-0.6-2.3-0.8-3.5-1.2c-2-0.6-4-1.1-6-1.6c-0.8-0.2-1.2-0.6-0.3-1.3c0.1,0.1,0.2,0.2,0.3,0.3
		c0.2,0.2,0.3,0.3,0.5,0.5c2.5,0.6,5.1,1.2,7.6,2c2.2,0.6,4.1,1.7,4.3,4.3c0,0.3-0.1,0.5-0.1,0.8c0.1,0,0.2,0,0.3,0
		c0-0.3,0.1-0.6,0.1-0.8c0.6-1.6,0.9-3.3,1.8-4.6c2-2.6,4.3-4.9,6.4-7.4c0.2-0.2,0.5-0.4,0.8-0.5c1.3-0.8,2.5-0.2,2.4,1.4
		c-0.1,1.4-0.5,2.9-1,4.3c-1.3,2.9-3.5,5.1-5.7,7.3c-0.2,0.2-0.6,0.4-0.6,0.7c-0.1,0.6-0.2,1.3-0.1,1.9c0.1,0.2,1.1,0.3,1.5,0.2
		c1.5-0.7,2.9-1.5,3.5-3.3c1-3,5.8-5.7,8.9-5.4c1.4,0.1,1.9,0.8,2,2.1c0.1,1.3,0.3,2.5,0.6,4.1c0.8-0.6,1.5-1.3,2.5-2.1
		c-2.5-0.3-2.5-0.4-1.4-2.4c1-1.7,2.3-2.9,4.4-3c0.4,0,0.7-0.5,1.1-0.8c0.8-0.6,1.6-1.5,2.6-1.8c1.8-0.5,2.5,0.4,2,2.3
		c1.2,0.5,1.1,1.3,0.5,2.3c-0.5,0.8-0.9,1.6-1.5,2.3c-0.5,0.5-1.3,1.1-1.8,1c-1.6-0.3-2.2,0.7-2.7,1.8c-0.5,1-0.9,2.1-1.4,3.1
		c0.1,0.1,0.3,0.2,0.4,0.3c0.5-0.3,1.1-0.6,1.5-1c2.2-2,4.4-4.1,6.6-6.2c0.4-0.4,0.8-1,1-1.5c0.6-1.3,2-1.8,3.2-1.2
		c0.3,0.1,0.6,0.4,0.6,0.6c0.4,2,1.2,4,0.6,6c-0.1,0.4-0.3,0.8-0.3,1.4c0.3-0.2,0.6-0.5,1-0.7c0.5-0.4,1.2-1,1.8-0.3
		c0.6,0.7,0.8,1.6,0.1,2.4c-0.6,0.6-1.3,1.2-2,1.7c-1.2,0.8-2.3,1.5-3.6,2.2c-2.4,1.3-5.2,0.3-6.7-1.3c-0.2-0.2-0.3-0.3-0.4-0.4
		c-1.7,0.9-3.2,1.8-4.9,2.5c-2,0.8-3.5-0.3-3.7-2.5c0-0.2-0.1-0.4-0.1-0.6c-1.4,0.3-2.7,0.2-4,1.2c-1.8,1.4-3.7,2.1-5.5,0.8
		c-0.7-0.6-1.3-1.4-1.9-2.1c-1.3,0.7-2.7,1.6-4.2,2.3c-2,0.9-3.7,0.3-4.5-1.5c-0.2-0.5-0.4-1.1-0.5-1.6c-0.1-0.6,0-1.2-0.1-1.8
		c-1.2,1.9-2.8,3.2-4.9,3.8c-1.7,0.5-3.5,0.9-5.2,1.3c-0.2,0.1-0.3,0.2-0.5,0.2c-0.6,0-1.3,0-1.9,0c-0.2,0.1-0.5,0.1-0.7,0.2
		c-1.2,0-2.4,0-3.6,0c-0.2-0.1-0.5-0.1-0.7-0.2c-0.3,0-0.6,0-1,0c-0.2-0.1-0.5-0.3-0.7-0.4c-0.4-0.2-0.8-0.5-1.2-0.7
		c-0.1-0.2-0.3-0.5-0.4-0.7c0-0.3,0-0.6,0-1c0.1-0.1,0.2-0.3,0.3-0.4c0.5-0.8,0.9-1.5,1.4-2.2c0.1-0.1,0.3-0.2,0.4-0.3
		c0.6-0.2,1.2-0.4,1.7-0.6c1.2-0.4,2.1-0.3,2.1,1.2c3.7-0.3,7.4-0.2,10.6-2.4c0.1-0.1,0.2-0.1,0.3-0.2c-0.1,0-0.2-0.1-0.3-0.1
		c-0.4-0.2-0.8-0.4-1.2-0.6c-0.1-0.1-0.3-0.2-0.4-0.3c-0.4,0-0.8-0.1-1.3-0.1c-0.2-0.1-0.3-0.1-0.5-0.2c-0.2,0-0.5,0-0.7,0
		c-0.2-0.1-0.3-0.2-0.5-0.3c-0.2,0-0.5,0-0.7,0c-0.3-0.1-0.6-0.2-0.9-0.3c-0.1,0-0.2,0-0.3,0c-0.2-0.1-0.5-0.2-0.7-0.3
		c-1-0.2-1.9-0.3-2.9-0.5c-0.3-0.1-0.5-0.3-0.8-0.4c-0.4-0.4-0.8-0.8-1.2-1.2C188.6,51.3,188.6,51.2,188.5,51.1z M224.5,58.1
		c-0.1-0.1-0.1-0.2-0.2-0.3c0.1-0.2,0.2-0.4,0.3-0.7c0.5-1.5,1.5-2.9,0.1-4.4c0-0.1,0-0.3,0.1-0.4c0.3-1,0-1.4-1-1.6
		c-2.9-0.3-7.5,2.4-8.4,5.2c-0.7,2.3-2.6,3-4.5,3.7c-1.1,0.4-1.9-0.2-2.1-1.3c-0.2-1,0.1-1.8,0.8-2.5c1.6-1.6,3.1-3.3,4.5-5.1
		c1.3-1.6,2.2-3.5,2.4-5.7c0-0.5-0.2-1-0.3-1.5c-0.5,0.2-1,0.2-1.4,0.5c-2.8,2.3-5.2,4.8-6.9,8c-1.3,2.4-1.9,5-1.6,7.7
		c0.3,2.2,1.8,3.2,3.8,2.4c1.2-0.5,2.2-1.3,3.3-2.1c0.5-0.4,1-0.9,1.6-1.4c0.1,0.4,0.2,0.7,0.2,0.9c0.7,2.4,2.5,3.3,4.8,2.3
		c0.8-0.3,1.4-0.9,2.1-1.3c0.3-0.2,0.6-0.5,0.9-0.5c1.6-0.1,3-0.7,4.3-2.1c-0.2,1-0.5,1.8-0.5,2.5c-0.3,2,0.9,3,2.8,2.4
		c1.1-0.4,2.1-1.1,3.1-1.7c0.7-0.4,1.2-0.9,1.8-1.4c2.2,3,4.9,3.6,8,1.7c1.3-0.8,2.4-1.8,3.6-2.8c0.6-0.5,0.7-1,0.2-1.6
		c-0.9,0.7-1.8,1.4-2.7,2c-0.9,0.6-1.9,1.2-3.2,0.9c0.2-0.2,0.3-0.3,0.3-0.4c2.7-1.9,4-4.3,2.9-7.6c-0.1-0.2,0-0.5-0.1-0.7
		c-0.3-0.5-0.6-1.3-0.9-1.3c-0.6,0.1-1.3,0.4-1.8,0.9c-0.7,0.7-1.2,1.7-1.9,2.4c-1.6,1.6-3.3,3.1-4.9,4.6c-0.7,0.6-1.4,1.3-2.2,1.8
		c-0.4,0.3-1.2,0.3-1.5,0.1c-0.3-0.2-0.5-1.1-0.3-1.5c0.7-1.6,1.5-3,2.4-4.5c0.1-0.2,0.5-0.4,0.7-0.3c2.7,0.2,3.6-1.6,4.4-3.7
		c-0.5-0.1-1-0.2-1.6-0.3c0.3-0.4,0.5-0.7,0.6-1c0.1-0.3,0.4-0.9,0.2-1.1c-0.3-0.2-0.9-0.5-1.2-0.3c-0.8,0.5-1.6,1.1-2.4,1.7
		c-0.4,0.3-0.9,0.9-1.4,0.9c-2.5,0-3.5,1.6-4.5,3.7c0.9,0,1.7,0,2.7,0C228.6,55.7,226.8,57.2,224.5,58.1z M205,57.4
		c0.1,0,0.1,0,0.2,0.1c0.1-0.1,0.1-0.2,0.2-0.4c-0.1,0-0.2-0.1-0.3-0.1C205.1,57.2,205,57.3,205,57.4z M226.1,56.2
		c-0.1-0.1-0.1-0.2-0.2-0.2c-0.1,0-0.2,0.1-0.3,0.1c0,0,0.1,0.1,0.1,0.1C225.9,56.3,226,56.3,226.1,56.2z"/>
	<path class="st2" d="M25.7,30.4c0.8,0.4,1.2,0.6,1.7,0.8c4.5,1.5,9.1,2.9,13.6,4.4c1.6,0.6,3.1,1.5,4.7,2.2c2.1,0.9,3,5.9,2,7.8
		c-0.7,1.2-1.9,1.5-3.9,0.7c-3.6-1.4-7.2-2.8-10.8-4.2c-4.6-1.7-9.1-3.4-13.7-5.1c-0.1,0-0.2,0-0.3-0.1c-1.3,1.9-2.7,3.7-3.9,5.6
		c-0.5,0.9-0.7,2-1.2,2.9c-0.9,1.4-2.4,1.9-3.8,2.2c-1.4,0.3-2.7-1.6-2.1-3.1c0.5-1.3,1.2-2.5,1.9-3.7c1.1-1.9,2.3-3.8,3.5-5.9
		c-0.3-0.2-0.7-0.4-1-0.7c-1.4-1-1.5-2.5-0.3-4.4c1.5-2.4,3.8-3.5,6.5-3.8c1-0.1,1.7-0.5,2.3-1.3c1.8-2.7,3.7-5.3,5.5-8
		c0.2-0.2,0.3-0.5,0.5-0.9c-2.1,0.5-3.9,0.9-5.5,1.2c0.3,0.6,0.9,1.2,0.8,1.8c-0.1,1.1-1.2,1.3-2.1,1.4c-1.9,0.3-3.9,0.3-5.9,0.5
		c-1.1,0.1-2.2,0.4-3.4,0.4c-1.2,0.1-2.5-0.8-2.6-1.8c-0.1-0.7,0-1.6,0.3-2.3c0.6-1.5,1.2-3,2-4.4c1.2-2.2,3.4-3.1,5.6-3.8
		c4.9-1.7,10-2.8,15.2-3c3.3-0.2,6.6-0.3,9.9-0.2c2.9,0.1,5.8,0.6,8.4,1.8c3.9,1.8,5.2,4.8,4.1,9c-0.6,2.3-1.6,4.4-3.1,6.2
		c-1.1,1.2-2.6,2.2-4.1,2.9c-3,1.4-6.1,2.1-9.4,2.5c-1.7,0.2-3.3,0.7-5,1c-1.3,0.2-2.5,0.4-3.8,0.6C27.4,29.9,26.7,30.2,25.7,30.4z
		 M17.2,17.9c0-0.2-0.1-0.3-0.1-0.5c3.7-0.9,7.5-1.7,11.2-2.6c-0.1,0.6-0.3,0.9-0.5,1.2c-2.2,3.1-4.4,6.2-6.4,9.4
		c-0.6,1-1.4,1.4-2.5,1.5c-2.6,0.3-4.9,1.3-6.3,3.7c-1.2,2.1-0.9,2.8,1.3,3.7c0.2,0.1,0.3,0.2,0.6,0.3c-1.7,2.9-3.5,5.6-5.1,8.5
		c-0.4,0.7-0.7,1.5-0.8,2.3c-0.2,1,0.4,1.5,1.4,1.4c1.9-0.1,3.7-1.8,3.9-3.7c0-0.3,0.2-0.6,0.4-0.8c1.3-1.9,2.6-3.7,3.8-5.6
		c0.4-0.6,0.7-0.6,1.3-0.4c7.6,2.9,15.2,5.8,22.8,8.6c1,0.4,2,0.7,3.1,1c0.9,0.3,1.5-0.2,1.8-1.1c0.8-2.5-0.5-5.6-2.8-6.9
		c-1-0.5-2.1-1.1-3.2-1.4c-6-2-12.1-4-18.1-5.9c-0.3-0.1-0.5-0.2-1.1-0.4c2.6-0.5,4.8-0.8,7-1.3c5-1,10-1.8,14.9-3.2
		c5.2-1.4,8.2-5.1,9.1-10.4c0.4-2.7-0.5-4.9-2.9-6.3c-0.8-0.5-1.7-1-2.6-1.2c-2.9-0.5-5.7-1.1-8.6-1.2c-7.8-0.3-15.4,0.8-22.9,3.3
		C12,11.2,10,14.2,9,18.1c-0.4,1.6,0.1,2.4,1.9,2.3c3.2-0.2,6.4-0.6,9.6-1c0.3,0,0.5-0.4,0.8-0.6c-0.3-0.2-0.5-0.5-0.8-0.5
		C19.4,18.1,18.3,18,17.2,17.9z"/>
	<path class="st5" d="M208.7,27.1c-0.1-3.3,0.7-6.4,2.7-9.1c2.9-3.9,9.3-5.2,14.1-3c2.8,1.3,5,4.4,5.3,7.6c-2.3,0.2-4.7,0.5-7.1,0.7
		c-0.2-0.5-0.3-1-0.5-1.5c-0.5-1.5-1.5-2.2-2.9-2.3c-1.4,0-2.6,0.6-3,2.1c-0.5,1.8-0.6,3.7-0.9,5.5C214,27.1,211.3,27.1,208.7,27.1z
		"/>
	<path class="st6" d="M170.7,27.1c5.8,0,11.6,0,17.3,0c0.5,0,0.9,0.1,1.4,0.2c-0.4,0.3-0.8,0.6-1.2,1c0.1,0.3,0.1,0.6,0.2,1
		c-0.5,0-1,0-1.5,0c-2.1,0.1-4.2,0.2-6.3,0.3c-0.8,0-1.6,0-2.4,0c-2.5,0-5,0-7.5,0C170.7,28.7,170.7,27.9,170.7,27.1z"/>
	<path class="st7" d="M230.9,27.2c0,1,0,2.1,0,3.1c-2.3,0.1-4.6,0.2-6.9,0.2c-1.1,0-2.2,0-3.2-0.1c-0.3,0-0.8-0.5-0.8-0.8
		c-0.1-0.8,0-1.7,0-2.5C223.6,27.1,227.2,27.1,230.9,27.2z"/>
	<path class="st8" d="M210.9,34.9c-0.4-0.7-0.8-1.5-1.2-2.2c0.8,0,1.7,0,2.5,0c1.9-0.1,3.8-0.2,5.7-0.2c1.7,1.3,3.5,1.3,5.3,0
		c0.5,0.1,0.9,0.2,1.4,0.2c2.1,0,4.2,0,6.3,0c0,0.6,0,1.1,0,1.7c-2.2,0-4.4,0-6.6,0c-4,0-8,0-12.1,0
		C211.8,34.4,211.4,34.7,210.9,34.9z"/>
	<path class="st4" d="M191.2,44.1c2.5-1.8,5.4-2.5,8.3-3c2.5-0.4,5-0.4,7.5,0.2c1,0.2,1.4,0.8,1.4,1.8c0,2-0.6,3-2.5,3.9
		c-1,0.5-2,1-3,1.5c-0.7,0.4-1.5,0.9-2,0.1c-0.3-0.4-0.2-1.2-0.3-2c-2.4,0.2-4.9,0.9-7.2,2.4c-0.1,0-0.3,0-0.4,0
		c-0.1-0.1-0.2-0.2-0.3-0.3c2.1-2,8.4-3.7,9.9-2.7c-0.5,0.6-1,1.2-1.6,1.9c0.4,0.1,0.7,0.3,0.8,0.2c1.7-0.9,3.5-1.6,5-2.7
		c0.6-0.5,0.7-1.9,0.7-2.8c0-0.2-1.1-0.6-1.7-0.7c-5.1-0.8-9.9,0.3-14.4,2.8C191.4,44.4,191.3,44.3,191.2,44.1z"/>
	<path class="st9" d="M225.9,36.8c-1.5,1.9-3.7,2.5-5.9,2.6c-2.6,0.1-5.1-0.4-7-2.3c0.4-0.1,0.8-0.2,1.3-0.2
		C218.1,36.7,222,36.7,225.9,36.8z"/>
	<path class="st10" d="M210.9,34.9c0.4-0.2,0.8-0.5,1.2-0.5c4,0,8,0,12.1,0c2.2,0,4.4,0,6.6,0c0,0.4,0,0.8,0,1.2
		c-5.8,0-11.6,0-17.4,0c-0.6,0-1.2,0.2-1.7,0.3C211.5,35.6,211.2,35.2,210.9,34.9z"/>
	<path class="st11" d="M211.7,35.9c0.6-0.1,1.2-0.3,1.7-0.3c5.8,0,11.6,0,17.4,0c0,0.5,0,1,0,1.4c-1.4,0.1-2.7,0.2-4.1,0.3
		c-0.3-0.2-0.6-0.3-0.9-0.5c-3.9,0-7.8,0-11.7,0c-0.4,0-0.8,0.1-1.3,0.2C212.5,36.6,212.1,36.2,211.7,35.9z"/>
	<path class="st5" d="M230.9,27.2c-3.6,0-7.3,0-10.9-0.1c0-0.6,0-1.2,0-1.9c3.6,0,7.2,0,10.9,0C230.9,25.9,230.9,26.5,230.9,27.2z"
		/>
	<path class="st12" d="M217.9,32.4c-1.9,0.1-3.8,0.2-5.7,0.2c-0.8,0-1.7,0-2.5,0c-0.2-0.6-0.4-1.3-0.6-1.9c0.5-0.1,1-0.3,1.5-0.3
		c2.1,0,4.2,0,6.3,0C217.3,31.2,217.6,31.8,217.9,32.4z"/>
	<path class="st12" d="M230.9,32.7c-2.1,0-4.2,0-6.3,0c-0.5,0-0.9-0.1-1.4-0.2c0.2-0.6,0.5-1.3,0.7-1.9c2.3-0.1,4.6-0.2,6.9-0.2
		C230.9,31.1,230.9,31.9,230.9,32.7z"/>
	<path class="st9" d="M191.7,36.9c0.3,0.6,0.5,1.2,0.9,2c-2.8,0-5.4,0.1-8-0.1c-0.4,0-0.7-1.1-1-1.6c0.7-0.1,1.3-0.2,2-0.2
		C187.6,36.9,189.7,36.9,191.7,36.9z"/>
	<path class="st6" d="M208.7,27.1c2.6,0,5.2,0,7.9,0c0,0.7,0.1,1.3,0.1,2c-2.6,0-5.2,0-7.8,0C208.8,28.4,208.8,27.7,208.7,27.1z"/>
	<path class="st12" d="M170.7,32.9c0-0.6,0-1.1,0-1.7c2.5-0.1,4.9-0.2,7.4-0.2c0,0.6,0,1.3,0,1.9C175.7,32.9,173.2,32.9,170.7,32.9z
		"/>
	<path class="st10" d="M190.4,33.9c0.2,0.6,0.5,1.1,0.7,1.7c-0.5,0-0.9,0-1.4,0c-2.2,0.1-4.4,0.2-6.6,0.3c-0.2-0.6-0.4-1.1-0.6-1.7
		c0.7-0.1,1.3-0.2,2-0.2C186.4,33.8,188.4,33.9,190.4,33.9z"/>
	<path class="st13" d="M180.7,29.6c2.1-0.1,4.2-0.2,6.3-0.3c0.5,0,1,0,1.5,0c0.2,0.5,0.4,1,0.6,1.5c-0.7,0.1-1.5,0.2-2.2,0.2
		c-1.9,0-3.8,0-5.6,0C181.1,30.5,180.9,30,180.7,29.6z"/>
	<path class="st11" d="M170.7,37.5c0-0.6,0-1.1,0-1.7c2.5,0,5,0,7.4,0c0,0.6,0,1.1,0,1.7C175.7,37.5,173.2,37.5,170.7,37.5z"/>
	<path class="st12" d="M181.2,31c1.9,0,3.8,0,5.6,0c0.7,0,1.5-0.1,2.2-0.2c0.2,0.6,0.5,1.1,0.7,1.7c-1.9,0-3.9,0-5.8,0
		c-0.7,0-1.4,0.2-2.1,0.3C181.7,32.1,181.5,31.6,181.2,31z"/>
	<path class="st8" d="M181.9,32.7c0.7-0.1,1.4-0.2,2.1-0.3c1.9,0,3.9,0,5.8,0c0.2,0.5,0.4,0.9,0.6,1.4c-2,0-4,0-5.9,0
		c-0.7,0-1.3,0.1-2,0.2C182.3,33.6,182.1,33.2,181.9,32.7z"/>
	<path class="st11" d="M183.1,35.8c2.2-0.1,4.4-0.2,6.6-0.3c0.5,0,0.9,0,1.4,0c0.2,0.5,0.4,0.9,0.6,1.4c-2,0-4,0-6.1,0.1
		c-0.7,0-1.3,0.2-2,0.2C183.4,36.8,183.3,36.3,183.1,35.8z"/>
	<path class="st13" d="M208.9,29.1c2.6,0,5.2,0,7.8,0c0.1,0.5,0.2,1,0.3,1.4c-2.1,0-4.2,0-6.3,0c-0.5,0-1,0.2-1.5,0.3
		C209.1,30.2,209,29.6,208.9,29.1z"/>
	<path class="st10" d="M178.2,35.8c-2.5,0-5,0-7.4,0c0-0.5,0-1,0-1.4c1.5,0,3,0,4.6-0.1c1,0,1.9-0.1,2.9-0.2
		C178.2,34.7,178.2,35.2,178.2,35.8z"/>
	<path class="st13" d="M178.2,31c-2.5,0.1-4.9,0.2-7.4,0.2c0-0.6,0-1.1,0-1.7c2.5,0,5,0,7.5,0C178.2,30,178.2,30.5,178.2,31z"/>
	<path class="st9" d="M170.7,37.5c2.5,0,5,0,7.4,0c0,0.4,0,0.9,0.1,1.4c-2.5,0-5,0-7.5,0C170.7,38.4,170.7,37.9,170.7,37.5z"/>
	<path class="st8" d="M178.2,34.1c-1,0.1-1.9,0.1-2.9,0.2c-1.5,0-3,0.1-4.6,0.1c0-0.5,0-1,0-1.4c2.5,0,5,0,7.4,0
		C178.2,33.3,178.2,33.7,178.2,34.1z"/>
	<path class="st1" d="M218.9,46.9c0.2,0,0.5,0,0.7,0c-0.1,0.9,0.5,0.9,1,0.8c1.8-0.3,3.5-0.4,5.3,0.2c0.8,0.3,1.6,0,1.8-1
		c0.6,0,1.3,0,1.9,0c-0.2,0.2-0.4,0.3-0.6,0.5c-0.8,0.5-1.5,1-2.3,1.5c-0.3,0-0.6,0-0.9,0c-0.2-0.1-0.3-0.3-0.5-0.4
		c-1.5-0.6-3-0.6-4.5-0.1C219.2,48.9,218.8,48.6,218.9,46.9z"/>
	<path class="st1" d="M218.9,46.9c-0.1,1.6,0.2,1.9,1.9,1.4c1.5-0.5,3-0.5,4.5,0.1c0.2,0.1,0.3,0.3,0.5,0.4c-2.7,0-5.4,0-8.3,0
		C218,48.1,217.4,46.8,218.9,46.9z"/>
	<path class="st9" d="M226.8,37.2c1.4-0.1,2.7-0.2,4.1-0.3c0,0.6,0.1,1.2,0.1,1.9c-1.1,0-2.2,0.2-3.2-0.1
		C227.3,38.7,227.1,37.8,226.8,37.2z"/>
	<path class="st1" d="M227.7,46.9c-0.2,1-1,1.3-1.8,1c-1.8-0.6-3.5-0.5-5.3-0.2c-0.6,0.1-1.2,0.1-1-0.8
		C222.3,46.9,225,46.9,227.7,46.9z"/>
	<path class="st1" d="M226.8,48.9c0.8-0.5,1.5-1,2.3-1.5c0.2-0.1,0.4-0.3,0.6-0.5c0.7,0,1.3,0,2,0c0,0.1,0.1,0.2,0.1,0.3
		C230.1,47.8,228.7,49.1,226.8,48.9z"/>
	<path class="st1" d="M186,48.9c0.1-0.7,0.1-1.3,0.2-2c0.4,0,0.8,0,1.3,0C187.3,47.9,187.8,49.3,186,48.9z"/>
	<path class="st1" d="M238.4,45.9c0.5,0.4,1,0.8,1.5,1.2c-0.2,0.3-0.4,0.6-0.6,1C238.3,47.2,238,46.5,238.4,45.9z"/>
	<path class="st2" d="M205.7,55.7c0,0.3-0.1,0.6-0.1,0.8c-0.1,0-0.2,0-0.3,0c0-0.3,0.1-0.5,0.1-0.8
		C205.5,55.7,205.6,55.7,205.7,55.7z"/>
	<path class="st2" d="M194.5,53.7c0.3,0.1,0.6,0.2,0.9,0.3C195.1,53.9,194.8,53.8,194.5,53.7z"/>
	<path class="st2" d="M193.5,53.4c0.2,0.1,0.5,0.2,0.7,0.3C194,53.6,193.7,53.5,193.5,53.4z"/>
	<path class="st2" d="M187.5,63.3c0.2,0.1,0.5,0.1,0.7,0.2C188,63.5,187.7,63.4,187.5,63.3z"/>
	<path class="st2" d="M191.8,63.6c0.2-0.1,0.5-0.1,0.7-0.2C192.3,63.4,192,63.5,191.8,63.6z"/>
	<path class="st2" d="M189.8,52.6c0.3,0.1,0.5,0.3,0.8,0.4C190.3,52.8,190.1,52.7,189.8,52.6z"/>
	<path class="st2" d="M184.2,61.4c0.1,0.2,0.3,0.5,0.4,0.7C184.5,61.9,184.3,61.7,184.2,61.4z"/>
	<path class="st2" d="M185.8,62.9c0.2,0.1,0.5,0.3,0.7,0.4C186.3,63.2,186,63,185.8,62.9z"/>
	<path class="st2" d="M193,49c0.1,0,0.3,0,0.4,0c0,0.2,0.1,0.3,0.1,0.5C193.3,49.3,193.2,49.1,193,49z"/>
	<path class="st2" d="M196.1,53.9c0.2,0.1,0.3,0.2,0.5,0.3C196.4,54.1,196.3,54,196.1,53.9z"/>
	<path class="st2" d="M197.3,54.2c0.2,0.1,0.3,0.1,0.5,0.2C197.6,54.4,197.5,54.3,197.3,54.2z"/>
	<path class="st2" d="M199.1,54.6c0.1,0.1,0.3,0.2,0.4,0.3C199.3,54.8,199.2,54.7,199.1,54.6z"/>
	<path class="st2" d="M184.4,60c-0.1,0.1-0.2,0.3-0.3,0.4C184.3,60.3,184.4,60.2,184.4,60z"/>
	<path class="st2" d="M194.4,63.3c0.2-0.1,0.3-0.2,0.5-0.2C194.7,63.2,194.6,63.2,194.4,63.3z"/>
	<path class="st2" d="M188.5,49c-0.1,0.2-0.2,0.3-0.2,0.5C188.3,49.3,188.4,49.1,188.5,49z"/>
	<path class="st2" d="M186.3,57.5c-0.1,0.1-0.3,0.2-0.4,0.3C186,57.7,186.1,57.6,186.3,57.5z"/>
	<path class="st2" d="M200.7,55.4c0.1,0,0.2,0.1,0.3,0.1c-0.1,0.1-0.2,0.1-0.3,0.2C200.7,55.6,200.7,55.5,200.7,55.4z"/>
	<path class="st2" d="M188.5,51.1c0.1,0.1,0.1,0.2,0.2,0.2C188.6,51.3,188.6,51.2,188.5,51.1z"/>
	<path class="st14" d="M106.5,34.5c1,1,0.8,1.8-0.1,2.6c-2.5,2.1-4.9,4.3-7.5,6.2c-1.2,0.8-2.8,1.2-4.3,1.3
		c-2.2,0.2-3.7-0.8-4.4-2.9c-0.4-1.3-0.6-2.8-0.9-4.3c-0.6,0.6-1.2,1.2-1.9,1.7c-2.5,2.3-5.2,4.2-8.5,5.3c-0.5,0.1-0.9,0.3-1.4,0.4
		c-4.3,0.8-7.2-1.4-7.8-5.8c-0.1-0.5-0.1-0.9-0.1-1.6c-0.4,0.4-0.8,0.7-1.1,1c-2.7,2.6-5.7,4.9-9.3,6.1c-0.5,0.2-0.9,0.3-1.4,0.4
		c-4.2,0.8-7.1-1.3-7.7-5.5c-0.7-4.6,1.2-8.2,4.3-11.3c2.9-2.9,6.3-4.8,10.5-4.8c1.4,0,2.8,0,3.6,1.4c0.8,1.5,0.2,2.9-0.7,4.2
		c-1.7,2.5-4.3,3.9-6.9,5.2c-1.3,0.6-2.7,1.2-4.1,1.7c-0.7,0.3-1.4,0.4-1.4,1.4c0,1,0.2,1.9,1.1,2.5c1.3,0.7,2.7,0.8,3.9,0.3
		c1.8-0.7,3.6-1.7,5.3-2.6c0.6-0.3,1.2-0.8,1.7-1.3c1.6-1.1,2.7-2.5,3.7-4.2c2.7-4.9,6.8-8,12.5-8.5c0.9-0.1,1.9,0,2.7,0.2
		c1.6,0.4,2.4,1.5,1.9,3c-0.4,1.3-1.1,2.6-2,3.6c-2.3,2.6-5.5,3.9-8.7,5.2c-0.4,0.1-0.7,0.3-1.1,0.4c-0.8,0.3-1.6,0.4-1.5,1.6
		c0.1,1.2,0.3,2.2,1.5,2.5c1.2,0.3,2.6,0.5,3.7,0.1c2.2-0.9,4.3-2.2,6.4-3.4c0.3-0.2,0.5-0.4,0.8-0.6c1.6-1,2.4-2.3,2.8-4.2
		c0.9-4.1,2.8-7.8,5.6-11c2.6-2.9,5.3-5.8,8-8.6c0.8-0.8,1.9-1.4,2.9-2c0.7-0.4,1.3-0.1,1.5,0.7c0.1,0.6,0.2,1.2,0.1,1.8
		c-0.4,5.2-3,9.3-6.2,13.1c-2.2,2.6-4.6,5-6.9,7.4c-1.5,1.6-1.5,4.6,0.1,6.1c0.8,0.8,1.8,0.8,2.8,0.6c2.4-0.6,4.3-2,6.2-3.5
		C105.1,35.7,105.8,35.1,106.5,34.5z M96.3,27.9c3.4-3.1,6-6.7,7.7-11.1C100.1,19.6,98.3,23.8,96.3,27.9z M56.2,33.2
		c3-1.1,5.6-2.7,7.5-5.4c0.1-0.1,0.2-0.3,0.2-0.4c0-0.3,0.1-0.6-0.1-0.8c-0.1-0.2-0.5-0.2-0.7-0.2C59.8,27.7,57.6,30,56.2,33.2z
		 M75.9,33.2c3-1,5.6-2.7,7.5-5.3c0.2-0.3,0.2-0.9,0.2-1.3c-0.4,0-0.9-0.1-1.2,0.1C79.3,27.9,77.2,30.2,75.9,33.2z"/>
	<path class="st15" d="M224.5,58.1c2.3-0.9,4.1-2.5,5.6-4.8c-1,0-1.8,0-2.7,0c1-2,2-3.7,4.5-3.7c0.5,0,0.9-0.6,1.4-0.9
		c0.8-0.6,1.5-1.2,2.4-1.7c0.3-0.1,0.9,0.1,1.2,0.3c0.1,0.1-0.1,0.7-0.2,1.1c-0.1,0.3-0.4,0.6-0.6,1c0.6,0.1,1.1,0.2,1.6,0.3
		c-0.8,2.1-1.7,4-4.4,3.7c-0.2,0-0.6,0.2-0.7,0.3c-0.8,1.5-1.7,3-2.4,4.5c-0.2,0.4,0,1.3,0.3,1.5c0.3,0.2,1.1,0.1,1.5-0.1
		c0.8-0.5,1.5-1.2,2.2-1.8c1.7-1.5,3.3-3,4.9-4.6c0.7-0.7,1.2-1.7,1.9-2.4c0.5-0.5,1.1-0.8,1.8-0.9c0.2,0,0.6,0.8,0.9,1.3
		c0.1,0.2,0.1,0.5,0.1,0.7c1.1,3.3-0.1,5.7-2.9,7.6c-0.1,0.1-0.2,0.2-0.3,0.4c1.3,0.3,2.3-0.3,3.2-0.9c0.9-0.6,1.8-1.3,2.7-2
		c0.6,0.7,0.4,1.2-0.2,1.6c-1.2,0.9-2.3,2-3.6,2.8c-3.1,1.9-5.8,1.3-8-1.7c-0.6,0.5-1.2,1-1.8,1.4c-1,0.6-2,1.3-3.1,1.7
		c-1.9,0.6-3.1-0.4-2.8-2.4c0.1-0.7,0.3-1.5,0.5-2.5c-1.3,1.4-2.7,2-4.3,2.1c-0.3,0-0.6,0.3-0.9,0.5c-0.7,0.4-1.4,1-2.1,1.3
		c-2.4,1-4.1,0.1-4.8-2.3c-0.1-0.3-0.1-0.5-0.2-0.9c-0.6,0.5-1,1-1.6,1.4c-1.1,0.7-2.1,1.6-3.3,2.1c-2.1,0.8-3.5-0.2-3.8-2.4
		c-0.4-2.8,0.3-5.3,1.6-7.7c1.7-3.2,4.2-5.7,6.9-8c0.4-0.3,0.9-0.3,1.4-0.5c0.1,0.5,0.4,1,0.3,1.5c-0.2,2.1-1,4-2.4,5.7
		c-1.4,1.8-3,3.4-4.5,5.1c-0.7,0.7-1,1.5-0.8,2.5c0.2,1.1,1,1.7,2.1,1.3c1.9-0.7,3.7-1.4,4.5-3.7c0.9-2.8,5.4-5.5,8.4-5.2
		c1.1,0.1,1.4,0.6,1,1.6c0,0.1-0.1,0.3-0.1,0.4c1.5,1.5,0.5,3-0.1,4.4c-0.1,0.2-0.2,0.4-0.3,0.7C224.4,58,224.4,58.1,224.5,58.1z
		 M213.9,47.5c-0.4,0.2-0.8,0.4-1.1,0.7c-1.1,1.5-2.1,3-3.1,4.6c0.1,0.1,0.3,0.2,0.4,0.3C211.7,51.5,213.1,49.8,213.9,47.5
		c0-0.1,0.1-0.1,0.1-0.1c0,0-0.1,0-0.1,0C213.9,47.4,213.9,47.5,213.9,47.5z M221.3,54.5c-1.8,0.7-3.4,1.7-4,3.7
		c-0.2,0.5,0,1.6,0.2,1.7c0.7,0.2,1.5,0.1,2.2-0.1c0.7-0.2,0.9-0.7,0.8-1.6c-0.1-0.8,0.2-1.7,0.4-2.5
		C221,55.2,221.2,54.9,221.3,54.5c0,0,0.1,0,0.2,0c0,0,0-0.1,0-0.1C221.4,54.4,221.3,54.4,221.3,54.5z M240.5,53.7
		c-1.4,1.3-2.7,2.6-4,3.7c0.8,0.7,1.5,1.3,2.1,1.9C240.9,58.2,241.3,57,240.5,53.7z"/>
	<path class="st16" d="M191.5,44.6c4.5-2.5,9.3-3.6,14.4-2.8c0.6,0.1,1.7,0.5,1.7,0.7c0,1-0.1,2.4-0.7,2.8c-1.5,1.1-3.3,1.9-5,2.7
		c-0.1,0.1-0.4-0.1-0.8-0.2c0.6-0.7,1.1-1.3,1.6-1.9c-1.5-1-7.8,0.7-9.9,2.7c-0.8,0.7-0.5,1.1,0.3,1.3c2,0.6,4,1.1,6,1.6
		c1.2,0.3,2.4,0.6,3.5,1.2c2.4,1.2,2.9,3.6,1.2,5.7c-0.9,1-2.2,1.9-3.5,2.4c-4.1,1.7-8.4,1.9-12.7,1.6c-0.4,0-0.8-0.1-1.2-0.3
		c-1.4-0.4-1.6-1.2-1-2.5c0.8-1.7,2.2-2.3,4.2-2.5c-0.4,0.5-0.7,0.8-1,1.2c0.1,0.1,0.3,0.2,0.4,0.2c3.4,0.1,6.9-0.1,10.1-1.3
		c0.8-0.3,1.5-0.7,2.2-1.2c0.9-0.6,0.8-1.2-0.2-1.5c-1.5-0.6-3-1-4.6-1.4c-1.7-0.4-3.5-0.6-5.2-1c-1.9-0.4-2.5-1.4-2.2-3.3
		C189.5,47.3,189.8,45.6,191.5,44.6z M203,45.8c-0.1-0.1-0.2-0.2-0.2-0.2c-0.1,0-0.2,0-0.2,0.1c0,0.1,0,0.2,0.1,0.3
		C202.8,45.9,202.9,45.9,203,45.8z"/>
	<path class="st2" d="M205,57.4c0-0.1,0.1-0.3,0.1-0.4c0.1,0,0.2,0.1,0.3,0.1c-0.1,0.1-0.1,0.2-0.2,0.4
		C205.1,57.5,205.1,57.4,205,57.4z"/>
	<path class="st0" d="M226.1,56.2c-0.1,0-0.2,0.1-0.3,0.1c0,0-0.1-0.1-0.1-0.1c0.1,0,0.2-0.1,0.3-0.1
		C226,56.1,226.1,56.2,226.1,56.2z"/>
	<path class="st17" d="M17.2,17.9c1.1,0.1,2.2,0.2,3.3,0.3c0.3,0,0.5,0.4,0.8,0.5c-0.3,0.2-0.5,0.6-0.8,0.6c-3.2,0.4-6.4,0.8-9.6,1
		c-1.7,0.1-2.3-0.6-1.9-2.3c1-3.9,3-6.9,7.1-8.3C23.6,7.3,31.2,6.3,39,6.5c2.9,0.1,5.8,0.7,8.6,1.2c0.9,0.2,1.8,0.7,2.6,1.2
		c2.4,1.4,3.3,3.6,2.9,6.3c-0.9,5.4-3.9,9-9.1,10.4c-4.9,1.3-9.9,2.1-14.9,3.2c-2.2,0.5-4.5,0.8-7,1.3c0.5,0.2,0.8,0.4,1.1,0.4
		c6,2,12.1,3.9,18.1,5.9c1.1,0.4,2.1,0.9,3.2,1.4c2.3,1.3,3.6,4.4,2.8,6.9c-0.3,0.9-0.9,1.4-1.8,1.1c-1-0.3-2.1-0.7-3.1-1
		c-7.6-2.9-15.2-5.7-22.8-8.6c-0.6-0.2-0.9-0.2-1.3,0.4c-1.3,1.9-2.6,3.8-3.8,5.6c-0.2,0.3-0.3,0.6-0.4,0.8
		c-0.3,1.9-2.1,3.6-3.9,3.7c-1,0.1-1.6-0.4-1.4-1.4C8.8,44.6,9,43.7,9.5,43c1.6-2.8,3.4-5.6,5.1-8.5c-0.3-0.1-0.4-0.2-0.6-0.3
		c-2.2-0.9-2.5-1.6-1.3-3.7c1.4-2.4,3.7-3.4,6.3-3.7c1.1-0.1,1.8-0.5,2.5-1.5c2.1-3.2,4.3-6.3,6.4-9.4c0.2-0.3,0.4-0.6,0.5-1.2
		c-3.7,0.9-7.5,1.7-11.2,2.6C17.1,17.6,17.2,17.8,17.2,17.9z M32,14.4c-0.9,4.3-4.2,7.2-6,10.9c0.4-0.1,0.8-0.2,1.2-0.3
		c3.3-0.8,6.5-1.7,9.8-2.5c3.1-0.8,6.1-1.8,8.7-3.5c1-0.7,2-1.4,2.9-2.3c1-1.1,0.8-2.1-0.7-2.5c-1.2-0.3-2.5-0.6-3.8-0.5
		C40.1,13.9,36,14.2,32,14.4z"/>
	<path class="st5" d="M131.9,27.1c0-4.2,0-8.4,0-12.7c2.3,0,4.5,0,6.8,0c0.2,0,0.5,0.3,0.6,0.5c2.5,4,5,8,7.4,12
		c-0.4,0.1-0.8,0.2-1.2,0.2c-1.9,0.1-3.9,0.1-5.9,0.1c-0.6-0.9-1.2-1.9-1.9-3c0.1,1.1,0.2,2,0.2,2.8C136,27.1,134,27.1,131.9,27.1z"
		/>
	<path class="st3" d="M147.1,26.9c-0.2-4.1-0.4-8.2-0.6-12.4c2.3,0,4.2,0,6.3,0c0,4.3,0,8.5,0,12.7c-1.3,0-2.6,0.1-3.9,0
		C148.3,27.1,147.7,27,147.1,26.9z"/>
	<path class="st7" d="M147.1,26.9c0.6,0.1,1.2,0.3,1.8,0.3c1.3,0,2.6,0,3.9,0c0,1.1,0,2.1,0,3.2c-2.5,0-5,0-7.5,0
		c-1.3,0-2.5,0.2-3.8,0.3c-0.6-1.1-1.3-2.2-1.9-3.2c2,0,3.9-0.1,5.9-0.1c0.4,0,0.8-0.2,1.2-0.2C146.9,26.9,147,26.9,147.1,26.9z"/>
	<path class="st12" d="M141.6,30.5c1.3-0.1,2.5-0.2,3.8-0.3c2.5,0,5,0,7.5,0c0,0.7,0,1.4,0,2.1c-1.6,0-3.1,0-4.7,0
		c-1.8,0-3.6,0-5.4,0C142.4,31.8,142,31.2,141.6,30.5z"/>
	<path class="st8" d="M142.8,32.5c1.8,0,3.6,0,5.4,0c1.6,0,3.1,0,4.7,0c0,0.6,0,1.1,0,1.7c-3,0-6,0-9,0
		C143.5,33.6,143.1,33,142.8,32.5z"/>
	<path class="st6" d="M131.9,27.1c2,0,4.1,0,6.1,0c0,0.8,0,1.6,0,2.5c-2,0-4,0-6.1,0C131.9,28.7,131.9,27.9,131.9,27.1z"/>
	<path class="st10" d="M143.8,34.1c3,0,6,0,9,0c0,0.5,0,1,0,1.4c-2.1,0-4.2,0-6.3,0c-0.5,0-1,0.3-1.5,0.5
		C144.6,35.4,144.2,34.8,143.8,34.1z"/>
	<path class="st11" d="M145,36.1c0.5-0.2,1-0.5,1.5-0.5c2.1-0.1,4.2,0,6.3,0c0,0.6,0,1.1,0,1.7c-2.4,0-4.7,0-7.1,0
		C145.5,36.8,145.3,36.4,145,36.1z"/>
	<path class="st12" d="M131.9,32.9c0-0.6,0-1.3,0-1.9c2,0,4,0,6,0c0,0.6,0,1.3,0,1.9C136,32.9,134,32.9,131.9,32.9z"/>
	<path class="st9" d="M145.8,37.2c2.4,0,4.7,0,7.1,0c0,0.5,0,1,0,1.7c-1.9,0-3.9,0.1-5.7-0.1C146.6,38.8,146.2,37.8,145.8,37.2z"/>
	<path class="st9" d="M137.9,38.9c-1.9,0-3.9,0-6,0c0-0.5,0-1.1,0-1.6c2,0,4,0,5.9,0C137.8,37.8,137.8,38.3,137.9,38.9z"/>
	<path class="st10" d="M137.9,38.9c0-0.5,0-1.1,0-1.6c0-0.5,0-0.9,0-1.5c-2.1,0-4,0-5.9,0c0-0.5,0-1,0-1.4c2,0,4,0,6,0
		C137.9,35.9,137.9,37.4,137.9,38.9z"/>
	<path class="st13" d="M138,31c-2,0-4,0-6,0c0-0.5,0-1,0-1.4c2,0,4,0,6.1,0C138,30,138,30.5,138,31z"/>
	<path class="st8" d="M138,34.4c-2,0-4,0-6,0c0-0.5,0-1,0-1.4c2,0,4,0,6,0C138,33.4,138,33.9,138,34.4z"/>
	<path class="st11" d="M131.9,35.8c1.9,0,3.8,0,5.9,0c0,0.5,0,1,0,1.5c-2,0-4,0-5.9,0C131.9,36.7,131.9,36.3,131.9,35.8z"/>
	<path class="st4" d="M96.3,27.9c1.9-4.1,3.8-8.3,7.7-11.1C102.4,21.2,99.8,24.8,96.3,27.9z"/>
	<path class="st4" d="M56.2,33.2c1.4-3.2,3.6-5.5,6.9-6.7c0.2-0.1,0.6,0,0.7,0.2c0.1,0.2,0.1,0.5,0.1,0.8c0,0.1-0.1,0.3-0.2,0.4
		C61.8,30.5,59.2,32.1,56.2,33.2z M62.7,27.5c-2,0.8-3.6,2.2-4.8,3.9c0,0.1-0.1,0.2-0.1,0.3c0.1,0,0.2,0,0.3,0c1.8-1,3.5-2.2,4.7-4
		c0-0.1,0.1-0.2,0.1-0.2C62.9,27.5,62.8,27.5,62.7,27.5z"/>
	<path class="st4" d="M75.9,33.2c1.3-3.1,3.4-5.3,6.5-6.5c0.4-0.1,0.8,0,1.2-0.1c-0.1,0.4,0,1-0.2,1.3
		C81.5,30.5,78.9,32.2,75.9,33.2z M82.4,27.5c-2,0.8-3.5,2.1-4.5,4c1.9-0.8,3.5-2,4.7-3.7c0-0.1,0.1-0.2,0.1-0.3
		C82.6,27.5,82.5,27.5,82.4,27.5z M77.7,31.6C77.7,31.6,77.6,31.5,77.7,31.6c-0.1-0.1-0.1,0-0.1,0C77.6,31.6,77.6,31.6,77.7,31.6
		C77.7,31.6,77.7,31.6,77.7,31.6z"/>
	<path class="st4" d="M221.3,54.5c-0.1,0.4-0.3,0.8-0.3,1.2c-0.2,0.8-0.5,1.7-0.4,2.5c0.1,0.9-0.1,1.4-0.8,1.6
		c-0.7,0.2-1.5,0.3-2.2,0.1c-0.2-0.1-0.4-1.2-0.2-1.7C217.9,56.2,219.5,55.2,221.3,54.5L221.3,54.5z M219.8,56.3
		c-0.1-0.1-0.2-0.1-0.3-0.2c-0.5,0.7-1.1,1.5-1.5,2.2c-0.1,0.3-0.1,0.9,0,1c0.3,0.1,0.8,0.1,1.1,0c0.3-0.1,0.6-0.5,0.7-0.8
		C219.9,57.7,219.8,57,219.8,56.3z"/>
	<path class="st4" d="M240.5,53.7c0.8,3.3,0.4,4.5-1.8,5.6c-0.7-0.6-1.4-1.2-2.1-1.9C237.7,56.3,239.1,55,240.5,53.7z M238.7,58.4
		c1.5-1,1.8-1.9,1.1-3.1c-0.7,0.7-1.4,1.3-2.1,2C238.1,57.7,238.4,58,238.7,58.4z"/>
	<path class="st4" d="M213.8,47.5c-0.7,2.3-2.2,4-3.7,5.6c-0.1-0.1-0.3-0.2-0.4-0.3c1-1.5,2-3.1,3.1-4.6
		C213,48,213.5,47.8,213.8,47.5L213.8,47.5z"/>
	<path class="st4" d="M221.3,54.5c0,0,0.1-0.1,0.1-0.1c0,0,0,0.1,0,0.1C221.4,54.5,221.3,54.5,221.3,54.5
		C221.3,54.5,221.3,54.5,221.3,54.5z"/>
	<path class="st4" d="M213.9,47.5c0,0,0-0.1,0-0.1c0,0,0.1,0,0.1,0C213.9,47.5,213.9,47.5,213.9,47.5L213.9,47.5z"/>
	<path class="st2" d="M203,45.8c-0.2,0.1-0.3,0.1-0.4,0.2c0-0.1-0.1-0.2-0.1-0.3c0,0,0.1-0.1,0.2-0.1
		C202.9,45.6,202.9,45.7,203,45.8z"/>
	<path class="st4" d="M32,14.4c4-0.2,8.1-0.5,12.1-0.6c1.3,0,2.5,0.2,3.8,0.5c1.5,0.4,1.8,1.3,0.7,2.5c-0.8,0.9-1.8,1.7-2.9,2.3
		c-2.7,1.7-5.7,2.7-8.7,3.5c-3.3,0.8-6.6,1.7-9.8,2.5c-0.4,0.1-0.7,0.2-1.2,0.3C27.8,21.6,31.1,18.8,32,14.4z M27.5,24.2
		c0.6-0.1,0.8-0.1,1-0.2c3.5-0.9,7.2-1.7,10.6-2.9c2.7-0.9,5.2-2.4,7.7-3.7c0.7-0.4,1.1-1.2,1.9-2c-1.2-0.3-1.9-0.7-2.7-0.7
		c-4.3,0.1-8.7,0.3-13,0.5c-0.2,0-0.5,0.4-0.7,0.6c-0.5,1.1-0.9,2.2-1.5,3.2C29.9,20.7,28.8,22.3,27.5,24.2z"/>
	<path class="st18" d="M63,27.5c0,0.1-0.1,0.2-0.1,0.2"/>
</g>
</svg>
