<?xml version="1.0" encoding="utf-8"?>
<!-- Generator: Adobe Illustrator 22.1.0, SVG Export Plug-In . SVG Version: 6.00 Build 0)  -->
<svg version="1.1" id="Layer_1" xmlns="http://www.w3.org/2000/svg" xmlns:xlink="http://www.w3.org/1999/xlink" x="0px" y="0px"
	 viewBox="0 0 196.9 197.7" style="enable-background:new 0 0 196.9 197.7;" xml:space="preserve">
<style type="text/css">
	.st0{fill:url(#SVGID_1_);}
	.st1{fill:url(#SVGID_2_);}
</style>
<linearGradient id="SVGID_1_" gradientUnits="userSpaceOnUse" x1="252.3917" y1="-308.2628" x2="68.7491" y2="-308.3192" gradientTransform="matrix(-0.851 0.5252 0.5252 0.851 375.6039 246.5475)">
	<stop  offset="0" style="stop-color:#B5DAF4"/>
	<stop  offset="0.274" style="stop-color:#22B3E9"/>
	<stop  offset="1" style="stop-color:#2A3180"/>
</linearGradient>
<path class="st0" d="M31.4,32.7c36.4-36.1,95.1-35.9,131.2,0.4c6.7,6.8,6.7,17.8-0.1,24.5s-17.8,6.7-24.5-0.1c0,0,0,0,0,0
	c-22.6-22.8-59.4-22.9-82.2-0.3c-22.8,22.6-22.9,59.4-0.3,82.2c-6.7-6.8-17.7-6.8-24.5-0.1c-6.8,6.7-6.8,17.7-0.1,24.5
	C-5.2,127.6-5,68.8,31.4,32.7z"/>
<linearGradient id="SVGID_2_" gradientUnits="userSpaceOnUse" x1="66.7448" y1="-236.5471" x2="250.3873" y2="-236.4907" gradientTransform="matrix(-0.851 0.5252 0.5252 0.851 375.6039 246.5475)">
	<stop  offset="0" style="stop-color:#B5DAF4"/>
	<stop  offset="0.274" style="stop-color:#22B3E9"/>
	<stop  offset="1" style="stop-color:#2A3180"/>
</linearGradient>
<path class="st1" d="M31,139.4c0.4-0.4,0.9-0.8,1.3-1.2c0.8-0.6,1.6-1.1,2.4-1.6c0.2-0.1,0.3-0.2,0.5-0.3c5-2.6,11-2.6,16,0
	c0,0,0.1,0,0.1,0.1c0.5,0.2,0.9,0.5,1.4,0.8c0,0,0.1,0,0.1,0.1c0.5,0.3,0.9,0.6,1.4,1c0,0,0,0,0,0c0.4,0.3,0.8,0.7,1.1,1
	c0.1,0.1,0.1,0.1,0.2,0.2c0,0,0,0,0,0c22.6,22.8,59.4,22.9,82.2,0.3c22.8-22.6,22.9-59.4,0.3-82.2c6.7,6.8,17.7,6.8,24.5,0.1
	c6.8-6.7,6.8-17.7,0.1-24.5c36.1,36.4,35.9,95.1-0.4,131.2S67,200.3,30.9,163.9C24.2,157.1,24.2,146.2,31,139.4z"/>
</svg>
