<?xml version="1.0" encoding="utf-8"?>
<!-- Generator: Adobe Illustrator 22.1.0, SVG Export Plug-In . SVG Version: 6.00 Build 0)  -->
<svg version="1.1" id="katman_1" xmlns="http://www.w3.org/2000/svg" xmlns:xlink="http://www.w3.org/1999/xlink" x="0px" y="0px"
	 viewBox="0 0 48 69.9" style="enable-background:new 0 0 48 69.9;" xml:space="preserve">
<style type="text/css">
	.st0{fill:#E03A5C;}
	.st1{fill:#B0CA43;}
</style>
<g>
	<path class="st0" d="M15.4,32.3c1.1-2.8,2.1-5.3,3.1-7.9c0.1-0.2,0.4-0.5,0.6-0.5c4.2-0.2,8.5-0.1,12.5,1.3
		c5.8,2.1,10.1,6,12.8,11.7c1.4,2.9,2.1,6,2.1,9.3c0,9.1-4,15.8-11.9,20.3c-2.6,1.5-5.5,2.2-8.5,2.6c-3.3,0.4-6.6,0-9.7-1.1
		C10.2,65.7,5.7,61.4,3,55.2c-1.4-3.1-1.9-6.4-1.8-9.8c0-0.7,0.2-1,1-1c2.5,0,5,0,7.5,0c0,0.7-0.1,1.4-0.1,2.1
		c0.1,6.4,4,12.2,10.9,14c6.6,1.8,14-1.8,16.6-8.5c2.8-7,0-15-7.2-18.3c-2.1-1-4.4-1.3-6.7-1.3C20.7,32.3,18.2,32.3,15.4,32.3z"/>
	<path class="st1" d="M5.7,0.7c10.4,0,20.7,0,31,0c-0.8,2-1.5,3.9-2.2,5.8c-1.6,4.3-3.3,8.5-4.9,12.8c-0.2,0.6-0.5,0.8-1.1,0.8
		c-2.4,0-4.9,0-7.3,0c-0.2,0-0.5,0-0.9-0.1c1.4-3.7,2.8-7.3,4.2-10.9c-1.5,0-2.9,0-4.3,0c-2,0-4,0-5.9,0C10.3,9.1,6.7,6,6.1,2.6
		C6,2,5.8,1.4,5.7,0.7z"/>
</g>
</svg>
