<?xml version="1.0" encoding="utf-8"?>
<!-- Generator: Adobe Illustrator 22.1.0, SVG Export Plug-In . SVG Version: 6.00 Build 0)  -->
<svg version="1.1" id="katman_1" xmlns="http://www.w3.org/2000/svg" xmlns:xlink="http://www.w3.org/1999/xlink" x="0px" y="0px"
	 viewBox="0 0 205.7 59.6" style="enable-background:new 0 0 205.7 59.6;" xml:space="preserve">
<style type="text/css">
	.st0{fill:#FFFFFF;}
</style>
<path class="st0" d="M205.4,0.4h-86.4v3.3h3v39.6h19.6v-8h-11V3.8h74.9V0.4z M0.4,8.5v8.2h6.3v33.2h8.6V16.6h6.3V8.5H0.4z M93.2,8.5
	v41.3h19.6v-8h-11v-8.6h8.7v-8h-8.7v-8.6h11V8.5H93.2z M199.3,28c1.7-2,2.7-4.7,2.7-7.5c0-6.6-5.4-11.9-11.9-11.9h-9.3v41.3h9.4
	c7.1,0,12.9-5.8,12.9-12.8C203.1,33.5,201.7,30.3,199.3,28z M189.7,16.6c2.1,0,3.9,1.7,3.9,3.9c0,2.1-1.7,3.9-3.9,3.9h-0.1v-7.6h0.1
	V16.6z M194.6,37.1c0,2.7-2.1,4.7-4.7,4.7h-0.4v-9.5h0.4C192.5,32.3,194.6,34.4,194.6,37.1z M38.5,8.5c8.5,0,15.2,6.8,15.2,15.1
	c0,4.8-2.1,9-5.6,11.8l7.2,14.4h-9.5l-5.5-11.2c-0.7,0.1-1.2,0.1-1.7,0.1h-0.7v11.1h-8.6V8.5h3.2H38.5z M37.8,16.6v14v0.1h0.1
	c3.9,0,7.1-3.2,7.1-7.1c0-3.9-3.2-7.1-7.1-7.1H37.8z M76.7,39.1c0,2.1-1.7,3.9-3.9,3.9c-2.1,0-4-1.7-4-3.9V8.5h-8.6v30
	c0,6.8,5.6,12.4,12.5,12.4c6.8,0,12.5-5.6,12.5-12.4v-30h-8.6v30.6H76.7z M173.6,55.7h31.8V59h-86.4v-3.3h26.4l8.9-40.8h10.5
	L173.6,55.7z M164.8,55.7l-1-4.1H155l-1,4.1H164.8z M159.6,30.7l-2.7,12.7h5.4L159.6,30.7z"/>
</svg>
