<?xml version="1.0" encoding="utf-8"?>
<!-- Generator: Adobe Illustrator 22.1.0, SVG Export Plug-In . SVG Version: 6.00 Build 0)  -->
<svg version="1.1" id="Layer_1" xmlns="http://www.w3.org/2000/svg" xmlns:xlink="http://www.w3.org/1999/xlink" x="0px" y="0px"
	 viewBox="0 0 224.7 70.1" style="enable-background:new 0 0 224.7 70.1;" xml:space="preserve">
<style type="text/css">
	.st0{fill:#EA0A0A;}
</style>
<path class="st0" d="M77,3.9v62.4c0,3.4,4.1,5.1,6.5,2.7L146,6.5c2.4-2.4,0.7-6.5-2.7-6.5L80.8,0.1C78.7,0.1,77,1.8,77,3.9z"/>
<path class="st0" d="M70.1,3.9v62.4c0,3.4-4.1,5.1-6.5,2.7L1.1,6.5C-1.3,4.1,0.4,0,3.8,0l62.5,0.1C68.4,0.1,70.1,1.8,70.1,3.9z"/>
<path class="st0" d="M154.6,3.9v62.4c0,3.4,4.1,5.1,6.5,2.7l62.5-62.5c2.4-2.4,0.7-6.5-2.7-6.5l-62.5,0.1
	C156.3,0.1,154.6,1.8,154.6,3.9z"/>
</svg>
