<?xml version="1.0" encoding="utf-8"?>
<!-- Generator: Adobe Illustrator 22.1.0, SVG Export Plug-In . SVG Version: 6.00 Build 0)  -->
<svg version="1.1" id="katman_1" xmlns="http://www.w3.org/2000/svg" xmlns:xlink="http://www.w3.org/1999/xlink" x="0px" y="0px"
	 viewBox="0 0 271.8 65.5" style="enable-background:new 0 0 271.8 65.5;" xml:space="preserve">
<style type="text/css">
	.st0{fill:#FFFFFF;}
	.st1{fill-rule:evenodd;clip-rule:evenodd;fill:#FFFFFF;}
</style>
<g>
	<path class="st0" d="M1.8,64c0-20.9,0-41.6,0-62.5c170.2,0,98.3,0,268.6,0c0,20.4,0,39,0,62.5C100.4,64,172.3,64,1.8,64z M6.6,59.2
		c86.4,0,172.6,0,258.8,0c0-17.9,0-35.5,0-53.2C179.1,6,93,6,6.6,6C6.6,23.9,6.6,41.4,6.6,59.2z M265.5,42.1c0-12.2,0-24.1,0-36
		 M265.5,59.3c0-5.1,0-10,0-14.7"/>
	<path class="st0" d="M12.3,15.6c4.1,0,7.2,0,10.7,0c3.2,6.9,6.4,13.7,10,21.4c2.4-5.2,4.6-9.7,6.7-14.3c1.4,0,2.7,0,4.2,0
		c2.1,4.5,4.2,9,6.7,14.4c3.6-7.6,6.8-14.4,10-21.3c3.3,0,6.5,0,10.6,0C65.6,28,60.1,39.9,54.7,51.8c-2.5,0-4.6,0-7,0
		c-1.8-3.9-3.6-7.7-5.8-12.2c-2.2,4.5-4.1,8.3-6,12.2c-2.3,0-4.4,0-6.9,0C23.5,39.9,18,28.1,12.3,15.6z"/>
	<path class="st0" d="M195.9,51.7"/>
	<path class="st0" d="M254.2,23.8c-4.1,0-8,0-12.1,0c0,1.9,0,3.4,0,5.4c3.7,0,7.2,0,11.1,0c0,2.9,0,5.1,0,8c-3.5,0-7,0-11,0
		c0,2.3,0,4,0,6.2c3.8,0,7.8,0,12.1,0c0,3,0,5.6,0,8.4c-7.2,0-14.4,0-22,0c0-12,0-23.7,0-35.8c7.2,0,14.4,0,22,0
		C254.2,18.1,254.2,20.5,254.2,23.8z"/>
	<path class="st0" d="M105.3,37.3c-3.5,0-6.8,0-10.6,0c-0.1,2.1-0.2,3.8-0.3,6c4.2,0,8.1,0,12.4,0c0,3,0,5.6,0,8.4
		c-7.4,0-14.6,0-22,0c0-12,0-23.7,0-35.9c7.3,0,14.5,0,22.1,0c0,2.3,0,4.7,0,7.7c-4,0-7.9,0-12.1,0c0,2.1,0,3.6,0,5.7
		c3.5,0,6.9,0,10.5,0C105.3,32,105.3,34.3,105.3,37.3z"/>
</g>
<path class="st1" d="M151,15.5l-17.1,36.3h9.4c0,0,1-2.1,2.5-5.2l14.9,0c1.5,3.1,2.5,5.2,2.5,5.2h9.4l-17.1-36.3 M149.1,39.3
	c1.3-2.6,2.6-5.5,3.9-8.3l0.1-0.2c1.3,2.8,2.7,5.7,4,8.5L149.1,39.3z"/>
<path class="st1" d="M218.1,51.6l-8-13c0,0,4.1-3.9,4-10c-0.6-9.7-10-13-10-13h-18v36h9v-10h6l6,10 M202.1,34.6h-7v-11h8
	c0,0,2.9,1.6,3,6C206.2,33.3,202.1,34.6,202.1,34.6z"/>
</svg>
