<?xml version="1.0" encoding="utf-8"?>
<!-- Generator: Adobe Illustrator 22.1.0, SVG Export Plug-In . SVG Version: 6.00 Build 0)  -->
<svg version="1.1" id="katman_1" xmlns="http://www.w3.org/2000/svg" xmlns:xlink="http://www.w3.org/1999/xlink" x="0px" y="0px"
	 viewBox="0 0 67.1 66.3" style="enable-background:new 0 0 67.1 66.3;" xml:space="preserve">
<style type="text/css">
	.st0{fill:#C2C1C0;}
</style>
<g>
	<path class="st0" d="M59.1,42.6c-10.8-0.8-19.8-5.2-27.3-13c-5.2,5.6-11.5,9.5-18.8,11.5c-2.8,0.8-7.1,1.5-8.6,1.3
		c-0.4-2.1-0.8-4.3-1.2-6.6c3.6-0.2,7.1-0.8,10.4-2c-3-2.5-6.2-4.2-9.9-5.4c0.7-2.1,1.4-4.3,2.1-6.4c5.6,1.8,10.3,4.7,14.4,8.6
		c2.4-1.5,4.5-3.3,6.5-5.4c-6.7-1.3-12.3-4.4-17-9.4c1.6-1.6,3.2-3.1,4.9-4.7c2.7,2.9,5.8,5.1,9.6,6.4c-1.3-3.4-2.2-6.7-2.7-10.3
		c2.2-0.6,4.3-1.1,6.6-1.7c0.5,4.4,1.7,8.5,3.8,12.4c2.1-3.9,3.3-8,3.8-12.4c2.2,0.6,4.4,1.1,6.6,1.7c-0.4,3.6-1.4,6.9-2.7,10.3
		c3.8-1.4,6.8-3.5,9.5-6.3c1.8,1.3,3.4,2.9,4.9,4.7c-4.6,5-10.2,8-16.9,9.3c2,2.1,4.1,3.9,6.5,5.4c2.9-2.8,6-5.1,9.6-6.7
		c1.5-0.7,3-1.3,4.6-1.9c1,2.1,1.7,4.2,2.1,6.5c-3.6,1.2-6.8,2.9-9.9,5.5c1.8,0.5,3.5,1,5.2,1.3s3.4,0.5,5.2,0.7
		C60.3,38.2,59.8,40.4,59.1,42.6z"/>
	<path class="st0" d="M18.8,40.3c2-1.1,4-2.2,6-3.3c2.3,3,4.6,6,7,9.1c2.4-3.1,4.7-6.1,7-9.1c2,1.1,4,2.2,6,3.3
		c-1.1,1.5-2.2,2.9-3.4,4.4c-2,2.6-4,5.2-5.9,7.8c-0.2,0.3-0.3,0.7-0.3,1c0,2.7,0,5.4,0,8.2c0,0.3,0,0.5,0,0.9c-2.2,0-4.4,0-6.7,0
		c0-3.2,0-6.4,0-9.6C25.3,48.7,22.1,44.5,18.8,40.3z"/>
</g>
</svg>
