<?xml version="1.0" encoding="utf-8"?>
<!-- Generator: Adobe Illustrator 22.1.0, SVG Export Plug-In . SVG Version: 6.00 Build 0)  -->
<svg version="1.1" id="logo" xmlns="http://www.w3.org/2000/svg" xmlns:xlink="http://www.w3.org/1999/xlink" x="0px" y="0px"
	 viewBox="0 0 411 152.5" style="enable-background:new 0 0 411 152.5;" xml:space="preserve">
<style type="text/css">
	.st0{fill:#FFFFFF;}
	.st1{fill:#403366;}
</style>
<g>
	<path class="st0" d="M162,26c0.3-0.1,0.2-0.3,0.2-0.5c0.5-2.3,1.8-4,3.7-5.4c0.1-0.1,0.2-0.1,0.3-0.1c0,0.2-0.1,0.4-0.2,0.6
		c-0.2,0.5-0.3,1-0.4,1.5c-0.3,1.5,0.2,2.7,1.5,3.4c0.7,0.4,1.4,0.6,2.1,0.9c3.5,1.3,7,2.5,10.5,3.8c0.8,0.3,1.5,0.5,2.2,0.9
		c2.7,1.6,4.1,3.9,4.2,6.9c0.1,2.5,0,5.1,0.1,7.7c0.1,1.5,0,3.1,0,4.6c0,0.8,0,1.7,0,2.5c-0.1,0.2-0.2,0.4-0.2,0.6
		c0,1.9,0,3.8,0.1,5.7c0.1,1.5,0,3,0,4.5c0,0.9,0,1.9-0.1,2.8c-0.3,2-1.9,3.6-3.9,4.1c-1,0.2-2,0.2-3-0.2c-3.8-1.3-7.6-2.7-11.4-4.2
		c-2-0.8-3.7-2.1-4.8-4c-0.4-0.7-0.6-1.5-0.8-2.3c0-0.2,0-0.4-0.2-0.5C162,48.3,162,37.1,162,26z"/>
	<path class="st1" d="M246.3,17.1c1.7,1,2.8,2.5,3.4,4.4c0.2,0.8,0.3,1.5,0.3,2.3c0,3.2,0,6.4-0.1,9.7c-0.1,3-0.1,6-0.2,9.1
		c-0.1,3.7-0.2,7.4-0.3,11.2c0,1.1,0,2.2-0.2,3.3c-0.4,2.3-1.7,4-3.7,5.2c-1.4,0.9-3,1.6-4.6,2.1c-8,2.8-16.1,5.7-24.1,8.6
		c-1,0.4-2.1,0.6-3.2,0.5c-2-0.1-3.4-1.1-4.2-2.9c-0.3-0.7-0.5-1.5-0.5-2.3c0-0.2,0-0.4,0-0.5c0-8.6,0-17.2,0-25.8
		c0-1.7,0.3-3.2,1.1-4.7c1.1-2,2.8-3.2,4.8-3.9c1.9-0.7,3.7-1.3,5.6-1.9c1.9-0.7,3.7-1.4,5.6-2.1c0.9-0.2,1.7-0.6,2.6-0.9
		c2.9-1.1,5.9-2.1,8.8-3.1c2.2-0.8,4.4-1.6,6.6-2.4c0.8-0.3,1.5-0.7,1.9-1.4c0.4-0.6,0.5-1.3,0.5-2
		C246.4,18.6,246.4,17.8,246.3,17.1z"/>
	<path class="st1" d="M186.3,52.9c0-0.8,0-1.7,0-2.5c0-1.5,0.1-3.1,0-4.6c-0.1-2.6,0-5.1-0.1-7.7c-0.2-3-1.6-5.4-4.2-6.9
		c-0.7-0.4-1.5-0.7-2.2-0.9c-3.5-1.3-7-2.5-10.5-3.8c-0.7-0.3-1.4-0.5-2.1-0.9c-1.3-0.8-1.8-1.9-1.5-3.4c0.1-0.5,0.2-1,0.4-1.5
		c0.1-0.2,0.2-0.4,0.2-0.6c0.7-0.7,1.6-1,2.5-1.4c7.4-2.7,14.9-5.3,22.3-8c1.3-0.5,2.6-0.9,3.9-1.4c1.1-0.4,2.1-0.6,3.2-0.6
		c2,0.1,3.4,1,4.2,2.9c0.4,1,0.6,2,0.6,3c0,8.6,0,17.2,0,25.9c0,2.2-0.6,4.3-2.1,6c-1.1,1.3-2.5,2.1-4.1,2.6
		C193.3,50.3,189.8,51.5,186.3,52.9C186.5,52.9,186.4,52.9,186.3,52.9z"/>
	<path class="st0" d="M246.3,17.1c0.1,0.8,0.1,1.6,0.1,2.3c0,0.7-0.1,1.4-0.5,2c-0.5,0.7-1.2,1.1-1.9,1.4c-2.2,0.8-4.4,1.6-6.6,2.4
		c-2.9,1-5.9,2.1-8.8,3.1c-0.8,0.3-1.7,0.7-2.6,0.9c0-1.4,0-2.9-0.1-4.3c-0.1-2.4-0.1-4.9-0.1-7.3c0-0.4,0.1-0.8,0.1-1.1
		c-0.1-2.2,1.6-4.1,3.7-4.7c1.1-0.3,2.2-0.3,3.3,0.1c2.5,0.8,5,1.8,7.5,2.8c1.6,0.6,3.2,1.2,4.8,1.9
		C245.5,16.6,245.9,16.8,246.3,17.1z"/>
</g>
<g>
	<path class="st0" d="M5.6,77.6c0-4.2,3.4-7.7,7.7-7.7c4.2,0,7.7,3.5,7.7,7.7c0,4.3-3.4,7.7-7.7,7.7C9.1,85.3,5.6,81.9,5.6,77.6z
		 M6.6,90.3h13.5v42.8H6.6V90.3z"/>
	<path class="st0" d="M66.3,122.2v10.9H26.4v-6.5L46.2,101H27.7V90.3h38.4v6.3l-20.3,25.6C45.8,122.2,66.3,122.2,66.3,122.2z"/>
	<path class="st0" d="M71.7,90.3h13.2v3c3.2-3,7.9-4.2,12-4.2c11.7,0,19.7,8.8,19.7,22.6c0,13.6-7.9,22.4-20.2,22.4
		c-3.8,0-8.5-0.9-11.5-4.6V147H71.7V90.3z M102.7,111.7c0-7-3.9-10.6-9.5-10.6c-3.5,0-7,1.6-8.5,4.5v12c1.7,3.4,4.8,4.8,8.3,4.8
		C99,122.4,102.7,118.3,102.7,111.7z"/>
	<path class="st0" d="M121.6,111.7c0-13.8,8-22.6,19.8-22.6c4.1,0,8.8,1.2,12,4.2v-3h13.3v42.8h-13v-3.6c-3,3.7-8,4.6-11.7,4.6
		C129.4,134.2,121.6,125.3,121.6,111.7z M153.6,117.6v-12c-1.6-2.9-5-4.5-8.6-4.5c-5.5,0-9.5,3.7-9.5,10.6c0,6.6,3.7,10.7,9.8,10.7
		C148.8,122.4,151.9,121,153.6,117.6z"/>
	<path class="st0" d="M175.6,90.3h12.9v5c3.2-3.8,7.6-6.1,13-6.1c0.7,0,1.3,0.1,1.9,0.2v14.5c-1.6-0.3-3.1-0.5-4.5-0.5
		c-5.6,0-9.8,2.9-9.8,10.2v19.7h-13.4L175.6,90.3L175.6,90.3z"/>
	<path class="st0" d="M206.7,111.7c0-13.8,8-22.6,19.8-22.6c4.1,0,8.8,1.2,12,4.2v-3h13.3v42.8h-13v-3.6c-3,3.7-8,4.6-11.7,4.6
		C214.6,134.2,206.7,125.3,206.7,111.7z M238.7,117.6v-12c-1.6-2.9-5-4.5-8.6-4.5c-5.5,0-9.5,3.7-9.5,10.6c0,6.6,3.7,10.7,9.8,10.7
		C233.9,122.4,237,121,238.7,117.6z"/>
	<path class="st0" d="M260.7,90.3h13.2v3c3.2-3,7.9-4.2,12-4.2c11.7,0,19.7,8.8,19.7,22.6c0,13.6-7.9,22.4-20.2,22.4
		c-3.8,0-8.5-0.9-11.5-4.6V147h-13.2V90.3z M291.7,111.7c0-7-3.9-10.6-9.5-10.6c-3.5,0-7,1.6-8.5,4.5v12c1.7,3.4,4.8,4.8,8.3,4.8
		C288,122.4,291.7,118.3,291.7,111.7z"/>
	<path class="st0" d="M354.9,115.6H324c1.1,5,4.5,7.7,10.5,7.7c4.4,0,8.5-1.7,11.2-5.1l8.3,7c-3.8,5.4-10.2,8.9-20.6,8.9
		c-14.5,0-22.8-8.8-22.8-22.4S320,89.2,333,89.2c14.7,0,22,9.4,22,22.6C355,112.6,355,114.5,354.9,115.6z M324,107.4h18
		c-0.2-3.5-2.8-7.6-9-7.6C328.9,99.9,325.1,101.8,324,107.4z"/>
	<path class="st0" d="M361.4,90.3h13.2v3c3.2-3,7.9-4.2,12-4.2c11.7,0,19.7,8.8,19.7,22.6c0,13.6-7.9,22.4-20.2,22.4
		c-3.8,0-8.5-0.9-11.5-4.6V147h-13.2V90.3z M392.5,111.7c0-7-3.9-10.6-9.5-10.6c-3.5,0-7,1.6-8.5,4.5v12c1.7,3.4,4.8,4.8,8.3,4.8
		C388.8,122.4,392.5,118.3,392.5,111.7z"/>
</g>
</svg>
