<svg xmlns="http://www.w3.org/2000/svg" viewBox="0 0 209.71 111.6"><defs><style>.cls-1{fill:#6892cc;}.cls-2{fill:#3465b0;}.cls-3{fill:#fff;}.cls-4{fill:#6f99d0;}.cls-5{fill:#fffffd;}</style></defs><title>ethereum-2</title><g id="Layer_2" data-name="Layer 2"><g id="Layer_1-2" data-name="Layer 1"><polygon class="cls-1" points="104.86 58.06 104.86 77.45 128.66 44.02 104.86 58.06"/><polygon class="cls-2" points="104.86 28.68 104.86 53.57 128.66 39.49 104.86 28.68"/><polygon class="cls-1" points="104.86 0 104.86 28.68 128.66 39.49 104.86 0"/><polygon class="cls-3" points="104.86 58.06 104.86 77.45 81.05 44.02 104.86 58.06"/><polygon class="cls-4" points="104.86 28.68 104.86 53.57 81.05 39.49 104.86 28.68"/><polygon class="cls-3" points="104.86 0 104.86 28.68 81.05 39.49 104.86 0"/><path class="cls-5" d="M1.65,102c.22,3.48,3.07,7.82,7.89,7.83a7.67,7.67,0,0,0,6.68-3.48.91.91,0,0,1,1.16-.19h0a.84.84,0,0,1,.39.53.81.81,0,0,1-.12.64,9.28,9.28,0,0,1-8.24,4.15,9.49,9.49,0,0,1-7-3.43A10.21,10.21,0,0,1,0,101.16,9.66,9.66,0,0,1,2.64,94.1,9.13,9.13,0,0,1,9.41,91a8.74,8.74,0,0,1,6.71,2.89A10.37,10.37,0,0,1,19,101.11a.83.83,0,0,1-.24.6.79.79,0,0,1-.59.26ZM9.41,92.6a7.62,7.62,0,0,0-5.13,2.17,9.2,9.2,0,0,0-2.55,5.64H17.08A9,9,0,0,0,14.7,95,6.33,6.33,0,0,0,9.41,92.6Z"/><path class="cls-5" d="M77.66,102c.21,3.48,3.06,7.82,7.88,7.83a7.68,7.68,0,0,0,6.69-3.48.9.9,0,0,1,1.15-.19h0a.86.86,0,0,1,.38.53.8.8,0,0,1-.11.64,9.29,9.29,0,0,1-8.24,4.15,9.49,9.49,0,0,1-7-3.43A10.21,10.21,0,0,1,76,101.16a9.7,9.7,0,0,1,2.63-7.06A9.15,9.15,0,0,1,85.42,91a8.7,8.7,0,0,1,6.7,2.89A10.32,10.32,0,0,1,95,101.11a.78.78,0,0,1-.23.6.81.81,0,0,1-.6.26Zm7.76-9.37a7.64,7.64,0,0,0-5.14,2.17,9.25,9.25,0,0,0-2.55,5.64H93.09A9,9,0,0,0,90.7,95,6.3,6.3,0,0,0,85.42,92.6Z"/><path class="cls-5" d="M124.7,102c.21,3.48,3.06,7.82,7.88,7.83a7.67,7.67,0,0,0,6.68-3.48.91.91,0,0,1,1.16-.19h0a.86.86,0,0,1,.38.53.81.81,0,0,1-.12.64,9.27,9.27,0,0,1-8.23,4.15,9.51,9.51,0,0,1-7.05-3.43,10.21,10.21,0,0,1-2.37-6.86,9.66,9.66,0,0,1,2.64-7.06,9.15,9.15,0,0,1,6.78-3.1,8.71,8.71,0,0,1,6.7,2.89,10.37,10.37,0,0,1,2.83,7.22.86.86,0,0,1-.23.61.84.84,0,0,1-.6.25Zm7.76-9.37a7.62,7.62,0,0,0-5.14,2.17,9.25,9.25,0,0,0-2.55,5.64h15.36A9,9,0,0,0,137.74,95,6.3,6.3,0,0,0,132.46,92.6Z"/><path class="cls-5" d="M34.35,92.94v17.47a.77.77,0,0,1-.77.76h0a.77.77,0,0,1-.77-.76V92.94H28.43a.74.74,0,1,1,0-1.48h4.38V85a.78.78,0,0,1,.78-.78h0a.76.76,0,0,1,.75.75v6.5h4.52a.74.74,0,1,1,0,1.48Z"/><path class="cls-5" d="M59.08,91.24a7.53,7.53,0,0,0-7.93,3.88V75.74a.74.74,0,0,0-.74-.74h0a.76.76,0,0,0-.77.77v34.64a.76.76,0,0,0,.76.76h0a.76.76,0,0,0,.77-.76V98.7c0-3.28,4.16-6.81,7.92-6,2.43.55,4.86,3,4.85,6.81v10.87a.77.77,0,0,0,.77.76h0a.77.77,0,0,0,.77-.76V99.57C65.68,96.27,63.4,91.83,59.08,91.24Z"/><path class="cls-5" d="M158.86,111.51a7.55,7.55,0,0,0,7.93-3.88v2.78a.75.75,0,0,0,.74.75h0a.78.78,0,0,0,.78-.78v-18a.77.77,0,0,0-.77-.77h0a.77.77,0,0,0-.77.77l.09,9.56c0,5-3.87,8.93-7.92,8.07A6.62,6.62,0,0,1,154,103.2V92.34a.76.76,0,0,0-.77-.77h0a.76.76,0,0,0-.76.77v10.83C152.49,107.22,154.55,110.91,158.86,111.51Z"/><path class="cls-5" d="M203.32,91.24A7.62,7.62,0,0,0,195,96.35a7.66,7.66,0,0,0-6-5.11A7.49,7.49,0,0,0,181.05,95V92.25a.76.76,0,0,0-.75-.75h0a.78.78,0,0,0-.78.78v18a.78.78,0,0,0,.77.77h0a.78.78,0,0,0,.77-.77l-.1-9.56c0-5,3.9-8.85,8-8a6.56,6.56,0,0,1,4.93,6.34v11.21s0,.05,0,.08h0a.88.88,0,0,0,.89.76h0a.77.77,0,0,0,.77-.76v-2.62c0-1.72,0-4,0-5.73,0-5.36,2.42-10.11,7.72-9.29,2.46.38,4.94,2.91,4.94,6.77v10.87a.76.76,0,0,0,.76.76h0a.76.76,0,0,0,.77-.76V99.57C209.92,96.27,207.64,91.83,203.32,91.24Z"/><path class="cls-5" d="M115.07,92.31a.75.75,0,0,0-.29-.59.9.9,0,0,0-.64-.16,8.43,8.43,0,0,0-6.91,4.63v-4a.76.76,0,0,0-.75-.75h0a.78.78,0,0,0-.78.78v18a.78.78,0,0,0,.77.77h0a.78.78,0,0,0,.77-.77l0-9c0-4.33,3.34-8,7.2-8.19a.7.7,0,0,0,.6-.72Z"/></g></g></svg>