<svg xmlns="http://www.w3.org/2000/svg" viewBox="0 0 217.9 45.54"><defs><style>.cls-1{fill:#fff;}.cls-2{fill:#fcb415;}</style></defs><title>bitcoin_2</title><g id="Layer_2" data-name="Layer 2"><g id="Layer_1-2" data-name="Layer 1"><g id="bitcoin"><path id="n" class="cls-1" d="M194.85,15.83c.64-.19,1.37-.41,2.15-.66s1.67-.48,2.66-.69,2.07-.38,3.28-.52a36.11,36.11,0,0,1,4.11-.2q6.73,0,9.3,3.92t.9,10.71l-3.92,16.35h-8.58l3.8-16c.23-1,.41-2,.55-2.91a7.21,7.21,0,0,0,0-2.47A3,3,0,0,0,208,21.62a4.1,4.1,0,0,0-2.56-.66,16.71,16.71,0,0,0-3.4.35l-5.58,23.43h-8.58Z"/><path id="i" class="cls-1" d="M181.46,44.74h-8.53l7.19-30.29h8.59Zm4.14-34a5.3,5.3,0,0,1-3.23-1.06,3.77,3.77,0,0,1-1.44-3.25,5.53,5.53,0,0,1,.49-2.28,6.07,6.07,0,0,1,1.3-1.84,6.29,6.29,0,0,1,1.87-1.24,5.62,5.62,0,0,1,2.27-.46,5.31,5.31,0,0,1,3.23,1.07A3.77,3.77,0,0,1,191.53,5,5.49,5.49,0,0,1,191,7.23a6,6,0,0,1-1.29,1.84,6.42,6.42,0,0,1-1.87,1.24A5.66,5.66,0,0,1,185.6,10.76Z"/><path id="o" class="cls-1" d="M155.13,45.54a14,14,0,0,1-5.3-.92A9.66,9.66,0,0,1,146.12,42a11.2,11.2,0,0,1-2.22-3.94,16.06,16.06,0,0,1-.74-5,22.48,22.48,0,0,1,1.11-6.91,19.71,19.71,0,0,1,3.32-6.22,17.61,17.61,0,0,1,5.35-4.52,14.71,14.71,0,0,1,7.25-1.76,13.81,13.81,0,0,1,5.27.93,9.84,9.84,0,0,1,3.75,2.59,11.25,11.25,0,0,1,2.21,3.94,16.06,16.06,0,0,1,.75,5,23.07,23.07,0,0,1-1.09,6.91,20.13,20.13,0,0,1-3.23,6.22,16.92,16.92,0,0,1-5.32,4.52A15.13,15.13,0,0,1,155.13,45.54Zm4.26-24.64A5.42,5.42,0,0,0,156.05,22a9.42,9.42,0,0,0-2.42,2.77,13.82,13.82,0,0,0-1.47,3.65,15.62,15.62,0,0,0-.49,3.77,9.21,9.21,0,0,0,.92,4.5,3.53,3.53,0,0,0,3.34,1.61,5.3,5.3,0,0,0,3.34-1.1,9.25,9.25,0,0,0,2.42-2.76,13.75,13.75,0,0,0,1.47-3.66,15.56,15.56,0,0,0,.49-3.77,9.19,9.19,0,0,0-.92-4.49A3.53,3.53,0,0,0,159.39,20.9Z"/><path id="c" class="cls-1" d="M117.27,32.65a21.1,21.1,0,0,1,1.27-7.37,18,18,0,0,1,3.63-6.05,16.88,16.88,0,0,1,5.73-4.09,18.25,18.25,0,0,1,7.51-1.5,20.24,20.24,0,0,1,4.63.49,18.47,18.47,0,0,1,3.72,1.3l-2.94,6.68a24.88,24.88,0,0,0-2.39-.83,10.14,10.14,0,0,0-3-.38,8.48,8.48,0,0,0-6.77,2.93,11.82,11.82,0,0,0-2.5,7.9,8.11,8.11,0,0,0,1.27,4.75c.84,1.21,2.4,1.81,4.66,1.81a14.78,14.78,0,0,0,3.22-.35,16.18,16.18,0,0,0,2.77-.86l.63,6.85a29.52,29.52,0,0,1-3.57,1.13,19.76,19.76,0,0,1-4.66.48,15.9,15.9,0,0,1-6.05-1,11.51,11.51,0,0,1-4.08-2.79A10.58,10.58,0,0,1,118,37.59,17.16,17.16,0,0,1,117.27,32.65Z"/><path id="t" class="cls-1" d="M101.35,6.91l8.93-1.38-2.19,8.92h9.56l-1.73,7h-9.5l-2.53,10.59a11.72,11.72,0,0,0-.4,2.47,4.43,4.43,0,0,0,.28,2A2.47,2.47,0,0,0,105,37.82a5.64,5.64,0,0,0,2.56.47,13.84,13.84,0,0,0,2.68-.26,19.39,19.39,0,0,0,2.62-.72l.63,6.57A31.86,31.86,0,0,1,109.76,45a21.52,21.52,0,0,1-4.78.46,13.24,13.24,0,0,1-6.16-1.18A6.88,6.88,0,0,1,95.71,41a10.32,10.32,0,0,1-.81-4.69,30.3,30.3,0,0,1,.81-5.58Z"/><path id="i-2" data-name="i" class="cls-1" d="M86.63,44.74H78.11l7.2-30.29h8.58Zm4.15-34A5.3,5.3,0,0,1,87.55,9.7a3.77,3.77,0,0,1-1.44-3.25,5.37,5.37,0,0,1,.49-2.28,6.07,6.07,0,0,1,1.3-1.84,6.16,6.16,0,0,1,1.87-1.24A5.62,5.62,0,0,1,92,.63,5.31,5.31,0,0,1,95.27,1.7,3.79,3.79,0,0,1,96.7,5a5.34,5.34,0,0,1-.49,2.28,5.87,5.87,0,0,1-1.29,1.84,6.16,6.16,0,0,1-1.87,1.24A5.61,5.61,0,0,1,90.78,10.76Z"/><path id="b" class="cls-1" d="M66.67,13.81a10.83,10.83,0,0,1,4.77,1,9.65,9.65,0,0,1,3.35,2.65,11.29,11.29,0,0,1,2,3.92,17.87,17.87,0,0,1,.63,4.84,19.72,19.72,0,0,1-5.47,13.67,18.86,18.86,0,0,1-6,4.15,18.42,18.42,0,0,1-7.48,1.52l-1.82,0a24.74,24.74,0,0,1-3-.25,35,35,0,0,1-3.54-.7,17.59,17.59,0,0,1-3.55-1.26l10-41.86L65.46.06,61.89,14.91a13.66,13.66,0,0,1,2.3-.8A9.8,9.8,0,0,1,66.67,13.81ZM59.18,38.46a7.79,7.79,0,0,0,3.8-1,10,10,0,0,0,3.09-2.62,13.21,13.21,0,0,0,2-3.71,12.58,12.58,0,0,0,.75-4.32,8.56,8.56,0,0,0-.92-4.32A3.64,3.64,0,0,0,64.54,21a10.86,10.86,0,0,0-2.1.28,5.31,5.31,0,0,0-2.34,1.21L56.31,38.23l.6.11a4.68,4.68,0,0,0,.54.09,7,7,0,0,0,.7,0Z"/></g><g id="Bitcoin_Logo" data-name="Bitcoin Logo"><path id="PMS_130_Coin" data-name="PMS 130 Coin" class="cls-2" d="M44.72,28.16A22.69,22.69,0,1,1,28.16.68,22.69,22.69,0,0,1,44.72,28.16Z"/><path id="Bitcoin_Symbol" data-name="Bitcoin Symbol" class="cls-1" d="M33.46,19.73c.41-3-1.89-4.6-5.05-5.67l1-4.11-2.49-.6-.95,4c-.66-.16-1.32-.31-2-.44l.95-4-2.52-.6-1,4.1-1.61-.34h0l-3.44-.82-.63,2.65s1.86.41,1.8.44a1.3,1.3,0,0,1,1.16,1.42l-1.1,4.67a1.29,1.29,0,0,1,.25.09l-.25-.06L16.07,27a.9.9,0,0,1-1.13.6s-1.83-.44-1.83-.44L11.91,30l3.25.76c.6.16,1.2.28,1.77.44l-1,4.13,2.49.6,1-4.1c.69.19,1.36.35,2,.51l-1,4.07,2.49.6,1-4.14c4.26.76,7.45.41,8.74-3.47,1-3.09-.1-4.86-2.37-6A3.92,3.92,0,0,0,33.46,19.73Zm-5.62,8.05c-.72,3.09-6,1.48-7.63,1.07l1.29-5.49C23.21,23.77,28.6,24.53,27.84,27.78Zm.7-8c-.66,2.81-5,1.46-6.44,1.11l1.2-5C24.69,16.2,29.23,16.8,28.54,19.73Z"/></g></g></g></svg>