<svg xmlns="http://www.w3.org/2000/svg" viewBox="0 0 184.85 52.83"><defs><style>.cls-1{fill:#f26622;}</style></defs><title>jeton</title><g id="Layer_2" data-name="Layer 2"><g id="Layer_1-2" data-name="Layer 1"><path class="cls-1" d="M92.37,2H81.1V12.17H76.35v9.65H81.1V40.66c0,9.2,4.67,11.95,11.57,11.95a16.63,16.63,0,0,0,8.9-2.3V41.25A11.47,11.47,0,0,1,96,42.66c-2.52,0-3.64-1.26-3.64-3.86v-17h9.35V12.17H92.37Z"/><path class="cls-1" d="M125,11.43c-12.39,0-21.59,9.27-21.59,20.7v.15c0,11.43,9.13,20.55,21.44,20.55s21.59-9.27,21.59-20.7V32C146.42,20.55,137.29,11.43,125,11.43Zm10.31,20.85c0,5.86-3.86,10.83-10.31,10.83-6.23,0-10.46-5.12-10.46-11V32c0-5.86,3.86-10.83,10.31-10.83,6.23,0,10.46,5.12,10.46,11Z"/><path class="cls-1" d="M171.34,11.43c-5.71,0-9.05,1.22-11.65,4.56V12.17H148.42V51.94h11.28V29.75c0-5.34,2.75-8.09,7-8.09s6.83,2.75,6.83,8.09V51.94h11.28V26.19C184.85,17.07,179.88,11.43,171.34,11.43Z"/><path class="cls-1" d="M20,33.46a13.12,13.12,0,0,1-.63,4.32,3.48,3.48,0,0,1-3.61,2,3.73,3.73,0,0,1-3.86-4.06H0s0,0,0,.07,0,.06,0,.08a15.85,15.85,0,0,0,31.7,0c0-.05,0-.11,0-.16h0q.05-.86.05-1.76V0H20Z"/><path class="cls-1" d="M55.07,11.43c-11.57,0-19.66,9.35-19.66,20.7v.15c0,12.17,8.83,20.55,20.78,20.55,7.2,0,12.54-2.82,16.25-7.42l-8.55-4a12.24,12.24,0,0,1-7.55,2.37c-5,0-8.61-2.67-9.72-7.79H74.28c.07-1,.15-2.08.15-3C74.43,21.74,68.35,11.43,55.07,11.43ZM46.46,28.94c.89-5.12,3.93-8.46,8.61-8.46s7.72,3.41,8.38,8.46Z"/></g></g></svg>