<?xml version="1.0" encoding="utf-8"?>
<!-- Generator: Adobe Illustrator 23.0.6, SVG Export Plug-In . SVG Version: 6.00 Build 0)  -->
<svg version="1.1" id="katman_1" xmlns="http://www.w3.org/2000/svg" xmlns:xlink="http://www.w3.org/1999/xlink" x="0px" y="0px"
	 viewBox="0 0 201.3 108.1" style="enable-background:new 0 0 201.3 108.1;" xml:space="preserve">
<style type="text/css">
	.st0{fill:#F9B915;}
	.st1{fill:#FFFFFF;}
</style>
<g>
	<g>
		<path class="st0" d="M195.2,53.5h-5v1h5V53.5L195.2,53.5L195.2,53.5z M185.2,53.5h-5v1h5V53.5L185.2,53.5z M175.2,53.5h-5v1h5
			V53.5L175.2,53.5z M165.2,53.5h-5v1h5V53.5L165.2,53.5z M155.2,53.5h-5v1h5V53.5L155.2,53.5z M145.2,53.5h-5v1h5V53.5L145.2,53.5z
			 M135.2,53.5h-5v1h5V53.5L135.2,53.5z M125.2,53.5h-5v1h5V53.5L125.2,53.5z M115.2,53.5h-5v1h5V53.5L115.2,53.5z M105.2,53.5h-5v1
			h5V53.5L105.2,53.5z M95.2,53.5h-5v1h5V53.5L95.2,53.5z M85.2,53.5h-5v1h5V53.5L85.2,53.5z M75.2,53.5h-5v1h5V53.5L75.2,53.5z
			 M65.2,53.5h-5v1h5V53.5L65.2,53.5z M55.2,53.5h-5v1h5V53.5L55.2,53.5z M45.2,53.5h-5v1h5V53.5L45.2,53.5z M35.2,53.5h-5v1h5V53.5
			L35.2,53.5z M25.2,53.5h-5v1h5V53.5L25.2,53.5z M15.2,53.5h-5v1h5V53.5L15.2,53.5z M5.2,53.6C4,53.8,2.9,54.3,2,55.1c0,0,0,0,0,0
			c0,0,0,0,0,0c0,0,0,0,0,0c0,0,0,0,0,0c0,0,0,0,0,0c0,0,0,0,0,0c0,0,0,0,0,0c0,0,0,0,0,0c0,0,0,0,0,0c0,0,0,0,0,0c0,0,0,0,0,0
			c0,0,0,0,0,0c0,0,0,0,0,0c0,0,0,0,0,0c0,0,0,0,0,0c0,0,0,0,0,0c0,0,0,0,0,0c0,0,0,0,0,0c0,0,0,0,0,0c0,0,0,0,0,0c0,0,0,0,0,0
			c0,0,0,0,0,0c0,0,0,0,0,0c0,0,0,0,0,0c0,0,0,0,0,0c0,0,0,0,0,0c0,0,0,0,0,0c0,0,0,0,0,0c0,0,0,0,0,0c0,0,0,0,0,0c0,0,0,0,0,0
			c0,0,0,0,0,0c0,0,0,0,0,0c0,0,0,0,0,0c0,0,0,0,0,0c0,0,0,0,0,0c0,0,0,0,0,0c0,0,0,0,0,0c0,0,0,0,0,0c0,0,0,0,0,0c0,0,0,0,0,0
			c0,0,0,0,0,0c0,0,0,0,0,0c0,0,0,0,0,0c0,0,0,0,0,0c0,0,0,0,0,0c0,0,0,0,0,0c0,0,0,0,0,0c0,0,0,0,0,0c0,0,0,0,0,0c0,0,0,0,0,0
			c0,0,0,0,0,0c0,0,0,0,0,0c0,0,0,0,0,0c0,0,0,0,0,0c0,0,0,0,0,0c0,0,0,0,0,0c0,0,0,0,0,0c0,0,0,0,0,0c0,0,0,0,0,0c0,0,0,0,0,0
			c0,0,0,0,0,0c0,0,0,0,0,0c0,0,0,0,0,0c0,0,0,0,0,0c0,0,0,0,0,0c0,0,0,0,0,0c0,0,0,0,0,0c0,0,0,0,0,0c0,0,0,0,0,0c0,0,0,0,0,0
			c0,0,0,0,0,0c0,0,0,0,0,0c0,0,0,0,0,0c0,0,0,0,0,0c0,0,0,0,0,0c0,0,0,0,0,0c0,0,0,0,0,0c0,0,0,0,0,0c0,0,0,0,0,0c0,0,0,0,0,0
			c0,0,0,0,0,0c0,0,0,0,0,0c0,0,0,0,0,0c0,0,0,0,0,0c0,0,0,0,0,0c0,0-0.1,0.1-0.1,0.1c0,0,0,0,0,0c-0.2,0.2-0.3,0.4-0.5,0.6l0.8,0.6
			c0.8-1.2,2.1-1.9,3.5-2.1L5.2,53.6L5.2,53.6z M1,60.9H0v5h1V60.9L1,60.9z M1,70.9H0v5h1V70.9L1,70.9z M1,80.9H0v5h1V80.9L1,80.9z
			 M1,90.9H0v5h1V90.9L1,90.9z M1,100.9H0v1.1l0,0c0,0,0,0,0,0c0,0,0,0,0,0c0,0,0,0,0,0c0,0,0,0,0,0c0,0,0,0,0,0c0,0,0,0,0,0
			c0,0,0,0,0,0c0,0,0,0,0,0c0,0,0,0,0,0c0,0,0,0,0,0c0,0,0,0,0,0c0,0,0,0,0,0c0,0,0,0,0,0c0,0,0,0,0,0c0,0,0,0,0,0c0,0,0,0,0,0
			c0,0,0,0,0,0c0,0,0,0,0,0c0,0,0,0,0,0c0,0,0,0,0,0c0,0,0,0,0,0c0,0,0,0,0,0c0,0,0,0,0,0c0,0,0,0,0,0c0,0,0,0,0,0c0,0,0,0,0,0
			c0,0,0,0,0,0c0,0,0,0,0,0c0,0,0,0,0,0c0,0,0,0,0,0c0,0,0,0,0,0c0,0,0,0,0,0c0,0,0,0,0,0c0,0,0,0,0,0c0,0,0,0,0,0c0,0,0,0,0,0
			c0,0,0,0,0,0c0,0,0,0,0,0c0,0,0,0,0,0c0,0,0,0,0,0c0,0,0,0,0,0c0,0,0,0,0,0c0,0,0,0,0,0c0,0,0,0,0,0c0,0,0,0,0,0c0,0,0,0,0,0
			c0,0,0,0,0,0c0,0,0,0,0,0c0,0,0,0,0,0c0,0,0,0,0,0c0,0,0,0,0,0c0,0,0,0,0,0c0,0,0,0,0,0c0,0,0,0,0,0c0,0,0,0,0,0c0,0,0,0,0,0
			c0,0,0,0,0,0c0,0,0,0,0,0c0,0,0,0,0,0c0,0,0,0,0,0c0,0,0,0,0,0c0,0,0,0,0,0c0,0,0,0,0,0c0,0,0,0,0,0c0,0,0,0,0,0c0,0,0,0,0,0
			c0,0,0,0,0,0c0,0,0,0,0,0c0,0,0,0,0,0c0,0,0,0,0,0c0,0,0,0,0,0c0,0,0,0,0,0c0,0,0,0,0,0c0,0,0,0,0,0c0,0,0,0,0,0c0,0,0,0,0,0
			c0,0,0,0,0,0c0,0,0,0,0,0c0,0,0,0,0,0v0c0,0,0,0,0,0c0,0,0,0,0,0c0,0,0,0,0,0c0,0,0,0,0,0c0,0,0,0,0,0c0,0,0,0,0,0c0,0,0,0,0,0
			c0,0,0,0,0,0c0,0,0,0,0,0c0,0,0,0,0,0c0,0,0,0,0,0c0,0,0,0,0,0c0,0,0,0,0,0c0,0,0,0,0,0c0,0,0,0,0,0c0,0,0,0,0,0c0,0,0,0,0,0
			c0,0,0,0,0,0c0,0,0,0,0,0c0,0,0,0,0,0c0,0,0,0,0,0c0,0,0,0,0,0c0,0,0,0,0,0c0,0,0,0,0,0c0,0,0,0,0,0c0,0,0,0,0,0c0,0,0,0,0,0
			c0,0,0,0,0,0c0,0,0,0,0,0c0,0,0,0,0,0c0,0,0,0,0,0c0,0,0,0,0,0c0,0,0,0,0,0c0,0,0,0,0,0c0,0,0,0,0,0c0,0,0,0,0,0c0,0,0,0,0,0
			c0,0,0,0,0,0c0,0,0,0,0,0c0,0,0,0,0,0c0,0,0,0,0,0c0,0,0,0,0,0c0,0,0,0,0,0c0,0,0,0,0,0c0,0,0,0,0,0c0,0,0,0,0,0c0,0,0,0,0,0
			c0,0,0,0,0,0c0,0,0,0,0,0c0,0,0,0,0,0c0,0,0,0,0,0c0,0,0,0,0,0c0,0,0,0,0,0c0,0,0,0,0,0c0,0,0,0,0,0c0,0,0,0,0,0c0,0,0,0,0,0
			c0,0,0,0,0,0c0,0,0,0,0,0c0,0,0,0,0,0c0,0,0,0,0,0c0,0,0,0,0,0c0,0,0,0,0,0c0,0,0,0,0,0c0,0,0,0,0,0c0,0,0,0,0,0c0,0,0,0,0,0
			c0,0,0,0,0,0c0,0,0,0,0,0c0,0,0,0,0,0c0,0,0,0,0,0c0,0,0,0,0,0c0,0,0,0,0,0c0,0,0,0,0,0c0,0,0,0,0,0c0,0,0,0,0,0c0,0,0,0,0,0
			c0,0,0,0,0,0c0,0,0,0,0,0c0,0,0,0,0,0c0,0,0,0,0,0c0,0,0,0,0,0c0,0,0,0,0,0c0,0,0,0,0,0c0,0,0,0,0,0c0,0,0,0,0,0c0,0,0,0,0,0
			c0,0,0,0,0,0c0,0,0,0,0,0c0,0,0,0,0,0c0,0,0,0,0,0c0,0,0,0,0,0c0,0,0,0,0,0c0,0,0,0,0,0c0,0,0,0,0,0c0,0,0,0,0,0c0,0,0,0,0,0
			c0,0,0,0,0,0c0,0,0,0,0,0c0,0,0,0,0,0c0,0,0,0,0,0c0,0,0,0,0,0c0,0,0,0,0,0c0,0,0,0,0,0c0,0,0,0,0,0c0,0,0,0,0,0c0,0,0,0,0,0
			c0,0,0,0,0,0c0,0,0,0,0,0c0,0,0,0,0,0c0,0,0,0,0,0c0,0,0,0,0,0c0,0,0,0,0,0c0,0,0,0,0,0c0,0,0,0,0,0c0,0,0,0,0,0c0,0,0,0,0,0
			c0,0,0,0,0,0c0,0,0,0,0,0c0,0,0,0,0,0c0,0,0,0,0,0c0,0,0,0,0,0c0,0,0,0,0,0c0,0,0,0,0,0c0,0,0,0,0,0c0,0,0,0,0,0c0,0,0,0,0,0
			c0,0,0,0,0,0c0,0,0,0,0,0c0,0,0,0,0,0c0,0,0,0,0,0c0,0,0,0,0,0c0,0,0,0,0,0c0,0,0,0,0,0c0,0,0,0,0,0c0,0,0,0,0,0c0,0,0,0,0,0
			c0,0,0,0,0,0c0,0,0,0,0,0c0,0,0,0,0,0c0,0,0,0,0,0c0,0,0,0,0,0c0,0,0,0,0,0c0,0,0,0,0,0c0,0,0,0,0,0c0,0,0,0,0,0c0,0,0,0,0,0
			c0,0,0,0,0,0c0,0,0,0,0,0c0,0,0,0,0,0c0,0,0,0,0,0c0,0,0,0,0,0c0,0,0,0,0,0c0,0,0,0,0,0c0,0,0,0,0,0c0,0,0,0,0,0c0,0,0,0,0,0
			c0,0,0,0,0,0c0,0,0,0,0,0c0,0,0,0,0,0c0,0,0,0,0,0c0,0,0,0,0,0c0,0,0,0,0,0c0,0,0,0,0,0c0,0,0,0,0,0c0,0,0,0,0,0c0,0,0,0,0,0
			c0,0,0,0,0,0c0,0,0,0,0,0c0,0,0,0,0,0c0,0,0,0,0,0c0,0,0,0,0,0c0,0,0,0,0,0c0,0,0,0,0,0c0,0,0,0,0,0c0,0,0,0,0,0c0,0,0,0,0,0
			c0,0,0,0,0,0c0,0,0,0,0,0c0,0,0,0,0,0c0,0,0,0,0,0c0,0,0,0,0,0c0,0,0,0,0,0c0,0,0,0,0,0c0,0,0,0,0,0c0,0,0,0,0,0c0,0,0,0,0,0
			c0,0,0,0,0,0c0,0,0,0,0,0c0,0,0,0,0,0c0,0,0,0,0,0c0,0,0,0,0,0c0,0,0,0,0,0c0,0,0,0,0,0c0,0,0,0,0,0c0,0,0,0,0,0c0,0,0,0,0,0
			c0,0,0,0,0,0c0,0,0,0,0,0c0,0,0,0,0,0c0,0,0,0,0,0c0,0,0,0,0,0c0,0,0,0,0,0c0,0,0,0,0,0c0,0,0,0,0,0c0,0,0,0,0,0c0,0,0,0,0,0
			c0,0,0,0,0,0c0,0,0,0,0,0c0,0,0,0,0,0c0,0,0,0,0,0c0,0,0,0,0,0c0,0,0,0,0,0c0,0,0,0,0,0c0,0,0,0,0,0c0,0,0,0,0,0c0,0,0,0,0,0
			c0,0,0,0,0,0c0,0,0,0,0,0c0,0,0,0,0,0c0,0,0,0,0,0c0,0,0,0,0,0c0,0,0,0,0,0c0,0,0,0,0,0c0,0,0,0,0,0c0,0,0,0,0,0c0,0,0,0,0,0
			c0,0,0,0,0,0c0,0,0,0,0,0c0,0,0,0,0,0c0,0,0,0,0,0c0,0,0,0,0,0c0,0,0,0,0,0c0,0,0,0,0,0c0,0,0,0,0,0c0,0,0,0,0,0c0,0,0,0,0,0
			c0,0,0,0,0,0c0,0,0,0,0,0c0,0,0,0,0,0c0,0,0,0,0,0c0,0,0,0,0,0c0,0,0,0,0,0c0,0,0,0,0,0c0,0,0,0,0,0c0,0,0,0,0,0c0,0,0,0,0,0
			c0,0,0,0,0,0c0,0,0,0,0,0c0,0,0,0,0,0c0,0,0,0,0,0c0,0,0,0,0,0c0,0,0,0,0,0c0,0,0,0,0,0c0,0,0,0,0,0c0,0,0,0,0,0c0,0,0,0,0,0
			c0,0,0,0,0,0c0,0,0,0,0,0c0,0,0,0,0,0c0,0,0,0,0,0c0,0,0,0,0,0c0,0,0,0,0,0c0,0,0,0,0,0c0,0,0,0,0,0c0,0,0,0,0,0c0,0,0,0,0,0
			c0,0,0,0,0,0c0,0,0,0,0,0c0,0,0,0,0,0c0,0,0,0,0,0c0,0,0,0,0,0c0,0,0,0,0,0c0,0,0,0,0,0c0,0,0,0,0,0c0,0,0,0,0,0c0,0,0,0,0,0
			c0,0,0,0,0,0c0,0,0,0,0,0c0,0,0,0,0,0c0,0,0,0,0,0c0,0,0,0,0,0c0,0,0,0,0,0c0,0,0,0,0,0c0,0,0,0,0,0c0,0,0,0,0,0c0,0,0,0,0,0
			c0,0,0,0,0,0c0,0,0,0,0,0c0,0,0,0,0,0c0,0,0,0,0,0c0,0,0,0,0,0c0,0,0,0,0,0c0,0,0,0,0,0c0,0,0,0,0,0c0,0,0,0,0,0c0,0,0,0,0,0
			c0,0,0,0,0,0c0,0,0,0,0,0c0,0,0,0,0,0c0,0,0,0,0,0c0,0,0,0,0,0c0,0,0,0,0,0c0,0,0,0,0,0c0,0,0,0,0,0c0,0,0,0,0,0c0,0,0,0,0,0
			c0,0,0,0,0,0c0,0,0,0,0,0c0,0,0,0,0,0c0,0,0,0,0,0c0,0,0,0,0,0c0,0,0,0,0,0c0,0,0,0,0,0c0,0,0,0,0,0c0,0,0,0,0,0c0,0,0,0,0,0
			c0,0,0,0,0,0c0,0,0,0,0,0c0,0,0,0,0,0c0,0,0,0,0,0c0,0,0,0,0,0c0,0,0,0,0,0c0,0,0,0,0,0c0,0,0,0,0,0c0,0,0,0,0,0c0,0,0,0,0,0
			c0,0,0,0,0,0c0,0,0,0,0,0c0,0,0,0,0,0c0,0,0,0,0,0c0,0,0,0,0,0c0,0,0,0,0,0c0,0,0,0,0,0c0,0,0,0,0,0c0,0,0,0,0,0c0,0,0,0,0,0
			c0,0,0,0,0,0c0,0,0,0,0,0c0,0,0,0,0,0c0,0,0,0,0,0c0,0,0,0,0,0c0,0,0,0,0,0c0,0,0,0,0,0c0,0,0,0,0,0c0,0,0,0,0,0c0,0,0,0,0,0
			c0,0,0,0,0,0c0,0,0,0,0,0c0,0,0,0,0,0c0,0,0,0,0,0c0,0,0,0,0,0c0,0,0,0,0,0c0,0,0,0,0,0c0,0,0,0,0,0c0,0,0,0,0,0c0,0,0,0,0,0
			c0,0,0,0,0,0c0,0,0,0,0,0c0,0,0,0,0,0c0,0,0,0,0,0c0,0,0,0,0,0c0,0,0,0,0,0c0,0,0,0,0,0c0,0,0,0,0,0c0,0,0,0,0,0c0,0,0,0,0,0
			c0,0,0,0,0,0v0c0,0,0,0,0,0c0,0,0,0,0,0c0,0,0,0,0,0c0,0,0,0,0,0c0,0,0,0,0,0c0,0,0,0,0,0c0,0,0,0,0,0c0,0,0,0,0,0c0,0,0,0,0,0
			c0,0,0,0,0,0c0,0,0,0,0,0l0,0c0,0,0,0,0,0c0,0,0,0,0,0c0,0,0,0.1,0,0.1l0,0c0,0,0,0,0,0c0,0,0,0,0,0c0.2,0.4,0.4,0.8,0.7,1.2
			l0.8-0.6c-0.7-0.9-1-2-1-3.1V100.9L1,100.9z M5.6,107.1l-0.1,1c0.2,0,0.3,0,0.5,0c0,0,0,0,0,0c0,0,0,0,0,0c0,0,0,0,0,0
			c0,0,0,0,0,0c0,0,0,0,0,0c0,0,0,0,0,0c0,0,0,0,0,0c0,0,0,0,0,0c0,0,0,0,0,0c0,0,0,0,0,0c0,0,0,0,0,0c0,0,0,0,0,0c0,0,0,0,0,0
			c0,0,0,0,0,0c0,0,0,0,0,0c0,0,0,0,0,0c0,0,0,0,0,0c0,0,0,0,0,0c0,0,0,0,0,0c0,0,0,0,0,0c0,0,0,0,0,0c0,0,0,0,0,0c0,0,0,0,0,0
			c0,0,0,0,0,0c0,0,0,0,0,0c0,0,0,0,0,0c0,0,0,0,0,0c0,0,0,0,0,0c0,0,0,0,0,0c0,0,0,0,0,0c0,0,0,0,0,0c0,0,0,0,0,0h4.3v-1H6.1
			C5.9,107.1,5.7,107.1,5.6,107.1L5.6,107.1z M20.4,107.1h-5v1h5V107.1L20.4,107.1z M30.4,107.1h-5v1h5V107.1L30.4,107.1z
			 M40.4,107.1h-5v1h5V107.1L40.4,107.1z M50.4,107.1h-5v1h5V107.1L50.4,107.1z M60.4,107.1h-5v1h5V107.1L60.4,107.1z M70.4,107.1
			h-5v1h5V107.1L70.4,107.1z M80.4,107.1h-5v1h5V107.1L80.4,107.1z M90.4,107.1h-5v1h5V107.1L90.4,107.1z M100.4,107.1h-5v1h5V107.1
			L100.4,107.1z M110.4,107.1h-5v1h5V107.1L110.4,107.1z M120.4,107.1h-5v1h5V107.1L120.4,107.1z M130.4,107.1h-5v1h5V107.1
			L130.4,107.1z M140.4,107.1h-5v1h5V107.1L140.4,107.1z M150.4,107.1h-5v1h5V107.1L150.4,107.1z M160.4,107.1h-5v1h5V107.1
			L160.4,107.1z M170.4,107.1h-5v1h5V107.1L170.4,107.1z M180.4,107.1h-5v1h5V107.1L180.4,107.1z M190.4,107.1h-5v1h5V107.1
			L190.4,107.1z M199.1,105.4c-0.9,1.1-2.3,1.7-3.7,1.7l0,1c0.8,0,1.5-0.2,2.2-0.5c0,0,0,0,0,0c0,0,0,0,0,0c0,0,0,0,0,0c0,0,0,0,0,0
			c0,0,0,0,0,0c0,0,0,0,0,0c0,0,0,0,0,0c0,0,0,0,0,0c0,0,0,0,0,0c0,0,0,0,0,0c0,0,0,0,0,0c0,0,0,0,0,0c0,0,0,0,0,0c0,0,0,0,0,0
			c0,0,0,0,0,0c0,0,0,0,0,0c0,0,0,0,0,0c0,0,0,0,0,0c0,0,0,0,0,0c0,0,0,0,0,0c0,0,0,0,0,0c0,0,0,0,0,0c0,0,0,0,0,0c0,0,0,0,0,0
			c0,0,0,0,0,0c0,0,0,0,0,0c0,0,0,0,0,0c0,0,0,0,0,0c0,0,0,0,0,0c0,0,0,0,0,0c0,0,0,0,0,0c0,0,0,0,0,0c0,0,0,0,0,0c0,0,0,0,0,0
			c0,0,0,0,0,0c0,0,0,0,0,0c0,0,0,0,0,0c0,0,0,0,0,0c0,0,0,0,0,0c0,0,0,0,0,0c0,0,0,0,0,0c0,0,0,0,0,0c0,0,0,0,0,0c0,0,0,0,0,0
			c0,0,0,0,0,0c0,0,0,0,0,0c0,0,0,0,0,0c0,0,0,0,0,0c0,0,0,0,0,0c0,0,0,0,0,0c0,0,0,0,0,0c0,0,0,0,0,0c0,0,0,0,0,0c0,0,0,0,0,0
			c0,0,0,0,0,0c0,0,0,0,0,0c0,0,0,0,0,0c0,0,0,0,0,0c0,0,0,0,0,0c0,0,0,0,0,0c0,0,0,0,0,0c0,0,0,0,0,0c0,0,0,0,0,0c0,0,0,0,0,0
			c0,0,0,0,0,0c0,0,0,0,0,0c0,0,0,0,0,0c0,0,0,0,0,0c0,0,0,0,0,0c0,0,0,0,0,0c0,0,0,0,0,0l0,0c0,0,0.1,0,0.1,0c0,0,0,0,0,0
			c0,0,0,0,0,0c0,0,0,0,0,0c0,0,0,0,0,0l0,0c0,0,0,0,0,0l0,0c0,0,0,0,0,0c0,0,0,0,0,0c0,0,0,0,0,0c0,0,0,0,0,0c0,0,0,0,0,0
			c0,0,0,0,0,0c0,0,0,0,0,0l0,0c0,0,0,0,0,0c0,0,0,0,0,0c0.7-0.4,1.3-0.8,1.8-1.4L199.1,105.4L199.1,105.4z M201.3,96.4h-1v5h1V96.4
			L201.3,96.4z M201.3,86.4h-1v5h1V86.4L201.3,86.4z M201.3,76.4h-1v5h1V76.4L201.3,76.4z M201.3,66.4h-1v5h1V66.4L201.3,66.4z
			 M200.5,56.6l-0.9,0.5c0.5,0.8,0.7,1.7,0.7,2.6v1.7h1v-1.7c0,0,0,0,0,0c0,0,0,0,0,0c0,0,0,0,0,0c0,0,0,0,0,0c0,0,0,0,0,0
			c0,0,0,0,0,0c0,0,0,0,0,0c0,0,0,0,0,0c0,0,0,0,0,0c0,0,0,0,0,0c0,0,0,0,0,0c0,0,0,0,0,0c0,0,0,0,0,0c0,0,0,0,0,0c0,0,0,0,0,0
			c0,0,0,0,0,0c0,0,0,0,0,0c0,0,0,0,0,0c0,0,0,0,0,0c0,0,0,0,0,0c0,0,0,0,0,0c0,0,0,0,0,0c0,0,0,0,0,0c0,0,0,0,0,0c0,0,0,0,0,0
			c0,0,0,0,0,0c0,0,0,0,0,0c0,0,0,0,0,0c0,0,0,0,0,0c0,0,0,0,0,0c0,0,0,0,0,0c0,0,0,0,0,0c0,0,0,0,0,0c0,0,0,0,0,0c0,0,0,0,0,0
			c0,0,0,0,0,0c0,0,0,0,0,0c0,0,0,0,0,0c0,0,0,0,0,0c0,0,0,0,0,0c0,0,0,0,0,0c0,0,0,0,0,0c0,0,0,0,0,0c0,0,0,0,0,0c0,0,0,0,0,0
			c0,0,0,0,0,0c0,0,0,0,0,0c0,0,0,0,0,0c0,0,0,0,0,0c0,0,0,0,0,0c0,0,0,0,0,0c0,0,0,0,0,0c0,0,0,0,0,0c0,0,0,0,0,0c0,0,0,0,0,0
			c0,0,0,0,0,0c0,0,0,0,0,0c0,0,0,0,0,0c0,0,0,0,0,0c0,0,0,0,0,0c0,0,0,0,0,0c0,0,0,0,0,0c0,0,0,0,0,0c0,0,0,0,0,0c0,0,0,0,0,0
			c0,0,0,0,0,0c0,0,0,0,0,0c0,0,0,0,0,0c0,0,0,0,0,0c0,0,0,0,0,0c0,0,0,0,0,0v0c0,0,0,0,0,0c0,0,0,0,0,0c0,0,0,0,0,0c0,0,0,0,0,0
			c0,0,0,0,0,0c0,0,0,0,0,0c0,0,0,0,0,0c0,0,0,0,0,0c0,0,0,0,0,0c0,0,0,0,0,0c0,0,0,0,0,0c0,0,0,0,0,0c0,0,0,0,0,0c0,0,0,0,0,0
			c0,0,0,0,0,0c0,0,0,0,0,0c0,0,0,0,0,0v0c-0.1-0.7-0.2-1.4-0.5-2c0,0,0,0,0,0c0,0,0,0,0,0c0,0,0,0,0,0c0,0,0,0,0,0c0,0,0,0,0,0
			c0,0,0,0,0,0c0,0,0,0,0,0c0,0,0,0,0,0c0,0,0,0,0,0c0,0,0,0,0,0c0,0,0,0,0,0c0,0,0,0,0,0c0,0,0,0,0,0c0,0,0,0,0,0c0,0,0,0,0,0
			c0,0,0,0,0,0c0,0,0,0,0,0c0,0,0,0,0,0c0,0,0,0,0,0c0,0,0,0,0,0c0,0,0,0,0,0c0,0,0,0,0,0c0,0,0,0,0,0c0,0,0,0,0,0c0,0,0,0,0,0
			c0,0,0,0,0,0c0,0,0,0,0,0c0,0,0,0,0,0c0,0,0,0,0,0c0,0,0,0,0,0c0,0,0,0,0,0c0,0,0,0,0,0c0,0,0,0,0,0c0,0,0,0,0,0c0,0,0,0,0,0
			c0,0,0,0,0,0c0,0,0,0,0,0l0,0C200.7,56.8,200.6,56.7,200.5,56.6L200.5,56.6z M195.2,53.5v1c0.4,0,0.8,0,1.1,0.1l0.2-1c0,0,0,0,0,0
			c0,0,0,0,0,0c0,0,0,0,0,0c0,0,0,0,0,0v0c0,0,0,0,0,0c0,0,0,0,0,0c0,0,0,0,0,0c0,0,0,0,0,0c0,0,0,0,0,0c0,0,0,0,0,0c0,0,0,0,0,0
			c0,0,0,0,0,0c0,0,0,0,0,0c0,0,0,0,0,0c0,0,0,0,0,0c0,0,0,0,0,0c0,0,0,0,0,0c0,0,0,0,0,0c0,0,0,0,0,0c0,0,0,0,0,0c0,0,0,0,0,0
			c0,0,0,0,0,0c0,0,0,0,0,0c0,0,0,0,0,0c0,0,0,0,0,0c0,0,0,0,0,0c0,0,0,0,0,0c0,0,0,0,0,0c0,0,0,0,0,0c0,0,0,0,0,0c0,0,0,0,0,0
			c0,0,0,0,0,0c0,0,0,0,0,0c0,0,0,0,0,0c0,0,0,0,0,0c0,0,0,0,0,0c0,0,0,0,0,0c0,0,0,0,0,0c0,0,0,0,0,0c0,0,0,0,0,0c0,0,0,0,0,0
			c0,0,0,0,0,0c0,0,0,0,0,0c0,0,0,0,0,0c0,0,0,0,0,0c0,0,0,0,0,0c0,0,0,0,0,0c0,0,0,0,0,0c0,0,0,0,0,0c0,0,0,0,0,0c0,0,0,0,0,0
			c0,0,0,0,0,0c0,0,0,0,0,0c0,0,0,0,0,0c0,0,0,0,0,0c0,0,0,0-0.1,0c0,0,0,0,0,0c0,0,0,0,0,0c0,0,0,0,0,0c0,0,0,0,0,0c0,0,0,0,0,0
			c0,0,0,0,0,0c0,0,0,0,0,0c0,0,0,0,0,0c0,0,0,0,0,0c0,0,0,0,0,0c0,0,0,0,0,0c0,0,0,0,0,0c0,0,0,0,0,0c0,0,0,0-0.1,0c0,0,0,0,0,0
			c0,0,0,0,0,0c0,0,0,0,0,0c0,0,0,0,0,0c0,0,0,0,0,0c0,0,0,0,0,0c0,0,0,0,0,0c0,0,0,0,0,0c0,0,0,0,0,0c0,0,0,0,0,0c0,0,0,0,0,0
			c0,0,0,0-0.1,0c0,0,0,0,0,0c0,0,0,0,0,0c0,0,0,0,0,0c0,0,0,0,0,0c0,0,0,0,0,0c0,0,0,0,0,0c0,0,0,0,0,0c0,0,0,0,0,0c0,0,0,0,0,0
			c0,0,0,0,0,0c0,0,0,0,0,0c0,0,0,0-0.1,0c0,0,0,0,0,0c0,0,0,0,0,0c0,0,0,0,0,0c0,0,0,0,0,0c0,0,0,0,0,0c0,0,0,0,0,0c0,0,0,0,0,0
			c0,0,0,0,0,0c0,0,0,0,0,0c0,0,0,0,0,0c0,0,0,0,0,0c0,0,0,0,0,0c0,0,0,0,0,0c0,0,0,0-0.1,0c0,0,0,0,0,0c0,0,0,0,0,0c0,0,0,0,0,0
			c0,0,0,0,0,0c0,0,0,0,0,0c0,0,0,0,0,0c0,0,0,0,0,0c0,0,0,0,0,0c0,0,0,0,0,0c0,0,0,0,0,0c0,0,0,0,0,0c0,0,0,0,0,0c0,0,0,0,0,0
			c0,0,0,0,0,0c0,0,0,0,0,0c0,0,0,0,0,0c0,0,0,0,0,0c0,0,0,0,0,0c0,0,0,0,0,0c0,0,0,0,0,0c0,0,0,0,0,0c0,0,0,0,0,0c0,0,0,0,0,0
			c0,0,0,0,0,0c0,0,0,0,0,0c0,0,0,0,0,0c0,0,0,0,0,0c0,0,0,0,0,0c0,0,0,0,0,0c0,0,0,0,0,0c0,0,0,0,0,0c0,0,0,0,0,0c0,0,0,0,0,0
			c0,0,0,0,0,0c0,0,0,0,0,0c0,0,0,0,0,0c0,0,0,0,0,0c0,0,0,0,0,0c0,0,0,0,0,0c0,0,0,0,0,0c0,0,0,0,0,0c0,0,0,0,0,0c0,0,0,0,0,0
			c0,0,0,0,0,0c0,0,0,0,0,0c0,0,0,0,0,0c0,0,0,0,0,0c0,0,0,0,0,0c0,0,0,0,0,0c0,0,0,0,0,0c0,0,0,0,0,0c0,0,0,0,0,0c0,0,0,0,0,0
			c0,0,0,0,0,0c0,0,0,0,0,0c0,0,0,0,0,0c0,0,0,0,0,0c0,0,0,0,0,0c0,0,0,0,0,0c0,0,0,0,0,0c0,0,0,0,0,0c0,0,0,0,0,0c0,0,0,0,0,0
			c0,0,0,0,0,0c0,0,0,0,0,0c0,0,0,0,0,0c0,0,0,0,0,0c0,0,0,0,0,0c0,0,0,0,0,0c0,0,0,0,0,0c0,0,0,0,0,0c0,0,0,0,0,0
			S195.3,53.5,195.2,53.5C195.3,53.5,195.3,53.5,195.2,53.5C195.3,53.5,195.3,53.5,195.2,53.5C195.3,53.5,195.3,53.5,195.2,53.5
			C195.3,53.5,195.3,53.5,195.2,53.5C195.3,53.5,195.3,53.5,195.2,53.5C195.3,53.5,195.3,53.5,195.2,53.5
			C195.3,53.5,195.3,53.5,195.2,53.5C195.3,53.5,195.3,53.5,195.2,53.5C195.3,53.5,195.3,53.5,195.2,53.5
			C195.3,53.5,195.3,53.5,195.2,53.5C195.3,53.5,195.3,53.5,195.2,53.5C195.3,53.5,195.3,53.5,195.2,53.5
			C195.3,53.5,195.3,53.5,195.2,53.5C195.3,53.5,195.2,53.5,195.2,53.5C195.2,53.5,195.2,53.5,195.2,53.5
			C195.2,53.5,195.2,53.5,195.2,53.5C195.2,53.5,195.2,53.5,195.2,53.5C195.2,53.5,195.2,53.5,195.2,53.5L195.2,53.5L195.2,53.5z"/>
	</g>
	<path class="st0" d="M195.2,54.6H6.1c-3.4,0-6.1-2.7-6.1-6.1V6.1C0,2.7,2.7,0,6.1,0h189.1c3.4,0,6.1,2.7,6.1,6.1v42.3
		C201.3,51.8,198.6,54.6,195.2,54.6z"/>
	<g>
		<path class="st1" d="M21.7,11.1c1.2,0,2.3,0.2,3.4,0.7s1.9,1,2.7,1.8s1.4,1.6,1.8,2.7s0.6,2.1,0.6,3.3V27c0,1.2-0.2,2.3-0.6,3.3
			s-1,1.9-1.8,2.7s-1.7,1.4-2.7,1.8s-2.1,0.7-3.4,0.7h-2.8v7.1c0,0.6-0.3,0.9-0.8,0.9h-4.7c-0.5,0-0.8-0.3-0.8-0.9V12
			c0-0.3,0.1-0.5,0.2-0.7s0.3-0.2,0.6-0.2H21.7z M18.9,16.8v13.1h2.4c0.8,0,1.5-0.3,1.9-0.8s0.7-1.2,0.7-2v-7.4
			c0-0.8-0.2-1.5-0.7-2.1s-1.1-0.8-2-0.8H18.9z"/>
		<path class="st1" d="M41.2,30.9h-2.1v11.8c0,0.6-0.3,0.9-0.8,0.9h-4.7c-0.5,0-0.8-0.3-0.8-0.9V12c0-0.3,0.1-0.5,0.2-0.7
			s0.3-0.2,0.6-0.2h8.3c1.2,0,2.3,0.2,3.4,0.7s1.9,1.1,2.7,1.8s1.4,1.7,1.8,2.7s0.6,2.1,0.6,3.3v2.7c0,0.8-0.1,1.6-0.3,2.4
			s-0.4,1.4-0.8,2s-0.7,1.1-1.2,1.6s-0.9,0.9-1.5,1.2l4,13.2c0.1,0.2,0.1,0.4,0,0.6s-0.2,0.3-0.5,0.3h-4.9c-0.2,0-0.4,0-0.5-0.1
			s-0.2-0.3-0.2-0.6L41.2,30.9z M39.1,16.8v8.8h2.4c0.8,0,1.5-0.3,2-0.8s0.7-1.2,0.7-2v-3.2c0-0.8-0.2-1.5-0.7-2s-1.1-0.8-2-0.8
			H39.1z"/>
		<path class="st1" d="M52.2,18.7c0-1.3,0.2-2.4,0.7-3.4s1.1-1.9,1.9-2.6s1.7-1.2,2.8-1.6s2.2-0.6,3.3-0.6s2.3,0.2,3.4,0.6
			c1.1,0.4,2,0.9,2.8,1.6s1.4,1.5,1.9,2.6s0.7,2.2,0.7,3.4v17.2c0,1.3-0.2,2.4-0.7,3.4s-1.1,1.9-1.9,2.6s-1.7,1.2-2.8,1.6
			C63.3,43.8,62.1,44,61,44s-2.3-0.2-3.3-0.6s-2-0.9-2.8-1.6s-1.4-1.6-1.9-2.6s-0.7-2.1-0.7-3.4V18.7z M58.5,35.6
			c0,0.4,0.1,0.7,0.2,1.1s0.3,0.6,0.5,0.9s0.5,0.5,0.8,0.6s0.7,0.2,1.1,0.2c0.4,0,0.8-0.1,1.1-0.2s0.6-0.3,0.8-0.6s0.4-0.5,0.5-0.8
			s0.2-0.7,0.2-1V19.1c0-0.4-0.1-0.7-0.2-1.1s-0.3-0.6-0.5-0.9s-0.5-0.5-0.8-0.6s-0.7-0.2-1.1-0.2s-0.7,0.1-1.1,0.2
			s-0.6,0.4-0.8,0.6s-0.4,0.6-0.5,0.9s-0.2,0.7-0.2,1.1V35.6z"/>
		<path class="st1" d="M77.9,42.6c0,0.6-0.2,0.9-0.7,0.9h-4.4c-0.4,0-0.7-0.3-0.7-0.9V11.9c0-0.6,0.2-0.9,0.7-0.9h5.8
			c0.3,0,0.4,0.1,0.5,0.2s0.1,0.3,0.2,0.6L83.5,28l0.2,1.2l0.2-1.2L88,11.9c0-0.3,0.1-0.5,0.2-0.6s0.2-0.2,0.5-0.2h5.9
			c0.4,0,0.7,0.3,0.7,0.9l0,30.7c0,0.6-0.2,0.9-0.7,0.9h-4.4c-0.5,0-0.7-0.3-0.7-0.9l0.1-17.9l0.1-1.8l0,0.3L86.1,38
			c-0.1,0.3-0.2,0.5-0.2,0.6s-0.3,0.2-0.5,0.2H82c-0.3,0-0.4-0.1-0.5-0.2s-0.2-0.3-0.3-0.6l-3.5-14.8l0.1,1.6L77.9,42.6z"/>
		<path class="st1" d="M97.6,18.7c0-1.3,0.2-2.4,0.7-3.4s1.1-1.9,1.9-2.6s1.7-1.2,2.8-1.6s2.2-0.6,3.3-0.6s2.3,0.2,3.4,0.6
			s2,0.9,2.8,1.6s1.4,1.5,1.9,2.6s0.7,2.2,0.7,3.4v17.2c0,1.3-0.2,2.4-0.7,3.4s-1.1,1.9-1.9,2.6s-1.7,1.2-2.8,1.6s-2.2,0.6-3.4,0.6
			s-2.3-0.2-3.3-0.6s-2-0.9-2.8-1.6s-1.4-1.6-1.9-2.6s-0.7-2.1-0.7-3.4V18.7z M103.8,35.6c0,0.4,0.1,0.7,0.2,1.1s0.3,0.6,0.5,0.9
			s0.5,0.5,0.8,0.6s0.7,0.2,1.1,0.2c0.4,0,0.8-0.1,1.1-0.2s0.6-0.3,0.8-0.6s0.4-0.5,0.5-0.8s0.2-0.7,0.2-1V19.1
			c0-0.4-0.1-0.7-0.2-1.1s-0.3-0.6-0.5-0.9s-0.5-0.5-0.8-0.6s-0.7-0.2-1.1-0.2s-0.7,0.1-1.1,0.2s-0.6,0.4-0.8,0.6s-0.4,0.6-0.5,0.9
			s-0.2,0.7-0.2,1.1V35.6z"/>
		<path class="st1" d="M123.5,35.3c0,0.6,0.1,1.1,0.2,1.5s0.4,0.7,0.6,1s0.5,0.4,0.9,0.5s0.6,0.2,0.9,0.2c0.4,0,0.7-0.1,1-0.2
			s0.6-0.3,0.8-0.6c0.2-0.2,0.4-0.5,0.6-0.9s0.2-0.7,0.2-1.1c0-0.6-0.1-1.1-0.2-1.5s-0.4-0.9-0.7-1.3c-0.3-0.4-0.8-0.9-1.3-1.3
			s-1.1-1-1.9-1.5c-1.2-1-2.3-1.9-3.2-2.6s-1.6-1.5-2.2-2.3s-1-1.6-1.3-2.6s-0.4-2.1-0.4-3.4c0-1,0.1-1.9,0.4-2.7
			c0.3-0.8,0.6-1.5,1-2.2s0.9-1.2,1.5-1.6s1.2-0.8,1.8-1.1s1.2-0.5,1.9-0.6s1.2-0.2,1.8-0.2c1.2,0,2.3,0.2,3.4,0.6s1.9,1,2.6,1.7
			s1.3,1.6,1.7,2.7s0.6,2.2,0.6,3.5v1.3c0,0.3-0.1,0.6-0.2,0.7s-0.4,0.2-0.7,0.2h-4.2c-0.3,0-0.5-0.1-0.6-0.2s-0.1-0.4-0.1-0.7v-1.3
			c0-0.4-0.1-0.8-0.2-1.1s-0.3-0.7-0.5-0.9c-0.2-0.3-0.5-0.5-0.8-0.6s-0.7-0.2-1.1-0.2c-0.3,0-0.6,0.1-0.9,0.2s-0.6,0.3-0.8,0.5
			s-0.4,0.5-0.6,0.9s-0.2,0.8-0.2,1.4c0,0.6,0.1,1.1,0.2,1.5s0.4,0.8,0.7,1.2s0.7,0.7,1.1,1.1s0.9,0.7,1.4,1.1
			c1.1,0.8,2.1,1.7,3.1,2.4s1.8,1.6,2.5,2.5s1.3,1.9,1.7,3s0.6,2.4,0.6,3.9c0,1.1-0.2,2.1-0.6,3.1s-1,1.8-1.8,2.6s-1.7,1.3-2.7,1.8
			s-2.2,0.7-3.5,0.7c-1.4,0-2.6-0.2-3.7-0.7s-1.9-1.1-2.7-1.9s-1.2-1.7-1.6-2.7s-0.5-2.1-0.5-3.2v-1.2c0-0.4,0.1-0.7,0.2-0.9
			s0.3-0.3,0.6-0.3h4.3c0.3,0,0.5,0.1,0.6,0.2s0.2,0.4,0.2,0.8V35.3z"/>
		<path class="st1" d="M147.7,30.1v12.5c0,0.6-0.2,0.9-0.7,0.9h-4.9c-0.5,0-0.7-0.3-0.7-0.9V30.2l-6.1-18.1c-0.1-0.3-0.1-0.5,0-0.7
			s0.3-0.3,0.5-0.3h4.6c0.2,0,0.4,0.1,0.6,0.2s0.3,0.3,0.4,0.7l2.9,10.3l0.3,1.6l0.3-1.6l2.8-10.3c0.1-0.3,0.2-0.5,0.4-0.6
			s0.4-0.2,0.6-0.2h4.7c0.2,0,0.4,0.1,0.5,0.3s0.1,0.4,0,0.7L147.7,30.1z"/>
		<path class="st1" d="M184.7,29.2l0.6,2.8l-0.1-2.5L184.9,12c0-0.2,0.1-0.5,0.2-0.6s0.3-0.3,0.6-0.3h4.2c0.2,0,0.4,0.1,0.5,0.2
			s0.2,0.4,0.2,0.7v30.7c0,0.6-0.3,0.9-0.9,0.9h-4.2c-0.2,0-0.4-0.1-0.6-0.2s-0.3-0.3-0.4-0.6L179,26.2l-0.6-2.2l0.1,2.3l0.2,16.3
			c0,0.6-0.2,0.9-0.8,0.9h-4.2c-0.5,0-0.8-0.3-0.8-0.9V12c0-0.3,0.1-0.5,0.2-0.7s0.3-0.2,0.6-0.2h4.2c0.2,0,0.4,0.1,0.6,0.2
			s0.3,0.3,0.4,0.6L184.7,29.2z"/>
		<path class="st1" d="M169.6,42.6c0,0.3-0.1,0.5-0.2,0.6c-0.1,0.2-0.3,0.3-0.4,0.3h-13.2c-0.1,0-0.2-0.1-0.3-0.2
			c-0.1-0.1-0.2-0.4-0.2-0.7v-4.3c0-0.3,0-0.5,0.1-0.7c0.1-0.2,0.2-0.3,0.4-0.3h13.2c0.4,0,0.5,0.3,0.5,0.9V42.6z"/>
		<path class="st1" d="M168.3,14.3c-0.3-0.7-0.8-1.4-1.4-1.9c-0.6-0.5-1.2-1-2-1.3s-1.6-0.5-2.5-0.5c-0.9,0-1.7,0.2-2.5,0.5
			c-0.8,0.3-1.5,0.8-2,1.3c-0.6,0.5-1,1.2-1.3,1.9s-0.5,1.5-0.5,2.3v12.2c0,0.8,0.2,1.6,0.5,2.3s0.8,1.4,1.3,1.9
			c0.6,0.5,1.2,1,2,1.3c0.8,0.3,1.6,0.5,2.5,0.5c0.9,0,1.7-0.2,2.5-0.5s1.4-0.7,2-1.3s1-1.2,1.4-1.9s0.5-1.5,0.5-2.3V16.6
			C168.8,15.8,168.7,15,168.3,14.3z M164.1,28.8c0,0.4-0.2,0.8-0.5,1.1s-0.7,0.4-1.1,0.4c-0.5,0-0.8-0.1-1.1-0.4
			c-0.3-0.3-0.4-0.7-0.4-1.1V16.6c0-0.4,0.1-0.8,0.4-1.1c0.3-0.3,0.7-0.4,1.1-0.4c0.4,0,0.8,0.1,1.1,0.4c0.3,0.3,0.5,0.7,0.5,1.1
			V28.8z"/>
	</g>
	<g>
		<path class="st0" d="M69.1,79.9l6.9,16.1c0.1,0.3,0.1,0.5,0,0.7s-0.3,0.3-0.5,0.3h-4.8c-0.3,0-0.5-0.1-0.6-0.2s-0.3-0.3-0.3-0.6
			L65.3,85l-1.5,2.8v8.4c0,0.6-0.3,0.9-0.8,0.9h-4.7c-0.5,0-0.8-0.3-0.8-0.9V65.5c0-0.3,0.1-0.5,0.2-0.7s0.3-0.2,0.6-0.2H63
			c0.3,0,0.5,0.1,0.6,0.2s0.2,0.4,0.2,0.7v12.1l5.7-12.4c0.1-0.3,0.3-0.5,0.4-0.5s0.4-0.1,0.6-0.1h4.9c0.1,0,0.2,0,0.3,0.1
			s0.1,0.1,0.1,0.2s0,0.2,0,0.3s-0.1,0.2-0.1,0.3L69.1,79.9z"/>
		<path class="st0" d="M80.6,72.3c0-1.3,0.2-2.4,0.7-3.4s1.1-1.9,1.9-2.6S85,65,86,64.7s2.2-0.6,3.3-0.6s2.3,0.2,3.4,0.6
			s2,0.9,2.8,1.6s1.4,1.5,1.9,2.6s0.7,2.2,0.7,3.4v17.2c0,1.3-0.2,2.4-0.7,3.4s-1.1,1.9-1.9,2.6s-1.7,1.2-2.8,1.6s-2.2,0.6-3.4,0.6
			S87.1,97.4,86,97s-2-0.9-2.8-1.6s-1.4-1.6-1.9-2.6s-0.7-2.1-0.7-3.4V72.3z M86.9,89.1c0,0.4,0.1,0.7,0.2,1.1s0.3,0.6,0.5,0.9
			s0.5,0.5,0.8,0.6s0.7,0.2,1.1,0.2c0.4,0,0.8-0.1,1.1-0.2s0.6-0.3,0.8-0.6s0.4-0.5,0.5-0.8s0.2-0.7,0.2-1V72.6
			c0-0.4-0.1-0.7-0.2-1.1s-0.3-0.6-0.5-0.9s-0.5-0.5-0.8-0.6s-0.7-0.2-1.1-0.2s-0.7,0.1-1.1,0.2s-0.6,0.4-0.8,0.6s-0.4,0.6-0.5,0.9
			s-0.2,0.7-0.2,1.1V89.1z"/>
		<path class="st0" d="M121.4,88.7c0,1.3-0.2,2.5-0.7,3.6s-1,1.9-1.8,2.6s-1.7,1.2-2.7,1.6s-2.1,0.5-3.4,0.6h-8.2
			c-0.5,0-0.8-0.3-0.8-0.9V65.5c0-0.3,0.1-0.5,0.2-0.7s0.3-0.2,0.6-0.2h8.1c1.2,0,2.3,0.2,3.4,0.6s1.9,0.9,2.7,1.6s1.4,1.6,1.8,2.6
			s0.7,2.2,0.7,3.6V88.7z M115.1,73.2c0-1-0.2-1.7-0.8-2.2s-1.1-0.7-1.9-0.7h-2.3v21.1h2.4c0.8,0,1.4-0.3,1.9-0.9s0.7-1.2,0.7-2
			V73.2z"/>
		<path class="st0" d="M143.6,64.6c0.3,0,0.5,0.1,0.6,0.3s0.2,0.4,0.2,0.6v23.9c0,1.1-0.2,2.2-0.7,3.2s-1.1,1.8-1.9,2.6
			s-1.7,1.3-2.8,1.7s-2.2,0.6-3.4,0.6s-2.3-0.2-3.3-0.6s-2-1-2.8-1.7s-1.4-1.6-1.9-2.6s-0.7-2-0.7-3.2V65.5c0-0.2,0.1-0.5,0.2-0.6
			s0.3-0.3,0.4-0.3h4.9c0.3,0,0.5,0.1,0.6,0.3s0.1,0.4,0.1,0.6v23.6c0,0.4,0.1,0.7,0.2,1.1s0.3,0.6,0.5,0.9s0.5,0.5,0.8,0.6
			s0.7,0.2,1.1,0.2s0.7-0.1,1.1-0.2s0.6-0.4,0.8-0.6s0.4-0.6,0.5-0.9s0.2-0.7,0.2-1.1V65.6c0-0.2,0.1-0.5,0.2-0.7s0.3-0.3,0.6-0.3
			H143.6z"/>
	</g>
	<polygon class="st0" points="28,72.2 30.2,78.8 37.2,78.8 31.5,82.9 33.7,89.5 28,85.4 22.4,89.5 24.5,82.9 18.9,78.8 25.9,78.8 	
		"/>
	<polygon class="st0" points="171.6,72.2 173.8,78.8 180.7,78.8 175.1,82.9 177.3,89.5 171.6,85.4 166,89.5 168.1,82.9 162.5,78.8 
		169.4,78.8 	"/>
</g>
</svg>
