<svg xmlns="http://www.w3.org/2000/svg" viewBox="0 0 165.75 84.5"><defs><style>.cls-1,.cls-2{fill:#fff;}.cls-2{fill-rule:evenodd;}</style></defs><title>cepbank</title><g id="Layer_2" data-name="Layer 2"><g id="Layer_1-2" data-name="Layer 1"><path class="cls-1" d="M99.54,22.24a4.22,4.22,0,0,0-3.6,1.71,7.82,7.82,0,0,0-1.27,4.76q0,6.35,4.87,6.35a15.68,15.68,0,0,0,4.95-1v3.38a14,14,0,0,1-5.33,1,8.23,8.23,0,0,1-6.47-2.51q-2.24-2.51-2.24-7.21a11.55,11.55,0,0,1,1.1-5.19,7.86,7.86,0,0,1,3.17-3.41,9.53,9.53,0,0,1,4.84-1.19,13.29,13.29,0,0,1,5.68,1.34l-1.33,3.27a22.37,22.37,0,0,0-2.19-.88A6.69,6.69,0,0,0,99.54,22.24Z"/><path class="cls-1" d="M119.79,38.14H108.62v-19h11.17v3.3h-7.06v4.17h6.57v3.3h-6.57v4.89h7.06Z"/><path class="cls-1" d="M137.24,25.08a5.74,5.74,0,0,1-2,4.69,8.5,8.5,0,0,1-5.57,1.62H128v6.75h-4.11v-19H130a8.37,8.37,0,0,1,5.37,1.49A5.36,5.36,0,0,1,137.24,25.08Zm-9.29,3h1.35a4.58,4.58,0,0,0,2.84-.73,2.54,2.54,0,0,0,.94-2.14,2.6,2.6,0,0,0-.79-2.09,3.76,3.76,0,0,0-2.48-.67H128Z"/><path class="cls-1" d="M91.3,46.63h6q4.13,0,6,1.15a4,4,0,0,1,1.86,3.65,4.53,4.53,0,0,1-.82,2.79,3.27,3.27,0,0,1-2.17,1.31v.13a4.29,4.29,0,0,1,2.66,1.51,5.4,5.4,0,0,1-1.1,7,8.43,8.43,0,0,1-5.21,1.45H91.3Zm4.11,7.52H97.8a4.45,4.45,0,0,0,2.42-.51A1.87,1.87,0,0,0,101,52a1.67,1.67,0,0,0-.82-1.56,5.34,5.34,0,0,0-2.58-.47H95.42Zm0,3.19v4.95H98.1a4,4,0,0,0,2.51-.64,2.33,2.33,0,0,0,.81-1.95q0-2.36-3.45-2.36Z"/><path class="cls-1" d="M121.17,65.61l-1.41-4.52h-7.07l-1.41,4.52h-4.43l6.85-19.06h5l6.87,19.06Zm-2.39-7.89q-2-6.14-2.2-6.95t-.35-1.27q-.44,1.66-2.51,8.22Z"/><path class="cls-1" d="M145.26,65.61H140l-8.44-14.36h-.12q.25,3.8.25,5.42v8.93H128v-19h5.19l8.43,14.21h.09q-.2-3.7-.2-5.23v-9h3.7Z"/><path class="cls-1" d="M165.75,65.61h-4.67l-5.08-8-1.74,1.22v6.78h-4.11v-19h4.11v8.68l1.62-2.23,5.26-6.45h4.56L158.93,55Z"/><path class="cls-2" d="M47,76.21h8.65v4.23H47V76.21ZM32.2,66.81v5a1,1,0,0,0,.94.94H69.56a1,1,0,0,0,.94-.94V11.1a.94.94,0,0,0-.94-.94H53.22L42.89,3.61H70a7,7,0,0,1,7,7V77.48a7,7,0,0,1-7,7H32.66a7.06,7.06,0,0,1-7-7V66.81Zm-27.71-34H15.11V56.87H4.48V32.79Zm14.7,0H29.81V56.87H19.18V32.79Zm14.7,0H44.51V56.87H33.89V32.79Zm14.7,0H59.22V56.87H48.59V32.79ZM0,27.76,31.85,7.57,63.7,27.76V20.19L31.85,0,0,20.19v7.57Zm4.48.48L31.85,10.89,59.22,28.25v1.59H4.48V28.25ZM1.76,59.57H61.94V64H1.76V59.57Z"/></g></g></svg>