<svg xmlns="http://www.w3.org/2000/svg" viewBox="0 0 253.29 81.27"><defs><style>.cls-1{fill:#535353;}</style></defs><title>Bank_Transfer_Big</title><g id="Layer_2" data-name="Layer 2"><g id="Layer_1-2" data-name="Layer 1"><path class="cls-1" d="M4.27,27.07a2,2,0,0,0,2,2h71a2,2,0,0,0,2-2v-.5H4.27Z"/><path class="cls-1" d="M15.17,60a1,1,0,0,0-1,1v1.83H11.47a1,1,0,0,0-1,1v3.17a1,1,0,0,0,1,1H27.93a1,1,0,0,0,1-1V63.88a1,1,0,0,0-1-1H25.25V61a1,1,0,0,0-1-1H23.4V39.8h.82a1,1,0,0,0,1-1V36.94h2.68a1,1,0,0,0,1-1V32.75a1,1,0,0,0-1-1H11.47a1,1,0,0,0-1,1v3.17a1,1,0,0,0,1,1h2.67v1.84a1,1,0,0,0,1,1H16V60Z"/><path class="cls-1" d="M38.25,60a1,1,0,0,0-1,1v1.83H34.54a1,1,0,0,0-1,1v3.17a1,1,0,0,0,1,1H51a1,1,0,0,0,1-1V63.88a1,1,0,0,0-1-1H48.33V61a1,1,0,0,0-1-1h-.82V39.8h.82a1,1,0,0,0,1-1V36.94H51a1,1,0,0,0,1-1V32.75a1,1,0,0,0-1-1H34.54a1,1,0,0,0-1,1v3.17a1,1,0,0,0,1,1h2.68v1.84a1,1,0,0,0,1,1h.82V60Z"/><path class="cls-1" d="M61.32,60a1,1,0,0,0-1,1v1.83H57.62a1,1,0,0,0-1,1v3.17a1,1,0,0,0,1,1H74.08a1,1,0,0,0,1-1V63.88a1,1,0,0,0-1-1H71.4V61a1,1,0,0,0-1-1h-.83V39.8h.83a1,1,0,0,0,1-1V36.94h2.68a1,1,0,0,0,1-1V32.75a1,1,0,0,0-1-1H57.62a1,1,0,0,0-1,1v3.17a1,1,0,0,0,1,1H60.3v1.84a1,1,0,0,0,1,1h.83V60Z"/><path class="cls-1" d="M78.41,70.76H5.06a1.36,1.36,0,0,0-1.35,1.35v1.34H79.76V72.11A1.36,1.36,0,0,0,78.41,70.76Z"/><path class="cls-1" d="M1.48,78.61H82a1.42,1.42,0,0,0,1.48-1.35V75.91H0v1.35A1.42,1.42,0,0,0,1.48,78.61Z"/><path class="cls-1" d="M79.2,23.39,43.74.59a3.69,3.69,0,0,0-4,0L4.27,23.39V25H79.2Z"/><path class="cls-1" d="M91.07,6.23h9.49q6.48,0,9.41,1.85A6.43,6.43,0,0,1,112.9,14a7.4,7.4,0,0,1-1.28,4.48,5.14,5.14,0,0,1-3.41,2.11v.21a6.67,6.67,0,0,1,4.18,2.42,7.82,7.82,0,0,1,1.28,4.71,7.77,7.77,0,0,1-3,6.51q-3,2.32-8.19,2.33H91.07Zm6.46,12.08h3.76a6.76,6.76,0,0,0,3.8-.82,3,3,0,0,0,1.18-2.69A2.71,2.71,0,0,0,105,12.29a8.24,8.24,0,0,0-4.06-.76h-3.4Zm0,5.13v7.94h4.21a6.29,6.29,0,0,0,4-1A3.79,3.79,0,0,0,107,27.23q0-3.8-5.42-3.79Z"/><path class="cls-1" d="M132.36,36.72l-1.23-3.17H131a9.44,9.44,0,0,1-3.31,2.81,10.69,10.69,0,0,1-4.43.78,7.14,7.14,0,0,1-5.28-1.92A7.35,7.35,0,0,1,116,29.76a6.16,6.16,0,0,1,2.59-5.48q2.61-1.76,7.83-2l4-.12v-1q0-3.56-3.63-3.55a16.5,16.5,0,0,0-6.57,1.69l-2.1-4.3a19,19,0,0,1,8.92-2.1q4.69,0,7.2,2c1.66,1.36,2.5,3.43,2.5,6.22V36.72Zm-1.88-10.8L128,26a7.93,7.93,0,0,0-4.13,1,3.17,3.17,0,0,0-1.35,2.8c0,1.79,1,2.69,3.08,2.69a5,5,0,0,0,3.54-1.27,4.49,4.49,0,0,0,1.32-3.38Z"/><path class="cls-1" d="M163.16,36.72H156.8V23.1a6.51,6.51,0,0,0-.9-3.78,3.25,3.25,0,0,0-2.85-1.26,4.29,4.29,0,0,0-3.86,1.78Q148,21.63,148,25.75v11h-6.36V13.41h4.86l.85,3h.36a6.7,6.7,0,0,1,2.93-2.56,10.07,10.07,0,0,1,4.24-.86q4.06,0,6.17,2.2c1.41,1.47,2.11,3.58,2.11,6.35Z"/><path class="cls-1" d="M174.11,24l2.77-3.54,6.53-7.09h7.17l-9.26,10.11,9.83,13.2H183.8l-6.71-9.45-2.73,2.19v7.26H168V4.27h6.36V18.75L174,24Z"/><path class="cls-1" d="M102.83,80.85H96.36V55.75H88.09V50.37h23v5.38h-8.28Z"/><path class="cls-1" d="M125.56,57.1a10,10,0,0,1,2.15.19l-.48,6a7.28,7.28,0,0,0-1.88-.21,6.74,6.74,0,0,0-4.74,1.57,5.62,5.62,0,0,0-1.7,4.38V80.85h-6.36V57.54h4.81l.94,3.92h.31a8.81,8.81,0,0,1,2.93-3.16A7.23,7.23,0,0,1,125.56,57.1Z"/><path class="cls-1" d="M144.62,80.85l-1.23-3.17h-.17a9.39,9.39,0,0,1-3.3,2.81,10.69,10.69,0,0,1-4.43.78,7.17,7.17,0,0,1-5.29-1.92,7.39,7.39,0,0,1-1.93-5.46,6.17,6.17,0,0,1,2.6-5.48q2.59-1.75,7.83-2l4.05-.12v-1q0-3.55-3.63-3.55a16.59,16.59,0,0,0-6.57,1.69l-2.11-4.29a18.89,18.89,0,0,1,8.93-2.11q4.68,0,7.19,2t2.5,6.22V80.85Zm-1.87-10.8-2.47.08a7.81,7.81,0,0,0-4.12,1,3.12,3.12,0,0,0-1.36,2.79c0,1.79,1,2.69,3.09,2.69a4.87,4.87,0,0,0,3.53-1.27A4.5,4.5,0,0,0,142.75,72Z"/><path class="cls-1" d="M175.42,80.85h-6.36V67.24a6.6,6.6,0,0,0-.89-3.79,3.28,3.28,0,0,0-2.86-1.26A4.29,4.29,0,0,0,161.45,64q-1.19,1.78-1.19,5.91v11H153.9V57.54h4.86l.86,3H160A6.74,6.74,0,0,1,162.9,58a9.92,9.92,0,0,1,4.24-.87q4.06,0,6.18,2.2a8.84,8.84,0,0,1,2.1,6.35Z"/><path class="cls-1" d="M196.53,73.93A6.41,6.41,0,0,1,194,79.39q-2.49,1.88-7.46,1.88a23.5,23.5,0,0,1-4.34-.34,16.13,16.13,0,0,1-3.35-1V74.66a22.16,22.16,0,0,0,4,1.4,16.39,16.39,0,0,0,3.91.56c2.31,0,3.46-.67,3.46-2a1.65,1.65,0,0,0-.46-1.22,6.67,6.67,0,0,0-1.58-1.07q-1.12-.58-3-1.38a18.69,18.69,0,0,1-4-2.09,5.83,5.83,0,0,1-1.83-2.2,7.25,7.25,0,0,1-.57-3,5.55,5.55,0,0,1,2.4-4.81,11.78,11.78,0,0,1,6.83-1.7,19.32,19.32,0,0,1,8.2,1.84l-1.92,4.58q-1.76-.75-3.27-1.23a10.3,10.3,0,0,0-3.11-.48q-2.82,0-2.82,1.53a1.81,1.81,0,0,0,.91,1.48,25.82,25.82,0,0,0,4,1.85,18.7,18.7,0,0,1,4,2.07A6,6,0,0,1,195.92,71,6.69,6.69,0,0,1,196.53,73.93Z"/><path class="cls-1" d="M212.67,62.31h-5.51V80.85H200.8V62.31h-3.5V59.25l3.5-1.71V55.83c0-2.66.66-4.6,2-5.82s3.4-1.83,6.28-1.83a16.18,16.18,0,0,1,5.86,1l-1.63,4.67a11.66,11.66,0,0,0-3.54-.61,2.29,2.29,0,0,0-2,.81,3.33,3.33,0,0,0-.61,2v1.46h5.51Z"/><path class="cls-1" d="M225.16,81.27q-5.62,0-8.8-3.11t-3.17-8.8q0-5.85,2.93-9.06a10.47,10.47,0,0,1,8.11-3.2,10.26,10.26,0,0,1,7.69,2.82,10.65,10.65,0,0,1,2.75,7.77v3.09h-15a6.1,6.1,0,0,0,1.6,4.23,5.65,5.65,0,0,0,4.22,1.53,17.59,17.59,0,0,0,4-.44,19.76,19.76,0,0,0,3.92-1.4v4.92a14.64,14.64,0,0,1-3.57,1.24A22.51,22.51,0,0,1,225.16,81.27Zm-.89-19.64a4,4,0,0,0-3.17,1.28,5.89,5.89,0,0,0-1.32,3.64h8.93a5.32,5.32,0,0,0-1.23-3.64A4.14,4.14,0,0,0,224.27,61.63Z"/><path class="cls-1" d="M251.15,57.1a9.85,9.85,0,0,1,2.14.19l-.48,6a7.2,7.2,0,0,0-1.87-.21,6.79,6.79,0,0,0-4.75,1.57,5.66,5.66,0,0,0-1.7,4.38V80.85h-6.36V57.54H243l.94,3.92h.31a8.81,8.81,0,0,1,2.93-3.16A7.23,7.23,0,0,1,251.15,57.1Z"/></g></g></svg>