<?xml version="1.0" encoding="utf-8"?>
<!-- Generator: Adobe Illustrator 24.0.3, SVG Export Plug-In . SVG Version: 6.00 Build 0)  -->
<svg version="1.1" id="Layer_1" xmlns="http://www.w3.org/2000/svg" xmlns:xlink="http://www.w3.org/1999/xlink" x="0px" y="0px"
	 viewBox="0 0 143.2 42.5" style="enable-background:new 0 0 143.2 42.5;" xml:space="preserve">
<style type="text/css">
	.st0{fill:#FFFFFF;}
	.st1{fill:#E93023;}
	.st2{clip-path:url(#SVGID_2_);fill:#E93023;}
</style>
<g>
	<path class="st0" d="M53.3,11.4c1.7,1.5,2.5,3.7,2.5,6.4c0,2.8-0.8,4.9-2.5,6.4c-1.7,1.5-4,2.3-7.1,2.3h-5.4v8h-4.9V9.1h10.3
		C49.3,9.1,51.6,9.9,53.3,11.4z M49.6,21c0.8-0.7,1.2-1.8,1.2-3.2c0-1.4-0.4-2.5-1.2-3.1c-0.8-0.7-2-1-3.6-1h-5.2V22H46
		C47.6,22,48.8,21.7,49.6,21z"/>
	<path class="st0" d="M75,17.3v17.2h-4.2l-0.2-2.4h-0.1c-0.5,0.9-1.2,1.6-2.2,2.1c-1,0.5-2.1,0.7-3.3,0.7c-1.6,0-3-0.4-4.3-1.2
		s-2.3-1.9-3-3.3c-0.7-1.4-1.1-2.9-1.1-4.6c0-1.7,0.4-3.2,1.1-4.6c0.7-1.4,1.7-2.5,3-3.3c1.3-0.8,2.7-1.2,4.3-1.2
		c1.2,0,2.3,0.2,3.3,0.7c1,0.5,1.7,1.2,2.2,2.1h0.1l0.2-2.4H75z M62.6,29.5c0.8,0.9,2,1.4,3.4,1.4c1.4,0,2.5-0.5,3.4-1.4
		c0.8-0.9,1.3-2.1,1.3-3.5c0-1.4-0.4-2.6-1.3-3.5c-0.8-0.9-2-1.4-3.4-1.4c-1.4,0-2.5,0.5-3.4,1.4c-0.8,0.9-1.3,2.1-1.3,3.5
		C61.3,27.4,61.7,28.5,62.6,29.5z"/>
	<path class="st0" d="M95.7,17.3L85,42.4h-5l3.6-8.3l-7.1-16.8h5l4.6,11.8h0.1l4.5-11.8H95.7z"/>
	<path class="st1" d="M102.6,13.6v6.5h11.1v4.5h-11.1v9.9h-4.9V9.1h17.7v4.5H102.6z"/>
	<path class="st1" d="M118.4,13.8c-0.6-0.6-0.9-1.3-0.9-2.1c0-0.8,0.3-1.6,0.9-2.1c0.6-0.6,1.3-0.8,2.1-0.8c0.9,0,1.6,0.3,2.1,0.8
		c0.6,0.6,0.8,1.3,0.8,2.1c0,0.8-0.3,1.6-0.8,2.1c-0.6,0.6-1.3,0.8-2.1,0.8C119.7,14.7,119,14.4,118.4,13.8z M118.2,17.3h4.6v17.2
		h-4.6V17.3z"/>
	<path class="st1" d="M143.1,34.6h-5.2l-4.1-5.6h-0.1l-4.1,5.6h-5.2l6.5-8.8l-6.3-8.4h5.2l3.9,5.3h0.1l3.9-5.3h5.2l-6.3,8.4
		L143.1,34.6z"/>
	<g>
		<defs>
			<path id="SVGID_1_" d="M27.7,3.6c2.7,2.4,4,5.8,4,10.2c0,4.4-1.3,7.8-4,10.3c-2.7,2.4-6.4,3.7-11.3,3.7H7.8v12.8H0V0h16.4
				C21.3,0,25,1.2,27.7,3.6z M21.8,18.9c1.3-1.1,1.9-2.8,1.9-5.1c0-2.2-0.6-3.9-1.9-5c-1.3-1.1-3.2-1.7-5.8-1.7H7.8v13.4h8.3
				C18.7,20.5,20.6,20,21.8,18.9z"/>
		</defs>
		<use xlink:href="#SVGID_1_"  style="overflow:visible;fill:#FFFFFF;"/>
		<clipPath id="SVGID_2_">
			<use xlink:href="#SVGID_1_"  style="overflow:visible;"/>
		</clipPath>
		<rect x="3.8" y="-6.3" class="st2" width="11.5" height="56.5"/>
	</g>
</g>
</svg>
