<svg xmlns="http://www.w3.org/2000/svg" xmlns:xlink="http://www.w3.org/1999/xlink" viewBox="0 0 170.03 73.01"><defs><style>.cls-1{fill:url(#radial-gradient);}.cls-2{fill:#fff;}</style><radialGradient id="radial-gradient" cx="46.45" cy="20.28" r="85.14" gradientUnits="userSpaceOnUse"><stop offset="0" stop-color="#81c341"/><stop offset="1" stop-color="#8cc540"/></radialGradient></defs><title>eco</title><g id="Layer_2" data-name="Layer 2"><g id="Layer_1-2" data-name="Layer 1"><path class="cls-1" d="M6.7,42.37C7,20.61,36.82,3.37,73.33,3.85,93.24,4.11,111,9.6,123,18.06,111.1,7.46,90.75.33,67.55,0,30.53-.48.28,16.62,0,38.19-.11,46.91,4.69,55,12.88,61.63A34.34,34.34,0,0,1,6.7,42.37Z"/><path class="cls-2" d="M70.54,44.34c0,2.47-.63,4.18-1.89,5.13s-3.22,1.43-5.86,1.43H34c0,2.84,1.42,5,4.29,6.54a18.25,18.25,0,0,0,8.47,1.81,24.23,24.23,0,0,0,9.34-2.38c3.65-1.58,6-2.37,7-2.37a6.48,6.48,0,0,1,4.7,1.89,6.18,6.18,0,0,1,2,4.56q0,6.09-9.82,9.49A46.36,46.36,0,0,1,44.68,73q-12.45,0-20.16-7.68T16.81,46a25.73,25.73,0,0,1,8-19A27.06,27.06,0,0,1,44.68,19,24.9,24.9,0,0,1,63.13,26.5,24.52,24.52,0,0,1,70.54,44.34Zm-16-3.7a8.42,8.42,0,0,0-3.35-6.15,10.13,10.13,0,0,0-13.92,0Q34,37.27,34,40.65Z"/><path class="cls-2" d="M117.73,62.66q0,5-7,8A30.26,30.26,0,0,1,98.83,73Q86.77,73,79.23,65A26.63,26.63,0,0,1,72,46a26.76,26.76,0,0,1,7.41-19.13Q86.78,19,98.83,19a33.76,33.76,0,0,1,12,1.9q7,2.55,6.95,8a7.1,7.1,0,0,1-1.83,4.84,6,6,0,0,1-4.68,2.09,20.05,20.05,0,0,1-5.6-1.2,20.27,20.27,0,0,0-5.8-1.18q-5.7,0-8.86,3.76A12.9,12.9,0,0,0,88,46a13.82,13.82,0,0,0,2.65,8.57,9.61,9.61,0,0,0,8.25,4.05,22.56,22.56,0,0,0,6.41-1.29A22.89,22.89,0,0,1,111.22,56a6.06,6.06,0,0,1,4.58,2.09A6.59,6.59,0,0,1,117.73,62.66Z"/><path class="cls-2" d="M170,46a26.67,26.67,0,0,1-7.26,19Q155.21,73,143.15,73T123.55,65a26.63,26.63,0,0,1-7.25-19,26.6,26.6,0,0,1,7.25-19q7.65-8,19.6-8t19.62,8A26.64,26.64,0,0,1,170,46Zm-16,0a13.86,13.86,0,0,0-2.63-8.57,10.47,10.47,0,0,0-16.39,0A13.8,13.8,0,0,0,132.34,46,14.2,14.2,0,0,0,135,54.63a10.46,10.46,0,0,0,16.39,0A14.26,14.26,0,0,0,154,46Z"/></g></g></svg>