<svg id="Layer_1" data-name="Layer 1" xmlns="http://www.w3.org/2000/svg" viewBox="0 0 762.04 109.47"><defs><style>.cls-1{fill:#f9c283;}.cls-2{fill:#ebaccd;}.cls-3{fill:#b3bbe0;}.cls-4{fill:#fff;}</style></defs><title>mefete-logo</title><rect class="cls-1" x="132.57" y="1.06" width="107.98" height="14.03" rx="7.01"/><rect class="cls-2" x="132.57" y="48.55" width="107.98" height="14.03" rx="7.01"/><rect class="cls-3" x="132.57" y="94.99" width="107.98" height="14.03" rx="7.01"/><path class="cls-4" d="M125.15,20.18h0A7,7,0,0,0,118.91,24a7.27,7.27,0,0,0-.6.92L79,98.93,40.18,25.72a7,7,0,0,0-13.87,1.47v94.92a7,7,0,0,0,14,0V56l31.53,59.4A7,7,0,0,0,79,119a7,7,0,0,0,7.17-3.65L118.14,55.2v66.91a7,7,0,0,0,7,7h0a7,7,0,0,0,7-7V27.19A7,7,0,0,0,125.15,20.18Z" transform="translate(-26.31 -19.66)"/><path class="cls-4" d="M382.44,68.21H306.32V33.69h76.12a7,7,0,0,0,0-14h-82.5a7,7,0,0,0-4.73,1.86,7,7,0,0,0-2.92,5.67v94.92a7,7,0,0,0,14,0V82.24h76.12a7,7,0,0,0,7-7h0A7,7,0,0,0,382.44,68.21Z" transform="translate(-26.31 -19.66)"/><rect class="cls-4" x="388.63" width="107.44" height="14.03" rx="7.01"/><rect class="cls-4" x="388.63" y="48.55" width="107.44" height="14.03" rx="7.01"/><rect class="cls-4" x="388.63" y="94.99" width="107.44" height="14.03" rx="7.01"/><rect class="cls-4" x="654.61" width="107.44" height="14.03" rx="7.01"/><rect class="cls-4" x="654.61" y="48.55" width="107.44" height="14.03" rx="7.01"/><rect class="cls-4" x="654.61" y="94.99" width="107.44" height="14.03" rx="7.01"/><path class="cls-4" d="M648.35,19.66H554.94a7,7,0,0,0,0,14h39.69v88.24a7,7,0,0,0,7,7h0a7,7,0,0,0,7-7V33.69h39.69a7,7,0,1,0,0-14Z" transform="translate(-26.31 -19.66)"/></svg>