<?xml version="1.0" encoding="utf-8"?>
<!-- Generator: Adobe Illustrator 22.1.0, SVG Export Plug-In . SVG Version: 6.00 Build 0)  -->
<svg version="1.1" id="katman_1" xmlns="http://www.w3.org/2000/svg" xmlns:xlink="http://www.w3.org/1999/xlink" x="0px" y="0px"
	 viewBox="0 0 196 110" style="enable-background:new 0 0 196 110;" xml:space="preserve">
<style type="text/css">
	.st0{display:none;fill-rule:evenodd;clip-rule:evenodd;fill:#EF0F0F;}
	.st1{fill:#C32929;}
	.st2{fill-rule:evenodd;clip-rule:evenodd;fill:#EF0F0F;}
	.st3{fill:#FFFFFF;}
</style>
<path class="st0" d="M-476.4-200.9c132.7,0,240.3,107.6,240.3,240.3s-107.6,240.3-240.3,240.3S-716.6,172.1-716.6,39.4
	S-609.1-200.9-476.4-200.9"/>
<path class="st1" d="M16,13.8c-0.2,0.7,0.2,1.3,0.7,1.8l4.7,0.5c2,0.2,3.4,0.7,4.3,1.6c0.9,0.7,1.5,2,1.6,4c0.2,2,0.4,4.9,0.4,8.7
	v26.8c3.6,0.2,7.2,0.2,10.9,0v-37c-0.2-1.4,0-2.5,0.4-3.4c0.2-0.5,0.9-1.1,1.8-1.3c1.1-0.2,2.9-0.2,5.3-0.2c6.9,0.2,12.1,2,15.9,5.8
	c3.6,3.8,5.4,9.1,5.4,15.6c0.2,5.8-1.3,10.7-4.3,14.7c-2.7,3.4-6.7,6-12.1,7.2c-5.3,1.3-12.7,1.8-22.6,1.6
	c-8.7-0.2-18.1-0.7-28.4-1.8c11.4,2.4,19.9,4,25.4,4.5c8.9,1.1,17.6,0.9,25.7-0.4c4.2-0.5,8-1.6,11.4-2.9c3.3-1.4,6.5-3.4,10-5.8
	c2-1.4,3.8-3.8,5.4-6.9c1.3-2.9,2-6.3,2.2-10.5c-0.2-4.5-1.3-8.5-3.3-12c-2-3.4-4.4-6.2-7.4-8.1c-3.1-1.8-6.9-3.3-11.2-4.2
	c-4.2-0.7-9.1-1.1-14.7-1.1c-5.4,0-10.3,0-14.7,0.2c-4.3,0.2-8.3,0.4-11.8,0.7C16.4,12.5,16,13,16,13.8 M27.7,80
	c0,4.5-0.2,8-0.5,10.3c-0.4,4.6-3.4,6.1-7.6,6.4L16.8,97c-0.9,0.9-0.8,2.8,0.2,3.4c5.6-0.3,10.7-0.5,16.3-0.5c6,0,11.6,0.3,17.6,0.5
	c0.4-0.4,0.5-0.9,0.7-1.6c0-0.9-0.2-1.5-0.5-1.8l-3.6-0.4c-2.9-0.2-4.9-0.7-6-1.6c-0.1,0-0.1-0.1-0.2-0.1c-1.1-0.9-1.9-2.3-2.2-4.5
	c-0.4-2.4-0.5-5.8-0.4-10.3V67.4c-4,0.2-7.6,0-10.9-0.5L27.7,80z M100.6,12.4h-5h-4.8c-1.6-0.2-3.6-0.2-5.5-0.4
	c-0.5,0.2-0.7,0.7-0.9,1.4c-0.2,0.7,0,1.2,0.4,1.8l2.1,0.2c2.7,0.5,4.6,1.1,5.9,1.6c1.2,0.7,2.1,2,2.5,3.6c0.4,1.6,0.5,3.7,0.4,6.4
	c-0.2,3.7-0.4,8.2-0.5,13.3c-0.2,5.2-0.5,10.5-0.9,16c-0.4,8.5-1.1,29.3-3.4,35.4c-0.5,1.4-1.4,2.3-2.5,2.9
	c-1.2,0.5-2.7,1.1-4.4,1.2L81,96.2c-0.5,0.4-0.7,0.9-0.5,1.8c0,0.5,0.2,1.1,0.7,1.6c2.3-0.2,4.4-0.4,6.8-0.5h6.8h7.3
	c2.7,0.2,5,0.4,7.1,0.5c0.5-0.4,0.9-0.9,0.9-1.6c0-0.7-0.2-1.2-0.7-1.8l-5-0.4c-1.6-0.2-2.9-0.5-3.7-1.2c-0.4-0.4-0.8-0.9-1.1-1.5
	c-1.1-2.5-1.1-6.8-1-9.5c0.1-5.5,0.2-11,0.4-16.5c0.2-5.5,0.4-10.3,0.5-14.4c0.2-3.7,0.5-7.6,0.7-11.6c0.2-3.9,0.4-7.8,0.5-11.7h0.4
	c1.4,3,2.8,6,4.1,9.4c1.4,3.2,2.8,6.4,4.3,9.4l11.9,25.4c1.1,2.1,2.3,4.8,3.7,8c1.6,3.4,3.2,6.6,4.6,9.8c0.8,1.7,1.4,3.3,2,4.8
	c0.1,0,1.1,3.3,1.2,3.7c0.7,0.7,1.8,0.7,2.5,0c1.1-2.6,2.3-5.3,3.5-7.9c3.4-7.6,6.9-14.8,10.8-22l11.6-22.9c0.9-2,1.8-4.1,3-6.4
	c1.2-2.5,2.5-4.8,3.6-6.8c0.9-2.1,1.6-3.6,1.9-4.1h0.2l0.4,54.9c0.2,2.8,0,5-0.2,6.6c-0.1,1.3-0.5,2.5-1.7,3.1
	c-0.7,0.9-2.1,1.2-4.5,1.4l-3.9,0.4c-0.4,0.4-0.5,0.9-0.4,1.8c0,0.5,0.2,1.1,0.7,1.6c2.7-0.2,5.5-0.4,8.2-0.5h7.8h7.5
	c2.7,0.2,5.3,0.4,8,0.5c0.5-0.4,0.7-0.9,0.7-1.6c0.2-0.7,0-1.2-0.4-1.8l-4.3-0.4c-2-0.2-3.4-0.7-4.3-1.6c-0.9-0.9-1.6-2-1.8-3.4
	c-0.2-1.6-0.4-3.6-0.4-5.7c-0.4-6.6-0.6-13.3-0.8-20c-0.2-7.1-0.5-13.9-0.7-20.3V28c0-3,0.2-5.3,0.5-7.1c0.4-1.6,1.2-3,2.5-3.9
	c1.2-0.7,3.4-1.2,6.2-1.6l2.7-0.2c0.4-0.4,0.5-0.9,0.4-1.8c0-0.5-0.2-1.1-0.5-1.4c-2.1,0.2-4.3,0.2-6.2,0.4h-5.5H176
	c-1.6-0.2-3.4-0.2-5.7-0.4c-0.2,3-1.2,6.4-2.8,10.3c-2,4.1-4.3,9.1-7.1,14.9l-12.4,25.1c-3.2,6.8-6.2,13.3-10.1,19.8h-0.4
	c-3.1-5.9-6-12.1-8.9-18.2l-15.1-30.2c-2-4.3-3.7-8.4-5.2-12.1c-1.2-3.7-1.8-6.9-1.6-9.6C104.5,12.2,102.6,12.2,100.6,12.4z"/>
<path class="st2" d="M96.3-3.7C129.3-3.7,156,23,156,56s-26.7,59.7-59.7,59.7S36.6,89,36.6,56S63.3-3.7,96.3-3.7"/>
<path class="st3" d="M54.7,37.3c-0.1,0.4,0.1,0.7,0.4,0.9l2.4,0.3c1,0.1,1.8,0.4,2.3,0.8c0.5,0.4,0.8,1,0.8,2.1
	c0.1,1,0.2,2.5,0.2,4.5v13.9c1.9,0.1,3.8,0.1,5.6,0V40.7c-0.1-0.7,0-1.3,0.2-1.8c0.1-0.3,0.5-0.6,0.9-0.7c0.6-0.1,1.5-0.1,2.7-0.1
	c3.6,0.1,6.3,1,8.3,3c1.9,2,2.8,4.7,2.8,8.1c0.1,3-0.7,5.5-2.2,7.6c-1.4,1.8-3.5,3.1-6.3,3.8c-2.7,0.7-6.6,0.9-11.7,0.8
	c-4.5-0.1-9.4-0.4-14.7-0.9c5.9,1.2,10.3,2.1,13.1,2.3c4.6,0.6,9.1,0.5,13.3-0.2c2.2-0.3,4.1-0.8,5.9-1.5c1.7-0.7,3.4-1.8,5.2-3
	c1-0.8,2-2,2.8-3.6c0.7-1.5,1-3.3,1.1-5.4c-0.1-2.3-0.7-4.4-1.7-6.2c-1-1.8-2.3-3.2-3.8-4.2c-1.6-0.9-3.6-1.7-5.8-2.2
	c-2.2-0.4-4.7-0.6-7.6-0.6c-2.8,0-5.3,0-7.6,0.1c-2.3,0.1-4.3,0.2-6.1,0.4C54.9,36.7,54.7,37,54.7,37.3 M60.8,71.6
	c0,2.3-0.1,4.1-0.3,5.3c-0.2,2.4-1.7,3.1-3.9,3.3l-1.4,0.2c-0.5,0.5-0.4,1.4,0.1,1.8c2.9-0.2,5.5-0.3,8.5-0.3c3.1,0,6,0.1,9.1,0.3
	c0.2-0.2,0.3-0.5,0.4-0.8c0-0.5-0.1-0.8-0.3-0.9L71,80.3c-1.5-0.1-2.5-0.4-3.1-0.8c0,0-0.1,0-0.1-0.1c-0.6-0.5-1-1.2-1.1-2.3
	c-0.2-1.2-0.3-3-0.2-5.3v-6.6c-2.1,0.1-3.9,0-5.6-0.3L60.8,71.6z M98.5,36.6h-2.6h-2.5c-0.8-0.1-1.8-0.1-2.9-0.2
	c-0.3,0.1-0.4,0.4-0.5,0.7c-0.1,0.4,0,0.6,0.2,0.9l1.1,0.1c1.4,0.3,2.4,0.5,3,0.8c0.6,0.4,1.1,1,1.3,1.8c0.2,0.8,0.3,1.9,0.2,3.3
	c-0.1,1.9-0.2,4.2-0.3,6.9c-0.1,2.7-0.3,5.4-0.5,8.3c-0.2,4.4-0.6,15.2-1.8,18.3c-0.3,0.7-0.7,1.2-1.3,1.5c-0.6,0.3-1.4,0.5-2.3,0.6
	L88.4,80c-0.3,0.2-0.4,0.5-0.3,0.9c0,0.3,0.1,0.6,0.4,0.8c1.2-0.1,2.3-0.2,3.5-0.3h3.5h3.8c1.4,0.1,2.6,0.2,3.7,0.3
	c0.3-0.2,0.5-0.5,0.5-0.8c0-0.4-0.1-0.6-0.4-0.9l-2.6-0.2c-0.8-0.1-1.5-0.3-1.9-0.6c-0.2-0.2-0.4-0.4-0.6-0.8
	c-0.5-1.3-0.6-3.5-0.5-4.9c0.1-2.9,0.1-5.7,0.2-8.6c0.1-2.9,0.2-5.3,0.3-7.5c0.1-1.9,0.3-4,0.4-6c0.1-2,0.2-4,0.3-6.1h0.2
	c0.7,1.6,1.5,3.1,2.1,4.9c0.7,1.7,1.5,3.3,2.2,4.9l6.2,13.2c0.6,1.1,1.2,2.5,1.9,4.1c0.8,1.7,1.7,3.4,2.4,5.1c0.4,0.9,0.7,1.7,1,2.5
	c0.1,0,0.6,1.7,0.6,1.9c0.4,0.4,0.9,0.3,1.3,0c0.6-1.4,1.2-2.8,1.8-4.1c1.7-3.9,3.6-7.6,5.6-11.4l6-11.9c0.5-1,0.9-2.1,1.6-3.3
	c0.6-1.3,1.3-2.5,1.8-3.5c0.5-1.1,0.8-1.8,1-2.1h0.1l0.2,28.4c0.1,1.5,0,2.6-0.1,3.4c-0.1,0.7-0.3,1.3-0.9,1.6
	c-0.4,0.5-1.1,0.6-2.3,0.7l-2,0.2c-0.2,0.2-0.3,0.5-0.2,0.9c0,0.3,0.1,0.6,0.4,0.8c1.4-0.1,2.9-0.2,4.2-0.3h4.1h3.9
	c1.4,0.1,2.8,0.2,4.1,0.3c0.3-0.2,0.4-0.5,0.4-0.8c0.1-0.4,0-0.6-0.2-0.9l-2.2-0.2c-1-0.1-1.8-0.4-2.2-0.8c-0.5-0.5-0.8-1-0.9-1.7
	c-0.1-0.8-0.2-1.8-0.2-2.9c-0.2-3.4-0.3-6.9-0.4-10.3c-0.1-3.7-0.3-7.2-0.4-10.5v-8.7c0-1.6,0.1-2.8,0.3-3.7c0.2-0.8,0.6-1.6,1.3-2
	c0.6-0.4,1.7-0.6,3.2-0.8l1.4-0.1c0.2-0.2,0.3-0.5,0.2-0.9c0-0.3-0.1-0.6-0.3-0.7c-1.1,0.1-2.2,0.1-3.2,0.2h-2.9h-2.1
	c-0.8-0.1-1.8-0.1-2.9-0.2c-0.1,1.6-0.6,3.3-1.5,5.3c-1,2.1-2.2,4.7-3.7,7.7l-6.4,13c-1.7,3.5-3.2,6.9-5.2,10.2h-0.2
	c-1.6-3.1-3.1-6.3-4.6-9.4l-7.8-15.6c-1-2.2-1.9-4.3-2.7-6.3c-0.6-1.9-0.9-3.6-0.8-5C100.5,36.5,99.5,36.5,98.5,36.6z"/>
</svg>
