<?xml version="1.0" encoding="utf-8"?>
<!-- Generator: Adobe Illustrator 24.0.1, SVG Export Plug-In . SVG Version: 6.00 Build 0)  -->
<svg version="1.1" id="Layer_1" xmlns="http://www.w3.org/2000/svg" xmlns:xlink="http://www.w3.org/1999/xlink" x="0px" y="0px"
	 viewBox="0 0 55 14.6" style="enable-background:new 0 0 55 14.6;" xml:space="preserve">
<style type="text/css">
	.st0{fill:#00FFF2;}
	.st1{fill:#FFFFFF;}
</style>
<g>
	<g>
		<path class="st0" d="M0,7.1C0,3.2,2.9,0,7.1,0c4.2,0,7.1,3.2,7.1,7.1c0,2-0.7,3.7-2,5l1.9,2.5h-3.2l-0.8-1c-0.9,0.4-1.9,0.6-3,0.6
			C2.9,14.2,0,11,0,7.1z M9.1,8l1.5,2c0.6-0.8,0.9-1.8,0.9-2.9c0-2.6-1.8-4.7-4.4-4.7c-2.5,0-4.4,2.1-4.4,4.7c0,2.6,1.8,4.7,4.4,4.7
			c0.5,0,1-0.1,1.5-0.2L5.9,8H9.1z"/>
		<path class="st0" d="M23.9,8.6l4.1,5.4h-3.4l-4-5.2h-2.2v5.2h-2.7V0.3h6.7c3.2,0,4.7,2,4.7,4.2C27.3,6.4,26.2,8.1,23.9,8.6z
			 M18.5,6.3h3.9c1.4,0,2.2-0.7,2.2-1.8s-0.8-1.8-2.2-1.8h-3.9V6.3z"/>
		<path class="st1" d="M33.9,2.6l-1.4,6.7c-0.3,1.5-1.5,2.4-3.1,2.4h-1.7l0.2-0.9h1.5c1,0,1.9-0.5,2.1-1.5L33,2.6H33.9z"/>
		<path class="st1" d="M36.1,3.4l-0.7,3.2h5l-0.2,0.9h-5l-0.7,3.2h5.1l-0.2,0.9h-6l1.9-9h6l-0.2,0.9H36.1z"/>
		<path class="st1" d="M49.7,2.6l-0.2,0.9h-3.2l-1.7,8.2h-0.9l1.7-8.2h-3.2l0.2-0.9H49.7z"/>
	</g>
	<ellipse class="st0" cx="21.6" cy="6.8" rx="0" ry="0.1"/>
	<path class="st0" d="M47.3,5.6l-0.1,0.6c0,0.1,0,0.1,0.1,0.1h7.5c0.1,0,0.1,0,0.1-0.1L55,5.6c0-0.1,0-0.1-0.1-0.1h-7.5
		C47.3,5.5,47.3,5.5,47.3,5.6z"/>
	<path class="st0" d="M52.8,7.3l-0.1,0.6C52.6,8,52.6,8,52.5,8h-5.7c-0.1,0-0.1-0.1-0.1-0.1l0.1-0.6c0-0.1,0.1-0.1,0.1-0.1h5.7
		C52.7,7.2,52.8,7.2,52.8,7.3z"/>
	<path class="st0" d="M50.1,9L50,9.6c0,0.1-0.1,0.1-0.1,0.1h-3.4c-0.1,0-0.1-0.1-0.1-0.1L46.5,9c0-0.1,0.1-0.1,0.1-0.1H50
		C50.1,8.9,50.1,9,50.1,9z"/>
</g>
</svg>
