<svg version="1.1" xmlns="http://www.w3.org/2000/svg" x="0" y="0" width="31.875" height="8.695" viewBox="-7.664 0 31.875 8.695" xml:space="preserve"><g fill="#FFF"><path d="M-6.07 7.926c0 .219-.078.406-.234.563s-.344.234-.563.234h-.797V2.886c0-1.094.32-1.84.961-2.238S-5.367.05-4.617.05c.391 0 .785.074 1.184.223s.715.363.949.645c.469.609.703 1.391.703 2.344 0 .984-.234 1.782-.703 2.391-.469.594-1.07.891-1.805.891-.391 0-.734-.07-1.031-.211a1.755 1.755 0 0 1-.75-.727v2.32zm2.672-4.594c0-.609-.117-1.078-.352-1.406s-.57-.492-1.008-.492c-.422 0-.75.164-.984.492-.219.296-.328.765-.328 1.406 0 .594.117 1.039.352 1.336.234.328.57.492 1.008.492.406 0 .727-.164.961-.492.233-.328.351-.774.351-1.336zM2.484 6.168c-.328.172-.675.278-1.043.317s-.691.058-.972.058c-.563 0-1.055-.152-1.477-.457s-.633-.809-.633-1.512c0-.657.191-1.125.574-1.407s.871-.469 1.465-.563c.078 0 .172-.012.281-.035s.234-.043.375-.059c.688-.094 1.031-.297 1.031-.609 0-.234-.121-.387-.363-.457s-.464-.104-.667-.104c-.219 0-.414.031-.586.094s-.297.18-.375.352h-1.57c.062-.485.281-.884.656-1.196C-.398.231.203.051.985.051c.875 0 1.531.148 1.969.445.453.313.68.75.68 1.313v2.133c0 .625-.113 1.114-.34 1.465s-.497.605-.81.761zm-.375-2.883a4.43 4.43 0 0 1-.914.305l-.539.117c-.281.078-.484.18-.609.305a.958.958 0 0 0-.164.516c0 .234.07.422.211.563.141.125.344.188.609.188.438 0 .781-.125 1.031-.375s.375-.594.375-1.032v-.587zM5.461 7.926c0 .219-.078.406-.234.563s-.344.234-.563.234h-.797V2.886c0-1.094.32-1.84.961-2.238S6.164.05 6.914.05c.391 0 .785.074 1.184.223s.715.363.949.645c.469.609.703 1.39.703 2.343 0 .984-.234 1.782-.703 2.391-.469.594-1.07.891-1.805.891-.391 0-.734-.07-1.031-.211a1.755 1.755 0 0 1-.75-.727v2.321zm2.672-4.594c0-.609-.117-1.078-.352-1.406s-.57-.492-1.008-.492c-.422 0-.75.164-.984.492-.219.296-.328.765-.328 1.406 0 .594.117 1.039.352 1.336.234.328.57.492 1.007.492.406 0 .727-.164.961-.492.235-.328.352-.774.352-1.336zM14.016 6.168c-.328.172-.676.277-1.043.316s-.692.059-.973.059c-.563 0-1.055-.152-1.477-.457s-.632-.808-.632-1.512c0-.657.191-1.125.574-1.407s.871-.469 1.465-.563c.078 0 .172-.012.281-.035s.234-.043.375-.059c.688-.094 1.031-.297 1.031-.609 0-.234-.121-.387-.363-.457s-.465-.104-.668-.104c-.219 0-.414.031-.586.094s-.297.18-.375.352h-1.57c.063-.484.281-.883.656-1.195.422-.359 1.023-.539 1.805-.539.875 0 1.531.148 1.969.445.453.313.68.75.68 1.313v2.133c0 .625-.113 1.114-.34 1.465s-.497.604-.809.76zm-.375-2.883a4.451 4.451 0 0 1-.914.305l-.539.117c-.281.078-.484.18-.609.305a.958.958 0 0 0-.164.516c0 .234.07.422.211.563.141.125.344.188.609.188.438 0 .781-.125 1.031-.375s.375-.594.375-1.032v-.587zM15.398 6.426V3.402c0-.609.09-1.121.27-1.535s.426-.746.738-.996c.297-.234.645-.406 1.043-.516s.809-.164 1.23-.164h.234v1.664h-.539c-.453 0-.789.109-1.008.328s-.328.563-.328 1.031v3.211h-1.64zM23.063 6.168c-.328.172-.676.277-1.043.316s-.691.059-.973.059c-.563 0-1.055-.152-1.477-.457s-.633-.809-.633-1.512c0-.657.191-1.125.574-1.407s.871-.469 1.465-.563c.078 0 .172-.012.281-.035s.234-.043.375-.059c.688-.094 1.031-.297 1.031-.609 0-.234-.121-.387-.363-.457s-.464-.104-.667-.104c-.219 0-.414.031-.586.094s-.297.18-.375.352h-1.57c.063-.484.281-.883.656-1.195.422-.359 1.023-.539 1.805-.539.875 0 1.531.148 1.969.445.453.313.68.75.68 1.313v2.133c0 .625-.113 1.114-.34 1.465s-.497.604-.809.76zm-.375-2.883a4.451 4.451 0 0 1-.914.305l-.539.117c-.281.078-.484.18-.609.305a.958.958 0 0 0-.164.516c0 .234.07.422.211.563.141.125.344.188.609.188.438 0 .781-.125 1.031-.375s.375-.594.375-1.032v-.587z"/></g></svg>