<svg xmlns="http://www.w3.org/2000/svg" xmlns:xlink="http://www.w3.org/1999/xlink" viewBox="0 0 195.38 35.37"><defs><style>.cls-1{fill:#fff;}.cls-2{fill:url(#linear-gradient);}.cls-3{fill:url(#linear-gradient-2);}.cls-4{fill:url(#linear-gradient-3);}.cls-5{fill:url(#linear-gradient-4);}</style><linearGradient id="linear-gradient" x1="1.82" y1="10.82" x2="32.42" y2="10.82" gradientUnits="userSpaceOnUse"><stop offset="0" stop-color="#a9cf3b"/><stop offset="0.27" stop-color="#a7ce3b"/><stop offset="0.43" stop-color="#9eca3c"/><stop offset="0.56" stop-color="#90c33d"/><stop offset="0.67" stop-color="#7dba3e"/><stop offset="0.77" stop-color="#63ae40"/><stop offset="0.86" stop-color="#449f42"/><stop offset="0.94" stop-color="#1f8e44"/><stop offset="0.99" stop-color="#058246"/></linearGradient><linearGradient id="linear-gradient-2" x1="4.92" y1="17.23" x2="10.78" y2="4.71" gradientUnits="userSpaceOnUse"><stop offset="0" stop-color="#29abe2"/><stop offset="1" stop-color="#01509e"/></linearGradient><linearGradient id="linear-gradient-3" x1="-493.59" y1="1243.71" x2="-462.99" y2="1243.71" gradientTransform="translate(-449.49 1268.26) rotate(180)" xlink:href="#linear-gradient"/><linearGradient id="linear-gradient-4" x1="-490.49" y1="1250.12" x2="-484.63" y2="1237.6" gradientTransform="translate(-449.49 1268.26) rotate(180)" xlink:href="#linear-gradient-2"/></defs><title>paykasa</title><g id="Layer_2" data-name="Layer 2"><g id="Layer_1-2" data-name="Layer 1"><g id="xofK3G"><path class="cls-1" d="M59.71,25.69v6.8H55.36V3.43h3.7l.47,2.47c.2-.08.4-.1.5-.21,3-3.21,6.68-3.29,10.52-2.1a7,7,0,0,1,4.58,5A17.89,17.89,0,0,1,75.41,18a9.61,9.61,0,0,1-9.2,7.7C64.1,25.81,62,25.69,59.71,25.69ZM59.77,22a17.67,17.67,0,0,0,7.18.21,4.87,4.87,0,0,0,3.88-3.76A16.66,16.66,0,0,0,71,10.65C70.6,8.58,69.52,7,67.36,6.56c-2.41-.5-4.76-.32-6.54,1.66a3.65,3.65,0,0,0-1,2.08C59.72,14.18,59.77,18.06,59.77,22Z"/><path class="cls-1" d="M90.77,12.34c.09-4.88-.56-5.83-4.42-5.91a34.23,34.23,0,0,0-3.61.11c-1.19.1-2.37.31-3.69.5l-.32-3.15a31.21,31.21,0,0,1,11-.5c3.79.64,5.62,2.71,5.71,6.55.11,4.87,0,9.74,0,14.61a5.69,5.69,0,0,1-.11.75H91.89l-.65-2.75-1.47.94a11.09,11.09,0,0,1-8.18,1.93,4.87,4.87,0,0,1-4.1-4c-1-4.69,1.44-7.83,6.57-8.45C86.27,12.7,88.49,12.55,90.77,12.34Zm.15,2.42c-2.47.41-4.76.65-7,1.22-1.77.46-2.46,2.17-2,4.15.32,1.46,1.44,2.27,3.23,2.2a10.2,10.2,0,0,0,5.77-2.23Z"/><path class="cls-1" d="M151.87,12.34c.09-4.88-.56-5.83-4.42-5.91a34.23,34.23,0,0,0-3.61.11c-1.19.1-2.37.31-3.69.5l-.32-3.15a31.21,31.21,0,0,1,11-.5c3.79.64,5.62,2.71,5.71,6.55.11,4.87,0,9.74,0,14.61a5.69,5.69,0,0,1-.11.75H153l-.65-2.75-1.47.94a11.09,11.09,0,0,1-8.18,1.93,4.87,4.87,0,0,1-4.1-4c-1-4.69,1.44-7.83,6.57-8.45C147.37,12.7,149.59,12.55,151.87,12.34Zm.15,2.42c-2.47.41-4.76.65-7,1.22-1.77.46-2.46,2.17-2,4.15.32,1.46,1.44,2.27,3.23,2.2A10.2,10.2,0,0,0,152,20.09Z"/><path class="cls-1" d="M190.65,12.34c.09-4.88-.56-5.83-4.42-5.91a34.23,34.23,0,0,0-3.61.11c-1.19.1-2.37.31-3.69.5l-.32-3.15a31.21,31.21,0,0,1,11-.5c3.79.64,5.62,2.71,5.71,6.55.11,4.87,0,9.74,0,14.61a5.69,5.69,0,0,1-.11.75h-3.47l-.65-2.75-1.47.94a11.09,11.09,0,0,1-8.18,1.93,4.87,4.87,0,0,1-4.1-4c-1-4.69,1.44-7.83,6.57-8.45C186.14,12.7,188.36,12.55,190.65,12.34Zm.15,2.42c-2.47.41-4.76.65-7,1.22-1.77.46-2.46,2.17-2,4.15.32,1.46,1.44,2.27,3.23,2.2a10.2,10.2,0,0,0,5.77-2.23Z"/><path class="cls-1" d="M132.76,3.4h4.91L129.45,14l8.93,11.32h-4.93l-7.58-9.72h-3.44v9.7h-4.38V3.42h4.33v9H126Z"/><path class="cls-1" d="M106.63,32.51H102l3-7.35L95.8,3.43h5l6.54,17.16L114,3.41h1.74v7.37c-2.67,6-6,14.39-8.53,20.45C107,31.66,106.83,32.07,106.63,32.51Z"/><path class="cls-1" d="M174.77,3.58V7.07c-1.58-.26-3-.59-4.48-.7a17.42,17.42,0,0,0-4,.11,2.68,2.68,0,0,0-2.56,2.65A2.77,2.77,0,0,0,166.08,12c1.55.44,3.17.68,4.73,1.11,3.66,1,5.08,2.92,4.95,6.5a5.74,5.74,0,0,1-4.4,5.59c-4,1.23-8,.48-12.08-.34V21.67c2.32.3,4.55.67,6.8.84a11,11,0,0,0,3.42-.37,2.56,2.56,0,0,0,2-2.56,2.59,2.59,0,0,0-1.75-2.85c-1.22-.42-2.49-.69-3.74-1-.63-.15-1.28-.22-1.91-.38A5.59,5.59,0,0,1,159.41,10a6,6,0,0,1,3.65-6.27,14,14,0,0,1,7-.81C171.59,3.06,173.14,3.35,174.77,3.58Z"/></g><path class="cls-2" d="M16.32,0C8.66,0,4.3,3.56,1.82,7.29A9.83,9.83,0,0,1,7.75,4.87c5,0,8.91,4.22,8.91,4.22L29.29,21.64s3.13-3.83,3.13-8S28.18,0,16.32,0Z"/><path class="cls-3" d="M7.75,4.87C5.47,4.87,3,5.6,1.82,7.29A10.29,10.29,0,0,0,0,13.18c0,4.73,1.72,6.39,1.72,6.39L16.65,9.09S12.76,4.87,7.75,4.87Z"/><path class="cls-4" d="M29.6,35.37c7.65,0,12-3.56,14.5-7.29a9.83,9.83,0,0,1-5.93,2.42c-5,0-8.91-4.22-8.91-4.22L16.63,13.73s-3.13,3.83-3.13,8S17.74,35.37,29.6,35.37Z"/><path class="cls-5" d="M38.17,30.5c2.27,0,4.73-.73,5.93-2.42a10.29,10.29,0,0,0,1.82-5.9c0-4.73-1.72-6.39-1.72-6.39L29.27,26.28S33.16,30.5,38.17,30.5Z"/></g></g></svg>