<svg xmlns="http://www.w3.org/2000/svg" xmlns:xlink="http://www.w3.org/1999/xlink" viewBox="0 0 40.46 52.61"><defs><style>.cls-1{fill:none;}.cls-2{clip-path:url(#clip-path);}.cls-3,.cls-6{fill:#fff;}.cls-15,.cls-4{fill:#2251aa;}.cls-10,.cls-12,.cls-14,.cls-4,.cls-6,.cls-7,.cls-9{fill-rule:evenodd;}.cls-5{clip-path:url(#clip-path-5);}.cls-7{fill:#ed1c24;}.cls-8,.cls-9{fill:#b8ac48;}.cls-10{fill:#1aae48;}.cls-11{clip-path:url(#clip-path-15);}.cls-12{fill:#16953c;}.cls-13{clip-path:url(#clip-path-16);}.cls-14{fill:#c0161c;}</style><clipPath id="clip-path" transform="translate(0)"><rect class="cls-1" width="40.36" height="52.64"/></clipPath><clipPath id="clip-path-5" transform="translate(0)"><path class="cls-1" d="M20.23,52.64c-12.47,0-18.95-2.36-18.95-2.36C.46,50,0,49.55,0,49V42.65c0-.58.41-.81,1-1.21H1s6.19-2.62,19.24-2.62,19.23,2.62,19.23,2.62c.59.4,1,.63,1,1.21V49c0,.58-.65,1.08-1.28,1.31C39.18,50.28,32.7,52.64,20.23,52.64Z"/></clipPath><clipPath id="clip-path-15" transform="translate(0)"><path class="cls-1" d="M12.25,20.87h0C7.2,20-.16,14.07,5.44,8.69,9.8,4.5,16.36,4,19.05,4c.77,0,1.22,0,1.22,0,12.51.86,9.28,7.7,9.28,7.7h0S27.33,8.44,20,8.44c-7.72,0-12.46,3.29-12.46,6.9S12.25,20.87,12.25,20.87Z"/></clipPath><clipPath id="clip-path-16" transform="translate(0)"><path class="cls-1" d="M19.37,21.76c-8.39,0-8.75-4.79-8.75-5.56a4.43,4.43,0,0,1,.22-1.72s2.69,2.74,8.42,2.74l1,0c6.43-.35,12.5-3.25,12.5-7.19h0c0-3.95-6.58-5.73-6.58-5.73,3.32.54,10.76,3.4,10.76,8s-5.89,9.06-16.68,9.48Z"/></clipPath></defs><title>SerieA</title><g id="Layer_2" data-name="Layer 2"><g id="Layer_1-2" data-name="Layer 1"><path class="cls-3" d="M.05,6.88A3.26,3.26,0,0,1,1.64,4.41C3.38,3.39,9.34.57,20,.57h.48c10.65,0,16.64,2.78,18.35,3.84a3.15,3.15,0,0,1,1.59,2.47V48.25c0,.56-.77,1-1.28,1.26,0,0-6.46,2.44-18.91,2.44s-18.9-2.44-18.9-2.44c-.58-.18-1.28-.7-1.28-1.26V6.88" transform="translate(0)"/><g class="cls-2"><path class="cls-4" d="M39.47,41.4s-6.19-2.61-19.24-2.61S1,41.4,1,41.4c-.59.41-1,.64-1,1.22v6.32c0,.58.46,1,1.28,1.31,0,0,6.48,2.36,19,2.36s19-2.36,19-2.36c.63-.23,1.28-.73,1.28-1.31V42.62c0-.58-.41-.81-1-1.22" transform="translate(0)"/></g><g class="cls-2"><g class="cls-5"><path class="cls-4" d="M39.47,41.4s-6.19-2.61-19.24-2.61S1,41.4,1,41.4c-.59.41-1,.64-1,1.22v6.32c0,.58.46,1,1.28,1.31,0,0,6.48,2.36,19,2.36s19-2.36,19-2.36c.63-.23,1.28-.73,1.28-1.31V42.62c0-.58-.41-.81-1-1.22" transform="translate(0)"/></g></g><g class="cls-2"><polyline class="cls-6" points="27.26 41.72 25.45 49.19 27.13 49.19 28.93 41.72"/></g><polyline class="cls-6" points="26.27 41.72 20.94 41.72 20.52 43.21 22.44 43.21 20.92 49.19 22.59 49.19 24.11 43.21 25.85 43.21"/><g class="cls-2"><polyline class="cls-6" points="34.54 41.72 32.84 44.21 32.25 41.72 30.58 41.72 28.77 49.19 30.44 49.19 31.48 44.9 32.14 47.03 33.68 45.29 32.73 49.19 34.4 49.19 36.21 41.72"/></g><g class="cls-2"><polyline class="cls-7" points="15.04 43.21 14.37 41.81 8.86 43.21 5.1 43.21 4.91 44.02 8.78 44.02 14.57 42.62 15.22 44.02 18.98 44.02 19.17 43.21"/></g><g class="cls-2"><polyline class="cls-7" points="14.1 43.12 8.59 44.52 4.83 44.52 4.62 45.39 8.47 45.39 14.28 43.99 14.92 45.39 18.68 45.39 18.89 44.52 14.77 44.52"/></g><g class="cls-2"><polyline class="cls-7" points="13.48 44.63 8.2 46.03 4.44 46.03 4.17 47.2 8.03 47.2 13.72 45.8 14.36 47.2 18.24 47.2 18.5 46.03 14.15 46.03"/></g><g class="cls-2"><polyline class="cls-7" points="12.52 46.48 7.83 47.63 4.07 47.63 3.67 49.19 8.14 49.19 12.87 48.04 13.63 49.19 17.74 49.19 18.13 47.63 13.19 47.63"/></g><path class="cls-8" d="M1.31,7v31.5c.42-.19.56-.21.8-.32,0,0,6.2-2,18.13-2s18,2,18,2c.26.09.56.19.94.34V7a3,3,0,0,0-1.5-2.34c-1.6-1-7.21-3.53-17.2-3.53H20C10,1.15,4.42,3.7,2.8,4.68A3.06,3.06,0,0,0,1.31,7M0,6.27A3.3,3.3,0,0,1,1.6,3.77C3.34,2.72,9.32,0,20,0h.49C31.15,0,37.15,2.69,38.86,3.77a3.23,3.23,0,0,1,1.6,2.5v34a5.05,5.05,0,0,0-.85-.37S33,37.44,20.23,37.44.86,39.91.86,39.91a8,8,0,0,0-.86.37Z" transform="translate(0)"/><g class="cls-2"><path class="cls-9" d="M10.84,14a4.43,4.43,0,0,0-.22,1.72c0,.8.39,5.89,9.65,5.54,10.8-.42,16.92-4.61,16.92-9.3S30.92,4.5,23.69,3.58c0,0,9.09,2,9.09,5.93S26.7,16.35,20.27,16.7,10.84,14,10.84,14" transform="translate(0)"/></g><g class="cls-2"><path class="cls-9" d="M29.46,12.35s3.32-6.86-9.18-7.72c0,0-9.24-.76-14.84,4.62S5.69,20.8,15.76,22.11c0,0-8.07-2.07-8.2-6.22C7.45,12.29,12.3,9,20,9c7.32,0,9.44,3.36,9.44,3.36" transform="translate(0)"/></g><g class="cls-2"><path class="cls-10" d="M29.55,11.75s3.23-6.85-9.27-7.7c0,0-9.24-.77-14.84,4.61s1.77,11.26,6.81,12.17c0,0-4.69-1.93-4.69-5.53S12.3,8.41,20,8.41c7.32,0,9.53,3.34,9.53,3.34" transform="translate(0)"/></g><g class="cls-11"><path class="cls-12" d="M12.05,20.83S6.57,19,6.66,14c.1-6.13,12.11-9.67,19.47-6.18,0,0,3.23,1.42,3.42,4,.24,3-.34,3-.34,3l-17.16,6" transform="translate(0)"/></g><path class="cls-8" d="M18.81,13.58l2.84-1.42a.7.7,0,0,1,.2.66c-.14.6-1.15,1-2.25.92a2.77,2.77,0,0,1-.79-.16m-.92-1.08c.15-.59,1.16-1,2.25-.92a2.83,2.83,0,0,1,.93.21l-3,1.29a.65.65,0,0,1-.14-.58m7.1-2c1.8.58,3,1.47,3,2.47,0,1.74-3.59,3.16-8,3.16a17.14,17.14,0,0,1-4.87-.65l3.07-1.54a3.52,3.52,0,0,0,1.35.37c1.39.11,2.69-.47,2.9-1.3A1,1,0,0,0,22,12ZM12,13c0-1.76,3.58-3.17,8-3.17a17.19,17.19,0,0,1,4.54.56l-3,1.27a3.75,3.75,0,0,0-1.25-.32c-1.39-.1-2.68.48-2.89,1.3a.94.94,0,0,0,.12.73l-3.78,1.6C12.6,14.37,12,13.69,12,13" transform="translate(0)"/><path class="cls-7" d="M10.84,14.45a4.43,4.43,0,0,0-.22,1.72c0,.8.39,5.89,9.65,5.54C31.07,21.29,37,16.8,37,12.22s-7.45-7.44-10.77-8c0,0,6.59,1.78,6.59,5.72s-6.08,6.84-12.51,7.2-9.43-2.71-9.43-2.71" transform="translate(0)"/><g class="cls-13"><path class="cls-14" d="M26.29,4.24S35.15,6,34.67,10.12s-9,7.2-16,7.2-9.43-4.75-9.43-4.75l.45,5.92s3.28,2.93,10,2.93,15-3.15,17.48-7.77S30.59,2.93,30.59,2.93l-4.3,1.31" transform="translate(0)"/></g><path class="cls-15" d="M28.25,34.05l2.61-7h1l2.85,7H32.94l-.66-1.91H30.19l-.64,1.91h-1.3M32,31.29l-.77-2.23-.74,2.23ZM15.31,33.1v.95h-4V27.84h3.92v.92a5.49,5.49,0,0,0-1.51-.18h-1.3v1.79h2v.81h-2V33.3h1.55a4.11,4.11,0,0,0,1.24-.2M17,28.44v2.19h.93a1.07,1.07,0,0,0,1.09-1v-.11a1.07,1.07,0,0,0-1.09-1Zm0,2.74v2.87h-1.1V27.84h2.48c.26,0,1.77,0,1.77,1.49a1.79,1.79,0,0,1-1.3,1.78l1.87,2.94H19.47S18.29,31.92,18,31.48s-1-.3-1-.3m4.13-3.34h1v6.21h-1Zm5.8,5.26v.95H23V27.84h3.91v.92a5.49,5.49,0,0,0-1.51-.18h-1.3v1.79h2.05v.81h-2V33.3h1.54a4.11,4.11,0,0,0,1.24-.2M10.28,27l-.2,1.18a3.51,3.51,0,0,0-2-.7c-.91,0-1.17.39-1.17.73S7,29.29,9,30A2.25,2.25,0,0,1,10.65,32c0,1.65-1.37,2-2.45,2a7.14,7.14,0,0,1-2.41-.61l.43-1.18a2.91,2.91,0,0,0,2,1.07c1.1,0,1.47-.7,1.47-1.17s-.49-.92-1.44-1.26S5.92,30,5.92,28.58c0-1.65,1.38-1.78,2.18-1.78a20.24,20.24,0,0,1,2.18.2" transform="translate(0)"/></g></g></svg>