<svg xmlns="http://www.w3.org/2000/svg" viewBox="0 0 94.79 57.87"><defs><style>.cls-1{fill:#fff;}</style></defs><title>World-Cup-White</title><g id="Layer_2" data-name="Layer 2"><g id="Layer_1-2" data-name="Layer 1"><path class="cls-1" d="M58.78,36.51h0c-3.44,0-5.08,2.32-5.58,5.29-1,5.63,2,7.34,5.58,7.34h0c3.63,0,6.54-1.71,5.58-7.34-.51-3-2.14-5.29-5.58-5.29m0,11.38h0c-1.91,0-3.43-1.39-2.93-5.9.27-2.38,1.13-4.23,2.93-4.23h0c1.8,0,2.66,1.85,2.92,4.23C62.2,46.5,60.67,47.89,58.77,47.89Zm19-5.36a3,3,0,0,0,2.42-2.81A2.59,2.59,0,0,0,79,37.57a4.68,4.68,0,0,0-2.94-.89H76a4.69,4.69,0,0,0-3,.89,2.59,2.59,0,0,0-1.15,2.15,3,3,0,0,0,2.42,2.81s-3.45.41-3.45,3.1c0,3.06,3.46,3.55,5.18,3.55s5.18-.49,5.18-3.55C81.18,42.94,77.73,42.53,77.73,42.53Zm.13,5.07a2.82,2.82,0,0,1-3.72,0,2.67,2.67,0,0,1-.5-1.82c0-.66.35-2.53,2-2.76v-.94a2,2,0,0,1-1.58-2.26c0-1.9,1.27-2.31,1.93-2.31s1.93.41,1.93,2.31a2,2,0,0,1-1.45,2.23v1c1.55.31,1.86,2.1,1.88,2.74A2.67,2.67,0,0,1,77.86,47.6ZM41.25,23.26c0-3-3.34-3-5.62-3H30.05V32.09h2.47V21.24h3.11c.68,0,2.77,0,2.77,2,0,1.61-3.5,3.5-5.18,4.39v1.92c.8-.38,1.89-.89,2.49-1.19l3.07,3.71h2.78l-3.94-4.71C40.07,25.93,41.25,24.58,41.25,23.26Zm11.44-3h-2.3l.16,1.12a52.59,52.59,0,0,1,.6,6.79,3.1,3.1,0,0,1-3.1,3.21h0a3.1,3.1,0,0,1-3.1-3.21,52.59,52.59,0,0,1,.6-6.79l.16-1.12h-2.3l-.21,1.15a55,55,0,0,0-.88,6.18c0,3,2.2,4.8,5.73,4.8h0c3.53,0,5.73-1.84,5.73-4.8a55,55,0,0,0-.88-6.18Zm25,12h2.47v-12H77.64Zm-26.9,5.83c-1.91-2-6.87-1.89-8.13.61a3.23,3.23,0,0,0,.1,3l1-.43a2.51,2.51,0,0,1,1.88-3.36,2.57,2.57,0,0,1,3.15,3.18c-.91,2.36-5.22,5.64-7.07,6.92v.84H51.92V47.35l-7.08,0C48.46,45.89,54.35,41.81,50.74,38.07Zm16.54-.53a6.41,6.41,0,0,1-1.86.38v.74h.38a.94.94,0,0,1,1,1v9.17h2.47V37h-1A7.22,7.22,0,0,1,67.28,37.54ZM62.76,25.82c-.56-.29-1.35-.63-2.49-1.08-.85-.33-1.49-.59-1.89-.78a3,3,0,0,1-.92-.63,1.18,1.18,0,0,1-.34-.85,1.16,1.16,0,0,1,.54-1,3.07,3.07,0,0,1,1.66-.4,9.13,9.13,0,0,1,4,.87l.66-1a9,9,0,0,0-4.68-1c-2.14,0-3.34,1-3.74,1.81a3.1,3.1,0,0,0,1.1,4,22.62,22.62,0,0,0,3.57,1.81l.08,0a7.33,7.33,0,0,1,1,.53,1.94,1.94,0,0,1,.56.54,1.59,1.59,0,0,1-.43,2.15,2.68,2.68,0,0,1-1.68.47,19.71,19.71,0,0,1-4.62-.82l-.62,1a18.29,18.29,0,0,0,5.49,1c3,0,4.68-1.42,5-2.75S64.63,26.77,62.76,25.82Zm11,0c-.56-.29-1.35-.63-2.49-1.08-.85-.33-1.49-.59-1.89-.78a3.1,3.1,0,0,1-.92-.63,1.21,1.21,0,0,1,.2-1.85,3.11,3.11,0,0,1,1.67-.4,9.11,9.11,0,0,1,3.95.87l.67-1a9,9,0,0,0-4.68-1c-2.14,0-3.35,1-3.74,1.81a3.11,3.11,0,0,0,1.09,4,23.59,23.59,0,0,0,3.57,1.81l.09,0a7.94,7.94,0,0,1,1,.53,2.23,2.23,0,0,1,.56.54,1.59,1.59,0,0,1-.44,2.15,2.66,2.66,0,0,1-1.68.47,19.71,19.71,0,0,1-4.62-.82l-.62,1a18.31,18.31,0,0,0,5.5,1c3,0,4.67-1.42,5-2.75S75.59,26.77,73.72,25.82Zm16.61-5.54H88c-1,1-8.27,9.93-5.34,11.78,2,1.27,5.74-1.11,7.54-2.38l-.7-1.19c-1.27,1.06-3.61,2.22-4.48,1.42-1.23-1.16,3.1-8.25,3.1-8.25.44,1.47,2.88,8,3.44,9.05L92.18,32h2.61l-.72-1.41A49.44,49.44,0,0,1,90.33,20.28Z"/><path class="cls-1" d="M44.5,11.06l-1.91,5.31h1.6l.21-.71h1.87l.21.71h1.66l-1.92-5.31H44.5m.19,3.58.64-2.21L46,14.64Zm11.87-3.59-1.19,5.33H53.54l-.75-4.09h0l-.7,4.09H50.23l-1.18-5.33h1.46l.68,4.09h0l.71-4.09h1.8l.75,4.09h0l.7-4.09Zm-19.92,0h1.65v5.32H36.64Zm-4.6,0h4.08l-.43,1.16h-2v1.07h1.61l-.45,1.17H33.73v1.92H32Zm10.7,2.23-.46,1.17H41.12v1.92H39.44V11.05h4.08l-.43,1.16h-2v1.07Zm44-2.23h1.43v3.31c0,1.46-.95,2.11-2.34,2.11s-2.33-.65-2.33-2.11V11.05h1.42v3.07c0,.7.19,1.3.91,1.3s.91-.6.91-1.3Zm-13.14,0H71.62v5.33h1.94c1.82,0,3.15-.7,3.15-2.69S75.41,11.05,73.56,11.05Zm0,4.28h-.54V12.11h.54a1.48,1.48,0,0,1,1.66,1.6A1.47,1.47,0,0,1,73.59,15.33ZM83,15.14,83,16.26a5.81,5.81,0,0,1-1.57.21c-1.42,0-3.06-.72-3.06-2.73,0-1.86,1.3-2.78,3-2.78a5.64,5.64,0,0,1,1.58.28l-.12,1.15A2.79,2.79,0,0,0,81.53,12a1.63,1.63,0,0,0-1.67,1.73,1.63,1.63,0,0,0,1.78,1.68A3.63,3.63,0,0,0,83,15.14Zm7.45-4.09h-1.7v5.33h1.42V14.52h.55c1.33,0,2.11-.64,2.11-1.72S92,11.05,90.42,11.05Zm.09,2.46h-.37V12.06h.37c.49,0,.88.17.88.72S91,13.51,90.51,13.51ZM68.8,15.33H71v1H67.39V11.05H68.8Zm-3.25-1.58h0a1.24,1.24,0,0,0,1-1.34c0-.92-.77-1.35-1.71-1.35H62.32v5.33h1.42V14.27H64c.53,0,.7.23,1,1.15l.3,1h1.48l-.52-1.46C66,14.28,66,13.88,65.55,13.75Zm-1.43-.48h-.38V12.06h.38c.54,0,1,.09,1,.59S64.57,13.27,64.12,13.27ZM59.18,11a2.46,2.46,0,0,0-2.66,2.75,2.67,2.67,0,1,0,5.34,0A2.47,2.47,0,0,0,59.18,11Zm0,4.46c-.86,0-1.2-.82-1.2-1.71s.34-1.7,1.2-1.7,1.21.78,1.21,1.7S60.05,15.42,59.18,15.42Z"/><path class="cls-1" d="M19.81,1.28A14.51,14.51,0,0,0,13.88,0,13.84,13.84,0,0,0,1.27,8.09,14.78,14.78,0,0,0,.51,18a20.94,20.94,0,0,0,1,2.67c.59,1.31,1.26,2.59,1.81,3.87h0c0,.08.11.21.18.36C4.55,27.44,5,30,3,32.6a7.37,7.37,0,0,0,1.32.12,5.24,5.24,0,0,0,2.48-.55,5.1,5.1,0,0,1-2.19,4,10.69,10.69,0,0,0,1.6.12,8.73,8.73,0,0,0,1.24-.09h0a.43.43,0,0,1,0,0,.41.41,0,0,1,0,.12,2.79,2.79,0,0,1,0,.39c0,.45-.13,1.11-.25,1.85h0l0,.13,0,.24h0l0-.24,0-.12h0s0-.09,0-.14C7,40,6.61,42,6.38,43.13c-1.11,5.51-1.79,6.9-1.87,10s4.83,4.75,9.5,4.75h.23c3.12,0,5.84-.57,7.57-1.76a4.26,4.26,0,0,0,1.89-2.87c.39-2.51-.42-8.87-5.44-17.31l0,0a4.9,4.9,0,0,0,2.38.72h0l0,0h0c-.13-.17-.24-.34-.35-.5a5.37,5.37,0,0,1-.33-.62h0A2.43,2.43,0,0,1,19.8,35c0-.05,0-.1,0-.15s-.05-.23-.07-.35,0-.12,0-.17a1.74,1.74,0,0,1,0-.32,1.34,1.34,0,0,1,0-.2,1.49,1.49,0,0,1,0-.21C20,31.43,22.14,28.8,25,23.13h0l0,0c.32-.64.65-1.31,1-2l.3-.64C30.33,11.75,25.83,4,19.81,1.28Zm.69,1.46c3.52,2,5.34,5.47,4.06,7.67s-5.15,2.33-8.67.3S10.56,5.24,11.83,3,17,.71,20.5,2.74Zm.88,11.62a.38.38,0,0,1-.24.08.39.39,0,0,1-.32-.16.4.4,0,0,1,.07-.55.43.43,0,0,1,.24-.08.4.4,0,0,1,.25.71Zm-1.3-.11a.28.28,0,0,1-.16.05.25.25,0,0,1-.21-.1.26.26,0,0,1,.05-.37.27.27,0,0,1,.16-.06.27.27,0,0,1,.16.48ZM11.56,9.84C12.65,11.38,16.93,14,18.7,14h.16c-2.18.24-5.73,2-7.11,4C12.74,16.51,12.6,11.38,11.56,9.84Zm-.71-1.65a.39.39,0,0,1-.36.24.45.45,0,0,1-.16,0,.39.39,0,0,1-.21-.52.38.38,0,0,1,.36-.24l.15,0A.39.39,0,0,1,10.85,8.19Zm.23.64a.18.18,0,0,1,.1,0,.25.25,0,0,1,.14.34.26.26,0,0,1-.24.17.19.19,0,0,1-.1,0A.26.26,0,0,1,10.84,9,.25.25,0,0,1,11.08,8.83ZM10.64,19.6h0a.39.39,0,0,1,.39.37.41.41,0,0,1-.37.43h0a.38.38,0,0,1-.38-.37A.4.4,0,0,1,10.64,19.6Zm.41-.73a.27.27,0,0,1,.25-.28h0a.26.26,0,0,1,.26.25.27.27,0,0,1-.25.28h0A.26.26,0,0,1,11.05,18.87ZM12.39,1.11h0a4.86,4.86,0,0,0-2,1.88A5.13,5.13,0,0,0,10,7,5.79,5.79,0,0,0,8.56,5.9a4.67,4.67,0,0,0-2.41-.67A4.77,4.77,0,0,0,4,5.77,13.58,13.58,0,0,1,12.39,1.11ZM1,13.77C1,9.76,3,6.5,5.53,6.51s4.55,3.25,4.54,7.27-2,7.27-4.56,7.27S1,17.79,1,13.77ZM12.25,42.83a1.35,1.35,0,0,0-.57-.15c-.74,0-1.13.87-1.25,1.71,0,.3-.17.56-.34.56s-.29-.14-.45-.52a10.38,10.38,0,0,1-.6-4c0-.49,0-1,.05-1.49,0,0,0-.09,0-.14h0a23.85,23.85,0,0,1,.47-3.29c.18-.09.35-.19.51-.29-.17.11-.35.18-.52.27h0c.16-.09.33-.15.49-.25l.06,0,.18-.12.09-.06.17-.13.06,0,.16-.13,0,0,.07-.06.1-.09a.6.6,0,0,1,.08-.08l0,0h0l.12.14.4.5.14.15.54.71,0,.05.25.34c.1.15.21.28.31.44L13,37c.25.35.49.72.72,1.08l.2.31c.16.26.32.52.47.78l.2.34c.15.26.28.51.42.76l.16.3c.17.34.34.67.48,1a6.74,6.74,0,0,1-2.47,4,1.8,1.8,0,0,1-1,.34c-.22,0-.37-.07-.37-.18a.31.31,0,0,1,.1-.17,2.89,2.89,0,0,0,.92-1.78A1,1,0,0,0,12.25,42.83Zm-4.42-1c.11,1.4.2,2.5.2,3.42a5.53,5.53,0,0,1-1.84,4.55A80.8,80.8,0,0,0,7.83,41.86ZM6,51h.17c2.92,0,8.13-3.07,9.77-7.32v.14C16,49.69,10.53,53,7.65,53c-1,0-1.73-.43-1.73-1.31A2.28,2.28,0,0,1,6,51Zm5.32,5.08a9.22,9.22,0,0,1-2.09-.25A8.05,8.05,0,0,1,6,54.2a7.33,7.33,0,0,0,1.47.15c4.58,0,9.26-4.36,9.25-9.55,0-.23,0-.47,0-.7a19.67,19.67,0,0,1,.68,4.81C17.38,53.65,14.94,56.08,11.36,56.08Zm9.73-11.26c1.32,4,2.18,8.16.34,9.81a6,6,0,0,1-.49.39,8.3,8.3,0,0,1-3.69,1.39,14,14,0,0,1-1.82.12c-.71,0-1.17-.05-1.17-.05l0,0h0A7.8,7.8,0,0,0,16,55.65c1.51-1,2.4-2.63,2.48-5.46v-.3c.07-6.44-2.83-12-6.68-16.68,0,0,0,0,0,0,.68-1.22.48-3.18-1.21-3.46a3.73,3.73,0,0,1,.44,2.6A2.82,2.82,0,0,1,9.93,34a5.32,5.32,0,0,1-2.87,1H7A6,6,0,0,0,8.28,32s0,0,0,0a2.72,2.72,0,0,0,.75-3.9,3.31,3.31,0,0,0-1.4-.91,3.54,3.54,0,0,1,.16.43A4.45,4.45,0,0,1,8,29.21,2.37,2.37,0,0,1,6.82,31a4.15,4.15,0,0,1-2.19.75c1.08-1.3,1-2.7.87-4.28a6.28,6.28,0,0,0-.26-1.35,1.82,1.82,0,0,0-.07-.25h0A4,4,0,0,0,5,25.42v0c0-.12-.09-.24-.14-.36l-.11-.27c-.12-.3-.25-.58-.37-.85a17.12,17.12,0,0,0-.9-1.66l0,0h0a4.82,4.82,0,0,0,2.42.66h0a4.76,4.76,0,0,0,4.1-2v0h0a7.3,7.3,0,0,0-.33,2.44,9.24,9.24,0,0,0,.13,1.41c0,.25.09.52.15.79h0v.05h0q.11.46.27,1l.13.37,0,0c0-.14-.1-.28-.15-.41a15.25,15.25,0,0,0,.83,2h0a19.84,19.84,0,0,0,2.56,3.81A32.17,32.17,0,0,1,21.09,44.82ZM23.8,23.23c-.25.49-.51,1-.8,1.46l.07,0-.1.07a39.55,39.55,0,0,1-3.91,5.46,1.82,1.82,0,0,1-.25.24c-.5.38-.89,0-.78-.43a3.57,3.57,0,0,0,.06-1.22A3.58,3.58,0,0,1,18,30.05h0a3.71,3.71,0,0,0,0-1.2,1.06,1.06,0,0,0-1.36-1c-.64.1-1.37,1.05-.54,2.67h0a.32.32,0,0,1,0,.3c-.06.08-.2.11-.49,0a6.68,6.68,0,0,1-3.82-4v0a7.6,7.6,0,0,1,0-4.39,9.4,9.4,0,0,1,4.54-5.21c3.34-1.85,7-1.43,8.14.66C25.13,18.89,25.1,20.73,23.8,23.23Zm2.35-4.63a4.64,4.64,0,0,0-2.4-3.91A6.05,6.05,0,0,0,22.07,14a5.19,5.19,0,0,0,3.3-2.36A4.9,4.9,0,0,0,26,9,13.56,13.56,0,0,1,26.15,18.6Z"/><path class="cls-1" d="M19.92,49.26a.54.54,0,0,0-.12.34A.52.52,0,0,0,20,50a.54.54,0,0,0,.33.12h0a.51.51,0,0,0,.38-.16l0,0h0a.47.47,0,0,0,.12-.32h0a.52.52,0,0,0-.19-.41h0l0,0h0a.51.51,0,0,0-.28-.09h0a.62.62,0,0,0-.38.16Z"/><path class="cls-1" d="M19.36,45.9h0a.21.21,0,0,0,.17-.08.27.27,0,0,0,.06-.16.25.25,0,0,0-.09-.19.32.32,0,0,0-.15-.06h0a.3.3,0,0,0-.17.08h0a.25.25,0,0,0-.06.16.27.27,0,0,0,.08.19A.24.24,0,0,0,19.36,45.9Z"/><path class="cls-1" d="M19.54,47.47a.37.37,0,0,0,.14.3h0a.42.42,0,0,0,.22.08h0a.36.36,0,0,0,.27-.12h0a.38.38,0,0,0,.09-.25.39.39,0,0,0-.13-.29h0l-.08,0h-.15a.45.45,0,0,0-.27.12v0A.38.38,0,0,0,19.54,47.47Z"/><path class="cls-1" d="M20.5,51.39v0l0,0,0,0a1.06,1.06,0,0,1-1,.8l0,0,0,0a1.26,1.26,0,0,1,.39.23h0a1.27,1.27,0,0,1,.22.25v0h.05a.89.89,0,0,1,.09.39v0l0,0,0,0,0-.11a.89.89,0,0,1,.28-.41A1.36,1.36,0,0,1,21,52.5h0l.2,0h.09l0,0,0,0A1.09,1.09,0,0,1,20.5,51.39Z"/><path class="cls-1" d="M12.57,53.89h0a.57.57,0,0,0-.56.56h0a.56.56,0,0,0,.56.55h0a.56.56,0,0,0,.55-.56h0A.56.56,0,0,0,12.57,53.89Z"/><path class="cls-1" d="M16,51a.18.18,0,0,0,.18-.17l0-.11,0,0-.1,0a.17.17,0,0,0-.17.18h0A.17.17,0,0,0,16,51Z"/><path class="cls-1" d="M15.78,52l-.06-.18a.18.18,0,0,0-.08-.07l-.16-.05a.31.31,0,0,0-.31.31.3.3,0,0,0,.31.3A.3.3,0,0,0,15.78,52Z"/><path class="cls-1" d="M14.81,53.36h0a.42.42,0,0,0-.15-.32.5.5,0,0,0-.12-.08l-.2,0a.47.47,0,0,0-.46.46h0a.47.47,0,0,0,.47.46h0a.47.47,0,0,0,.46-.47h0Z"/><path class="cls-1" d="M13.07,40.92h0a1.83,1.83,0,0,1,.5-.26,2.37,2.37,0,0,1,.36-.09l.05-.05,0-.06a1.77,1.77,0,0,1-.88-.52l-.22-.08.22.08a1.45,1.45,0,0,1-.38-.91l0-.06-.06,0a1.31,1.31,0,0,1-.28.65,1.79,1.79,0,0,1-1.14.64l-.05.05,0,.06.11,0h0l.15.05a1.81,1.81,0,0,1,.63.45,1.56,1.56,0,0,1,.23.34,1.27,1.27,0,0,1,.12.39s0,0,0-.05,0,0,0,.05a.88.88,0,0,1,0,.17l0,0h0l0,0h0l.06,0a1.44,1.44,0,0,1,.55-.92Z"/><path class="cls-1" d="M25.26,13.26l0,0,0,0a.92.92,0,0,1-.77.8l0,0,0,0,.09,0h0l.07,0h0a1,1,0,0,1,.49.4.75.75,0,0,1,.1.33h0l0,0,0,0v0a.79.79,0,0,1,.06-.22l0-.08h0a.78.78,0,0,1,.22-.26.9.9,0,0,1,.35-.18l.09,0,0,0,0,0A.92.92,0,0,1,25.26,13.26Z"/><path class="cls-1" d="M7.6,25.68s0,0,0,0h0l0,0h0l0,0h0l-.09,0h0a.26.26,0,0,0-.23.27v0a.28.28,0,0,0,.27.24h0a.29.29,0,0,0,.24-.27s0,0,0,0Z"/><path class="cls-1" d="M8.83,23.73a1.53,1.53,0,0,1,.07-.41l0,0H8.83A1.16,1.16,0,0,1,8,23.7a1,1,0,0,1-.42-.09l0,0v.05A1,1,0,0,1,7.8,24a1.19,1.19,0,0,1,.06.93h0v0l0,.05h0a1.18,1.18,0,0,1,.83-.42h.05a.92.92,0,0,1,.29,0h0l.14.05h0v-.05A1.08,1.08,0,0,1,8.83,23.73Z"/><path class="cls-1" d="M8.09,4.86h0A.91.91,0,0,1,8.57,5a.79.79,0,0,1,.18.14h0a.39.39,0,0,1,.08.1h0v0A.94.94,0,0,1,9.16,4.1v0l0,0a1,1,0,0,1-.35.06A.89.89,0,0,1,8,3.74H8v0a.84.84,0,0,1,0,.66,1,1,0,0,1-.28.42h0v0h0A1.07,1.07,0,0,1,8.09,4.86Z"/><path class="cls-1" d="M6.66,13.71a.25.25,0,1,0-.36,0A.25.25,0,0,0,6.66,13.71Z"/><path class="cls-1" d="M4,13.28A.26.26,0,1,0,3.76,13,.26.26,0,0,0,4,13.28Z"/><path class="cls-1" d="M4.8,11.69a.53.53,0,1,0,0-1.06.53.53,0,1,0,0,1.06Z"/><path class="cls-1" d="M6,15.68v-.06A1.41,1.41,0,0,1,5.44,14l0-.06-.07,0a1.41,1.41,0,0,1-1.59.55l-.06,0,0,.06a1.41,1.41,0,0,1,.51,1.61l0,.06.06,0a1.42,1.42,0,0,1,1.6-.56Z"/><path class="cls-1" d="M19.54,8.2l0,.05.06,0a1.18,1.18,0,0,1,1.25-.7l.05,0,0,0a1.2,1.2,0,0,1-.67-1.28l0,0-.05,0a1.21,1.21,0,0,1-1.26.7l0,0,0,0A1.21,1.21,0,0,1,19.54,8.2Z"/><path class="cls-1" d="M16.38,5.43a.32.32,0,0,0,.26-.38.33.33,0,1,0-.64.12A.32.32,0,0,0,16.38,5.43Z"/><path class="cls-1" d="M16.24,6.62s.11.13.31.22l0,.2a.63.63,0,0,0,.77.48.65.65,0,0,0,.41-.35c.18,0,.29,0,.31,0S18,7,17.81,7a.65.65,0,0,0,0-.24A.62.62,0,0,0,17,6.25a.65.65,0,0,0-.43.36C16.4,6.58,16.25,6.58,16.24,6.62Z"/><path class="cls-1" d="M19.45,19.56a.24.24,0,1,0-.48,0,.24.24,0,0,0,.48,0Z"/><path class="cls-1" d="M17.54,22.18a.64.64,0,0,0-.63.64.63.63,0,0,0,.64.62.63.63,0,0,0,.63-.63A.64.64,0,0,0,17.54,22.18Z"/><path class="cls-1" d="M20.42,20.51l0,0h0a1.09,1.09,0,0,1-1.23.43l0,0V21a1.07,1.07,0,0,1,.39,1.23l0,.05h0a1.06,1.06,0,0,1,1.22-.43l0,0v-.05A1.09,1.09,0,0,1,20.42,20.51Z"/><path class="cls-1" d="M17.63,21.06h0v0a.76.76,0,0,1-.27-.85v0h0a.72.72,0,0,1-.84.29l0,0v0a.76.76,0,0,1,.27.85v0h0A.74.74,0,0,1,17.63,21.06Z"/></g></g></svg>