<svg xmlns="http://www.w3.org/2000/svg" viewBox="0 0 168.29 168.29"><defs><style>.cls-1{fill:#c1c1c1;}</style></defs><title>instagram_g</title><g id="Layer_2" data-name="Layer 2"><g id="Layer_1-2" data-name="Layer 1"><path class="cls-1" d="M103.83,32.9H64.47A31.57,31.57,0,0,0,32.9,64.47v39.36A31.57,31.57,0,0,0,64.47,135.4h39.38a31.57,31.57,0,0,0,31.57-31.57l0-39.36A31.57,31.57,0,0,0,103.83,32.9Zm15.45,51.48A33.43,33.43,0,1,1,85.85,50.94h0a33.42,33.42,0,0,1,33.42,33.42ZM117,58.92a8.5,8.5,0,1,1,8.5-8.5A8.5,8.5,0,0,1,117,58.92Z"/><path class="cls-1" d="M85.85,64.33a20.09,20.09,0,0,0,0,40.18v0a20.07,20.07,0,1,0,0-40.15Z"/><path class="cls-1" d="M133.73,0H34.56A34.57,34.57,0,0,0,0,34.57v99.15a34.57,34.57,0,0,0,34.56,34.56h99.16a34.57,34.57,0,0,0,34.56-34.56V34.57A34.57,34.57,0,0,0,133.73,0Zm13.88,108.51h0a39.1,39.1,0,0,1-39.11,39.09H59.79a39.11,39.11,0,0,1-39.11-39.1V59.8A39.11,39.11,0,0,1,59.79,20.69H108.5A39.11,39.11,0,0,1,147.61,59.8Z"/></g></g></svg>