<?xml version="1.0" encoding="utf-8"?>
<!-- Generator: Adobe Illustrator 24.1.2, SVG Export Plug-In . SVG Version: 6.00 Build 0)  -->
<svg version="1.1" id="Layer_1" xmlns="http://www.w3.org/2000/svg" xmlns:xlink="http://www.w3.org/1999/xlink" x="0px" y="0px"
	 viewBox="0 0 168.3 168.3" style="enable-background:new 0 0 168.3 168.3;" xml:space="preserve">
<style type="text/css">
	.st0{fill:url(#SVGID_1_);}
	.st1{fill:#EFF7FB;}
	.st2{fill:#C7D9E9;}
</style>
<g>
	<linearGradient id="SVGID_1_" gradientUnits="userSpaceOnUse" x1="112.3387" y1="22.4781" x2="57.181" y2="142.8681">
		<stop  offset="0" style="stop-color:#33AADE"/>
		<stop  offset="0.5049" style="stop-color:#289FD1"/>
		<stop  offset="1" style="stop-color:#1E96C7"/>
	</linearGradient>
	<circle class="st0" cx="84" cy="84.2" r="83.9"/>
	<g>
		<path class="st1" d="M84.1,113.2c-0.3-0.2-0.7-0.5-1-0.7c-0.8-0.6-1.5-1.2-2.3-1.7c-0.1-0.1-0.2-0.2-0.3-0.3c-1-0.8-2-1.5-3-2.2
			c-3-2.2-6-4.4-9-6.7c-0.4-0.3-0.4-0.3,0-0.6c1-0.9,1.9-1.8,2.9-2.6c0.8-0.8,1.7-1.5,2.5-2.3c1.6-1.4,3.2-2.9,4.8-4.3
			c1.3-1.2,2.6-2.4,3.9-3.5c1.7-1.5,3.3-3,5-4.5c1.2-1.1,2.4-2.2,3.6-3.2c1.6-1.4,3.2-2.9,4.8-4.3c1.3-1.2,2.5-2.3,3.8-3.5
			c2.1-1.9,4.3-3.9,6.4-5.8c0.4-0.4,0.9-0.7,1.2-1.1c0.2-0.2,0.4-0.5,0.2-0.8c-0.2-0.3-0.5-0.4-0.8-0.4c-0.8-0.1-1.6,0.2-2.2,0.6
			c-3.2,2-6.4,4-9.7,6.1c-6.2,3.9-12.4,7.8-18.7,11.8c-5.9,3.8-11.9,7.5-17.8,11.3c-0.7,0.4-1.4,0.9-2.1,1.3
			c-1.4-0.4-2.7-0.8-4.1-1.3c-5.6-1.8-11.3-3.5-16.9-5.3c-0.8-0.3-1.6-0.6-2.2-1.3c-0.8-0.8-0.9-1.8-0.3-2.7
			c0.3-0.4,0.7-0.8,1.1-1.1c0.9-0.7,1.9-1.2,3-1.6c12.2-4.7,24.4-9.4,36.6-14.2c3.8-1.5,7.7-2.9,11.5-4.4c1.4-0.6,2.9-1.1,4.3-1.7
			c1.4-0.5,2.9-1.1,4.3-1.6c8-3.1,16-6.2,23.9-9.2c1.1-0.4,2.1-0.6,3.2-0.3c1.7,0.5,2.4,1.8,2.7,3.4c0.3,1.4-0.1,2.8-0.4,4.1
			c-1.2,5.6-2.4,11.2-3.6,16.9c-0.2,1-0.5,1.9-0.6,2.9c-0.2,0.4-0.2,0.9-0.3,1.4c-1.1,5.1-2.1,10.2-3.3,15.3
			c-0.4,1.9-0.8,3.9-1.2,5.8c-0.5,2.3-0.9,4.5-1.4,6.8c-1.2,5.6-2.3,11.2-3.6,16.7c-0.1,0.3-0.2,0.5-0.3,0.8c0,0.1-0.1,0.1-0.1,0.2
			c0,0.1-0.1,0.1-0.1,0.2c-1.1,1.8-2.6,2.4-4.6,1.9c-0.9-0.3-1.8-0.6-2.6-1.2c-3-2.2-5.9-4.4-8.9-6.6c-0.1-0.1-0.3-0.2-0.4-0.3
			c-0.1,0-0.1-0.1-0.2-0.1c-0.3-0.3-0.6-0.5-0.9-0.7c-0.3-0.2-0.7-0.5-1-0.7c-0.3-0.2-0.6-0.5-1-0.7c-0.3-0.2-0.7-0.5-1-0.7
			c-0.3-0.3-0.7-0.5-1-0.8c-0.3-0.2-0.6-0.5-0.9-0.7c-0.3-0.2-0.7-0.5-1-0.7C84.8,113.7,84.4,113.4,84.1,113.2z"/>
		<path class="st2" d="M57.8,100.5c-0.5-1.7-0.9-3.3-1.5-4.9c0.8-0.3,1.4-0.8,2.1-1.3c6-3.7,11.9-7.5,17.8-11.3
			c6.2-3.9,12.4-7.8,18.7-11.8c3.2-2,6.4-4.1,9.7-6.1c0.7-0.4,1.4-0.7,2.2-0.6c0.3,0,0.6,0.1,0.8,0.4c0.2,0.3,0,0.6-0.2,0.8
			c-0.3,0.4-0.8,0.8-1.2,1.1c-2.1,1.9-4.3,3.9-6.4,5.8c-1.3,1.2-2.5,2.3-3.8,3.5c-1.6,1.4-3.2,2.9-4.8,4.3c-1.2,1.1-2.4,2.2-3.6,3.2
			c-1.7,1.5-3.3,3-5,4.5c-1.3,1.2-2.6,2.4-3.9,3.5c-1.6,1.4-3.2,2.9-4.8,4.3c-0.8,0.8-1.7,1.5-2.5,2.3c-1,0.9-1.9,1.7-2.9,2.6
			c-0.4,0.3-0.4,0.3,0,0.6c3,2.2,6,4.4,9,6.7c1,0.7,2,1.5,3,2.2c0.1,0.1,0.2,0.2,0.3,0.3c-0.2,0.3-0.5,0.5-0.7,0.8
			c-1.2,1.2-2.5,2.4-3.7,3.6c-2.1,2-4.2,4-6.2,6.1c-1.2,1.2-2.7,1.6-4.3,1.4c-1-0.1-1.5-0.6-1.8-1.5c-0.7-2.5-1.5-4.9-2.3-7.4
			c-1.3-4.3-2.6-8.6-3.9-12.8C57.9,100.8,57.8,100.7,57.8,100.5z"/>
	</g>
</g>
</svg>
