<?xml version="1.0" encoding="utf-8"?>
<!-- Generator: Adobe Illustrator 22.1.0, SVG Export Plug-In . SVG Version: 6.00 Build 0)  -->
<svg version="1.1" id="katman_1" xmlns="http://www.w3.org/2000/svg" xmlns:xlink="http://www.w3.org/1999/xlink" x="0px" y="0px"
	 viewBox="0 0 161.2 161.3" style="enable-background:new 0 0 161.2 161.3;" xml:space="preserve">
<style type="text/css">
	.st0{fill:#C1C1C1;}
</style>
<g>
	<path class="st0" d="M159.3,80.7c0,20,0,40-0.1,60.1c0,10.3-8.2,18.5-18.5,18.5c-20,0-40,0.1-60.1,0.1h-0.3c-20,0-40,0-60.1-0.1
		c-10.3,0-18.5-8.2-18.5-18.5c0-20-0.1-40-0.1-60.1v-0.3c0-20,0-40,0.1-60.1C1.8,10,10,1.8,20.3,1.8c20,0,40-0.1,60.1-0.1h0.3
		c20,0,40,0,60.1,0.1c10.3,0,18.5,8.2,18.5,18.5c0,20,0.1,40,0.1,60.1V80.7z M124.7,69.6c0-6,0-11.6,0-17.3
		c-14.6-2.3-23.2-10.6-25.9-25c-5,0-9.8,0-14.9,0c0,9.3,0,18.3,0,27.4c0,15.2,0,30.4-0.2,45.6c-0.1,8.9-7.2,15.9-16.3,16.1
		c-8.7,0.2-16.1-6.2-16.8-14.7c-0.8-8.8,5.3-16.4,14.2-17.7c1.3-0.2,2.5-0.2,3.8-0.3c0-5.2,0-10.2,0-15.3c-0.9-0.1-1.5-0.2-2.2-0.2
		c-19.8,0-35.1,19.1-30.8,38.5c3.5,16.1,18.3,26.9,34.6,25.2c16.2-1.7,28.5-15.4,28.6-31.9c0-13.2,0-26.4,0-39.6c0-0.9,0-1.8,0-3.3
		C105.6,66.1,114,70.2,124.7,69.6z"/>
</g>
</svg>
