<svg xmlns="http://www.w3.org/2000/svg" viewBox="0 0 164.21 133.3"><defs><style>.cls-1{fill:#c1c1c1;}</style></defs><title>twitter_g</title><g id="Layer_2" data-name="Layer 2"><g id="Layer_1-2" data-name="Layer 1"><g id="Layer_2-2" data-name="Layer 2"><g id="Layer_1-2-2" data-name="Layer 1-2"><path class="cls-1" d="M51.64,133.3c62,0,95.85-51.34,95.85-95.87,0-1.46,0-2.91-.09-4.36a68.35,68.35,0,0,0,16.81-17.42A67.51,67.51,0,0,1,144.87,21,33.89,33.89,0,0,0,159.68,2.39a67.8,67.8,0,0,1-21.44,8.19A33.69,33.69,0,0,0,80,33.54a34.44,34.44,0,0,0,.86,7.69A95.72,95.72,0,0,1,11.43,6.06,33.71,33.71,0,0,0,21.87,51,33.43,33.43,0,0,1,6.61,46.8v.43a33.69,33.69,0,0,0,27,33,33.76,33.76,0,0,1-8.87,1.19,33.31,33.31,0,0,1-6.34-.62,33.73,33.73,0,0,0,31.47,23.41A67.55,67.55,0,0,1,8,118.64a68.35,68.35,0,0,1-8-.47A95.28,95.28,0,0,0,51.64,133.3"/></g></g></g></g></svg>