<?xml version="1.0" encoding="utf-8"?>
<!-- Generator: Adobe Illustrator 19.1.0, SVG Export Plug-In . SVG Version: 6.00 Build 0)  -->
<svg version="1.1" id="Layer_1" xmlns="http://www.w3.org/2000/svg" xmlns:xlink="http://www.w3.org/1999/xlink" x="0px" y="0px"
	 viewBox="-207 257.2 195.7 279.8" style="enable-background:new -207 257.2 195.7 279.8;" xml:space="preserve">
<style type="text/css">
	.st0{fill:#FFFFFF;}
</style>
<title>Europa_League</title>
<g id="Layer_2">
	<g id="Layer_1-2">
		<g id="_Group_">
			<g id="_Group_2">
				<path id="_Compound_Path_" class="st0" d="M-98.8,432.8l8,2.1l0.9-3.1l-8-2.1l0.3-1.8c0.5-1.9,1.2-2.1,3-1.8l6.5,1.8l0.9-3.3
					l-6.6-1.8c-3.2-0.9-5.9,0-7,3.7l-3,11.2c-0.2,0.6,0.1,1.3,0.7,1.5c0,0,0.1,0,0.2,0l2.1,0.5L-98.8,432.8z M-115.9,424.2l-0.7-3.3
					l-11,2.3c-0.7,0.1-1.1,0.8-1,1.5c0,0,0,0,0,0.1l2.3,11.4c0.7,3.9,3.7,4.7,6.6,4l6.6-1.4l-0.7-3.3l-6.5,1.4
					c-1.8,0.4-2.4,0-2.8-1.9l-0.3-1.8l8-1.6l-0.7-3.3l-8,1.6l-0.9-4L-115.9,424.2z M-142.6,447c-1.3-0.2-2.5-1-3.3-2.1l-6.3-7.7
					l-2.8,2.3l6.8,8.4c1.2,1.6,2.9,2.6,4.9,2.8c2.2,0.2,4.3-0.5,5.9-1.9c1.8-1.3,2.9-3.3,3.1-5.5c0.2-2-0.5-3.9-1.7-5.4l-6.8-8.4
					l-2.8,2.3l6.3,7.7c1.2,1.6,1.6,2.4,1.4,3.7C-138.2,445.4-140.3,447.1-142.6,447 M-70.3,434c0.6,0.4,0.9,1.2,0.5,1.9l-5.3,18
					l-2.8-2.6l1-3.5l-3.5-2.6l3-1.9l1.4,1l1.8-6.1l-11.4,7.3l-3.3-1.9l15.7-10.1c0.6-0.4,1.4-0.4,1.9,0L-70.3,434z M-139.5,459.4
					l-2.1-1.9c15.3-17.6,41.9-19.5,59.5-4.2c1.5,1.3,2.9,2.7,4.2,4.2l-2.1,1.9c-14.4-16.4-39.4-18-55.8-3.6
					C-137.2,456.9-138.4,458.1-139.5,459.4 M-159.3,437.4l-1.9-1.9c27.7-28.4,73.1-29,101.5-1.3c0.4,0.4,0.9,0.9,1.3,1.3l-1.9,1.9
					c-26.7-27.3-70.6-27.8-97.9-1.1C-158.6,436.6-158.9,437-159.3,437.4"/>
				<g id="_Group_3">
					<g id="_Group_4">
						<path id="_Path_" class="st0" d="M-100.3,528.4h7v1.6c-1.4,1.4-3.3,2.3-5.3,2.3c-4,0-6.8-2.3-6.8-7.2c0-4.7,3.2-7.2,6.3-7.2
							c2.5-0.2,4.8,1.4,5.4,3.9l4.9-1.4c-1.2-4.2-4.5-7.2-10.3-7.2c-6.2-0.2-11.4,4.7-11.6,10.9c0,0.3,0,0.5,0,0.8
							c0,7.3,5.3,11.7,11.7,11.7c4.1,0.2,8.1-1.7,10.5-5.1v-7.7h-11.9V528.4z"/>
						<polygon id="_Path_2" class="st0" points="-166.3,513.7 -171.5,513.7 -171.5,536.7 -155.4,536.7 -155.4,531.9 -166.3,531.9 
													"/>
						<polygon id="_Path_3" class="st0" points="-147.9,527.4 -138.1,527.4 -138.1,522.8 -147.9,522.8 -147.9,518.5 -137.2,518.5 
							-137.2,513.7 -153,513.7 -153,536.7 -137.1,536.7 -137.1,531.9 -147.9,531.9 						"/>
						<polygon id="_Path_4" class="st0" points="-58.6,531.9 -58.6,527.4 -48.9,527.4 -48.9,522.8 -58.6,522.8 -58.6,518.5 
							-48.1,518.5 -48.1,513.7 -63.8,513.7 -63.8,536.7 -47.9,536.7 -47.9,531.9 						"/>
						<path id="_Path_5" class="st0" d="M-72,527.4c0,3-1.6,4.9-4.4,4.9s-4.4-1.9-4.4-4.9v-13.5H-86v13.8c0,6.3,4.4,9.3,9.6,9.3
							c5.3,0,9.6-3,9.6-9.3v-13.8H-72V527.4z"/>
						<path id="_Compound_Path_2" class="st0" d="M-125.3,513.7l-9.3,22.7h5.9l1.6-4.4h8.9l1.6,4.4h5.9l-9.3-22.7H-125.3z
							 M-125.3,527.6l2.6-7l2.6,7H-125.3z"/>
					</g>
					<g id="_Group_5">
						<path id="_Path_6" class="st0" d="M-155.2,488.6c0,4.7-2.4,7.7-7,7.7s-7-3-7-7.7v-21.2h-8.2v21.7c0,10,6.8,14.5,15,14.5
							c8.2,0,15-4.7,15-14.5v-21.7h-8.1v21.2H-155.2z"/>
						<path id="_Compound_Path_3" class="st0" d="M-45.4,479.3c0-7.7-5.8-11.7-12.8-11.7h-14v35.5h8.2V491h5.8
							C-51.2,491-45.4,487-45.4,479.3z M-58.7,483.7h-5.4v-8.9h5.4c3.7,0,5.1,1.9,5.1,4.6C-53.6,481.7-55.1,483.7-58.7,483.7
							L-58.7,483.7z"/>
						<polygon id="_Path_7" class="st0" points="-198.8,488.7 -183.6,488.7 -183.6,481.4 -198.8,481.4 -198.8,474.8 -182.4,474.8 
							-182.4,467.4 -207,467.4 -207,503.1 -182,503.1 -182,495.7 -198.8,495.7 						"/>
						<path id="_Compound_Path_4" class="st0" d="M-26,467.4h-8.6l-14.5,35.5h9.3l2.6-6.8h14l2.6,6.8h9.3L-26,467.4z M-34.6,488.9
							l4.2-10.8l4.2,10.8H-34.6z"/>
						<path id="_Compound_Path_5" class="st0" d="M-115.2,478.8c0-7-5.6-11.4-12.9-11.4h-14.2v35.5h8.2v-12.8h4.4l7.2,12.8h9.1
							l-7.9-14.3C-117.5,486.8-115.1,483-115.2,478.8z M-128,483h-6.1v-8.2h6.1c3.3,0,4.6,1.8,4.6,4C-123.2,481.2-124.5,483-128,483
							z"/>
						<path id="_Compound_Path_6" class="st0" d="M-94,466.7c-10.5,0-17.1,7-17.1,18.5c0,11.5,6.8,18.5,17.1,18.5
							c10.5,0,17.1-7,17.1-18.5C-76.9,473.7-83.7,466.7-94,466.7z M-94,496.4c-5.1,0-9.1-3.7-9.1-11.2c0-7.7,4-11.2,9.1-11.2
							s9,3.7,9,11.2S-89,496.4-94,496.4L-94,496.4z"/>
					</g>
				</g>
			</g>
			<path id="_Path_8" class="st0" d="M-104.5,396.9L-104.5,396.9c4.6-0.4,9.2-1.2,13.6-2.4l0,0c0.1,0,0.2-0.1,0.2-0.2v-0.2l0,0
				c-5.6-6.1-14.3-18.5-20.3-29.7c3,12.1,5.6,25.3,6.1,32.3C-104.7,396.9-104.7,396.9-104.5,396.9"/>
			<path id="_Path_9" class="st0" d="M-79.4,271L-79.4,271c0-0.2,0-0.4-0.2-0.4l0,0l-21-12.1h-0.2c-0.2,0-0.2,0.2-0.3,0.2l0,0
				c-1,4.5-10.8,49.3,4.9,102.6C-101.7,326.6-88.1,288.2-79.4,271"/>
			<path id="_Path_10" class="st0" d="M-85.8,392.9c-29.5-47.6-24.8-114.9-21.5-135.3l0,0c0-0.2-0.2-0.3-0.3-0.4l0,0
				c-3.8,1.6-29.9,12.1-32.7,13.1c-0.2,0-0.2,0.2-0.2,0.4l0,0C-135.3,294.8-121.8,352-85.8,392.9"/>
			<path id="_Path_11" class="st0" d="M-126.2,394.7L-126.2,394.7c0,0.2,0,0.4,0.2,0.4c5.2,1.4,10.5,2.1,15.9,2.3
				c0.2,0,0.3-0.2,0.3-0.4l0,0c-0.7-11.5-3.3-35.3-13.1-56.5C-119.8,361.8-123.3,384.2-126.2,394.7"/>
			<path id="_Path_12" class="st0" d="M-133.9,392.4c0.2,0,0.2,0,0.2-0.2l0,0c0.2-0.5,0.3-1,0.3-1.6l0,0c0-0.2-0.2-0.2-0.2-0.4l0,0
				c-21.2-9.1-35.3-33.7-35.3-58.4c0-19.2,8.2-40.2,22.4-51.1l0,0v-0.2l0,0c0-0.4-0.4-1-0.4-1.6l0,0c0-0.2-0.2-0.2-0.3-0.2h-0.2
				c-17.2,12.2-27.4,32.1-27.3,53.1C-174.4,358.5-158.4,382.3-133.9,392.4L-133.9,392.4"/>
			<path id="_Path_13" class="st0" d="M-73.4,277.3L-73.4,277.3c-0.2,0-0.4,0-0.4,0.2l-0.7,1.4v0.2c0,0.2,0,0.2,0.2,0.2l0,0
				c15.7,10.7,24.6,32.2,24.6,52.6c0,22.9-11,45.6-29.9,55.8l0,0l-0.2,0.2v0.2l0,0l0.9,1.4l0,0l0.2,0.2h0.2
				c21.3-11.3,34.6-33.4,34.6-57.5C-44,310-55.1,289.5-73.4,277.3"/>
			<g id="_Group_6">
				<polygon id="_Path_14" class="st0" points="-60.5,391.2 -58.9,391.2 -58.9,395.5 -58.2,395.5 -58.2,391.2 -56.6,391.2 
					-56.6,390.5 -60.5,390.5 				"/>
				<polygon id="_Path_15" class="st0" points="-51.6,390.5 -53.3,394.8 -54.9,390.5 -55.8,390.5 -55.8,395.5 -55.1,395.5 
					-55.1,391.9 -53.6,395.5 -52.8,395.5 -51.4,391.9 -51.4,395.5 -50.7,395.5 -50.7,390.5 				"/>
			</g>
		</g>
	</g>
</g>
</svg>
